<svg xmlns="http://www.w3.org/2000/svg" viewBox="0 0 199 199"><defs><style>.cls-1{fill:#e94e1b;}.cls-2,.cls-3{fill:none;stroke:#fff;stroke-linecap:round;stroke-linejoin:round;}.cls-2{stroke-width:3px;}.cls-3{stroke-width:2.5px;}.cls-4{fill:#fff;}</style></defs><g id="Calque_2" data-name="Calque 2"><g id="Layer_1" data-name="Layer 1"><circle class="cls-1" cx="99.5" cy="99.5" r="99.5"/><path class="cls-2" d="M28.86,114.5h0c1.92.09,5.57-1.4,10.31-3.22h0a52.91,52.91,0,0,1,18.45-3.73h.07a43.68,43.68,0,0,1,17.76,3.93h0c4.38,1.8,7.25,3,11.38,3h0c4.11,0,7.28-1.25,11.71-3h0c4.34-1.74,9.85-3.88,17.28-3.91H116s0,0,0,0h0c7.51,0,12.74,2.25,16.73,4h0c4.16,1.74,7,3,12.33,3h.41c5.19,0,9.28-1.46,13.69-3.15h0c4.38-1.67,9.06-3.62,15-3.79"/><path class="cls-2" d="M28.86,126.23h0c1.92.09,5.57-1.4,10.31-3.22h0a52.91,52.91,0,0,1,18.45-3.73h.07a43.68,43.68,0,0,1,17.76,3.93h0c4.38,1.8,7.25,3,11.38,3h0c4.11,0,7.28-1.25,11.71-3h0c4.34-1.74,9.85-3.88,17.28-3.91H116s0,0,0,0h0c7.51,0,12.74,2.25,16.73,4h0c4.16,1.74,7,3,12.33,3h.41c5.19,0,9.28-1.46,13.69-3.15h0c4.38-1.67,9.06-3.62,15-3.79"/><path class="cls-2" d="M28.86,138h0c1.92.09,5.57-1.4,10.31-3.22h0A52.91,52.91,0,0,1,57.62,131h.07a43.68,43.68,0,0,1,17.76,3.93h0c4.38,1.8,7.25,3,11.38,3h0c4.11,0,7.28-1.25,11.71-3h0c4.34-1.74,9.85-3.88,17.28-3.91H116s0,0,0,0h0c7.51,0,12.74,2.25,16.73,4h0c4.16,1.74,7,3,12.33,3h.41c5.19,0,9.28-1.46,13.69-3.15h0c4.38-1.67,9.06-3.62,15-3.79"/><polyline class="cls-3" points="38.35 91.64 38.35 85.77 48.81 85.77 48.81 77.11 64.87 77.11 64.87 91.64"/><path class="cls-4" d="M104.61,107.16c-11.41,0-22.81,0-34.21-.09-1,0-2.63.36-3.21,1.27s.51,1.23,1.26,1.23l34.22.09c1,0,2.62-.36,3.2-1.27s-.51-1.23-1.26-1.23Z"/><path class="cls-4" d="M165.54,106.78a12.13,12.13,0,0,0-1.93.21c-.29.11.72,0,.28,0h-.33l-2.11,0c-2.39,0-4.77,0-7.15,0q-12.17,0-24.32,0c-1.07,0-2.62.32-3.17,1.37s.44,1.62,1.36,1.62q12.32,0,24.62,0c2.37,0,4.74,0,7.11,0a31.73,31.73,0,0,0,5.06-.27c.93-.17,2.55-.6,2.72-1.75s-1.37-1.35-2.14-1.21Z"/><path class="cls-4" d="M45.37,106.4c-2.33,0-4.69.08-7-.06s-3.67-1.27-3.67-3.52c0-3.78.15-7.56.25-11.34l-2.64,2h37L67,92.28l2.3,6.89a2.11,2.11,0,0,0,2.22,1.21L94,100.29l35.63-.14,8.2,0a2.93,2.93,0,0,0,2.52-1.53l2.8-6.63-2.51,1.53h33L171.4,91.8c-.49,2.49-1.05,5-1.75,7.41a26.6,26.6,0,0,1-1.85,4.8,4,4,0,0,1-3,2.5c-1,.22-2.23,1.24-1.94,2.39s1.9,1.32,2.88,1.1c4.73-1,6.95-4.94,8.3-9.25a87.64,87.64,0,0,0,2.28-9.27c.25-1.26-1.37-1.7-2.26-1.7H141a2.92,2.92,0,0,0-2.51,1.53l-2.81,6.63,2.51-1.53-22.44.08-35.64.14-8.2,0,2.23,1.21L71.87,91a2.1,2.1,0,0,0-2.22-1.21h-37c-1,0-2.61.85-2.64,2-.05,1.82-.1,3.64-.14,5.47a48.75,48.75,0,0,0,0,7.35c.42,3.26,3.46,5,6.49,5.36a80.28,80.28,0,0,0,8.64.13c1.08,0,2.54-.84,2.64-2s-1.25-1.7-2.26-1.7Z"/><rect class="cls-4" x="52.13" y="81.54" width="1.41" height="2.8"/><path class="cls-4" d="M53.24,83.42H51.83l1,1.39V82l-.37.47h1.41l-1-1.39v2.81a1.57,1.57,0,0,0,.17.7,1.39,1.39,0,0,0,.46.56.47.47,0,0,0,.48.09.49.49,0,0,0,.22-.43V82a1.61,1.61,0,0,0-.3-.93.92.92,0,0,0-.66-.46H51.83c-.25,0-.37.25-.37.47v2.81a1.63,1.63,0,0,0,.3.93.93.93,0,0,0,.66.45h1.41c.45,0,.4-.64.3-.92a1.62,1.62,0,0,0-.39-.67A.74.74,0,0,0,53.24,83.42Z"/><rect class="cls-4" x="55.95" y="81.54" width="1.41" height="2.8"/><path class="cls-4" d="M57.07,83.42H55.66l1,1.39V82l-.37.47h1.41l-1-1.39v2.81a1.57,1.57,0,0,0,.17.7,1.39,1.39,0,0,0,.46.56.47.47,0,0,0,.48.09.49.49,0,0,0,.22-.43V82a1.61,1.61,0,0,0-.3-.93.94.94,0,0,0-.66-.46H55.66c-.25,0-.37.25-.37.47v2.81a1.63,1.63,0,0,0,.3.93.91.91,0,0,0,.66.45h1.41c.45,0,.4-.64.3-.92a1.62,1.62,0,0,0-.39-.67A.77.77,0,0,0,57.07,83.42Z"/><rect class="cls-4" x="59.78" y="81.54" width="1.41" height="2.8"/><path class="cls-4" d="M60.9,83.42H59.49l1,1.39V82l-.37.47h1.41l-1-1.39v2.81a1.57,1.57,0,0,0,.17.7,1.31,1.31,0,0,0,.46.56.47.47,0,0,0,.48.09.49.49,0,0,0,.22-.43V82a1.55,1.55,0,0,0-.31-.93.9.9,0,0,0-.65-.46H59.49c-.25,0-.37.25-.37.47v2.81a1.63,1.63,0,0,0,.3.93.91.91,0,0,0,.66.45h1.41c.45,0,.4-.64.3-.92a1.62,1.62,0,0,0-.39-.67A.77.77,0,0,0,60.9,83.42Z"/></g></g></svg>