<svg xmlns="http://www.w3.org/2000/svg" viewBox="0 0 199 199"><defs><style>.cls-1{fill:#e94e1b;}.cls-2,.cls-3{fill:#fff;}.cls-3,.cls-4{stroke:#fff;}.cls-3{stroke-miterlimit:10;stroke-width:2.5px;}.cls-4{fill:none;stroke-linecap:round;stroke-linejoin:round;stroke-width:3px;}</style></defs><g id="Calque_2" data-name="Calque 2"><g id="Layer_1" data-name="Layer 1"><circle class="cls-1" cx="99.5" cy="99.5" r="99.5"/><path class="cls-2" d="M165.86,116.11v-4a4.26,4.26,0,0,1,4.5-4,5.11,5.11,0,0,1,1.53.25v11.35a5.11,5.11,0,0,1-1.53.25A4.26,4.26,0,0,1,165.86,116.11Z"/><path class="cls-2" d="M150.44,110.78c2.32.06,2.85,2.1,2.92,4.09,0,1.21,0,2.43,0,3.65s-.31,2.88.06,4,1.8,1.63,2.82,1.94a19.11,19.11,0,0,0,4.39.67c2.84.13,5.7,0,8.54,0l-1.46-.68c0,2.72-1.56,6-4.5,6.52a31.16,31.16,0,0,1-5.55.07h-9.49l1.46.68c0-2.49,0-5,0-7.47-.08-4.88-4.08-8.59-8.72-9.4a38.23,38.23,0,0,0-6.68-.2h-17.5l1.46.68v-6.55l-3.36,2h35.61c1,0,2.62-.34,3.19-1.3s-.48-1.36-1.29-1.36H116.73c-1.14,0-3.37.52-3.37,2v6.55c0,.57,1.12.69,1.47.69h15.54c2.1,0,4.2,0,6.3,0a8.29,8.29,0,0,1,8.1,7.53c.22,2.7,0,5.47,0,8.18,0,.57,1.12.68,1.47.68h9.14c4.35,0,8.83.35,12.64-2.22a9.61,9.61,0,0,0,4.49-8.33c0-.57-1.12-.68-1.47-.68-2.84,0-5.7.11-8.54,0a9,9,0,0,1-3.66-.74c-1-.55-.68-1.77-.68-2.79,0-2.29.35-4.93-.22-7.19-.66-2.69-3.08-3.58-5.63-3.64-1,0-2.63.36-3.19,1.31S149.64,110.77,150.44,110.78Z"/><path class="cls-2" d="M158.3,121.3q0-3,0-6a7.43,7.43,0,0,0-.76-3.89c-1.66-2.73-5.47-2.44-8.25-2.44H115.76l2.52,1V74.23c0-1.7.55-3.85,2.58-4.07a28.83,28.83,0,0,1,2.94,0h25.13a5.37,5.37,0,0,1,3.18.66c2.12,1.22,2.23,3.51,2.65,5.66.28,1.42.52,2.84.86,4.24,1.75,7.22,3.33,14.45,4.9,21.71l.22,1c.13.56.74.81,1.26.91a7.15,7.15,0,0,1,4.91,3.56,9,9,0,0,1,.74,4.55l3.75-1c-2.15-.58-5-.41-6.71,1.17-1.12,1-1.11,2.25-1.11,3.64s0,2.52,1,3.53c1.73,1.68,4.63,1.76,6.83,1.16l-3.78-.88v3.42l2.49-1.13c-2.46,0-4.92,0-7.38,0-.78,0-4.34.13-4.46-1.11-.16-1.59-5.14-1.39-5,.07.26,2.71,5.38,3,7.34,3.15,3.16.2,6.36.06,9.53.06.62,0,2.48-.18,2.48-1.12V120c0-1.34-3.06-1.07-3.77-.88.62-.17.77.25.24-.27a1.86,1.86,0,0,1-.53-1.18,12.17,12.17,0,0,1,0-1.48c0-.44,0-.89,0-1.32a1.92,1.92,0,0,1,.47-1.23,4.34,4.34,0,0,0,.43-.33c.24-.11.1-.12-.41,0s-.66,0-.16.1c.74.2,3.74.34,3.74-1,0-2-.09-3.92-1.26-5.68a10.73,10.73,0,0,0-6.9-4.26l1.25.92c-1.51-7-3-14-4.68-20.94-.32-1.32-.62-2.62-.88-3.95a32.55,32.55,0,0,0-1.32-6.12C157.05,68,151.38,68,147.32,68H121.61a10.27,10.27,0,0,0-6.14,1.55c-2.29,1.64-2.19,4-2.19,6.44V110c0,1,2,1,2.52,1h34.41a3,3,0,0,1,2.07.35c1,.86,1,2.46,1,3.67,0,2.09,0,4.18,0,6.26C153.3,122.88,158.3,122.85,158.3,121.3Z"/><path class="cls-2" d="M27.36,129.87A11.54,11.54,0,0,0,34.7,141.1a14.06,14.06,0,0,0,15-3.39A11.56,11.56,0,0,0,51.5,124.2c-2.46-4.48-7.78-6.63-12.74-5.86-5.86.91-11,5.37-11.4,11.53-.13,2.21,4.75,1.35,4.86-.5a9.31,9.31,0,0,1,1.86-5.28,8.11,8.11,0,0,1,1.56-1.54l.45-.3c-.06,0,.69-.4.4-.24a9.48,9.48,0,0,1,1-.44,5.82,5.82,0,0,1,2.06-.3,8,8,0,0,1,2.64.52A9.09,9.09,0,0,1,46.33,125a9.46,9.46,0,0,1,.33,10.38,6.67,6.67,0,0,1-7.8,3.23,9.38,9.38,0,0,1-6.64-9.28c0-1.13-1.24-1.36-2.15-1.27S27.4,128.77,27.36,129.87Z"/><circle class="cls-3" cx="40.14" cy="130.09" r="4.75" transform="translate(-23.38 9.68) rotate(-10.67)"/><path class="cls-2" d="M131,141.89c5.36-.2,10.56-2.94,12.65-8.09a11.19,11.19,0,0,0-3.41-12.88c-4.35-3.41-10.44-3.32-15.14-.67a11.94,11.94,0,0,0-6,12.3c1,5.68,6.35,9.4,12,9.34,1.07,0,2.59-.32,3.18-1.35s-.47-1.54-1.34-1.53a9,9,0,0,1-8.34-5.62,9.43,9.43,0,0,1,1.91-10.28,8.41,8.41,0,0,1,1.67-1.25,5.28,5.28,0,0,1,2-.64,8,8,0,0,1,4.74,1.06,9.56,9.56,0,0,1,4.69,9.27,9,9,0,0,1-2.42,5.33,8.38,8.38,0,0,1-2.1,1.56,5.13,5.13,0,0,1-2.18.57c-1.08,0-2.59.3-3.18,1.35S130.09,141.93,131,141.89Z"/><circle class="cls-3" cx="131.64" cy="130.09" r="4.75" transform="translate(-53.31 136.82) rotate(-46.74)"/><path class="cls-2" d="M50.82,127.9h63.61c1.08,0,3.39-.51,3.39-1.91V70.27c0-2.26.2-4.59-1.79-6.19-1.83-1.47-4.08-1.3-6.27-1.3H46.19c-5,0-10-.06-15.06,0a8.89,8.89,0,0,0-6.54,2.65c-1.62,1.81-1.34,4.14-1.34,6.38v55.47c0,.55,1.13.62,1.45.62h3.06c1,0,2.62-.35,3.19-1.27s-.5-1.26-1.26-1.26H26.63l1.45.62V71.87c0-1.76-.47-4.41.58-6,.13-.2.5-.44.58-.63s-.33,0-.23,0h.06a2.36,2.36,0,0,0,.46,0h65c5.1,0,10.22-.11,15.32,0,4,.09,3.19,5.46,3.19,8.09v53.88l3.38-1.91H52.75c-1,0-2.62.35-3.2,1.27s.5,1.26,1.27,1.26Z"/><path class="cls-3" d="M156.74,94.05v3.89a3.74,3.74,0,0,1-3.52,3.9,3.27,3.27,0,0,1-1.21-.25V90.41a3.27,3.27,0,0,1,1.21-.25A3.73,3.73,0,0,1,156.74,94.05Z"/><path class="cls-2" d="M153.68,87.45c-.49-2.63-1-5.27-1.46-7.9a8.66,8.66,0,0,0-2-4.59c-2.22-2.29-5.54-2.07-8.46-2-3.58.06-7.16.13-10.74.17-1.5,0-3,0-4.51,0-1.93.09-5.06.6-5.52,2.92a27.49,27.49,0,0,0,0,5v8.16c0,2.09,0,4.18,0,6.27,0,1.64-.23,4.13,1.85,4.53a18.27,18.27,0,0,0,3.31.06h16.13c3.51,0,8,.65,11.14-1.26,1-.63,2.09-1.73,2-3-.28-2.77-1.06-5.59-1.57-8.33-.28-1.49-5.13-.34-4.83,1.29l1.41,7.5a7.32,7.32,0,0,0,.15.79c.09.3,0-.11,0-.11,0,.2-.26.9-.35.82s.84-.15,0-.22c-.42,0-.86,0-1.29,0H126.58a4.79,4.79,0,0,0-1.07,0c-.32.09.46.12.51,0a7.45,7.45,0,0,0-.28-1.16,42,42,0,0,1,0-4.89V77.82c0-.67,0-1.34,0-2a3.36,3.36,0,0,0,.07-.6c-.24-.93.06-.11,0-.15.17.45-2.28.49-1.23.64.35,0,1.59,0,2.23,0h1.65c3.19,0,6.38-.09,9.56-.14,2.27,0,5.5-.64,7.34,1a7.23,7.23,0,0,1,2,4.33c.49,2.63,1,5.26,1.46,7.89C149.13,90.24,154,89.08,153.68,87.45Z"/><path class="cls-2" d="M18.72,144.86H168c1.11,0,2.62-.31,3.16-1.42s-.42-1.8-1.41-1.8H20.47c-1.1,0-2.62.31-3.16,1.42s.42,1.8,1.41,1.8Z"/><path class="cls-4" d="M80.63,39.59V39.5a1.81,1.81,0,0,0-1.81-1.81H71.65c-.29-2.38-.76-4-1.4-4H65.46a11,11,0,0,0-10.83,9.21,39.32,39.32,0,0,0-5.42,1.53,41,41,0,0,0-6.59,3.06c-1.06.61-2.08,1.26-3.07,2s-2,1.44-2.89,2.22a42.46,42.46,0,0,0-5.13,5.17,71,71,0,0,0-5.14,8c-.05.09.9-.81.85-.72,1.89.19,4-.48,6.08,0,.23-.37.47-.75.72-1.11q.89-1.3,1.89-2.52a35.9,35.9,0,0,1,4.39-4.5c.79-.69,1.62-1.34,2.47-1.95s1.73-1.19,2.64-1.73,1.82-1,2.77-1.49,1.91-.87,2.9-1.24a35.32,35.32,0,0,1,4-1.26,11,11,0,0,0,10.34,7.27h4.79c.64,0,1.11-1.64,1.4-4h7.17a1.81,1.81,0,0,0,1.81-1.81v-.09a1.81,1.81,0,0,0-1.81-1.81H71.94c.09-2.08.09-4.32,0-6.4h6.88A1.81,1.81,0,0,0,80.63,39.59Z"/></g></g></svg>