<svg xmlns="http://www.w3.org/2000/svg" viewBox="0 0 199 199"><defs><style>.cls-1{fill:#e94e1b;}.cls-2{fill:#fff;}</style></defs><g id="Calque_2" data-name="Calque 2"><g id="Layer_1" data-name="Layer 1"><circle class="cls-1" cx="99.5" cy="99.5" r="99.5"/><path class="cls-2" d="M159,146.91H43.61c-1.55,0-3.17-.12-4.72,0h-.21l1.72.65V120.91l-4.09,2.2H151.69c1.56,0,3.17.12,4.72,0a1.47,1.47,0,0,1,.21,0l-1.71-.64v26.64c0,1.39,5.79.43,5.79-1.55V120.91c0-.63-1.37-.64-1.71-.64H53.45c-4.85,0-9.71-.11-14.56,0h-.21c-1.17,0-4.08.62-4.08,2.2v26.64c0,.63,1.37.64,1.71.64H141.86c4.84,0,9.7.12,14.55,0h.21c1.21,0,3.1-.44,3.85-1.49S159.79,146.91,159,146.91Z"/><path class="cls-2" d="M159.7,114H44.31a39,39,0,0,0-4.71,0,1.47,1.47,0,0,1-.21,0l1,.37V87.72l-4.79,1.92H151a37.17,37.17,0,0,0,4.72,0h.21l-1-.36v26.64c0,.84,5.79,0,5.79-1.55V87.72c0-.32-.89-.36-1-.36H54.15c-4.85,0-9.7-.06-14.55,0h-.21a8.58,8.58,0,0,0-3.21.67c-.49.2-1.58.58-1.58,1.25v26.64c0,.33.9.37,1,.37H141.15c4.85,0,9.71,0,14.56,0h.21a7.94,7.94,0,0,0,4.09-1.1C160.89,114.64,160.86,114,159.7,114Z"/><path class="cls-2" d="M147.25,86.06a9.17,9.17,0,0,0-3.64-7.14c-2.64-2-6.07-2.24-9.22-1.63l2.37.36c-5.62-8-18.57-6.27-23.86,1.27l4.73-1.73c-4.26-.31-9.37.73-12.37,4a11.52,11.52,0,0,0-2.76,6.12c-.09.59.48.74,1,.74h39a7.42,7.42,0,0,0,4.1-1.1c.84-.57.83-1.36-.37-1.36h-39l1,.74a11.75,11.75,0,0,1,1.56-4.53,6.24,6.24,0,0,1,1.84-1.94c.18-.12.39-.1.14-.12.71,0-.46,0,.29-.1-.51.08.27,0,.33,0a5.9,5.9,0,0,1,.94,0A7.7,7.7,0,0,0,118,78.56a15.31,15.31,0,0,0,1.78-2,6.51,6.51,0,0,1,2.64-1.68,5.21,5.21,0,0,1,2,0,9.28,9.28,0,0,1,2.43.76A10.66,10.66,0,0,1,131,79.2c.46.66,1.7.49,2.38.36,4.56-.89,8,4,8.11,8.06C141.48,88.69,147.29,87.78,147.25,86.06Z"/><path class="cls-2" d="M107.05,86.36a14.19,14.19,0,0,0-5.69-8.75,14.8,14.8,0,0,0-11.76-2.1l3.16.64a17.46,17.46,0,0,0-14.67-7.31,19,19,0,0,0-15.33,8.28l3.78-1.74c-8.09-1.64-16.75,3.7-18.08,12-.23,1.48,1.63,1.78,2.65,1.78h52.76c1.22,0,3-.94,3.21-2.28s-1.58-1.77-2.64-1.77H51.68l2.64,1.77a9.52,9.52,0,0,1,3.5-6.16,7.18,7.18,0,0,1,2.76-1.36,9.94,9.94,0,0,1,3.91,0,4,4,0,0,0,3.78-1.73,11.55,11.55,0,0,1,4.06-3.59,10.26,10.26,0,0,1,2.55-.94,9.29,9.29,0,0,1,1.28-.2l.78,0c.11,0,1,0,.35,0a12.9,12.9,0,0,1,10.15,5.76c.67.95,2.2.83,3.17.63,5.3-1.08,9.7,3.87,10.64,8.63C101.76,90.46,107.57,89,107.05,86.36Z"/><path class="cls-2" d="M101.06,69.74a12.61,12.61,0,0,1-5.94-1.4c-3.19-1.72-5.4-4.91-6.55-9.5l-.15-.59.58-.16c4.55-1.3,8.38-1,11.39,1a12.76,12.76,0,0,1,4.67,5.82,15.52,15.52,0,0,1,1,3.48l.08.5-.49.17a14.15,14.15,0,0,1-3.42.66C101.87,69.73,101.46,69.74,101.06,69.74ZM89.94,59.13C91,63,93,65.77,95.71,67.24a13,13,0,0,0,9.06.77c-.33-1.47-1.56-5.64-5.07-7.91C97.14,58.45,93.85,58.12,89.94,59.13Z"/><path class="cls-2" d="M101.63,68.92a10.91,10.91,0,0,1-8.23-3.58,17.09,17.09,0,0,1-3.53-7.48L88.62,59c2.84-.81,5.87-1.3,8.71-.19a11.85,11.85,0,0,1,6.51,7,16.27,16.27,0,0,1,.9,3.42l.87-1-.29.1c-.39.14,0,0,.13,0-.24.06-.48.14-.72.21a13.85,13.85,0,0,1-3.1.38,2.33,2.33,0,0,0-1.92.79c-.34.57.3.86.79.85a18.84,18.84,0,0,0,6.26-1.1c.38-.13.94-.51.88-1a15.54,15.54,0,0,0-3.73-8.13,12.41,12.41,0,0,0-9.64-3.86,24.35,24.35,0,0,0-6,1c-.42.12-1.41.5-1.26,1.11a17.83,17.83,0,0,0,4,8.08,13.08,13.08,0,0,0,9.57,3.84,2.28,2.28,0,0,0,1.91-.79C102.76,69.2,102.11,68.92,101.63,68.92Z"/><path class="cls-2" d="M88.49,59.51c1,3.39,2.77,6.59,5.93,8.35s7.12,1.77,10.55.88c.43-.12,1.39-.51,1.25-1.12a13.55,13.55,0,0,0-4.41-7.54c-3.44-2.74-8-2.7-12.07-1.68-.44.11-1.4.51-1.25,1.11s1.26.44,1.64.34c3.35-.84,6.9-.6,9.54,1.84a13.06,13.06,0,0,1,3.65,6.71l1.26-1.12-.67.16c-.39.09.33,0-.1,0l-.48.08a13,13,0,0,1-2.06.13,9.89,9.89,0,0,1-4.83-1.37c-2.71-1.64-4.21-4.61-5.06-7.56C91.1,57.73,88.2,58.51,88.49,59.51Z"/><path class="cls-2" d="M105.58,68.94l-.12-.5a30.2,30.2,0,0,1-.58-6.91,29,29,0,0,1,.94-6.7,23.26,23.26,0,0,1,3.24-7.19c4-6,10.86-9.64,20.22-11l.6-.09.1.6c1.6,9.17.22,16.61-4.09,22.12a24.46,24.46,0,0,1-11.58,7.9,32.19,32.19,0,0,1-8,1.7l-.26,0ZM128.86,38c-8.7,1.35-15,4.83-18.77,10.35A22.2,22.2,0,0,0,107,55.15a28.16,28.16,0,0,0-.89,6.41,29.68,29.68,0,0,0,.44,6.07A31.51,31.51,0,0,0,113.9,66a23.31,23.31,0,0,0,11-7.5C128.9,53.43,130.23,46.52,128.86,38Z"/><path class="cls-2" d="M107,68.55a28.3,28.3,0,0,1,1.35-17.25,22.09,22.09,0,0,1,11.94-11.71,37.76,37.76,0,0,1,9.32-2.38L128.43,37c1.06,6.06,1.22,12.42-1.33,18.15A22,22,0,0,1,114,66.71,28.94,28.94,0,0,1,108.75,68l-1,.13-.35,0h-.12c-.37,0-.74.05-1.11.06a2.81,2.81,0,0,0-1.93.73c-.4.51.35.61.72.6a32.09,32.09,0,0,0,7.77-1.32,31.13,31.13,0,0,0,10.14-4.85,22.91,22.91,0,0,0,9-16.09,40,40,0,0,0-.56-11.14c-.07-.4-1-.27-1.2-.24-6.31.89-12.73,2.75-17.78,6.8a23.11,23.11,0,0,0-5.87,7,26.48,26.48,0,0,0-3,11.32,28.94,28.94,0,0,0,.66,8.25C104.31,70.08,107.22,69.35,107,68.55Z"/><path class="cls-2" d="M129.1,37.37c-5.64.89-11.38,2.71-15.9,6.31A22.73,22.73,0,0,0,105,58.5a30.1,30.1,0,0,0,.16,9.52c.06.3.65.29.85.28A31.68,31.68,0,0,0,122.67,62a21.45,21.45,0,0,0,7.85-13.8,35.35,35.35,0,0,0-.21-10.62c-.12-.71-3-.07-2.9.78.86,5.47.81,11.25-1.51,16.38A20.38,20.38,0,0,1,115,65a27.39,27.39,0,0,1-4.84,1.5c-.53.12-1.16.23-1.74.31l-.8.11-.28,0h-.11l.84.28a27,27,0,0,1,2.12-16.79,20.76,20.76,0,0,1,10.23-9.53,32.23,32.23,0,0,1,8.24-2.31c.44-.07,1.56-.32,1.68-.86S129.37,37.33,129.1,37.37Z"/><path class="cls-2" d="M104.16,82.47A47.84,47.84,0,0,1,105.32,68,36.85,36.85,0,0,1,110,56.89,36.32,36.32,0,0,1,120.39,46.3l.7,1a35,35,0,0,0-10,10.23,35.63,35.63,0,0,0-4.53,10.72,48.12,48.12,0,0,0-1.13,14.07Z"/><path class="cls-2" d="M105.61,82.08a43.3,43.3,0,0,1,.74-12.39,36.44,36.44,0,0,1,7.71-16.51,35.41,35.41,0,0,1,7.22-6.5l-2.24.17.7,1,.47-.92A36.53,36.53,0,0,0,108.3,60a40.78,40.78,0,0,0-4.43,17.94,38.29,38.29,0,0,0,.08,4.79l1.67-1.13-1.24.13c-.49,0-1.55.35-1.66.94s.88.57,1.23.54l1.24-.12c.51,0,1.73-.42,1.66-1.13a42.83,42.83,0,0,1,.71-12A35,35,0,0,1,115,54.07a33.75,33.75,0,0,1,7-6.36c.32-.22.74-.52.46-.93l-.7-1c-.37-.55-1.86-.08-2.23.17a37.8,37.8,0,0,0-12.31,13.5,42,42,0,0,0-4.59,18.43,39.87,39.87,0,0,0,.1,5C102.8,83.72,105.71,83.11,105.61,82.08Z"/></g></g></svg>