<svg xmlns="http://www.w3.org/2000/svg" viewBox="0 0 199 199"><defs><style>.cls-1{fill:#e94e1b;}.cls-2{fill:#fff;}</style></defs><g id="Calque_2" data-name="Calque 2"><g id="Layer_1" data-name="Layer 1"><circle class="cls-1" cx="99.5" cy="99.5" r="99.5"/><path class="cls-2" d="M42.61,86a10.21,10.21,0,0,0,5.12-1.38c1.11-.67,1.06-1.42-.38-1.42a10.2,10.2,0,0,0-5.12,1.37c-1.11.68-1.06,1.43.38,1.43Z"/><path class="cls-2" d="M139.76,80.6l8.13,5.18c1,.66,3.15,0,4.17-.33.77-.25,2.87-.79,2.87-1.85a39.29,39.29,0,0,0-10.42-25.93C137.63,50,128.31,44.77,118.42,42A70.59,70.59,0,0,0,83,41.68c-10.62,2.53-21,7.52-28.89,15.2S41.4,74.56,41.36,85.54c0,1,7.23,0,7.24-1.94a38.29,38.29,0,0,1,9.53-24.67,48.32,48.32,0,0,1,16.5-12.18c.53-.24,1.06-.47,1.6-.69,1-.45-.61.22.46-.19l.66-.25c.55-.21,1.1-.4,1.66-.59l1-.34c.43-.13.45-.14.07,0l.51-.15c.63-.19,1.27-.36,1.91-.53l.7-.17c.06,0,1.22-.28.45-.11,1.32-.29,2.64-.53,4-.74a3.85,3.85,0,0,1,.58-.08L89,42.8c.68-.08,1.37-.15,2-.21,1.36-.11,2.63-.17,4-.19a62,62,0,0,1,15.7,1.83A54.26,54.26,0,0,1,136,58.34a39.16,39.16,0,0,1,11.65,27.2l7-2.18-8.13-5.18c-1.17-.74-3.48.07-4.65.48-.37.13-3.2,1.3-2.19,1.94Z"/><path class="cls-2" d="M154.2,85.14l8.12-7.41,1.16-1c.39-.36.88-1,.72-1.55s-.88-.88-1.4-1a6.73,6.73,0,0,0-5.12,1.37l-8.12,7.41-1.15,1c-.4.36-.89,1-.73,1.55s.89.88,1.4,1a6,6,0,0,0,2.7-.16,6.07,6.07,0,0,0,2.42-1.21Z"/><path class="cls-2" d="M59.17,111.45l-8.12-5.52c-1-.68-3.19,0-4.18.33-.77.25-2.87.8-2.87,1.85a43,43,0,0,0,9.93,27A54.13,54.13,0,0,0,79.25,152c21.78,7.09,48.1,1.22,64.49-14.92,8.34-8.22,13.78-19.1,13.83-30.95,0-1-7.23,0-7.24,1.94a41.7,41.7,0,0,1-10.42,26.77,50.54,50.54,0,0,1-10.8,9.41,51.8,51.8,0,0,1-6.38,3.54c-.58.28-1.18.54-1.78.79l-.81.34c.59-.24-.5.19-.49.19-.56.21-1.11.41-1.68.6l-.84.28-.51.17c.38-.12.36-.11-.07,0s-1.15.33-1.73.48l-1,.26c-1.11.29.42-.09-.25.06s-1.29.28-1.94.39l-.71.13c-.13,0-1.37.22-.89.15a47.41,47.41,0,0,1-7.59.48,57.59,57.59,0,0,1-15.15-2.23,53.25,53.25,0,0,1-24.8-15.26,43,43,0,0,1-11.2-28.51l-7,2.18,8.12,5.52c1.13.76,3.51-.08,4.65-.48.39-.14,3.19-1.27,2.19-1.94Z"/><path class="cls-2" d="M44.73,106.57l-8.14,7.91-1.14,1.11c-.38.37-.88.94-.72,1.54s.88.89,1.4,1a5.87,5.87,0,0,0,2.7-.17,5.69,5.69,0,0,0,2.42-1.2l8.13-7.91,1.14-1.11c.39-.38.89-.94.73-1.55s-.89-.88-1.4-1a6,6,0,0,0-2.7.16,5.71,5.71,0,0,0-2.42,1.21Z"/><path class="cls-2" d="M84.82,133.43a99.5,99.5,0,0,1,2.56-17.59,47.25,47.25,0,0,1,4.52-12.59c3-5.34,7.71-9.82,12.2-13.92q3.42-3.1,7-6c.72-.57,1.45-1.14,2.18-1.69.31-.24,1.71-1.26.34-.26.91-.67,2.2-2,.63-2.83-1.41-.71-3.9-.21-5.13.68-3,2.22-6,4.59-8.82,7.07C95.19,90.81,90,95.73,86.2,101.4a42.76,42.76,0,0,0-5.44,12.89,97.14,97.14,0,0,0-2.5,13c-.3,2.34-.56,4.69-.68,7-.09,1.6,1.94,1.7,3.12,1.55s4-.93,4.12-2.45Z"/><path class="cls-2" d="M91.38,104a16.35,16.35,0,0,0,.17-9.52,15.88,15.88,0,0,0-5.1-7.34c-1.32-1-3.36-.73-4.79-.08a4.42,4.42,0,0,0-2,1.42c-.26.41-.47,1.13,0,1.49a13.75,13.75,0,0,1,4.59,6.45,14.15,14.15,0,0,1-.17,8.49,1.17,1.17,0,0,0,.74,1.3,4.3,4.3,0,0,0,2.38.25c1.44-.21,3.63-.87,4.12-2.46Z"/><path class="cls-2" d="M93.39,95.83a15.71,15.71,0,0,0,7,4.41,16.55,16.55,0,0,0,7,.28,19.65,19.65,0,0,0,4.4-1.14A4.42,4.42,0,0,0,113.78,98a1.16,1.16,0,0,0,0-1.49c-1.17-1.14-3.49-.61-4.79-.08l-.16.06c-.42.12,1.17-.37.67-.23l-.29.09c-.25.08-.51.14-.76.2s-.85.07.34-.06l-.53.08-.59.07-.2,0c-.37,0-.28,0,.27,0a5.37,5.37,0,0,0-1.27,0l-.36,0,.19,0-.68-.1-.58-.14c-.19-.06-.13,0,.19.07l-.28-.1a11.91,11.91,0,0,1-2-1l-.47-.3c-.51-.32.37.28-.1-.06-.26-.2-.51-.39-.76-.6a13.14,13.14,0,0,1-1.5-1.39c-1.69-1.86-8.6.78-6.73,2.84Z"/><path class="cls-2" d="M132.14,60.92a64,64,0,0,0-7.81-.67,87.72,87.72,0,0,0-19.28,1.32C90,64.35,74,73.17,69.8,89c-2.9,11,1.72,25.7,13.12,30a33.23,33.23,0,0,0,26.71-1.28,30.85,30.85,0,0,0,9.27-7.16,21.82,21.82,0,0,0,3.55-6.49c2.33-6.13,3.6-12.66,5-19s2.45-11.82,5.11-17.61c.25-.56.52-1.1.81-1.63.12-.22.25-.43.38-.65.21-.37-.34.49-.1.16.1-.14.19-.28.29-.41a2.3,2.3,0,0,0-1-3.71,4.75,4.75,0,0,0-5.12,1.37c-3.23,4.63-4.66,10.31-6,15.71-1.57,6.21-2.78,12.52-4.42,18.71-.16.61-.21.8-.46,1.67-.21.71-.43,1.42-.66,2.12-.4,1.25-.84,2.49-1.36,3.7-.21.49-.43,1-.67,1.46-.13.26-.26.51-.4.76s-.48.78-.09.2c-.26.39-.53.78-.82,1.15-.13.16-.27.31-.4.46s-.31.33-.46.49l-.24.24,0,0a26.38,26.38,0,0,1-4,3.16c-.5.32.42-.24-.09.06-.16.08-.31.17-.46.26-.41.23-.83.45-1.25.66s-.74.36-1.12.53l-.66.28c-.13.05-.89.33-.24.1-.8.29-1.62.54-2.44.75-.48.12-1,.22-1.45.32l-.24,0c.41-.07-.54.08-.63.09a22.29,22.29,0,0,1-5.52.07,26.8,26.8,0,0,1-5.82-1.3c-.76-.26-1.5-.54-2.23-.87l-.36-.19s.55.32.26.14-.54-.32-.8-.5c-.42-.28-.82-.58-1.21-.9-.23-.19-.46-.38-.68-.58l-.33-.31c.18.16.27.29,0,0a24.84,24.84,0,0,1-2.34-2.89,20.07,20.07,0,0,1-3.1-6.82,22,22,0,0,1-.8-8.18,25,25,0,0,1,8.68-16.74,42.19,42.19,0,0,1,4.41-3.34c.08,0,.59-.37.09-.06l.44-.26L91,72.12q1.2-.68,2.43-1.26t2.34-1l1.1-.44c.69-.27.15-.05,0,0l.79-.28c1.62-.57,3.27-1,4.94-1.46s3.15-.72,4.74-1c-.76.13.14,0,.41-.06l1.08-.15c.81-.11,1.61-.21,2.42-.29a81.81,81.81,0,0,1,8.57-.41c.57,0,1.13,0,1.69,0l.92,0c-.76,0-.29,0,.16,0,1,0,2,.11,3,.19,1.2.09,2.41.23,3.61.38l.48.07a4.54,4.54,0,0,0,4.7-2.27C135.14,62.45,133.72,61.18,132.14,60.92Z"/></g></g></svg>