<svg xmlns="http://www.w3.org/2000/svg" viewBox="0 0 199 199"><defs><style>.cls-1{fill:#e94e1b;}.cls-2{fill:#fff;}</style></defs><g id="Calque_2" data-name="Calque 2"><g id="Layer_1" data-name="Layer 1"><circle class="cls-1" cx="99.5" cy="99.5" r="99.5"/><path class="cls-2" d="M115,30.35l-4.63.78c-.69.12-1.69.48-1.61,1.36l.1,1c.06.55.08.76.1,1.21,0,1.33.12,2.67.2,4,.13,2.41.3,4.83.46,7.24q.56,8.8.52,17.62a3.56,3.56,0,0,0,0,.73v.24c.07,0,.1,0,.08,0s0,0,0,0a1.12,1.12,0,0,1-.13.24l-.53,1-2,3.7-5.47,10.29-3.48,6.56,2.82-.27c-.68-1.31-1.31-2.64-1.91-4l-.25.75A24.32,24.32,0,0,0,104,75.12a13,13,0,0,0-.32-8.57c-2-5.61-6.81-10-11.67-13.21a34.86,34.86,0,0,0-8.31-4.19,2.09,2.09,0,0,0-2.22.79,9.1,9.1,0,0,0-1,2.38,31.73,31.73,0,0,0-.81,3.6A51.62,51.62,0,0,0,79,65.38a28.66,28.66,0,0,0,1.32,9.29,13.66,13.66,0,0,0,5.77,7.06c3,1.77,6.63,2.2,10.06,2.35l-.92-.58c.72,1.77,1.4,3.55,2.08,5.34l.08-.51-4.89,7.31-5.4,8.08A7.49,7.49,0,0,0,86,105.39c-.2.64.51,1.37,1,1.75a5.55,5.55,0,0,0,2.61,1.15,2.13,2.13,0,0,0,2.22-.79l2.94-4.39,6.21-9.29L108.84,82l7-10.54c1.13-1.7,2.36-3.36,3.42-5.11a2,2,0,0,1,.12-.19l-.76.65c1.73-.88,3.45-1.77,5.19-2.6l-1.74,0c2.58,2.13,5.45,4.18,8.79,4.87a15.47,15.47,0,0,0,10.64-1.84,30.5,30.5,0,0,0,6.88-5.79,54.69,54.69,0,0,0,5.66-7.29,35.79,35.79,0,0,0,2-3.5,9.73,9.73,0,0,0,1-2.65.67.67,0,0,0-.33-.64,38.41,38.41,0,0,0-18.68-2.87c-5.88.54-12.4,3-15.15,8.6a22.6,22.6,0,0,0-1.85,9l.85-.89c-1.45.64-2.91,1.25-4.4,1.8l2.07.37L118.3,50.43l-.18-1.84-.26.75c2.18-2.15,4.39-4.27,6.57-6.41,1.57-1.54,3.09-3.12,4.72-4.59a.82.82,0,0,0,.26-.75l-.68-1.67c-.43-1-2-.52-2.64,0-3.13,2.82-6.26,5.66-9.39,8.49l-1.51,1.37,2.65,0-1.28-12.61c-.08-.75-.15-1.5-.23-2.25s-1.25-.62-1.69-.51c-.59.16-1.27.59-1.21,1.28q.64,6.39,1.3,12.78l.21,2.09c0,.45.78.57,1.11.57a2.29,2.29,0,0,0,1.53-.61l9.24-8.37,1.65-1.49-2.64,0,.68,1.67.26-.74c-2.15,1.93-4.14,4-6.21,6l-4,3.88c-.5.49-1.41,1.07-1.35,1.83l0,.32,1.08,10.69.38,3.75c.09.87,1.64.52,2.06.37,1.49-.55,3-1.15,4.4-1.8.32-.14.83-.48.84-.89a24,24,0,0,1,1.24-7.53,10.87,10.87,0,0,1,4.15-5.21,16.82,16.82,0,0,1,7.37-2.57,35.43,35.43,0,0,1,8.91.1,32.6,32.6,0,0,1,8.82,2.31l-.33-.65c0,.12,0,.25-.07.37l-.06.21s-.1.28-.06.17,0,.15-.07.19a2,2,0,0,1-.11.26c-.08.2-.17.4-.26.6A30.23,30.23,0,0,1,152,52.86a50,50,0,0,1-4.81,6.56,34.12,34.12,0,0,1-6.06,5.71,11.32,11.32,0,0,1-3.63,1.8,10.59,10.59,0,0,1-4.22.42c-3.41-.39-6.35-2.61-8.91-4.73a1.93,1.93,0,0,0-1.75,0c-1.12.53-2.23,1.09-3.33,1.65A6.68,6.68,0,0,0,116.61,66l-.26.37-1.64,2.47-6.54,9.78L99.84,91.08l-7.06,10.56-3,4.5L89,107.27l2.23-.79a3.87,3.87,0,0,1-1.79-.7,1.92,1.92,0,0,1-.61-.79l-.08.5c1.42-2.11,2.84-4.24,4.26-6.36l6.44-9.63a7.8,7.8,0,0,0,.62-.92.94.94,0,0,0,0-.86c-.2-.53-.4-1-.61-1.58-.44-1.14-.88-2.28-1.34-3.41a1,1,0,0,0-.93-.58,20.24,20.24,0,0,1-8.1-1.58,12.46,12.46,0,0,1-5.63-6.07,15.47,15.47,0,0,1-1.12-4.14,33.32,33.32,0,0,1-.42-4.57,53.48,53.48,0,0,1,.6-9.2,35.4,35.4,0,0,1,.84-4.07c.07-.26.14-.51.22-.77s.09-.25.13-.38c-.07.19,0-.12.07-.17a5.45,5.45,0,0,1,.5-1L82,51a35.65,35.65,0,0,1,13.47,8.57c3.81,3.8,7.2,9.13,5.94,14.73-.68,3-2.58,5.57-4.51,7.9-.14.17-.36.49-.25.74.6,1.34,1.23,2.67,1.9,4,.51,1,2.35.62,2.82-.27l8.44-15.88L112,66.67c.33-.62.71-1.24,1-1.89a3.9,3.9,0,0,0,.11-1.49v-3c0-1.64,0-3.28-.07-4.91-.07-2.8-.2-5.6-.36-8.4s-.36-5.42-.52-8.14c-.15-2.38-.21-4.77-.45-7.15l-1.6,1.35,4.63-.78c.59-.1,1.51-.39,1.61-1.1S115.54,30.27,115,30.35Z"/><path class="cls-2" d="M153.35,48.1c-1.66.84-3.3,1.74-5,2.52s-3.15,1.42-4.73,2.13l-16.75,7.52c-1.45.66-2.9,1.32-4.36,2l2.06.37-.32-.76L123.43,63c3.88-1.62,7.71-3.37,11.57-5.06l14.15-6.21c1.78-.77,3.62-1.41,5.43-2.1.49-.19,1.14-.84.72-1.37s-1.4-.36-2-.14c-1.73.66-3.49,1.28-5.2,2-1.56.67-3.11,1.37-4.67,2l-16.87,7.39c-1.47.65-2.93,1.31-4.42,1.93-.34.14-1,.66-.83,1.14l.32.76c.33.78,1.44.64,2.07.37,3.86-1.68,7.69-3.45,11.53-5.18l14.07-6.32c1.78-.8,3.5-1.75,5.23-2.63.46-.23,1.16-.81.72-1.37S153.87,47.83,153.35,48.1Z"/><path class="cls-2" d="M82.19,52.1c.84,1.66,1.73,3.3,2.51,5,.71,1.54,1.39,3.09,2.09,4.64l7.54,16.81,2,4.4.83-1.14-.74.31,2.06.37c-1.73-3.83-3.39-7.71-5.08-11.56l-6.2-14.15c-.78-1.77-1.4-3.63-2.09-5.44-.25-.65-1.13-.66-1.69-.5s-1.46.63-1.21,1.27c.66,1.74,1.27,3.51,2,5.22s1.36,3.11,2,4.66l7.39,16.87c.65,1.47,1.28,3,1.94,4.41.35.78,1.42.64,2.07.37l.74-.32c.34-.15,1-.67.84-1.15Q96.63,76.4,94,70.63L87.7,56.54c-.79-1.77-1.74-3.48-2.61-5.21a1.39,1.39,0,0,0-1.69-.5C83,50.93,81.88,51.49,82.19,52.1Z"/><path class="cls-2" d="M44,59.06a15,15,0,0,0-3.88.6c-1.19.37-3.09,1.05-2.89,2.6l3-1.86c-1.81-.72-3.54.93-4.56,2.24A15.35,15.35,0,0,0,33.41,67c-1.84,5.21-1.23,10.69,0,16a32.12,32.12,0,0,0,3,8.16c.33.59,1.31.65,1.87.55a2.26,2.26,0,0,0,1.74-1.17l.63-1.62.41-1.07c0-.13.11-.26.16-.4s.16-.21-.07.08l-.76.58.16-.06-1,.28L44.05,88a2.42,2.42,0,0,0,2-1.22l1-2,.7-1.37.24-.48c.1-.19.23-.21,0,.08l-.76.58.13,0-1,.28c1.66-.21,3.34-.4,5-.63a2.66,2.66,0,0,0,2.16-1.51l.69-1.36L55,78.72l.25-.52c.11-.21.27-.27,0,0L54,79c-.47.15-.44,0-.18,0l.51,0,1.39-.08a6.45,6.45,0,0,0,3.09-.51A5.79,5.79,0,0,0,60.38,76l.65-1.3c.08-.14.15-.29.22-.43s.22-.19,0,0L60,75.06l.18,0-1,.08,3.44.3a2.46,2.46,0,0,0,2.51-1.21l1-2.67A1.1,1.1,0,0,0,66,70.41a39.79,39.79,0,0,0-7.76-6.65,28.08,28.08,0,0,0-9.76-4.29A20.59,20.59,0,0,0,44,59.06c-.86,0-2,.66-2.11,1.61s1,1.34,1.8,1.33h.49c.2,0,.17,0-.12,0l.26,0c.36,0,.73.05,1.09.09a18.92,18.92,0,0,1,2.25.4c-.35-.08.3.09.36.11l.67.2c.47.15.93.31,1.38.49a21.7,21.7,0,0,1,2.68,1.24,36.09,36.09,0,0,1,9.67,7.6L62.35,71l-1,2.68,2.51-1.21-2.14-.19c-1.36-.11-2.9-.35-3.87.89a12.21,12.21,0,0,0-1.07,2l-1,1.88,2-1.22L55.52,76c-1.36.08-2.9,0-3.75,1.29a20.88,20.88,0,0,0-1.09,2.1l-1,2,2-1.22c-1.75.22-3.53.38-5.27.67s-2.15,1.67-2.81,3l-1.22,2.41,2-1.22c-1.47.08-3,.08-4.43.24a2.78,2.78,0,0,0-2.32,1.46c-.15.32-.26.67-.39,1l-.84,2.19L40,89.32a27.42,27.42,0,0,1-2.37-6.15,38.2,38.2,0,0,1-1.46-8.07,23.15,23.15,0,0,1,.61-6.58c.11-.45-.05.16,0-.1,0-.11.06-.22.1-.33s.13-.43.21-.64c.14-.39.29-.78.46-1.17s.29-.62.45-.92.17-.32.26-.47l.1-.18c.2-.34,0,0,0,0a17.11,17.11,0,0,1,1.1-1.44c.08-.09.18-.17.25-.26-.35.46-.24.21-.07.07l.21-.16c.31-.26-.34.15,0,0l-1,.28.09,0L38,63.06l.06,0c1.23.49,3.23-.36,3-1.86v0L41,62c-.52.88-.95.83-.34.53.37-.18.06.06-.07,0,.16,0,.76-.22.92-.26l.5-.11H42l.3,0c.47-.05.94-.08,1.42-.1.86,0,2-.65,2.12-1.6S44.82,59,44,59.06Z"/><path class="cls-2" d="M67.42,77.64,66,80l.56-.68-.1.08.93-.45-.12,0,1-.08c.45,0,.38.12.19.06l-.39-.12-1.15-.35L65.26,78a2.62,2.62,0,0,0-2.74.73l-1.23,1.53-.85,1.06-.27.32c-.13.18-.25.18.09-.08L61.71,81c.47,0,.4.05.18,0l-.44-.07-1.35-.22-2-.31a2.63,2.63,0,0,0-2.29.84L54.48,83l-.93,1.14-.33.42c-.14.18-.29.19.08-.07l.93-.45-.14,0,1-.07c-1.67-.15-3.35-.33-5-.44s-2.52,1.14-3.48,2.33l-1.11,1.38-.39.48c-.15.19-.34.26,0,0l1.45-.54c.5-.05.38,0,.15,0l-.53-.08-1.46-.23-2.2-.35a2.57,2.57,0,0,0-2.28.84c-.68,1-1.36,2.07-2,3.11a1.69,1.69,0,0,0-.16,1.77c.24.69.52,1.38.81,2A36.55,36.55,0,0,0,40.71,98a20.06,20.06,0,0,0,11.41,8.8,17.68,17.68,0,0,0,7.5.79,17.45,17.45,0,0,0,1.87-.33l.76-.22.46-.16.46-.17a19.36,19.36,0,0,0,3.81-1.9,17.61,17.61,0,0,0,7.23-11.9C75.12,87.46,73.67,81.79,71,77c-.46-.85-1.93-.68-2.63-.33a1.49,1.49,0,0,0-.9,2.06,27.7,27.7,0,0,1,2.3,5.95,20.62,20.62,0,0,1,.59,2.56,15,15,0,0,1,.17,2.52,20.12,20.12,0,0,1-.19,2.79c-.06.43-.14.86-.22,1.29s-.21.93-.3,1.21a16.87,16.87,0,0,1-1,2.59c-.2.41-.41.82-.64,1.22l-.17.27c0-.06.15-.22,0,0s-.27.41-.41.6c-.27.37-.56.73-.86,1.07l-.44.48-.23.23c.22-.22-.07.06-.14.12-.32.29-.66.57-1,.83l-.55.38c-.06,0-.31.2,0,0l-.44.26a12.55,12.55,0,0,1-1.22.6c-.13.06-.7.29-.31.14l-.67.24c-.5.2.42-.12-.09,0s-.82.25-1.24.34c-.14,0-.71.11-.26,0l-.8.1c-.44,0-.88,0-1.32,0h0l-.34,0c-.27,0-.55,0-.83-.08-.45,0-.9-.13-1.34-.22-.06,0-.7-.16-.39-.08l-.83-.24a17.5,17.5,0,0,1-5.13-2.51,16.26,16.26,0,0,1-4.45-4.49,27.6,27.6,0,0,1-3-6.5l-.3,1.13,2.07-3.18-2.28.85,2.44.38c1.16.19,2.51.59,3.63,0A7.92,7.92,0,0,0,49.5,87.5l1.55-1.92-2.28.84c1.67.15,3.35.34,5,.45,1.84.12,2.63-1.07,3.62-2.3l1.7-2.11-2.28.85,2.2.35a6.2,6.2,0,0,0,3.14.09,5.88,5.88,0,0,0,2.21-2.11l1.39-1.72-2.73.73c1.18.36,2.36.79,3.56,1.07a2.84,2.84,0,0,0,3.08-1.27l.4-.64,1-1.67c.53-.83-.46-1.6-1.19-1.7A2.54,2.54,0,0,0,67.42,77.64Z"/><path class="cls-2" d="M122.93,82.91a11.51,11.51,0,0,0-2.29,5.14,14,14,0,0,0,.23,7.16l.93-.79a11.11,11.11,0,0,1-1.25.48c-.14,0-.29.08-.43.12-.58.16.32,0-.3,0a13.93,13.93,0,0,0-3.18.71l.47-.19-.6.19c-.21.07-.43.15-.64.24a13.26,13.26,0,0,0-1.21.56,8.16,8.16,0,0,0-1.6,1.2,14.47,14.47,0,0,0-2.41,3.15,9.13,9.13,0,0,0-1.27,3c0,.22.06.29.26.37a11.24,11.24,0,0,0,2.32.38,13.64,13.64,0,0,0,2.21.29c1.53,0,3.07-.07,4.6-.11l-.75-.13c.9.82,1.78,1.69,2.71,2.48.14.12.19.21.1,0,.07.12.12.24.18.36l.82,1.64,2,4a12.51,12.51,0,0,0,1.49,2.15l.66.81.26.33s.15.24.08.09.07.24.09.3l.33.88.83,2.22a4.3,4.3,0,0,1,.34,1,8.54,8.54,0,0,1-.14,1.59l-.21,2.23a3.41,3.41,0,0,1,0,.46c0-.13,0-.14,0,0a3.53,3.53,0,0,0-.15.46,13.67,13.67,0,0,0-.61,1.84c-.1.57.53.64,1,.78.63.2,1.27.41,1.92.55a7.86,7.86,0,0,0,4.25-.48,14.18,14.18,0,0,0,5.72-3.73l-1.57.68a16,16,0,0,0,6.16-2.31,7,7,0,0,0,2.47-2.41,10,10,0,0,0,.51-1.32c.11-.32.21-.65.31-1s.29-.64.17-.9c-.19-.44-1.26-.54-1.66-.66s-.63-.2-1-.27.15.12-.13,0c-.55-.33-1.12-.64-1.68-1a16.44,16.44,0,0,0-1.73-1c-.16-.07-.23-.13-.12,0a3.64,3.64,0,0,1-.32-.48l-1.28-1.89a16.4,16.4,0,0,1-.95-1.4,5.46,5.46,0,0,1-.34-1.06,13.55,13.55,0,0,0-.84-2.57l-2-3.64-1.07-2a3.81,3.81,0,0,1-.37-.76,15,15,0,0,1-.27-2.12l-.23-1.71-.12.31c.89-1.25,1.8-2.5,2.68-3.77a14.34,14.34,0,0,0,.94-1.88,12.11,12.11,0,0,0,.93-2,.21.21,0,0,0-.08-.27,7.67,7.67,0,0,0-3.13-.76,17.37,17.37,0,0,0-4.38.16,9,9,0,0,0-4.57,2c-.23.23-.57.44-.91.76a10.22,10.22,0,0,0-.9,1,8.92,8.92,0,0,1-2.11,1.81l2.57-.29a10.61,10.61,0,0,1,1.84-10.48c.11-.11.21-.32,0-.44l-.94-.68c-.48-.35-1.38-.08-1.88.11-.19.07-1.3.58-.84.92l.94.68,0-.44a11.21,11.21,0,0,0-2.1,11.11c.12.34.78.27,1,.24a3.58,3.58,0,0,0,1.56-.53,17.08,17.08,0,0,0,3.41-3.11c.46-.52-.62.39.15-.14.16-.1.3-.24.45-.35a7.74,7.74,0,0,1,1-.64c.23-.13-.08,0,.07,0s.28-.1.07,0l.42-.12c-.22.06,0,0,.12,0a12.19,12.19,0,0,1,3-.1,6.58,6.58,0,0,1,2.33.49l-.07-.28a7.7,7.7,0,0,1-.61,1.3l-1,2.08c-.09.2-.17.33,0,.13l-.39.54-1.4,2c-.29.41-.64.82-.89,1.26s0,1.07,0,1.56l.3,2.32a1.59,1.59,0,0,0,.21.67l2.11,3.93a19.19,19.19,0,0,1,1.33,2.54c.24.69.41,1.4.62,2.1a5,5,0,0,0,.37,1.09c.68,1.22,1.59,2.35,2.37,3.51a2.11,2.11,0,0,0,.85.71l2.35,1.34a5.78,5.78,0,0,0,1.3.63l2.16.62-.27-.21c.15.24-.19.91-.27,1.16s-.24.76-.38,1.13a3.28,3.28,0,0,1-.88,1.42,10.05,10.05,0,0,1-2,1.45,6.11,6.11,0,0,1-.71.33c-.07,0-.5.18-.25.1l-.47.13-.38.1c-.23.05.24,0,0,0l-.18,0-.87.17a4,4,0,0,0-2.06,1.33,8.48,8.48,0,0,1-2.79,1.86c-.42.17-.86.25-1.29.4s.23,0,.26,0c-.14,0-.06,0,0,0a2,2,0,0,0-.34,0,19.33,19.33,0,0,1-2.72-.8l.26.21c-.09-.16-.06.12,0-.08a2.29,2.29,0,0,1,.12-.37l.41-1.22a5.53,5.53,0,0,0,.29-1.2l.21-2.21a10.19,10.19,0,0,0,.17-1.82,4.79,4.79,0,0,0-.38-1.08l-.87-2.32a5.86,5.86,0,0,0-.49-1.18c-.38-.55-.84-1-1.26-1.57l-.64-.8-.15-.19c0-.07.12.2,0,.06l-.6-1.2-2.18-4.35c-.19-.37-.35-.79-.57-1.14a5.69,5.69,0,0,0-1-.94l-1.75-1.6a1.75,1.75,0,0,0-1.35-.38l-2.49.06-1.27,0h-.4c-.33,0,.16,0,.16,0a16.85,16.85,0,0,0-2-.31l-1.33-.2-.42-.07c-.28,0,.18,0,.06,0l.25.36a8.53,8.53,0,0,1,1.1-2.69,14,14,0,0,1,2.13-2.89,6.39,6.39,0,0,1,.54-.5l.28-.21.13-.08a5,5,0,0,1,.94-.42l.62-.19c1.07-.41-.68.1.07,0a17.51,17.51,0,0,0,4.78-1.22c.22-.1,1.06-.41.93-.8a13.48,13.48,0,0,1-.27-6.85,11.08,11.08,0,0,1,2.07-4.81c.42-.49-.37-.59-.71-.58A3,3,0,0,0,122.93,82.91Z"/><path class="cls-2" d="M133.07,93l-2,2.9-.88,1.25c-.23.34-.13.62-.08,1l.29,2.21a9.72,9.72,0,0,0,.19,1.52,4.12,4.12,0,0,0,.33.62l.9,1.67,2.05,3.84a10.69,10.69,0,0,1,.82,2.28,11.67,11.67,0,0,0,.46,1.56,9,9,0,0,0,.65,1c.71,1,1.38,2.13,2.13,3.14a3,3,0,0,0,1,.67l2.14,1.21a7.28,7.28,0,0,0,1.23.66c.61.21,1.27.33,1.89.49l-.14-.53-1.1,1.16,2.5-.67c-1.42-.36-3-.91-4.22.25-.65.61-1.25,1.27-1.87,1.9l2.5-.67-1.24-.53a2.83,2.83,0,0,0-2.5.67L136,122.87l1.57-.68-3.14.47c-.4.06-1.59.33-1.68.85l-.26,1.33,1.69-.84-2.59.47c-.82.16-1.56.4-1.86,1.21l-.48,1.32,1.3-.76-1.68.4,1.58.29a9.91,9.91,0,0,0,.85-2.62c.12-1.33.28-2.66.37-4a1.45,1.45,0,0,0-.15-.67l-.71-1.91a9.8,9.8,0,0,0-1.14-2.68l-1.3-1.63c-.17-.22-.34-.44-.52-.65a.76.76,0,0,1-.11-.14s.1.18,0,.06c-.43-1-1-2-1.51-3l-1.74-3.47a7.27,7.27,0,0,0-1.79-1.84c-.51-.47-1-1-1.56-1.43a2.2,2.2,0,0,0-1.48-.21l-4,.1.71.58c.77-.78,1.6-1.48,2.44-2.2l-2.25.72c1.32.18,2.89.64,4.2.21s2-1.85,2.81-2.87l-2.24.72,3.06.35c.69.07,2-.2,2.36-.88l1.43-2.76-2.05.88,1.71-.11a6.48,6.48,0,0,0,2.69-.47c.63-.32.84-1,1.14-1.62l.79-1.57-.92.64,3.37-1.17c.3-.1,1.2-.49.84-.91s-1.52,0-1.88.11c-1.12.39-2.26.74-3.36,1.17-.88.33-1,.89-1.43,1.66L128.24,97l2-.88-1.7.1a6,6,0,0,0-2.82.55,3.8,3.8,0,0,0-1.08,1.63l-.8,1.55,2.36-.89-1.72-.19a6.3,6.3,0,0,0-2.41,0c-1.4.37-2.16,1.85-3,2.93l2.25-.72c-1.54-.21-3.61-.84-5,.16a20.33,20.33,0,0,0-2.63,2.36c-.48.49.42.59.71.58l4.65-.12-.75-.14,2.1,1.95a10.36,10.36,0,0,0,1,1c.17.12,0-.07,0,0s.09.18.14.28l3,5.94a7.7,7.7,0,0,0,1,1.48l1.15,1.44a3.37,3.37,0,0,1,.29.37c.07.1-.08-.16,0-.08s0,.1,0,.15c.33,1.06.79,2.1,1.18,3.13a4.13,4.13,0,0,1,.48,1.79l-.35,3.83a2.43,2.43,0,0,1,0,.38c.08-.33-.14.26-.18.34l-.61,1.59c-.26.65,1.42.33,1.57.29a7.8,7.8,0,0,0,2.66-.83c.55-.4.7-1.4.92-2l-1.68.84,2.63-.49c.4-.07,1.58-.31,1.68-.84l.26-1.33-1.69.84,1.75-.26a9.14,9.14,0,0,0,2.32-.49,5.2,5.2,0,0,0,1.59-1.44l1.2-1.31-2.5.67,1.24.53a2.83,2.83,0,0,0,2.5-.67l1.88-1.91-2.5.67,1.71.43a3,3,0,0,0,2.5-.67l1.1-1.16a.29.29,0,0,0-.14-.53l-1.39-.36c-.19,0-.38-.11-.57-.15.26,0,.13.06-.05,0l-3-1.69-.54-.31c-.06,0-.41-.25-.16,0a5.19,5.19,0,0,1-.53-.79l-2-2.9c-.79-1.17-.73-2.71-1.39-3.94l-3.12-5.8a5.38,5.38,0,0,1-.36-.67,6.23,6.23,0,0,1-.14-1.14l-.42-3.25-.13.32,2.93-4.2c.35-.51-.32-.6-.72-.58A2.89,2.89,0,0,0,133.07,93Z"/><path class="cls-2" d="M130.39,106.58a5.83,5.83,0,0,0,2.85,5.65,2.1,2.1,0,0,0,1.5,0,3.67,3.67,0,0,0,.72-.27c.12-.06.56-.3.58-.49a5.83,5.83,0,0,0-2.85-5.65,2.42,2.42,0,0,0-1.88.12,2,2,0,0,0-.8.47c-.1.11-.23.34,0,.44a5.39,5.39,0,0,1,2.7,5.09l2.79-.75a5.38,5.38,0,0,1-2.7-5.09c0-.21,0-.29-.25-.36a2.09,2.09,0,0,0-.93,0,3.88,3.88,0,0,0-1.11.35C130.8,106.18,130.42,106.36,130.39,106.58Z"/><path class="cls-2" d="M125.58,109.15a5.78,5.78,0,0,0,2.85,5.64,2.1,2.1,0,0,0,1.5,0,4.41,4.41,0,0,0,.72-.26c.12-.06.56-.3.58-.5a5.85,5.85,0,0,0-2.85-5.64,2.37,2.37,0,0,0-1.88.11c-.15.06-1.34.64-.84.91a5.25,5.25,0,0,1,2,2.07,5.41,5.41,0,0,1,.67,3l2.79-.74a5.37,5.37,0,0,1-2.7-5.09c0-.21,0-.3-.25-.37a2.09,2.09,0,0,0-.93,0,3.88,3.88,0,0,0-1.11.35C126,108.75,125.61,108.93,125.58,109.15Z"/><path class="cls-2" d="M74.17,116.31A61.49,61.49,0,0,0,60,118.08c-3,.69-6.2,1.65-8.51,3.73-4.33,3.9.22,9.85,3,13.19a57.46,57.46,0,0,0,9.37,9.4c2.3,1.76,5,3.32,8,3.08a9.76,9.76,0,0,0,7.25-4.41A39,39,0,0,0,84,131.75a30.75,30.75,0,0,0,1.26-6.07,10.68,10.68,0,0,0-.39-4.46c-1-3-4-4.22-6.9-4.67a25.84,25.84,0,0,0-3.83-.24,2.74,2.74,0,0,0-1.94.72c-.41.51.37.57.72.57,2.9,0,6.64.39,8.4,3.06,1.61,2.42,1.19,5.72.63,8.4a48.34,48.34,0,0,1-4.17,11.84,17.31,17.31,0,0,1-2.4,3.63,7.66,7.66,0,0,1-1.18,1.08l-.33.23c-.19.12,0,0,0,0l-.17.1-.35.17c.31-.15-.05,0-.15,0s.3-.06.11,0l-.18,0c-.33.08.25,0,0,0s-.41,0-.1,0l-.47,0c.24,0,0,0-.12,0l-.4,0a3.86,3.86,0,0,1-.7-.15,12.13,12.13,0,0,1-3.55-1.71A47.81,47.81,0,0,1,59,136.11a31.58,31.58,0,0,1-5.63-7.93c-.76-1.74-1.18-3.74-.14-5.46a4.81,4.81,0,0,1,.78-.93c.05,0,.28-.25.14-.13l.3-.24c.21-.15.42-.3.65-.44s0,0,0,0l.18-.1.39-.21.4-.2.22-.1c-.19.09-.07,0,0,0,.31-.12.62-.25.93-.36.15,0,.29-.11.44-.15l.26-.09c-.32.1.12,0,.15,0A35.17,35.17,0,0,1,63,118.59c2.24-.39,4.51-.7,6.78-.87q1.58-.12,3.15-.12a2.76,2.76,0,0,0,1.93-.71C75.29,116.37,74.51,116.31,74.17,116.31Z"/><path class="cls-2" d="M85.84,121.83l-3.16,9-5,14.43-1.15,3.32c-.07.19.08.31.25.36.72.23,1.44.45,2.17.66a2.78,2.78,0,0,0,1.51-.14c.33-.11,1-.32,1.1-.7l3.71-10.66.52-1.5-2.61.83,3.31,1.12-.25-.36L82.57,148.7l-.52,1.49c-.06.19.09.32.26.36.73.19,1.47.36,2.21.52a2.88,2.88,0,0,0,1.51-.14c.33-.11,1-.31,1.1-.7L90.71,140l.5-1.45-2.61.83,3.31,1.14-.25-.36L88.21,150l-.49,1.41c-.07.18.08.33.25.37l2.24.43a3,3,0,0,0,1.51-.13c.34-.11,1-.32,1.11-.7l3.36-9.69.48-1.37-2.62.84,3.32,1.12-.26-.37-3.2,9.24-.46,1.3a.29.29,0,0,0,.26.37l2.51.43c.6.09,2.12-.2,2.36-.88l3.09-8.9.45-1.3-2.62.84,3.32,1.14-.25-.37-3.35,9.6c-.11.32.3.37.51.41l2.28.33c.61.08,2.12-.19,2.36-.88l3.2-9.2-2.61.83,3.31,1.12-.25-.36-3,8.57c-.11.31.3.38.51.41l2.28.29c.61.07,2.12-.19,2.36-.88l2.83-8.13-2.62.83,3.32,1.14-.26-.36L110.89,155c-.11.31.29.38.51.41.76.09,1.53.18,2.3.25.61.07,2.11-.17,2.36-.88l2.42-7-2.62.84,3.32,1.12-.25-.37-2.14,6.16c-.11.31.29.39.51.41.77.07,1.55.12,2.33.17.62,0,2.11-.16,2.36-.88l1.94-5.6-2.61.84,3.31,1.12-.25-.36-1.61,4.64c-.11.3.29.4.51.41.9,0,1.81,0,2.72,0,.51,0,1.83-.27,2-.88l1.34-3.9-2.61.84,1.25.42-.25-.36a13.26,13.26,0,0,0,1.68,9.54,11.62,11.62,0,0,0,6.49,5.59c.68.2,2.3-.08,2.62-.83a11.53,11.53,0,0,0,0-7.94,14.37,14.37,0,0,0-4.83-6.93L131.4,153a17.25,17.25,0,0,0,9.94-2.8,11.76,11.76,0,0,0,5.17-6.36c.05-.21-.09-.28-.26-.36-3.26-1.49-7.41-.66-10.56.71a14.09,14.09,0,0,0-7.34,6.55l2.62-.83-1.24-.47.25.36,1.06-3a.22.22,0,0,0-.07-.28c-.61-.52-1.23-1-1.85-1.53s-2.55,0-2.8.75L125,149.46l2.61-.83-3.29-1.24.26.36,1.66-4.73a.22.22,0,0,0-.08-.28c-.64-.46-1.28-.92-1.93-1.37a2,2,0,0,0-1.5,0c-.39.11-1.14.32-1.29.76l-1.84,5.31,2.62-.84-3.29-1.22.25.36,2.14-6.11a.22.22,0,0,0-.07-.28c-.65-.43-1.3-.86-2-1.27a2,2,0,0,0-1.5,0c-.39.1-1.14.32-1.3.76l-2.28,6.58,2.61-.84-3.28-1.22.25.36,2.54-7.28a.22.22,0,0,0-.07-.28l-2-1.24a2,2,0,0,0-1.5,0c-.4.1-1.14.32-1.3.76l-2.68,7.72,2.61-.84-3.29-1.23.26.37,2.91-8.36a.22.22,0,0,0-.07-.28l-2-1.2a2.1,2.1,0,0,0-1.5,0c-.39.11-1.14.33-1.29.76l-3,8.75,2.62-.83-3.29-1.23.26.37,3.25-9.35a.22.22,0,0,0-.07-.28c-.66-.38-1.32-.76-2-1.13a2,2,0,0,0-1.5,0c-.39.1-1.14.32-1.29.75L98,139.3l2.61-.83-3.27-1.23.26.36,3.09-8.91.45-1.29a.22.22,0,0,0-.08-.28l-2-1.08a2.21,2.21,0,0,0-1.5,0c-.39.11-1.14.32-1.29.76L93.1,136l-.45,1.3,2.61-.84L92,135.21l.25.36,3.3-9.5.48-1.39a.22.22,0,0,0-.07-.28c-.74-.37-1.48-.73-2.23-1.08-.59-.28-2.37.14-2.61.83l-3.37,9.71-.49,1.39,2.62-.83-3.27-1.25.25.37,3.44-9.89.49-1.42c.07-.21-.09-.3-.25-.37-.69-.31-1.38-.58-2.08-.86a2.85,2.85,0,0,0-2,.34c-.34.17-.93.62-.33.86s1.39.56,2.08.86l-.26-.36-3.43,9.88L84,134c-.07.2.09.3.26.36l3.27,1.25a2.52,2.52,0,0,0,1.51-.14c.33-.11,1-.31,1.1-.7l3.37-9.7.48-1.4-2.61.84c.63.29,1.25.6,1.87.91l-.07-.28-3.31,9.51L89.37,136c-.07.2.09.31.26.37l3.27,1.22a2.59,2.59,0,0,0,1.51-.13c.34-.11,1-.32,1.11-.7l3.2-9.18.46-1.3-2.8.75,2,1.08-.07-.28-3.09,8.91-.45,1.29c-.07.2.09.31.25.37l3.27,1.23a2.55,2.55,0,0,0,1.52-.14c.33-.11,1-.31,1.1-.7l3.38-9.67-2.8.74,2,1.14-.08-.28-3.25,9.35c-.07.2.09.3.25.36l3.29,1.23a2.61,2.61,0,0,0,1.51-.14c.33-.11,1-.31,1.1-.7l3-8.75-2.79.75c.66.4,1.32.79,2,1.2l-.08-.28-2.91,8.36c-.07.2.09.3.25.36l3.29,1.23a2.6,2.6,0,0,0,1.51-.13c.34-.11,1-.32,1.1-.7l2.69-7.72-2.79.75,2,1.24-.08-.28-2.54,7.28c-.07.2.09.3.26.37l3.28,1.22a2.59,2.59,0,0,0,1.51-.13c.34-.11,1-.32,1.11-.7l2.28-6.58-2.79.75c.66.41,1.31.83,2,1.27l-.08-.28-2.13,6.11c-.08.2.09.31.25.37l3.29,1.22a2.6,2.6,0,0,0,1.51-.13c.33-.11,1-.32,1.1-.7l1.84-5.31-2.8.75c.65.45,1.29.91,1.93,1.37l-.07-.28-1.66,4.73c-.07.2.09.3.25.37l3.29,1.24a2.6,2.6,0,0,0,1.51-.14c.34-.11,1-.31,1.11-.7l1.31-3.77-2.79.74c.62.5,1.24,1,1.85,1.54l-.08-.28-1.06,3c-.07.2.09.3.26.37l1.24.47a2.65,2.65,0,0,0,2.61-.84c2-4.36,8-7.72,12.67-5.59l-.25-.37c-1.18,4.29-6,7.59-10.39,7.4a3.68,3.68,0,0,0-1.78.39c-.19.1-.86.5-.5.77a13.72,13.72,0,0,1,4.65,6.67,11,11,0,0,1,.07,7.64l2.61-.84c-2.65-.76-4.73-3-6.05-5.35a12.84,12.84,0,0,1-1.61-9.05c.05-.2-.07-.3-.26-.37l-1.25-.42a2.6,2.6,0,0,0-1.51.13c-.34.11-1,.32-1.11.7l-1.34,3.9,2-.88c-.7,0-1.4,0-2.09,0l.5.41,1.62-4.64c.07-.2-.09-.31-.26-.37l-3.31-1.12a2.52,2.52,0,0,0-1.51.14c-.34.11-1,.31-1.11.69l-1.94,5.6,2.36-.88c-.78-.05-1.56-.1-2.33-.17l.51.41,2.13-6.15c.07-.2-.08-.31-.25-.37l-3.32-1.12a2.61,2.61,0,0,0-1.51.13c-.33.11-1,.32-1.1.7l-2.42,7,2.36-.88c-.77-.07-1.54-.16-2.3-.25l.51.41,2.58-7.43c.07-.2-.09-.31-.25-.37l-3.32-1.14a2.68,2.68,0,0,0-1.51.14c-.34.11-1,.32-1.1.7l-2.83,8.13,2.36-.88-2.28-.29.51.41,3-8.57c.07-.2-.09-.31-.26-.37l-3.31-1.12a2.68,2.68,0,0,0-1.51.14c-.34.11-1,.31-1.11.7l-3.2,9.2,2.36-.88q-1.14-.15-2.28-.33l.51.41,3.35-9.6c.07-.2-.09-.31-.26-.36l-3.32-1.14a2.53,2.53,0,0,0-1.51.14c-.33.11-1,.31-1.1.69l-3.09,8.9-.45,1.29,2.36-.88c-.67-.1-1.34-.21-2-.33l.25.36,3.21-9.23.45-1.31c.07-.19-.08-.3-.25-.36L96.41,140a2.6,2.6,0,0,0-1.51.13c-.33.11-1,.32-1.1.7l-3.37,9.69L90,151.89l2.61-.84-2.24-.43.26.36L94,141.05l.49-1.41c.07-.2-.09-.31-.25-.37L91,138.13a2.68,2.68,0,0,0-1.51.14c-.34.11-1,.32-1.11.7l-3.57,10.28-.51,1.45,2.62-.83c-.74-.16-1.48-.33-2.21-.52l.25.37,3.64-10.46.52-1.49c.06-.2-.09-.31-.26-.37l-3.31-1.12a2.73,2.73,0,0,0-1.52.14c-.33.11-1,.31-1.1.7l-3.7,10.66-.53,1.5,2.62-.84c-.73-.2-1.45-.42-2.17-.65l.26.37,3.15-9,5-14.43,1.15-3.32c.19-.53-.94-.41-1.18-.37C87.05,121.06,86,121.29,85.84,121.83Z"/><path class="cls-2" d="M71.06,123.37s.39,0,.18,0l.36.1.2.08c-.13-.06.11.07.14.09a2.57,2.57,0,0,1,.75.72l-.09-.13a2.85,2.85,0,0,1,.5,1.86v-.16a2.91,2.91,0,0,1-.17.72,2,2,0,0,1-.17.36,1.29,1.29,0,0,1-.09.16c.06-.1,0,0,0,0a1.94,1.94,0,0,1-.23.26c-.11.11,0,.08,0,0a.64.64,0,0,1-.13.1.78.78,0,0,0-.15.1c.27-.26.13,0,0,0l.15-.06c-.27.09.39-.11.12,0s.33-.06.15,0-.22,0,.12,0h-.17c-.15,0,.28,0,.07,0l-.18,0c-.12,0,.19,0,0,0a2,2,0,0,1-.35-.11s-.22-.1-.09,0l-.12-.07a2.62,2.62,0,0,1-.32-.23,2.52,2.52,0,0,1-.5-.53l.09.12a2.83,2.83,0,0,1-.5-1.85v.15a2.56,2.56,0,0,1,.23-.85,2.52,2.52,0,0,1,.21-.4c-.08.12.06-.07.06-.07l.15-.16a.75.75,0,0,1,.16-.15l-.09.07.11-.08.06,0-.08,0,.06,0c.13-.07.08,0-.14,0l.07,0c.14-.06.08,0-.18,0,.06,0,.29-.07,0,0s-.16,0,0,0l-.18,0c.08,0,.37,0,0,0a3.45,3.45,0,0,0,2-.55c.14-.11.38-.28.32-.49s-.37-.25-.52-.25c-1.8,0-4,.63-4.85,2.36a3,3,0,0,0,.63,3.49c1.25,1.2,3.33,1,4.8.39a4.4,4.4,0,0,0,2-1.59,3.06,3.06,0,0,0,.47-1.81,3.1,3.1,0,0,0-3.09-2.84,3.35,3.35,0,0,0-2,.54c-.14.11-.38.28-.33.49S70.9,123.36,71.06,123.37Z"/></g></g></svg>