<svg xmlns="http://www.w3.org/2000/svg" viewBox="0 0 199 199"><defs><style>.cls-1{fill:#e94e1b;}.cls-2{fill:#fff;}</style></defs><g id="Calque_2" data-name="Calque 2"><g id="Layer_1" data-name="Layer 1"><circle class="cls-1" cx="99.5" cy="99.5" r="99.5"/><path class="cls-2" d="M96.79,68.76a14.57,14.57,0,0,1-13.11-9.67,14.87,14.87,0,0,1,4.07-16.23,13.25,13.25,0,0,1,15.54-1,15.14,15.14,0,0,1,6.83,15.52A13.72,13.72,0,0,1,96.79,68.76c-1,0-2.54.79-2.66,1.94s1.29,1.57,2.23,1.56c7.63-.08,15.09-4.84,17.77-12.1a17.71,17.71,0,0,0-5.4-19.87c-6-4.9-14.91-5.28-21.52-1.42a18.3,18.3,0,0,0-9,19.1,17.65,17.65,0,0,0,6.1,10.15,18.91,18.91,0,0,0,12.07,4.14c1,0,2.54-.81,2.66-1.94S97.73,68.77,96.79,68.76Z"/><path class="cls-2" d="M84.58,111.9c0-5.17.09-10.34,0-15.5a9.23,9.23,0,0,0-2.8-6.7c-.56-.53-1.17-1-1.77-1.48l-6.67-5.43q-6.28-5.12-12.57-10.22c-1.72-1.4-2.64-3.88-1.36-5.9,1.11-1.76,2.94-1.45,4.47-.35,2,1.44,4,3,6,4.46L77,76.07a32.08,32.08,0,0,0,33.77,3,54.9,54.9,0,0,0,8.06-5.38l8.32-6.19c.63-.47,1.25-1,1.9-1.42a3.16,3.16,0,0,1,4.63,1.12,4.31,4.31,0,0,1-1,5.7l-1.33,1.08-7.2,5.85-8.18,6.65a50.65,50.65,0,0,0-4.71,3.94,9.45,9.45,0,0,0-2.63,6.39c0,1,0,2,0,3v12.45c0,2.57,4.9,1.9,4.9-.34,0-5.18-.12-10.38,0-15.56a6.14,6.14,0,0,1,2.31-4.89L117.52,90l7.67-6.23,8.21-6.67c2-1.6,4.32-3.15,5.29-5.59a7,7,0,0,0-1.53-7.63,8.25,8.25,0,0,0-8.3-1.73c-2.7.85-5.08,3.07-7.32,4.74-6.25,4.65-12.37,10.29-20.34,11.58a26.7,26.7,0,0,1-18.09-3.61c-2.36-1.46-4.54-3.24-6.76-4.9l-8.07-6a10.58,10.58,0,0,0-3.73-2,8.84,8.84,0,0,0-8.63,2.44A7.15,7.15,0,0,0,54.5,72.2a9.28,9.28,0,0,0,2.89,3.48l6,4.84q6.91,5.61,13.81,11.22c2.55,2.09,2.53,4.71,2.53,7.66v12.84c0,2.57,4.9,1.9,4.9-.34Z"/><path class="cls-2" d="M142.53,99.15l2.6,5.28c.88,1.77,1.63,4.54,3.81,5,1.86.4,3.82.55,5.7.83l3.39.49c.95.14,1.78.41,2,1.52s-.42,1.5-1,2.1l-2.6,2.53-2.71,2.65a10,10,0,0,0-1.49,1.56,3.52,3.52,0,0,0-.27,2.77l.59,3.46.65,3.76a6.27,6.27,0,0,1,.25,2.27,5.15,5.15,0,0,1-.23.54l-.09.1q-.83.89,1.86-.54s-.08,0-.11-.06a4.72,4.72,0,0,0-.89-.47l-3.22-1.69-3.37-1.77a6.73,6.73,0,0,0-2.39-1c-2.8-.31-5.27,1.34-7.63,2.58a52.67,52.67,0,0,0-5.42,2.85c1.89-1.31,2.39.07,1.37-.64a1.77,1.77,0,0,1-.68-1,2.43,2.43,0,0,1,0-1c.12-1,.33-2,.5-2.93.36-2.11.79-4.22,1.09-6.34s-1.77-3.42-3.1-4.72c-1.51-1.47-3.21-2.88-4.6-4.48a2.05,2.05,0,0,1-.57-1.41c0-.39.34-.68.38-1-.13,1-1.92.46-1.23.42.85,0,1.72-.25,2.57-.37,2.26-.33,4.54-.62,6.8-1,1.68-.28,3.62-.89,4.56-2.42.34-.55.59-1.17.88-1.74l3.25-6.59a4.6,4.6,0,0,0,.29-.59c0-.06.06-.06.09-.14.21-.84-2.32-.08-1.87.36s.63.36.9.82c.71,1.23,5.26-.55,4.83-1.3-1.21-2.07-3.93-1.77-5.9-1a5.09,5.09,0,0,0-3,2.55c-1.13,2.25-2.22,4.51-3.33,6.76-.21.42-.4.84-.62,1.25a2.24,2.24,0,0,0-.13.27s0,0,0,.06a1.21,1.21,0,0,1-.22.32l1.39-.47c-.25-.21-2.06.3-2.36.34-2.39.35-4.79.65-7.17,1-1.63.27-3.74.9-4.57,2.48a2.64,2.64,0,0,0,.7,3.23c1.74,1.76,3.55,3.47,5.33,5.2a13.13,13.13,0,0,1,1.62,1.63c.6.85.3,1.76.14,2.69l-1.32,7.68a2.94,2.94,0,0,0,.56,2.86c1.57,1.62,4.55.82,6.29,0,2-1,4-2.08,5.95-3.12.85-.45,1.75-.85,2.57-1.35s-2.12-.13-1.39.45a6.89,6.89,0,0,0,1,.55l6.86,3.6a5.61,5.61,0,0,0,3.71.7c1.92-.29,4.75-1.3,4.82-3.64a12,12,0,0,0-.32-2.23l-.72-4.18c-.27-1.58-1.25-4.1,0-5.4,1.73-1.8,3.58-3.49,5.37-5.23.54-.53,1.13-1,1.62-1.61a2.57,2.57,0,0,0-1.05-4.12,11.2,11.2,0,0,0-2.24-.41l-4.05-.58c-1.65-.24-4.42-.07-5.31-1.71-1.18-2.18-2.2-4.46-3.3-6.68l-.91-1.86C146.75,96.62,142.1,98.29,142.53,99.15Z"/><path class="cls-2" d="M49.7,99.15l2.55,5.17c.89,1.8,1.73,4.69,3.81,5.39a33.54,33.54,0,0,0,5.91.94l3.47.51c.71.1,1.4.07,1.68.86s-.21,1.21-.73,1.72l-2.6,2.54-2.71,2.64a11,11,0,0,0-1.6,1.67c-1.18,1.75-.19,4.49.13,6.39a46.36,46.36,0,0,1,1,5.69c0,.19-.21.7-.19.81.17.8,1.32-.41,1.32-.41a2.9,2.9,0,0,0-.76-.4l-3-1.57a36.59,36.59,0,0,0-5.5-2.82c-2.75-.89-5.23.85-7.54,2.07l-3.5,1.84c-.44.23-1.62.58-1.91,1,0,.07-2.65.35.45,0,1.19-.15.36.06.3-.13s-.45-.44-.52-.86a2.7,2.7,0,0,1,.06-.8c.17-1,.36-2.07.54-3.11.35-2,.82-4.08,1-6.13.25-2.25-1.74-3.58-3.18-5s-3.15-2.91-4.59-4.48a1.47,1.47,0,0,1-.51-1.17c0-.11.09-.28.1-.4,0-.41.14-.14-.27.06-.81.4-.89.18-.5.15.87-.06,1.75-.25,2.61-.38,2.24-.32,4.49-.62,6.72-1a5.84,5.84,0,0,0,4.37-2.57c.35-.59.61-1.24.92-1.85l3.17-6.43c.07-.16.19-.33.24-.49.37-1.25.13-.09.1-.22,0,.23-1.27.51-1.28.34l-.1,0a.61.61,0,0,1,.3.2c.13.19.27.35.39.56.87,1.49,5.55-.08,4.47-2-1.21-2.07-4.17-2-6.11-1.14A5.23,5.23,0,0,0,45.64,99l-3.42,6.92a10,10,0,0,0-.51,1c0,.06-.1.14-.1.21s-.93-.8-.11.21c-.14-.18,1.34-.22,1-.35a2.53,2.53,0,0,0-.81.12l-1.82.27c-2.3.33-4.62.63-6.92,1-1.88.31-4,1.23-4.55,3.22a3.16,3.16,0,0,0,1,3.2c1.81,1.8,3.65,3.56,5.47,5.34a7.22,7.22,0,0,1,1.57,1.65c.34.67,0,1.67-.13,2.36L35,131.75a3.4,3.4,0,0,0,.73,3.19c1.5,1.51,4.05,1.29,5.81.45,2.1-1,4.13-2.17,6.19-3.25l1.48-.78c.11-.06.83-.33.87-.46,0,.06-.91-.19-.66.16s.84.44,1.09.57l6.78,3.57a6,6,0,0,0,3.77.77c2.23-.32,4.63-1.94,4.38-4.43-.2-2.12-.71-4.24-1.07-6.33-.18-1.07-.41-2.14-.55-3.21a1.48,1.48,0,0,1,.52-1.47l5.49-5.35a11.38,11.38,0,0,0,1.72-1.82,3.12,3.12,0,0,0-1.27-4.54,8.75,8.75,0,0,0-2.59-.56l-4.15-.6-3.44-.5a1.57,1.57,0,0,1-1.35-.77c-1.25-2.12-2.21-4.47-3.29-6.68l-.92-1.86C53.65,96.08,48.92,97.58,49.7,99.15Z"/><path class="cls-2" d="M96.84,107l3.59,7.26,2,4.1a5.21,5.21,0,0,0,3.61,3.25c2.72.61,5.57.84,8.32,1.24l4.64.67c1,.15,1.81.45,1.91,1.69.08,1-.8,1.61-1.44,2.23l-3.58,3.49-3.75,3.65a10.42,10.42,0,0,0-2.26,2.61c-.65,1.31-.36,2.62-.13,4l.85,4.93.88,5.15a6.41,6.41,0,0,1,.19,2.81c.08-.33-.17.4-.22.33s.63-.62.5-.08c0,0-.2,0-.25-.06a7.18,7.18,0,0,0-1-.54l-4.33-2.28L101.67,149a15.38,15.38,0,0,0-3.07-1.45c-3.33-.86-6.84,1.77-9.65,3.25l-4.74,2.49-1.49.78c-.1.05-.57.25-.43.27-.54-.08-1-1.24-1-1.74a5.78,5.78,0,0,1,.16-1l.75-4.39c.47-2.72,1.07-5.46,1.41-8.21.38-3.1-3-5.31-4.93-7.22s-4-3.69-5.8-5.66a2.13,2.13,0,0,1-.64-1.09c-.09-.48.13-.79.17-1.22-.07.7.08-.33.17-.24s-.14.09-.15.07-.61.09-.07,0l3.85-.56c3-.44,6-.85,9-1.32a6.41,6.41,0,0,0,5-3.2c.55-1,1-2.09,1.55-3.12,1.4-2.84,2.77-5.7,4.2-8.52.08-.16.33-.62.33-.64-.14.52-.62-.43-.14.15a7.17,7.17,0,0,1,.83,1c1,1.74,5.6,0,4.44-2.06-1.56-2.81-5.59-2.81-8-1.22A7.47,7.47,0,0,0,91,107.38l-4.68,9.48c-.19.39-.37.79-.58,1.18a1.63,1.63,0,0,0-.09.19l-.11.2c-.16.14-.13.16.09,0,0-.21.45,0,.21,0a18.29,18.29,0,0,0-3.59.52c-3.17.46-6.34.89-9.51,1.38-2.36.37-4.77,1.65-5.31,4.18a4.33,4.33,0,0,0,1.53,4.1L76.5,136c.68.67,1.84,1.48,2.17,2.4s-.14,2.31-.3,3.22l-1.76,10.27c-.27,1.6-.21,3.14,1,4.35,1.83,1.78,4.66,1.68,6.82.59,2.91-1.47,5.77-3,8.65-4.55,1-.53,2-1.12,3.05-1.6-.24.11-.2-.07-.09,0l.25.13c.53.24,1,.55,1.57.82l9.28,4.88a7,7,0,0,0,5.21.9c2.63-.69,4.63-2.86,4.24-5.65-.42-3-1-6.08-1.56-9.11-.22-1.3-.5-2.6-.67-3.91-.14-1.07.39-1.57,1.07-2.23l7.64-7.45a9.66,9.66,0,0,0,2.3-2.68,4.25,4.25,0,0,0-2.9-5.84,25.59,25.59,0,0,0-3.27-.52l-5.59-.82-4.65-.67-.53-.08c-.34-.06.29.24-.15,0a2,2,0,0,1-.9-1c-1.56-3-3-6.08-4.5-9.11l-1.26-2.55a2.3,2.3,0,0,0-2.82-.89C98.16,105,96.33,106,96.84,107Z"/></g></g></svg>