<svg xmlns="http://www.w3.org/2000/svg" viewBox="0 0 199 199"><defs><style>.cls-1{fill:#e94e1b;}.cls-2,.cls-3{fill:#fff;}.cls-3{stroke:#fff;stroke-miterlimit:10;stroke-width:2px;}</style></defs><g id="Calque_2" data-name="Calque 2"><g id="Layer_1" data-name="Layer 1"><circle class="cls-1" cx="99.5" cy="99.5" r="99.5"/><path class="cls-2" d="M29.85,150.51H154.74c5.73,0,11.47,0,17.21,0h.24a2.77,2.77,0,0,0,2.53-1.14c.38-.79-.34-1.43-1.13-1.43H48.7c-5.74,0-11.48,0-17.21,0h-.24a2.75,2.75,0,0,0-2.53,1.13c-.39.79.34,1.44,1.13,1.44Z"/><path class="cls-2" d="M111.27,132.89a6.16,6.16,0,0,1-.88,3.11,4,4,0,0,1-.83,1l-.2.17-.21.15-.27.16c.37-.22-.12.05-.21.09s-.45.12,0,0c0,0-.52.15-.21.07s-.71.06-.23,0h-.5s-.32,0-.06,0l-.4-.07-.34-.09a5.16,5.16,0,0,1-2.41-1.76,5.82,5.82,0,0,1-.59-6,5.66,5.66,0,0,1,.41-.71l.19-.26s.32-.38.17-.22a7.68,7.68,0,0,1,.59-.55s.26-.17,0,0l.4-.25c-.38.22.08,0,.14,0s.33-.07-.06,0c0,0,.53-.13.21-.06s.2,0,.22,0c-.49.06.53,0,.24,0a4.06,4.06,0,0,1,.84.18,6.41,6.41,0,0,1,2.78,2.11,5.27,5.27,0,0,1,1.19,3c0,.85,1,1,1.67.86s2.19-.51,2.19-1.33a7.32,7.32,0,0,0-4.64-6.46,8.38,8.38,0,0,0-9.48,2.58,7.14,7.14,0,0,0-.54,8.07c1.69,2.85,5.15,3.74,8.24,3.06a7.93,7.93,0,0,0,6.42-7.25c0-.85-1-.95-1.67-.85S111.29,132.06,111.27,132.89Z"/><ellipse class="cls-2" cx="146.86" cy="130.41" rx="3.75" ry="3.9"/><path class="cls-2" d="M148.65,130a4.75,4.75,0,0,1-.14,1.07c0,.1-.24.58-.08.26a3.55,3.55,0,0,1-.3.54c-.08.13-.18.25-.27.37l0,0,0-.05s-.12.11-.15.14a3,3,0,0,1-.4.3c-.3.21,0,0,0,0a1.75,1.75,0,0,0-.28.13l-.24.09c-.19.11.44-.09.1,0l-.2,0c-.22,0-.37-.05.08,0a3.25,3.25,0,0,1-.54,0s.54.09.23,0l-.31-.06c.53.06.33.1.13,0a1.54,1.54,0,0,0-.19-.08l.26.14-.17-.1-.17-.11c-.05,0-.32-.23-.07,0s0,0,0-.05l-.14-.15-.14-.15q-.17-.19.06.09s-.45-.69-.45-.8l.06.15a2.28,2.28,0,0,1-.12-.4,3.43,3.43,0,0,1-.11-.64s0-.36,0-.15,0-.14,0-.15a4.51,4.51,0,0,1,.08-.53c0-.17.1-.34.15-.51s.11-.21,0,0c0-.1.09-.19.14-.28a3.12,3.12,0,0,1,.27-.43l.19-.24c.11-.14,0-.07-.05.05,0-.1.3-.27.38-.33l.17-.12.17-.11c-.22.12-.25.14-.1.06a2.63,2.63,0,0,0,.42-.17c.2-.11-.43.09-.09,0l.2,0c.16,0,.46,0-.08,0h.22a1.06,1.06,0,0,1,.31,0l-.32,0,.21,0,.2,0c-.35-.11-.42-.13-.22-.06l.19.08c.13,0,.21.17-.17-.1a2.2,2.2,0,0,0,.26.15,2.27,2.27,0,0,0,.25.18l-.16-.13.11.1.18.18.1.11-.06-.08s.27.43.3.47l.11.24c.15.3-.08-.3,0,0a5,5,0,0,1,.2,1.27c0,.37.48.79.75,1a2.8,2.8,0,0,0,1.48.43,2,2,0,0,0,1.29-.36,1.09,1.09,0,0,0,.4-1,5.49,5.49,0,0,0-3.71-4.86,5.92,5.92,0,0,0-6.67,1.58,5,5,0,0,0-.35,5.6,6.28,6.28,0,0,0,6.42,2.82,5.09,5.09,0,0,0,4.31-4.78,1.25,1.25,0,0,0-.39-1,2.64,2.64,0,0,0-1.31-.66,2.5,2.5,0,0,0-1.46.11C149.1,129.36,148.65,129.64,148.65,130Z"/><ellipse class="cls-2" cx="60.68" cy="131.32" rx="3.75" ry="3.9"/><path class="cls-2" d="M62.48,131a3.44,3.44,0,0,0,0,.54s.06-.29,0,0c0,.09,0,.18-.07.26a2.92,2.92,0,0,1-.19.49,1.51,1.51,0,0,1-.09.18c-.12.27.19-.23,0,.07-.06.08-.53.77-.63.72l.15-.12-.16.12-.17.12-.22.12-.13.07c-.16.08-.12.06.11,0-.08,0-.39.13-.49.15a1.17,1.17,0,0,0-.2.05c.31-.15.3-.05.09,0h-.26c-.31,0,.15,0,.18,0s-.23,0-.31,0l-.1,0,.21.06a.85.85,0,0,0-.24-.08c-.17-.06-.3-.21.16.08-.14-.09-.29-.16-.44-.25s-.06-.16.16.12c0-.06-.13-.11-.19-.17a1,1,0,0,0-.18-.17c.19.22.23.26.1.11l-.06-.07c-.1-.14-.19-.28-.28-.43s.08.27,0,.06-.08-.16-.11-.24-.11-.33-.16-.5,0,.06,0,.07,0-.29,0-.38a4,4,0,0,1,0-.49,1.19,1.19,0,0,1,0-.33s-.07.33,0,.06a4.1,4.1,0,0,1,.14-.5c.05-.13.15-.5.26-.57s-.2.3,0,.07l.15-.21a3.09,3.09,0,0,1,.33-.39s.17-.18.19-.17-.27.19-.07.06a3.36,3.36,0,0,1,.51-.32l.18-.09-.21.08.19-.07a3.66,3.66,0,0,0,.5-.12s-.43,0-.14,0h.26c.18,0,.34.08-.12,0l.31,0c.24.05.3.19-.12,0a2.47,2.47,0,0,0,.29.1c.31.1-.21-.11-.21-.11a1.34,1.34,0,0,1,.31.17l.21.14c-.44-.24-.23-.17-.09,0a2.13,2.13,0,0,0,.22.21c-.13,0-.25-.32,0,0s.2.32.31.47-.16-.38,0-.06l.12.29c0,.1.07.2.09.3l0,.11c0,.16,0,.13,0-.08-.06.11,0,.53,0,.66,0,.95,1.13,1.66,2,1.76s1.92-.17,1.91-1.17a5.89,5.89,0,0,0-3.9-5.28,5.63,5.63,0,0,0-6.33,1.45,5.22,5.22,0,0,0-.33,6,6.25,6.25,0,0,0,6.49,2.77,5.09,5.09,0,0,0,4.07-5c0-1-1.16-1.67-2-1.76S62.49,130,62.48,131Z"/><path class="cls-2" d="M160.29,131.48c-.06,5.7-3.27,11.86-8.83,13.93-5.3,2-11.33-1.09-14.57-5.39a16.52,16.52,0,0,1-1.11-17.7c2.74-4.87,7.87-7.73,13.39-6.2,6.81,1.9,11.05,8.48,11.12,15.36,0,1.18,4.84.36,4.83-1.29a17,17,0,0,0-11.58-16,19.85,19.85,0,0,0-20.73,6.17,17.52,17.52,0,0,0-1.34,20.17c4.1,6.51,11.77,9,19.12,7.32a18.33,18.33,0,0,0,14.53-17.61C165.13,129,160.31,129.82,160.29,131.48Z"/><path class="cls-2" d="M73.87,131.84c-.06,5.78-3.08,11.88-8.73,14-5.29,2-11.27-.76-14.59-5.07a16.26,16.26,0,0,1-1.26-17.53c2.79-4.91,7.84-7.73,13.45-6.34,6.84,1.69,11.06,8.47,11.13,15.25,0,1.45,4.84.55,4.82-1.3a17.15,17.15,0,0,0-11.6-16.13,19.5,19.5,0,0,0-20.62,6A17.72,17.72,0,0,0,45,141.05c3.94,6.52,11.63,9.25,18.93,7.7a18.42,18.42,0,0,0,14.8-17.53C78.71,129.27,73.88,130.29,73.87,131.84Z"/><path class="cls-2" d="M107.31,132.72H41.41a.88.88,0,0,1-.86-.89h0a.88.88,0,0,1,.86-.89h63.81L97,103.56l2.33.5Z"/><path class="cls-2" d="M107.71,132.27H50.5c-2.82,0-5.65.08-8.46,0a.74.74,0,0,1-.21,0h0c.2.06,0-.1-.06-.11a1.36,1.36,0,0,1-.21-.35c0-.15,0-.32,0-.44l.07-.15-.63.17h0c.06.06.46,0,.54,0h63.27c.25,0,1.51-.24,1.37-.71l-2.78-9.23L99,106.68l-1-3.38-1.75.67,2.32.5-.18-.15,2.71,9.72,4.29,15.37,1,3.57c.15.53,2.08,0,1.93-.52l-2.71-9.72-4.28-15.37-1-3.57a.23.23,0,0,0-.18-.15l-2.32-.5c-.31-.06-1.93.08-1.75.67l2.77,9.23,4.44,14.77,1,3.38,1.37-.71H43.27c-1.06,0-2.27-.14-3.16.58a1.14,1.14,0,0,0,.53,2.08,2.4,2.4,0,0,0,.46,0c.29,0,.57,0,.85,0h65a1.75,1.75,0,0,0,1.28-.48C108.43,132.33,108,132.27,107.71,132.27Z"/><path class="cls-2" d="M85,131H35.29c-1.61,0-3,.45-3.1-1.72-.19-6.48,0-13,0-19.47V97.13c0-2.32-.14-4.69,0-7a1.21,1.21,0,0,1,0-.19v0c0-.14.08-.3.1-.45.11-.86,1,.41-1-.06a1,1,0,0,0,.3,0c.71.05,1.44,0,2.14,0H82.38c.61,0,.89-.08,1.23.28A3,3,0,0,1,84.16,92v37.38c0,.29,0,.58,0,.86a1.21,1.21,0,0,0,0,.19c-.13,1.07-.81.7.87.54-.76.07-2.11.26-2.58,1s.4.79.94.75c2.14-.2,4.58-1.07,4.63-3.52,0-.9,0-1.8,0-2.71v-35c0-.5,0-1,0-1.52-.14-1.83-1.84-2.21-3.36-2.21H51.72c-6.15,0-12.32-.12-18.46,0-1.74,0-4.27.66-4.84,2.55a7.5,7.5,0,0,0-.09,2v35c0,1,0,1.92,0,2.89,0,1.77,1.3,2.55,3,2.58s3.19,0,4.78,0H83.39a3.63,3.63,0,0,0,2.58-1C86.45,131,85.56,131,85,131Z"/><path class="cls-3" d="M115.64,117c8.06-6.51,13.93-17.66,14-17.81a.83.83,0,0,1,1.16-.36.9.9,0,0,1,.34,1.2c-.36.7-6.71,12.74-15.56,19.25"/><path class="cls-3" d="M106.26,131.15a.9.9,0,0,1,0-1.79c13.07,0,25.06-22.72,25.18-23a.84.84,0,0,1,1.16-.36.91.91,0,0,1,.34,1.21C132.44,108.23,120.35,131.15,106.26,131.15Z"/><path class="cls-3" d="M120.33,94a7.2,7.2,0,0,1-.72,0,.66.66,0,0,1-.55-.75.64.64,0,0,1,.71-.58c.2,0,4.77.55,8.87-4.13a.62.62,0,0,1,.9,0,.68.68,0,0,1,.05.94A12.42,12.42,0,0,1,120.33,94Z"/><path class="cls-3" d="M147.13,130.4a.81.81,0,0,1-.58-.23c-.18-.18-18.3-17.75-18.3-42a.86.86,0,1,1,1.72,0c0,23.47,17.56,40.53,17.74,40.7a.9.9,0,0,1,0,1.25A.81.81,0,0,1,147.13,130.4Z"/><path class="cls-3" d="M119.8,92.44a.86.86,0,0,0-1,.77.88.88,0,0,0,.74,1s.31,0,.75,0a11.59,11.59,0,0,0,4.59-1,.54.54,0,0,0,.27-.64l-.24-.72a.49.49,0,0,0-.67-.3A9,9,0,0,1,119.8,92.44Z"/><path class="cls-2" d="M113,123a2.19,2.19,0,0,1-.22,1c-.12.18.28,0-.23.12a2.79,2.79,0,0,1-1.46-.18c-1.31-.6-1.18-2.46-1.12-3.65s.23-2.45.34-3.66l.9-9.67a1.12,1.12,0,0,0-.84-1.16L101.82,103c-1-.32-1.93-.65-2.9-1a4.42,4.42,0,0,1-2.52-1.41,6.68,6.68,0,0,1-.81-3.71c0-3.68.49-7.44.76-11.11.14-1.86.2-3.76.48-5.6a3.79,3.79,0,0,1,1.55-2.77,3.57,3.57,0,0,1,2.78,0c2.09.55,4.17,1.13,6.25,1.68,3.81,1,7.63,2,11.4,3.14,1.55.47,3.12.87,2.53,2.84-.11.34-.33.62-.45,1a2.75,2.75,0,0,1-.19.28c-.35.4,0,.3,1.12-.31,0,0-1-.23-.9-.2l-1.91-.5c-4.23-1.12-8.46-2.23-12.69-3.37-1-.27-3,.1-3.07,1.45q-.47,6.45-.92,12.88a1.12,1.12,0,0,0,.84,1.15l6.48,1.73c1.67.45,4.32.64,5.31,2.3.75,1.26.38,2.78.21,4.14L113.5,119l-.5,4c-.24,2,3.7,1.45,3.91-.3l1.36-10.95.83-6.71c.22-1.72.46-3.38-.39-5-1-2-3.14-2.58-5.16-3.14-2.71-.74-5.43-1.45-8.15-2.18l.84,1.15L107.17,83l-3.08,1.45c4.39,1.18,8.78,2.33,13.17,3.49,1.75.46,3.68,1.26,5.44.4a5.57,5.57,0,0,0,2.63-4c.8-4.38-5-5.08-8-5.9-4.63-1.27-9.28-2.5-13.92-3.75-3.32-.89-7.07-.51-9.21,2.51a9.65,9.65,0,0,0-1.43,5c-.21,2.3-.37,4.61-.54,6.91s-.36,4.48-.49,6.72a12.83,12.83,0,0,0,.49,5.12c.81,2.21,2.72,3,4.82,3.71,3.71,1.21,7.41,2.46,11.11,3.68l-.84-1.15-.85,9.1c-.31,3.36-1.61,8.74,2.49,10.22,3.19,1.15,7.58,0,8-3.84C117.12,120.74,113.18,121.26,113,123Z"/><path class="cls-2" d="M100,74.38a8.78,8.78,0,0,0,9.37-3.19,7.69,7.69,0,0,0-.13-8.66c-4.14-5.77-14.5-2.25-14.93,4.6-.23,3.62,2.34,6.32,5.69,7.25a2.89,2.89,0,0,0,2.73-.74,1,1,0,0,0-.45-1.67,5.7,5.7,0,0,1-2.73-1.55,4.7,4.7,0,0,1-1.29-2.6,5.31,5.31,0,0,1,.37-2.93,4.78,4.78,0,0,1,2-2.2c.24-.18-.4.18.06,0l.45-.2c.08-.05.37-.14,0,0l.47-.14.31-.08c-.49.12,0,0,.12,0s.27,0,.4,0,.11,0-.09,0h.32l.26,0c-.23,0,.28.06.26.06a3,3,0,0,1,.4.12s.36.14.16,0a5.12,5.12,0,0,1,1.3.84,6.05,6.05,0,0,1,1.44,6.32,5.58,5.58,0,0,1-.34.72c0,.09-.1.18-.16.27l-.18.27c.08-.12.07-.1,0,0l-.21.23s-.52.46-.22.23l-.25.18c-.08.06-.65.36-.23.16l-.28.14-.28.12q.39-.14.06,0l-.31.08c-.38.11.35,0-.18,0a3.74,3.74,0,0,1-1.48-.11,2.91,2.91,0,0,0-2.73.73A1,1,0,0,0,100,74.38Z"/></g></g></svg>