<svg xmlns="http://www.w3.org/2000/svg" viewBox="0 0 199 199"><defs><style>.cls-1{fill:#e94e1b;}.cls-2{fill:#fff;}</style></defs><g id="Calque_2" data-name="Calque 2"><g id="Layer_1" data-name="Layer 1"><circle class="cls-1" cx="99.5" cy="99.5" r="99.5"/><path class="cls-2" d="M78.73,145.93l-1.14.47,3.34.24q-4.5-11.1-9-22.2l-2.1-5.17-1.48,1.54,1.13-.47c.43-.17,1.77-.83,1.49-1.53l-.57-1.41c-.45-1.11-2.6-.54-3.34-.24L53.67,122.6l3.33.56c2.42-7.62-2.32-17.85-10.51-19.55A11.26,11.26,0,0,0,36,107.08c-2.49,2.88-2.91,7.11-2.19,10.71a16.33,16.33,0,0,0,8,11.22l1-2-.89.36c-.42.18-1.77.84-1.49,1.54l.58,1.41c.45,1.11,2.6.54,3.34.24l1.13-.46-3.34-.25,7.51,18.48,1.87,4.62c.22.53,1,.66,1.46.63h0l-1.46-.63,1.74,4.27,1.49-1.53-1.14.46c-.42.17-1.77.84-1.49,1.54l.58,1.4c.45,1.11,2.6.54,3.34.24L78,150.39l3.13-1.27c.43-.17,1.77-.84,1.49-1.54l-.57-1.41c-.63-1.55-5.39-.08-4.83,1.3l.57,1.41,1.49-1.54-22,8.93-3.13,1.28,3.34.24L57,156.38l-1.49,1.54,1.14-.47c.43-.17,1.77-.83,1.49-1.53l-1.74-4.28c-.21-.53-.94-.66-1.45-.62h0l1.45.63L48.4,132,47,128.55c-.45-1.11-2.6-.54-3.34-.24l-1.14.46,3.35.24-.58-1.4-1.49,1.53.9-.36c.69-.28,2.28-1.32,1-2-5.82-3.1-9.07-11.51-6.51-17.66a6.08,6.08,0,0,1,2.19-2.85A2.92,2.92,0,0,1,42,106c-.26.09-.17,0,.07,0a4.57,4.57,0,0,1,1.38.11c2.8.61,5.13,2.87,6.66,5.19a15.08,15.08,0,0,1,2,12.54c-.47,1.48,2.85.75,3.33.56l13.37-5.44-3.34-.25.57,1.41,1.49-1.53-1.14.46c-.42.17-1.77.84-1.49,1.53q4.47,11,8.93,22l2.19,5.38c.45,1.12,2.6.54,3.34.24l1.14-.46c.61-.25,2-1,1.32-1.8S79.41,145.66,78.73,145.93Z"/><path class="cls-2" d="M85.21,87.7l-3.07-5.46c-.54-1-1.07-1.94-1.63-2.9a3.52,3.52,0,0,0-4.18-1.48l1.56,3.29,0,0c.9-.51,1.82-1.57,1.11-2.62s-2.3-.83-3.3-.43l-.1,0,3.13,2.31a2.81,2.81,0,0,0,.74-2.75c-.34-1.43-2.51-1.45-3.51-.88h0l3.52.88a19,19,0,0,0-1.63-3c-.68-1.22-1.18-2.52-2.64-3L75,74.93h0c.75-.42,1.58-1.21,1.32-2.17s-1.36-1.23-2.23-1.23a3.89,3.89,0,0,0-1.36.24l2.67.66v0l-.58,2.28a3.11,3.11,0,0,0,1.37-2.47c0-1.76-2.28-2.1-3.55-1.37h0l3.52.88a25.22,25.22,0,0,0-2.12-4,9.43,9.43,0,0,0-.79-1.34C72,65,70.09,65.2,68.59,65.8l3.3.44c-2.22-4.17-4.5-8.41-7-12.42l-.58,2.28a2.88,2.88,0,0,0,1-3.83c-.35-.66-.74-1.31-1.11-2s-.76-1.45-1.2-2.12c-.92-1.41-2.49-1.57-4-1.27l1.57,3.29.06,0c.85-.48,1.69-1.37,1.21-2.4A2.34,2.34,0,0,0,59,46.87l-.18.07,2.1,3a3,3,0,0,0,1.19-3.16c-.48-1.37-2.4-1.5-3.51-.88h0l3.51.88a26,26,0,0,0-1.62-3,9.89,9.89,0,0,0-2.06-2.93A11.5,11.5,0,0,0,55,39.12l-4-1.53c-1.31-.52-2.62-1.05-3.91-1.62s-2.86-1.57-4.39-.69l3.3.44-1.12-2-1.1,2.62c1.3-.74,2.7-1.79,1.85-3.42-.39-.76-.84-1.5-1.26-2.25a4.62,4.62,0,0,0-1.92-2.26,4.59,4.59,0,0,0-4.17.25c-1.68.88-3.31,1.86-4.95,2.79A4.73,4.73,0,0,0,31,33.64c-.52,1.24,0,2.26.59,3.31a29.43,29.43,0,0,0,1.51,2.69c1.15,1.58,3.18,1,4.59.15l-3.3-.43,1.12,2,.16-1.88c-.74.74-.6,2.6-.73,3.6-.2,1.37-.43,2.74-.66,4.11s-.5,2.74-.74,4.11A8.4,8.4,0,0,0,33.4,55a12.22,12.22,0,0,0,1.38,2.78,26.23,26.23,0,0,0,1.5,2.63l1.1-2.62h0c-.8.45-1.94,1.65-1.1,2.62a3.71,3.71,0,0,0,4,1l-2.1-3L38,58.6c-2.29,1.83.74,3.84,2.73,2.72l.06,0L37.69,59c-1.72,1.9,0,3.93,1,5.7.33.59.63,1.24,1,1.8,1.13,1.63,3.16,1.51,4.8.86l-3.3-.43c2.3,4.15,4.65,8.27,7,12.4.75,1.35,2.89.71,3.83.11h0l-3.83-.11v0L48.71,77a2.86,2.86,0,0,0-1.1,3.56c.22.45.49.88.73,1.32a22.84,22.84,0,0,0,2,3.46l1.11-2.62h0c-.95.52-2.15,2.11-.75,3a4,4,0,0,0,3.56.43l-2.68-.67,0,0,.58-2.29A5,5,0,0,0,51,84.63a1.45,1.45,0,0,0,.72,1.9,3,3,0,0,0,2.71,0h0L50.9,85.11c-.32,1.27.67,2.53,1.27,3.59a16.48,16.48,0,0,0,1.51,2.65l1.11-2.62h0c-1.21.68-1.85,1.88-.75,3a3.81,3.81,0,0,0,3.64.68l-2.1-3-.09.06a1.64,1.64,0,0,0-.4,2.47,2.78,2.78,0,0,0,3.12.26l0,0-3.14-2.31c-1.38,1.52-.62,2.88.2,4.33l2.35,4.18c.62,1.1,1.19,2.24,1.86,3.31a5.21,5.21,0,0,0,6.14,2c2-.66,4-2.09,5.8-3.12l8.8-5c.9-.5,1.81-1,2.7-1.52,2.43-1.41,3.55-3.78,2.28-6.4-.53-1.09-2.45-.86-3.3-.44a1.91,1.91,0,0,0-1.11,2.62c.23.47,0,.67,0,1.1,0,.15-.15.21.09,0a2.91,2.91,0,0,1-.45.26L78,92.57l-7.57,4.26c-1.89,1.06-3.9,2-5.71,3.21a2.88,2.88,0,0,0-.38.22c-.06,0,.38.14.24,0a2.4,2.4,0,0,1-.67-.64c-.41-.65-.75-1.35-1.13-2l-2.44-4.34-.93-1.65a5.29,5.29,0,0,0-.29-.52c-.36-.45.34,0,0,.36A1.51,1.51,0,0,0,59,89.25,2.91,2.91,0,0,0,56,89.17h0l2.72,2.72.09-.06a1.72,1.72,0,0,0,.58-2.29,2.57,2.57,0,0,0-2.68-.67l-.37.08,1.28-.08c-.21,0,.6.44.1-.06l-.75,3h0c.81-.46,1.93-1.64,1.11-2.62a14,14,0,0,1-1.28-2.23l-.87-1.54a4.31,4.31,0,0,1-.26-.47c-.11-.3-.07.64.13-.13.46-1.84-2.6-1.91-3.55-1.37h0l3.42,1.86c.09-.14,0,0-.22.32A1.76,1.76,0,0,0,56,83.32l0,0c-.41-.8-1.94-1-2.67-.67-1,.35.75,0,1.07.19l-.75,3h0c.81-.45,1.92-1.63,1.1-2.62a15.14,15.14,0,0,1-1.44-2.42l-.87-1.55a2,2,0,0,0-.27-.47l-.06-.1c.21.24.15.5-.16.78a1.71,1.71,0,0,0,.57-2.28v0c-.75-1.34-2.89-.71-3.83-.1h0l3.83.1c-2.32-4.13-4.67-8.26-7-12.41-.62-1.11-2.4-.79-3.3-.43l-.28.11L43.27,64c1.85-.2.78.56.73.14,0-.14-.2-.35-.26-.47l-.87-1.55L42,60.61a2,2,0,0,0-.26-.47c-.27-.21.2.22,0,.4a1.51,1.51,0,0,0-.2-2.23,2.89,2.89,0,0,0-2.94-.08l-.07,0L41.29,61l.15-.12c2-1.57-.11-3.61-2.1-3-.11,0-.21.07-.32.09l1.28-.08c-.64-.05.19.1.37.32l-1.1,2.62h0c.87-.49,1.86-1.59,1.1-2.62a21.07,21.07,0,0,1-1.32-2.32,15.82,15.82,0,0,1-1.11-2,5.52,5.52,0,0,1,.13-2.73c.2-1.13.41-2.26.61-3.38.46-2.57.89-5.14,1.15-7.73l-.41.94h0a1.54,1.54,0,0,0,.17-1.88l-1.12-2c-.58-1-2.46-.91-3.3-.43l-.83.46,1.28-.34-.23,0,1.66.42c.24.19.14.2,0-.05s-.24-.43-.36-.64l-1-1.76a2.38,2.38,0,0,0-.34-.6c-.29-.26.11,0,0,0,.09,0-1,.61-.53.49a2,2,0,0,0,.47-.27l3.12-1.75a12.15,12.15,0,0,1,2-1.08l-1.28.09c-.2,0,0-.05.06.26a7,7,0,0,0,.67,1.19l.69,1.24c.09.15.19.3.26.45.14.33,0,.25,0,.05l.37-1.43-.14.18.94-.74-.64.36c-1,.55-1.73,1.51-1.1,2.62l1.11,2c.58,1,2.46.92,3.3.44h0l-2.47.18c2.26,1.07,4.58,2,6.91,2.92l3.09,1.18A5.25,5.25,0,0,1,55,44.08a19.94,19.94,0,0,1,1.05,1.85l.9,1.62c.11.18.6,1.23.29.48.56,1.33,2.34,1.53,3.52.88h0L57.29,48c.1.27,0-.05.07-.14s.47-.51.32-.38c-1.86,1.59,0,3.7,2.1,3l.18-.07-1.57-3.28-.07,0c-.84.48-1.69,1.37-1.21,2.4s1.81,1.08,2.78.89l.3-.06-1.29.09c-.95-.08-.31-.37-.32-.1s.21.38.26.47l.87,1.55.87,1.54a1.78,1.78,0,0,0,.26.47l.06.11c-.2-.24-.15-.51.17-.79A1.73,1.73,0,0,0,60.49,56c2.49,4,4.77,8.25,7,12.42.6,1.12,2.42.79,3.3.44l.27-.11-1.28.34c-1.86.22-.79-.55-.74-.13a1.85,1.85,0,0,0,.27.47l.81,1.44.83,1.49a5.79,5.79,0,0,1,.31.54c0,.07.09.32,0,.12.46,1.37,2.41,1.51,3.51.88h0l-3.55-1.37c0,.61.05,0,.29-.22A1.72,1.72,0,0,0,71,74.59l0,0c.45.79,1.9.94,2.67.67s0,0,0,0l-.91-3.39h0c-1.18.66-2.16,2.65-.27,3.23-.09,0,.18.34.28.51l.81,1.44.84,1.49c.12.22.5,1.18.25.42.46,1.37,2.41,1.5,3.51.88h0L74.69,79c.11.44,0-.1,0-.11a1.5,1.5,0,0,0,.2,2.23,3,3,0,0,0,2.94.08l.1,0-2.19-3.05,0,0c-.84.48-1.69,1.37-1.21,2.4s1.82,1.13,2.78.89l-.1,0L76,81.25c-.2,0-.11-.15.06.18s.38.67.57,1l1.65,3,2.53,4.49C81.93,91.89,86.5,90,85.21,87.7Z"/><path class="cls-2" d="M105.67,76.34l-.15-.18L103.11,79c1.85-.18,4.12-.65,4.31-2.89,0-.58,0-1.18,0-1.76l.12-8.24L107.9,45l.08-5.17-2.66,2h0c1.32-.14,2.77-1,2.63-2.45-.12-1.19,0-2.64-1.31-3.17a4.29,4.29,0,0,0-2-.14l-5.79.57L84.53,38a6.47,6.47,0,0,0-2.25.47c-1.9,1-1.43,2.63-1.27,4.34.09.89,1.51,1.24,2.21,1.15h0L81,42.85,88,75.8c.17.79.31,1.59.5,2.37.5,2,2.32,2.06,4,1.89L90.44,78a4.57,4.57,0,0,0-.08,2.57c.09.92.1,1.9.28,2.81.38,2,2.64,1.6,4.15,1.45l6.11-.6c1.73-.17,4.48,0,5.29-1.93a6.77,6.77,0,0,0-.06-2.9l-.25-2.61c-.12-1.19-2-1.25-2.87-1a2.29,2.29,0,0,0-2,2.33l.43,4.48.11-.93-.06.17,1.24-1.16-.16.08,1.28-.34-10.35,1,1.18.15-.17-.06.82.58c.28.52.07-.2,0-.43l-.15-1.55-.22-2.24-.1.94.12-.21c.77-1.37-1.06-2.19-2.11-2.09l-.48.05c-.51.08-.52-.21.17.08l.82.58c-.19-.2-.21-.66-.27-1l-.53-2.51-1.8-8.49L86.79,46l-1-4.47c-.19-.88-1.43-1.25-2.21-1.15h0l2.21,1.15-.2-2-.1.93,0-.17-1.23,1.16.16-.08-1.29.34,18.93-1.84,2.71-.27-1.18-.15.17.06-.82-.58c-.24-.46-.07-.15-.09,0a3,3,0,0,0,.07.73l.1,1,2.62-2.45h0c-1,.11-2.63.76-2.65,2l-.49,32,0,3.22a3,3,0,0,1-.06,1.2l.7-.83-.21.14,1.16-.56c.69-.17-.38,0-.61.06-1.09.1-3.63,1.41-2.41,2.87l.14.17C102.68,80.19,107.27,78.25,105.67,76.34Z"/><path class="cls-2" d="M145.37,61.78c-2.19-1.44-5.26-.87-7.27.66-.7.54-2.76,2.7-1.95,3.67l.06-.76L122.32,77.52l-3.42,3-1,.83a2.73,2.73,0,0,0-.25.23l-.07,0c.53-.58,2.55-.08,1.87-.73-.84-.79-2.41-1.73-2.78-2.92-.22-.71.44-.92,1-1.39l2.36-2.07,6.71-5.88L133,63.19l1.77-1.55c.16-.14.83-.72.12-.11l-4.29.46h0c.78,1.35,3.83-.06,4.62-.75L156.08,43l3-2.64-4.17,1.11a27.92,27.92,0,0,1,2.73.86c-.9-.38,0-.07-.13,0s0-.07,0,0a2,2,0,0,1,.15.29,4.4,4.4,0,0,1,.16.88,2.89,2.89,0,0,1-.16,1.15,10.85,10.85,0,0,1-.73,1.89A28.26,28.26,0,0,1,153,52.12c-1.34,1.59-2.76,3.1-4.22,4.57q-1.42,1.44-2.91,2.82l-1.65,1.54-.7.63c-.22.2-1.28.85-.34.49l1.88-.41.3,0a4,4,0,0,0-3.14.17C142,62,140,63,140.84,63.5c2.92,1.63,5.76-.8,7.8-2.66s3.79-3.54,5.59-5.41a49.86,49.86,0,0,0,6.47-8c1-1.63,2.78-4.58,1.61-6.56-.52-.88-1.63-.94-2.53-1.22a5.19,5.19,0,0,0-5.13.86c-.34.28-.66.58-1,.87L141.63,52,130.8,61.46l4.62-.75h0c-.66-1.14-3.54-.18-4.29.47-2.74,2.35-5.43,4.75-8.14,7.12l-7,6.16-2.33,2c-.58.5-1.62,1.11-1.84,1.89-.34,1.19,1.29,2.5,2,3.24,2.21,2.36,6,1.79,8.3-.23l2.2-1.93,9.35-8.2,7-6.12a.5.5,0,0,0,.05-.76l0,0,.13.47a3.75,3.75,0,0,1,.58-1.4c.14-.21.6-.54.64-.75s-1.77.79-1.81.48l.65.35c.85.57,2.27.17,3.14-.16C144.28,63.22,146.17,62.3,145.37,61.78Z"/><path class="cls-2" d="M162,146.69,134,154a27.78,27.78,0,0,0-5.2,1.71c-1.23.6-2.36,1.38-3.55,2.05A6.84,6.84,0,0,1,121.7,159a14.45,14.45,0,0,1-7-2,12.65,12.65,0,0,0-7.46-1.22,26.38,26.38,0,0,0-6.63,2.09l-14.61,6c-.26.11-1.13.5-1,.93l.34,1.48c.17.71,2.31.14,2.61.06l16.16-3.94-2.61-.06.54,2L104.2,163l-16,4.34c-.38.11-2.42.67-2.22,1.36l.44,1.51c.2.71,2.27.14,2.6.06l16.09-4-2.6-.06.56,2.13,2.23-1.35-16.1,4.43c-.35.09-2.46.69-2.23,1.35l.51,1.43c.25.7,2.23.15,2.6.06l16.09-4-2.6-.06.54,2,2.22-1.35-16.14,4.55c-.35.1-2.45.68-2.22,1.35l.5,1.5c.18.55,1.61.26,2,.2l16.48-2.64c3.31-.53,6.62-1.39,9.17-3.73,2-1.88,3.12-4.51,5.24-6.34a9.52,9.52,0,0,1,2.41-1.57,5.51,5.51,0,0,1,1.71-.43,38.89,38.89,0,0,1,4.2,0,17.11,17.11,0,0,0,4.31-.71l6.55-1.76,20.2-5.41,3-.81a1.89,1.89,0,0,0,.52-.13h0c-.78.19-.75.18.08,0a8.35,8.35,0,0,0,1.3-.46,7.72,7.72,0,0,0,1.31-.74c1.27-.88,4.12-3.14,3.24-5-.49-1-1.84-1.56-2.84-1.89a8.88,8.88,0,0,0-4.63-.22c-.69.15-2.6.47-2.84,1.29s1.63.48,1.92.42a5.19,5.19,0,0,1,2.59.83c.82.5,1.34,1.09.95,2.06a6.09,6.09,0,0,1-1.73,2.14,4.52,4.52,0,0,0-.78.58c0-.15,3-.89,1-.4-1.5.37-3,.79-4.47,1.19l-19.46,5.21-6.27,1.68-.56.15c-.16,0-.32.07-.48.12l.12,0c-.45.08-.33.08.37,0h-.87a33.52,33.52,0,0,0-4.91.12,18.36,18.36,0,0,0-12.61,6.66c-1.43,1.82-2.45,4.24-4.77,5.14-.16.06-.68.3-.83.23s.87-.14.44-.1-.63.1-1,.15l-17.24,2.77,2,.2-.5-1.49-2.23,1.35,16.14-4.55c.39-.11,2.42-.65,2.23-1.35l-.54-2c-.19-.71-2.28-.14-2.61-.06l-16.08,4,2.6.06-.51-1.42-2.22,1.35,16.1-4.43c.39-.11,2.41-.65,2.22-1.35l-.56-2.13c-.19-.71-2.29-.14-2.61-.06l-16.09,4,2.61.06-.44-1.52-2.23,1.36,16-4.34c.4-.11,2.42-.66,2.23-1.36l-.54-2c-.19-.7-2.28-.13-2.6-.06l-16.16,3.95,2.6.06-.34-1.48-1,.93,12.74-5.27,3.19-1.31.87-.36c1-.44-1.43.41-.61.22,2.18-.51,4.09.33,6,1.3a16.54,16.54,0,0,0,7.11,1.84,22.11,22.11,0,0,0,11.89-3.59c.5-.3,1-.61,1.48-.9.33-.19,0,0,0,0l.57-.27a3.89,3.89,0,0,0,.62-.28s-1.06.27-.79.27a6.28,6.28,0,0,0,1.53-.4l15.79-4.14,13.29-3.48c.42-.11,2.41-.64,2.22-1.35S162.34,146.6,162,146.69Z"/><path class="cls-2" d="M102,140.72a7,7,0,0,0,.83-2.32c0-1.06-1.24-1.34-2-1.67l-1.43-.58c-.21-.09-.81-.2-.95-.39.12.16,0-.56,0-.65a4,4,0,0,1,.29-1.22l.22-.55c1.37-3.39,2.76-6.78,4.14-10.17l1.52-3.71-3,1.07a9.31,9.31,0,0,0,8.73-1.22,12.73,12.73,0,0,0,4.13-5.65q1.78-4.36,3.56-8.74a1,1,0,0,0-.7-1.42l-2.88-1,.7,1.42,1.5-3.45c.35-.8-.31-1.49-1.15-1.5L112.32,99l1.26,1.16.24-6.54c0-.58-.31-.86-.82-1.07l-7.42-3c-1.46-.6-3-1.12-4.33.19a5.26,5.26,0,0,0-1,1.95C98.16,96.73,96,101.81,94,106.92c-1.86,4.71-1.57,10.5,3.59,12.8l-.7-1.42L93.74,126l-1.95,4.79c-.29.72-1.23,2.37-1.14,3.09l1.46-.67h0a1.27,1.27,0,0,0-.32-.13,9.53,9.53,0,0,0-.93-.38c-.83-.34-1.67-.75-2.53-1-2.27-.75-3.64,1-4.21,2.92-.45,1.56,1.19,1.92,2.31,2.38l4.79,1.95,5.62,2.29c1.69.69,3.28,1.43,4.86-.18a1,1,0,0,0-.47-1.75,2.8,2.8,0,0,0-2.73.73l-.16.16,1.8-.82c1,0,.71.09.14-.14l-1.51-.62-4.72-1.92-4.63-1.88-1.54-.63c-.15-.06-.3-.14-.45-.19-.33-.1-.13-.24.31.19l.17.66c0,.08-.17.1,0-.15a4.42,4.42,0,0,0,.24-.6,6.5,6.5,0,0,0,.25-.61c0-.14.23-.3,0-.1l-1.79.82c-.82,0-.76-.11-.09.17l1.48.6a12.31,12.31,0,0,0,2.33.86,3.6,3.6,0,0,0,4-1.68c.26-.55.37-1.18.59-1.75,1.36-3.39,2.76-6.76,4.14-10.14l1.47-3.61c.29-.71-.07-1.13-.71-1.41-4.6-2.06-3-8-1.51-11.6L103.1,94l1-2.41c.09-.23.2-.46.28-.69s.22-.3.08-.16l-1.8.82c-.92,0-.72-.14-.29.06s.64.26,1,.39l3.05,1.24L110.74,95l-.82-1.07-.24,6.54a1.2,1.2,0,0,0,1.26,1.16l3.15,0L113,100.16l-1.5,3.45a1,1,0,0,0,.71,1.41l2.88,1-.71-1.42-3.16,7.75c-1.3,3.18-3.24,7.26-7.33,5.72a2.65,2.65,0,0,0-3,1.07l-3.38,8.28-2,4.77c-.57,1.4-1.45,3-.94,4.53.38,1.16,1.43,1.53,2.44,1.94l1.64.67c.19.08.39.17.59.24.39.14.2.26-.21-.15l-.18-.65c0-.1.16-.09,0,.15a4,4,0,0,0-.24.6l-.36.87C97.48,142.35,101.36,142.21,102,140.72Z"/><path class="cls-2" d="M122.87,119.24q5.55-13,11.1-26a11.44,11.44,0,0,0,1.17-4.3c0-2.47-1.55-3.91-3.7-4.82l-2.82,3.12L160.24,100c.65.26,1.34.49,2,.79,1.92.93,1.76,3.27,1.11,5a1.28,1.28,0,0,0,.88,1.79h0l-.88-1.78L152.55,131c-.24.56-.48,1.13-.73,1.69,0,.11-.09.22-.14.33a4.85,4.85,0,0,1-.31.65,3,3,0,0,0-.27.38c-.27.68-.42-.19.1.06-.75-.37-2-.84-3-1.22l-15.48-6.23-7.3-2.94c-.46-.18-.94-.33-1.38-.55a3.06,3.06,0,0,1-1.17-4c1-2.5-3.85-2.33-4.59-.45a5.75,5.75,0,0,0,.53,5.89,6.76,6.76,0,0,0,2.75,1.77c1.74.72,3.49,1.41,5.23,2.11l17,6.83c1.36.55,2.72,1.15,4.1,1.66a6.65,6.65,0,0,0,8.5-3.82c1.94-4.49,3.84-9,5.75-13.49l5.79-13.55a1.27,1.27,0,0,0-.89-1.78h0l.88,1.79c1-2.68,1.23-5.84-1.31-7.74a9.42,9.42,0,0,0-2.23-1.09l-7-2.82L136.62,86.2l-5.18-2.09c-1.91-.77-5.62,1.94-2.82,3.12,2.5,1,1.52,3.75.69,5.71L127,98.32l-7,16.3-1.78,4.17C117.23,121.25,122.08,121.1,122.87,119.24Z"/><path class="cls-2" d="M160.11,134.54l-26-10.46-3.69-1.49a1.14,1.14,0,0,0-.82.07,1,1,0,0,0-.66.46,6.89,6.89,0,0,1-2.27,3.27,2.89,2.89,0,0,1-2.59-.11c-.75-.28-2.26.77-1.14,1.22l29,11.68a6.81,6.81,0,0,0,2.73.63c2.77-.07,4.73-2.2,5.8-4.58C160.61,134.89,160.42,134.67,160.11,134.54Z"/><path class="cls-2" d="M130.11,116.27l.43-1,19.75,8-.43,1-19.75-8Zm2-4.73.43-1,19.75,8-.43,1-19.75-7.95Zm2-4.73.44-1,19.75,7.95-.43,1-19.76-8Zm2-4.73.44-1L156.35,109l-.44,1-19.75-8Zm2-4.73.44-1,19.75,7.94-.44,1-19.75-7.94Z"/></g></g></svg>