<svg xmlns="http://www.w3.org/2000/svg" viewBox="0 0 199 199"><defs><style>.cls-1{fill:#e94e1b;}.cls-2,.cls-3{fill:#fff;}.cls-2{stroke:#fff;stroke-miterlimit:10;stroke-width:1.5px;}</style></defs><g id="Calque_2" data-name="Calque 2"><g id="Layer_1" data-name="Layer 1"><circle class="cls-1" cx="99.5" cy="99.5" r="99.5"/><path class="cls-2" d="M99.28,86.64l-2.39,2.84A10.4,10.4,0,0,0,90,86.89c-5.48,0-10,3.71-10,14.42,0,10.2,4.37,14.31,9.95,14.31,3.35,0,5.48-1.37,7.51-2.9l2.18,2.8a13.62,13.62,0,0,1-9.84,3.85c-8.38,0-14.47-6.34-14.47-18.06,0-11.88,6.5-18.07,14.42-18.07A13.58,13.58,0,0,1,99.28,86.64Z"/><path class="cls-2" d="M131.91,101.36c0,11.52-5.89,18-14.62,18s-14.61-6.29-14.61-18c0-11.52,6-18.17,14.61-18.17S131.91,89.58,131.91,101.36Zm-24.56,0c0,10.15,4.06,14.31,9.94,14.31,6.09,0,9.95-4.16,9.95-14.36s-3.8-14.47-9.95-14.47C111.31,86.89,107.35,91.16,107.35,101.41Z"/><path class="cls-2" d="M150.13,113.49c0,3.55-2.23,6.14-9.18,12.53h9.74l-.41,2.94H136.84v-2.74c7.71-7.51,9.54-9.49,9.54-12.43a3.11,3.11,0,0,0-3.4-3.35,5.37,5.37,0,0,0-4.42,2.23l-2.28-1.77a8.6,8.6,0,0,1,6.95-3.4C147.59,107.5,150.13,110.09,150.13,113.49Z"/><path class="cls-3" d="M147.62,82.29A42.65,42.65,0,0,0,125,49a45.16,45.16,0,0,0-44.3,2A44.22,44.22,0,0,0,64.16,69.69l5.19-1.89a24.94,24.94,0,0,0-20.53,2.46,23.51,23.51,0,0,0-10.6,14.36,21.59,21.59,0,0,0,.53,11.92l1.89-2.9c-10.07,5.94-17,16.57-16.53,28.5a31.38,31.38,0,0,0,14.74,25.59,33.55,33.55,0,0,0,17.65,4.86l-3.13-2.22h0c0,1.76,1.64,2.23,3.13,2.23h81.07c1.33,0,3.72-1.15,3.72-2.74h0l-3.72,2.73a38.24,38.24,0,0,0,34.07-21.43A35.8,35.8,0,0,0,166,92.21a37.28,37.28,0,0,0-20.59-11.48A4.36,4.36,0,0,0,141,82.81c-.73,1.6.68,2.58,2.07,2.85a31.86,31.86,0,0,1,23.14,42.28,31.13,31.13,0,0,1-4.09,7.58,33.78,33.78,0,0,1-3,3.47,28.19,28.19,0,0,1-3.08,2.68c-.65.5-1.32,1-2,1.42l-.56.35c-.17.11-.4.24-.09.06-.38.22-.76.44-1.15.64-.73.39-1.47.75-2.22,1.09l-1.22.51-.47.18c.62-.23-.1,0-.22.07-.79.26-1.59.51-2.4.72-.44.11-.87.22-1.31.31-.22,0-1.34.26-.75.16a34,34,0,0,1-5.52.45c-1.32,0-3.72,1.14-3.72,2.74h0l3.72-2.74H57.09l3.13,2.23h0c0-1.77-1.64-2.22-3.13-2.23-1.13,0,.6.05-.52,0l-.7,0c-.57,0-1.14-.1-1.71-.17a20.42,20.42,0,0,1-3.2-.62,26.94,26.94,0,0,1-5.91-2.38A27.44,27.44,0,0,1,33.45,109a26.13,26.13,0,0,1,4.33-6.53,22.28,22.28,0,0,1,2.77-2.65c.55-.45,1.13-.88,1.71-1.3l.59-.4c.12-.08,1.12-.7.78-.5.94-.56,2.31-1.6,1.89-2.91a18.48,18.48,0,0,1-.32-11.11,17.36,17.36,0,0,1,4.26-7.28,16.85,16.85,0,0,1,3.2-2.57c-.49.31.57-.33.68-.38.29-.16.59-.31.89-.45s.81-.36,1.22-.52c-.68.26.34-.1.39-.12a18.24,18.24,0,0,1,2.29-.57c-.68.13.65-.08.78-.09.34,0,.69-.07,1-.08a15.59,15.59,0,0,1,5.5.81c1.76.54,4.33-.08,5.18-1.9A38.05,38.05,0,0,1,83,55.54a37.09,37.09,0,0,1,8.17-4.35c.31-.12,1.46-.49,2.11-.69.87-.26,1.75-.48,2.63-.68l1.25-.26.54-.1c-.52.09.09,0,.16,0,.92-.12,1.83-.24,2.76-.31a35.49,35.49,0,0,1,9.8.55,33.73,33.73,0,0,1,4.33,1.14,40.68,40.68,0,0,1,4.36,1.72A38.45,38.45,0,0,1,133.2,64.16a39.79,39.79,0,0,1,7.66,19.94c.16,1.67,2.86,1.73,4,1.42,1.54-.41,2.93-1.53,2.76-3.23Z"/></g></g></svg>