<svg xmlns="http://www.w3.org/2000/svg" viewBox="0 0 199 199"><defs><style>.cls-1{fill:#e94e1b;}.cls-2{fill:#fff;}.cls-3{fill:none;stroke:#fff;stroke-linecap:round;stroke-linejoin:round;stroke-width:3.5px;}</style></defs><g id="Calque_2" data-name="Calque 2"><g id="Layer_1" data-name="Layer 1"><circle class="cls-1" cx="99.5" cy="99.5" r="99.5"/><path class="cls-2" d="M72.66,136.32c.14,4,4,4.55,7.23,3.74a7.27,7.27,0,0,0,4.42-2.59A11.69,11.69,0,0,0,85.68,132c.31-4.55.1-9.18.09-13.74,0-2.31,0-4.61,0-6.92,0-.63,0-1.26,0-1.88,0,0,0-1.33-.27-.93.11-.19.84-.36,1.05-.46a5.6,5.6,0,0,0,1.16-.68l-4.46,1c.52.47.76.64.86,1.35s.14,1.62.19,2.42c.08,1.56.07,3.11.07,4.67v29c0,.39,1.2.24,1.35.23a73.09,73.09,0,0,1,7.68-.45c2.12,0,5.24.35,6.91-1.19l-2,.88c-2.36.55-1.84.23-.91.28l1,.07c1.2.09,2.4.2,3.59.31,2.5.24,5,.49,7.47.79a6.39,6.39,0,0,0,2.8-.44c.44-.15,1.61-.5,1.61-1.09V126.06c0-6.34-.33-12.8.22-19.12l-4,1.56h2.61l-.83-.26c0,6.34,0,12.68,0,19,0,3-.33,6.35.45,9.3.65,2.47,2,3.82,4.65,3.82,2.38,0,5.88-.71,7.21-2.94a8.49,8.49,0,0,0,.79-3.26,47.61,47.61,0,0,0,.13-5.07q0-9.72,0-19.44c0-4.93.61-11.22-3-15.14s-10-3.85-14.92-4a119.5,119.5,0,0,0-18.44.35c-4.78.54-10.91,1.22-14,5.39a12.36,12.36,0,0,0-2.05,7.18c-.07,3.54,0,7.1,0,10.65,0,7.42,0,14.85,0,22.27,0,.6,4.84,0,4.83-1.29q0-8.79,0-17.58v-8.66c0-2.72-.21-5.52.06-8.22a10.52,10.52,0,0,1,2-5.38C80.67,93.66,82,93.28,83.83,93A78.54,78.54,0,0,1,99,92.14c2.83,0,5.69.11,8.52.33a19.54,19.54,0,0,1,7.15,1.6c4.09,2,5,6,5.43,10.19.25,2.87.13,5.79.14,8.67v8.62q0,4.31,0,8.61c0,1.38,0,2.77,0,4.14a9,9,0,0,1-.8,4c-.09.15-.28.33-.35.48-.31.65,1.53-.13,1.15-.27a7.46,7.46,0,0,1-1.35-.35c-1.13-.63-1.5-2-1.78-3.15-.71-2.9-.39-6.12-.41-9.09,0-6.34,0-12.68,0-19,0-.26-.76-.26-.83-.26h-2.6c-.86,0-3.9.39-4,1.56-.55,6.32-.21,12.77-.22,19.11v19.29l4.41-1.53c-3.06-.37-6.14-.68-9.21-1-2.44-.21-6.27-1-8.28.86l3.76-1.14a88.61,88.61,0,0,0-11.86.54l1.34.23V115.11c0-1.64,0-3.27-.12-4.9a7.89,7.89,0,0,0-.23-2.28c-.18-.44-.69-.75-1-1.06s-1.74,0-2.13.08a6,6,0,0,0-2.33,1c.47-.37-.17,0-.33.1-.32.15-.66.29-1,.47a1.92,1.92,0,0,0-1,1,8.08,8.08,0,0,0-.07,2.69v2.72c0,3.87,0,7.75,0,11.62,0,3.57.39,7.55-.93,10.94A11.37,11.37,0,0,1,79,139c1.42-.21,1.84-.35,1.25-.42a3.11,3.11,0,0,1-.44-.08,2.81,2.81,0,0,1-.8-.33A3.48,3.48,0,0,1,77.49,135C77.47,134.38,72.62,135.09,72.66,136.32Z"/><path class="cls-2" d="M92.33,76.79a9.68,9.68,0,0,1,1.34-5,7.49,7.49,0,0,1,1.4-1.67,5.55,5.55,0,0,1,1.69-1c.44-.2.18-.07.07,0,.24-.08.48-.13.72-.2.07,0,.48-.08.1,0l.78-.09a7,7,0,0,1,2.19.28,9,9,0,0,1,4.24,2.86,8.51,8.51,0,0,1,.93,9.9,7.85,7.85,0,0,1-1.42,1.73,7.08,7.08,0,0,1-1.52,1,6.22,6.22,0,0,1-.71.29c.36-.12,0,0-.11,0a6.49,6.49,0,0,1-.76.19c.35-.06-.09,0-.14,0a7.58,7.58,0,0,1-2.32-.08,8.4,8.4,0,0,1-6.48-8.14c0-1.1-1.21-1.29-2.12-1.19-.74.08-2.73.67-2.72,1.73A10.52,10.52,0,0,0,94.9,87.47,14,14,0,0,0,109,83.74a10.44,10.44,0,0,0,1.21-12.65c-2.8-4.45-8.27-6.1-13.24-5a11.84,11.84,0,0,0-9.47,11.2c0,1.11,1.24,1.28,2.12,1.19S92.32,77.86,92.33,76.79Z"/><path class="cls-2" d="M82,38.71l.27-10,.15-5.45a2.41,2.41,0,0,0-.82-2,13.23,13.23,0,0,0-4.76-3.73c-3.19-1.4-7.17-.59-10.08,1.12A9.44,9.44,0,0,0,63,22.31a8,8,0,0,0-.15,2.93V55.35a18.45,18.45,0,0,0,.21,3.93,8.2,8.2,0,0,0,3.38,5.15c2.92,1.89,6.39,1.57,9.68,1.3,2.69-.22,5.44-.12,8-1.08a5.68,5.68,0,0,0,4-4.31c1.19-4.75,1.3-9.73,1.41-14.6.1-4.44.09-8.89,0-13.34,0-.25,0-.51,0-.77,0-1.36-6.81-.27-6.76,1.82a185.94,185.94,0,0,1-.47,23.13,27.35,27.35,0,0,1-1.14,5.83,8.25,8.25,0,0,1-.37.86c-.14.28,0,0,0,0s-.1.11-.12.13c.37-.29.09-.11.42-.29a4.28,4.28,0,0,1,1-.43c.12,0,1.33-.31.74-.2s.41,0,.18,0-.53,0-.78,0c-1.18.07-2.36.12-3.53.23a12.52,12.52,0,0,1-3.91,0,6.24,6.24,0,0,1-4.39-3.7c-1.12-2.6-.74-5.7-.74-8.45V22.32a4,4,0,0,1,0-1.14A6,6,0,0,1,71,19.73c.18-.16.65-.33.32-.27s-.76.24-1.15.32c-.6.13.06.06-.41,0a1.27,1.27,0,0,1,.34,0c.4.12-.5-.15.19.05A10.19,10.19,0,0,1,74.7,23a9,9,0,0,1,1.09,1.3c.16.25-.06-.17-.07-.1s0,.2,0,.3a25.09,25.09,0,0,0-.11,4.16l-.3,11.13,0,.77c0,1.27,6.7.32,6.76-1.81Z"/><polygon class="cls-3" points="148.11 40.5 48.58 39.18 49.46 160.39 147.67 160.84 148.11 40.5"/></g></g></svg>