<svg xmlns="http://www.w3.org/2000/svg" viewBox="0 0 199 199"><defs><style>.cls-1{fill:#e94e1b;}.cls-2,.cls-3{fill:#fff;}.cls-2{stroke:#fff;stroke-miterlimit:10;stroke-width:3px;fill-rule:evenodd;}</style></defs><g id="Calque_2" data-name="Calque 2"><g id="Layer_1" data-name="Layer 1"><circle class="cls-1" cx="99.5" cy="99.5" r="99.5"/><path class="cls-2" d="M96.41,40.81c0-6,0-12-.17-18.06a.92.92,0,0,0-.92-.92,1,1,0,0,0-.91,1c.13,6,.21,12,.17,18a.86.86,0,0,0,.87.92.93.93,0,0,0,1-.88Z"/><path class="cls-2" d="M125.67,48.68c3.06-5.2,6-10.45,8.91-15.74a.89.89,0,0,0-.4-1.23.88.88,0,0,0-1.22.35c-2.88,5.25-5.8,10.5-8.86,15.66a.94.94,0,0,0,.35,1.27.89.89,0,0,0,1.22-.31Z"/><path class="cls-2" d="M147.11,70.16c5.24-3,10.39-6,15.54-9.18a.93.93,0,0,0,.31-1.27,1,1,0,0,0-1.27-.31c-5.1,3.11-10.26,6.21-15.45,9.14a.94.94,0,0,0-.35,1.27.91.91,0,0,0,1.22.35Z"/><path class="cls-2" d="M155,99.51c6,0,12,0,18-.17a.9.9,0,0,0,.88-.92.92.92,0,0,0-.92-.92c-6,.13-12,.22-18,.17a.92.92,0,0,0-.92.88,1,1,0,0,0,.92,1Z"/><path class="cls-2" d="M147.11,128.86c5.2,3,10.44,5.95,15.68,8.88a.93.93,0,0,0,.91-1.62c-5.28-2.89-10.48-5.82-15.67-8.88a.9.9,0,0,0-1.23.35.92.92,0,0,0,.31,1.27Z"/><path class="cls-2" d="M125.67,150.34q4.45,7.8,9.13,15.52a.91.91,0,0,0,1.26.31.92.92,0,0,0,.31-1.27c-3.1-5.12-6.16-10.28-9.13-15.48a.87.87,0,0,0-1.22-.35.94.94,0,0,0-.35,1.27Z"/><path class="cls-2" d="M96.37,158.17c0,6,0,12,.17,18.06a.87.87,0,0,0,.92.88.9.9,0,0,0,.92-.92c-.13-6-.22-12-.18-18a.93.93,0,0,0-.91-1,1,1,0,0,0-.92.92Z"/><path class="cls-2" d="M67.07,150.29c-3.06,5.21-6,10.46-8.86,15.71a.91.91,0,0,0,.34,1.26.93.93,0,0,0,1.27-.35c2.88-5.25,5.81-10.49,8.82-15.65a.92.92,0,1,0-1.57-1Z"/><path class="cls-2" d="M45.63,128.82c-5.24,3-10.39,6-15.54,9.14a1,1,0,0,0-.31,1.27.92.92,0,0,0,1.26.3c5.16-3.1,10.27-6.17,15.51-9.1a1,1,0,0,0,.35-1.26.93.93,0,0,0-1.27-.35Z"/><path class="cls-2" d="M37.77,99.47c-6,0-12,0-18,.17a.92.92,0,1,0,0,1.84c6-.13,12-.22,18-.18a.9.9,0,0,0,.92-.91.92.92,0,0,0-.92-.92Z"/><path class="cls-2" d="M45.63,70.12c-5.15-3.06-10.39-6-15.68-8.88a.87.87,0,0,0-1.22.35.94.94,0,0,0,.35,1.27c5.24,2.88,10.48,5.81,15.63,8.83a.91.91,0,1,0,.92-1.57Z"/><path class="cls-2" d="M67.11,48.64c-3-5.25-6.07-10.41-9.17-15.53a1,1,0,0,0-1.26-.35A.93.93,0,0,0,56.37,34c3.1,5.16,6.16,10.28,9.13,15.53a.93.93,0,0,0,1.26.35,1,1,0,0,0,.35-1.27Z"/><path class="cls-3" d="M89.23,95.94h-1.8a.36.36,0,0,1-.33-.19.37.37,0,0,1,0-.38,3,3,0,0,0,.45-1.55,2.93,2.93,0,0,0-2.93-2.93h-13a.38.38,0,0,1-.24-.67l3.45-2.8a3.51,3.51,0,0,0-2-6.42,4.3,4.3,0,0,0-2.07.71l-.16.09c-2.15,1.29-15.37,9.72-15.5,9.81a3.52,3.52,0,0,0-1.38,2.78v12.19a5.35,5.35,0,0,0,1.46,4,5.43,5.43,0,0,0,3.87,1.38H80a2.93,2.93,0,0,0,2.48-4.49.37.37,0,0,1,0-.38.36.36,0,0,1,.33-.19h3.64a2.93,2.93,0,0,0,2.93-2.93,3,3,0,0,0-.45-1.56.36.36,0,0,1,.31-.57,2.94,2.94,0,0,0,0-5.87Zm0,5.06H73.51v.81h13a2.13,2.13,0,0,1,0,4.25h-13v.81H80a2.13,2.13,0,1,1,0,4.25H59.14A4.63,4.63,0,0,1,55.81,110a4.54,4.54,0,0,1-1.21-3.39V94.39a2.68,2.68,0,0,1,1-2.1l6.94-4.43C66,85.68,70,83.13,71.09,82.49a4,4,0,0,1,1.83-.69,2.71,2.71,0,0,1,2.68,2.71,2.68,2.68,0,0,1-1.19,2.23l-6.1,5H84.63a2.13,2.13,0,0,1,0,4.25H73.51v.81H89.23a2.13,2.13,0,0,1,0,4.25Z"/><path class="cls-3" d="M89.73,95.38H88.26c-.11,0-.45-.07-.2,0l.37.12c-.32-.18.13-.77.21-1a3.2,3.2,0,0,0,.12-1.19,3.16,3.16,0,0,0-.87-1.87A3.84,3.84,0,0,0,85,90.32H72.32c.47,0,0,0,.06,0,1.17-.9,2.27-1.87,3.42-2.77a4.1,4.1,0,0,0,1.78-3.86,3.83,3.83,0,0,0-2.53-3c-2.35-.83-4.52.51-6.45,1.71l-4.81,3-9.27,5.89a4.24,4.24,0,0,0-1.94,3.74v10.42c0,1.65,0,3.32.92,4.77,1.92,2.84,6,2.26,9,2.26H78.68A6,6,0,0,0,83.26,111a3.32,3.32,0,0,0,.87-1.74c.05-.35,0-2.49-.72-2.1l-.91.3c-.31.06-.1,0,0,0h1.64c.63,0,1.27,0,1.9,0a5.12,5.12,0,0,0,3.86-1.77,3.22,3.22,0,0,0,.68-1.65c0-.34-.11-2.32-.74-1.94l-.92.3A6.5,6.5,0,0,0,92,101.25a3.42,3.42,0,0,0,1.33-2.39c.18-2.15-1.66-3.43-3.62-3.48a2.17,2.17,0,0,0-1.61.61c-.31.45.28.51.61.52,1.59,0,2.52,2,2.11,3.38a2.43,2.43,0,0,1-.53,1,1.87,1.87,0,0,1-.33.3s-.29.14-.12.09-.06,0-.1,0a3.18,3.18,0,0,0-.43.06,3,3,0,0,0-.92.29c-.38.2-.82.54-.7,1a10.29,10.29,0,0,1,.45,1.25,2.53,2.53,0,0,1-.16,1.33,2.37,2.37,0,0,1-.6.9c-.09.07-.21.13-.29.2s-.19.07,0,0,0,0,0,0a23.25,23.25,0,0,0-2.64,0H83.35c-.62,0-2.21.37-2.11,1.28a2.73,2.73,0,0,0,.3.65,3.2,3.2,0,0,1,.19.69,2.54,2.54,0,0,1-.14,1.25,2.38,2.38,0,0,1-.59.94,1.64,1.64,0,0,1-.26.2c-.26.2-.07,0,0,0-.92,0-1.86,0-2.79,0H60.27c-.33,0-.67,0-1,0a4.38,4.38,0,0,1-3.84-2.66c-.62-1.53-.43-3.37-.43-5V97c0-1.41-.3-3.33.48-4.59a3.44,3.44,0,0,1,1.24-1.1l1.92-1.23c3.86-2.45,7.72-4.92,11.6-7.34l.48-.3.21-.13,0,0,.75-.44a1.86,1.86,0,0,1,.67-.29,2.55,2.55,0,0,1,1.07.32,3.2,3.2,0,0,1,1.5,1.7,3.25,3.25,0,0,1-1.14,3.81c-.74.58-1.47,1.19-2.2,1.79-.45.36-1.91,1.22-1.47,1.91.32.49,1.19.37,1.72.37H83.49a2.75,2.75,0,0,1,1.58.32,2.71,2.71,0,0,1,1.25,1.94A2.44,2.44,0,0,1,86.18,95c-.14.4-.55.83-.17,1.24s1,.27,1.46.27h1.26a2.17,2.17,0,0,0,1.6-.61C90.65,95.45,90.06,95.38,89.73,95.38Z"/><path class="cls-3" d="M89.73,100.44H74c-.47,0-1.71.25-1.71.89v.81c0,.25.57.24.71.24H85.89c.17,0-.09-.06.16,0a1.86,1.86,0,0,1,1.28,2.23,1.78,1.78,0,0,1-.25.6c-.07.09-.16.16-.22.25s-.3.14,0,.06-.12-.05-.24-.05H74c-.47,0-1.71.26-1.71.9v.8c0,.26.57.25.71.25h6.55a1.63,1.63,0,0,1,.46.18,1.89,1.89,0,0,1,.9,1.35,1.83,1.83,0,0,1-.07.87,2.59,2.59,0,0,1-.17.38c-.08.13-.29.25-.34.38s.35,0,.14-.06H60.31a4.66,4.66,0,0,1-3.12-.8c-1.24-1-1.39-2.57-1.39-4V96.8c0-.9,0-1.81,0-2.7.05-1.43,1-1.89,2.06-2.54l7.63-4.86c2-1.25,4.15-2.65,6-3.79.14-.08.28-.16.41-.25s.32-.18,0,0l.26-.15.21-.11c.31-.18.07,0-.07,0l.22,0a1.93,1.93,0,0,1,.46.16,2.5,2.5,0,0,1,1.21,3c-.35,1-1.68,1.8-2.49,2.46l-3.7,3-.7.56c-.56.45-.07.67.44.67h15.8c.16,0,.33,0,.5,0H84a1.35,1.35,0,0,1,.64.24,1.83,1.83,0,0,1,.82,1.21,1.89,1.89,0,0,1-.26,1.41s-.33.38-.35.35c-.34-.4.45,0,.22-.09a2.21,2.21,0,0,0-.68,0H74c-.47,0-1.71.25-1.71.89v.81c0,.25.57.24.71.24H88.72s-.17,0,0,0a1.55,1.55,0,0,1,.51.18,2,2,0,0,1,.94,1.69,1.83,1.83,0,0,1-.31,1c-.06.09-.16.16-.22.25l-.13.1c.3,0,.38-.08.24-.08a2.25,2.25,0,0,0-1.61.61c-.3.43.27.54.61.52,1.47-.06,3.36-.77,3.76-2.37a2.43,2.43,0,0,0-1.77-2.9,11.8,11.8,0,0,0-3-.12H74l.7.25v-.81l-1.7.89H83.33a5.32,5.32,0,0,0,3.79-1.12,2.44,2.44,0,0,0,.6-2.87,2.76,2.76,0,0,0-2.59-1.39H68.81l.44.67c2-1.63,4-3.3,6-4.9a3.37,3.37,0,0,0,1.5-2.4,3,3,0,0,0-1.78-3,4.8,4.8,0,0,0-4.15.43c-.21.11-.42.24-.62.36s.24-.14,0,0l-.14.09-1.32.82c-3.44,2.15-6.86,4.33-10.28,6.51-1.23.78-2.48,1.53-3.69,2.34a3.18,3.18,0,0,0-1.39,2.13,6.63,6.63,0,0,0,0,1.09v9.49a18.08,18.08,0,0,0,.1,3.29c.49,2.6,2.74,3.59,5.17,3.61,5.7,0,11.4,0,17.1,0,2.27,0,5.92.55,7.27-1.76a2.37,2.37,0,0,0-.9-3.26,4.07,4.07,0,0,0-2.07-.37H74l.7.25v-.81l-1.7.89H85.67c1.49,0,3.24-.54,3.92-2A2.36,2.36,0,0,0,89.1,102a3,3,0,0,0-2.17-.76c-2.06,0-4.13,0-6.19,0H74l.7.25v-.81l-1.7.89H88.73a2.21,2.21,0,0,0,1.61-.61C90.65,100.52,90.06,100.44,89.73,100.44Z"/><path class="cls-3" d="M100.58,98.88a2.94,2.94,0,0,0,2.9,2.93.37.37,0,0,1,.33.19.39.39,0,0,1,0,.38,2.92,2.92,0,0,0,2.47,4.49h3.65a.36.36,0,0,1,.32.19.35.35,0,0,1,0,.38,3,3,0,0,0-.45,1.56,2.94,2.94,0,0,0,2.93,2.93h20.91a5.41,5.41,0,0,0,3.87-1.38,5.32,5.32,0,0,0,1.46-4V94.39a3.54,3.54,0,0,0-1.37-2.78c-.14-.09-13.36-8.52-15.51-9.81l-.16-.09a4.3,4.3,0,0,0-2.07-.71,3.51,3.51,0,0,0-2,6.42l3.45,2.8a.38.38,0,0,1,.12.42.37.37,0,0,1-.35.25h-13a2.93,2.93,0,0,0-2.93,2.93,3,3,0,0,0,.45,1.55.35.35,0,0,1,0,.38.36.36,0,0,1-.32.19h-1.81A2.94,2.94,0,0,0,100.58,98.88Zm.81,0a2.14,2.14,0,0,1,2.12-2.13h15.73v-.81H108.11a2.13,2.13,0,0,1,0-4.25h16.32l-6.1-5a2.68,2.68,0,0,1-1.19-2.23,2.71,2.71,0,0,1,2.69-2.71,4,4,0,0,1,1.82.69c1.07.64,5.11,3.19,8.54,5.37l6.95,4.43a2.71,2.71,0,0,1,1,2.1v12.19a4.13,4.13,0,0,1-4.55,4.54H112.71a2.13,2.13,0,0,1,0-4.25h6.53v-.81h-13a2.13,2.13,0,0,1,0-4.25h13V101H103.51A2.12,2.12,0,0,1,101.39,98.88Z"/><path class="cls-3" d="M99.37,99.2a3.21,3.21,0,0,0,1,2.28,4.37,4.37,0,0,0,2.43.91l-.37-.12c.31.18-.1.69-.19,1a3.37,3.37,0,0,0-.16,1,3.08,3.08,0,0,0,.55,1.71,3.64,3.64,0,0,0,3.09,1.47h3.46c.09,0,.29.06,0,0l-.36-.12c.3.18-.07.61-.16.86a3.26,3.26,0,0,0-.18.93,3.07,3.07,0,0,0,.45,1.77,3.46,3.46,0,0,0,2.75,1.59c.59,0,1.2,0,1.79,0h17.51c2.82,0,6.08,0,8-2.49a6.83,6.83,0,0,0,1.12-4.31v-3.88c0-2.57.05-5.14,0-7.71s-2.74-3.76-4.67-5c-2.93-1.86-5.86-3.73-8.8-5.58-1-.66-2.1-1.33-3.16-2a7.85,7.85,0,0,0-2.08-1,5.72,5.72,0,0,0-4.1.68,3.92,3.92,0,0,0-1.28,6,10.31,10.31,0,0,0,1.37,1.17l1.87,1.51c.25.2,1.09.65.86,1l.26-.29-.13.08,1.15-.43c.24,0,.11,0,0,0H115c-2.19,0-4.41-.1-6.6,0a5.11,5.11,0,0,0-3.77,1.76,3.28,3.28,0,0,0-.67,1.66c0,.33.09,2.31.73,1.93l.92-.3c.36-.06-.2,0-.32,0h-.88a6.7,6.7,0,0,0-1.89.22,4,4,0,0,0-3.19,3.6c0,.52,2.4.16,2.42-.65a2.55,2.55,0,0,1,1-2c.06,0,.33-.14.14-.09s.06,0,.13,0h.53c1.11,0,4,0,3.14-1.74a2.72,2.72,0,0,1,0-2.5,2.5,2.5,0,0,1,.66-.75c.06,0,.31-.12.12-.07s.07,0,.13,0h12.7c.75,0,3.15-.63,2.14-1.67a19.92,19.92,0,0,0-1.82-1.48c-.64-.52-1.3-1-1.92-1.55a3.29,3.29,0,0,1-.52-4.47c.38-.49.77-.82,1.39-.67a5.29,5.29,0,0,1,1.48.7c.59.35,1.17.72,1.76,1.09l5.87,3.71,5.79,3.68c1.31.83,2.8,1.5,3.17,3.17a7.31,7.31,0,0,1,.09,1.62v9.24c0,1.77.2,3.77-.92,5.26a3.16,3.16,0,0,1-2.76,1.27h-19c-1.09,0-2.25.2-3.15-.57a2.72,2.72,0,0,1-1-2.12,3.06,3.06,0,0,1,.39-1.32.65.65,0,0,0-.35-1,3.6,3.6,0,0,0-1.18-.08h-1.62a3.84,3.84,0,0,1-2.66-.51,2.78,2.78,0,0,1-1-2.09,2.88,2.88,0,0,1,.34-1.32c.19-.42.25-.79-.22-1a5.19,5.19,0,0,0-1-.19,2.58,2.58,0,0,1-1-.56,2.81,2.81,0,0,1-.89-2.06C101.77,98,99.35,98.41,99.37,99.2Z"/><path class="cls-3" d="M102.6,98.55a1.88,1.88,0,0,1,.23-.83c0-.06.38-.54.43-.49s-.43,0-.17.09a5.21,5.21,0,0,0,.79,0h14.85c.47,0,1.71-.26,1.71-.89v-.81c0-.26-.57-.24-.7-.24H108.63s.25.09-.1,0a2.17,2.17,0,0,1-.67-.36,1.9,1.9,0,0,1-.25-2.61s.18-.16.19-.18-.19.06-.21.05h0a.6.6,0,0,0,.19,0c.73,0,1.47,0,2.2,0h13.91c.26,0,2.2-.54,1.63-1l-5.83-4.73a3.42,3.42,0,0,1-1.21-1.4,2.33,2.33,0,0,1,.78-2.77c-.17.1-.23-.07,0,0l.13,0a2.75,2.75,0,0,1,.71.3l.78.47,2.48,1.55c3.1,2,6.18,3.92,9.27,5.88,1.07.68,2.18,1.33,3.22,2s1,1.76,1,2.83v9c0,.8,0,1.61,0,2.41a4.21,4.21,0,0,1-1.2,3.19,2.4,2.4,0,0,1-1.69.46c-5.35,0-10.69,0-16,0h-4.54a1.47,1.47,0,0,1-.21,0h0c.22,0,0,0-.08,0a1.84,1.84,0,0,1-.41-.16,1.94,1.94,0,0,1-.91-1.35,1.88,1.88,0,0,1,.07-.88,1.59,1.59,0,0,1,.18-.37c.07-.13.28-.26.33-.38s-.24,0-.18,0,.1,0,.14,0c.22,0,.45,0,.67,0h5.7c.47,0,1.71-.26,1.71-.89v-.81c0-.26-.57-.25-.7-.25h-12.2c-.23,0-.46,0-.69,0s.11.05-.11,0a1.79,1.79,0,0,1-1.14-.89,1.93,1.93,0,0,1-.19-1.35,1.89,1.89,0,0,1,.26-.6c.06-.09.15-.16.21-.25s.3-.14,0-.06.12,0,.24,0h12.62c.47,0,1.71-.26,1.71-.89v-.81c0-.26-.57-.24-.7-.24H105c-.3,0-.59,0-.89,0h0c.09,0,.16,0,0,0a2.23,2.23,0,0,1-.45-.18,2,2,0,0,1-.93-1.7c0-.56-2.45-.13-2.42.65a2.51,2.51,0,0,0,2.22,2.34,7.86,7.86,0,0,0,1,0h15.36l-.7-.24v.81l1.71-.9H107.07c-1.48,0-3.24.54-3.91,2a2.36,2.36,0,0,0,.48,2.65,3,3,0,0,0,2.17.76c2.06,0,4.13,0,6.19,0h6.73l-.7-.24v.8l1.71-.89H115.8c-1.58,0-3.33-.2-4.78.57a2.64,2.64,0,0,0-1.47,3.28,2.76,2.76,0,0,0,2.67,1.54c.64,0,1.28,0,1.92,0h18.34a8.75,8.75,0,0,0,4.52-1,5.05,5.05,0,0,0,2.35-4.76V96.69c0-.93.07-1.88,0-2.81-.13-1.65-1.49-2.29-2.7-3.06L127.52,85l-3.38-2.13A23.93,23.93,0,0,0,122,81.62c-2.3-1.12-6.09.36-6.08,3.21,0,1.64,1.49,2.53,2.63,3.45l3.91,3.18.83.67,1.63-1h-16.2c-1.73,0-4,1-4,3a2.43,2.43,0,0,0,1.68,2.21,4.43,4.43,0,0,0,1.45.16h10.82l-.7-.24v.81l1.71-.9H104.51c-1.92,0-4.23.8-4.33,3C100.16,99.71,102.56,99.36,102.6,98.55Z"/><path class="cls-3" d="M93,109.61v1.8a.38.38,0,0,1-.58.32,3,3,0,0,0-1.55-.45A2.93,2.93,0,0,0,88,114.21v13a.38.38,0,0,1-.67.24L84.51,124a3.51,3.51,0,0,0-6.42,2A4.3,4.3,0,0,0,78.8,128l.09.16c1.29,2.15,9.73,15.37,9.81,15.5a3.52,3.52,0,0,0,2.78,1.38h12.19a5.35,5.35,0,0,0,4-1.46,5.43,5.43,0,0,0,1.38-3.87V118.81a2.93,2.93,0,0,0-2.93-2.93,2.88,2.88,0,0,0-1.55.45.39.39,0,0,1-.39,0A.38.38,0,0,1,104,116v-3.64a2.93,2.93,0,0,0-2.93-2.93,3,3,0,0,0-1.56.45.37.37,0,0,1-.38,0,.4.4,0,0,1-.19-.33,2.93,2.93,0,0,0-5.86,0Zm5.06,0h0v15.72h.8v-13a2.13,2.13,0,0,1,4.25,0v13H104v-6.52a2.13,2.13,0,1,1,4.25,0V139.7a4.63,4.63,0,0,1-1.15,3.33,4.54,4.54,0,0,1-3.39,1.21H91.48a2.68,2.68,0,0,1-2.1-1L85,136.28c-2.18-3.42-4.74-7.47-5.38-8.53a3.86,3.86,0,0,1-.68-1.83,2.7,2.7,0,0,1,4.94-1.49l4.94,6.1V114.21a2.13,2.13,0,0,1,4.26,0v11.12h.8V109.61a2.13,2.13,0,0,1,4.26,0Z"/><path class="cls-3" d="M91.83,109.93v1a2,2,0,0,1-.08.95l.25-.29-.1.08.82-.37-.2,0,1.11,0c-.33-.09-.61-.29-.94-.39a3.88,3.88,0,0,0-1-.16,5.86,5.86,0,0,0-2.19.36A4.14,4.14,0,0,0,87,113.41a7.71,7.71,0,0,0-.18,2.54v10.8a3.62,3.62,0,0,0,0,.57c0,.26-.15.23.24,0l.92-.3-.15,0,.78,0c-.15,0-.24-.2-.32-.31l-.66-.82-1.47-1.8a7.11,7.11,0,0,0-1.36-1.48,4.77,4.77,0,0,0-3.64-.68c-2.43.44-5,2.59-4,5.32a16.66,16.66,0,0,0,1.75,3.06c1.82,2.91,3.67,5.81,5.52,8.72l2.33,3.67a7.36,7.36,0,0,0,1.57,2.05,5.85,5.85,0,0,0,3.74.84h4.28c2.43,0,4.89.11,7.31,0,2.62-.14,5.42-1.32,6.32-4a9.32,9.32,0,0,0,.33-3V118.76a3.3,3.3,0,0,0-2.18-3.23,4.37,4.37,0,0,0-2-.18,6,6,0,0,0-1.08.23c-.18,0-.36.12-.54.19,0,0-.86.34-.24.15l1.11,0c-.35-.08-.16-1.54-.16-1.82,0-.66,0-1.33,0-2a3.19,3.19,0,0,0-1.72-2.75,4,4,0,0,0-1.92-.43,6.17,6.17,0,0,0-2.13.46c-.11,0-.8.33-.24.15l1.11,0c-.24-.06-.27-1-.37-1.24a3.45,3.45,0,0,0-.8-1.16,3.8,3.8,0,0,0-2.8-.92c-2.18.1-4.4,1.47-4.47,3.81,0,.52,2.39.16,2.41-.64a2.53,2.53,0,0,1,1-2c.05,0,.33-.14.13-.09s.11,0,.2,0a2,2,0,0,1,1,.4,2.75,2.75,0,0,1,1.15,2c0,.35.08.62.44.77a2.6,2.6,0,0,0,1.93-.22c.39-.18.34-.24.72-.16a2.43,2.43,0,0,1,1,.53,2.77,2.77,0,0,1,1,2c0,.87,0,1.76,0,2.63a7.64,7.64,0,0,0,0,1.07c.16,1,1.62.62,2.23.39.45-.18.43-.31.85-.22a2.48,2.48,0,0,1,1,.48,2.78,2.78,0,0,1,1,2c.06.93,0,1.87,0,2.79v17.64c0,1.84-.32,4.21-2.32,4.92a5.37,5.37,0,0,1-1.88.17H94.5c-1.61,0-3.37.31-4.55-1.09a28.17,28.17,0,0,1-1.94-3c-2.44-3.83-4.89-7.65-7.28-11.5a14.88,14.88,0,0,1-1.13-2,3.08,3.08,0,0,1,0-2.54c.22-.5.71-1.24,1.29-1.35,1.15-.22,2.09.9,2.72,1.67l1.93,2.39a9.46,9.46,0,0,0,.64.78c.6.59,1.79.23,2.42-.13s.61-.91.61-1.57V114.53a3.83,3.83,0,0,1,.28-1.8,2.19,2.19,0,0,1,.68-.8c.06-.05.32-.14.13-.09s.26,0,.36,0c.44.1.79.4,1.24.46a3,3,0,0,0,2-.55c.67-.51.4-1.76.4-2.51C94.24,108.75,91.83,109.14,91.83,109.93Z"/><path class="cls-3" d="M96.89,109.93v15.73c0,.25.57.24.7.24h.81c.47,0,1.71-.26,1.71-.89v-12.2c0-.23,0-.46,0-.69a1.32,1.32,0,0,1,0-.28c0-.1.52-1.27.64-1.11s-.67,0,0,.14a1.76,1.76,0,0,1,.56.33,1.91,1.91,0,0,1,.65,1.24,5.72,5.72,0,0,1,0,.59v12.63c0,.25.57.24.7.24h.81c.46,0,1.71-.26,1.71-.89v-5.75a3.45,3.45,0,0,1,.16-1.46c.1-.23.36-.4.45-.6l0,0c.12-.07,0,0-.26.07h0a.48.48,0,0,1,.2,0,1.82,1.82,0,0,1,1.2,1.17,3.08,3.08,0,0,1,.1,1V139.3a6.18,6.18,0,0,1-.55,3.12,2.37,2.37,0,0,1-2.28,1.26H94.61c-.87,0-1.75,0-2.61,0,.17,0-.28-.06-.36-.08a2.27,2.27,0,0,1-.81-.47,1.8,1.8,0,0,1-.35-.38c-.3-.44-.58-.91-.87-1.37q-2.48-3.88-4.94-7.78c-1.25-2-2.51-3.93-3.72-5.91a3.59,3.59,0,0,1-.81-2.45,2.51,2.51,0,0,1,.73-1.32c.1-.09.34-.15.06-.11a1.4,1.4,0,0,1,.72.15A3.62,3.62,0,0,1,83,125.17l1.16,1.43,3,3.67.56.69c.41.51,2.34-.09,2.34-.75v-15.8c0-.17,0-.34,0-.5a2,2,0,0,1,.2-.79c.09-.19.33-.35.41-.52l0,0c.11-.07,0,0-.27.07h0a.48.48,0,0,1,.2,0c1.2.36,1.31,1.5,1.31,2.55v10.42c0,.25.57.24.7.24h.81c.47,0,1.71-.26,1.71-.89V109.78a2.79,2.79,0,0,1,.16-1.18c0-.09.44-.71.5-.63l-.29.08h0s.52.16.57.19a2,2,0,0,1,.94,1.69c0,.57,2.45.14,2.41-.64-.15-3.42-5.65-2.83-6.54-.16a9.32,9.32,0,0,0-.12,2.79v13.74l1.7-.89h-.8l.7.24V114.69c0-1.12-.11-2.18-1.22-2.8-2-1.1-5.38.21-5.44,2.64,0,.54,0,1.07,0,1.61v14.71l2.34-.76c-1.64-2-3.29-4-4.91-6a3.43,3.43,0,0,0-2.65-1.36,5,5,0,0,0-4,1.63,2.9,2.9,0,0,0-.28,3.28c.38.72.85,1.4,1.28,2.09,2.14,3.43,4.32,6.84,6.49,10.25.75,1.18,1.48,2.38,2.26,3.54s2.2,1.34,3.54,1.34h9.58a17.93,17.93,0,0,0,3.59-.17,5.88,5.88,0,0,0,3.65-2,5.35,5.35,0,0,0,.94-3.24c.06-5.67,0-11.34,0-17v-3.29c0-.19,0-.39,0-.58a2.45,2.45,0,0,0-2-2.29,4.36,4.36,0,0,0-4.14,1.4,3,3,0,0,0-.52,2v6.09l1.71-.89h-.81l.71.24V112.34c0-4-6.59-3.16-6.66.39,0,2.07,0,4.13,0,6.2v6.73l1.7-.89h-.8l.7.24V109.29C99.3,108.75,96.89,109.14,96.89,109.93Z"/><path class="cls-3" d="M96,92.26a2.94,2.94,0,0,0,2.93-2.9.37.37,0,0,1,.57-.32A2.92,2.92,0,0,0,104,86.57V82.92a.38.38,0,0,1,.19-.32.37.37,0,0,1,.39,0A2.92,2.92,0,0,0,109,80.13V59.22a5.41,5.41,0,0,0-1.38-3.87,5.32,5.32,0,0,0-4-1.46H91.48a3.54,3.54,0,0,0-2.78,1.37c-.08.14-8.52,13.36-9.81,15.51l-.09.16A4.3,4.3,0,0,0,78.09,73a3.51,3.51,0,0,0,6.42,2l2.8-3.45a.38.38,0,0,1,.42-.12.37.37,0,0,1,.25.35v13a2.93,2.93,0,0,0,2.93,2.93,3,3,0,0,0,1.55-.45.35.35,0,0,1,.38,0,.37.37,0,0,1,.2.32v1.81A2.93,2.93,0,0,0,96,92.26Zm0-.81a2.14,2.14,0,0,1-2.13-2.12V73.6H93V84.73a2.13,2.13,0,0,1-4.26,0V68.41l-4.94,6.1A2.7,2.7,0,0,1,78.9,73a3.86,3.86,0,0,1,.68-1.82c.64-1.07,3.2-5.11,5.38-8.54l4.42-6.95a2.71,2.71,0,0,1,2.1-1h12.19a4.13,4.13,0,0,1,4.54,4.55V80.13a2.13,2.13,0,0,1-4.25,0V73.6h-.81v13a2.13,2.13,0,0,1-4.25,0v-13h-.8V89.33h0A2.14,2.14,0,0,1,96,91.45Z"/><path class="cls-3" d="M95.47,92.83a5.55,5.55,0,0,0,3.47-1.28,3.65,3.65,0,0,0,.88-1.18,2.87,2.87,0,0,0,.23-.7,2,2,0,0,1,.14-.74l-.26.29.11-.09-.82.37.19,0-1.1,0c.39.12.73.35,1.13.45a4.22,4.22,0,0,0,1.17.11,5.64,5.64,0,0,0,2.42-.62,3.61,3.61,0,0,0,2.13-3c0-.67,0-1.34,0-2V83.17a1.28,1.28,0,0,1,.08-.68l-.26.29.11-.08-.82.36.19,0-1.1,0c.32.09.61.29.94.39a3.87,3.87,0,0,0,1,.16,5.73,5.73,0,0,0,2.35-.43,4,4,0,0,0,2.43-2.42,7.55,7.55,0,0,0,.13-2.07V61.17c0-2.52.18-5.41-2.31-6.94a8.12,8.12,0,0,0-4.39-.91h-4c-2.52,0-5,0-7.56,0a5.58,5.58,0,0,0-4.58,2.25c-.56.89-1.13,1.78-1.7,2.67q-2.84,4.47-5.66,8.93Q79,68.82,78,70.47A11.27,11.27,0,0,0,77.15,72a3.59,3.59,0,0,0,.47,3.49c1.62,2.21,5.1,1.93,7.08.38A8.71,8.71,0,0,0,86,74.41l1.52-1.88.62-.75c0-.07.3-.34.2-.27l-.81.37.14,0-.89.09L87,72l-.36-.12c.24.14.17.46.17.72v5.88c0,2.21,0,4.42,0,6.62a3.21,3.21,0,0,0,1.8,2.79,4,4,0,0,0,1.94.38A5.5,5.5,0,0,0,91.84,88a3.81,3.81,0,0,0,.51-.17c.13,0,1-.39.43-.22l-1.11,0c.3.08.16,1,.16,1.21a5.86,5.86,0,0,0,.08,1.45,3.5,3.5,0,0,0,3.56,2.51,2.21,2.21,0,0,0,1.6-.61c.32-.46-.27-.52-.6-.53-1.44,0-2.22-1.6-2.23-2.84,0-.51,0-1,0-1.53,0-.89-1.18-.79-1.81-.61-.31.09-.57.26-.87.36s0,0-.15,0a2.07,2.07,0,0,1-1-.37,2.71,2.71,0,0,1-1.18-1.89,9.19,9.19,0,0,1,0-1.39V71.87a3.08,3.08,0,0,0,0-.43c-.14-.84-1.3-.66-1.88-.5-1,.3-1.55,1.16-2.19,2S84,74.27,83.43,75c-.28.35-.62.85-1.09,1a2.5,2.5,0,0,1-1.91-.72,3.32,3.32,0,0,1-1.11-2.1A3.8,3.8,0,0,1,80,70.72c.31-.53.63-1,.95-1.55,1.19-1.9,2.38-3.78,3.58-5.67s2.5-3.94,3.76-5.91l1.17-1.85c.3-.47.62-1.05,1.18-1.24a4,4,0,0,1,1.2,0h9.25c1.73,0,3.6-.18,5,1s1.67,3.15,1.67,5V78.25a9.11,9.11,0,0,1-.19,3.13,2.37,2.37,0,0,1-.6.9,1.74,1.74,0,0,1-.36.24c.09,0,.2,0,0,0a10.53,10.53,0,0,1-1.23-.43,2.75,2.75,0,0,0-2,.3,1.15,1.15,0,0,0-.69,1.14V85a8.42,8.42,0,0,1-.16,2.79,2.38,2.38,0,0,1-.59.94c-.1.09-.24.15-.33.24s0,0-.1,0c.12-.06.22,0,.08,0s-.42-.05-.64-.13-.36-.19-.56-.27a2.63,2.63,0,0,0-1.94.2,1.33,1.33,0,0,0-.81.81,5.55,5.55,0,0,1-.24,1.13,2.37,2.37,0,0,1-.61.85,2.14,2.14,0,0,1-.32.2c.06,0,.29,0-.06,0a2.29,2.29,0,0,0-1.61.61C94.55,92.74,95.13,92.84,95.47,92.83Z"/><path class="cls-3" d="M96.73,90.89c-1.42-.06-1.68-1.39-1.68-2.53V73.28c0-.26-.58-.24-.71-.24h-.8c-.47,0-1.71.25-1.71.89v9.78A4.11,4.11,0,0,1,91.52,86s-.33.38-.35.35.67,0,0-.14a1.8,1.8,0,0,1-1.06-1,2.6,2.6,0,0,1-.17-1V68.09c0-.34-.86-.24-1-.22a2.22,2.22,0,0,0-1.3.58L83,74.29l-.21.26a3.44,3.44,0,0,1-.35.41c-.12.12-.36.2-.11.17-1.12.14-2-1.14-2.15-2.1a2.46,2.46,0,0,1,.37-1.54,9,9,0,0,1,.49-.83c.49-.8,1-1.61,1.5-2.41,2-3.1,3.92-6.18,5.88-9.27.68-1.07,1.33-2.18,2-3.22a1.61,1.61,0,0,1,.44-.46c.17-.11-.09,0,.13,0h.06c.34,0,.68,0,1,0h9.13a16.24,16.24,0,0,1,2.7.07c2.18.35,3.09,2.25,3.1,4.29,0,5.34,0,10.69,0,16v3.57a5,5,0,0,1-.15,1.92c-.1.23-.37.4-.45.6s.25-.14.28,0a1.81,1.81,0,0,1-.28-.06,1.86,1.86,0,0,1-1.17-1.32,5.88,5.88,0,0,1-.06-1.33v-5.7c0-.26-.58-.24-.71-.24h-.81c-.46,0-1.7.25-1.7.89V86.82c0,.09,0,.18,0,.28s-.52,1.27-.64,1.11.67.05,0-.14a1.66,1.66,0,0,1-.56-.33,1.91,1.91,0,0,1-.65-1.24,3.92,3.92,0,0,1,0-.59V73.28c0-.26-.57-.24-.71-.24h-.8c-.47,0-1.71.25-1.71.89V88.49c0,.34,0,.7,0,1a1.55,1.55,0,0,1,0,.22,1.89,1.89,0,0,1-.3.87c-.06.09-.16.16-.22.25l-.13.1q.45-.09.24-.09a2.29,2.29,0,0,0-1.61.61c-.31.44.27.54.61.53a4.09,4.09,0,0,0,3.62-2,3,3,0,0,0,.21-1.28c0-1,0-2.05,0-3.08V73.28l-1.71.89h.81l-.7-.24V86.6c0,4,6.59,3.16,6.66-.4,0-2.06,0-4.13,0-6.19V73.28l-1.71.89h.81l-.71-.24v3.94c0,1.3-.31,3.09.65,4.13,1.78,1.93,6,.41,6-2.21,0-.65,0-1.3,0-2V59.49a5.67,5.67,0,0,0-1-3.77c-1.17-1.44-3.07-1.59-4.79-1.59H94.1a14,14,0,0,0-3.3.16,4.33,4.33,0,0,0-2.63,1.62c-.32.48-.62,1-.93,1.45q-2.89,4.55-5.78,9.1L79.3,69.89c-.48.77-.88,1.35-1.23,2a2.84,2.84,0,0,0,.38,3.3,3.86,3.86,0,0,0,3.8.89A4.84,4.84,0,0,0,85,74.4c.34-.44.7-.86,1-1.29l3.18-3.91.67-.83-2.31.36v14c0,.75,0,1.5,0,2.25,0,2,1.93,2.71,3.64,2.39a3.77,3.77,0,0,0,2.85-2,3.11,3.11,0,0,0,.17-1.25V73.28l-1.71.89h.81l-.7-.24V89c0,.23,0,.47,0,.7A2.54,2.54,0,0,0,95.2,92a2.64,2.64,0,0,0,1.71-.46C97.25,91.28,97.25,90.91,96.73,90.89Z"/></g></g></svg>