<svg xmlns="http://www.w3.org/2000/svg" viewBox="0 0 199 199"><defs><style>.cls-1{fill:#e94e1b;}.cls-2,.cls-3{fill:#fff;}.cls-2{stroke:#fff;stroke-miterlimit:10;stroke-width:3px;fill-rule:evenodd;}</style></defs><g id="Calque_2" data-name="Calque 2"><g id="Layer_1" data-name="Layer 1"><circle class="cls-1" cx="99.5" cy="99.5" r="99.5"/><path class="cls-2" d="M102.09,55.37c0-4.59,0-9.14-.13-13.73a.7.7,0,0,0-.7-.7.74.74,0,0,0-.69.74c.1,4.55.16,9.1.13,13.65a.66.66,0,0,0,.66.7.7.7,0,0,0,.73-.66Z"/><path class="cls-2" d="M124.32,61.35c2.32-4,4.54-7.94,6.77-12a.69.69,0,0,0-.3-.93.67.67,0,0,0-.93.27c-2.19,4-4.41,8-6.74,11.9a.71.71,0,0,0,.27,1,.68.68,0,0,0,.93-.23Z"/><path class="cls-2" d="M79.84,61.31c-2.26-4-4.62-7.9-7-11.79a.75.75,0,0,0-1-.27.7.7,0,0,0-.23,1C74,54.14,76.35,58,78.61,62a.71.71,0,0,0,1,.27.76.76,0,0,0,.27-1Z"/><path class="cls-3" d="M31.67,111.32c7.84,4,14.6,9.66,22.11,14.17,1.2.72,3.2.13,4.28-.55.91-.58,1.73-1.69.51-2.42-7.51-4.51-14.27-10.18-22.1-14.17a4.77,4.77,0,0,0-4.28.55c-.84.53-1.8,1.76-.52,2.42Z"/><path class="cls-3" d="M99.46,85.71,97,84c-1.47-1-2.3-1.51-4.29-1.06-1.22.28-2.43.61-3.64.91l-15.2,3.78-3,.74-.91.23c-.37.09-.59,0,.25-.07l1.43,0c.68.21,0-.06-.23-.16L70,87.71l-4.89-2.49L54.23,79.68l-2.57-1.31a4.8,4.8,0,0,0-4.28.55c-.83.53-1.8,1.75-.52,2.4l18.46,9.41a9.35,9.35,0,0,0,3,1.23,11.29,11.29,0,0,0,4-.62L84,88.41l9.48-2.36L90.71,86l4,2.67c1.66,1.12,7.22-1.31,4.8-3Z"/><path class="cls-3" d="M94.48,140.29a5.55,5.55,0,0,1-.78,6.53l-2.58,3.27a.74.74,0,0,0,0,1,8.86,8.86,0,0,0,2.45,2.54,7.36,7.36,0,0,0,5.39.59c3.3-.76,7.15-3.74,6-7.57-.52-1.64-2-3.17-3-4.53l-1.94-2.6c-.21-.28-.4-.59-.63-.86s-.16-.16-.06-.28l-1.29.93.25-.12-1.9.38c-.78,0-.59-.31-.33.18a9.76,9.76,0,0,0,.85,1.15L99.21,144c1.24,1.67,2.48,3.94,4.23,5.13,3.74,2.56,10.69.31,11.75-4.28.61-2.64-1.38-4.71-2.84-6.66l-2.83-3.82-1-1.38c-.23-.3-.34-.34-.21-.48l-1.3.92.25-.12-1.89.38c-.73,0-.62-.3-.29.24a12.2,12.2,0,0,0,.85,1.15l2.45,3.29c1.18,1.6,2.41,3.8,4.08,4.94,3.76,2.56,10.9.26,11.77-4.45.49-2.65-1.53-4.71-3-6.67l-2.84-3.82-1-1.33c-.24-.31-.38-.38-.25-.53l-1.29.93.25-.12-1.9.38c-.85,0-.56-.33-.35.15a5.46,5.46,0,0,0,.68.92l2,2.7c1.06,1.44,2.12,2.88,3.2,4.31,2.49,3.3,7.08,3.18,10.36,1,2.88-1.87,4.68-6.28,2.66-9.38-.85-1.31-5.55.25-4.49,1.87.79,1.22.47,2.94,0,4.23-.26.75-.9,2.13-1.73,2.14-1.43,0-2.58-2.09-3.36-3.14l-3.73-5c-.41-.56-.8-1.16-1.25-1.69-.92-1-2.5-1-3.72-.54s-3,1.61-2,3.12c.28.44.62.84.93,1.26l3.72,5c1,1.29,2.35,2.72,2.24,4.43-.06.88-.77,2.55-1.71,2.56s-1.93-1.21-2.49-2c-1.95-2.6-3.73-5.43-5.86-7.88-1.65-1.91-7.43-.08-5.71,2.57.84,1.29,1.84,2.48,2.76,3.71,1,1.39,2.08,2.76,3.09,4.17a3.92,3.92,0,0,1,.87,3c-.17.94-.92,2.43-2,2.13-1.44-.41-2.47-2.3-3.32-3.45l-3.73-5a13.22,13.22,0,0,0-1-1.41c-1.12-1.19-3.2-.78-4.48-.09s-1.89,1.65-1.08,2.86c.41.6.88,1.18,1.31,1.76,1.09,1.48,2.22,2.94,3.29,4.43a3.85,3.85,0,0,1,.73,3.51c-.37,1.13-1.1,2-2.2,1.48a6.64,6.64,0,0,1-2.27-2.35v1c2.56-3.24,6.06-6.77,3.7-11.16-.86-1.6-5.53,0-4.83,1.29Z"/><path class="cls-3" d="M146.57,78.73l-19.44,10-2,1c-.65.34-1.64.51.25-.09l3-.57c.55,0,0,0-.13-.07-.4-.11-.81-.2-1.21-.3l-3.82-1-10.51-2.61c-2.31-.58-4.63-1.26-7-1.73-2.59-.53-5.36,1.14-7.64,2.18-3,1.37-6,2.85-8.85,4.49-2.68,1.54-5.3,3.3-7.86,4.94a28.07,28.07,0,0,0-6.93,6.06c-1.3,1.63-2.83,4-2.59,6.18.28,2.52,3.44,2.57,5.36,2.4a28.57,28.57,0,0,0,9.37-2.79c2.68-1.25,5.11-3.24,7.83-4.17,1-.35-.55.17.45-.13s-.56.07.38-.08a14.5,14.5,0,0,1,1.74-.21c.65,0,1.32,0,2,0a7.3,7.3,0,0,1,.94.07,4.44,4.44,0,0,1,1.53.78,79.64,79.64,0,0,1,7.7,5.56,83.76,83.76,0,0,1,7.57,7.14,65.46,65.46,0,0,1,5.2,5.85l5.55,7.47c.42.57,1.5.35,2.06.27a10.14,10.14,0,0,0,3.26-1.06c4.3-2.23,8.64-4.4,12.91-6.71,5.1-2.77,10.14-5.68,15.2-8.52l6-3.33c1-.56.76-1.16-.31-1.18a8.77,8.77,0,0,0-4.27,1.14c-8.64,4.84-17.22,9.8-26,14.37l-8.08,4.2,5.31-.79c-2-2.65-3.85-5.38-5.91-7.95a84.38,84.38,0,0,0-18-16.82c-1-.65-1.91-1.28-2.88-1.9a5.57,5.57,0,0,0-2.89-.85,28.1,28.1,0,0,0-6.48.23,31.78,31.78,0,0,0-11.9,4.57,19.44,19.44,0,0,1-4.59,2.33c.22-.07-1,.26-.37.12a5.72,5.72,0,0,1-.57.11c.14,0,.46,0,0,0,.47,0-.4,0-.24,0a3.69,3.69,0,0,1-.6-.13c-3.3-1.24.76-6.69,2-8.07,3.09-3.41,7.31-5.81,11.21-8.15a108.48,108.48,0,0,1,12.48-6.25l-4.21.8,21.23,5.28a8.48,8.48,0,0,0,4,.38,16.91,16.91,0,0,0,4.69-1.89l11.39-5.87,9.21-4.75c1-.53.73-1.16-.32-1.18a9.22,9.22,0,0,0-4.26,1.14Z"/><path class="cls-3" d="M85.53,138.81,81.47,144a7.17,7.17,0,0,0-1.93,4.48,6.66,6.66,0,0,0,4.59,6.05,7.76,7.76,0,0,0,7.72-1.61A21.55,21.55,0,0,0,94,150.37l2.57-3.26A8.65,8.65,0,0,0,98.7,143c.42-3-1.74-5.67-4.43-6.68a7.87,7.87,0,0,0-8.74,2.49,1.45,1.45,0,0,0,.64,2.38,3.27,3.27,0,0,0,3.42-.91,2.62,2.62,0,0,1,.82-.76c-.42.27.18-.06.24-.08-.56.23,0,0,.16,0-.62.13,0,0,.14,0-.56,0,.06,0,.16,0,.55.06-.36-.2.27.08a4.76,4.76,0,0,1,.68.33,3.42,3.42,0,0,1,1.6,4,7.52,7.52,0,0,1-1.35,2l-2.2,2.78c-.46.59-.92,1.19-1.39,1.77,0,.05-.48.55-.26.33a4.25,4.25,0,0,1-.53.42c.42-.29-.13.05-.2.09.53-.27,0,0-.14,0,.58-.18,0,0-.11,0-.57.06.41.11-.14,0l-.38-.07c.27.07.25.05-.06,0a3.63,3.63,0,0,1-2.4-3.87,4.9,4.9,0,0,1,1.2-2.1l3.89-4.93a1.46,1.46,0,0,0-.64-2.39A3.25,3.25,0,0,0,85.53,138.81Z"/><path class="cls-3" d="M84.25,144.34q2.2-2.81,4.42-5.6a11.91,11.91,0,0,0,2.45-3.8c.8-2.68-.86-5.31-3.24-6.48a8.52,8.52,0,0,0-9.2,1.67,26.5,26.5,0,0,0-2.08,2.52l-3.09,3.91a17.2,17.2,0,0,0-2.08,2.89,5.53,5.53,0,0,0,3,7.46c3.37,1.54,7.54.18,9.83-2.57C85,143.45,83.62,143,83,143a4.19,4.19,0,0,0-3.2,1.29c-.2.25-.62.54-.71.67s-.1.07,0,0,.39-.11.1,0,.08,0,.12,0c.32,0,0,0-.15,0s0,0,0,0-.21,0-.31-.06-.37-.13-.56-.21a4.51,4.51,0,0,1-1.32-.93,4,4,0,0,1-.32-5.4c1.35-1.79,2.78-3.53,4.17-5.29.52-.66,1-1.33,1.57-2a4.25,4.25,0,0,1,.35-.39,1.86,1.86,0,0,1,.38-.3c-.17.11-.07,0,0,0s.14-.07-.08,0l-.21,0s.36,0,.14,0h.14c-.23-.07.27.06.34.08a4.15,4.15,0,0,1,1.31.7,4,4,0,0,1,.89,5.69c-.48.65-1,1.27-1.5,1.91l-4.36,5.52c-.7.9.61,1.32,1.29,1.33A4.17,4.17,0,0,0,84.25,144.34Z"/><path class="cls-3" d="M75.49,137.3l4.79-6.07a9.46,9.46,0,0,0,2.16-3.5,5.39,5.39,0,0,0-3.52-6.12c-2.94-1.18-6.9-.11-9.13,2a31.3,31.3,0,0,0-2.67,3.3l-1.71,2.16a34.49,34.49,0,0,0-2.56,3.35c-1.71,2.85-.1,6.17,2.77,7.42,3.21,1.4,7.68.09,9.87-2.56.67-.82-.6-1-1.18-.91a5,5,0,0,0-3.22,1.18c-.11.14-.89,1.05-1,1a5.61,5.61,0,0,1,.65-.19c.46-.1.15,0,0-.06a4.66,4.66,0,0,1-2.59-1.52,4.25,4.25,0,0,1-.23-5.48c1.09-1.48,2.28-2.9,3.43-4.35l2.22-2.83c.15-.18.3-.37.47-.54a4.38,4.38,0,0,1,.45-.41c.31-.25.1,0-.17,0l-.3,0c-.34,0-.4.06-.2,0,0,0,.21,0,0,0,.14,0,.29,0,.43.06a4.58,4.58,0,0,1,2.94,6.46,15.25,15.25,0,0,1-1.5,2l-4.58,5.8c-.65.83.58,1,1.17.91C73.21,138.43,74.84,138.11,75.49,137.3Z"/><path class="cls-3" d="M66.59,131.28c1.11-1.4,2.33-2.77,3.31-4.26a5.94,5.94,0,0,0,.35-6.27,7.19,7.19,0,0,0-5.43-3.52,8,8,0,0,0-6.66,2.52c-.69.73-1.27,1.57-1.89,2.36-.44.55-.89,1.11-1.32,1.67a6.22,6.22,0,0,0-1.31,5.81,7.16,7.16,0,0,0,5.77,4.6,8,8,0,0,0,7.18-2.91,1.44,1.44,0,0,0-.63-2.37,3.33,3.33,0,0,0-3.42.92c-.14.17-.28.33-.43.49.32-.33-.15.1-.18.13-.43.4.4-.15-.11.08l-.16.08c-.26.11-.22.1.13,0a2.17,2.17,0,0,1-.5.13s.67,0,.16,0H61.4c-.06.06-.89-.17-.26,0A3.84,3.84,0,0,1,58.39,128c0-.15-.07-.3-.1-.45-.1-.46,0,.18,0-.28a5.44,5.44,0,0,1,0-.58s.14-.59.06-.32a3.69,3.69,0,0,1,.76-1.35l1.08-1.37,1.56-2c.12-.14.24-.27.35-.41.38-.48-.28.17.18-.17l.31-.24c-.45.35,0,0,.11,0,.5-.29-.52.1,0,0s0-.07,0,0l.34,0c.26,0,.22,0-.12,0,.06-.06.32.06.41,0,.26,0-.43-.17,0,0a3.68,3.68,0,0,1,1,.44,3.8,3.8,0,0,1,1.44,1.64c-.14-.3.09.26.09.26a4.61,4.61,0,0,1,.15.53,1.59,1.59,0,0,1,0,.76,3.14,3.14,0,0,1-.68,1.74c-1,1.21-1.92,2.43-2.88,3.65a1.43,1.43,0,0,0,.63,2.36A3.29,3.29,0,0,0,66.59,131.28Z"/></g></g></svg>