<svg xmlns="http://www.w3.org/2000/svg" viewBox="0 0 199 199"><defs><style>.cls-1{fill:#e94e1b;}.cls-2{fill:#fff;}</style></defs><g id="Calque_2" data-name="Calque 2"><g id="Layer_1" data-name="Layer 1"><circle class="cls-1" cx="99.5" cy="99.5" r="99.5"/><path class="cls-2" d="M49.09,159.46V68.11c0-1.21.1-2.49,0-3.7a1,1,0,0,1,0-.17l-4,2.07H64.35l-1.8-1.4v54.41c0,2.24,3.6,1.31,4.73.62l25.78-15.87,3.69-2.27L92,101.18v18.14c0,2.26,3.6,1.28,4.73.62L122.59,105l3.63-2.1-4.72-.62v17c0,2.44,4.24,1.23,5.25.22l22.31-22.31,3.19-3.2L147,93.81v66.32c0,1.31,1.48,1.5,2.54,1.38.88-.1,3.27-.79,3.27-2V93.15c0-2.44-4.24-1.23-5.25-.22l-22.31,22.31-3.19,3.19,5.25.22v-17c0-2.26-3.6-1.28-4.73-.62l-25.84,14.9L93.1,118l4.73.62V100.52c0-2.24-3.6-1.32-4.73-.63L67.32,115.76,63.63,118l4.73.62V64.24c0-1-.89-1.41-1.81-1.41H47.28c-1,0-4,.54-4,2.08v83.48c0,3.86,0,7.72,0,11.57a1,1,0,0,1,0,.17c0,1.31,1.48,1.5,2.54,1.38.88-.1,3.28-.79,3.28-2Z"/><path class="cls-2" d="M61.26,58.14a8.66,8.66,0,0,1-3.66-8.57,9.57,9.57,0,0,1,.83-2.45s.2-.35,0-.09l.17-.27c.12-.19.24-.36.37-.54s.26-.34.4-.5.55-.58.17-.22a12,12,0,0,1,1-.8c.45-.35-.49.27,0,0,.14-.07.85-.43.31-.19s.11,0,.24-.09a2.33,2.33,0,0,0,.28-.11s-.85.24-.47.16c.2,0,.4-.1.59-.15.37-.12-.52.1-.48.1a1.76,1.76,0,0,0,.39-.06c.55-.1-.76,0,0,0,.16,0,1,.06.51,0s.28,0,.41.06l.7.14c.29.05-.13,0-.15,0l.39.12c.23.08.46.17.68.27l.67.32.14.07.31.2c1.33.9,3.36.52,4.75-.08a4.75,4.75,0,0,0,2-1.31c.26-.35.52-1,0-1.32C67.15,39.63,60.69,40.13,56,43c-4.07,2.52-6.68,7.09-5.52,11.93a10.25,10.25,0,0,0,4,5.88c1.3.92,3.38.5,4.75-.08.54-.24,3.3-1.72,2-2.63Z"/><path class="cls-2" d="M64.82,41.49a9.4,9.4,0,0,1,.66-3.6c.14-.32.28-.63.45-.94,0-.11.5-.81.18-.33A12.12,12.12,0,0,1,67.4,35c-.41.42.07-.05.24-.19s.47-.35.7-.54.32-.22-.06,0l.39-.22.93-.46c.71-.34-.65.15.18-.06l.88-.23q.65-.14-.09,0l.62-.07.94,0c-.75,0,.18,0,.31,0,.36,0,.71.1,1.06.17s.2,0-.1,0l.57.18c.28.1.56.2.84.32.1.05.82.4.35.15a10.47,10.47,0,0,1,1,.63c.23.17.47.35.69.54,0,0,.68.6.33.26a10,10,0,0,1,1.3,1.6c.16.24.31.49.46.75,0,0,.38.8.21.4A10.62,10.62,0,0,1,80,42c0,1.79,1.72,2.71,3.39,2.56,1.46-.14,4-1.18,4-3a13.78,13.78,0,0,0-9.13-12.94,16.24,16.24,0,0,0-17.36,4.57A13.93,13.93,0,0,0,57.46,42c0,1.8,1.77,2.71,3.4,2.56s3.94-1.17,4-3Z"/><path class="cls-2" d="M87.31,39.75a19.58,19.58,0,0,1,3.4-10.93,18.69,18.69,0,0,1,3.67-4,16.85,16.85,0,0,1,2.05-1.4,6.53,6.53,0,0,1,.77-.4l.6-.28c.67-.3-.36.13.4-.15.14-.05.7-.23,0,0l.65-.18c.14,0,.71-.15,0,0l.67-.13c.08,0,.65-.08.12,0l.68-.07a13.14,13.14,0,0,1,1.32,0,17.32,17.32,0,0,1,5.29.94,19.45,19.45,0,0,1,9,6.43A20.23,20.23,0,0,1,120,41.69c0,1,7.26,0,7.24-1.94a20.69,20.69,0,0,0-14.55-19.43,26.14,26.14,0,0,0-15.07.23,25.93,25.93,0,0,0-12.57,7.66,20.8,20.8,0,0,0-5,13.48c0,1,7.23.05,7.25-1.94Z"/><path class="cls-2" d="M82.39,149.64H67.32l1,.44v-7.67l-4.77,2H78.65l-1-.44v7.68c0,1,5.8.17,5.8-1.56v-7.67c0-.35-.88-.45-1-.45H67.32a8.14,8.14,0,0,0-3.22.66c-.54.22-1.55.63-1.55,1.34v7.68c0,.35.88.44,1,.44H78.65a7.5,7.5,0,0,0,4.1-1.1c.26-.18.77-.51.67-.9S82.66,149.64,82.39,149.64Z"/><path class="cls-2" d="M107.27,149.64H92.2l1,.44v-7.67l-4.76,2h15.06l-1-.44v7.68c0,1,5.8.17,5.8-1.56v-7.67c0-.35-.88-.45-1-.45H92.2a8.06,8.06,0,0,0-3.21.66c-.54.22-1.55.63-1.55,1.34v7.68c0,.35.88.44,1,.44h15.06a7.46,7.46,0,0,0,4.1-1.1c.27-.18.77-.51.67-.9S107.55,149.64,107.27,149.64Z"/><path class="cls-2" d="M132.16,149.64H117.09l1,.44v-7.67l-4.77,2h15.07l-1-.44v7.68c0,1,5.79.17,5.79-1.56v-7.67c0-.35-.87-.45-1-.45H117.09a8.14,8.14,0,0,0-3.22.66c-.54.22-1.55.63-1.55,1.34v7.68c0,.35.88.44,1,.44h15.07a7.5,7.5,0,0,0,4.1-1.1c.26-.18.77-.51.66-.9S132.43,149.64,132.16,149.64Z"/></g></g></svg>