<svg xmlns="http://www.w3.org/2000/svg" viewBox="0 0 199 199"><defs><style>.cls-1{fill:#e94e1b;}.cls-2{fill:#fff;}</style></defs><g id="Calque_2" data-name="Calque 2"><g id="Layer_1" data-name="Layer 1"><circle class="cls-1" cx="99.5" cy="99.5" r="99.5"/><path class="cls-2" d="M60.09,114c-1.5-.45-4.69-.17-5.14,1.68a16.09,16.09,0,0,0-.05,3.54v35.14a36.22,36.22,0,0,1,0,4.66,2.39,2.39,0,0,1-.64,1.39c.23-.24.75.34-.17-.18a3.51,3.51,0,0,1-.66-.42c-1-.92-.85-2.62-.85-3.83,0-2.93,0-5.85,0-8.78v-9.77a37,37,0,0,0,0-4.59c-.16-1.23-1.41-1-2.37-1-.59,0-2.78.41-2.78,1.27q0,8,0,16c0,2.68.13,5.42-.07,8.1a17.48,17.48,0,0,1-.24,1.91c-.06.32-.47,1-.47,1.34l-.08.12c.8-.11,1-.18.52-.22a5.41,5.41,0,0,0-.64-.17A2.73,2.73,0,0,1,45.05,159c-.52-1-.28-2.41-.29-3.49l0-4.23c0-2.74,0-5.47-.06-8.21,0-5.49,0-11,.06-16.48,0-3,.07-5.95,0-8.92,0-.9.24-2.37-.17-3.2s-1.89-.54-2.62-.44c-.52.07-2.25.45-2.3,1.2-.27,4-.07,8-.1,12a22.08,22.08,0,0,1-.1,2.7,6.93,6.93,0,0,1-.31,1.42,5.79,5.79,0,0,0-.4.84l1.28-.34a1.43,1.43,0,0,1-.53-.17,1.24,1.24,0,0,1-.54-.57,6.1,6.1,0,0,1-.36-2.68c-.09-3.9,0-7.8,0-11.7,0-2.81-.53-6.33,1-8.88,1.31-2.25,3.94-1.77,6.22-1.8,1.82,0,3.64,0,5.46,0,2.17,0,4.36-.11,6.41.73,3.55,1.45,3.72,4.92,3.74,8.33q0,6,0,11.93c0,1.08.06,2.19,0,3.27a5.51,5.51,0,0,1-.26,1.32,2.74,2.74,0,0,1-.23.53c-.47.53,0,.43,1.25-.33,0-.06-.55-.16-.66-.24a2.21,2.21,0,0,1-.69-1.15,9.69,9.69,0,0,1-.28-2.89c0-4.45,0-8.89,0-13.34,0-.57-3.86,0-3.86,1v7.42c0,2.47-.16,5,0,7.49.14,1.72.85,3.1,2.71,3.21,1.63.09,4.11-.3,5.16-1.7s.72-4.16.73-5.91c0-2.57,0-5.13,0-7.7a51,51,0,0,0-.25-7.72,5.78,5.78,0,0,0-2.54-4.27A12.18,12.18,0,0,0,56,104.6c-2.57-.06-5.13-.11-7.7-.07-3.68.06-8,0-11.09,2.39-2.61,2-2.46,5.45-2.47,8.43,0,5-.27,10.11.05,15.12.14,2.16,1.27,3.07,3.44,2.93,2-.11,4.2-.88,4.81-2.92.72-2.44.41-5.2.41-7.71,0-2.84-.1-5.7.09-8.53l-2.3,1.2c-.65.09-.45.24-.41.76,0,.68,0,1.38.06,2.06q.06,2.2.06,4.41c0,3,0,6-.06,9q-.06,9,0,18c0,3,0,6,.07,8.95.09,2.28,1.81,3.39,4,3.41,1.88,0,4.7-.57,5.65-2.41a8.69,8.69,0,0,0,.6-3.11c.13-1.52.07-3.06.07-4.58,0-6.58,0-13.15,0-19.72l-2.78,1.26c.63,0,.06-.18.13.12a4.91,4.91,0,0,1,.09.77c0,.66,0,1.32,0,2v13.2c0,2.88-.12,5.79,0,8.67a4.08,4.08,0,0,0,.94,2.86,4,4,0,0,0,3.18.89c1.93-.13,5-.92,5.74-3a9.15,9.15,0,0,0,.2-3.09V116.12c0-.39-.15-1.33.21-1.6l-1.08.57c-1.42.1-1.74.24-1,.41a4.33,4.33,0,0,0,2.7-.51C60,114.82,60.91,114.28,60.09,114Z"/><path class="cls-2" d="M46.85,93c-.72-.24-2.25-.47-2.62-1.24-.26-.52.25-.88.36-1.32.11-.1.11-.12,0-.06-.37.13-.39.14,0,0a7.31,7.31,0,0,0,.78-.18,3.09,3.09,0,0,0,2-1.11c.21-.37.3-.8.51-1.17a2.71,2.71,0,0,1,.27-.38,2.65,2.65,0,0,0-.59.21c.18-.2,1.32-.21,1.59-.24a3.13,3.13,0,0,1,2.75.9,7.39,7.39,0,0,1,.8,1.43c.3.57,1,.51,1.62.61.89.16,1.87.57,1.91,1.63s-.55.91-1.3,1.1c-.34.09-2,.62-1.74,1.25a5.82,5.82,0,0,1,.2,4.89,4.66,4.66,0,0,1-1.56,1.77c-.47.3-.58.31-1.3.18A4.83,4.83,0,0,1,47,98.64a7.4,7.4,0,0,1,.17-5.08c.3-1-3.5-.49-3.83.61-.59,2-1,4.28.13,6.13a6.57,6.57,0,0,0,5.85,2.89,9.19,9.19,0,0,0,7.29-3.55A6.26,6.26,0,0,0,57,93.47l-1.74,1.25c1.7-.44,4.65-1.09,4.76-3.3s-2.56-2.52-4.17-2.79l.7.37a4.71,4.71,0,0,0-2.25-2.71,9,9,0,0,0-4.63-.38,9.7,9.7,0,0,0-4.5,1.33,5.34,5.34,0,0,0-1.69,2.54l1.72-1c-1.85.52-4.27,1-4.82,3.18-.46,1.84,2.1,2.32,3.35,2.76a3.85,3.85,0,0,0,2.71-.45C46.83,94,47.69,93.34,46.85,93Z"/><path class="cls-2" d="M62.78,75Q66.11,62,69.45,48.91c.15-.56-.41-1-.85-1.2l-.43-.17a2.51,2.51,0,0,0-3,1.09,36.29,36.29,0,0,0-2,6q-.91,3.12-1.81,6.24c-.28,1-.62,1.9-.92,2.85-.09.25-.35.35,0,.31a.75.75,0,0,1-.56-.23c-.51-.48-.26-1.32-.12-1.9.27-1.12.65-2.22,1-3.32C62,54.4,63,50.13,64.4,46.06a5.68,5.68,0,0,1,2.41-3.24c1.45-.77,3.4-.46,5-.48q7.17-.08,14.35-.07c.94,0,2.36-.86,2.09-2s-.65-2.46-1-3.68c-.23-.76-.46-1.53-.65-2.3a5.5,5.5,0,0,1-.2-1,2.82,2.82,0,0,0,.07-.47c-.14-.23.06.17-.18,0s.24.21.23.21a4.25,4.25,0,0,1,.84,1.46c.45,1.44.88,2.88,1.31,4.32a25,25,0,0,1,1.2,4.22c0,.39-.07.76-.06,1.15s-.25.3,0,.13.17,0-.1-.09a21.46,21.46,0,0,0-4.39,0c-1.41,0-2.8,0-4.2.11-1,.06-2.32.82-2.1,2l5.64,29.27,2.09-2H80c-.78,0-2.12.67-2.12,1.59,0,3.93,0,7.86,0,11.8,0,1.95,0,3.9,0,5.85a12.85,12.85,0,0,1-.16,2.7c0,.25-.18,1-.43,1.22.1-.08.29-.09.2-.17-1.22-1-1.09-2.25-1.08-3.78,0-2,0-3.94,0-5.91V75.07a1.32,1.32,0,0,0-1.3-1.3L73.7,73.7c-.88,0-2.62.37-2.62,1.58V87.21c0,2,0,4,0,6a14.23,14.23,0,0,1-.14,2.69,2.08,2.08,0,0,1-.22.8s.26,0,0,0c-1.46-.35-1.09-2.66-1.09-3.81v-5.9c0-4,0-7.93,0-11.89,0-1-.93-1.32-1.8-1.32H61a2.17,2.17,0,0,0-2.12,1.59c-.1,1,1,1.32,1.8,1.32h6.83l-1.8-1.32c0,4.95,0,9.9,0,14.85,0,2.13-.41,4.83.32,6.89a4.09,4.09,0,0,0,4.28,2.5,4.58,4.58,0,0,0,4.29-2.82c.75-2.09.41-4.62.42-6.79C75,85,75,80,75,75l-2.62,1.58,1.41.06-1.3-1.31c0,5,0,9.89,0,14.83,0,2.06-.44,4.65.3,6.63a4.24,4.24,0,0,0,4.26,2.76c5.28-.19,4.74-6.11,4.75-9.87,0-4.91,0-9.82,0-14.72l-2.12,1.59h6.68c1,0,2.31-.86,2.09-2Q85.63,60,82.82,45.32l-2.09,2c2.17-.12,4.35-.13,6.52-.12,1.85,0,3.77.2,5.25-1.1a4.27,4.27,0,0,0,1.18-4,48,48,0,0,0-1.88-6.49c-.56-1.84-.9-3.88-2.68-5a4.88,4.88,0,0,0-5.18.28,3.82,3.82,0,0,0-1.31,4.22c.47,2.1,1.22,4.12,1.72,6.21l2.1-2c-5.27,0-10.55,0-15.82.09a11.47,11.47,0,0,0-6.17,1.37,9.08,9.08,0,0,0-3.7,4.58c-.9,2.41-1.48,5-2.2,7.44-.77,2.67-1.56,5.33-2.34,8-.57,2-1,4.15,1,5.42a5.05,5.05,0,0,0,6.06-.79,7.44,7.44,0,0,0,1.54-3.24c.43-1.45.85-2.91,1.27-4.37.84-2.91,1.47-6,2.81-8.73l-3,1.09.43.16-.86-1.19Q62.2,62.23,58.86,75.29c-.25,1,1.11,1.36,1.8,1.32A2.26,2.26,0,0,0,62.78,75Z"/><path class="cls-2" d="M69.61,30.53a5.56,5.56,0,0,1,.08-.81c0-.13,0-.26.07-.39s.1-.37,0-.17a6.2,6.2,0,0,1,.64-1.36c-.13.18.17-.22.15-.19l.2-.24c.1-.11.2-.22.31-.32-.24.23-.06.05,0,0s.4-.3.61-.44c-.35.23-.07,0,0,0l.48-.22c-.06,0-.42.13-.07,0l.45-.12c.13,0,.32,0-.07,0,.13,0,.26,0,.39,0s.46,0,.06,0l.32,0,.47.07c-.3-.06.07,0,.16.06l.37.13c.06,0,.37.17.13.05a5.84,5.84,0,0,1,.68.41,3.78,3.78,0,0,1,1,.93,5.12,5.12,0,0,1,1.17,2.82,5.2,5.2,0,0,1-.08,1.33,4.73,4.73,0,0,1-.55,1.37s-.16.26,0,0l-.23.31-.25.29s-.35.35-.16.17-.19.16-.18.15l-.25.19c-.07,0-.51.3-.1.08-.14.07-.28.15-.42.21l-.29.12c.48-.2,0,0-.1,0l-.3.08c-.5.13.4,0-.11,0l-.33,0c-.5.05.22,0-.08,0l-.41,0s-.54-.09-.19,0a4.35,4.35,0,0,1-2.58-1.63,4.76,4.76,0,0,1-1-2.95c0-.93-1-1.32-1.78-1.23s-2.12.58-2.13,1.54a7,7,0,0,0,4.69,6.66,8.54,8.54,0,0,0,9.09-2.41,6.86,6.86,0,0,0,.63-8.2,7.6,7.6,0,0,0-8.2-3.19,7.86,7.86,0,0,0-6.21,7.14c0,.94,1,1.33,1.78,1.24S69.57,31.5,69.61,30.53Z"/><path class="cls-2" d="M105.9,50c.29,1.26.47,2.66,1.42,3.62a4.16,4.16,0,0,0,3.18,1.09,14.28,14.28,0,0,0,4.5-1.31c1-.37,1.6.73,1.44,1.77-.24,1.61-1.27,3-1.78,4.5a8.38,8.38,0,0,0-.26,4.3c.53,2.59,2,4.85,4.53,5.69,1,.35,3.47,0,3.47-1.44,0-1.62-.06-3.24.08-4.86a27.62,27.62,0,0,1,.93-4.76,23.84,23.84,0,0,0,.35-9.48l-2.2,1.57a4.27,4.27,0,0,1,3.84,1.86c1.1,1.41,1.23,3.3,1.33,5,.23,4.42.09,8.9,0,13.33,0,1,0,2-.11,3a8.18,8.18,0,0,1-.1,1.1,2.21,2.21,0,0,1-.17.57,3.52,3.52,0,0,0,.64-.09c0,.07-.67-.59-.68-.61A3.65,3.65,0,0,1,126,73.9a12.48,12.48,0,0,1-.21-3c0-4.3,0-8.6,0-12.9,0-.46-.89-.57-1.18-.57H123c-.94,0-2.69.42-2.69,1.6v41.62c0,1,.16,2.29-.45,3.16a.52.52,0,0,1-.19.2c-.15.09.27-.07,0,0a1.51,1.51,0,0,1-.9-.22c-.72-.48-.75-1.52-.77-2.28,0-1.46,0-2.92,0-4.38,0-2.76,0-5.52,0-8.28V79.58c0-.92.28-2.32-.14-3.17s-1.93-.9-2.83-.72-2.2.52-2.2,1.57c0,4.62,0,9.24,0,13.87q0,3.47,0,7c0,1,0,2-.11,3.07-.05.53-.12,1.06-.21,1.58a8,8,0,0,0-.33,1.3c0,.06-.12.12-.11.17,0-.11.52-.09.38-.19s-.58,0-.78-.06a1.88,1.88,0,0,1-1.35-1.48,30.9,30.9,0,0,1-.19-6.38q0-7,0-14V61.48c0-1.75.4-3.9-1.93-4a3.87,3.87,0,0,0-2.67,1,3.13,3.13,0,0,0-.57,2.43c0,2.27,0,4.55,0,6.82a33.58,33.58,0,0,1-.2,6.5c-.1.44-.34.91-.41,1.35,0,.27-.61.49.23.14s.3,0,.13-.29-.35-.35-.47-.61a3.49,3.49,0,0,1-.21-1.36c-.13-5,0-10,0-15,0-2-.24-4.37.76-6.2.7-1.27,2-1.5,3.34-1.79.56-.11,1.88-.69,1.67-1.47s-1.66-.54-2.18-.43c-2.79.59-5.67,1.67-6.83,4.48a14.52,14.52,0,0,0-.62,5.57c0,2.26,0,4.51,0,6.77V72c0,1.53-.38,3.67.87,4.85s3.32,1,4.74.48a4.52,4.52,0,0,0,2.85-3.63c.47-2.24.2-4.75.2-7,0-1.3,0-2.6,0-3.9V61.08a9.11,9.11,0,0,1,0-2.15l-1.29.64.18,0-1.44.08a35.78,35.78,0,0,1,0,4.16V94.88a57.6,57.6,0,0,0,.15,8.31c.32,2.17,2.4,3,4.38,3s4.33-.6,5.2-2.5c1-2.19.7-5.15.71-7.49,0-6.65,0-13.31,0-20l-2.2,1.57c-.86.17-.22-.48-.37.09a2.35,2.35,0,0,0,0,.53c0,.65,0,1.3,0,2V85c0,3,0,6,0,9s-.16,6,0,8.94c.14,2.06,1.63,3.08,3.59,3.2s4.6-.54,5.8-2.34a5.28,5.28,0,0,0,.67-3c0-1.44,0-2.89,0-4.34V58l-2.68,1.6h1.55L121.88,59c0,4.39,0,8.77,0,13.16,0,1.58,0,3.61,1.3,4.75s3.33.94,4.79.33a3.84,3.84,0,0,0,2.53-3.55c.15-2.17.13-4.36.13-6.54s0-4.5,0-6.74a33.11,33.11,0,0,0-.37-6.6c-.78-3.79-4.53-5.78-8.19-5.23-.68.1-2.35.57-2.2,1.57a23.29,23.29,0,0,1-.6,9.86,34.93,34.93,0,0,0-.75,9.24L122,67.85A4.12,4.12,0,0,1,119.5,66a8.79,8.79,0,0,1-1.38-4,9.33,9.33,0,0,1,1.21-4.6,6.89,6.89,0,0,0,1-3.86c-.44-2.66-3.87-2.68-5.84-2-.85.29-2.38,1.33-3.14,1C110.14,52,110,50.1,109.76,49,109.46,47.69,105.58,48.67,105.9,50Z"/><path class="cls-2" d="M112,42.61a6.36,6.36,0,0,1,.2-1.56c.06-.25-.13.3,0-.1,0-.11.09-.22.13-.33l.15-.31c0-.05.27-.47.16-.3l.11-.16.21-.26.23-.24c-.3.33,0,0,.06-.05l.21-.16.11-.08-.08,0c.13-.17.49-.23.67-.33s-.48.13,0,0l.41-.1c.21-.06.12-.12-.1,0a1.3,1.3,0,0,1,.44-.05h.3c.49,0-.36-.06.14,0l.31,0c.21,0,.21,0,0,0l.31.09a4,4,0,0,1,.74.31c-.21-.12,0,0,.06,0l.41.26a4.25,4.25,0,0,1,1.12,1.08,6.77,6.77,0,0,1,.43.66,2.36,2.36,0,0,1,.21.52,2.68,2.68,0,0,1,.17,1.44,6.46,6.46,0,0,1-.11.75c0,.12,0,.24-.08.36s.12-.31,0,.1c-.08.22-.16.43-.26.64s-.12.24-.18.36c-.15.3.17-.21,0,.08a6.25,6.25,0,0,1-.4.5c-.07.08-.38.33,0,0l-.19.16-.3.23c-.24.17.09,0,.09-.06s-.71.29-.7.34.46-.15,0,0l-.27.07-.13,0c-.22,0-.19,0,.1,0a.89.89,0,0,1-.28,0c-.26,0-.51,0-.76.05.47,0,0,0-.1,0L115,46.7c-.46-.05.32.12-.12,0l-.4-.13-.38-.16c.25.11,0,0-.11-.07a6.64,6.64,0,0,1-.66-.49c-.33-.27.11.13-.06-.06L113,45.4a7.4,7.4,0,0,1-.45-.69c-.15-.24,0-.1,0,0-.07-.17-.14-.35-.2-.53a6.07,6.07,0,0,1-.21-.84,2.48,2.48,0,0,1-.06-.69,1.48,1.48,0,0,0-1.8-1.3c-.75.08-2.13.61-2.12,1.58a6.56,6.56,0,0,0,4.38,6.37,8.67,8.67,0,0,0,8.67-2,7.16,7.16,0,0,0,1.78-3.49,5.94,5.94,0,0,0-.63-4.29A7.69,7.69,0,0,0,113.94,36a7.27,7.27,0,0,0-5.83,6.91c0,1,1,1.39,1.8,1.3S112,43.59,112,42.61Z"/><path class="cls-2" d="M155.84,92.48h-1.52c-.8,0-2.51.35-2.68,1.38a46.45,46.45,0,0,0-.15,7.37v34.84a5.81,5.81,0,0,1-.36,2.69c-.15.31-.42.34-.09.26a1.34,1.34,0,0,1-.69-.05,1.83,1.83,0,0,1-1.11-1.67,28.5,28.5,0,0,1,0-3.81V111.7c0-.52-.28-.72-.77-.86a4.17,4.17,0,0,0-3.21.25c-1.1.59-1.26,1.36-1.27,2.54,0,2.8,0,5.6,0,8.4v8.42a43,43,0,0,1-.32,7.94,2.18,2.18,0,0,1-.23.75c.16-.28.3,0-.24-.11a1.87,1.87,0,0,1-1.64-1.34,14.15,14.15,0,0,1-.2-3.9c0-1.42,0-2.83,0-4.25v-36c0-.54-.28-.7-.77-.87-1.3-.45-3.29-.2-4.09,1.08a3.53,3.53,0,0,0-.27,1.93c0,1.12,0,2.24,0,3.37,0,1.91,0,3.82,0,5.73,0,1,0,1.89,0,2.84,0,.47,0,.95-.06,1.42s-.27.94-.29,1.36c0,1.27-.51-1.05.29.12a1.61,1.61,0,0,1-.28-.18,3.47,3.47,0,0,1-.53-2c0-2.15,0-4.31,0-6.46V96.47c0-2.09-.14-4.24.05-6.32a5.26,5.26,0,0,1,1.51-3.69c1.18-.93,3.31-.93,4.73-1,1.93-.07,3.87-.06,5.8,0a28.75,28.75,0,0,1,6.22.38c3,.68,4.18,2.91,4.37,5.78.28,4.12,0,8.32,0,12.45,0,1.15,0,2.3,0,3.45,0,1-.18,2-.19,2.91l-.1.26c-.22.28-.06.24.46-.11,0,.09-.62-.67-.62-.69a7.18,7.18,0,0,1-.44-3.12c-.05-4.45,0-8.9,0-13.34,0-1.68-3.87-.9-3.87.45,0,4.82-.08,9.65,0,14.47,0,1.86.5,3.88,2.52,4.39a5.52,5.52,0,0,0,5.15-1.39c1.41-1.53,1-4.11,1-6V97.93c0-2.45.11-4.92,0-7.36A7.69,7.69,0,0,0,160.13,86c-2.73-3.17-7.84-2.79-11.58-2.81-2.49,0-5-.09-7.49.13a15.32,15.32,0,0,0-6.3,1.66c-3.88,2.3-3.41,6.83-3.41,10.75v11.17a19.79,19.79,0,0,0,.06,3.53c.37,2,2.32,2.63,4.12,2.43a4.62,4.62,0,0,0,4.31-3.63c.44-2.54.15-5.33.18-7.91l0-4.09c0-.64,0-1.28,0-1.92a5.21,5.21,0,0,0,0-1V94c-2.32.28-2.94.56-1.87.86l-.76-.87q0,17.74,0,35.48a68.68,68.68,0,0,0,.09,8.61c.27,2,2,3.08,4,3.21s4.46-.32,5.56-2.12a6.77,6.77,0,0,0,.64-2.92c.15-1.43.12-2.87.13-4.3,0-3.3,0-6.61,0-9.91V114.4a18.82,18.82,0,0,1,0-2.21l-1.29.67c-.82,0-1,0-.4.16l-.77-.86v22.28a20.43,20.43,0,0,0,.1,4.21c.45,2,2.42,2.71,4.28,2.68s4.21-.81,5.16-2.66a6.34,6.34,0,0,0,.49-3v-4.68q0-9,0-18V103.2c0-1.62,0-3.23,0-4.84a30.24,30.24,0,0,1,.15-5l-2.68,1.37h1.53a3,3,0,0,0,2.54-1.07C157.34,92.93,156.55,92.48,155.84,92.48Z"/><path class="cls-2" d="M148,80.58a5.08,5.08,0,0,1-4.44-3.29,5.45,5.45,0,0,1,1.12-5.63,4.08,4.08,0,0,1,.9-.7c.4-.24-.24.19.14-.07-.05,0-.37.13,0,0-.73.23.42-.08-.32.09-.31.07-.06,0,.12,0-.26,0,.28,0,.33,0a3.82,3.82,0,0,1,.75.14,5.77,5.77,0,0,1,1.37.66,5.49,5.49,0,0,1,2.46,5.38A5.06,5.06,0,0,1,149,79.94a5.68,5.68,0,0,1-.59.49c.17-.12-.21.13-.19.11-.26.17.19,0-.14.08s.26-.09,0,0l.16,0c-.22.06-.19,0,.09,0-.09,0-.34,0,0,0l-.31,0c.16,0,.14,0,0,0a5.7,5.7,0,0,0-2.73.74c-.15.09-.53.28-.47.51s.52.21.67.21c3,0,6.67-1.17,8.17-4a5.67,5.67,0,0,0-1.28-6.9c-2.44-2.27-6.2-1.87-9-.55a6.37,6.37,0,0,0-4,6.24,5.58,5.58,0,0,0,1.84,3.64A6.34,6.34,0,0,0,145.43,82a5.58,5.58,0,0,0,2.73-.73c.15-.09.53-.29.47-.52S148.1,80.59,148,80.58Z"/><path class="cls-2" d="M94.45,109c-.45,3-.16,6.2-.18,9.25a5.91,5.91,0,0,0,.68,3.53,29.28,29.28,0,0,0,2.74,3A26.41,26.41,0,0,1,104.17,139l2.12-1.86H78l1.76,1.18a28.52,28.52,0,0,1,6.36-13.93,1,1,0,0,0,.17-1.35c-2.58-3-2.29-6.54-2.29-10.23,0-3.1.48-6.12,3-8.2a7.54,7.54,0,0,1,7.86-.92c3.39,1.53,4.8,5.25,6.42,8.34,1.1,2.12,2.24,4.22,3.28,6.36a5.39,5.39,0,0,1,.7,2.16,5.92,5.92,0,0,1-1,2.66,1,1,0,0,0,.34,1.26c2.41,1.95,4.75,4.32,7.45,5.85a8.16,8.16,0,0,0,4,1.05,10.2,10.2,0,0,0,2.4-.26,7.26,7.26,0,0,1,1.69-.44c1,0,1.7,1.09,2.25,1.79,1,1.23,2,2.45,3,3.65s2.16,2.47,3.12,3.78.67,2.44-.29,3.62l3.38-.32c-2.12-2.23-4-4.68-6.3-6.75-1-.91-4.05-.45-3.7,1.35q.93,4.84,1.88,9.68l1.6-1.76-2.64.61c-.8.19-1.74.86-1.6,1.77q.47,3,.94,6.08c.14.94.3,1.88.45,2.82a7.32,7.32,0,0,0,.14,1.38l0,.24a.71.71,0,0,0,.63-.16,11.76,11.76,0,0,0-.46-1.66c-.23-1.11-.45-2.23-.66-3.34q-.56-2.92-1.17-5.83c-.14-.7-1.16-.88-1.74-.82l-2.14.22c-.78.08-2,.57-2.14,1.51-.27,2.65-.56,5.3-.8,8l-.18,2.05c0,.32-.32,1.21-.2,1.49a.68.68,0,0,0,.64-.21c.08-.16,0,.1,0,0s-.13-.19-.14-.25c0-.38-.07-.69-.06-1.1.16-5.74.6-11.48,1-17.21.08-1.3.17-2.6.26-3.89.08-1.13.32-2.34-.35-3.34a18,18,0,0,0-2.76-2.68l-3.4-3.22c-1-.9-1.92-1.79-2.85-2.72a3.22,3.22,0,0,1-1.27-2.21c0-1,.84-1.81.61-2.75a14.3,14.3,0,0,0-1.22-2.6c-1-2-2-4-3.14-6A18,18,0,0,0,98.17,108c-1.16-1.18-4.83.36-3.55,1.66a21.34,21.34,0,0,1,3,4.8c1.28,2.32,2.48,4.68,3.54,7.1l.1-.7c-.6,1.54-1.2,3-.39,4.59.94,1.83,3,3.23,4.42,4.62,1.78,1.69,3.7,3.29,5.38,5.07.71.75.48,1.52.41,2.5-.08,1.3-.17,2.6-.25,3.9-.32,4.9-.63,9.81-.87,14.72-.07,1.66-.7,4.28.81,5.5a4.56,4.56,0,0,0,5,0c1.9-1.28,1.67-3.83,1.85-5.85.24-2.58.52-5.15.78-7.73l-2.14,1.51,2.14-.22-1.74-.82c.6,2.89,1.13,5.8,1.73,8.69.24,1.15.39,2.4,1.39,3.15a4,4,0,0,0,3.25.51,4.12,4.12,0,0,0,2.69-1.79,4.74,4.74,0,0,0,.23-3.26c-.49-3-.94-5.94-1.4-8.91l-1.6,1.77,2.65-.62c.76-.17,1.77-.86,1.59-1.76q-.93-4.85-1.88-9.69l-3.71,1.35c2.3,2.07,4.18,4.52,6.3,6.75a2.48,2.48,0,0,0,3.38-.31,5.56,5.56,0,0,0,1.6-4c-.15-1.59-1.32-2.78-2.29-4-1.14-1.39-2.31-2.76-3.44-4.16a17.67,17.67,0,0,0-3.1-3.52,5.5,5.5,0,0,0-3.63-.94c-1.54.12-2.92,1-4.48.56s-2.88-1.73-4.08-2.69c-1.45-1.16-2.87-2.37-4.31-3.54l.34,1.26c.88-1.65,1.6-3.32.94-5.18a54.39,54.39,0,0,0-3.27-6.52c-2-3.86-3.67-8.35-7.81-10.37-7.08-3.46-16.64.87-17.63,9a40,40,0,0,0-.07,7.58,11.17,11.17,0,0,0,2.62,6.64l.17-1.35a31.43,31.43,0,0,0-7.05,15.3c-.15,1,1.08,1.17,1.76,1.17h28.33c1,0,2.24-.78,2.12-1.85a27.62,27.62,0,0,0-6-14,32.06,32.06,0,0,0-2.55-2.79,3.82,3.82,0,0,1-1.28-3.28c0-3-.27-6.23.18-9.25C98.63,106.79,94.69,107.34,94.45,109Z"/><path class="cls-2" d="M84.91,108.6a5.56,5.56,0,0,0-.52,3.11c.06,1.06,0,2.12,0,3.18,0,2.27,0,4.53,0,6.8,0,1.37,1.88,1.36,2.79.89a4,4,0,0,0,2.47-3c.13-1.51,0-3.08,0-4.6v-4.61a4.41,4.41,0,0,0-.14-1.58,2.3,2.3,0,0,0-1.66-1.28,2.81,2.81,0,0,0-2.73.74,1,1,0,0,0,.47,1.76c.21.08.25.08.13,0s-.07-.1,0,0c-.06-.14-.07-.13,0,0s0,.15,0,0a14.77,14.77,0,0,1,0,1.63v3.62c0,1.2,0,2.41,0,3.62a4.93,4.93,0,0,1-.06,1.33c.08-.27-.27.36-.06.08s-.35.2-.13.08l2.79.9c0-2.18,0-4.36,0-6.54,0-1.06.08-2.11,0-3.17a5,5,0,0,1,.28-2.68c.45-.83-.41-1.44-1.15-1.52A2.68,2.68,0,0,0,84.91,108.6Z"/><path class="cls-2" d="M88.24,91.94A5.33,5.33,0,0,1,89,89.08a4.83,4.83,0,0,1,.43-.58c-.19.22.13-.13.14-.13l.21-.2s.42-.31.1-.09l.24-.16c.08,0,.5-.26.07-.06l.4-.17c.45-.2-.42.08.06,0a1.11,1.11,0,0,1,.29-.07l-.22,0,.3,0,.31,0c-.44,0,.08,0,.15,0l.31,0c-.36,0,.13,0,.17,0l.44.1c.43.1-.2-.1.21.07l.27.11c.22.11.43.22.64.35a5,5,0,0,1,1,.95,5.19,5.19,0,0,1,.61,5.59,7,7,0,0,1-.41.64,1.47,1.47,0,0,1-.34.4l-.22.21s-.42.33-.12.11l-.25.18c-.08,0-.65.32-.22.14l-.28.12c-.46.22.41-.1-.08,0l-.3.07c.51-.13,0,0-.09,0-.34.06-.06,0,0,0h-.48c-.1,0-.21,0-.31,0,.34,0-.26-.06-.32-.08l-.3-.08c.21.07-.22-.09-.27-.11a5,5,0,0,1-.72-.39,4.88,4.88,0,0,1-1.15-1.09,5.42,5.42,0,0,1-1.08-3.28c0-.31-.54-.52-.76-.57a2.93,2.93,0,0,0-1.44.07c-.75.22-1.68.65-1.66,1.54a6.48,6.48,0,0,0,4.74,6,8.77,8.77,0,0,0,9.06-2.88,6.54,6.54,0,0,0,.34-7.63c-1.73-2.65-5.15-3.29-8.06-2.65-3.27.72-6.06,3.39-6.08,6.86,0,.86,1,1,1.68.89a3.63,3.63,0,0,0,1.46-.5C87.78,92.62,88.23,92.29,88.24,91.94Z"/><path class="cls-2" d="M92.65,141.44h4l-1.78-1c.34,3.62.09,7.37.09,11v5.39c0,.48,0,1,0,1.45a5.58,5.58,0,0,0,0,1.28,1.11,1.11,0,0,1-.07.16c-.06.1,0,.06.18-.1,0,0-.09-.06-.08,0-.1-.31-.31-.47-.36-.86a26.15,26.15,0,0,1,0-2.8V145.09a34.44,34.44,0,0,1,.16-5.28c.32-2.05-3.64-1.62-3.93.24a31.64,31.64,0,0,0-.15,4.87c0,1.81,0,3.61,0,5.42v5.43c0,1.47-.29,3.32.26,4.72,1.09,2.78,5.34,2.74,7.1.65,1-1.25.87-2.8.87-4.33,0-1.79,0-3.59,0-5.38,0-4,.22-8.05-.16-12-.07-.79-1.19-1-1.78-1h-4a2.14,2.14,0,0,0-2.11,1.63C90.74,141.08,91.83,141.44,92.65,141.44Z"/><path class="cls-2" d="M86.41,141.23h4.11l-1.24-.8c.28,3.63.09,7.34.09,11v5.49a11.35,11.35,0,0,1-.08,2.54s-.16.58-.21.53a.85.85,0,0,1,.48-.22l-.08,0a4.17,4.17,0,0,0-.34-.38,1.94,1.94,0,0,1-.17-.71A26.22,26.22,0,0,1,89,156v-5.46c0-3.58-.14-7.19.08-10.77.11-1.88-3.8-1.26-3.9.35-.21,3.44-.08,6.9-.08,10.35v5.46c0,1.4-.32,3.24.24,4.56,1.16,2.7,5.34,2.35,7,.41,1-1.16.91-2.67.92-4.11v-5.49c0-4,.17-7.94-.13-11.87,0-.51-.83-.8-1.24-.8H87.79a2.7,2.7,0,0,0-2.52,1.15C84.89,140.54,85.6,141.23,86.41,141.23Z"/><path class="cls-2" d="M117.56,117.56c-.52,0,.19,0,.33.06.44,0-.34-.11.09,0l.25.07.38.14c.27.11,0,0,0,0a5,5,0,0,1,.67.42l.26.2c.19.15-.22-.25.06.05a5.15,5.15,0,0,1,.43.5c.13.17.24.35.36.54.22.34-.05-.13,0,.09a3.79,3.79,0,0,1,.18.42,4.77,4.77,0,0,1,.17.65,2.56,2.56,0,0,1,0,.27s0,.45,0,.18a4.94,4.94,0,0,1-.17,1.44c-.06.25.13-.29,0,.1-.05.1-.09.21-.13.31s-.21.39-.32.59.23-.27,0,0l-.16.21-.27.3c-.3.31.28-.21-.06,0a4.21,4.21,0,0,0-.55.39l.2-.12c-.08,0-.16.09-.24.12l-.25.11c-.42.19.45-.1,0,0l-.27.07c-.45.12.46,0,0,0-.12,0-.33.08-.42,0h0l-.34,0-.27,0c.43.06,0,0-.07,0s-.41-.15-.62-.23c.29.11.1,0,0,0s-.3-.17-.44-.27a3.92,3.92,0,0,1-.5-.39c.22.2-.2-.23-.26-.29a5,5,0,0,1-.33-.47l-.17-.27c-.16-.27,0,.12-.06-.15a5.42,5.42,0,0,1-.35-1.27s0-.44,0-.18v-.28a5.56,5.56,0,0,1,.08-.81c0-.11,0-.22.07-.33s0-.12.05-.19c0,.15,0,.15,0,0a6.36,6.36,0,0,1,.33-.7,2.53,2.53,0,0,1,.13-.22c-.2.33,0-.05.1-.12l.21-.24.18-.18-.15.13c0-.06.52-.47.62-.45-.1,0-.36.17,0,0a2.76,2.76,0,0,0,.42-.19c0,.11-.42.13-.13,0a2.85,2.85,0,0,1,.51-.12s-.53.05-.12,0l.55,0c.82,0,2-.62,2.14-1.53s-1-1.23-1.78-1.22a7.35,7.35,0,0,0-6.66,4.36A6.1,6.1,0,0,0,113,126.1a7.38,7.38,0,0,0,8,.54,6.59,6.59,0,0,0,3.58-6.9,6,6,0,0,0-2.19-3.51,7.12,7.12,0,0,0-4.54-1.42c-.82,0-2,.64-2.13,1.54S116.83,117.56,117.56,117.56Z"/></g></g></svg>