<svg xmlns="http://www.w3.org/2000/svg" viewBox="0 0 199 199"><defs><style>.cls-1{fill:#e94e1b;}.cls-2,.cls-3,.cls-4{fill:#fff;}.cls-2,.cls-4{fill-rule:evenodd;}.cls-4{stroke:#fff;stroke-miterlimit:10;stroke-width:3px;}</style></defs><g id="Calque_2" data-name="Calque 2"><g id="Layer_1" data-name="Layer 1"><circle class="cls-1" cx="99.5" cy="99.5" r="99.5"/><path class="cls-2" d="M126.48,104.17a.8.8,0,0,0-.4,0,.92.92,0,0,1-.39-1.8,3.33,3.33,0,0,1,4,4,.92.92,0,1,1-1.79-.4,1.5,1.5,0,0,0,0-.73,41.42,41.42,0,0,1-56.53-.1,1.48,1.48,0,0,0-.06.83.94.94,0,0,1-.7,1.1.9.9,0,0,1-1.06-.7,3.36,3.36,0,0,1,4-4,.92.92,0,0,1-.4,1.8.4.4,0,0,0-.23,0,39.71,39.71,0,0,0,53.57,0Z"/><path class="cls-3" d="M126.76,102.65c-1,.08.47.06.64.21-.11-.09-1.55,1.07-1.58,1,.1.14.59.26.76.41a2.25,2.25,0,0,1,.62,1c.07.2.08.41.14.6a.81.81,0,0,1,0,.31c-.11.89.6.7,2.16-.57l1,.27c-.27-.11-.13-.87-.18-1.2-.1-.75-1.29-.9-1.83-.89a3.93,3.93,0,0,0-2.56,1,38.19,38.19,0,0,1-41.26,6.75,40.89,40.89,0,0,1-11.06-7.31c-1.2-1.13-4.26-.47-4.65,1.24a2.28,2.28,0,0,0-.09.82l0,.41,3.07-.89c.13-.4-.08-.89.09-1.34,0,0,.47-.79.51-.71.14.27-1-.07-.2.23l-.78-.46c.29.25.25.16.11.52l.46-.78c2-.32,2.52-.53,1.64-.62a3.78,3.78,0,0,0-2.65.83c-.41.35-1.05,1.18-.47,1.71a43,43,0,0,0,45.75,7.34,43.94,43.94,0,0,0,12-7.8,1.12,1.12,0,0,0-.54-2,3.79,3.79,0,0,0-3.41.92,36.43,36.43,0,0,1-39,6.27,38.86,38.86,0,0,1-10.39-6.73L72,105.71a4.75,4.75,0,0,0,4-1.28,2,2,0,0,0,.13-2.82c-.86-.91-2.51-.9-3.65-.75a7,7,0,0,0-3.79,1.72c-1.32,1.22-2.71,4.28-.76,5.61a4.16,4.16,0,0,0,4,0,3.53,3.53,0,0,0,1.63-1.45c.31-.59.14-1.18.28-1.8l-4.65,1.25a44.71,44.71,0,0,0,48.16,7.9,45.28,45.28,0,0,0,12.56-8.26l-4.39.11c.07.53-.09,1,.16,1.47a2.07,2.07,0,0,0,1.06,1,4.47,4.47,0,0,0,4.23-.59c2-1.37,1.47-4.28-.13-5.72a6,6,0,0,0-7.16-.29,2.23,2.23,0,0,0-.88,2.81c.67,1.22,2.23,1.19,3.43,1.09,1-.08,2.56-.67,2.71-1.78S127.56,102.58,126.76,102.65Z"/><path class="cls-4" d="M99.65,54.37c0-4.59,0-9.14-.14-13.73a.7.7,0,0,0-.69-.7.74.74,0,0,0-.7.74c.1,4.55.17,9.1.13,13.65a.66.66,0,0,0,.67.7.71.71,0,0,0,.73-.66Z"/><path class="cls-4" d="M121.87,60.35c2.32-4,4.55-7.94,6.77-12a.69.69,0,0,0-.3-.93.67.67,0,0,0-.93.27c-2.19,4-4.41,8-6.73,11.9a.71.71,0,0,0,.26,1,.68.68,0,0,0,.93-.23Z"/><path class="cls-4" d="M138.16,76.66c4-2.26,7.89-4.58,11.81-7a.7.7,0,0,0,.23-1,.73.73,0,0,0-1-.23c-3.88,2.36-7.8,4.72-11.74,6.94a.71.71,0,0,0-.27,1,.7.7,0,0,0,.93.26Z"/><path class="cls-4" d="M144.13,99c4.58,0,9.12,0,13.7-.14a.67.67,0,0,0,.66-.69.7.7,0,0,0-.69-.7c-4.55.1-9.09.16-13.67.13a.7.7,0,0,0-.7.67.74.74,0,0,0,.7.73Z"/><path class="cls-4" d="M138.16,121.25c4,2.3,7.93,4.52,11.91,6.75a.75.75,0,0,0,1-.27.73.73,0,0,0-.27-1c-4-2.19-8-4.42-11.9-6.75a.68.68,0,0,0-.93.27.7.7,0,0,0,.23,1Z"/><path class="cls-4" d="M121.87,137.57q3.39,5.93,6.93,11.79a.7.7,0,0,0,1,.24.71.71,0,0,0,.23-1q-3.54-5.83-6.94-11.76a.66.66,0,0,0-.92-.27.71.71,0,0,0-.27,1Z"/><path class="cls-4" d="M99.61,143.51c0,4.59,0,9.14.14,13.73a.64.64,0,0,0,.69.66.68.68,0,0,0,.7-.69c-.1-4.56-.17-9.11-.13-13.66a.71.71,0,0,0-.7-.73.72.72,0,0,0-.7.69Z"/><path class="cls-4" d="M77.35,137.53c-2.32,4-4.54,7.95-6.73,11.93a.71.71,0,1,0,1.23.7c2.19-4,4.41-8,6.7-11.89a.7.7,0,0,0-1.2-.74Z"/><path class="cls-4" d="M61.07,121.22c-4,2.26-7.9,4.58-11.81,6.94a.74.74,0,0,0-.23,1,.7.7,0,0,0,1,.23c3.91-2.36,7.79-4.69,11.77-6.91a.74.74,0,0,0,.27-1,.71.71,0,0,0-1-.26Z"/><path class="cls-4" d="M55.1,98.92c-4.55,0-9.13,0-13.67.14a.7.7,0,0,0-.7.69.72.72,0,0,0,.73.7c4.55-.1,9.09-.16,13.64-.13a.68.68,0,0,0,.69-.7.7.7,0,0,0-.69-.7Z"/><path class="cls-4" d="M61.07,76.63c-3.92-2.33-7.9-4.55-11.91-6.75a.67.67,0,0,0-.93.27.7.7,0,0,0,.27,1c4,2.2,8,4.42,11.87,6.71a.7.7,0,0,0,1-.23.71.71,0,0,0-.26-1Z"/><path class="cls-4" d="M77.39,60.31c-2.26-4-4.61-7.9-7-11.79a.75.75,0,0,0-1-.27.7.7,0,0,0-.23,1C71.58,53.14,73.91,57,76.16,61a.71.71,0,0,0,1,.27.75.75,0,0,0,.27-1Z"/></g></g></svg>