<svg xmlns="http://www.w3.org/2000/svg" viewBox="0 0 199 199"><defs><style>.cls-1{fill:#e94e1b;}.cls-2{fill:#fff;}</style></defs><g id="Calque_2" data-name="Calque 2"><g id="Layer_1" data-name="Layer 1"><circle class="cls-1" cx="99.5" cy="99.5" r="99.5"/><path class="cls-2" d="M135.19,38H55.68c-1.08,0-4,.52-4,2.16V140.46c0,4.62-.05,9.25,0,13.87v.19a1.67,1.67,0,0,0,1.85,1.57h80.33c3.7,0,7.4,0,11.1,0h.16c1.08,0,4-.52,4-2.16V53.74c0-.62,0-1.25,0-1.87a2.38,2.38,0,0,0-1-1.89L137.67,39.51l-.88-.88c-1-1-2.72-.77-3.88-.24-.77.35-2.46,1.65-1.46,2.65l12.08,12.08-.24-.9v98.1c0,1.32-.11,2.7,0,4v.18l4-2.16H59.43a32.89,32.89,0,0,0-3.58,0h-.17l1.85,1.57V44.2c0-1.47.12-3,0-4.47v-.19l-4,2.16h79.51c1.34,0,3.09-.38,3.8-1.67S136.3,38,135.19,38Z"/><path class="cls-2" d="M69.41,90.84h59.85c1.34,0,3.09-.38,3.8-1.67s-.56-2.06-1.67-2.06H71.55c-1.34,0-3.1.38-3.8,1.67s.55,2.06,1.66,2.06Z"/><path class="cls-2" d="M69.6,102.15h59.85c1.34,0,3.09-.38,3.8-1.67s-.56-2.06-1.67-2.06H71.74c-1.34,0-3.1.38-3.8,1.67s.55,2.06,1.66,2.06Z"/><path class="cls-2" d="M69.6,112h59.85c1.34,0,3.09-.38,3.8-1.67s-.56-2.06-1.67-2.06H71.74c-1.34,0-3.1.38-3.8,1.67S68.49,112,69.6,112Z"/><path class="cls-2" d="M70,122.32h59.84c1.34,0,3.1-.38,3.8-1.67s-.55-2.06-1.66-2.06H72.11c-1.34,0-3.09.38-3.8,1.67s.56,2.06,1.67,2.06Z"/><path class="cls-2" d="M70,133.44h59.84c1.34,0,3.1-.38,3.8-1.67s-.55-2.06-1.66-2.06H72.11c-1.34,0-3.09.38-3.8,1.67s.56,2.06,1.67,2.06Z"/><path class="cls-2" d="M87.36,52.14a8.88,8.88,0,0,1-.6,3.22,7.3,7.3,0,0,1-.6,1.13,4.91,4.91,0,0,1-.79,1,5.79,5.79,0,0,1-.51.48s-.62.47-.21.18a8.18,8.18,0,0,0-.69.45c-.18.1-.13.08.13-.07l-.43.2c-.17.07-.85.26-.13.07l-.7.18c.76-.18-.26,0-.43,0-.58.06.39,0-.26,0-.25,0-.5,0-.74,0,.45.06-.34-.08-.43-.1a4.15,4.15,0,0,1-1.16-.39,7.38,7.38,0,0,1-2.27-1.59,8.07,8.07,0,0,1-2.32-5.44l-4,2.07h18c1.31,0,3.08-.41,3.81-1.62s-.6-1.85-1.61-1.85H73.42a5.42,5.42,0,0,0-2.6.62c-.48.25-1.42.8-1.41,1.45a10.24,10.24,0,0,0,7.13,9.77,13.54,13.54,0,0,0,13.83-3.64,10.42,10.42,0,0,0,2.79-6.8c0-1.29-1.49-1.51-2.53-1.37C89.74,50.23,87.37,50.87,87.36,52.14Z"/><path class="cls-2" d="M124,52a7,7,0,0,1-2,5.17c-.37.41.3-.19-.18.17-.19.14-.37.29-.56.42l-.39.27c.27-.17.32-.2.13-.1a5.68,5.68,0,0,0-.74.37c-.57.27.53-.12-.14,0l-.7.18c-.34.07-.32.07.07,0l-.49.05-.75,0c.63,0-.16,0-.24,0s-.88-.14-.63-.09-.5-.15-.59-.18-.44-.17-.67-.25c-.5-.19.14.11-.28-.13a8.18,8.18,0,0,1-.79-.51c-.19-.13-.38-.27-.56-.42,0,0-.5-.48-.26-.24a7.48,7.48,0,0,1-2.26-5.19L108.73,54h18c1.27,0,3-1,3.19-2.36s-1.54-1.93-2.69-1.93h-18c-1.13,0-3.21,1-3.19,2.36a10.88,10.88,0,0,0,7.25,10.22,13,13,0,0,0,13.84-3.64,11,11,0,0,0,2.74-7c0-1.41-1.43-2.06-2.69-1.93S124,50.56,124,52Z"/><path class="cls-2" d="M96.68,52v24.7c0,1.45,1.4,2.05,2.7,2s3.18-.94,3.18-2.38V51.6c0-1.45-1.4-2.05-2.7-2s-3.18.94-3.18,2.38Z"/><path class="cls-2" d="M82.12,79.55h31.27a7.47,7.47,0,0,0,4.1-1.09c.85-.58.84-1.36-.37-1.36H85.85a7.4,7.4,0,0,0-4.1,1.1c-.85.57-.84,1.35.37,1.35Z"/></g></g></svg>