<svg xmlns="http://www.w3.org/2000/svg" viewBox="0 0 199 199"><defs><style>.cls-1{fill:#e94e1b;}.cls-2{fill:#fff;}.cls-3,.cls-4{fill:none;stroke:#fff;stroke-linecap:round;stroke-linejoin:round;}.cls-4{stroke-width:3px;}</style></defs><g id="Calque_2" data-name="Calque 2"><g id="Layer_1" data-name="Layer 1"><circle class="cls-1" cx="99.5" cy="99.5" r="99.5"/><path class="cls-2" d="M131.56,94.34a4.35,4.35,0,0,1-1,2.73l-.22.23c-.25.25.17-.17-.09.08a2.27,2.27,0,0,1-.25.18c.36-.26.07,0,0,0,.09,0,.56-.21.07,0,.17-.06.35-.1.52-.15.53-.16-.36,0,.09,0s-.3-.08,0,0-.57-.13-.27,0a3.83,3.83,0,0,1-.82-.3,4.83,4.83,0,0,1-1.12-.84,4.71,4.71,0,0,1-1.28-2.69,11.64,11.64,0,0,1,0-1.67c0-.06,0-.35,0-.14s0-.07,0-.12a5,5,0,0,1,.1-.56,10.54,10.54,0,0,1,1.14-2.7c1.2-2.22,2.54-4.36,3.84-6.51L126.43,83a78.37,78.37,0,0,1,4.49,7.8,8.29,8.29,0,0,1,.64,3.55c0,1.27,5.79.34,5.79-1.56a8.13,8.13,0,0,0-.64-3.54,74.77,74.77,0,0,0-4.49-7.81c-.52-.86-2-.59-2.8-.42a4.43,4.43,0,0,0-3,1.65c-1.33,2.22-2.72,4.41-3.93,6.7a8.87,8.87,0,0,0-1.13,3,7.22,7.22,0,0,0,.57,4.54c1.61,2.84,5,3.58,8,3,3.67-.72,7.3-3,7.39-7.07C137.38,91.55,131.6,92.42,131.56,94.34Z"/><path class="cls-3" d="M86.39,55.87A6.11,6.11,0,1,0,74.9,55l-.64,2.47L82.21,61l1.41-2.14A6,6,0,0,0,86.39,55.87Z"/><line class="cls-3" x1="77.01" y1="56.74" x2="76.27" y2="58.41"/><line class="cls-3" x1="80.88" y1="58.45" x2="80.14" y2="60.12"/><line class="cls-3" x1="78.94" y1="57.59" x2="78.21" y2="59.26"/><path class="cls-3" d="M79.93,52.63c.36-.81-2.59-1.67-3-.86-.72,1.63,0,1.75.73,2.09S79.57,53.44,79.93,52.63Z"/><path class="cls-3" d="M82,53.53c.36-.81,3,.8,2.61,1.61-.72,1.62-1.26,1.2-2,.86S81.6,54.35,82,53.53Z"/><polyline class="cls-3" points="80.45 55.95 80.52 54.37 80.28 54.26 79.15 55.37"/><line class="cls-4" x1="122.55" y1="146.62" x2="127.59" y2="151.66"/><line class="cls-4" x1="127.59" y1="146.62" x2="122.55" y2="151.66"/><path class="cls-4" d="M118.94,139.44c-7.16,0-13.36,5.18-16.38,8.21l-6.41-4.15v12.59l6.41-4.15c3,3,9.22,8.21,16.38,8.21,10.13,0,18.34-10.36,18.34-10.36S129.07,139.44,118.94,139.44Z"/><path class="cls-4" d="M120.59,140s-2.19,1-2.27,10.48,2.27,9.47,2.27,9.47"/><path class="cls-2" d="M26.15,116.65c5.21.1,10.16-3.11,14.78-5.13a35.71,35.71,0,0,1,13.62-3.22l-1-.43h0c0,.69,2.12.37,2.37.33-2.47.42-.67.09.12.12.52,0,1.05.06,1.57.1a30,30,0,0,1,3.25.48,36,36,0,0,1,5.57,1.66c3.52,1.36,6.75,3.35,10.26,4.73a20.52,20.52,0,0,0,12.68.6c4.16-1,7.89-3.17,11.76-4.93a25.94,25.94,0,0,1,21.38-.71c3.21,1.24,6.15,3.09,9.31,4.45a24.86,24.86,0,0,0,11.53,1.88c5.34-.32,10.31-2.29,15.11-4.52,3.86-1.79,7.59-3.58,11.91-3.76,1.19,0,3.06-.46,3.88-1.4s-.76-1-1.38-1a39,39,0,0,0-13.66,3.46c-3.53,1.52-7,3.56-10.72,4.45a18.27,18.27,0,0,1-10.76-.92c-3.2-1.27-6.14-3.14-9.32-4.46-8.16-3.39-17-3.15-25.35-.4a106.13,106.13,0,0,0-10.77,4.72,13.8,13.8,0,0,1-4.37,1.42,12.85,12.85,0,0,1-5.42-.77c-4-1.37-7.65-3.75-11.64-5.25a34.87,34.87,0,0,0-6.25-1.72A23.33,23.33,0,0,0,57,106l2.37.33h0c0-.35-.88-.43-1-.43a50.68,50.68,0,0,0-17.16,3.35c-2.45.92-4.82,2-7.2,3.13-1.11.52-2.23,1-3.37,1.5l-.62.23-.48.17c.18-.07-.39,0,.14,0-.51,0,.12,0,.3,0a7.4,7.4,0,0,0-4.1,1.1c-.88.58-.83,1.29.35,1.32Z"/><path class="cls-2" d="M26.12,127.34c5.17.1,10.2-3.15,14.77-5.15A35.16,35.16,0,0,1,54.52,119l-1-.33h0c0,.6,2.15.22,2.33.18-2.49.43-.63.13.13.16.51,0,1,.06,1.51.11a30.94,30.94,0,0,1,3.32.51,33.86,33.86,0,0,1,5.56,1.67c3.51,1.39,6.75,3.41,10.28,4.74a20.74,20.74,0,0,0,12.47.54c4.18-1,7.92-3.1,11.8-4.88a26.37,26.37,0,0,1,9.86-2.68,27.88,27.88,0,0,1,11.5,1.9c3.22,1.26,6.17,3.08,9.34,4.47A24.39,24.39,0,0,0,143,127.28c5.29-.31,10.26-2.15,15-4.36,3.74-1.73,7.48-3.73,11.68-3.91a8.5,8.5,0,0,0,4.1-1.1c.83-.52.9-1.16-.3-1.11a40.15,40.15,0,0,0-13.92,3.34c-3.54,1.5-6.94,3.54-10.67,4.52a18,18,0,0,1-11-.84c-3.21-1.29-6.16-3.14-9.36-4.48-8.15-3.41-17-3.1-25.29-.42a99.31,99.31,0,0,0-11,4.77,13.74,13.74,0,0,1-4.18,1.4,13.07,13.07,0,0,1-5.64-.82c-4-1.41-7.52-3.73-11.46-5.19a36.56,36.56,0,0,0-6.42-1.77,23.19,23.19,0,0,0-7.61-.37l2.33.18h0c0-.32-.91-.33-1-.33a51.14,51.14,0,0,0-17.15,3.38c-2.45.93-4.83,2-7.21,3.13-1.22.56-2.45,1.15-3.71,1.64l-.75.27c.22-.08-.42,0,.14,0,.1,0,.78,0,.28-.05a7.91,7.91,0,0,0-4.1,1.1c-.88.56-.84,1.09.3,1.11Z"/><path class="cls-2" d="M26.12,138.12a19.44,19.44,0,0,0,7.42-1.83c2.49-1,4.88-2.25,7.35-3.32a35,35,0,0,1,13.63-3.19l-1-.31h0c0,.59,2.15.2,2.33.17-2.5.42-.63.13.13.16.5,0,1,.06,1.51.11a30.76,30.76,0,0,1,3.31.51,33.32,33.32,0,0,1,5.56,1.68c3.52,1.39,6.75,3.41,10.29,4.74a20.71,20.71,0,0,0,12.46.53c4.18-1,7.92-3.11,11.8-4.89a26.62,26.62,0,0,1,9.7-2.67,27.67,27.67,0,0,1,11.66,1.91c3.23,1.26,6.18,3.08,9.35,4.47A24.34,24.34,0,0,0,143,138.06c5.29-.33,10.27-2.16,15-4.36,3.74-1.73,7.47-3.73,11.68-3.91a8.72,8.72,0,0,0,4.09-1.1c.84-.51.9-1.12-.28-1.07A40.43,40.43,0,0,0,159.57,131c-3.53,1.49-6.94,3.54-10.67,4.52a18,18,0,0,1-11-.86c-3.21-1.28-6.16-3.14-9.36-4.48-8.14-3.41-17-3.08-25.29-.4a102,102,0,0,0-11,4.76,13.19,13.19,0,0,1-4.17,1.41,13.3,13.3,0,0,1-5.65-.84c-4-1.42-7.51-3.72-11.45-5.19a36.88,36.88,0,0,0-6.43-1.76,23.18,23.18,0,0,0-7.61-.36l2.33.16h0c0-.31-.92-.31-1-.31A51.1,51.1,0,0,0,41.18,131c-2.46.93-4.83,2-7.21,3.12-1.23.57-2.45,1.15-3.71,1.65l-.75.27c.22-.08-.43.05.13,0,.1,0,.78-.05.29-.05a8.07,8.07,0,0,0-4.1,1.09c-.89.55-.85,1.06.29,1.08Z"/><path class="cls-2" d="M119,76.58l4.77-10.77.69-1.55-5.59,1.49,6.08,2.7-.13-.5L120,78.72l-.69,1.55,5.59-1.5-6.08-2.69a5.23,5.23,0,0,0-3.74.3c-.22.09-2.66,1.28-1.71,1.7l6.08,2.69a4.58,4.58,0,0,0,3-.06c.8-.22,2.24-.59,2.61-1.44l4.78-10.76.69-1.56a.37.37,0,0,0-.14-.5l-6.07-2.69a4.61,4.61,0,0,0-3,.06c-.8.22-2.24.59-2.61,1.43L113.94,76l-.69,1.56c-.44,1,2,.68,2.33.61a8.22,8.22,0,0,0,2.21-.69C118.2,77.29,118.77,77,119,76.58Z"/><path class="cls-2" d="M123,65.93c-1.3-.58-2.63-1.1-3.9-1.73-2-1-2-2.73-1.92-4.62,0-1.67.11-3.34.14-5a6.41,6.41,0,0,0-3.69-6L109,50.26l0,0,4.54-1.69-7.38-3.27c-1-.44-2-.89-2.94-1.3-2.39-1-6.17-.14-7.66,2.06l-.1.13a2.64,2.64,0,0,0-.15.29l-.16.3c-.67.66-.13.55,1.6-.31a.3.3,0,0,1-.11,0,5.49,5.49,0,0,0-.86-.38l-3.53-1.56-9.65-4.28c-1.69-.75-5.59-1.68-5-4.17.21-1,.57-1.75.06-2.72A3.12,3.12,0,0,0,76.25,32c-.82-.4-1.68-.74-2.51-1.11l-9.39-4.16-3.78-1.68A9,9,0,0,0,58,24.16c-2.46-.28-5.75.73-6.93,3.07-.25.48-.45,1-.67,1.5L46.94,36.6C44.62,41.81,42.23,47,40,52.26A3.25,3.25,0,0,0,40.56,56a7.12,7.12,0,0,0,2.14,1.15l8.78,3.89c2.27,1,4.53,2,6.81,3a7.24,7.24,0,0,0,7-1.19,5,5,0,0,0,1-1.26c-.18.27.46-.85.38-.53l-1.82.55s0,0,0,0a2.85,2.85,0,0,0,.59.26l16.31,7.23c.84.38,1.77.68,2.15,1.61.45,1.1-.36,2-.24,3.15a2.9,2.9,0,0,0,1.62,2.17c2.51,1.28,5.19,2.3,7.76,3.44l2.55,1.13L100.16,79l0,0-4.24,1.81c3.1,1.26,7.14.42,9.8-1.51a33.74,33.74,0,0,0,3.41-3.14l1.84-1.76c.11-.11.39-.29.44-.43l0,0c.25-.23-.07-.16-1,.21.09.09.34.06.46.12,1.24.64,2.57,1.14,3.84,1.71a4.38,4.38,0,0,0,3.12-.23c.2-.07,2.23-1.1,1.42-1.46-1.29-.57-2.57-1.15-3.86-1.71a8.38,8.38,0,0,0-8.47,1.72c-1.17,1.07-2.29,2.2-3.44,3.3-.42.4-.83.82-1.26,1.21-.21.19-1,.61-.54.51a5.56,5.56,0,0,1-1.87-.45,4.82,4.82,0,0,0-3.11.48c-.2.09-1.89,1-1.14,1.33l0,0a4.33,4.33,0,0,0,3.12-.22c.2-.08,2.23-1.1,1.42-1.46L93,75.77c-1-.46-2.11-.87-3.11-1.38a2.19,2.19,0,0,1-1.36-1.8c-.1-1.1.69-2,.24-3.14-.71-1.85-3.8-2.6-5.42-3.32L74,62l-3.45-1.53a8.65,8.65,0,0,0-2.48-.88,8.36,8.36,0,0,0-4.49.93,5.21,5.21,0,0,0-1.51,1.12A5.4,5.4,0,0,0,61.14,63c.42-1.82,2.58-.09,1.45-.69-.39-.21-.82-.36-1.22-.54-5.1-2.26-10.25-4.41-15.29-6.78-2.41-1.13-1.49-3.14-.7-4.92l3.43-7.74c2.3-5.18,4.54-10.39,6.9-15.55a3.92,3.92,0,0,1,.16-.36c0-.08.45-1.26.16-.32l.23-.27-1.43.43.17.05a9.81,9.81,0,0,0,2.51,1.12l9.18,4.07,3.73,1.65a10.26,10.26,0,0,1,1.86.89c1.08.78.88,1.77.59,2.86a2.86,2.86,0,0,0,.92,3,8,8,0,0,0,1.8.9l16.08,7.13a6.42,6.42,0,0,0,4,.52,7,7,0,0,0,3.94-1.93,4.12,4.12,0,0,0,.69-1.12c.43-1.13.37,1.81-1.57.3l.09.05a21.35,21.35,0,0,0,3.17,1.4l4.72,2.09,2.35,1.05a4.38,4.38,0,0,0,3.12-.23c.2-.08,2.23-1.1,1.42-1.46h0a4.33,4.33,0,0,0-3.12.22c-.21.08-2.22,1.07-1.42,1.46a5.9,5.9,0,0,1,3.39,5.81c0,1.74-.1,3.47-.14,5.2-.06,1.93.3,3.66,2.22,4.61,1.27.63,2.6,1.15,3.9,1.73a4.28,4.28,0,0,0,3.12-.23c.2-.07,2.23-1.09,1.42-1.45Z"/><line class="cls-4" x1="101.01" y1="44.85" x2="87.55" y2="75.21"/><line class="cls-4" x1="74.89" y1="33.27" x2="61.43" y2="63.62"/></g></g></svg>