<svg xmlns="http://www.w3.org/2000/svg" viewBox="0 0 199 199"><defs><style>.cls-1{fill:#e94e1b;}.cls-2{fill:none;}.cls-2,.cls-3{stroke:#fff;stroke-miterlimit:10;stroke-width:2px;}.cls-3{fill:#fff;}</style></defs><g id="Calque_2" data-name="Calque 2"><g id="Layer_1" data-name="Layer 1"><circle class="cls-1" cx="99.5" cy="99.5" r="99.5"/><path class="cls-2" d="M154.5,124l.13-.28c1-3.81-.72-6.5-3.21-10.29-.76-1.16-1.55-2.36-2.34-3.72-2.92-5-9.1-14.52-11-17.42l-9.72,6.28c2.39,3.9,12.09,19.78,14.27,23.48,1.49,2.52,2.91,4.94,3.36,7.63C151.73,128.6,153.89,125.21,154.5,124Z"/><path class="cls-3" d="M153.16,112.28c-.75-1.14-1.52-2.32-2.29-3.62-3.48-6-11.53-18.25-11.61-18.38a1,1,0,0,0-1.43-.3L126.4,97.36a1,1,0,0,0-.32,1.42c.12.2,12.3,20.12,14.82,24.39,1.41,2.39,2.64,4.5,3,6.75a17.6,17.6,0,0,0,2.06-.25c-.45-2.69-1.87-5.11-3.36-7.63-2.18-3.7-11.88-19.58-14.27-23.48l9.72-6.28c1.89,2.9,8.07,12.41,11,17.42.79,1.36,1.58,2.56,2.34,3.72,2.49,3.79,4.25,6.48,3.21,10.29l0-.06a1,1,0,0,1,1.35-.52,1,1,0,0,1,.56,1.33s-.06.16-.19.42h0l-4.1,8.94a2.31,2.31,0,0,0,.14-.19l3.35-7.06C158.61,120.59,156.09,116.74,153.16,112.28Z"/><path class="cls-3" d="M154.51,124a.87.87,0,0,1,.08-.1,1,1,0,0,0,0-.17l-.13.28Z"/><path class="cls-3" d="M155.89,123.51a1,1,0,0,1,.49,1.37c.13-.26.19-.42.19-.42a1,1,0,0,0-.56-1.33,1,1,0,0,0-1.35.52l0,.06a1,1,0,0,1,0,.17A1,1,0,0,1,155.89,123.51Z"/><path class="cls-3" d="M146.15,131.75a15.9,15.9,0,0,0,5.77-2.13l-1.27,2.75.08,0,3.16-6.67a10.61,10.61,0,0,0,.51-1.25,1.06,1.06,0,0,1,.09-.42v0c-.61,1.22-2.77,4.61-8.5,5.68A10.25,10.25,0,0,1,146.15,131.75Z"/><path class="cls-3" d="M151.83,134.16l-2.39.85-.55,1.2c0,.06-2.91,6-8.37,6.48-4.28.38-17.46.22-24.94.08h0a1,1,0,0,0-1,1,19,19,0,0,1-.46,3.43,92.08,92.08,0,0,1-8.13-4.85c-6.7-4.43-7.55-6.06-7.65-6.36.33-.66,2.73-2.57,8.25-5.35a49.36,49.36,0,0,1,9-3.77,11.47,11.47,0,0,1,.2,3.87,1,1,0,0,0,1,1.13h0c7.17,0,17.22-.06,24.48.21a24.84,24.84,0,0,0,2.77-.07,8.39,8.39,0,0,0-.12-2.07,21.54,21.54,0,0,1-2.58.06c-6.92-.25-16.37-.26-23.45-.21,0-1.64-.09-4-1.19-4.77-.5-.37-1.16-.54-4.66.84-2.49,1-15.24,6.61-15.83,9.79a2.94,2.94,0,0,0,.83,2.25c2.94,3.68,15.94,11.54,17.31,11.6h0a1.36,1.36,0,0,0,1-.4c.77-.74,1.06-2.9,1.17-4.22,7.64.13,20,.27,24.16-.1,6.63-.6,9.93-7.37,10.07-7.67l1.51-3.27A1,1,0,0,1,151.83,134.16Z"/><path class="cls-3" d="M144.06,132a19,19,0,0,0,2.09-.24,10.25,10.25,0,0,0-.15-2.08,17.6,17.6,0,0,1-2.06.25A8.39,8.39,0,0,1,144.06,132Z"/><path class="cls-3" d="M156.38,124.88v0a1.05,1.05,0,0,1-.93.57,1,1,0,0,1-.45-.1,1,1,0,0,1-.59-.95,10.61,10.61,0,0,1-.51,1.25l-3.16,6.67-.08,0L149.44,135l2.39-.85a1,1,0,0,0,.45-.34l4.1-8.94Z"/><path class="cls-3" d="M154.51,124h0v0a1.06,1.06,0,0,0-.09.42c.07-.18.14-.37.19-.55A.87.87,0,0,0,154.51,124Z"/><path class="cls-3" d="M155.89,123.51a1,1,0,0,0-1.3.37c-.05.18-.12.37-.19.55a1,1,0,0,0,.59.95,1,1,0,0,0,.45.1,1.05,1.05,0,0,0,.93-.57v0A1,1,0,0,0,155.89,123.51Z"/><path class="cls-2" d="M50.26,143.51l.16.26c2.6,3,5.81,3,10.35,3,1.39,0,2.83,0,4.4.11,5.79.34,17.12.46,20.59.48l.15-11.56c-4.57-.17-23.17-.88-27.46-1.12-2.92-.16-5.72-.31-8.21-1.42C48,138.65,49.58,142.33,50.26,143.51Z"/><path class="cls-3" d="M60.76,148.87c1.36,0,2.77,0,4.28.11,6.91.41,21.59.5,21.73.5a1.05,1.05,0,0,0,1-1L88,134.84a1.05,1.05,0,0,0-1-1.05c-.24,0-23.57-.88-28.52-1.15-2.78-.15-5.21-.29-7.31-1.21a17.91,17.91,0,0,0-.93,1.86c2.49,1.11,5.29,1.26,8.21,1.42,4.29.24,22.89.95,27.46,1.12l-.15,11.56c-3.47,0-14.8-.14-20.59-.48-1.57-.1-3-.1-4.4-.11-4.54,0-7.75-.05-10.35-3l0,.07a1,1,0,0,1-.31,1.4,1,1,0,0,1-1.42-.26s-.1-.14-.25-.39h0l-5.17-8.36a2,2,0,0,0,.08.22l4,6.7C50.82,148.82,55.43,148.85,60.76,148.87Z"/><path class="cls-3" d="M50.27,143.52s0,.09,0,.13l.11.12-.16-.26Z"/><path class="cls-3" d="M49.9,144.93a1,1,0,0,1-1.42-.34c.15.25.25.39.25.39a1,1,0,0,0,1.42.26,1,1,0,0,0,.31-1.4l0-.07-.11-.12A1,1,0,0,1,49.9,144.93Z"/><path class="cls-3" d="M48.42,132.26a16,16,0,0,0-1.42,6l-1.59-2.57,0,.07,3.8,6.33a12.62,12.62,0,0,0,.76,1.11,1,1,0,0,1,.3.31v0c-.68-1.18-2.3-4.86,0-10.22A11,11,0,0,1,48.42,132.26Z"/><path class="cls-3" d="M43.27,135.65l.62-2.45-.7-1.13s-3.37-5.73-.76-10.56c2-3.77,9.49-14.65,13.74-20.8v0a1,1,0,0,0-.25-1.41A17.89,17.89,0,0,1,53.34,97a93.14,93.14,0,0,1,8.53-4.08c7.4-3.13,9.23-2.93,9.53-2.85.37.63.63,3.69-.1,9.83a49.65,49.65,0,0,1-1.87,9.61,11.54,11.54,0,0,1-3.33-2,1.07,1.07,0,0,0-.81-.22,1,1,0,0,0-.7.45h0c-3.92,6-9.48,14.38-13.72,20.27-.57.81-1,1.58-1.48,2.34a8.14,8.14,0,0,0,1.79,1.05,22.18,22.18,0,0,1,1.38-2.18c4-5.62,9.27-13.49,13.16-19.41,1.34,1,3.33,2.11,4.62,1.65.59-.22,1.1-.67,1.89-4.35.56-2.61,2.93-16.35.61-18.6A2.94,2.94,0,0,0,70.5,88c-4.7.41-18.44,6.89-19.25,8h0l0,0a1.32,1.32,0,0,0-.2,1c.19,1,1.83,2.49,2.87,3.31-4.34,6.29-11.29,16.49-13.29,20.19-3.17,5.85.64,12.34.81,12.62l1.89,3.07A1.1,1.1,0,0,1,43.27,135.65Z"/><path class="cls-3" d="M49.38,130.38c-.36.64-.69,1.27-1,1.88a11,11,0,0,0,1.82,1,17.91,17.91,0,0,1,.93-1.86A8.14,8.14,0,0,1,49.38,130.38Z"/><path class="cls-3" d="M48.48,144.59v0a1,1,0,0,1,0-1.09,1.22,1.22,0,0,1,.33-.31,1,1,0,0,1,1.12,0,12.62,12.62,0,0,1-.76-1.11l-3.8-6.33,0-.07-1.52-2.47-.62,2.45a1.1,1.1,0,0,0,0,.57l5.17,8.36Z"/><path class="cls-3" d="M50.27,143.52h0v0a1,1,0,0,0-.3-.31l.36.47S50.29,143.56,50.27,143.52Z"/><path class="cls-3" d="M49.9,144.93a1,1,0,0,0,.41-1.28l-.36-.47a1,1,0,0,0-1.12,0,1.22,1.22,0,0,0-.33.31,1,1,0,0,0,0,1.09v0A1,1,0,0,0,49.9,144.93Z"/><path class="cls-2" d="M86.21,45.8l-.31,0c-3.78,1.15-5.11,4.07-7,8.2-.58,1.27-1.17,2.58-1.9,4-2.68,5.14-7.42,15.44-8.87,18.59l10.49,4.86c2-4.09,10.28-20.77,12.25-24.59,1.34-2.6,2.63-5.09,4.66-6.91C91.59,45.69,87.56,45.66,86.21,45.8Z"/><path class="cls-3" d="M77,53.18c-.57,1.24-1.15,2.53-1.85,3.87-3.2,6.13-9.28,19.49-9.34,19.62a1,1,0,0,0,.5,1.37l12.35,5.73A1,1,0,0,0,80,83.29c.11-.21,10.46-21.14,12.73-25.55,1.27-2.47,2.39-4.63,4.09-6.17A19,19,0,0,0,95.54,50c-2,1.82-3.32,4.31-4.66,6.91-2,3.82-10.22,20.5-12.25,24.59L68.14,76.6C69.59,73.45,74.33,63.15,77,58c.73-1.39,1.32-2.7,1.9-4,1.88-4.13,3.21-7,7-8.2h-.07a1,1,0,0,1-.33-2.05l.45-.06h0l9.74-1.29a.86.86,0,0,0-.23,0l-7.76.93C81.13,44.14,79.23,48.33,77,53.18Z"/><path class="cls-3" d="M86.2,45.8l-.14,0-.16.06.31,0Z"/><path class="cls-3" d="M85.06,44.88A1,1,0,0,1,86,43.74l-.45.06a1,1,0,0,0,.33,2.05h.07l.16-.06A1,1,0,0,1,85.06,44.88Z"/><path class="cls-3" d="M97.23,48.72A16,16,0,0,0,92.35,45l3-.4-.06,0L88,45.41a12.17,12.17,0,0,0-1.33.24,1.06,1.06,0,0,1-.4.14h0c1.35-.14,5.38-.11,9.33,4.16A10.67,10.67,0,0,1,97.23,48.72Z"/><path class="cls-3" d="M96.24,42.64l2,1.56L99.54,44c.06,0,6.61-.73,9.94,3.63,2.61,3.41,9.5,14.65,13.37,21.05h0a1,1,0,0,0,1.39.36,18.2,18.2,0,0,1,3.14-1.44,92.23,92.23,0,0,1,.23,9.46c-.17,8-1.1,9.62-1.29,9.86-.74.08-3.63-.93-8.94-4.12a48.68,48.68,0,0,1-8-5.63A11.68,11.68,0,0,1,112.56,75a1,1,0,0,0,.53-.65,1.1,1.1,0,0,0-.12-.83h0c-3.86-6-9.24-14.54-12.88-20.82a25.71,25.71,0,0,0-1.53-2.31,8.34,8.34,0,0,0-1.69,1.21,22.27,22.27,0,0,1,1.42,2.15c3.48,6,8.52,14,12.33,20-1.41.83-3.29,2.17-3.39,3.54,0,.62.16,1.28,3.19,3.5,2.15,1.58,13.72,9.36,16.72,8.17A3,3,0,0,0,128.6,87c1.54-4.46,1.26-19.64.57-20.83h0l0-.05a1.36,1.36,0,0,0-.84-.59c-1-.25-3,.65-4.19,1.26-4-6.53-10.42-17-13-20.38-4-5.29-11.52-4.46-11.85-4.43l-3.58.48A1,1,0,0,1,96.24,42.64Z"/><path class="cls-3" d="M98.55,50.36c-.44-.59-.88-1.14-1.32-1.64A10.67,10.67,0,0,0,95.54,50a19,19,0,0,1,1.32,1.61A8.34,8.34,0,0,1,98.55,50.36Z"/><path class="cls-3" d="M86,43.74h0a1,1,0,0,1,.64,1.92A12.17,12.17,0,0,1,88,45.41l7.33-.88.06,0,2.87-.38-2-1.56a1,1,0,0,0-.54-.2L86,43.73Z"/><path class="cls-3" d="M86.2,45.8h0a1.06,1.06,0,0,0,.4-.14l-.57.13Z"/><path class="cls-3" d="M85.06,44.88a1,1,0,0,0,1,.9l.57-.13a1,1,0,0,0,.49-1A1,1,0,0,0,86,43.73h0A1,1,0,0,0,85.06,44.88Z"/></g></g></svg>