<svg xmlns="http://www.w3.org/2000/svg" viewBox="0 0 199 199"><defs><style>.cls-1{fill:#e94e1b;}.cls-2{fill:#fff;}</style></defs><g id="Calque_2" data-name="Calque 2"><g id="Layer_1" data-name="Layer 1"><circle class="cls-1" cx="99.5" cy="99.5" r="99.5"/><path class="cls-2" d="M123.44,81A24.81,24.81,0,0,0,109.2,57.89a28.93,28.93,0,0,0-29,2.69,25,25,0,0,0-10.33,25c1.66,8.84,7.23,16.71,13.19,23.24a86,86,0,0,0,12.74,11.6c1,.75,3.07,0,3.86-.75a108.74,108.74,0,0,0,7.81-8.4c4.88-5.74,9.51-11.9,12.72-18.75A30.89,30.89,0,0,0,123.44,81c.11-2.16-4.76-1.26-4.85.53-.34,7.13-4.14,13.78-8,19.56a114,114,0,0,1-12.05,14.8c-.91.95-1.82,1.89-2.77,2.8l3.86-.74-.76-.58-.16-.12-.5-.4-1.19-1c-2.33-1.94-4.58-4-6.72-6.14-5.74-5.75-11.1-12.38-14-20a26.13,26.13,0,0,1-1.81-12.48,21.67,21.67,0,0,1,28-18c9.57,3,16.52,12.23,16.17,22.32C118.52,83.67,123.38,82.76,123.44,81Z"/><path class="cls-2" d="M106.51,80.16c-.06,4.28-2.33,8.8-6.58,10.29-4.05,1.43-8.52-.56-11.08-3.79a11.69,11.69,0,0,1-1.06-12.78c2-3.58,5.81-5.72,9.91-4.8a11.59,11.59,0,0,1,8.81,11.08c0,1.1,1.22,1.28,2.12,1.18.74-.08,2.74-.67,2.73-1.73a13.69,13.69,0,0,0-9.3-12.91A16.3,16.3,0,0,0,85,71.28a13.63,13.63,0,0,0-1.52,16c3.14,5.26,9.57,7.4,15.4,6.28,6.75-1.3,12.41-6.85,12.51-13.94C111.38,77.47,106.53,78.41,106.51,80.16Z"/><path class="cls-2" d="M105.5,110.51l23.54.12h3.4l-1.29-.38,17.71,19.81,2.54,2.83,3.2-2.24-11.36.08-27.3.18-33,.22-28.67.19-9.41.06a30.31,30.31,0,0,0-4.47,0,1.21,1.21,0,0,1-.19,0l1.28,1.34,17.82-20.82,2.54-3-3.19,1.3,22.95.12h3.29c1,0,2.62-.35,3.19-1.29s-.49-1.33-1.28-1.33l-25-.13c-1.66,0-3.31,0-4.52,1.41-.84,1-1.66,1.94-2.48,2.91l-10.24,12L37,132.72c-.75.88.66,1.34,1.29,1.33L49.62,134l27.3-.19,33-.22,28.67-.19c4.62,0,9.25,0,13.87-.09h.2c.74,0,4.37-.93,3.2-2.24L139,112.12c-1-1.13-2-2.31-3-3.39a3.17,3.17,0,0,0-2.51-.72l-13.66-.07-12.35-.06c-1,0-2.62.35-3.19,1.29s.49,1.33,1.28,1.34Z"/></g></g></svg>