<svg xmlns="http://www.w3.org/2000/svg" viewBox="0 0 199 199"><defs><style>.cls-1{fill:#e94e1b;}.cls-2{fill:#fff;}</style></defs><g id="Calque_2" data-name="Calque 2"><g id="Layer_1" data-name="Layer 1"><circle class="cls-1" cx="99.5" cy="99.5" r="99.5"/><path class="cls-2" d="M109.64,89a11.3,11.3,0,0,0,8.21,4.11,17.25,17.25,0,0,0,9-1.64c6.08-3.11,9.78-9.42,10.93-16a50,50,0,0,0,.47-7.64l-3.32,1.78h5.82a4,4,0,0,0,2.65-.83c.44-.37,1-1.14.48-1.69L133,56.09c-1.05-1.08-3.26-.49-4.2.46L118,67.58c-1,1-.17,2.06,1.07,2.06h6.15l-1.53-1.28c-.33,3.71-.53,7.45-2.14,10.89a15,15,0,0,1-4.08,5.41,7.54,7.54,0,0,1-4.66,1.85c-1.08,0-2.62.32-3.17,1.39s.43,1.68,1.37,1.68a16.68,16.68,0,0,0,14.28-8.52c2.41-4.1,2.84-8.59,3.25-13.2.08-.84-.79-1.28-1.53-1.28h-6.14l1.07,2.06,10.86-11-4.21.47,10.86,11,3.12-2.53H136.7c-.91,0-3.3.44-3.33,1.78a51.52,51.52,0,0,1-.43,7.46,21.69,21.69,0,0,1-4.23,10,13.81,13.81,0,0,1-3.39,3.08,9,9,0,0,1-1.84.89,8.81,8.81,0,0,1-1.54.32,11.45,11.45,0,0,1-4-.23,8.29,8.29,0,0,1-3.86-2.8c-1.26-1.4-5.88.41-4.46,2Z"/><path class="cls-2" d="M109.62,98.14a10.62,10.62,0,0,0,2.21,8.67,14.55,14.55,0,0,0,6.69,4.88c6.65,2.35,14.38.26,20.17-3.33a61.09,61.09,0,0,0,6-4.61l-4.21.46,3.78,4.44c1,1.17,4.51.41,4.65-1.25L150.31,92c.08-.88-.8-1.22-1.53-1.28l-15.43-1.13c-1-.07-4.4,1-3.13,2.53l4,4.68.69-1.87c-2.78,2-5.48,4.09-8.83,5-4.18,1.16-8.88.38-11.79-3.05-1.22-1.43-5.84.36-4.46,2,3.89,4.58,10.34,5.3,15.89,4.12,4.68-1,8.45-3.62,12.27-6.32.55-.38,1.26-1.19.69-1.87l-4-4.68-3.13,2.53L147,93.77l-1.54-1.27-1.37,15.41,4.65-1.25L145,102.22c-1-1.22-3.23-.32-4.2.47-4.31,3.51-9,7.06-15.18,6.88a11.44,11.44,0,0,1-8.07-3.31,13.61,13.61,0,0,1-2.56-3.48,9,9,0,0,1-.48-5.15c.29-2.14-4.6-1.36-4.85.51Z"/><path class="cls-2" d="M113.84,120a11.69,11.69,0,0,1,1.9-1.82,3.17,3.17,0,0,1,1.43-.63,15.76,15.76,0,0,1,1.89-.16,12.13,12.13,0,0,1,2,.09,12.47,12.47,0,0,1,7.39,4.72,21.94,21.94,0,0,1,4.43,10,46.28,46.28,0,0,1,.49,7.44,1.38,1.38,0,0,0,1.54,1.28h5.82l-1.08-2.06-10.85,11,4.2-.47-10.85-11L119,140.91h6.15c1.23,0,3.46-.55,3.31-2.18-.4-4.45-.8-8.71-3-12.71-2.57-4.61-7.26-8.11-12.69-8.11-1.08,0-2.62.32-3.17,1.39S110,121,111,121c4.65,0,8.41,3.64,10.32,7.61,1.75,3.62,2,7.5,2.37,11.44l3.31-2.18h-6.14a4,4,0,0,0-2.66.83c-.43.37-1,1.13-.47,1.69l10.85,11c1.06,1.08,3.27.49,4.21-.46l10.85-11c1-1,.17-2.06-1.08-2.06H136.7l1.53,1.28c0-2,0-4.11-.22-6.14a25.34,25.34,0,0,0-3.13-9.91c-3.09-5.5-8.34-8.91-14.69-8.77a13.4,13.4,0,0,0-10.3,4.61,1.11,1.11,0,0,0,.53,2,3.74,3.74,0,0,0,3.42-.92Z"/><path class="cls-2" d="M86.68,82.88a41.26,41.26,0,0,0-3.09,10.06c0,.27-.09.54-.12.8s-.12.46-.07.55l1.1-.35h0a.38.38,0,0,0-.15,0c-1.81-.21-3.68-.19-5.5-.28l-8.17-.43-2.82-.14L66.31,93l-.37,0h-.12c-.14,0-.17,0-.07,0s0-.23,0-.29a1.89,1.89,0,0,1,0-.23A28.21,28.21,0,0,1,67,89.09a97.88,97.88,0,0,1,4-9c.69-1.39,1.41-2.78,2.21-4.11a4.7,4.7,0,0,1,1.46-1.58,3.73,3.73,0,0,1,1.61-.63c.33,0,.64,0,1,0h4.35l11.94,0,10,0H108a2.82,2.82,0,0,1,.87,0c-.19-.07-.07,0,0,.13s-.28.38.29,0c2.25-1.34.36-.17.3-.18s-.07,0-.09,0a3.81,3.81,0,0,0-.45.13L98.67,77l-5.42,1.64c-1,.3-2,.55-2.91.9a6.48,6.48,0,0,0-3.66,3.35c-.6,1.36,2.3,1.1,2.72.15a3.68,3.68,0,0,1,2.15-2.14l1-.31,5-1.52L109,75.62l.94-.29a2.83,2.83,0,0,0,1.75-1.24,1.43,1.43,0,0,0-1-2,12.23,12.23,0,0,0-3.2-.09h-3.19l-5.58,0L84.12,72H77.69a8.47,8.47,0,0,0-7.85,4.9,94.82,94.82,0,0,0-4.52,9.36c-.61,1.44-1.2,2.89-1.73,4.37-.4,1.1-1.41,3-.05,3.82.88.51,2.23.35,3.22.4l3,.16,4.82.25,8.34.43.47,0a2.69,2.69,0,0,0,3-2.18,36.76,36.76,0,0,1,1.36-6A42.37,42.37,0,0,1,89.4,83C90,81.67,87.11,81.92,86.68,82.88Z"/><path class="cls-2" d="M64.63,97.65l16.61-.51a16.07,16.07,0,0,1,2.3-.07h0c-.32-.06-.08,0,0,.19a2.77,2.77,0,0,1,.12.65l.4,2.63.78,5,2.38,15.34,2.2,14.17a13.29,13.29,0,0,1,.32,2.07c0,.12-.1.25-.1.34l1.54-.44-.12-.11c-.08-.15-.19-.32-.28-.48l-1.36-2.51-2.23-4.1-3.59-6.62-4-7.34c-.4-.75-.8-1.51-1.22-2.25l-.08-.16a1.47,1.47,0,0,0-.6-.61,3.21,3.21,0,0,0-2.61.12,2.38,2.38,0,0,0-1.48,2l-5,21a7.33,7.33,0,0,0-.24,1h0q-.31.88,1.41-.27c0-.08-.16-.19-.19-.29a8.1,8.1,0,0,1-.14-1.4l-.49-5.1-.87-9-1.9-19.59-.3-3.11a4.13,4.13,0,0,1-.08-.78.69.69,0,0,1,.27-.42l-.46.36-.64.23c.48,0,1.55-.35,1.66-.92s-.88-.55-1.22-.52c-1.2.11-2.59.86-2.49,2.19,0,.54.1,1.08.15,1.62l1.41,14.44,1.57,16.23.51,5.23c.06.66,0,1.47.56,1.92a3,3,0,0,0,2.79,0,2.13,2.13,0,0,0,1.34-1.34c.2-.69.34-1.4.51-2.1l2.06-8.6,2-8.19.57-2.35a8.13,8.13,0,0,0,.34-1.42l0-.14q-2.11,0-1.41.45s.15.16.1.09h0a7.93,7.93,0,0,1,.6,1.11l9.66,17.79,1.18,2.18c.45.81.84,1.69,1.35,2.47.92,1.39,3.87.67,4.38-.81a1.59,1.59,0,0,0,.06-.65c0-.26-.09-.53-.13-.79L91,125.39l-2-12.62L87.65,104l-.8-5.21-.19-1.2a4.77,4.77,0,0,0-.26-1.29,1.71,1.71,0,0,0-1.67-.76c-5.69.06-11.4.35-17.09.53l-1.84.05a2.54,2.54,0,0,0-1.92.76C63.5,97.46,64.19,97.66,64.63,97.65Z"/><path class="cls-2" d="M82.8,71.22a7.54,7.54,0,0,1-6.66-4.88,7.68,7.68,0,0,1,1.8-8.26,6.34,6.34,0,0,1,1.67-1.14,4.47,4.47,0,0,1,1.48-.39,6.79,6.79,0,0,1,4,1.05,7.85,7.85,0,0,1,3.6,7.71,7.57,7.57,0,0,1-2.24,4.36,6.69,6.69,0,0,1-1.73,1.17,5.28,5.28,0,0,1-.76.26,5.91,5.91,0,0,1-1.18.12,2.61,2.61,0,0,0-1.93.74c-.39.54.34.67.74.67,3.89,0,7.84-2.15,9.42-5.81a8.36,8.36,0,0,0-2.41-9.7C85.5,54.56,81,54.61,77.51,56.5a8.49,8.49,0,0,0,4.1,16.13,2.59,2.59,0,0,0,1.92-.74C83.93,71.35,83.19,71.22,82.8,71.22Z"/><path class="cls-2" d="M132,47.84A62.75,62.75,0,0,0,43.13,69a61.09,61.09,0,0,0,21.08,82.48A63,63,0,0,0,115,158.06a67.87,67.87,0,0,0,7.18-2.65c1-.41,1.78-1.63,1.11-2.61S121,152,120,152.37a57.28,57.28,0,0,1-48.24-1.59,58.31,58.31,0,0,1-26.83-75.5,56.71,56.71,0,0,1,77.65-27.89,55.7,55.7,0,0,1,5.74,3.34,3.07,3.07,0,0,0,3.47-.26c.8-.63,1.26-1.95.22-2.63Z"/></g></g></svg>