<svg xmlns="http://www.w3.org/2000/svg" viewBox="0 0 199 199"><defs><style>.cls-1{fill:#e94e1b;}.cls-2,.cls-3{fill:#fff;}.cls-3,.cls-4{stroke:#fff;}.cls-3{stroke-miterlimit:10;stroke-width:2.5px;}.cls-4{fill:none;stroke-linecap:round;stroke-linejoin:round;stroke-width:3px;}</style></defs><g id="Calque_2" data-name="Calque 2"><g id="Layer_1" data-name="Layer 1"><circle class="cls-1" cx="99.5" cy="99.5" r="99.5"/><path class="cls-2" d="M23.86,139.76H148.75c5.74,0,11.47,0,17.21,0h.24c1.36,0,3.1-.37,3.8-1.7s-.54-2.15-1.7-2.15H43.41c-5.73,0-11.47,0-17.21,0H26c-1.35,0-3.1.37-3.79,1.7-.62,1.18.54,2.15,1.69,2.15Z"/><path class="cls-2" d="M56.25,126.22a10.68,10.68,0,0,0,6.86,10.39,13,13,0,0,0,13.8-3.2A10.7,10.7,0,0,0,78.58,121c-2.25-4.13-7.21-6.1-11.75-5.4-5.42.83-10.24,5-10.58,10.66-.13,2.28,4.75,1.46,4.87-.47a8.53,8.53,0,0,1,1.52-4.53,6.88,6.88,0,0,1,1.51-1.5c.13-.1.27-.19.41-.28.64-.42-.38.16.31-.18a4.54,4.54,0,0,1,.45-.21l.46-.19c-.2.07-.22.08,0,0a5.41,5.41,0,0,1,1.75-.27,7,7,0,0,1,2.34.45A8,8,0,0,1,73.48,122a8.41,8.41,0,0,1,.28,9.25,7,7,0,0,1-1.43,1.65,6.38,6.38,0,0,1-1.73,1c-.07,0-.46.15-.08,0-.23.08-.48.14-.72.2-.07,0-.48.08-.09,0-.21,0-.42.06-.63.07a6.45,6.45,0,0,1-2-.2,8.31,8.31,0,0,1-5.92-8.24c0-1.15-1.23-1.44-2.17-1.35S56.29,125.09,56.25,126.22Z"/><circle class="cls-3" cx="68.07" cy="126.41" r="4.31" transform="matrix(0.98, -0.19, 0.19, 0.98, -22.22, 14.78)"/><path class="cls-2" d="M117.62,125.62A10.67,10.67,0,0,0,124.47,136a13,13,0,0,0,13.8-3.2,10.68,10.68,0,0,0,1.67-12.45c-2.25-4.13-7.2-6.11-11.74-5.41-5.43.84-10.24,5-10.58,10.67-.14,2.28,4.75,1.46,4.86-.47a8.51,8.51,0,0,1,1.53-4.54,7.33,7.33,0,0,1,1.5-1.5l.41-.27c.64-.42-.37.16.32-.19l.44-.21.46-.18c-.2.07-.21.08,0,0a4.92,4.92,0,0,1,1.75-.27,6.94,6.94,0,0,1,2.34.45,8,8,0,0,1,3.65,2.88,8.4,8.4,0,0,1,.29,9.26,7.53,7.53,0,0,1-1.44,1.65,6.23,6.23,0,0,1-1.73,1c-.07,0-.46.15-.07,0-.24.08-.48.14-.73.2-.06,0-.47.08-.08,0l-.64.07a6.53,6.53,0,0,1-2-.21,8.3,8.3,0,0,1-5.92-8.23c0-1.15-1.23-1.44-2.16-1.35S117.65,124.49,117.62,125.62Z"/><circle class="cls-3" cx="129.44" cy="125.81" r="4.31" transform="translate(-21.05 26.13) rotate(-10.67)"/><path class="cls-2" d="M141.14,129.79c6.63.45,15.55-1,17.12-8.76a22.61,22.61,0,0,0,.26-3.58c0-1.47.2-2.93.21-4.39,0-3.27-.61-6.49-3.08-8.83-3.12-3-7.67-4.15-11.68-5.32-2.35-.68-4.72-1.31-7.09-1.94l-3.94-1.09-1-.29c.25.1-.17-.08-.22-.11l-.5-.25c-2.61-1.45-4.66-4-6.57-6.33-2.21-2.68-4.29-5.47-6.68-8-1.94-2.06-4.3-4.24-7.17-4.84a53.55,53.55,0,0,0-6.8-.74c-2.44-.19-4.88-.31-7.32-.38a146.89,146.89,0,0,0-29,1.78c-11.11,1.93-19,12.16-23.17,22a91.26,91.26,0,0,0-4.59,13.81c-.76,3.17-1.53,6.84-.17,10,1.61,3.68,5,5.93,8.71,7.25a22.24,22.24,0,0,0,6.1,1.21c1.36.09,3.25-.46,4-1.72s-.63-2-1.71-2a14.46,14.46,0,0,1-9.21-3.78c-2.33-2.35-2.76-5.15-2.27-8.3.84-5.48,2.81-10.78,4.79-15.93.14-.37-.2.45,0,0l.06-.13c.18-.41.36-.82.55-1.22a55.23,55.23,0,0,1,2.77-5.14,40.87,40.87,0,0,1,4.77-6.46,27.77,27.77,0,0,1,3.2-3,23,23,0,0,1,2.94-1.86l1-.45.4-.15c-.58.21-.11,0,0,0l1.09-.29c.11,0,.6-.12,0,0l1-.16c2.09-.33,4.2-.6,6.3-.82q6.55-.69,13.15-.79c4.59-.08,9.18,0,13.75.37,2.12.15,4.28.26,6.37.62-.67-.12.12.06.29.11s.41.16,0,0a3.39,3.39,0,0,1,.39.18,14,14,0,0,1,1.57,1,35.67,35.67,0,0,1,5.93,6.26c2,2.53,4,5.14,6.29,7.49a16,16,0,0,0,7.13,4.71c4.47,1.28,9,2.35,13.43,3.75,3.26,1,7.06,2.18,9,5.27,1.4,2.27,1.27,5.12,1.11,7.68-.14,2.27.06,4.7-.73,6.89a5.1,5.1,0,0,1-1.45,2.06c.4-.36-.1,0-.26.16-.54.41.28-.07-.37.22-.21.09-.89.35-.3.15a12.57,12.57,0,0,1-1.24.34c-.5.11.44-.06-.09,0l-.49.06c-.45.06-.92.11-1.38.13a27.44,27.44,0,0,1-2.86-.07c-1.36-.1-3.25.46-4,1.71s.63,2,1.71,2Z"/><path class="cls-2" d="M117.93,126.57H82.43c-1.38,0-3.22.41-4,1.73s.59,2.08,1.72,2.08h35.49c1.39,0,3.22-.41,4-1.73s-.59-2.08-1.71-2.08Z"/><path class="cls-2" d="M94.28,87.1l-.1,10.06v1.45a1.08,1.08,0,0,0,.63,1.14,3.51,3.51,0,0,0,2,.24,5.44,5.44,0,0,0,2.28-.78c.41-.28,1.13-.77,1.13-1.32l.1-10.06,0-1.45a1.1,1.1,0,0,0-.63-1.14,3.52,3.52,0,0,0-2-.24,5.48,5.48,0,0,0-2.29.78c-.4.28-1.12.77-1.13,1.32Z"/><path class="cls-2" d="M115.25,97.5H67.77l1.86,1a17.83,17.83,0,0,1,0-7.31,10,10,0,0,1,.83-2.5,4.72,4.72,0,0,1,1.61-2c-.37.28.06,0,.21-.1.48-.3-.34.19.18-.08s-.41.08.3-.1,0,0-.35,0a8.53,8.53,0,0,0,1.13,0q9.31-.14,18.62,0c5.18.07,9.66,2.55,13.34,6.3a36.37,36.37,0,0,1,4.2,5.22c.4.6.77,1.22,1.14,1.84.26.44-.14-.27.11.2l.11.2c.61,1.21,2.31,1.1,3.44.79.69-.18,3.18-1.23,2.59-2.41-4-7.89-11.53-14.8-20.59-15.65-4.1-.38-8.35-.15-12.47-.15-2.7,0-5.4,0-8.1.06-5,.08-9.71,2.12-11.68,7a19,19,0,0,0-.68,10.4c.15.75,1.26,1,1.87,1h47.48c1.36,0,3.21-.42,4-1.68S116.29,97.5,115.25,97.5Z"/><path class="cls-4" d="M54.26,87.94c.13-.66,1.26-1.32,1.43-2,.26-1,1.56-2,1.9-3s.73-2,1.16-2.92.9-1.89,1.42-2.8,1.06-1.81,1.65-2.68,1.22-1.7,1.89-2.52a36.57,36.57,0,0,1,4.39-4.5c.79-.68,1.62-1.33,2.47-2s1.73-1.18,2.63-1.72,1.83-1,2.78-1.49,1.91-.88,2.9-1.25a37.4,37.4,0,0,1,4-1.25,11,11,0,0,0,10.33,7.27H98c.64,0,1.11-1.65,1.4-4h7.17a1.81,1.81,0,0,0,1.81-1.81v-.09a1.81,1.81,0,0,0-1.81-1.81H99.72c.09-2.08.09-4.32,0-6.4h6.88a1.81,1.81,0,0,0,1.81-1.81v-.09a1.81,1.81,0,0,0-1.81-1.81H99.43c-.29-2.39-.76-4-1.4-4h-4.8a11,11,0,0,0-10.82,9.21A39.32,39.32,0,0,0,77,56a41.56,41.56,0,0,0-6.6,3.06c-1,.61-2.07,1.26-3.07,2s-1.95,1.44-2.88,2.22a41.25,41.25,0,0,0-9.27,11.16c-.6,1.06-1.16,2.14-1.66,3.25s-1,2.24-1.36,3.39a40.28,40.28,0,0,0-1.8,7.07c-.09.56-.17,1.13-.24,1.7C52.08,89.11,52.14,88.48,54.26,87.94Z"/></g></g></svg>