<svg id="Layer_1" data-name="Layer 1" xmlns="http://www.w3.org/2000/svg" viewBox="0 0 442.87 442.87"><defs><style>.cls-1{fill:#263a29;}.cls-2,.cls-3,.cls-4{fill:#fff;}.cls-2,.cls-4{fill-rule:evenodd;}.cls-4{stroke:#fff;stroke-miterlimit:10;stroke-width:3px;}</style></defs><circle class="cls-1" cx="219.63" cy="220.82" r="220.02"/><path class="cls-2" d="M279.3,231.15a1.76,1.76,0,0,0-.88.08,2,2,0,0,1-.88-4,7.36,7.36,0,0,1,8.87,8.89,2,2,0,1,1-4-.88,3,3,0,0,0,0-1.62,91.59,91.59,0,0,1-125-.22,3.15,3.15,0,0,0-.14,1.84,2.07,2.07,0,0,1-1.54,2.42,2,2,0,0,1-2.35-1.54,7.42,7.42,0,0,1,8.8-8.89,2,2,0,0,1-.88,4,1,1,0,0,0-.51-.08,87.82,87.82,0,0,0,118.46,0Z"/><path class="cls-3" d="M280.19,229.61a7.36,7.36,0,0,0-1.05,0l-.66.12.41,0c-.21-.26-.41-.33-.48-.71,0-.17.09-.44,0-.57l.1-.18-.64.38a3.38,3.38,0,0,0,.76,0,5.48,5.48,0,0,1,4,2,6.5,6.5,0,0,1,1.52,4.55,11.18,11.18,0,0,0-.22,1.31c-.1.15-.06.15.13,0a1,1,0,0,1,.7-.22c1.11-.22.34,0,.29-.36a3.2,3.2,0,0,1-.13-1.09,5.24,5.24,0,0,0-.05-1.81c-.16-.75-1.25-.9-1.83-.89a3.89,3.89,0,0,0-2.56,1,88.12,88.12,0,0,1-45.93,22.42A89.16,89.16,0,0,1,184.71,249a91,91,0,0,1-25-16.57c-1.28-1.2-4.13-.41-4.65,1.24a6.93,6.93,0,0,0-.18,2.79c-.39.58.09.5,1.44-.25a.58.58,0,0,1-.23-.21,5.44,5.44,0,0,1-.3-.86,6.24,6.24,0,0,1,1.1-4.73,4,4,0,0,1,2.85-1.78c.53,0,1.18-.07,1.51.43s-.08.79,0,1.07c-.14-.34,2.5-.46.46-.53a3.94,3.94,0,0,0-2.65.83c-.41.36-1.05,1.18-.47,1.71a90.43,90.43,0,0,0,46.81,22.45,91.5,91.5,0,0,0,75.85-22.91,1.12,1.12,0,0,0-.53-2,3.78,3.78,0,0,0-3.41.92,84.08,84.08,0,0,1-43.4,20.93,85.41,85.41,0,0,1-47.09-6,87.19,87.19,0,0,1-23.77-15.4l-3.13,2.54a8.89,8.89,0,0,0,3.05-.2,4.88,4.88,0,0,0,2.83-2.06,3.1,3.1,0,0,0-1.38-4.36c-3.48-1.69-8.46.1-11,2.67a9.06,9.06,0,0,0-2.48,4.58c-.31,1.55-.32,3.72.87,4.9,1.59,1.58,4.36,1.21,6.09.09a4,4,0,0,0,1.8-2.35c.21-.95-.13-1.82.17-2.79l-4.65,1.25a94,94,0,0,0,49.23,24.11,95.36,95.36,0,0,0,80-24.35l-4.39.11c.2,1-.25,1.9.13,2.86a3.28,3.28,0,0,0,2.07,1.88,5.59,5.59,0,0,0,6-1.88c1.88-2.64.48-7-1.68-9.06a10,10,0,0,0-10.35-1.93c-1.72.73-3.22,2.53-2.55,4.48a3.21,3.21,0,0,0,2,1.9,5.36,5.36,0,0,0,1.49.26c.11,0,2.4-.07,1.21-.11,1.07,0,2.63-.34,3.16-1.39S281.13,229.65,280.19,229.61Z"/><path class="cls-4" d="M220,121c.07-10.13-.08-20.2-.29-30.34a1.55,1.55,0,0,0-1.54-1.54,1.62,1.62,0,0,0-1.55,1.61c.22,10.07.37,20.14.3,30.2a1.44,1.44,0,0,0,1.46,1.54A1.56,1.56,0,0,0,220,121Z"/><path class="cls-4" d="M269.1,134.24c5.14-8.74,10-17.56,15-26.45a1.51,1.51,0,0,0-.66-2.06,1.47,1.47,0,0,0-2.06.59c-4.84,8.82-9.75,17.64-14.89,26.3a1.59,1.59,0,0,0,.59,2.14,1.5,1.5,0,0,0,2.05-.52Z"/><path class="cls-4" d="M305.12,170.32c8.8-5,17.46-10.14,26.11-15.43a1.54,1.54,0,0,0,.51-2.13,1.61,1.61,0,0,0-2.12-.52c-8.58,5.22-17.24,10.44-26,15.36a1.58,1.58,0,0,0-.59,2.13,1.56,1.56,0,0,0,2.06.59Z"/><path class="cls-4" d="M318.32,219.62c10.12.07,20.17-.08,30.3-.29a1.49,1.49,0,0,0,1.46-1.55,1.55,1.55,0,0,0-1.54-1.54c-10.05.22-20.1.37-30.22.29a1.55,1.55,0,0,0-1.54,1.47,1.63,1.63,0,0,0,1.54,1.62Z"/><path class="cls-4" d="M305.12,268.92c8.73,5.07,17.53,10,26.33,14.92a1.65,1.65,0,0,0,2.13-.59,1.62,1.62,0,0,0-.59-2.13c-8.87-4.85-17.6-9.77-26.33-14.92a1.51,1.51,0,0,0-2.06.59,1.55,1.55,0,0,0,.52,2.13Z"/><path class="cls-4" d="M269.1,305c5,8.74,10.12,17.41,15.33,26.08a1.55,1.55,0,0,0,2.13.52,1.56,1.56,0,0,0,.51-2.14c-5.2-8.59-10.34-17.26-15.33-26a1.46,1.46,0,0,0-2.05-.59,1.57,1.57,0,0,0-.59,2.13Z"/><path class="cls-4" d="M219.88,318.15c-.07,10.14.08,20.21.3,30.35a1.45,1.45,0,0,0,1.54,1.47,1.51,1.51,0,0,0,1.54-1.55c-.22-10.06-.37-20.13-.29-30.2a1.57,1.57,0,0,0-1.55-1.61,1.6,1.6,0,0,0-1.54,1.54Z"/><path class="cls-4" d="M170.67,304.92c-5.14,8.75-10,17.56-14.89,26.38a1.55,1.55,0,0,0,.58,2.13,1.56,1.56,0,0,0,2.13-.58c4.84-8.82,9.75-17.64,14.82-26.31a1.55,1.55,0,0,0-2.64-1.62Z"/><path class="cls-4" d="M134.65,268.85c-8.8,5-17.45,10.14-26.11,15.35a1.63,1.63,0,0,0-.52,2.14,1.55,1.55,0,0,0,2.13.51c8.66-5.22,17.24-10.36,26-15.28a1.66,1.66,0,0,0,.59-2.14,1.57,1.57,0,0,0-2.13-.58Z"/><path class="cls-4" d="M121.45,219.54c-10-.07-20.17.08-30.22.3a1.55,1.55,0,0,0-1.54,1.54,1.57,1.57,0,0,0,1.61,1.55c10-.22,20.1-.37,30.15-.3a1.5,1.5,0,0,0,1.54-1.54,1.56,1.56,0,0,0-1.54-1.55Z"/><path class="cls-4" d="M134.65,170.24c-8.65-5.14-17.45-10.06-26.33-14.91a1.47,1.47,0,0,0-2.06.59,1.58,1.58,0,0,0,.59,2.13c8.8,4.85,17.61,9.77,26.26,14.84a1.55,1.55,0,0,0,2.13-.51,1.59,1.59,0,0,0-.59-2.14Z"/><path class="cls-4" d="M170.74,134.17c-5-8.82-10.2-17.49-15.41-26.09a1.63,1.63,0,0,0-2.12-.58,1.55,1.55,0,0,0-.52,2.13C157.9,118.3,163,126.89,168,135.71a1.56,1.56,0,0,0,2.12.59,1.63,1.63,0,0,0,.59-2.13Z"/></svg>