<svg id="Layer_1" data-name="Layer 1" xmlns="http://www.w3.org/2000/svg" viewBox="0 0 442.87 442.87"><defs><style>.cls-1{fill:#263a29;}.cls-2{fill:#fff;}</style></defs><circle class="cls-1" cx="218.61" cy="219.83" r="220.02"/><path class="cls-2" d="M268.62,179.19a51.68,51.68,0,0,0-8.09-29.84,55.82,55.82,0,0,0-22.63-20,59.56,59.56,0,0,0-61.15,6.14A55.42,55.42,0,0,0,158.18,160a52.91,52.91,0,0,0-1.86,29.9c4.12,19,16.13,35.73,29.05,49.8a198.34,198.34,0,0,0,26.84,24.48l.48.35c1,.75,3.07,0,3.86-.74a244.94,244.94,0,0,0,17.14-18.44c10.7-12.57,20.8-26.09,27.85-41.08,3.7-7.87,6.69-16.35,7.08-25.11.1-2.16-4.77-1.26-4.85.53-.34,7.56-2.61,14.95-5.64,21.85a139.83,139.83,0,0,1-12.41,22,258.52,258.52,0,0,1-26.93,33c-2,2.12-4,4.23-6.17,6.24l3.87-.74c-.59-.43-1.17-.87-1.75-1.32l-.31-.24-.36-.28-1.19-.95c-.89-.72-1.78-1.44-2.65-2.17q-7.92-6.57-15.17-13.89c-12.92-13-25-28.13-31.28-45.56-3.26-9-4.84-18.63-3.38-28.14a49.8,49.8,0,0,1,12.74-26.24,51.66,51.66,0,0,1,54.22-14.13c19,6.12,33.76,23,36.12,43a48.1,48.1,0,0,1,.29,7.59C263.69,181.88,268.55,181,268.62,179.19Z"/><path class="cls-2" d="M237.05,176.73c-.07,10.64-6.36,20.81-16.53,24.53s-21.4-.27-28-8.41a27,27,0,0,1-2.22-30.42,24.31,24.31,0,0,1,25.87-11.61,26.89,26.89,0,0,1,20.86,25.91c0,1.1,1.22,1.28,2.12,1.18.74-.08,2.73-.66,2.72-1.72A29,29,0,0,0,222.65,149a31.54,31.54,0,0,0-34,9.19,28.89,28.89,0,0,0-2.75,33.49c6.52,10.78,19.45,15.6,31.59,13.2s22-12.06,24-24.25a29.21,29.21,0,0,0,.36-4.48C241.91,174,237.06,175,237.05,176.73Z"/><path class="cls-2" d="M233,242.58l20.1.1,32.06.16,7.4,0-1.29-.39,15.18,17,24.09,26.93,5.51,6.17,3.2-2.24-6.8,0-18.36.13-27.32.18-33.1.22-36.51.24-36.6.25-34.36.23-28.84.19L96.52,292c-3.25,0-6.59-.18-9.83.06h-.43l1.28,1.33,15.24-17.8L127,247.22l5.53-6.46-3.2,1.29,19.7.1,31.12.16,7.21,0c1,0,2.62-.35,3.2-1.3s-.49-1.33-1.29-1.33l-23.12-.12-31.91-.16c-2.36,0-4.83-.32-6.53,1.68L122,247.85,99.32,274.32,88.94,286.45c-1.87,2.18-3.85,4.31-5.62,6.57-.08.1-.17.19-.26.29-.75.88.66,1.34,1.29,1.33l6.81,0,18.35-.12,27.32-.19,33.11-.22,36.5-.24,36.6-.24,34.36-.23,28.84-.2,20.89-.14c3.27,0,6.55,0,9.83-.06h.42c.74,0,4.38-.93,3.21-2.25l-13.92-15.55-23.32-26.09-6.82-7.62c-.64-.72-.92-1.15-2-1.2-.73,0-1.46,0-2.19,0L262,240.09c-8.86-.05-17.71-.17-26.57-.14H235c-1,0-2.62.35-3.2,1.3s.49,1.33,1.29,1.33Z"/></svg>