<svg id="Layer_1" data-name="Layer 1" xmlns="http://www.w3.org/2000/svg" viewBox="0 0 442.87 442.87"><defs><style>.cls-1{fill:#263a29;}.cls-2{fill:#fff;}</style></defs><circle class="cls-1" cx="218.61" cy="219.82" r="220.02"/><path class="cls-2" d="M95.68,188.2a10.3,10.3,0,0,0,5.12-1.37c1.11-.68,1.06-1.43-.38-1.43a10.3,10.3,0,0,0-5.12,1.37c-1.11.68-1,1.43.38,1.43Z"/><path class="cls-2" d="M311.78,176.57l18,11.44c1,.66,3.15,0,4.17-.33.77-.24,2.87-.79,2.87-1.85,0-21-8.55-40.86-22.33-56.54-14.87-16.9-35.07-28.46-56.56-34.7-24.38-7.09-50.58-7.25-75.23-1.42-22.56,5.34-44.36,16.13-60.93,32.53-14.78,14.64-25,33.67-27,54.54-.23,2.5-.35,5-.35,7.53,0,1,7.24,0,7.24-1.94,0-20.43,8.17-39.9,21.46-55.27a105.92,105.92,0,0,1,23.68-20.19,113.55,113.55,0,0,1,14.36-7.7c1.16-.53,2.33-1,3.51-1.52s2.11-.86,3.74-1.46c1.33-.49,2.66-1,4-1.41l1.69-.56,1-.32.75-.23c1.38-.41,2.77-.79,4.16-1.16l2.11-.53,1.06-.26.44-.1q4.49-1,9-1.72c1.36-.22,2-.31,3.53-.5s3.23-.37,4.85-.52c2.93-.26,5.8-.43,8.72-.5a139.68,139.68,0,0,1,36,3.8c21.42,5.16,41.8,15.7,57.43,31.37,14.24,14.28,24,33,25.94,53.19.24,2.5.35,5,.36,7.53l7-2.18-18-11.44c-1.17-.75-3.48.06-4.65.48-.37.13-3.2,1.29-2.19,1.94Z"/><path class="cls-2" d="M336.07,187.37,354,171l2.55-2.33c1.11-1,.8-2.21-.67-2.52a6.39,6.39,0,0,0-5.13,1.37L332.82,183.9l-2.55,2.33c-1.1,1-.8,2.2.67,2.52a6.43,6.43,0,0,0,5.13-1.38Z"/><path class="cls-2" d="M125.29,247.71,109.58,237l-2.26-1.53c-1-.68-3.18,0-4.17.33-.77.24-2.87.79-2.87,1.85a91.82,91.82,0,0,0,5.65,31.55,98.27,98.27,0,0,0,15.77,27.57,111.57,111.57,0,0,0,24,22.11A124.31,124.31,0,0,0,176.49,334a134.39,134.39,0,0,0,35.7,6.63,136,136,0,0,0,37.88-3.52A138.19,138.19,0,0,0,285,323.74a124.38,124.38,0,0,0,28-20.86,106.11,106.11,0,0,0,19.93-27.14A89.78,89.78,0,0,0,342.24,244q.4-4.12.4-8.26c0-1-7.24,0-7.24,1.94,0,22.14-9,43.17-23.35,59.84A115.34,115.34,0,0,1,287,319.2a119.93,119.93,0,0,1-14.7,8.07c-2.75,1.27-5.23,2.31-7.66,3.23-1.22.46-2.45.9-3.68,1.33l-2,.68-1,.32c-.43.14-.45.14-.07,0l-.68.2c-1.38.41-2.75.8-4.14,1.17l-2.08.53-1,.25-.7.17c.39-.09.37-.08-.07,0-2.82.61-5.65,1.15-8.5,1.58l-.53.08L239,337l-2.15.26c-1.56.18-3.13.32-4.69.44-2.82.21-5.44.31-8.32.31a131.3,131.3,0,0,1-35-4.74c-21.22-5.89-41-17.46-55.92-33.77-14.06-15.4-23.27-35.1-25.07-55.95q-.33-3.9-.33-7.81l-7,2.18L116.2,248.6l2.25,1.52c1.13.77,3.52-.07,4.65-.47.39-.14,3.19-1.27,2.19-1.94Z"/><path class="cls-2" d="M101,236.15,83,253.64l-2.52,2.45c-1.06,1-.84,2.2.68,2.52a6.32,6.32,0,0,0,5.12-1.37l18-17.49,2.52-2.46c1.06-1,.84-2.2-.67-2.52a6.36,6.36,0,0,0-5.12,1.38Z"/><path class="cls-2" d="M181.77,295.39a217.63,217.63,0,0,1,5.81-39.5c2.32-9.66,5.3-19.43,10.25-28.09a93.72,93.72,0,0,1,11.61-15.36,213.23,213.23,0,0,1,15.92-15.9q7.59-6.9,15.65-13.26c1.6-1.28,3.22-2.53,4.86-3.77l1.43-1.07-.11.08c.92-.67,2.2-2,.64-2.83s-3.9-.21-5.13.68c-6.58,4.77-12.88,9.94-19,15.29-5.67,5-11.17,10.13-16.37,15.59a131.42,131.42,0,0,0-14.14,17c-5.69,8.47-9.14,18.42-11.75,28.2a215.59,215.59,0,0,0-5.45,28.6c-.65,5.06-1.21,10.15-1.47,15.24-.08,1.6,1.95,1.69,3.13,1.55s4-.93,4.12-2.46Z"/><path class="cls-2" d="M196.27,230.34A39.83,39.83,0,0,0,197.81,216c-.5-7-4.08-13.53-8.79-18.65a25.52,25.52,0,0,0-3.34-3.15c-1.34-1-3.33-.69-4.79-.07-.67.28-3.27,1.9-1.93,2.91a32,32,0,0,1,7.81,9.13c3.67,6.14,4.45,12.93,3.37,19.92a36.2,36.2,0,0,1-1.11,5.14c-.49,1.58,2.24,1.66,3.12,1.56,1.44-.18,3.64-.9,4.12-2.47Z"/><path class="cls-2" d="M209.18,210a32.26,32.26,0,0,0,14,9,31.35,31.35,0,0,0,13.63.6,33.47,33.47,0,0,0,7.36-1.9c.92-.38,3-1.71,1.93-2.91s-3.59-.57-4.8-.08c-.05,0-.43.17-.43.17l-.11,0c.73-.25.91-.31.54-.19l-.71.22q-.83.24-1.65.42l-.56.13c.48-.1.51-.1.07,0l-1,.15a21,21,0,0,1-10.21-.71,29.44,29.44,0,0,1-11.34-7.81c-1.69-1.86-8.6.77-6.73,2.84Z"/><path class="cls-2" d="M289.31,137.84a136.67,136.67,0,0,0-16.78-1.46,185.73,185.73,0,0,0-40,2.59c-15.87,2.83-31.39,8.28-44.84,17.26-13.94,9.3-25.59,22.82-30.09,39.19a59.44,59.44,0,0,0,3.06,40.08c4.78,10.54,12.55,20,23.63,24.21,18.1,6.81,38.5,6.25,55.66-3a64.79,64.79,0,0,0,10.64-7.09,50.58,50.58,0,0,0,7.76-7.58c3.3-4.2,5.47-9.25,7.27-14.23,4.88-13.46,7.63-27.66,10.79-41.59.83-3.64,1.66-7.27,2.54-10.9q.63-2.57,1.29-5.13c.47-1.85.85-3.27,1.29-4.83a114.32,114.32,0,0,1,6.25-17.72c.55-1.16,1.13-2.31,1.76-3.43.14-.25.28-.5.43-.74s.5-.8.12-.22c.33-.51.67-1,1-1.51a2.31,2.31,0,0,0-1-3.71,4.73,4.73,0,0,0-5.12,1.38,60.93,60.93,0,0,0-7.25,14.86c-2.29,6.44-4,13.07-5.7,19.7-1.76,7.11-3.33,14.26-4.95,21.39q-1.2,5.35-2.48,10.69-.61,2.55-1.26,5.1c-.2.78-.4,1.56-.61,2.34l-.3,1.15c-.05.19-.11.38-.16.57-.25.94.15-.51-.11.42a115.66,115.66,0,0,1-5.85,17c-.53,1.18-1.1,2.34-1.73,3.47-.26.49-.54,1-.82,1.44-.38.64.32-.48-.16.24-.16.24-.32.49-.49.73a24.64,24.64,0,0,1-1.91,2.41c-.63.69-1.28,1.35-1.94,2-.05.05-.46.45-.1.11l-.49.46-1.26,1.15c-1.46,1.29-3,2.51-4.57,3.66-.75.54-1.51,1.07-2.29,1.58-.09.07-1.22.79-.68.45-.5.31-1,.61-1.51.9A59.08,59.08,0,0,1,233,254c-.87.4-1.75.78-2.65,1.13l-.67.26c.65-.25-.09,0-.25.09-.52.19-1,.36-1.55.53a60.2,60.2,0,0,1-6.06,1.64l-1.65.33-.43.08-.44.07c-1.13.17-2.27.31-3.4.42a54.4,54.4,0,0,1-12.95-.24,65.31,65.31,0,0,1-14.1-3.53c-1.4-.52-2.75-1.09-4.09-1.74-.46-.23.54.32-.19-.11l-.72-.42c-.54-.33-1.07-.67-1.59-1a35.67,35.67,0,0,1-2.93-2.26c-.46-.39-.9-.79-1.34-1.2l-.41-.4-.14-.14-.14-.14-.41-.42a47.53,47.53,0,0,1-5.15-6.51c-.79-1.2-1.54-2.43-2.23-3.69q-.53-1-1-1.95c-.08-.15-.46-1-.25-.51l-.5-1.08a57.84,57.84,0,0,1-3.08-8.78,53,53,0,0,1-1.65-18.87c1.32-15.32,9.3-29,20.77-39a83.59,83.59,0,0,1,9.65-7.29c.24-.16.48-.32.73-.47.07,0,.68-.43.33-.22s.27-.16.34-.2l.59-.36c.89-.53,1.79-1,2.69-1.55q2.55-1.43,5.18-2.68t5.28-2.35c.89-.37,1.78-.72,2.67-1.06.14-.06.7-.27,0,0l.63-.23,1.59-.57q5.33-1.86,10.81-3.23c3.55-.89,7.14-1.63,10.74-2.26.72-.12.09,0-.05,0l.62-.1,1.4-.22,2.62-.38c1.76-.23,3.52-.44,5.29-.62a184.14,184.14,0,0,1,18.93-.93c1.37,0,2.74,0,4.11,0l1.83.05c.5,0-.73,0,.17,0l1.08,0c2.18.09,4.37.22,6.55.4,2.73.21,5.46.48,8.18.86l1.08.16a4.54,4.54,0,0,0,4.7-2.27C292.31,139.37,290.89,138.1,289.31,137.84Z"/></svg>