<svg id="Layer_1" data-name="Layer 1" xmlns="http://www.w3.org/2000/svg" viewBox="0 0 442.87 442.87"><defs><style>.cls-1{fill:#263a29;}.cls-2{fill:#fff;}.cls-3,.cls-4{fill:none;stroke:#fff;stroke-linecap:round;stroke-linejoin:round;}.cls-4{stroke-width:3px;}</style></defs><circle class="cls-1" cx="219.63" cy="219.83" r="220.02"/><path class="cls-2" d="M294,207.48a10.55,10.55,0,0,1-2.44,6.58,8.27,8.27,0,0,1-2.32,1.93,4.18,4.18,0,0,1-1.83.58c-4.73.43-8.93-3.58-10-7.95s.1-8.5,2.28-12.6c2.63-4.94,5.63-9.69,8.51-14.48l-5.56.83c3,4.94,6.07,9.84,8.77,14.94a19.26,19.26,0,0,1,2.45,6.62,30,30,0,0,1,.13,3.55c0,1.44,5.79.46,5.79-1.56a18.68,18.68,0,0,0-.67-6,49.24,49.24,0,0,0-4.64-9.05c-2-3.38-4-6.74-6-10.09-.91-1.51-4.8-.45-5.56.83-3,4.91-6,9.79-8.74,14.84a21.47,21.47,0,0,0-2.63,6.61,16.34,16.34,0,0,0,.88,9.24c2.6,5.47,8.6,7.85,14.41,7,6.92-1.05,12.88-6.09,13-13.39C299.85,204.5,294.07,205.45,294,207.48Z"/><path class="cls-3" d="M190.65,123.36a13.51,13.51,0,1,0-25.41-2l-1.41,5.48,17.58,7.79,3.11-4.72A13.48,13.48,0,0,0,190.65,123.36Z"/><line class="cls-3" x1="169.91" y1="125.27" x2="168.28" y2="128.96"/><line class="cls-3" x1="178.45" y1="129.06" x2="176.82" y2="132.75"/><line class="cls-3" x1="174.18" y1="127.17" x2="172.55" y2="130.85"/><path class="cls-3" d="M176.36,116.19c.8-1.78-5.72-3.69-6.51-1.9-1.6,3.6-.08,3.86,1.61,4.62S175.56,118,176.36,116.19Z"/><path class="cls-3" d="M180.85,118.19c.79-1.8,6.58,1.75,5.78,3.54-1.59,3.6-2.8,2.65-4.5,1.91S180.06,120,180.85,118.19Z"/><polyline class="cls-3" points="177.52 123.54 177.66 120.03 177.13 119.8 174.63 122.26"/><line class="cls-4" x1="270.6" y1="324.04" x2="281.74" y2="335.18"/><line class="cls-4" x1="281.74" y1="324.04" x2="270.6" y2="335.18"/><path class="cls-4" d="M262.62,308.15c-15.84,0-29.55,11.45-36.22,18.16l-14.18-9.17V345l14.18-9.17c6.67,6.7,20.38,18.15,36.22,18.15,22.39,0,40.55-22.89,40.55-22.89S285,308.15,262.62,308.15Z"/><path class="cls-4" d="M266.26,309.35s-4.83,2.28-5,23.16,5,21,5,21"/><path class="cls-2" d="M60.46,256.73c3.35.11,6.68-1.07,9.76-2.26,4.44-1.71,8.73-3.79,13-5.8a116.34,116.34,0,0,1,23.51-8.45,80.31,80.31,0,0,1,16.49-1.94L121.48,237h0c0,1.25,1.5,1.44,2.5,1.27-.11,0-1.07,0-.29,0,.3,0,.6,0,.89,0l2,.06c1.31.06,2.63.15,3.94.27a65.87,65.87,0,0,1,6.69,1,74.36,74.36,0,0,1,12,3.49c7.68,3,14.74,7.23,22.34,10.33a40.64,40.64,0,0,0,26.4,1.79c8.64-2.35,16.37-7,24.52-10.6a72.13,72.13,0,0,1,24.81-6.28,62.56,62.56,0,0,1,25.66,4c7,2.66,13.46,6.52,20.27,9.64a52.6,52.6,0,0,0,25.32,4.64c9.74-.55,18.83-4.07,27.6-8.12,8-3.69,16-7.75,24.69-9.37a48.12,48.12,0,0,1,7.08-.81c1.26,0,3.13-.37,3.83-1.59s-.55-1.77-1.58-1.73c-9.78.39-19,3.21-27.87,7.18-8.23,3.68-16.26,8.06-25.1,10.11a44.53,44.53,0,0,1-25.92-1.66c-7-2.73-13.4-6.74-20.28-9.72a73.24,73.24,0,0,0-53.06-1.68c-8.08,2.76-15.51,6.9-23.3,10.34a41.91,41.91,0,0,1-12.26,3.67A31.31,31.31,0,0,1,179.77,252c-8-2.46-15.22-7.16-22.92-10.42a80.75,80.75,0,0,0-25.15-6.32,28.75,28.75,0,0,0-6.93-.18l2.5,1.26v0c0-1-.89-1.31-1.77-1.3a95.3,95.3,0,0,0-28.7,4.89c-8.48,2.82-16.39,6.8-24.55,10.39-1.91.85-3.92,1.72-5.85,2.37a19.87,19.87,0,0,1-2.51.7c.45-.09-.54.08-.66.09-.44.05.18,0-.53,0-1.23,0-3.16.42-3.82,1.59s.57,1.69,1.58,1.72Z"/><path class="cls-2" d="M59.74,280.27c3.51.12,6.93-1,10.19-2.21,4.44-1.69,8.74-3.78,13-5.79a117.32,117.32,0,0,1,23.68-8.55,80.35,80.35,0,0,1,16.5-1.89l-1.68-.55v0c0,.77,2.08.53,2.41.48-1.13.19.12.05.6.06.66,0,1.32,0,2,.07,1.31.07,2.62.17,3.92.3a67.68,67.68,0,0,1,6.78,1,77.4,77.4,0,0,1,12,3.57c7.68,2.94,14.73,7.22,22.34,10.32a40.6,40.6,0,0,0,26.35,1.61c8.65-2.35,16.37-7,24.53-10.59a70.75,70.75,0,0,1,24.65-6.23,63.38,63.38,0,0,1,25.86,4.1c7,2.66,13.46,6.52,20.27,9.64a51.45,51.45,0,0,0,25.11,4.51c9.87-.65,19-4.14,27.93-8.23,7.94-3.65,15.85-7.73,24.52-9.31a49.73,49.73,0,0,1,7.1-.77c1.17-.05,3.12-.42,3.86-1.45s-.65-1.25-1.44-1.22c-9.8.39-19.07,3.31-28,7.27-8.19,3.64-16.19,8.06-25,10.07a44.72,44.72,0,0,1-26-1.85c-7-2.72-13.4-6.74-20.28-9.71-17-7.34-35.73-7.36-53.16-1.46-8,2.72-15.43,6.84-23.16,10.28a40.21,40.21,0,0,1-12.14,3.67,31.43,31.43,0,0,1-12.7-1.43c-8-2.55-15.25-7.17-23-10.45a78.85,78.85,0,0,0-25-6.21,29.83,29.83,0,0,0-7-.12l2.41.48v0c0-.6-1.38-.56-1.69-.55a97.4,97.4,0,0,0-28.75,5c-8.38,2.73-16.21,6.69-24.25,10.26-2,.89-4,1.75-6.11,2.48a22,22,0,0,1-2.17.63c.37-.08-.52.09-.7.11.56-.06-.67,0-.18,0a6.4,6.4,0,0,0-4.1,1.1c-.8.64-.84,1.5.42,1.54Z"/><path class="cls-2" d="M60.42,304.36c3.34.11,6.7-1.09,9.77-2.27,4.43-1.71,8.72-3.8,13-5.81a117,117,0,0,1,23.51-8.45,80.3,80.3,0,0,1,16.5-1.92l-1.74-.76v0c0,.88,2,.78,2.47.71-1.13.19.1,0,.6,0q1,0,2,.06,1.92.07,3.84.27c2.28.24,4.55.58,6.8,1a73.45,73.45,0,0,1,12,3.52c7.68,2.95,14.74,7.23,22.34,10.33a40.71,40.71,0,0,0,26.38,1.72c8.64-2.35,16.37-7,24.53-10.59A71,71,0,0,1,247.1,286a63.59,63.59,0,0,1,25.84,4c7,2.66,13.46,6.52,20.27,9.64a51.74,51.74,0,0,0,25.14,4.59c9.82-.63,18.9-4.05,27.76-8.13,8-3.69,16-7.78,24.69-9.38a49.78,49.78,0,0,1,7.09-.79c1.23-.05,3.13-.39,3.84-1.54s-.58-1.57-1.53-1.53c-9.76.38-19,3.23-27.86,7.19-8.23,3.67-16.27,8.06-25.1,10.11a44.52,44.52,0,0,1-25.94-1.73c-7-2.73-13.4-6.74-20.29-9.72-17-7.34-35.71-7.49-53.18-1.56-8,2.72-15.42,6.87-23.16,10.28a41.87,41.87,0,0,1-12.25,3.68,30.73,30.73,0,0,1-12.56-1.33c-8-2.55-15.25-7.17-23-10.45a80.17,80.17,0,0,0-25.1-6.27,30.12,30.12,0,0,0-7-.17l2.47.71v0c0-.66-1.35-.77-1.74-.76a95.57,95.57,0,0,0-28.69,4.91c-8.48,2.81-16.39,6.79-24.55,10.39-2,.87-4.05,1.77-6.05,2.43a18.18,18.18,0,0,1-2.31.64c.45-.09-.55.07-.67.09.49-.05-.39,0-.52,0-1.2,0-3.16.44-3.84,1.54s.61,1.5,1.52,1.53Z"/><path class="cls-2" d="M259.22,169.75,269.8,145.9l1.5-3.4-5.59,1.5,13.44,6-.14-.5-10.57,23.85-1.51,3.4,5.59-1.5-13.43-6a5.33,5.33,0,0,0-3.74.3c-.24.09-2.67,1.28-1.72,1.7l13.43,6a4.68,4.68,0,0,0,3-.06c.8-.22,2.24-.6,2.61-1.44l10.58-23.86,1.51-3.39a.37.37,0,0,0-.14-.5l-13.43-6a4.68,4.68,0,0,0-3,.06c-.8.22-2.24.6-2.61,1.44L255,167.35l-1.5,3.4c-.44,1,2,.68,2.33.61C256.78,171.2,258.76,170.79,259.22,169.75Z"/><path class="cls-2" d="M268.74,146.61l-7.18-3.18a13.66,13.66,0,0,1-3.3-1.78,7.66,7.66,0,0,1-2.67-6c0-4.9.34-9.8.42-14.71a13.7,13.7,0,0,0-8-12.66l-4.55,1.69.09,0,4.54-1.68L232,101.15c-2.23-1-4.45-2-6.68-3a9.57,9.57,0,0,0-7.08,0,9.29,9.29,0,0,0-3.52,2.09c-1,1-1.29,2.35-2.25,3.28-.13.13-.44.4-.51.45.34-.22.34,0-.15-.08a8.79,8.79,0,0,1-.88-.24l-.3-.13c-.64-.26-1.26-.55-1.88-.83l-7.71-3.42L180.19,90,173,86.81c-2.21-1-4.31-2-4.68-4.78a7.34,7.34,0,0,1,.63-3.3,5.83,5.83,0,0,0-.23-4,6,6,0,0,0-3.1-3c-1.72-.79-3.46-1.54-5.19-2.31l-20.42-9-8.6-3.82a31.09,31.09,0,0,0-4.42-1.86c-4.24-1.08-9.68.94-11.53,5-.59,1.3-1.15,2.6-1.73,3.9L105.8,81.34c-5,11.22-10,22.43-14.93,33.67-1.36,3.11-.67,6.79,2.42,8.6a39.48,39.48,0,0,0,4,1.83l19.56,8.68c4.82,2.13,9.63,4.29,14.46,6.4a8.93,8.93,0,0,0,5.86.41,10.46,10.46,0,0,0,4.29-2,10.81,10.81,0,0,0,2.12-2.94,4.07,4.07,0,0,1,1.13-1.21c.15-.1-.62.09-.3,0a2,2,0,0,1,.68.07,4.84,4.84,0,0,1,.84.27c.56.23,1.11.49,1.67.74l35.85,15.9c2,.88,4,1.65,4.77,4,.82,2.58-1.18,4.79-.51,7.38a5.92,5.92,0,0,0,3.38,3.89c5.78,2.64,11.61,5.15,17.42,7.72l5.27,2.34,4.54-1.68-.09,0L214,177.18c5.19,2.21,11.48,1.23,16.18-1.73a39.3,39.3,0,0,0,5.85-5.17l6.5-6.23a5.87,5.87,0,0,1,2.24-1.7c1.12-.27,2.4.35,3.41.8l7.86,3.49a4.28,4.28,0,0,0,3.12-.23c.2-.07,2.23-1.09,1.42-1.45l-7.15-3.18a17.55,17.55,0,0,0-3.38-1.29,13.35,13.35,0,0,0-8.55,1.31c-2.34,1.18-4.21,3.36-6.08,5.15l-6.46,6.2a12.71,12.71,0,0,1-3.38,2.54c-2.44,1.12-5.25.57-7.63-.45-.86-.36-2.33.13-3.11.48-.2.09-1.89,1-1.14,1.33l.09,0a4.28,4.28,0,0,0,3.12-.23c.2-.07,2.23-1.09,1.42-1.45l-15.77-7c-2.3-1-4.62-2-6.91-3.07a5.24,5.24,0,0,1-3.2-4,7.25,7.25,0,0,1,.6-3.47,5.77,5.77,0,0,0-.1-3.74c-.88-2.29-2.82-3.12-4.85-4l-7.24-3.21-20.68-9.17-7.6-3.37c-1.88-.84-3.63-1.74-5.78-1.66-3,.1-6.38,1.39-8,4a6.5,6.5,0,0,1-1.75,2.42c-.16.1.62-.08.29,0a2,2,0,0,1-.68-.07,5.45,5.45,0,0,1-.69-.2c-1.45-.55-2.86-1.27-4.27-1.9-11.07-4.9-22.27-9.59-33.23-14.73a5.88,5.88,0,0,1-2.93-7.91c.58-1.32,1.17-2.64,1.76-4l7.82-17.64L120,59.18a8.37,8.37,0,0,1,.73-1.43,5.17,5.17,0,0,1,1.08-1.11,4.83,4.83,0,0,1,.42-.24c-.52.37-.4,0-.17.07.51.18,1.12.16,1.65.37,1.58.62,3.12,1.38,4.67,2.07l20,8.86c4.27,1.89,8.61,3.68,12.83,5.69a5.17,5.17,0,0,1,3,5.76,14.17,14.17,0,0,0-.81,3.46,5.65,5.65,0,0,0,1.29,3.47c1.13,1.4,2.88,2,4.46,2.68l35.61,15.78,1.53.68a9.18,9.18,0,0,0,6.14.32,10.3,10.3,0,0,0,4-1.94,10.54,10.54,0,0,0,2.12-2.94,4.07,4.07,0,0,1,1.13-1.21c.15-.1-.62.08-.29,0a2,2,0,0,1,.68.07,5.31,5.31,0,0,1,1,.32c5.89,2.43,11.68,5.18,17.51,7.76l5.07,2.25a4.33,4.33,0,0,0,3.12-.22c.2-.08,2.23-1.1,1.42-1.46l-.08,0a4.41,4.41,0,0,0-3.13.23c-.2.08-2.22,1.08-1.42,1.46a13,13,0,0,1,7.7,11.87c0,2.29-.12,4.59-.18,6.88-.08,2.68-.18,5.37-.23,8.06a8.42,8.42,0,0,0,5.41,8l8,3.56a4.39,4.39,0,0,0,3.12-.23c.2-.08,2.23-1.1,1.42-1.46Z"/><line class="cls-4" x1="222.97" y1="98.98" x2="193.21" y2="166.11"/><line class="cls-4" x1="165.21" y1="73.37" x2="135.44" y2="140.5"/></svg>