<svg id="Layer_1" data-name="Layer 1" xmlns="http://www.w3.org/2000/svg" viewBox="0 0 442.87 442.87"><defs><style>.cls-1{fill:#263a29;}.cls-2{fill:#fff;}</style></defs><circle class="cls-1" cx="218.87" cy="219.82" r="220.02"/><path class="cls-2" d="M103.88,352.86v-202c0-2.73.13-5.49,0-8.21,0-.12,0-.24,0-.35l-4,2.15h42.62l-1.85-1.55V248.45c0,4.85,0,9.7,0,14.55v.21c0,2.35,3.56,1.52,4.77.77l22.13-13.62,35-21.54,8.05-4.95-4.77-.77v40.11c0,2.38,3.55,1.48,4.77.77l22.15-12.78,35-20.2,8-4.62-4.76-.77v37.6c0,2.58,4.19,1.44,5.28.35l19.08-19.08,30.38-30.38,6.94-6.94-5.28-.35V335.39c0,5.94-.06,11.88,0,17.82v.24c0,1.36,1.45,1.65,2.58,1.54.95-.09,3.25-.82,3.25-2.13V224.28c0-5.94.05-11.88,0-17.82v-.25c0-2.58-4.2-1.44-5.29-.35l-19.07,19.08L278.5,255.32l-6.94,6.94,5.29.35V225c0-2.38-3.55-1.47-4.77-.77L249.92,237l-35,20.2-8,4.62,4.77.77V222.5c0-2.34-3.55-1.51-4.77-.76l-22.13,13.61-35,21.54-8.05,4.95,4.77.77V157.05c0-4.85,0-9.7,0-14.55v-.21a1.66,1.66,0,0,0-1.84-1.56H102c-1.06,0-4,.53-4,2.16v202c0,2.74,0,5.48,0,8.21v.35c0,1.36,1.45,1.65,2.58,1.54,1-.09,3.25-.82,3.25-2.13Z"/><path class="cls-2" d="M130.21,130a20.05,20.05,0,0,1-8.29-20.31,19.07,19.07,0,0,1,5.42-10,17.47,17.47,0,0,1,2.38-1.91c-.29.19.66-.39.75-.44s.38-.22.58-.32c0,0,1-.47.37-.19l1.23-.51c.67-.27.14-.06,0,0l.63-.19.64-.17s1-.22.47-.11.21,0,.33,0l.81-.12c-.05,0,1-.08.53,0l.54,0h.66s1,0,.53,0a18.31,18.31,0,0,1,3.29.51,18.78,18.78,0,0,1,5.76,2.62c1.35.91,3.34.49,4.75-.08.54-.22,3.31-1.75,2-2.63-8.51-5.75-20.12-5.29-28.65.26-8,5.19-12.41,14.68-10,24.09a21.59,21.59,0,0,0,8.55,12.34c1.32.93,3.36.48,4.75-.08.55-.23,3.29-1.73,2-2.63Z"/><path class="cls-2" d="M137.73,91.83a24.13,24.13,0,0,1,1-7A26.41,26.41,0,0,1,140,81.72c.27-.55.56-1.08.85-1.6.05-.09.41-.68.18-.31.2-.32.42-.64.64-1a20.11,20.11,0,0,1,4.45-4.7c.43-.33.87-.66,1.32-1,.07,0,1-.62.31-.21l.72-.42c.52-.29,1.06-.57,1.61-.83l.61-.27c.14-.06,1.45-.55.6-.26a28.35,28.35,0,0,1,3.24-.91c.1,0,1.21-.21.35-.08l.68-.09c.69-.09,1.38-.15,2.08-.18l1.05,0c-.08,0,1.07,0,.58,0s.65,0,.58,0c.34,0,.69.06,1,.1.57.07,1.13.16,1.69.27l.83.18c.23,0,.22,0,0,0l.65.18a22.19,22.19,0,0,1,10.92,7.18,22.94,22.94,0,0,1,5.28,14.41c0,1.79,1.74,2.71,3.39,2.55,1.47-.14,4-1.16,4-3A27.56,27.56,0,0,0,169.42,66a30,30,0,0,0-32.57,8.8,27.58,27.58,0,0,0-6.48,17.46c0,1.79,1.76,2.71,3.4,2.55,1.49-.14,3.95-1.16,4-3Z"/><path class="cls-2" d="M187.52,88.87a43.84,43.84,0,0,1,7.86-24.93,43.06,43.06,0,0,1,8.75-9.23,40.85,40.85,0,0,1,5.07-3.36A38.28,38.28,0,0,1,214.27,49l1.42-.49c.63-.2-.87.25.17-.05l.64-.18c.54-.15,1.09-.29,1.63-.42-.7.17-.12,0,0,0l1.16-.23c.5-.1,1-.18,1.51-.26-.57.08.16,0,.3,0l.85-.09c1.16-.12,2-.17,3-.19A42.47,42.47,0,0,1,238.07,49,43.48,43.48,0,0,1,259,63.22a44.4,44.4,0,0,1,9.68,27.6c0,1,7.25,0,7.25-1.95a45,45,0,0,0-30.41-42.16c-18.93-6.44-41.73,0-54.64,15.19a45,45,0,0,0-10.56,28.92c0,1,7.23,0,7.24-1.95Z"/><path class="cls-2" d="M178.76,332.17H145.45l1,.44v-17l-4.76,2H175l-1-.44v17c0,1,5.79.17,5.79-1.56v-17c0-.35-.88-.44-1-.44H145.45a8.06,8.06,0,0,0-3.22.65c-.54.23-1.55.63-1.55,1.35v17c0,.35.88.44,1,.44H175a7.46,7.46,0,0,0,4.1-1.1C180,332.94,180,332.17,178.76,332.17Z"/><path class="cls-2" d="M233.79,332.17H200.47l1,.44v-17l-4.77,2h33.32l-1-.44v17c0,1,5.8.17,5.8-1.56v-17c0-.35-.88-.44-1-.44H200.47a8.13,8.13,0,0,0-3.22.65c-.53.23-1.54.63-1.54,1.35v17c0,.35.87.44,1,.44h33.32a7.48,7.48,0,0,0,4.1-1.1C235,332.94,235,332.17,233.79,332.17Z"/><path class="cls-2" d="M288.82,332.17H255.5l1,.44v-17l-4.77,2h33.32l-1-.44v17c0,1,5.79.17,5.79-1.56v-17c0-.35-.87-.44-1-.44H255.5a8.09,8.09,0,0,0-3.22.65c-.54.23-1.55.63-1.55,1.35v17c0,.35.88.44,1,.44h33.32a7.5,7.5,0,0,0,4.1-1.1C290,332.94,290,332.17,288.82,332.17Z"/></svg>