<svg id="Layer_1" data-name="Layer 1" xmlns="http://www.w3.org/2000/svg" viewBox="0 0 442.87 442.87"><defs><style>.cls-1{fill:#263a29;}.cls-2{fill:#fff;}</style></defs><circle class="cls-1" cx="219.12" cy="221.84" r="220.02"/><path class="cls-2" d="M130.06,254.87c-2-.65-4.74-.64-6.4.86a2.53,2.53,0,0,0-.78,1.72,38.12,38.12,0,0,0,0,4.14q0,9.71,0,19.41v57.71c0,3.32,0,6.64,0,10,0,2.36.42,5.17-1.14,7.16s-4.22,2-6.2.62c-2.43-1.68-2.47-5-2.52-7.69-.12-6.3,0-12.61,0-18.91V308.29c0-3.56.06-7.13,0-10.7,0-1,.15-2.5-.92-3-.89-.44-2.13-.15-3.07-.1-.58,0-2.77.41-2.77,1.26q0,18.3,0,36.58c0,3.07,0,6.15,0,9.22a79.78,79.78,0,0,1-.29,9.15c-.23,2-.32,4.87-2,6.35-1.24,1.11-3.63.44-5-.36a5.85,5.85,0,0,1-3.07-5c-.13-3.06-.05-6.14-.08-9.21,0-6.1-.11-12.21-.14-18.32-.08-12.29,0-24.57.07-36.86,0-7,.2-14,.09-21,0-3.17-.06-6.37-.26-9.54-.14-2.29-2.28-2.13-4.1-1.81-.51.09-2.25.44-2.3,1.2-.59,9.22-.15,18.55-.23,27.79a29.41,29.41,0,0,1-.62,6.94,9.74,9.74,0,0,1-.83,2.34,3.9,3.9,0,0,1-.61.89c-.25.27-.86.49-.28.4s-.32-.07-.53-.09a6.3,6.3,0,0,1-1-.21,3.39,3.39,0,0,1-1.58-1c-1-1.16-1.11-2.94-1.21-4.4-.29-4.68-.1-9.43-.11-14.12V260.41c0-4.19-.23-8.47.16-12.65a16.62,16.62,0,0,1,2.22-7.37c3.19-5,9.33-4.76,14.6-4.9,4.68-.12,9.35-.1,14,0,2.3,0,4.59.09,6.89.15a22.84,22.84,0,0,1,6.88.91c3.48,1.15,6.69,2.84,8.41,6.22,1.79,3.53,1.86,8,1.89,11.86q.07,14.09,0,28.15c0,2.22.1,4.47-.09,6.67a13.32,13.32,0,0,1-.58,3.07c-.22.67-.71,1.18-1,1.78-.16.4-.15-.14.27,0-.15-.06-.52.06-.69.07a3.86,3.86,0,0,1-2.13-.52c-1.5-.93-2-2.89-2.28-4.53a41.65,41.65,0,0,1-.24-6.51c0-2.4,0-4.81,0-7.21q0-7.06,0-14.15v-6.36c0-.57-3.86,0-3.86,1,0,10.39-.08,20.79,0,31.19,0,3.59.71,8.09,5,8.53,3.08.32,7.34-.5,8.54-3.74a18.66,18.66,0,0,0,.83-6.43q0-4,0-7.9,0-7.9,0-15.81c0-5.17.21-10.4-.56-15.53-.55-3.69-2.09-7-5.31-9.12a22.23,22.23,0,0,0-6-2.53,29.16,29.16,0,0,0-7.39-.72c-5.25-.13-10.5-.23-15.75-.18a87.14,87.14,0,0,0-13.8.72,20.12,20.12,0,0,0-8.7,3.41c-5.3,4-5.26,10.94-5.28,16.94,0,10.65-.09,21.31,0,32,0,3.28-.21,7.73,3.7,8.75,3.18.82,7.66-.11,9.33-3.19a15.72,15.72,0,0,0,1.43-6.31c.17-2.57.09-5.18.1-7.76,0-5.26,0-10.52,0-15.79,0-2.53,0-5,.21-7.55l-2.3,1.2c1.5-.27,1,4.2,1.06,4.83.1,3.22.2,6.44.19,9.66,0,6.33-.08,12.66-.12,19-.1,12.78-.14,25.56,0,38.34q.07,9.66.16,19.31l0,4.46a6.5,6.5,0,0,0,5.47,7c3.74.94,9.79-.12,11.4-4.14.94-2.34,1.07-5.33,1.19-7.82.14-3.11.06-6.25.06-9.37,0-14.26,0-28.53,0-42.8L107.27,296c.87-.05,1.44-.28,1.68.75a20.68,20.68,0,0,1,.13,4.45v28.73c0,6.33,0,12.66,0,19,0,2.6-.09,5.67,1.61,7.82s4.35,2.47,6.76,2.2a13.47,13.47,0,0,0,7-2.68,6.77,6.77,0,0,0,2.22-5.37c.11-6.37,0-12.76,0-19.13V261.06a32.79,32.79,0,0,1,0-4.65c0-.37.34-.69.4-1l-1.82.57a1.42,1.42,0,0,1,.36,0c.36.14.81.19,1.19.31a4.24,4.24,0,0,0,2.69-.5C130,255.65,130.86,255.12,130.06,254.87Z"/><path class="cls-2" d="M100.79,208.56c-1.81-.63-4.21-1.05-5.67-2.39s-.36-3.71,1-4.7,4.23-.41,5.28-2.11c.77-1.26.91-2.79,2-3.86a3,3,0,0,1,1.78-.6c1.08-.18,2.15-.36,3.23-.46a10.28,10.28,0,0,1,6.29,1.13,6,6,0,0,1,1.78,1.9c.27.44.52.9.75,1.36a6.23,6.23,0,0,0,.68,1.45c.52.56,1.68.52,2.41.63a9.59,9.59,0,0,1,3,.82,3.83,3.83,0,0,1,2.06,4.53c-.72,2-3,2.2-4.78,2.67-.34.09-2,.62-1.74,1.25,1.22,2.91,2,6.14,1.1,9.25a11.42,11.42,0,0,1-5.89,7c-5.35,2.53-12.17-1.7-13.76-7-1-3.41-.22-7.06.8-10.37.3-1-3.5-.49-3.83.61-1,3.37-1.87,7.17-.87,10.66a11.9,11.9,0,0,0,6,7c7,3.68,16.74.61,20.52-6.31,2.06-3.76,1.44-8.12-.15-11.93L121,210.39c3.14-.82,8.32-1.85,8.44-6,.13-4.45-5.17-5-8.39-5.52l.7.36c-1-2.21-2.07-4.47-4.38-5.55-2.72-1.26-5.8-1.23-8.72-.89-2.64.3-5.74.55-8,2.15-1.7,1.23-2.4,3.16-3.17,5l1.72-1c-3.51,1-7.58,1.69-8.6,5.85-.88,3.59,4.65,4.58,7,5.4a3.82,3.82,0,0,0,2.72-.45C100.77,209.52,101.64,208.85,100.79,208.56Z"/><path class="cls-2" d="M135.54,167.87q7.4-28.87,14.77-57.74c.14-.56-.41-1-.85-1.2l-1-.37a2.49,2.49,0,0,0-3,1.09c-.46,1-1,1.89-1.38,2.89-.48,1.25-.8,2.59-1.18,3.88-.71,2.43-1.42,4.85-2.12,7.28-1.43,4.92-2.84,9.85-4.3,14.77-.84,2.86-2,8.28-6.13,6.19-3.78-1.9-1-7.66-.18-10.49,3-9.89,5.61-19.9,8.68-29.77,1.06-3.42,2.86-6.77,5.92-8.78s7-1.86,10.67-1.9q17.1-.23,34.21-.19c.94,0,2.37-.86,2.1-2-.63-2.55-1.32-5.06-2.09-7.57s-1.83-5.24-2.06-7.87c-.11-1.34.35-3,1.85-3.21,2.24-.36,3.93,1.74,4.59,3.62,1.92,5.43,3.4,11,5.05,16.56.62,2.09,1.34,4.32.77,6.52-.37,1.45-1.26,1.9-2.7,1.94-3.24.08-6.51-.1-9.76-.07s-6.24.08-9.37.25c-1,.06-2.31.82-2.09,2L185.72,154l2.77,14.4,2.09-2H175.82c-.78,0-2.12.67-2.12,1.6q0,10.69,0,21.4,0,5.46,0,10.93c0,3.63.2,7.37-.13,11-.17,1.86-.6,5.57-3,5.92s-4-1.76-4.59-3.77a15.48,15.48,0,0,1-.36-4.4c0-1.82,0-3.63,0-5.45,0-3.79,0-7.59,0-11.38q0-12.14,0-24.28a1.34,1.34,0,0,0-1.31-1.31l-3.11-.14c-.88,0-2.62.37-2.62,1.58v21.81c0,3.63,0,7.27,0,10.9s.14,7.25-.11,10.85c-.13,1.85-.24,5-2.53,5.48a4.06,4.06,0,0,1-4.95-3.13,21.08,21.08,0,0,1-.4-5.14c0-1.83,0-3.66,0-5.49,0-3.83,0-7.66,0-11.49q0-12,0-24c0-1-.93-1.32-1.8-1.32H133.74c-.85,0-2,.66-2.12,1.59s1,1.32,1.8,1.32h15.11l-1.8-1.32q0,12,0,24.05c0,4,0,8,0,12,0,2,0,4,0,6a17.37,17.37,0,0,0,.65,5.61c1.94,5.37,10.46,6,13.55,1.36,1.89-2.85,1.61-6.82,1.61-10.09,0-4,0-7.93,0-11.89q0-13.63,0-27.26L160,169.42l3.12.15-1.31-1.31q0,12.13,0,24.28,0,5.94,0,11.88c0,2,0,4,0,5.94a13,13,0,0,0,.65,4.84,7.45,7.45,0,0,0,6.24,5c2.57.25,5.49-.66,7-2.91,2.06-3.16,2-7.12,2-10.73,0-4,0-7.95,0-11.92,0-9,0-17.91,0-26.87l-2.12,1.6h14.76c1,0,2.31-.86,2.09-2L182.66,117l-2.77-14.38-2.09,2c3.37-.18,6.73-.23,10.11-.25,1.66,0,3.31,0,5,0a36.31,36.31,0,0,0,5.11,0,6.74,6.74,0,0,0,5.43-3.59c1-2.16.73-4.85.11-7.06-.93-3.34-2-6.66-3-10C200,82,199.48,80.24,199,78.5A28.06,28.06,0,0,0,197.39,74c-2.39-4.77-10.12-5.75-12.9-.8-1.51,2.68-.3,5.93.47,8.64,1,3.58,2.13,7.1,3,10.71l2.09-2q-16.73,0-33.46.18c-4.51,0-9-.09-13.1,2.22a17.88,17.88,0,0,0-7.64,9.08c-1,2.44-1.58,5-2.31,7.55q-1.26,4.29-2.5,8.6c-1.59,5.44-3.11,10.9-4.76,16.32-1.17,3.8-3.29,8.91.52,11.93A8.09,8.09,0,0,0,137.89,145c1.62-2.22,2.17-5.25,2.93-7.85.89-3.05,1.77-6.11,2.66-9.16s1.77-6.11,2.67-9.17c.46-1.56.91-3.13,1.38-4.69a28.9,28.9,0,0,1,1.72-4l-3,1.09,1,.38-.85-1.2q-7.38,28.88-14.77,57.74c-.24,1,1.12,1.36,1.8,1.32A2.22,2.22,0,0,0,135.54,167.87Z"/><path class="cls-2" d="M150.66,69.53c.18-4.52,2.64-9,7-10.66s9.06.17,11.88,3.66a12,12,0,0,1,1.42,13.34A10.44,10.44,0,0,1,159.56,81a11.76,11.76,0,0,1-8.9-11.44c0-2-3.89-1.41-3.91.3a14,14,0,0,0,9.32,13.33,15.68,15.68,0,0,0,16.8-4.38,13.81,13.81,0,0,0,1.28-16.4,14.58,14.58,0,0,0-15.52-6.6,15.15,15.15,0,0,0-11.88,14C146.67,71.82,150.59,71.24,150.66,69.53Z"/><path class="cls-2" d="M235.61,111.84c.57,2.36.85,4.82,2.27,6.86a6.76,6.76,0,0,0,4.71,2.82,13.83,13.83,0,0,0,7.12-1.33c2-.82,4.33-2.37,6.53-1.68,5,1.57,1.92,8,.48,11.08a24.43,24.43,0,0,0-2.56,7.61,18,18,0,0,0,.68,7.23,21.59,21.59,0,0,0,3.69,7.12,11,11,0,0,0,5.42,3.28c1,.33,3.47,0,3.48-1.45,0-3.65-.13-7.32.16-11a61.08,61.08,0,0,1,2-10.47,51,51,0,0,0,.81-20.8l-2.2,1.57c5.57-.94,10.84,3.28,12.42,8.46,1.11,3.62,1.1,7.67,1.13,11.42q.06,5.9.06,11.79,0,6.24,0,12.5c0,1.79,0,3.58-.1,5.38a29.33,29.33,0,0,1-.44,5.62c-.23,1-.76,2.24-1.88,2.39a3.48,3.48,0,0,1-3-1.72c-2-3.09-1.51-7.51-1.54-11-.06-8.95,0-17.9,0-26.85,0-.46-.9-.57-1.18-.57h-3.44c-.93,0-2.69.42-2.69,1.6q0,37.78,0,75.55c0,6.29.12,12.59,0,18.87,0,2.06-.09,4.4-1.72,5.9a5.11,5.11,0,0,1-4.65.86,4.27,4.27,0,0,1-3.2-3.26c-.68-2.58-.31-5.58-.33-8.22,0-6.23,0-12.46,0-18.7q0-10.59,0-21.2a89.09,89.09,0,0,0,0-9.1c-.26-2.59-3.14-2.32-5.05-1.88-.72.17-1.68.65-1.68,1.47q0,15.27,0,30.52,0,7.81,0,15.62a74.27,74.27,0,0,1-.31,7.75c-.21,1.84-.27,4.17-1.18,5.83-1.32,2.4-5.46,1.52-7.17,0-1.48-1.31-1.66-3.05-1.79-4.92-.17-2.47-.2-5-.2-7.43q0-15.59,0-31.17V141.87c0-2.52,0-5,0-7.55a6.41,6.41,0,0,0-.39-2.93,3.13,3.13,0,0,0-2.23-1.14,3.59,3.59,0,0,0-4.06,3.08c-.23,2.39-.07,4.86-.06,7.27,0,5.23,0,10.46,0,15.69,0,2.51.12,5.07-.14,7.57-.18,1.83-.57,4.71-2,6-.88.81-2.48.09-3.21-.63-1.41-1.38-1.37-3.54-1.36-5.36,0-10.17,0-20.35,0-30.52,0-6.45-1.37-16.56,6-19.68a27,27,0,0,1,5.08-1.43c.56-.12,1.88-.7,1.68-1.47s-1.66-.55-2.19-.44c-3.5.73-7.22,1.74-10,4.11-2.6,2.21-3.81,5.56-4.22,8.86a62.62,62.62,0,0,0-.21,7.63c0,2.71,0,5.43,0,8.15q0,8,0,16v8.16c0,2.16-.25,4.49.88,6.44,1.92,3.29,6.94,3.24,9.82,1.38,4-2.56,3.69-8.5,3.73-12.61,0-5.41,0-10.82,0-16.23,0-2.78-.06-5.57,0-8.35a15.76,15.76,0,0,0,.14-1.79l0-.23c-1.84.05-2.4.24-1.69.56,0,.11.26.29.33.45.42,1,.2,2.63.2,3.72q0,8.24,0,16.46v32.92q0,16.33,0,32.67c0,2.73,0,5.46.15,8.19.1,2,.14,3.87,1.34,5.51,2.22,3.05,6.92,3.33,10.3,2.57a7.75,7.75,0,0,0,4.32-2.45c1.21-1.46,1.43-3.39,1.71-5.2.79-5.25.57-10.59.58-15.88,0-10.92,0-21.85,0-32.77q0-3.84,0-7.68l-1.67,1.47c.4-.09.27-.15.47.12a1.93,1.93,0,0,1,.21.88c.12,1.19,0,2.43,0,3.62v9.48c0,6.57,0,13.13,0,19.7s0,13,0,19.44c0,2.28-.19,4.72,1.06,6.74a6.24,6.24,0,0,0,4.52,2.66c4.15.65,9.38-.69,11.27-4.81,1-2.2.77-4.83.75-7.19,0-3.29,0-6.57,0-9.86V130.72l-2.69,1.6h3.44l-1.18-.57c0,9-.06,18.07,0,27.1,0,3.71-.48,8.54,2.11,11.61,2.16,2.55,6.16,2.4,8.88.94,3.67-2,3.45-6,3.59-9.62.18-4.5.12-9,.13-13.52s0-9,0-13.5.06-9-.85-13.41a14,14,0,0,0-16.05-10.74c-.68.11-2.37.56-2.2,1.57a49.65,49.65,0,0,1-1.06,21.18,50.3,50.3,0,0,0-1.83,10.26c-.23,3.59-.11,7.2-.11,10.8L267,153a9.87,9.87,0,0,1-4.72-2.7A19.23,19.23,0,0,1,258.9,144a16.72,16.72,0,0,1-.87-7.29,23.93,23.93,0,0,1,2.56-7.61c1.57-3.33,4.11-8.59.43-11.5-4-3.14-9.06-.51-13,1.12-2,.82-4,1.1-5.7-.56-2-1.92-2.2-4.82-2.8-7.35C239.16,109.49,235.29,110.48,235.61,111.84Z"/><path class="cls-2" d="M244.45,96.22c.08-4.22,2-8.5,6.18-10.06,4.54-1.7,9.49.41,12.31,4.15a10.88,10.88,0,0,1,.05,12.62c-2.27,3.32-6.48,4.55-10.33,3.88-5.06-.88-8.17-5.68-8.21-10.59,0-2-3.93-1.5-3.91.28,0,5.63,3.17,10.81,8.66,12.64a15.92,15.92,0,0,0,15.86-3.62c3.9-4,5.08-10.57,2.37-15.45A14.85,14.85,0,0,0,251.49,83a13.82,13.82,0,0,0-11,13.49C240.5,98.54,244.42,98,244.45,96.22Z"/><path class="cls-2" d="M342.81,207.72h-3.36c-.79,0-2.51.34-2.67,1.37a54.86,54.86,0,0,0-.34,8.31v8.9c0,5.92,0,11.85,0,17.78q0,17.86,0,35.73,0,8.94,0,17.87a69.64,69.64,0,0,1-.08,8.3,5.61,5.61,0,0,1-2.07,4.1,5.36,5.36,0,0,1-4.4.29,4.79,4.79,0,0,1-3.06-4c-.46-2.76-.13-5.78-.13-8.57V249.1c0-.53-.28-.71-.76-.87-1.89-.6-4.66-.68-5.78,1.33a7.14,7.14,0,0,0-.37,3.41v4.9q0,9.5,0,19t0,19a85.57,85.57,0,0,1-.4,9.2c-.17,1.57-.08,4-1.47,5.07-1,.82-3.17.65-4.42.36a5.16,5.16,0,0,1-3.79-3.69,13.44,13.44,0,0,1-.32-3.47c0-1.73-.07-3.46-.08-5.19,0-3.16,0-6.31,0-9.47q0-18.78,0-37.55V209a.69.69,0,0,0-.41-.74,5.27,5.27,0,0,0-4.94.18c-1.38.91-1.29,2.36-1.3,3.83q0,6.93-.1,13.86c0,4.64,0,9.28-.14,13.91-.06,2,.21,7.27-2.76,7.61-4.22.48-3.83-5.26-3.83-7.87q0-7.12,0-14.23t0-14.24c0-4.45-.46-9.21.77-13.54a9.63,9.63,0,0,1,5.44-6.59c3.89-1.53,8.47-1.69,12.59-1.77,4.73-.09,9.46-.09,14.19,0,4.4.06,8.86,0,13.1,1.38a11.91,11.91,0,0,1,6.8,5.31c1.86,3.21,2,7.12,2,10.73q0,14.2,0,28.4c0,2.38,0,4.75,0,7.13,0,1.52,0,3.67-1.19,4.85a2.56,2.56,0,0,1-3,.08c-1.54-.93-2-3-2.22-4.7a44.15,44.15,0,0,1-.24-6.71q0-3.48,0-7,0-7.21,0-14.42v-5.83c0-1.68-3.87-.89-3.87.45,0,10-.05,20,0,29.95,0,3.5-.08,8.78,3.79,10.42,3.12,1.31,7.86.34,9.59-2.76,1-1.82,1-3.94,1-6,0-2.57,0-5.15,0-7.72q0-7.72,0-15.45c0-5.06.24-10.21-.15-15.26-.26-3.48-1.17-6.93-3.52-9.6s-5.71-4-9.13-4.73c-4.93-1-10-.89-15-.92s-10.26-.15-15.35.22a51.81,51.81,0,0,0-7.32,1.14,18.78,18.78,0,0,0-5.57,2c-8,4.7-6.6,15.18-6.61,23.09q0,7.74,0,15.48,0,3.87,0,7.74c0,2.53-.14,5.11,0,7.64.26,3.82,3.14,5.82,6.83,5.57a7.58,7.58,0,0,0,7.12-5.84,34.57,34.57,0,0,0,.41-7.19c0-2.53,0-5,0-7.57,0-5,.09-10.06.12-15.09,0-1.21,0-2.43,0-3.64a4.89,4.89,0,0,0,.11-1l0-.05c.08-.29-.16-.22-.74.21-1.19.41-.68.22-.08.46l-.41-.75q0,38.46,0,76.93c0,6.32,0,12.65.15,19a7.45,7.45,0,0,0,2.3,5.69,9.12,9.12,0,0,0,5.83,1.91c3.85.09,8.23-1.13,9.2-5.35a40.26,40.26,0,0,0,.77-8.2c0-3.25,0-6.5,0-9.74q0-10.87,0-21.74c0-3.67,0-7.33,0-11,0-1.77,0-3.54,0-5.31,0-.3,0-.6,0-.91a8.75,8.75,0,0,0,.14-1.06c-.1-.27-1.63.19-1.25.49a4.58,4.58,0,0,0,1,.29l-.77-.87v37.82c0,6.12-.18,12.27,0,18.38a7.08,7.08,0,0,0,2.26,5.54,9,9,0,0,0,6.11,1.66c4.06-.15,7.93-2.31,8.87-6.49.59-2.63.24-5.57.24-8.24,0-3.14,0-6.29,0-9.43V218.93a67.91,67.91,0,0,1,.34-10.29L338,210h3.37a3,3,0,0,0,2.54-1.08C344.31,208.17,343.52,207.72,342.81,207.72Z"/><path class="cls-2" d="M324.75,180.89a11.78,11.78,0,0,1-10.63-7.53,12.31,12.31,0,0,1,2.71-12.85,7.88,7.88,0,0,1,4.91-2.55,10.85,10.85,0,0,1,6.59,1.91,12.33,12.33,0,0,1,5.58,12c-.71,4.56-4.31,8.93-9.16,9a5.53,5.53,0,0,0-2.73.74c-.57.36-.59.73.19.72,5.51-.07,11.53-2.39,14.24-7.46A12.33,12.33,0,0,0,333.72,160c-4.5-4.16-11-4.28-16.42-1.77a13.24,13.24,0,0,0-7.78,13c.52,6.55,6.35,11.1,12.69,11.19a5.38,5.38,0,0,0,2.74-.73C325.53,181.25,325.52,180.91,324.75,180.89Z"/><path class="cls-2" d="M210.31,242.62c-.74,5.17-.37,10.51-.38,15.72,0,2.67-.2,5.41,0,8.07a8.55,8.55,0,0,0,2.73,5.41,65.67,65.67,0,0,1,15.14,21.72,55.41,55.41,0,0,1,4,14.93l2.12-1.85H171.26l1.76,1.17a64.28,64.28,0,0,1,14.48-31.63,1,1,0,0,0,.17-1.35,20.86,20.86,0,0,1-5-10.9c-.67-4.3-.29-8.68-.3-13,0-3.95.23-7.79,1.87-11.44a19.51,19.51,0,0,1,25.92-10c8,3.49,11.28,11.86,15.08,19.13,2.55,4.89,5.23,9.76,7.58,14.75a10.08,10.08,0,0,1,1.31,5.13c-.19,2.12-1.32,4.07-2.32,5.9a1,1,0,0,0,.34,1.26c4.41,3.56,8.69,7.29,13.23,10.68a20,20,0,0,0,6.71,3.7,16.94,16.94,0,0,0,7.43.26c2.14-.38,4.28-1.56,6.5-1.2a8,8,0,0,1,4.58,3.08c3.59,4.34,7.05,8.78,10.65,13.11,1,1.21,2,2.43,3,3.66a11.42,11.42,0,0,1,2.17,3.45c.92,2.74-.39,5.21-2.13,7.28l3.37-.31c-4.79-5-9-10.54-14.2-15.18-1-.88-3.71.14-3.43,1.59q2.08,10.71,4.16,21.42l1.6-1.76L270,326.8c-.79.19-1.74.86-1.6,1.77q1.17,7.55,2.33,15.1c.36,2.28.9,4.58,1.09,6.87.1,1.13,0,3-1.44,3.18-1.7.23-2.34-1.75-2.63-3-.54-2.36-1-4.75-1.45-7.13q-1.41-7.4-2.94-14.75c-.15-.71-1.16-.88-1.74-.83l-4.73.49c-.79.08-2.05.57-2.14,1.51-.63,6.13-1.31,12.27-1.85,18.41-.14,1.6-.27,3.19-.43,4.78-.1,1-.11,2.39-.8,3.24s-2.31.28-2.87-.61a5.12,5.12,0,0,1-.47-2.89q.09-2.47.21-4.95c.15-3.21.32-6.43.51-9.64q.56-9.78,1.16-19.57.3-4.69.61-9.41c.11-1.57.21-3.14.32-4.71a12.38,12.38,0,0,0,0-4.25,5.58,5.58,0,0,0-1.55-2.41c-1.18-1.15-2.4-2.25-3.6-3.37q-3.6-3.37-7.18-6.77L232,281.36c-1.67-1.6-3.8-3.28-4.34-5.65a5.88,5.88,0,0,1,0-2.54c.27-1.29,1.05-2.43,1.31-3.7.18-.85-.6-2-.95-2.74-.46-1-.93-2-1.41-3-2.24-4.63-4.61-9.2-7.14-13.67-1-1.83-2.09-3.64-3.22-5.4a17.79,17.79,0,0,0-2.25-3.05,2.33,2.33,0,0,0-2.61-.24c-.55.26-1.63,1.21-.94,1.9a21.28,21.28,0,0,1,2.78,3.88c1.41,2.26,2.72,4.58,4,6.91,2.84,5.19,5.54,10.48,7.91,15.9l.1-.7c-1.23,3.3-2.53,6.33-.56,9.64a24.84,24.84,0,0,0,4.44,4.78l5.36,5.1c3.76,3.57,7.56,7.09,11.32,10.65a4.71,4.71,0,0,1,1.42,1.95,9.94,9.94,0,0,1,0,3.31c-.18,2.56-.36,5.12-.52,7.68q-1,15.35-1.84,30.7c-.14,2.56-.26,5.11-.37,7.67-.09,1.94-.48,4.22.37,6.05,1.41,3,5.75,3.24,8.4,1.86a5.7,5.7,0,0,0,2.87-4.19c.49-2.65.54-5.42.78-8.1.51-5.59,1.13-11.17,1.7-16.75l-2.14,1.51,4.73-.49-1.74-.82c.92,4.44,1.82,8.88,2.67,13.33.45,2.38.9,4.76,1.41,7.14.37,1.75.66,3.59,2.06,4.85,2.41,2.17,6.8,1.48,8.85-.89a5.84,5.84,0,0,0,1.23-4.38c-.18-2.27-.7-4.53-1.05-6.78l-2.4-15.57-1.6,1.77,5.84-1.36c.76-.18,1.77-.86,1.6-1.77l-4.17-21.41-3.43,1.59c5,4.47,9,9.86,13.66,14.69a2.47,2.47,0,0,0,3.37-.32c1.57-1.87,3.08-4.12,3.17-6.65s-1.16-4.66-2.71-6.59c-3.77-4.67-7.73-9.19-11.45-13.9-1.54-2-2.95-4.12-5-5.57a9.84,9.84,0,0,0-6.17-1.64c-2.52.14-4.79,1.34-7.29,1.52a11.62,11.62,0,0,1-7.2-1.93c-5.55-3.66-10.5-8.27-15.66-12.44l.34,1.26c1.87-3.46,3.36-6.84,1.92-10.73a60.29,60.29,0,0,0-3.12-6.42l-3.81-7.4c-2.44-4.7-4.78-9.51-7.48-14.06a22.28,22.28,0,0,0-8.62-8.23,25.15,25.15,0,0,0-23.47.18,23.55,23.55,0,0,0-12.31,18.54c-.25,2.89-.08,5.8-.15,8.7a66.11,66.11,0,0,0,.1,7.45,23.21,23.21,0,0,0,5.55,13.66l.18-1.34a67.09,67.09,0,0,0-15.18,33c-.15,1,1.08,1.18,1.76,1.18h62.65c1,0,2.25-.78,2.12-1.86a59.11,59.11,0,0,0-9.06-24.77,65.16,65.16,0,0,0-8.2-10.37c-1.43-1.48-3.35-2.85-4.12-4.83-.89-2.28-.44-5.08-.44-7.48q0-4.71,0-9.41a57.26,57.26,0,0,1,.37-8.29C214.48,240.42,210.55,241,210.31,242.62Z"/><path class="cls-2" d="M189.09,242.19a11.37,11.37,0,0,0-1,6.36c.14,2.48,0,5,0,7.44q0,7.36.05,14.71c0,1.38,1.88,1.36,2.78.9,2.16-1.11,4-2.75,4.13-5.31.18-3.33,0-6.71,0-10V246a7.4,7.4,0,0,0-.3-3,3.68,3.68,0,0,0-2.69-1.93,2.8,2.8,0,0,0-2.73.73,1,1,0,0,0,.47,1.77c.79.19,1.19.4,1.31,1.24a21.76,21.76,0,0,1,0,3.23q0,4.24,0,8.49v8.24c0,2,.08,3.63-1.91,4.65l2.79.89c0-4.74,0-9.48,0-14.23,0-2.34.18-4.69.06-7s-.4-4.5.73-6.55c.46-.84-.42-1.42-1.15-1.52A2.63,2.63,0,0,0,189.09,242.19Z"/><path class="cls-2" d="M191.87,205.41c0-4.48,2.24-9.09,6.64-10.75,4.2-1.58,9,.14,11.82,3.49a12.22,12.22,0,0,1,1.24,13.59,9.81,9.81,0,0,1-11,5c-5.32-1.32-8.65-6.34-8.74-11.65,0-1.29-3.89-.52-3.87,1a13.44,13.44,0,0,0,9.47,12.57,15.66,15.66,0,0,0,16.4-4.95,13.62,13.62,0,0,0,.9-16c-3.33-5.08-9.73-6.82-15.45-5.54A14.19,14.19,0,0,0,188,205.86C188,207.53,191.86,206.75,191.87,205.41Z"/><path class="cls-2" d="M204.14,312.75h8.91l-1.79-1c.58,6.41.24,13,.24,19.4v20c0,1.82.43,5.09-2.08,5.39-2.22.26-3.36-1.41-3.5-3.45-.21-3.22,0-6.52,0-9.74v-9.94q0-5.71,0-11.43a72.05,72.05,0,0,1,.34-10.9c.31-2.05-3.65-1.62-3.93.24a72.14,72.14,0,0,0-.34,10.91c0,3.81,0,7.62,0,11.43v16.39a21,21,0,0,0,.25,5.19c1.43,5.43,9.58,5.75,12.29,1.21a7.7,7.7,0,0,0,.91-4.08V322.76c0-4,.06-8-.3-12-.07-.78-1.2-1-1.79-1h-8.9C202.17,309.73,201.53,312.75,204.14,312.75Z"/><path class="cls-2" d="M191,312.53h9.09l-1.24-.8c.49,6.52.23,13.13.23,19.67s0,13.3,0,20c0,1.69.12,5.26-2.32,5.32s-3.27-2.29-3.28-4.3c0-6.54,0-13.09,0-19.64,0-7.22-.24-14.48.18-21.69.11-1.89-3.8-1.27-3.9.35-.42,7.21-.18,14.47-.18,21.69V350a30.07,30.07,0,0,0,.1,4.65c.93,5.76,9.27,6.09,12.16,1.75a7.76,7.76,0,0,0,1.12-4c.09-1.93,0-3.88,0-5.82q0-5.49,0-11c0-8.26.35-16.61-.26-24.85,0-.5-.84-.79-1.24-.79H192.4a2.72,2.72,0,0,0-2.53,1.14C189.49,311.84,190.2,312.53,191,312.53Z"/><path class="cls-2" d="M259.28,260.12a9.79,9.79,0,0,1,8.83,6.57,9.89,9.89,0,0,1-2.85,10.8,8.67,8.67,0,0,1-10.51.33,10.19,10.19,0,0,1-4.13-10.24,8.88,8.88,0,0,1,8.66-7.46c.82,0,2-.62,2.13-1.53s-1-1.24-1.77-1.22c-5.22.11-10.38,3.21-12.28,8.2a12.25,12.25,0,0,0,3.5,13.75,13.47,13.47,0,0,0,14.93,1.2,12.7,12.7,0,0,0,6.61-13.29c-1.15-6.11-6.8-9.83-12.76-9.86-.82,0-2,.63-2.13,1.53S258.54,260.12,259.28,260.12Z"/></svg>