<svg id="Layer_1" data-name="Layer 1" xmlns="http://www.w3.org/2000/svg" viewBox="0 0 442.87 442.87"><defs><style>.cls-1{fill:#263a29;}.cls-2,.cls-3{fill:#fff;}.cls-2{stroke:#fff;stroke-miterlimit:10;stroke-width:3px;fill-rule:evenodd;}</style></defs><circle class="cls-1" cx="219.63" cy="221.84" r="220.02"/><path class="cls-2" d="M212.81,92.06c.1-13.34-.1-26.59-.39-39.94a2,2,0,0,0-2-2,2.12,2.12,0,0,0-2,2.13c.29,13.25.48,26.5.38,39.75a1.91,1.91,0,0,0,1.93,2,2,2,0,0,0,2.13-1.94Z"/><path class="cls-2" d="M277.5,109.48c6.76-11.51,13.23-23.12,19.7-34.82a2,2,0,0,0-.87-2.71,1.92,1.92,0,0,0-2.7.77c-6.38,11.61-12.84,23.22-19.6,34.63a2.06,2.06,0,0,0,.77,2.8,2,2,0,0,0,2.7-.67Z"/><path class="cls-2" d="M324.91,157c11.59-6.58,23-13.35,34.38-20.32a2,2,0,0,0,.67-2.8,2.12,2.12,0,0,0-2.8-.68C345.87,140,334.47,146.91,323,153.39a2.06,2.06,0,0,0-.77,2.8,2,2,0,0,0,2.7.78Z"/><path class="cls-2" d="M342.29,221.87c13.33.09,26.56-.1,39.88-.39a2,2,0,0,0,1.93-2,2,2,0,0,0-2-2c-13.23.29-26.46.48-39.79.38a2,2,0,0,0-2,1.94,2.13,2.13,0,0,0,2,2.13Z"/><path class="cls-2" d="M324.91,286.76c11.49,6.68,23.08,13.16,34.67,19.64a2.06,2.06,0,0,0,2-3.58c-11.69-6.38-23.18-12.86-34.67-19.63a2,2,0,0,0-2.71.77,2,2,0,0,0,.68,2.8Z"/><path class="cls-2" d="M277.5,334.26c6.57,11.51,13.32,22.92,20.18,34.33a2,2,0,1,0,3.48-2.13q-10.29-17-20.18-34.23a1.94,1.94,0,0,0-2.71-.78,2.08,2.08,0,0,0-.77,2.81Z"/><path class="cls-2" d="M212.71,351.57c-.09,13.35.1,26.6.39,39.95a1.91,1.91,0,0,0,2,1.93,2,2,0,0,0,2-2c-.3-13.25-.49-26.5-.39-39.76a2.06,2.06,0,0,0-2-2.12,2.11,2.11,0,0,0-2,2Z"/><path class="cls-2" d="M147.92,334.16c-6.76,11.51-13.23,23.11-19.6,34.72a2.05,2.05,0,0,0,.77,2.81,2.08,2.08,0,0,0,2.81-.78c6.37-11.6,12.84-23.21,19.5-34.62a2,2,0,1,0-3.48-2.13Z"/><path class="cls-2" d="M100.51,286.67c-11.58,6.58-23,13.35-34.37,20.21a2.14,2.14,0,0,0-.68,2.81,2,2,0,0,0,2.8.68c11.4-6.87,22.69-13.64,34.28-20.12a2.17,2.17,0,0,0,.77-2.81,2.07,2.07,0,0,0-2.8-.77Z"/><path class="cls-2" d="M83.14,221.77c-13.23-.1-26.56.1-39.79.39a2,2,0,0,0-2,2,2.07,2.07,0,0,0,2.13,2c13.23-.29,26.46-.49,39.69-.39a2,2,0,0,0,2-2,2,2,0,0,0-2-2Z"/><path class="cls-2" d="M100.51,156.87c-11.39-6.77-23-13.25-34.66-19.64a1.94,1.94,0,0,0-2.71.78,2.07,2.07,0,0,0,.78,2.8c11.58,6.39,23.17,12.87,34.57,19.54a2,2,0,0,0,2.79-.67,2.06,2.06,0,0,0-.77-2.81Z"/><path class="cls-2" d="M148,109.38c-6.57-11.61-13.42-23-20.28-34.34a2.16,2.16,0,0,0-2.8-.77,2,2,0,0,0-.67,2.8c6.85,11.42,13.61,22.73,20.18,34.34a2.06,2.06,0,0,0,2.8.77,2.16,2.16,0,0,0,.77-2.8Z"/><path class="cls-3" d="M196.92,214h-4a.83.83,0,0,1-.72-.43.82.82,0,0,1,0-.84,6.45,6.45,0,0,0-5.48-9.91H158a.83.83,0,0,1-.52-1.47l7.63-6.2a7.76,7.76,0,0,0-4.33-14.2,9.51,9.51,0,0,0-4.58,1.58l-.35.2c-4.75,2.84-34,21.49-34.29,21.68a7.86,7.86,0,0,0-3,6.16V237.5c0,3.69,1.12,6.72,3.24,8.77a11.94,11.94,0,0,0,8.56,3h46.23a6.45,6.45,0,0,0,5.48-9.91.83.83,0,0,1,.71-1.27h8a6.47,6.47,0,0,0,5.48-9.92.84.84,0,0,1,0-.84A.81.81,0,0,1,197,227a6.49,6.49,0,0,0-.07-13Zm0,11.19H162.16V227h28.66a4.7,4.7,0,0,1,0,9.4H162.16v1.79h14.42a4.7,4.7,0,0,1,0,9.4h-46.2A10.15,10.15,0,0,1,123,245c-1.77-1.72-2.68-4.25-2.69-7.49V210.55a6,6,0,0,1,2.23-4.66l15.37-9.78c7.58-4.82,16.52-10.47,18.88-11.88.24-.15,2.47-1.62,4-1.52a6,6,0,0,1,3.31,10.93l-13.49,10.94h36.08a4.7,4.7,0,1,1,0,9.4H162.16v1.78h34.76a4.71,4.71,0,0,1,0,9.41Z"/><path class="cls-3" d="M197.42,213.41h-3.65a.88.88,0,0,1-.23,0c-.2,0,.06,0,0,0-.4-.53-.15-.8.13-1.33a6.91,6.91,0,0,0,.61-1.7,6.83,6.83,0,0,0-5.59-8,20,20,0,0,0-3.46-.12H159.35a2.68,2.68,0,0,1-.8,0c.23.09,0-.09,0-.13-.08-.26-.23-.42-.07-.7,0,.07,0,0,.07-.06a6.94,6.94,0,0,1,.74-.6l5.55-4.51c.51-.41,1-.82,1.54-1.22a8.48,8.48,0,0,0,3.2-4.86,8.1,8.1,0,0,0-4.37-8.94,8.79,8.79,0,0,0-5.93-.57,15.36,15.36,0,0,0-4.33,2c-3.44,2.07-6.82,4.24-10.2,6.38L130.5,198,121.15,204a8.25,8.25,0,0,0-3.73,5.81,27.2,27.2,0,0,0-.07,3.38v14c0,3.51,0,7,0,10.53a12.27,12.27,0,0,0,3.25,8.92c2.46,2.43,5.94,3.23,9.3,3.24,2.4,0,4.8,0,7.19,0h38.5a9.5,9.5,0,0,0,5.9-1.82,7.06,7.06,0,0,0,2.69-4.38,6.84,6.84,0,0,0-.19-3.05,12.94,12.94,0,0,0-.72-1.56.93.93,0,0,1-.12-.33,3.09,3.09,0,0,1,.1-.37c0,.09-1.15.26-.95.33a3.45,3.45,0,0,0,.85,0h5.44c.75,0,1.5,0,2.25,0a9,9,0,0,0,5.49-2.33,6.87,6.87,0,0,0,2.17-4.59,6.58,6.58,0,0,0-.63-3.21c-.12-.26-.29-.49-.4-.75a.75.75,0,0,1-.09-.25l.1-.37c.13.37-1.26.32-.65.31.16,0,.32,0,.48,0l.75-.12c3.7-.74,6.85-3.74,6.53-7.72a6.72,6.72,0,0,0-2.25-4.46,7.53,7.53,0,0,0-4.92-1.75,2.17,2.17,0,0,0-1.6.61c-.32.45.27.52.6.53,3.62,0,6.29,3.76,5.69,7.21a5.94,5.94,0,0,1-2.65,4.06,3.78,3.78,0,0,1-1.88.56c-.93.05-2.61.45-2.62,1.66,0,.49.39.92.59,1.36a6.57,6.57,0,0,1,.49,1.73,6.09,6.09,0,0,1-.28,2.81,5.52,5.52,0,0,1-3.13,3.43,6.72,6.72,0,0,1-2.28.2h-6.66c-1.07,0-3.53.54-2.87,2.08.21.49.51.92.69,1.44a6.2,6.2,0,0,1,.33,1.65,6,6,0,0,1-.47,2.77,5.29,5.29,0,0,1-3.22,3.12,9.16,9.16,0,0,1-2.34.13h-45c-3.86,0-7.7-1.63-9.61-5.12s-1.48-7.71-1.48-11.55V211.7a10.4,10.4,0,0,1,.71-4.57,7.69,7.69,0,0,1,3.11-3.3l4-2.58q6.56-4.19,13.14-8.35,6.33-4,12.68-8l1.12-.69.48-.3.22-.13c.24-.16-.11.06.09-.06.52-.32,1-.64,1.56-.94,1.49-.86,2.87-1.51,4.63-1.14a7.45,7.45,0,0,1,4.27,2.74,7.56,7.56,0,0,1-.89,10.1c-1.38,1.25-2.94,2.36-4.39,3.54l-2.77,2.25a10.28,10.28,0,0,0-1.48,1.23c-.68.82,0,1.75.9,1.86.16,0,.33,0,.49,0h27a8.87,8.87,0,0,1,3.61.44,6.2,6.2,0,0,1,3.39,3.62,6.13,6.13,0,0,1,.33,2.88,6.3,6.3,0,0,1-.41,1.53,6.37,6.37,0,0,0-.66,1.46c-.18,1.45,1.79,1.25,2.73,1.25h2.78a2.23,2.23,0,0,0,1.61-.61C198.34,213.49,197.75,213.41,197.42,213.41Z"/><path class="cls-3" d="M197.43,224.6H162.66c-.47,0-1.71.26-1.71.89v1.79c0,.25.57.24.7.24H189c.44,0,.88,0,1.32,0a4.38,4.38,0,0,1,2.1,8,2.91,2.91,0,0,1-1.57.27H176.43c-4.51,0-9,0-13.53,0h-.24c-.47,0-1.71.25-1.71.89v1.78c0,.26.57.25.7.25h13a5.85,5.85,0,0,1,3.22.54A4.48,4.48,0,0,1,179,246a2.74,2.74,0,0,1-2.3,1H132.49c-2.42,0-4.87,0-7-1.37a8.9,8.9,0,0,1-3.87-7c-.08-.85-.07-1.69-.07-2.54V216.24c0-2,0-4,0-6a5.41,5.41,0,0,1,2.17-4.4c.89-.58,1.8-1.14,2.71-1.72Q135.22,198.55,144,193c4.37-2.77,8.91-5.69,13.22-8.3a12.75,12.75,0,0,1,1.92-1.08,3.56,3.56,0,0,1,3,.13,5.67,5.67,0,0,1,1,9.83l-.53.43-3.08,2.49-8.27,6.71-1.6,1.31c-.56.45-.07.67.44.67h35.2c.29,0,.59,0,.88,0a4.39,4.39,0,0,1,4,4.1c.13,1.74-1,4.13-3,4.16H162.66c-.47,0-1.71.26-1.71.89v1.79c0,.25.57.24.7.24h34.19a4.42,4.42,0,0,1,3.6,1.62,4.48,4.48,0,0,1,.67,4.37,3.21,3.21,0,0,1-2.68,2.28,2.23,2.23,0,0,0-1.61.61c-.31.44.27.53.6.53,3.06-.07,6.23-2.06,6.4-5.34.16-3.07-2.51-5.17-5.4-5.2-1.73,0-3.46,0-5.2,0H164.79a19.83,19.83,0,0,0-2,0h-.09l.7.24v-1.78l-1.71.89h24.48a7.22,7.22,0,0,0,5-2,5,5,0,0,0,.63-6.3,5.43,5.43,0,0,0-4.59-2.25H153.08c-.56,0-1.14,0-1.69,0a1.62,1.62,0,0,1-.22,0l.44.67,13.24-10.74a14.77,14.77,0,0,0,1.3-1.07,6.38,6.38,0,0,0,1.83-4,6.31,6.31,0,0,0-4-6.27c-2.72-1.08-5.51-.09-7.87,1.37-.18.12-.24.15-.1.06l-.36.22-1.25.77-2.87,1.79c-7.34,4.6-14.65,9.26-21.95,13.91l-7.72,4.91a6.34,6.34,0,0,0-2.73,5.23v22.51a41.58,41.58,0,0,0,.2,6.88,8.87,8.87,0,0,0,4.5,6.55,13.11,13.11,0,0,0,6.17,1.3h46a6.79,6.79,0,0,0,5.79-3,4.94,4.94,0,0,0-2-6.85,8.17,8.17,0,0,0-4-.65H162.66l.7.24V236l-1.71.89h27.79c.41,0,.82,0,1.23,0a6.49,6.49,0,0,0,5.73-3.77,5,5,0,0,0-1.63-5.67,5.82,5.82,0,0,0-3.66-1.08H162.66l.7.24v-1.78l-1.71.89h34.77a2.23,2.23,0,0,0,1.61-.61C198.34,224.68,197.76,224.6,197.43,224.6Z"/><path class="cls-3" d="M222,220.47a6.5,6.5,0,0,0,6.41,6.48.81.81,0,0,1,.72.43.84.84,0,0,1,0,.84,6.47,6.47,0,0,0,5.48,9.92h8.06a.81.81,0,0,1,.72.43.82.82,0,0,1,0,.84,6.46,6.46,0,0,0,5.48,9.91h46.24a11.91,11.91,0,0,0,8.55-3c2.12-2.05,3.24-5.08,3.24-8.77V210.55a7.86,7.86,0,0,0-3.05-6.16c-.29-.19-29.54-18.84-34.28-21.68l-.36-.2a9.51,9.51,0,0,0-4.58-1.58,7.76,7.76,0,0,0-4.33,14.2l7.63,6.2a.81.81,0,0,1,.26.92.83.83,0,0,1-.78.55H238.68a6.46,6.46,0,0,0-5.48,9.91.82.82,0,0,1,0,.84.83.83,0,0,1-.72.43h-4A6.49,6.49,0,0,0,222,220.47Zm1.78,0a4.74,4.74,0,0,1,4.7-4.7h34.77V214h-24.6a4.7,4.7,0,1,1,0-9.4h36.08l-13.49-10.94a6,6,0,0,1,3.31-10.93c1.56-.1,3.8,1.37,4,1.52,2.36,1.41,11.3,7.06,18.88,11.88l15.37,9.78a6,6,0,0,1,2.23,4.66V237.5c0,3.24-.91,5.77-2.69,7.49a10.13,10.13,0,0,1-7.35,2.55h-46.2a4.7,4.7,0,0,1,0-9.4h14.43v-1.79H234.61a4.7,4.7,0,0,1,0-9.4h28.67v-1.78H228.51A4.73,4.73,0,0,1,223.81,220.46Z"/><path class="cls-3" d="M220.82,220.79a6.72,6.72,0,0,0,2,4.72A6.9,6.9,0,0,0,225,227a7,7,0,0,0,1.18.37c.24.05.48.1.72.13a4.84,4.84,0,0,1,.86.06c.52.23.17.87,0,1.17a6.45,6.45,0,0,0-.66,1.69,6.66,6.66,0,0,0,0,3,6.78,6.78,0,0,0,2.84,4.15c2.13,1.41,4.58,1.21,7,1.21h5a.76.76,0,0,1,.26,0c-.15-.06,0,.1,0,.15.07.3.16.41,0,.74a13.67,13.67,0,0,0-.72,1.55,6.78,6.78,0,0,0,.14,4.34,6.89,6.89,0,0,0,3.5,3.72,9.31,9.31,0,0,0,4.11.68h39.14c2.08,0,4.16,0,6.25,0,4.09,0,8.55-1.36,11.12-4.74a13.31,13.31,0,0,0,2.37-8.21c0-3.75,0-7.5,0-11.25V212a12.85,12.85,0,0,0-.4-4.23,8.23,8.23,0,0,0-3.52-4.35l-9.94-6.33q-7.16-4.55-14.32-9.08c-3.16-2-6.3-4.06-9.54-5.94a10.18,10.18,0,0,0-5.6-1.72,10.51,10.51,0,0,0-5.64,1.93,8.2,8.2,0,0,0-2.85,9.76c1,2.24,3,3.58,4.79,5.06l5.34,4.33c.12.1.27.2.38.31a.69.69,0,0,1,.2.31,2.14,2.14,0,0,1,0,.36s1-.18.91-.2h-.09a11.61,11.61,0,0,0-1.18,0h-26a12.25,12.25,0,0,0-4.83.7c-3.6,1.48-5.87,5.47-4.21,9.24a8,8,0,0,0,.4.77,3,3,0,0,1,.15.63l-.08.17,1-.33h-1.92a21.27,21.27,0,0,0-3.39.11c-3.7.6-6.81,3.38-6.86,7.27,0,.53,2.4.15,2.41-.65a6.19,6.19,0,0,1,2.12-4.6,4.44,4.44,0,0,1,3.07-1h3.35a3.63,3.63,0,0,0,2.25-.71c1-.82.16-1.69-.19-2.61a6.2,6.2,0,0,1,.55-5.57,4.64,4.64,0,0,1,3.54-2.29c.87,0,1.76,0,2.63,0h26.33c.85,0,2.18-.39,2.49-1.31a1.12,1.12,0,0,0-.43-1.25c-1.55-1.33-3.18-2.58-4.77-3.87L261.82,195a11.63,11.63,0,0,1-2.4-2.3,7.54,7.54,0,0,1,1.07-9.81,5.1,5.1,0,0,1,4.33-1.34,12.06,12.06,0,0,1,3.86,1.72q1.94,1.19,3.86,2.4,6.52,4.08,13,8.22l12.82,8.16,3.65,2.33a7.66,7.66,0,0,1,3.44,4.76,17,17,0,0,1,.19,3.7v20.6c0,4.05.39,8.51-2.28,11.9-1.94,2.47-4.81,3.38-7.87,3.39H250.14a6.39,6.39,0,0,1-3.73-.95,6.29,6.29,0,0,1-2.75-4.26,6,6,0,0,1,.29-3.07c.3-.81,1.27-1.86.34-2.61-.57-.46-1.75-.3-2.45-.3h-3.69c-2.21,0-4.42.25-6.31-1.18a6.33,6.33,0,0,1-2.47-4.36,6.13,6.13,0,0,1,.55-3.24,3.12,3.12,0,0,0,.54-1.31,1.09,1.09,0,0,0-.78-1,6.54,6.54,0,0,0-1.33-.16,5.84,5.84,0,0,1-1.16-.31,6.2,6.2,0,0,1-2-1.31,6.44,6.44,0,0,1-1.92-4.56C223.23,219.6,220.81,220,220.82,220.79Z"/><path class="cls-3" d="M225,220.14c0-1.68,1.17-3.78,3-3.81.49,0,1,0,1.48,0h33.23c.47,0,1.71-.25,1.71-.89v-1.78c0-.26-.57-.25-.7-.25h-22c-1.92,0-3.8.26-5.31-1.25a4.47,4.47,0,0,1-.24-6,2.66,2.66,0,0,1,2.19-1h22.71c4.3,0,8.61.06,12.91,0h.2c.27,0,2.2-.54,1.63-1l-13-10.57-.46-.37a6,6,0,0,1-2.4-3.52c-.54-2.35.58-5.42,3-6.25,1.77-.59,3.52.67,5,1.55,1.83,1.12,3.64,2.26,5.45,3.4,7,4.39,13.95,8.83,20.91,13.26,2.4,1.52,4.82,3,7.19,4.58a5.68,5.68,0,0,1,2.33,4.68c0,.61,0,1.22,0,1.83V233c0,2,.13,4.1-.06,6.11-.24,2.62-1.29,5.29-3.61,6.73a9,9,0,0,1-4.82,1.09H251.54c-1.86,0-3.55.17-5-1.36-1.73-1.86-1.58-5.31.75-6.64a5.62,5.62,0,0,1,2.65-.26h12.82c.47,0,1.71-.26,1.71-.9V236c0-.26-.57-.24-.7-.24h-27.3c-.44,0-.88,0-1.32,0a4.29,4.29,0,0,1-3.66-2.63,4.34,4.34,0,0,1,1.56-5.38,3,3,0,0,1,1.57-.26H249c4.5,0,9,0,13.52,0h.24c.47,0,1.71-.25,1.71-.89v-1.78c0-.26-.57-.25-.7-.25H231c-.62,0-1.25,0-1.88,0a4.43,4.43,0,0,1-4-4.46c0-.55-2.43-.14-2.41.65a5.12,5.12,0,0,0,5,4.93c.47,0,1,0,1.42,0h33.78l-.7-.25v1.79l1.71-.89H236c-.41,0-.82,0-1.23,0a6.47,6.47,0,0,0-5.73,3.77,5,5,0,0,0,1.63,5.67,5.89,5.89,0,0,0,3.66,1.08c4.67,0,9.33,0,14,0h14.45l-.7-.24v1.78l1.71-.89H250.49a9.28,9.28,0,0,0-4.63.92,5.17,5.17,0,0,0-2.32,6.95,5.41,5.41,0,0,0,4.9,2.67H293c2.93,0,5.89-.16,8.51-1.66a9.3,9.3,0,0,0,4.57-6.6,19.55,19.55,0,0,0,.23-3.5V216.13c0-2,0-3.93,0-5.9a6,6,0,0,0-2.57-4.94l-3-1.91q-9.53-6.06-19.06-12.12c-4.1-2.59-8.17-5.21-12.32-7.71a9.27,9.27,0,0,0-3.41-1.37,8.27,8.27,0,0,0-4.53.84,6.66,6.66,0,0,0-4,6.56,6.21,6.21,0,0,0,1.94,3.9c.33.31.7.56,1.05.85l3,2.4,8.48,6.87,1.74,1.42,1.63-1H239.64c-3.28,0-6.86,1.92-6.86,5.59a5,5,0,0,0,4.11,4.82,10.18,10.18,0,0,0,2.14.13h23.74l-.7-.25v1.79l1.71-.89H229c-3.19.05-6.33,2.19-6.4,5.59C222.59,221.31,225,220.94,225,220.14Z"/><path class="cls-3" d="M205.34,244.2v4a.83.83,0,0,1-.43.72.82.82,0,0,1-.84,0,6.46,6.46,0,0,0-9.91,5.48v28.71a.82.82,0,0,1-.55.78.81.81,0,0,1-.92-.26l-6.2-7.63a7.76,7.76,0,0,0-14.2,4.33,9.51,9.51,0,0,0,1.58,4.58l.2.36c2.84,4.74,21.5,34,21.68,34.28a7.86,7.86,0,0,0,6.16,3.05h27c3.69,0,6.72-1.12,8.77-3.23a12,12,0,0,0,3.05-8.56V264.54a6.46,6.46,0,0,0-9.91-5.48.82.82,0,0,1-.84,0,.81.81,0,0,1-.43-.72V250.3a6.45,6.45,0,0,0-9.92-5.47.82.82,0,0,1-.84,0,.81.81,0,0,1-.43-.72,6.49,6.49,0,0,0-13,.07Zm11.19,0h0V279h1.78V250.3a4.7,4.7,0,0,1,9.4,0V279h1.79V264.54a4.7,4.7,0,1,1,9.4,0v46.2a10.13,10.13,0,0,1-2.55,7.35c-1.72,1.78-4.24,2.68-7.49,2.69h-27a6,6,0,0,1-4.66-2.23l-9.78-15.37c-4.82-7.58-10.47-16.52-11.88-18.88-.15-.23-1.62-2.46-1.52-4A6,6,0,0,1,185,277l10.94,13.49V254.37a4.7,4.7,0,1,1,9.4,0V279h1.78V244.2a4.71,4.71,0,0,1,9.41,0Z"/><path class="cls-3" d="M204.13,244.52v3a6.38,6.38,0,0,0,0,1.07l-.05.17,1.14-.27a2.15,2.15,0,0,0-.39-.21,6.18,6.18,0,0,0-.73-.36,7.14,7.14,0,0,0-1.64-.46c-3.8-.64-8.22,1.59-9.26,5.44a14,14,0,0,0-.24,3.66v26a8.61,8.61,0,0,0,0,.88h0c0,.07-.06.14-.06.2l1.05-.31-.12-.12-.1-.12-.59-.73-4.51-5.55c-.41-.51-.82-1-1.22-1.54a8.25,8.25,0,0,0-4.9-3.06,9.93,9.93,0,0,0-10.21,4.18,7.61,7.61,0,0,0-1.1,5.36,12.51,12.51,0,0,0,1.81,4.07c2.06,3.43,4.22,6.79,6.36,10.17q4.51,7.14,9,14.26l5.86,9.21a8.24,8.24,0,0,0,6.11,3.67c1.11.11,2.27.05,3.39.05H228.3a14.81,14.81,0,0,0,10-3.43c2.6-2.38,3.57-5.87,3.58-9.3,0-2.35,0-4.71,0-7.06V264.72a6.84,6.84,0,0,0-6.49-7.21,9.29,9.29,0,0,0-3.62.5,7.37,7.37,0,0,0-1.54.7c-.66.41.69-.27.67-.17s-.17-.29-.18-.33,0-.12,0-.21c-.06-.79,0-1.62,0-2.41v-3.83c0-.73,0-1.48,0-2.22a6.76,6.76,0,0,0-2.32-4.59,7.34,7.34,0,0,0-5.06-1.69,9.42,9.42,0,0,0-3.69.91,2.93,2.93,0,0,0-.76.41l.86-.27-.13-.16c0-.12-.06-.22-.08-.34a12.12,12.12,0,0,0-.15-1.35c-.86-3.79-4.7-5.79-8.37-5.2s-6.81,3.37-6.86,7.26c0,.53,2.41.16,2.42-.64a6.1,6.1,0,0,1,2.12-4.6,4.18,4.18,0,0,1,4.09-.76,6.26,6.26,0,0,1,3.76,3.33,7.07,7.07,0,0,1,.58,2.52c.08,1.25,1.52,1.26,2.44,1a14.38,14.38,0,0,0,1.54-.72,3.49,3.49,0,0,1,1.43-.26,5.46,5.46,0,0,1,2.38.61,6.24,6.24,0,0,1,3.15,3.85,9.8,9.8,0,0,1,.25,2.75v6.66a1.78,1.78,0,0,0,.08.76c.47,1.13,2.23.74,3,.32a4.43,4.43,0,0,1,2.55-.7,5.42,5.42,0,0,1,2.47.8,6.29,6.29,0,0,1,2.9,4.06,12.29,12.29,0,0,1,.15,2.64v45c0,3.77-1.39,7.84-4.88,9.75a12.16,12.16,0,0,1-6,1.15h-25a8.35,8.35,0,0,1-4.84-1.14,8.72,8.72,0,0,1-2.66-2.92l-2.7-4.25Q189.22,307,185,300.4c-2.64-4.16-5.27-8.31-7.88-12.49-.76-1.23-1.54-2.46-2.26-3.72a8,8,0,0,1-1.22-5.61,7.25,7.25,0,0,1,2.6-4.3c3-2.31,6.94-.81,9,2,1.08,1.45,2.27,2.82,3.41,4.22l2.15,2.65c.48.6.86,1.26,1.69,1.35,1.2.13,2.84-.49,2.87-1.85v-27a10.19,10.19,0,0,1,.42-3.8,5.39,5.39,0,0,1,3.12-3.22,4.34,4.34,0,0,1,2.62.06,7.93,7.93,0,0,1,1.48.68,2.38,2.38,0,0,0,1.7.11c.86-.2,1.8-.66,1.84-1.65,0-.39,0-.78,0-1.17v-2.78C206.55,243.34,204.13,243.73,204.13,244.52Z"/><path class="cls-3" d="M215.32,244.52v34.77c0,.26.58.24.71.24h1.78c.47,0,1.71-.25,1.71-.89V250a4.08,4.08,0,0,1,2.26-3.75c1.8-.65,3.81,1.11,4.42,2.68a6,6,0,0,1,.31,2.18v23c0,1.62-.11,3.29,0,4.91v.24c0,.26.57.24.7.24H229c.46,0,1.71-.25,1.71-.89v-12.9a7.25,7.25,0,0,1,.5-3.51,3.08,3.08,0,0,1,2.31-1.82,4.1,4.1,0,0,1,3.2,1.62,4.9,4.9,0,0,1,1,3.18v44.15c0,2.45,0,4.92-1.23,7.15a7.16,7.16,0,0,1-6,3.67c-.75.05-1.5,0-2.24,0H208.32c-2,0-3.93.06-5.89,0a5.25,5.25,0,0,1-4.14-2.25l-1.85-2.9q-5.62-8.85-11.25-17.7c-2.75-4.34-5.54-8.67-8.2-13.07-1.12-1.84-2.13-3.67-1.47-5.88a5.4,5.4,0,0,1,2.14-3,3.61,3.61,0,0,1,3.09-.37,7.34,7.34,0,0,1,3.55,2.84l2.53,3.13,6.68,8.22,1.3,1.61c.4.5,2.34-.1,2.34-.76v-35.2c0-.29,0-.59,0-.88,0-1.72,1.26-4,3.24-3.79a4.44,4.44,0,0,1,3.74,4.44c0,.42,0,.85,0,1.28v23.31c0,.26.58.24.71.24h1.78c.47,0,1.71-.25,1.71-.89V244.46a4.67,4.67,0,0,1,1.49-3.8,2.81,2.81,0,0,1,3.43,0,4.59,4.59,0,0,1,2.07,3.82c0,.55,2.43.14,2.42-.65a5.23,5.23,0,0,0-5.85-4.91c-3,.25-5.92,2.32-6,5.56,0,1.74,0,3.47,0,5.2v27.44a19.83,19.83,0,0,0,0,2v.09l1.71-.89h-1.79l.71.24V254.16a5,5,0,0,0-2.09-4.07,6.67,6.67,0,0,0-7.32.24,5.32,5.32,0,0,0-2.41,4.41c0,1.32,0,2.64,0,4v27.11c0,1.58-.06,3.16,0,4.74a1.61,1.61,0,0,1,0,.22l2.34-.76-10.74-13.24a12.84,12.84,0,0,0-1.06-1.26,6.67,6.67,0,0,0-4.08-1.74,8.1,8.1,0,0,0-7.54,3.79,5.78,5.78,0,0,0-.73,3.77,9.24,9.24,0,0,0,1.36,3.12c1,1.55,1.91,3.11,2.89,4.66,4.61,7.36,9.29,14.69,14,22,1.61,2.52,3.2,5,4.81,7.55a6.49,6.49,0,0,0,5.48,2.66h22.65a40.61,40.61,0,0,0,7.23-.26,10.57,10.57,0,0,0,7.3-4.52,11.7,11.7,0,0,0,1.52-6.24c0-4.76,0-9.52,0-14.28V264.3a5,5,0,0,0-3.1-4.6,6.16,6.16,0,0,0-8.72,6.38v13.21l1.71-.89h-1.79l.71.24V250.85c0-.4,0-.82,0-1.22a5.07,5.07,0,0,0-4.06-4.46,7,7,0,0,0-6.59,2.23,5.24,5.24,0,0,0-1.15,3.44c0,4.67,0,9.33,0,14v14.46l1.71-.89H217l.71.24V243.87C217.74,243.34,215.32,243.73,215.32,244.52Z"/><path class="cls-3" d="M211.83,205.83a6.51,6.51,0,0,0,6.48-6.42.82.82,0,0,1,.43-.72.84.84,0,0,1,.84,0,6.45,6.45,0,0,0,9.92-5.48v-8.05a.83.83,0,0,1,.43-.73.84.84,0,0,1,.84,0,6.46,6.46,0,0,0,9.91-5.49V132.77a11.94,11.94,0,0,0-3.05-8.56c-2-2.12-5.08-3.24-8.77-3.23h-27a7.83,7.83,0,0,0-6.16,3c-.18.29-18.84,29.53-21.68,34.28l-.2.35a9.51,9.51,0,0,0-1.58,4.58,7.76,7.76,0,0,0,14.2,4.33l6.2-7.63a.83.83,0,0,1,1.47.52v28.72a6.45,6.45,0,0,0,9.91,5.47.87.87,0,0,1,.84,0,.85.85,0,0,1,.43.73v4A6.49,6.49,0,0,0,211.83,205.83Zm0-1.79a4.73,4.73,0,0,1-4.7-4.69V164.58h-1.78v24.6a4.7,4.7,0,0,1-9.4,0V153.09L185,166.58a6,6,0,0,1-10.93-3.31c-.1-1.56,1.37-3.79,1.52-4,1.41-2.36,7.06-11.3,11.88-18.88L197.25,125a6,6,0,0,1,4.66-2.23h27c3.25,0,5.77.92,7.49,2.69a10.16,10.16,0,0,1,2.55,7.36V179a4.7,4.7,0,1,1-9.4,0V164.58h-1.79v28.66a4.7,4.7,0,1,1-9.4,0V164.58h-1.78v34.77h0A4.72,4.72,0,0,1,211.82,204Z"/><path class="cls-3" d="M211.32,206.4c3.76-.05,7.68-2.53,8.14-6.49,0-.21,0-.43,0-.65,0,0,.07-.37.07-.38L219,199c-.62,0-.75.09-.38.25a4.71,4.71,0,0,0,1.53.69,8.23,8.23,0,0,0,3.35.27,8.8,8.8,0,0,0,5.25-2.51,7,7,0,0,0,2-4.8V187a15.57,15.57,0,0,0,0-2.16c0-.09.1-.08.06-.21l-.57.13c-.62,0-.75.09-.38.25a3.43,3.43,0,0,0,.63.33,7,7,0,0,0,1.73.55,8.35,8.35,0,0,0,3.19,0,8.53,8.53,0,0,0,5-2.88,7.54,7.54,0,0,0,1.51-4.88V139.37c0-2.3,0-4.6,0-6.9,0-3.53-1.12-7.14-3.94-9.44a13.64,13.64,0,0,0-8.77-2.62H204.34a18.44,18.44,0,0,0-4.26.29,9.4,9.4,0,0,0-5.79,3.92l-6.08,9.55q-4.56,7.17-9.11,14.36c-2.08,3.29-4.2,6.55-6.18,9.9a10.9,10.9,0,0,0-1.82,4.7,7.7,7.7,0,0,0,1.49,5c2.36,3.3,6.66,4.06,10.35,2.81a9.81,9.81,0,0,0,4.66-3.44c.39-.51.81-1,1.21-1.5l4.49-5.52c.12-.16.4-.39.46-.58l0,0s-1.16.3-1.16.3.21.18.25.26a.86.86,0,0,1,.07.36c0,.31,0,.64,0,1v26a11.19,11.19,0,0,0,.38,3.87c1.41,4,5.86,5.32,9.62,4.07a8.12,8.12,0,0,0,1.65-.73c.6-.37-.65.35-.67.16,0,.07.13.17.15.25a1.06,1.06,0,0,1,0,.31c0,.44,0,.89,0,1.33,0,1-.06,2.1,0,3.13a6.75,6.75,0,0,0,2.26,4.45,7.46,7.46,0,0,0,4.91,1.76,2.22,2.22,0,0,0,1.61-.61c.32-.45-.27-.52-.6-.53-3.39,0-5.77-3.19-5.78-6.38,0-1.11,0-2.21,0-3.31a1.57,1.57,0,0,0-.3-1.21c-.86-.89-2.4-.2-3.27.27a4.79,4.79,0,0,1-4.92-.57,6.33,6.33,0,0,1-2.62-4.26,20.55,20.55,0,0,1-.07-3V161.11c0-.31,0-.63,0-.94-.14-1.83-3-1-3.8-.17-1.26,1.38-2.38,2.93-3.56,4.38L185.93,167a16.5,16.5,0,0,1-1.76,2.06,5.41,5.41,0,0,1-4.56,1.34,7.35,7.35,0,0,1-4.31-2.48,7.59,7.59,0,0,1-1.81-4.86,9.89,9.89,0,0,1,1.8-4.92c.72-1.22,1.48-2.42,2.23-3.61,2.68-4.29,5.38-8.55,8.09-12.82s5.49-8.65,8.24-13q1.25-1.93,2.47-3.87a6.67,6.67,0,0,1,3.64-3.09,12.84,12.84,0,0,1,3.45-.18H224c4,0,8.34-.37,11.68,2.35,2.76,2.25,3.77,5.77,3.79,9.22v45.27a8,8,0,0,1-.59,3.51,5.12,5.12,0,0,1-3.29,2.94,4.9,4.9,0,0,1-2.8-.33,10.88,10.88,0,0,0-1.38-.66,3.25,3.25,0,0,0-1.94.25,1.64,1.64,0,0,0-1.19,1.49c0,.3,0,.59,0,.89V190c0,2.14.29,4.51-.77,6.47a4.86,4.86,0,0,1-3.44,2.62,5.27,5.27,0,0,1-3-.61,2.88,2.88,0,0,0-1.41-.49,3.51,3.51,0,0,0-2,.61c-.8.59-.58,1.53-.79,2.39a6.12,6.12,0,0,1-1,2.23,4.52,4.52,0,0,1-3.58,2,2.23,2.23,0,0,0-1.61.61C210.41,206.32,211,206.4,211.32,206.4Z"/><path class="cls-3" d="M212.32,203.47c-2.31,0-3.95-2.3-4-4.46,0-.46,0-.91,0-1.36V164.26c0-.26-.57-.25-.7-.25h-1.79c-.47,0-1.71.26-1.71.89v22c0,1.92.27,4-1.16,5.54a2.4,2.4,0,0,1-2.18.85,4.31,4.31,0,0,1-2.67-1.58,4.83,4.83,0,0,1-1-3.1V157.46c0-1.49.1-3,0-4.49a1.33,1.33,0,0,1,0-.2c0-.33-.87-.24-1-.22a2.25,2.25,0,0,0-1.31.58l-10.57,13c-.9,1.11-1.79,2.33-3.33,2.46-2.58.23-4.91-1.93-5.49-4.33a5.33,5.33,0,0,1,.5-3.73,21.07,21.07,0,0,1,1.12-2c1.09-1.8,2.22-3.59,3.34-5.37q6.57-10.45,13.24-20.87c1.53-2.41,3-4.85,4.6-7.24a3.91,3.91,0,0,1,3.25-1.8h22.57a42.47,42.47,0,0,1,6.28.16,8.18,8.18,0,0,1,6.34,4.53,12.2,12.2,0,0,1,1,5.27c0,4.66,0,9.32,0,14v29.87c0,1.85.2,3.78-1.27,5.22-1.85,1.81-4.62,0-5.4-2a9,9,0,0,1-.31-3.27V164.26c0-.26-.58-.25-.71-.25h-1.79c-.46,0-1.7.26-1.7.89v28.62a4.07,4.07,0,0,1-2.27,3.74c-1.79.66-3.81-1.11-4.41-2.67a6.06,6.06,0,0,1-.31-2.19v-23c0-1.63.11-3.29,0-4.91v-.24c0-.26-.57-.25-.7-.25H217c-.46,0-1.71.26-1.71.89v32.64c0,.68,0,1.35,0,2,0,1.69-1.1,3.87-3,3.9a2.19,2.19,0,0,0-1.6.62c-.31.44.27.53.6.52,2.76-.06,5.77-1.69,6.32-4.59a9.53,9.53,0,0,0,.1-1.85V164.26l-1.71.89h1.78l-.7-.25v27.79c0,.41,0,.82,0,1.23a5,5,0,0,0,4,4.45,7,7,0,0,0,6.6-2.22,5.3,5.3,0,0,0,1.15-3.44c0-4.67,0-9.33,0-14V164.26l-1.71.89H229l-.71-.25v13.29a6.3,6.3,0,0,0,.93,3.94c1.81,2.53,5.42,2.63,8,1.22a5.43,5.43,0,0,0,2.92-4.76c0-1.54,0-3.09,0-4.64V134c0-2.74-.1-5.5-1.69-7.86a9.56,9.56,0,0,0-7.13-3.89c-1-.1-2-.09-3-.09H207.8c-2,0-4-.14-6,0A7.77,7.77,0,0,0,196,125.3l-1.91,3q-6,9.51-12.09,19-2.5,3.93-5,7.89l-1.77,2.83c-.19.31-.38.62-.56.93s-.23.36-.47.76a8.07,8.07,0,0,0-1.31,3.28,5.92,5.92,0,0,0,.92,3.75,6.87,6.87,0,0,0,7.35,2.83,8.1,8.1,0,0,0,4.35-2.32c.31-.33.56-.7.85-1.05l2.36-2.92,6.91-8.52,1.42-1.74-2.32.36V189a5.64,5.64,0,0,0,.44,2.43,5.45,5.45,0,0,0,5.79,2.91c2.42-.3,4.9-1.86,5.46-4.37a9,9,0,0,0,.13-2V164.26l-1.71.89h1.78l-.7-.25v33.18c0,.53,0,1.06,0,1.58.05,3,2.58,4.89,5.4,5a2.19,2.19,0,0,0,1.61-.61C213.25,203.55,212.65,203.48,212.32,203.47Z"/></svg>