<svg id="Layer_1" data-name="Layer 1" xmlns="http://www.w3.org/2000/svg" viewBox="0 0 442.87 442.87"><defs><style>.cls-1{fill:#263a29;}.cls-2{fill:#fff;}.cls-3{fill:none;stroke:#fff;stroke-linecap:round;stroke-linejoin:round;stroke-width:3.5px;}</style></defs><circle class="cls-1" cx="218.36" cy="219.83" r="220.02"/><path class="cls-2" d="M161.93,300.47a9.07,9.07,0,0,0,2.55,6.62,10.69,10.69,0,0,0,7,2.48,12.91,12.91,0,0,0,8.26-2.61c2.33-1.83,3.31-4.53,4-7.3,1.8-7,1.26-14.4,1.29-21.52,0-7.57,0-15.14,0-22.71,0-4.18.07-8.36-.08-12.53,0-1,.15-1.81.21-2.74,0,.36-.65.32-.11.18a5.78,5.78,0,0,0,.72-.32,11.91,11.91,0,0,0,3.5-1.82l-4.16.6c.56.53,1.52,1,1.86,1.74a5.42,5.42,0,0,1,.2,1.71c.08.82.15,1.64.21,2.45.21,2.71.32,5.41.32,8.12q0,8.34,0,16.68v52.25c0,.74,1.7.63,2.06.59a173.23,173.23,0,0,1,24.48-1.09c1.15,0,2.84-.48,3.37-1.61h0l-.93,1a4.71,4.71,0,0,1-2.23.62h.13a1.71,1.71,0,0,0,.32,0l.88,0c.92,0,1.85.11,2.77.18,2.2.17,5,.42,7.42.64,5.74.54,11.47,1.12,17.2,1.81,1.17.14,3.91-.29,3.91-1.89q0-33.12,0-66.26v-9.47c0-3,.22-5.89.47-8.86L244.23,239H250l-1.45-.63c0,13.41-.06,26.82,0,40.24q0,5.22.06,10.44a57.61,57.61,0,0,0,.5,9.91c.47,2.63,1.22,5.76,3.06,7.81a9.23,9.23,0,0,0,6.37,2.68c4.92.34,10.63-1.62,12.22-6.75a34.35,34.35,0,0,0,1.18-9.53c0-3.49,0-7,0-10.48q.06-20.94,0-41.9c0-6.68,0-13.36-1.23-20a22.3,22.3,0,0,0-6.19-12c-3.72-3.59-8.58-5.39-13.55-6.47-6.51-1.43-13.22-1.56-19.85-1.82-13-.5-26.06-.66-39,.84-9.85,1.14-21.61,2.62-27,12.14-2.46,4.35-3.27,9.26-3.34,14.21-.11,6.88,0,13.78,0,20.66q0,20.8,0,41.6,0,5.24,0,10.47c0,1.33,4.84.47,4.83-1.3q-.1-19.8-.09-39.61V239.88c0-3.29,0-6.57,0-9.86a50.17,50.17,0,0,1,.43-8.75,21.22,21.22,0,0,1,5-11.09c3-3.2,6.94-4.29,11.09-5.08,11.41-2.17,23.11-2.47,34.69-2.31,6.57.09,13.15.3,19.71.69,5.58.32,11.47,1,16.63,3.28a19.59,19.59,0,0,1,9.34,8.41c2.5,4.6,3,10,3.41,15.1.51,6.39.23,12.89.25,19.3q0,10,0,19.95t0,19.7a74.41,74.41,0,0,1-.37,9.79c-.3,2.26-.5,5.1-2.19,6.84-1.18,1.21-2.93,1.26-4.56,1a6.19,6.19,0,0,1-4.59-4c-2.35-5.75-2-12-2-18.05-.09-13.17,0-26.35,0-39.52v-8.17c0-.56-1.13-.63-1.45-.63h-5.77c-.77,0-3.27.46-3.37,1.6-.9,10.84-.49,21.79-.49,32.66q0,16.82,0,33.64v18.93l3.91-1.88c-6.41-.77-12.84-1.42-19.28-2-2.75-.25-5.5-.49-8.26-.66-1.84-.12-4.88-.44-5.83,1.57l3.37-1.61a180.57,180.57,0,0,0-25.68,1.17l2,.59q0-33.72,0-67.44c0-3.13-.07-6.24-.3-9.36,0-.74-.11-1.48-.18-2.21a9,9,0,0,0-.25-2.2c-.37-1-1.47-1.59-2.19-2.29-1-.93-3.33-.16-4.17.6-.17.15-.08.07-.42.23-.5.22-1,.4-1.51.62a7,7,0,0,0-2.84,1.82c-.74,1-.59,2.58-.55,3.74,0,1.67.06,3.34.06,5,0,7,0,14,0,21s0,14-.12,21a38.91,38.91,0,0,1-1.29,9.84c-.59,2.16-1.35,4.86-3.55,5.95-1.54.77-4.14.14-5.66-.92-2.16-1.52-2.82-4.1-2.87-6.62C166.73,297.83,161.9,298.71,161.93,300.47Z"/><path class="cls-2" d="M199.58,169.94c.07-7.94,4.06-15.78,11.69-18.84s16.56.33,21.77,6.56a19.91,19.91,0,0,1,1.74,23.42,18.72,18.72,0,0,1-19.49,8.29,19.85,19.85,0,0,1-15.71-19.43c0-2.16-4.86-1.2-4.85.54a22,22,0,0,0,15.07,21c9.25,3.1,20.6.26,27.12-7a21.82,21.82,0,0,0,2.43-26.21A24.48,24.48,0,0,0,213,147.69a23.55,23.55,0,0,0-18.29,22.79C194.71,172.63,199.56,171.69,199.58,169.94Z"/><path class="cls-2" d="M175.65,86.51l.58-21.44.33-12.32a9.68,9.68,0,0,0,.07-2.4,6.82,6.82,0,0,0-1.26-1.7,29.93,29.93,0,0,0-9.18-7.87,18,18,0,0,0-18,1.08,18.69,18.69,0,0,0-3.81,3.23c-1,1.11-2.84,2.88-2.87,4.42-.05,2,0,4,0,6v65.4a45.09,45.09,0,0,0,.36,8.38,17.72,17.72,0,0,0,6.74,11.18c5.75,4.12,12.77,3.53,19.43,3,4.94-.42,10.34,0,15.07-1.75a8.59,8.59,0,0,0,4.54-3.44,17.43,17.43,0,0,0,1.82-5.36c2.4-10.44,2.62-21.27,2.84-31.94.2-9.47.18-19,0-28.42l0-1.62c0-1.37-6.81-.28-6.76,1.81.15,6.63.18,13.27.15,19.91-.06,11-.08,22-1.38,32.93-.26,2.18-.64,4.33-1.09,6.48a32.88,32.88,0,0,1-1.66,6.17c-.14.31-.29.62-.45.92,0,.06-.3.47-.15.26s-.14.18-.21.25l-.28.3c-.29.36.09-.06.07,0-.71.52.51-.21-.22.13,1.06-.49.47-.2.2-.11.27-.09.95-.28.32-.12-.13,0,1-.17.28-.06l-.61.09c-.66.11.21,0,.1,0l-.62.05c-.5,0-1,.08-1.49.1-2.7.16-5.41.28-8.11.52-3.29.3-6.46.77-9.72.05a14.93,14.93,0,0,1-10.52-8.32,22.13,22.13,0,0,1-1.87-9.56V49.06a8,8,0,0,1,0-1.2A5.26,5.26,0,0,1,149.47,46a16.7,16.7,0,0,1,3.22-3.23c.28-.2.56-.39.84-.56s-.32.17.09,0L154,42c.53-.28.06,0-.06,0a2.24,2.24,0,0,1,.36-.14c.48-.06-.64.19-.17,0,.22-.06.8-.13-.08,0,.13,0,1-.15.52-.1s.42,0,.52,0c-.55,0,.09,0,.31,0l.73.07a15.9,15.9,0,0,1,5.82,2.52,30,30,0,0,1,4.76,4,36.19,36.19,0,0,1,2.88,3.3l.32.43c.17.22,0-.22,0,0s0,.25,0,.38c-.13,3-.16,5.91-.24,8.86l-.69,25.27,0,1.69c0,1.27,6.7.32,6.76-1.81Z"/><polygon class="cls-3" points="325.86 89.37 105.75 86.44 107.7 354.48 324.88 355.46 325.86 89.37"/></svg>