<svg id="Layer_1" data-name="Layer 1" xmlns="http://www.w3.org/2000/svg" viewBox="0 0 442.87 442.87"><defs><style>.cls-1{fill:#263a29;}.cls-2,.cls-3{fill:#fff;}.cls-2{stroke:#fff;stroke-miterlimit:10;stroke-width:1.5px;}</style></defs><circle class="cls-1" cx="218.36" cy="219.82" r="220.02"/><path class="cls-2" d="M217.86,191.38l-5.27,6.29c-4.94-3.93-9.54-5.73-15.15-5.73-12.12,0-22.11,8.19-22.11,31.87,0,22.56,9.65,31.65,22,31.65,7.41,0,12.12-3,16.61-6.4l4.83,6.18c-4.38,4.37-11.56,8.53-21.77,8.53-18.52,0-32-14-32-40,0-26.26,14.37-39.95,31.87-39.95C206.41,183.86,211.8,186.56,217.86,191.38Z"/><path class="cls-2" d="M290,223.93c0,25.47-13,39.84-32.32,39.84S225.38,249.85,225.38,224c0-25.48,13.25-40.18,32.32-40.18S290,197.89,290,223.93Zm-54.31.11c0,22.44,9,31.65,22,31.65,13.47,0,22-9.21,22-31.76s-8.42-32-22-32C244.46,191.94,235.71,201.37,235.71,224Z"/><path class="cls-2" d="M330.32,250.75c0,7.85-4.94,13.58-20.31,27.72h21.54l-.9,6.51H300.92v-6.06c17.05-16.61,21.09-21,21.09-27.5,0-4.82-3-7.41-7.52-7.41-4,0-6.73,1.46-9.76,4.94L299.68,245a19,19,0,0,1,15.38-7.51C324.71,237.51,330.32,243.23,330.32,250.75Z"/><path class="cls-3" d="M320.66,182.87a91.52,91.52,0,0,0-48.43-72.09,93.6,93.6,0,0,0-125.44,38.33c-.94,1.73-1.82,3.48-2.65,5.27l5.18-1.9A48.71,48.71,0,0,0,108,157.7a48.07,48.07,0,0,0-21.18,29.82,46.11,46.11,0,0,0,1.36,24.67L90,209.28A70.42,70.42,0,0,0,64.54,234.6a65.61,65.61,0,0,0-8.75,34.67,67.12,67.12,0,0,0,31.54,54.79,69.22,69.22,0,0,0,36.3,10.16L120.5,332h0c0,1.75,1.63,2.23,3.13,2.23h157.2c7.24,0,14.54.28,21.77,0h.3c1.33,0,3.72-1.15,3.72-2.74h0l-3.72,2.74a80.06,80.06,0,0,0,42.86-12.73A78.18,78.18,0,0,0,374,289.31a77.31,77.31,0,0,0,6.48-44,76,76,0,0,0-18.68-39.64,77.65,77.65,0,0,0-37.38-23q-3-.78-6-1.36a4.35,4.35,0,0,0-4.4,2.07c-.74,1.61.67,2.59,2.07,2.86,27.8,5.41,50.29,27.62,56.53,55.17,6.19,27.33-4.22,56.65-26.58,73.62a70.13,70.13,0,0,1-42.58,14.22c-1.32,0-3.72,1.15-3.72,2.74h0l3.72-2.74H131.58c-2.33,0-4.73-.17-7.06,0h-.3l3.13,2.23h0c0-1.76-1.64-2.22-3.13-2.23-20.52-.07-39.87-11-51.17-28a63,63,0,0,1-4.41-61.41A62.09,62.09,0,0,1,93,213.28c.93-.55,2.3-1.6,1.88-2.91A43.14,43.14,0,0,1,93.05,190a42.65,42.65,0,0,1,5.8-15.64A41.09,41.09,0,0,1,124.05,156a40.3,40.3,0,0,1,21.37,1c1.76.55,4.34-.08,5.18-1.89A88.08,88.08,0,0,1,179,120.8a83.73,83.73,0,0,1,42-15.36,85.83,85.83,0,0,1,43.06,7.79,86.91,86.91,0,0,1,32.43,26.45,88.74,88.74,0,0,1,16.71,39.5q.44,2.74.7,5.5c.17,1.66,2.87,1.72,4,1.42,1.54-.42,2.92-1.54,2.75-3.23Z"/></svg>