<svg id="Layer_1" data-name="Layer 1" xmlns="http://www.w3.org/2000/svg" viewBox="0 0 442.87 442.87"><defs><style>.cls-1{fill:#263a29;}.cls-2{fill:#fff;}</style></defs><circle class="cls-1" cx="219.38" cy="219.82" r="220.02"/><path class="cls-2" d="M213.79,154.13a34.73,34.73,0,0,1-22.4-61c10.67-9.17,26.3-10.09,38.24-2.84a35.25,35.25,0,0,1,16.2,36.24C243.36,140,232.67,151.39,219,153.66a33,33,0,0,1-5.25.47c-1.09,0-2.61.31-3.16,1.41s.42,1.76,1.4,1.76c15.93-.08,31.08-9.54,36.8-24.67a37.28,37.28,0,0,0-11-41.77c-12.51-10.36-30.61-11.19-44.49-3.11a37.88,37.88,0,0,0-18.14,39.37c2.91,15.4,15.66,27.21,31,29.7a37.19,37.19,0,0,0,5.87.48c1.09,0,2.62-.31,3.16-1.41S214.77,154.14,213.79,154.13Z"/><path class="cls-2" d="M183.42,247.43V231c0-5.95,0-11.9,0-17.85a18.77,18.77,0,0,0-7.21-14.78l-2.69-2.18L158.1,183.64l-18.42-15-6.17-5a41.43,41.43,0,0,1-3.45-2.88c-3.9-4-5-10.38-1.45-14.94s9.17-4.59,13.62-1.57,8.58,6.36,12.84,9.53l16.49,12.28a67.5,67.5,0,0,0,72.4,6.14c6.1-3.2,11.48-7.49,17-11.58l18.44-13.73c1.41-1.05,2.79-2.23,4.3-3.15a10.07,10.07,0,0,1,13.67,2.85,11.41,11.41,0,0,1-1.64,14.74c-1,1-2.2,1.82-3.29,2.7L277.3,176.33l-18.46,15c-3.15,2.55-6.32,5.08-9.44,7.66a19,19,0,0,0-7,14.54v34.24c0,2.56,4.9,1.86,4.9-.35v-16.7c0-5.89,0-11.77,0-17.66a15.64,15.64,0,0,1,6-12.37c1.15-.92,2.29-1.86,3.44-2.79l16.54-13.45,18-14.65c3.77-3.07,8.61-6.18,11.07-10.45A13.87,13.87,0,0,0,300.52,143c-4.48-4.63-11.21-5.41-17-3.06a29.67,29.67,0,0,0-6.39,4.06L268.94,150l-17.51,13a73.88,73.88,0,0,1-8.33,5.54,61.44,61.44,0,0,1-19.67,6.91,62.21,62.21,0,0,1-40.86-7.38c-5.57-3.21-10.65-7.37-15.8-11.2l-18-13.39a26,26,0,0,0-6.64-4,15.8,15.8,0,0,0-17,4.17,14.08,14.08,0,0,0-1.49,16.61,21.44,21.44,0,0,0,5.31,5.48l14,11.35,19,15.43c3.46,2.82,6.91,5.66,10.4,8.46a16,16,0,0,1,6.23,12.45c0,2.07,0,4.14,0,6.21v28.11c0,2.56,4.9,1.86,4.9-.35Z"/><path class="cls-2" d="M317.45,218.26l5.83,11.83,3.25,6.58.5,1a6.65,6.65,0,0,0,5.18,3.59c4.45.72,8.94,1.3,13.4,1.95l7,1c1.95.28,3.53,1.44,3.57,3.65,0,1.87-1.47,3-2.68,4.14l-5.91,5.75-6,5.82c-1.44,1.4-3,2.69-3.64,4.7-.54,1.79,0,3.81.35,5.6l1.42,8.29,1.37,8c.29,1.72.9,3.66-.45,5.11a1.1,1.1,0,0,1-1,.49,3.24,3.24,0,0,1-.91-.3c-.53-.25-1.05-.55-1.57-.83l-7.05-3.71-7.56-4c-1.6-.84-3.31-2-5.12-2.27-2.72-.45-4.89.64-7.18,1.84l-7.15,3.76-7.51,4c-.95.5-2.61,1.72-3.55,1.47a3.67,3.67,0,0,1-2.54-3.86c.05-.49.16-1,.24-1.45l1.22-7.12c.75-4.36,1.64-8.73,2.25-13.12.37-2.69-1-4.48-2.78-6.2l-5.59-5.45-6.18-6a18.27,18.27,0,0,1-3.32-3.43,3.75,3.75,0,0,1,.23-4c.49-.63.52-.59,1.15-.68,2.06-.27,4.12-.59,6.18-.89,4.86-.71,9.73-1.37,14.59-2.12a8.39,8.39,0,0,0,6.62-4.51c.94-1.89,1.86-3.78,2.79-5.67,2.17-4.38,4.26-8.82,6.5-13.17a5.38,5.38,0,0,1,.39-.7,1.5,1.5,0,0,1,1-.73c-.25,0,.22,0,.35,0a3.23,3.23,0,0,1,2.43,2.07c.89,1.69,5.55,0,4.44-2-2.18-4.09-8.09-4.08-11.35-1.36-1.52,1.26-2.23,3.09-3.08,4.82l-7.44,15.06c-.27.55-.54,1.12-.82,1.67a2.66,2.66,0,0,1-.95,1.17c-.24.14-.71.22-.17.12l-.15,0c-1.92.32-3.85.56-5.77.84-5.08.74-10.15,1.44-15.22,2.21-3.39.52-7,2.67-7.11,6.48-.1,2.44,1.25,4,2.85,5.55l12,11.73c1.29,1.26,3.25,2.68,3.49,4.57.2,1.56-.42,3.44-.68,4.95l-2.81,16.37c-.45,2.63-.18,5.12,2.15,6.87,2.63,2,6.06,1.47,8.8,0l14.42-7.58c1.34-.71,2.67-1.49,4.05-2.13s3.26.94,4.48,1.58l14.86,7.82,1.39.73a8,8,0,0,0,6.2.44c3.48-1.15,5.64-4.16,5-7.82-.85-5.15-1.77-10.28-2.65-15.42-.31-1.83-.7-3.65-.94-5.48-.28-2.11,1-3.18,2.33-4.48l12.16-11.84c1.37-1.34,2.91-2.58,3.55-4.45,1.35-3.92-1.61-7.28-5.38-7.88-4.69-.75-9.41-1.37-14.11-2.05l-6.71-1a5,5,0,0,1-.54-.08H334c.39.07.06,0-.17-.06a3.75,3.75,0,0,1-1.3-.81,5.15,5.15,0,0,1-1-1.62l-7.3-14.79L322.27,217c-.51-1-1.79-1.1-2.81-.83C318.8,216.31,316.94,217.24,317.45,218.26Z"/><path class="cls-2" d="M112.18,218.26,118,230.09l3.25,6.58.5,1a6.8,6.8,0,0,0,5.21,3.7c4.45.74,8.94,1.29,13.4,1.94l7,1a8.54,8.54,0,0,1,1.34.24,3.55,3.55,0,0,1,2.2,3.27c0,1.83-1.52,2.94-2.7,4.09l-5.91,5.76-6,5.81c-1.46,1.42-3,2.71-3.62,4.76-.53,1.82,0,3.81.35,5.63l1.42,8.29,1.37,8c.28,1.64.93,3.7-.47,5-.57.54-1,.62-1.93.21-.54-.23-1.06-.55-1.58-.82l-7.05-3.71-7.55-4a19.3,19.3,0,0,0-5.14-2.32c-2.71-.49-4.9.63-7.18,1.83l-7.15,3.76-7.51,3.95c-1,.55-2.65,1.74-3.67,1.47a3.51,3.51,0,0,1-2.38-3.71c0-.49.16-1,.24-1.45l1.22-7.12c.75-4.36,1.64-8.73,2.25-13.11.38-2.72-1-4.54-2.8-6.27l-5.59-5.45-6.18-6A18.85,18.85,0,0,1,70.1,249a3.54,3.54,0,0,1,.25-3.92,2.78,2.78,0,0,1,.58-.49c.23-.12.76-.2.15-.09l.43-.07,6.18-.89c4.86-.71,9.74-1.38,14.59-2.13a8.31,8.31,0,0,0,6.6-4.56c.94-1.88,1.87-3.78,2.8-5.66,2.17-4.39,4.3-8.8,6.5-13.17a4.25,4.25,0,0,1,.27-.52,2.33,2.33,0,0,1,.59-.62.87.87,0,0,1,.59-.24c-.25,0,.2,0,.34,0a2.15,2.15,0,0,1,.77.22,3.86,3.86,0,0,1,1.64,1.77c1,1.84,5.59.1,4.43-2.1-2.16-4.06-8-4.23-11.28-1.53-1.56,1.29-2.3,3.19-3.17,5l-7.43,15.06c-.28.55-.54,1.12-.83,1.67a2.48,2.48,0,0,1-.95,1.12c-.25.13-.72.21-.18.11l-.15,0c-1.92.33-3.85.56-5.78.84-5.07.74-10.14,1.45-15.21,2.21-3.43.52-7,2.73-7.09,6.57-.09,2.46,1.25,4,2.87,5.61l12,11.74c1.26,1.23,3.26,2.67,3.48,4.53.19,1.55-.43,3.42-.69,4.92l-2.81,16.37c-.45,2.66-.15,5.18,2.17,7,2.64,2,6.07,1.54,8.82.09L105,290.23c1.34-.7,2.67-1.51,4-2.13s3.15.83,4.47,1.53l14.86,7.81,1.39.73a8,8,0,0,0,6.22.5,7,7,0,0,0,5-7.94c-.85-5.15-1.77-10.28-2.65-15.42-.31-1.82-.7-3.65-.94-5.48-.26-2.06,1.06-3.12,2.36-4.39L152,253.6c1.32-1.29,2.87-2.53,3.5-4.33,1.39-4-1.45-7.55-5.37-8.2-4.69-.78-9.42-1.37-14.12-2l-6.71-1a3.86,3.86,0,0,1-3.06-2.47l-7.3-14.79L117,217a2.31,2.31,0,0,0-2.85-1C113.44,216.2,111.65,217.2,112.18,218.26Z"/><path class="cls-2" d="M216.43,235.64,224.5,252l4.41,8.94c.3.6.59,1.21.9,1.8A8.46,8.46,0,0,0,236.2,267c6.34,1,12.72,1.85,19.08,2.77l9.28,1.35a7.22,7.22,0,0,1,2.19.52,5.54,5.54,0,0,1,2.95,5.4c-.23,2.48-2.3,4-3.95,5.6l-8.16,8-8.16,8c-2.05,2-4.29,3.82-4.9,6.79-.47,2.3.35,5.05.74,7.33l2,11.7L249.11,335c.43,2.5,1.11,5.28-1.12,7.21a3.24,3.24,0,0,1-3.87.28c-.74-.35-1.45-.76-2.18-1.14l-9.67-5.09-10.41-5.47c-2.22-1.16-4.58-2.74-7.1-3.1-3.43-.49-6.16,1.13-9,2.64l-10.12,5.32-10.05,5.28c-1.81,1-3.84,2.53-5.82,1.86a5.45,5.45,0,0,1-3.5-5.76c.08-.62.21-1.23.31-1.84l1.7-9.88c1-6,2.19-12,3.08-18a7.84,7.84,0,0,0-2.2-6.75c-.57-.57-1.15-1.12-1.72-1.68l-7.8-7.6-8.5-8.28c-1.42-1.38-3.5-2.91-4.43-4.71a5.43,5.43,0,0,1,.83-6.14,3,3,0,0,1,2.12-1l8.52-1.23c6.7-1,13.42-1.91,20.12-2.93a10.35,10.35,0,0,0,8.18-5.85l4.05-8.2c2.9-5.88,5.73-11.8,8.71-17.64a5,5,0,0,1,.87-1.32,6.27,6.27,0,0,1,.83-.68,1,1,0,0,1,.53-.22c.09,0,.7-.14.41-.11,1.93-.26,3.79,1.13,4.78,3,.91,1.75,5.55.07,4.43-2.07-2.84-5.46-10.72-5.45-14.77-1.41-1.67,1.65-2.59,4.21-3.61,6.28l-10.2,20.67c-.83,1.69-1.58,3.82-3.67,4.22-2.61.49-5.29.77-7.92,1.15-7,1-14,2-20.94,3-4.48.67-8.82,3.75-8.73,8.71.05,3.22,2,5.12,4.12,7.18L171.92,300c1.88,1.82,4.44,3.7,4.62,6.52a12.18,12.18,0,0,1-.31,2.62l-.7,4.07-3.84,22.41c-.12.68-.27,1.37-.34,2.06a7.8,7.8,0,0,0,3.38,7.17c3.49,2.42,7.58,1.54,11.06-.29L205.84,334l3.78-2a11.1,11.1,0,0,1,1.93-.94c2-.59,4.85,1.52,6.56,2.42l20.4,10.72c.64.34,1.29.69,1.94,1a9.91,9.91,0,0,0,8.05.45,9.13,9.13,0,0,0,5.85-6.38,9.86,9.86,0,0,0-.1-3.75L250.55,314c-.4-2.33-.86-4.65-1.2-7-.45-3.06,1.57-4.73,3.49-6.61l16.6-16.18c1.84-1.79,4-3.48,4.79-6a7.77,7.77,0,0,0-1.34-7.23,8.73,8.73,0,0,0-5.63-3c-6.6-1.05-13.24-1.92-19.85-2.88l-8.91-1.3c-2.44-.35-3.67-1.93-4.65-3.92l-10-20.23-2.6-5.27a2.32,2.32,0,0,0-2.83-.89C217.75,233.65,215.92,234.6,216.43,235.64Z"/></svg>