<svg id="Layer_1" data-name="Layer 1" xmlns="http://www.w3.org/2000/svg" viewBox="0 0 442.87 442.87"><defs><style>.cls-1{fill:#263a29;}.cls-2,.cls-3{fill:none;stroke:#fff;stroke-linecap:round;stroke-linejoin:round;}.cls-2{stroke-width:3px;}.cls-3{stroke-width:2.5px;}.cls-4{fill:#fff;}</style></defs><circle class="cls-1" cx="218.61" cy="221.84" r="220.02"/><path class="cls-2" d="M62.42,255h0c4.23.18,12.31-3.11,22.78-7.12h0c10.55-3.92,24-8.11,40.81-8.26h0v0l.11,0h0c17.33,0,29.8,4.76,39.29,8.7h0c9.69,4,16,6.65,25.14,6.68h0c9.11,0,16.1-2.78,25.92-6.73h0c9.58-3.86,21.78-8.57,38.2-8.65h.46c.08,0,.08,0,.08,0h0c16.59,0,28.16,5,37,8.74h0c9.19,3.85,15.46,6.55,27.25,6.64h0c.41,0,.7,0,.92,0h0c11.46,0,20.51-3.23,30.27-7h0c9.68-3.69,20-8,33.23-8.38"/><path class="cls-2" d="M62.42,281h0c4.23.18,12.31-3.11,22.78-7.12h0c10.55-3.92,24-8.11,40.81-8.26h.14c17.33,0,29.8,4.76,39.29,8.7h0c9.69,4,16,6.65,25.14,6.68h0c9.11,0,16.1-2.78,25.92-6.73h0c9.58-3.86,21.78-8.58,38.2-8.65h.54c16.59,0,28.16,5,37,8.74h0c9.19,3.85,15.46,6.55,27.25,6.64h0c.41,0,.7,0,.92,0h0c11.46,0,20.51-3.23,30.27-7h0c9.68-3.69,20-8,33.23-8.38"/><path class="cls-2" d="M62.42,306.9h0c4.23.18,12.31-3.11,22.78-7.12h0c10.55-3.92,24-8.11,40.81-8.26h.14c17.33,0,29.8,4.76,39.29,8.7h0c9.69,4,16,6.64,25.14,6.68h0c9.11,0,16.1-2.78,25.92-6.73h0c9.58-3.86,21.78-8.58,38.2-8.65h.54c16.59,0,28.16,5,37,8.74h0c9.19,3.85,15.46,6.54,27.25,6.64h0c.41,0,.7,0,.92,0h0c11.46,0,20.51-3.23,30.27-7h0c9.68-3.69,20-8,33.23-8.38"/><polyline class="cls-3" points="83.4 204.46 83.4 191.49 106.52 191.49 106.52 172.32 142.03 172.32 142.03 204.46"/><path class="cls-4" d="M228.78,240.48q-29.72-.09-59.43-.14l-15.7-.05a5.78,5.78,0,0,0-3.41.92c-.68.5-.71,1.19.32,1.19q29.25.12,58.5.15l17.68,0a4.63,4.63,0,0,0,3.22-1.18c.65-.87-.57-.93-1.18-.93Z"/><path class="cls-4" d="M364.33,239.84c-.81.15-1.63.28-2.45.36a10.8,10.8,0,0,1-1.38.1c-.1,0,.75,0,.39,0l-.9,0-2.89,0c-3.38,0-6.76.05-10.14.06q-17.56,0-35.14,0l-26.88,0c-1,0-2.62.34-3.18,1.33s.47,1.45,1.32,1.45q22.31.06,44.61.07c8.93,0,17.87,0,26.8-.07a51.36,51.36,0,0,0,9.19-.58c.88-.16,2.56-.56,2.74-1.65s-1.41-1.2-2.09-1.07Z"/><path class="cls-4" d="M98.68,239.35q-7,0-14-.1c-3.9,0-8.29-.49-10.78-3.9-2-2.78-1.63-6.25-1.57-9.5.07-4.37.18-8.75.29-13.12q.1-4.22.22-8.43l-2.65,2H152l-2.22-1.21,5.08,15.22a2.09,2.09,0,0,0,2.22,1.21l14.63-.05,35-.14,42.43-.16,36.53-.14c5.9,0,11.87.22,17.77-.07h.25a2.92,2.92,0,0,0,2.51-1.53l6.2-14.66-2.51,1.53h73l-2.26-1.7c-1.16,5.91-2.5,11.81-4.21,17.58a53.56,53.56,0,0,1-4.42,11,11.87,11.87,0,0,1-8.4,6.29c-1,.21-2.24,1.24-2,2.39s1.9,1.31,2.88,1.1a17.13,17.13,0,0,0,9.3-5.07c2.34-2.55,3.83-5.85,5.15-9,2.55-6.08,4-12.71,5.4-19.13.4-1.81.8-3.63,1.15-5.45.25-1.26-1.37-1.7-2.26-1.7h-73a2.92,2.92,0,0,0-2.51,1.53l-6.2,14.66,2.51-1.54-14.63.06-35,.14-42.43.16-36.53.14-12,.05c-1.88,0-3.85-.17-5.72,0a2.26,2.26,0,0,1-.26,0l2.23,1.21-5.08-15.22a2.1,2.1,0,0,0-2.23-1.21H70.62c-1,0-2.61.85-2.64,2-.2,7.19-.39,14.38-.51,21.56-.06,3.74-.37,7.54,1.72,10.85,3,4.72,8.94,5.9,14.13,5.93,5,0,10,.09,15,.11,2.82,0,3.65-3.7.38-3.71Z"/><rect class="cls-4" x="113.86" y="182.13" width="3.12" height="6.2"/><path class="cls-4" d="M116.68,187.4h-3.12l1,1.39v-6.2l-.37.47h3.12l-1-1.39v6.2a1.6,1.6,0,0,0,.62,1.27c.34.22.71.08.71-.35v-6.2c0-.49-.35-1.39-1-1.39h-3.12c-.25,0-.37.25-.37.47v6.2c0,.49.35,1.39,1,1.39h3.12C118.08,189.26,117.41,187.4,116.68,187.4Z"/><rect class="cls-4" x="122.32" y="182.13" width="3.12" height="6.2"/><path class="cls-4" d="M125.14,187.4H122l1,1.39v-6.2l-.37.47h3.11l-1-1.39v6.2a1.58,1.58,0,0,0,.63,1.27c.33.22.7.08.7-.35v-6.2c0-.49-.35-1.39-1-1.39H122c-.25,0-.37.25-.37.47v6.2c0,.49.35,1.39,1,1.39h3.11C126.55,189.26,125.88,187.4,125.14,187.4Z"/><rect class="cls-4" x="130.79" y="182.13" width="3.12" height="6.2"/><path class="cls-4" d="M133.61,187.4h-3.12l1,1.39v-6.2l-.37.47h3.12l-1-1.39v6.2a1.58,1.58,0,0,0,.63,1.27c.33.22.7.08.7-.35v-6.2c0-.49-.35-1.39-1-1.39h-3.12c-.24,0-.37.25-.37.47v6.2c0,.49.35,1.39,1,1.39h3.12C135,189.26,134.34,187.4,133.61,187.4Z"/></svg>