<svg id="Layer_1" data-name="Layer 1" xmlns="http://www.w3.org/2000/svg" viewBox="0 0 442.87 442.87"><defs><style>.cls-1{fill:#263a29;}.cls-2{fill:#fff;}</style></defs><circle class="cls-1" cx="219.12" cy="222.81" r="220.02"/><path class="cls-2" d="M253.3,71.09l-10.24,1.73c-.68.11-1.7.47-1.61,1.34.45,4.53.6,9,.86,13.6.3,5.4.68,10.8,1,16.19.83,13.1,1.24,26.19,1.16,39.31,0,.55,0,1.09,0,1.64,0,.11.09.69.08.75s0,.07,0,.1a2.73,2.73,0,0,1-.29.53l-1.17,2.21-4.41,8.3-12,22.57-5,9.43c-.87,1.64-1.83,3.26-2.62,4.93l-.12.23,2.82-.28q-2.24-4.35-4.21-8.81l-.26.73c4.16-5,8.16-10.4,10.18-16.67a28.31,28.31,0,0,0-.78-18.59,48.29,48.29,0,0,0-10.3-16,85.78,85.78,0,0,0-15.2-12.73,76.47,76.47,0,0,0-17.92-9,2.1,2.1,0,0,0-2.23.79,18.44,18.44,0,0,0-2,5,67.75,67.75,0,0,0-1.79,7.86,115.42,115.42,0,0,0-1.71,20.67c.05,6.78.59,13.79,2.8,20.24a31,31,0,0,0,5.35,9.31,26.74,26.74,0,0,0,7.08,6.11c6.48,3.8,14.21,4.67,21.57,5l-.92-.57c1.59,3.91,3.09,7.85,4.6,11.79l.08-.49-10.72,16q-6,9-12,18l-.53.79a21,21,0,0,0-1.78,2.64c-.47,1,1,2.51,1.73,3.11a11.26,11.26,0,0,0,5.39,2.36,2.15,2.15,0,0,0,2.22-.79q3.25-4.86,6.5-9.71L220.63,210l17.54-26.23,15.55-23.26,7.54-11.28c.09-.13.19-.26.27-.39l-.76.63c3.82-1.93,7.61-3.9,11.48-5.74l-1.75,0c5.59,4.61,11.79,9.08,19,10.59a31.25,31.25,0,0,0,21.75-3.83,66.93,66.93,0,0,0,14.9-12.68,118.19,118.19,0,0,0,12.13-15.7,75.67,75.67,0,0,0,4.37-7.56,20,20,0,0,0,2-5.52.62.62,0,0,0-.33-.63,75.7,75.7,0,0,0-18.62-5.26,85.65,85.65,0,0,0-21.63-.85c-12.37,1.16-25.87,6.23-31.59,18.11-2.9,6-3.61,12.87-3.9,19.48l.85-.88c-3.2,1.43-6.43,2.77-9.72,4l2.06.35-1.11-11.07L259,114.76l-.41-4.05-.26.74c3.73-3.68,7.5-7.31,11.25-11q2.91-2.83,5.77-5.68c1.72-1.71,3.37-3.51,5.15-5.16.92-.85,1.87-1.68,2.8-2.52a.83.83,0,0,0,.26-.74L282,82.7c-.42-1-2-.5-2.64,0l-7.62,6.9-13.14,11.9-3.33,3,2.64,0-1.22-12L255.08,76.6c-.16-1.65-.33-3.3-.49-4.95-.12-1.17-3-.5-2.9.78l1.05,10.4,1.82,17.94.46,4.52c0,.46.78.57,1.1.57a2.27,2.27,0,0,0,1.53-.61l8.84-8,11.59-10.51,3.66-3.31-2.64,0,1.51,3.7.26-.74c-4.74,4.28-9.15,8.91-13.72,13.36-2.93,2.87-5.89,5.71-8.82,8.58-.74.72-1.51,1.42-2.22,2.17a1.25,1.25,0,0,0-.46,1,7,7,0,0,0,.08.79L258.11,136l.83,8.15c.08.86,1.64.5,2.06.35,3.28-1.2,6.52-2.55,9.71-4,.32-.14.83-.47.85-.88.25-5.66.75-11.53,2.81-16.87a25.55,25.55,0,0,1,9.56-12,40.32,40.32,0,0,1,17.63-6.25,79.45,79.45,0,0,1,20.38.21A73.79,73.79,0,0,1,342.12,110l-.33-.64a15.85,15.85,0,0,1-1.54,4.36,65.05,65.05,0,0,1-3.43,6.23A113.21,113.21,0,0,1,325.9,134.8a75.73,75.73,0,0,1-13.92,13,27.89,27.89,0,0,1-18.94,5.1c-7.76-.94-14.41-5.81-20.27-10.65a1.93,1.93,0,0,0-1.75,0c-2.39,1.14-4.76,2.33-7.13,3.53l-3.62,1.84a3.81,3.81,0,0,0-1.66,1.27l-.57.85-3.66,5.48-6.32,9.45-8.14,12.17-9.12,13.64-9.31,13.93-8.56,12.8-7,10.5-4.64,6.95-2,3-1.68,2.51,2.23-.79c-2.37-.44-5.12-1.47-6-3.93l-.08.49q4.72-7,9.43-14.08l14.17-21.18a18,18,0,0,0,1.43-2.13c.21-.44,0-.72-.13-1.16l-1.41-3.69c-1-2.5-1.94-5-2.95-7.48a1,1,0,0,0-.92-.57c-6.32-.28-12.92-.9-18.67-3.74-5.92-2.91-10.11-8-12.85-13.94a35.19,35.19,0,0,1-2.46-9.08,75.66,75.66,0,0,1-.92-10.19,115.41,115.41,0,0,1,1.32-20.59,79.25,79.25,0,0,1,1.85-9,18.89,18.89,0,0,1,2.14-5.48l-2.23.79a71.42,71.42,0,0,1,15.27,7.43,85.88,85.88,0,0,1,15.13,11.92c8.53,8.52,16,20.51,13.26,33.06-1.53,6.88-5.88,12.78-10.3,18.11-.14.17-.37.49-.26.74,1.33,3,2.72,5.91,4.21,8.8.51,1,2.35.6,2.82-.28l6.43-12.1,12.13-22.83,4.81-9c.74-1.4,1.66-2.8,2.27-4.27l0-.06a3.68,3.68,0,0,0,.1-1.24c0-.66,0-1.31,0-2q0-3.09,0-6.2,0-5.46-.15-10.92-.22-9.12-.78-18.23c-.32-5.42-.71-10.84-1-16.26-.32-5.11-.37-10.26-.87-15.36l-.23-2.3-1.61,1.34L253,73c.58-.1,1.53-.38,1.62-1.09S253.8,71,253.3,71.09Z"/><path class="cls-2" d="M339,110.07l-7.06,3.59c-1.32.67-2.62,1.39-4,2l-10.4,4.67-18.81,8.45L280.44,137c-2.93,1.32-5.85,2.65-8.79,3.95l-.88.39,2.06.35-.71-1.68-.84,1.13c2.67-1.11,5.3-2.31,8-3.47l17.7-7.75,19.31-8.47,11.92-5.22c3.7-1.62,7.55-2.94,11.32-4.39l.7-.27c.48-.19,1.13-.82.72-1.35s-1.41-.34-1.95-.14l-7.38,2.84c-1.37.53-2.78,1-4.13,1.6L317,119.09l-18.9,8.28-18.36,8c-2.94,1.29-5.87,2.6-8.82,3.87l-.86.36c-.34.14-1,.65-.84,1.13l.71,1.68c.33.77,1.45.62,2.06.35,2.64-1.15,5.25-2.35,7.87-3.52l17.59-7.9,19.23-8.65,11.94-5.36c3.7-1.66,7.27-3.64,10.89-5.48l.67-.34c.45-.23,1.15-.79.72-1.35S339.45,109.82,339,110.07Z"/><path class="cls-2" d="M182.6,117.54l3.57,7.06c.66,1.32,1.38,2.62,2,4l4.67,10.4,8.45,18.82,8.22,18.29,3.94,8.79.39.86.84-1.13-1.65.71,2.06.35c-1.19-2.64-2.34-5.3-3.5-8L203.82,160l-8.46-19.3-5.23-11.91c-1.62-3.71-2.93-7.57-4.37-11.35l-.26-.7c-.25-.64-1.13-.64-1.69-.49s-1.45.63-1.21,1.27l2.82,7.4c.53,1.38,1,2.79,1.6,4.14l4.57,10.43,8.28,18.89,8,18.35c1.29,2.94,2.56,5.89,3.86,8.82l.39.86c.35.77,1.43.62,2.06.35l1.65-.7c.33-.14,1.05-.66.84-1.13q-1.77-4-3.56-7.93l-7.92-17.63-8.63-19.23-5.33-11.87c-1.66-3.69-3.62-7.25-5.45-10.86l-.33-.67a1.41,1.41,0,0,0-1.69-.49C183.43,116.38,182.29,116.93,182.6,117.54Z"/><path class="cls-2" d="M183.52,118.1a2.1,2.1,0,0,0,1.9-.84c.31-.59-.27-1.06-.84-1.06a2.11,2.11,0,0,0-1.9.84c-.32.59.27,1.06.84,1.06Z"/><path class="cls-2" d="M96.26,135.18a31.29,31.29,0,0,0-7.45,1,19.39,19.39,0,0,0-2.61.94c-.84.38-2.88,1.4-2.38,2.66l3.42-1.66c-2.77-1.62-6,2.27-7.43,4.24a33.07,33.07,0,0,0-4.76,9.24,46.39,46.39,0,0,0-2.34,14.74,82.51,82.51,0,0,0,2.76,19.5,78.81,78.81,0,0,0,2.67,8.88c.51,1.36,1.07,2.72,1.67,4,.34.75.7,1.5,1.06,2.24a15.33,15.33,0,0,0,1,2c.8,1.14,3.14.61,3.62-.61l1.16-3c.5-1.3,1.09-2.59,1.51-3.92,0-.07.09-.16.09-.23,0,.2-2.06.78-1.22.78.48,0,1-.06,1.44-.08l4.81-.26,3.4-.17a2.44,2.44,0,0,0,2-1.22l2.64-5.21,1.54-3a5.58,5.58,0,0,0,.35-.69c-.19.51-2.24.94-1.19.81l6.82-.86,3.24-.4c1.1-.14,2.18-.3,2.78-1.4,1-1.95,2-3.95,3-5.93.43-.84.87-1.67,1.28-2.53s-1.94.65-1.24.65c.33,0,.67,0,1-.06l7.13-.39a3.77,3.77,0,0,0,1.51-.3,2.58,2.58,0,0,0,1.16-1.3l1.47-2.9,1.75-3.43c.16-.32.35-.64.49-1,.41-.91-2.61.59-1.56.71,2.23.27,4.5.4,6.74.59l.65.06a2.48,2.48,0,0,0,2.51-1.2l2.14-5.91a1.12,1.12,0,0,0-.09-1.12,85.17,85.17,0,0,0-16.68-14.26,59.07,59.07,0,0,0-20.79-9.22,41,41,0,0,0-9.11-.87c-.86,0-2,.66-2.12,1.6s1,1.35,1.81,1.34h1.77l.39,0,1,.07c1.31.11,2.62.29,3.92.53.73.13,1.46.28,2.18.46.09,0,.48.11.2,0l.57.15c.39.1.77.21,1.16.33,1.59.47,3.16,1,4.69,1.64,7.26,2.94,13.85,7.49,19.87,12.45a63.37,63.37,0,0,1,7.66,7.44l-.09-1.11-2.14,5.91,2.51-1.21-7.35-.64a3.42,3.42,0,0,0-3.19,1.17,6.39,6.39,0,0,0-.56,1l-2,4-1.59,3.14,2-1.21-8.31.45A3.47,3.47,0,0,0,115.8,174a8.16,8.16,0,0,0-.64,1.16l-2.25,4.46-1.77,3.5,2-1.22-9.55,1.2-1.47.18a3.33,3.33,0,0,0-2.68,1.78c-.78,1.49-1.52,3-2.28,4.5L95,193.87l2-1.22-8.11.43c-1.59.08-3.54,0-4.34,1.74-.49,1.06-.85,2.2-1.27,3.29L81.81,202l3.62-.62c.2.29-.19-.33-.23-.42l-.25-.49c-.13-.26-.26-.53-.4-.8-.25-.51-.47-1-.73-1.55-.52-1.13-1-2.27-1.46-3.43A69.53,69.53,0,0,1,80,187.43c-.8-2.93-1.45-5.91-2-8.89a66.3,66.3,0,0,1-1.24-9.31A48.72,48.72,0,0,1,78.1,154.3l.12-.41c-.07.25,0,0,0,0,.07-.27.15-.54.23-.8.15-.48.31-.95.47-1.41.31-.88.65-1.74,1-2.59s.71-1.52,1.11-2.26c.18-.35.37-.68.57-1l.26-.44c0-.07.09-.13.13-.21s-.21.32,0,0a24,24,0,0,1,2.46-3.21,5.56,5.56,0,0,0,.59-.6s-.38.35-.2.19l.16-.15.25-.22a5.46,5.46,0,0,1,.45-.36l.2-.15.1-.07-.16.11c.49-.23.21-.21-.85.07l-.83-.31.07,0a2.48,2.48,0,0,0,2.35,0c.56-.27,1.34-1,1.07-1.71a1.21,1.21,0,0,1-.45,1.13l.2-.15c-.38.27.31-.14.4-.18l.41-.18c.19-.08.61-.12,0,0,.67-.11,1.35-.43,2-.6.42-.1.85-.19,1.28-.27,0,0,.62-.1.22,0l.79-.11a31.08,31.08,0,0,1,3.34-.25c.86,0,2-.65,2.11-1.6S97.06,135.16,96.26,135.18Z"/><path class="cls-2" d="M150.44,174.78l-1.6,2.56-1.09,1.74-.36.58c-.26.42-.17,0,.15-.22l.93-.45c.58-.21,1.36.19.63,0l-.79-.24-2.56-.77-3.69-1.12a2.59,2.59,0,0,0-2.73.73L136.56,181l-1.86,2.29a12.07,12.07,0,0,1-1,1.16l.75-.58.2-.07,1-.07c-1.47-.08-3-.46-4.44-.69l-4.38-.7a2.63,2.63,0,0,0-2.29.84l-4.21,5.23c-.62.77-1.3,1.51-1.86,2.32-.44.62,1.75-.5,1.63-.52a1.32,1.32,0,0,0-.28,0l-1.24-.11-8.23-.73c-1.29-.11-2.67-.38-3.66.74-.54.61-1,1.29-1.55,1.93l-3.11,3.85a26.59,26.59,0,0,1-1.78,2.19l.75-.59.19-.07,1-.07a13,13,0,0,1-1.64-.24l-3.32-.53-4.92-.78a2.55,2.55,0,0,0-2.28.85l-4.44,6.79-.15.23a1.52,1.52,0,0,0-.18,1.51c.13.39.26.78.4,1.16.54,1.53,1.15,3,1.8,4.53a74.18,74.18,0,0,0,3.83,7.74c5.16,9,14.5,15.64,24.31,18.68a36.65,36.65,0,0,0,15.56,1.58,31.35,31.35,0,0,0,3.84-.74c.57-.16,1.13-.33,1.68-.52.37-.12.74-.26,1.1-.4l.45-.17c-.45.17.05,0,.15-.05a33.55,33.55,0,0,0,7.43-3.78c8.38-5.68,13.35-15.18,15-25a44.4,44.4,0,0,0,0-14.64,59.14,59.14,0,0,0-1.73-6.94,76.15,76.15,0,0,0-3-8.26c-.63-1.43-1.33-2.81-2.09-4.17-.46-.85-1.93-.68-2.63-.33a1.49,1.49,0,0,0-.9,2.06,63.1,63.1,0,0,1,5.37,13.87,42.14,42.14,0,0,1,1.63,11.63,44.82,44.82,0,0,1-.47,6.23c-.15,1.06-.34,2.11-.57,3.16s-.47,1.94-.73,2.79a38.45,38.45,0,0,1-2.29,5.84c-.45.92-.94,1.83-1.47,2.71l-.21.34c0,.06-.22.35-.07.12l-.4.61q-.45.66-.93,1.32-.91,1.23-1.95,2.37c-.34.38-.69.75-1.06,1.12l-.23.22c-.37.37.16-.14-.07.08l-.66.6q-1.17,1-2.43,2c-.4.29-.82.57-1.23.84l-.21.13-.22.13c-.24.15-.48.29-.73.42a28,28,0,0,1-2.91,1.43c-.27.12-.53.23-.8.33l-.33.13-.08,0q-.53.18-1,.39c-.48.2.29-.09,0,0l-.45.16a26.26,26.26,0,0,1-3,.82l-.64.12c-.53.11.44-.06-.11,0l-.32.05c-.53.08-1.07.14-1.61.18a29.57,29.57,0,0,1-3.12.11s-.53,0-.25,0h-.25l-.66,0c-.56,0-1.12-.09-1.68-.15-1.09-.13-2.19-.31-3.27-.54l-.75-.16-.28-.07-.28-.07c-.56-.15-1.11-.3-1.67-.47a41.79,41.79,0,0,1-11.87-5.78,38.92,38.92,0,0,1-9.43-9.12,56.22,56.22,0,0,1-6.33-12.28q-.74-1.85-1.35-3.72l-.3,1.13,4.59-7-2.28.84L100,200.1a4.86,4.86,0,0,0,2.18,0,3.93,3.93,0,0,0,1.94-1.49l3.22-4,2.7-3.35-2.29.84,9.46.83,1.57.14a3.54,3.54,0,0,0,3.06-1.21c1.06-1.25,2.06-2.56,3.09-3.83l3-3.67-2.28.85,7.84,1.24a8.26,8.26,0,0,0,1,.14,3.38,3.38,0,0,0,3-1.41l2.78-3.44,2.43-3-2.73.73,6.2,1.88c.36.11.72.23,1.08.33a3.3,3.3,0,0,0,3.58-1c.63-.82,1.12-1.79,1.67-2.66l1.76-2.82c.52-.83-.46-1.6-1.2-1.7A2.53,2.53,0,0,0,150.44,174.78Z"/><path class="cls-2" d="M152.14,176.5a2.18,2.18,0,0,0,2.12-1.6c.1-1-1-1.34-1.81-1.34a2.16,2.16,0,0,0-2.11,1.6c-.1,1,1,1.34,1.8,1.34Z"/><path class="cls-2" d="M272.53,186.05a22.68,22.68,0,0,0-4,7.72,33.82,33.82,0,0,0-1.68,11.77,27.2,27.2,0,0,0,1.3,7.32l.6-.65a24.1,24.1,0,0,1-4.12,1.4l-.43.11c-.42.1-.22,0-.13,0-.38.05-.77.06-1.15.1-.8.09-1.6.21-2.4.37a9.71,9.71,0,0,0-2.44.68c-1,.5.94-.28.32-.14-.18,0-.36.11-.54.16-.41.14-.83.27-1.24.43a18.33,18.33,0,0,0-3.75,1.83,19.59,19.59,0,0,0-4.42,4.25,36.76,36.76,0,0,0-3.63,5.52,17.18,17.18,0,0,0-2.09,5.34c0,.21.05.28.25.36a5.14,5.14,0,0,0,1.18.23l2.24.35,4.92.76a12.34,12.34,0,0,0,2.19.06l5.16-.12,3.82-.09-.75-.13,5.87,5.37c.13.12.26.26.4.37s.07.07,0,0c.12.22.22.44.33.66l1.7,3.4,4.45,8.88c.33.65.62,1.35,1,2a24.16,24.16,0,0,0,1.9,2.38c.89,1.12,1.77,2.26,2.69,3.36.14.17.05.11,0,0,0,.12.09.24.14.36l.58,1.57,1.79,4.79.75,2a5.26,5.26,0,0,1,.36,1,2.68,2.68,0,0,1-.05.63l-.19,2-.47,5.07-.15,1.6a2.48,2.48,0,0,1,0,.27c.07-.33-.07.11-.09.19l-1.43,4.33c-.14.39-.42.85-.14,1.23s1.31.58,1.86.76l2.16.66a21.73,21.73,0,0,0,3.38.76,9,9,0,0,0,3.22-.29,27.33,27.33,0,0,0,12.77-6.83c.56-.53,1.09-1.08,1.63-1.63l-1.57.68a42.12,42.12,0,0,0,5.84-1.42,25.11,25.11,0,0,0,6.77-3.53,22.89,22.89,0,0,0,3.44-2.92,7.26,7.26,0,0,0,1.24-2.07,36.92,36.92,0,0,0,1.24-3.53c.24-.76.5-1.52.69-2.29a.66.66,0,0,0-.38-.88,12.32,12.32,0,0,0-1.5-.43l-2.43-.69a6.59,6.59,0,0,0-1.5-.43s.25.14,0,0-.33-.19-.5-.28l-4.05-2.31-2.09-1.19a14.41,14.41,0,0,0-1.32-.75c-.05,0-.35-.22-.09,0a.86.86,0,0,1-.15-.22L309,255.1l-2.84-4.18c-.63-.93-1.39-1.85-1.93-2.84a14,14,0,0,1-.78-2.56,28.29,28.29,0,0,0-1.86-5.55l-4.35-8.1-2.11-3.93a12.14,12.14,0,0,1-.93-1.74,4.43,4.43,0,0,1-.11-.9l-.28-2.14-.61-4.71-.12-.9-.12.32,4.93-7a13.19,13.19,0,0,0,1.27-1.88l2-4.16,1.19-2.48a7.14,7.14,0,0,0,.53-1.16.23.23,0,0,0-.07-.28,12.78,12.78,0,0,0-4.66-1.31,36.38,36.38,0,0,0-6.76-.3,26.46,26.46,0,0,0-6.85,1.13,19.66,19.66,0,0,0-6.74,4,20,20,0,0,0-1.79,1.78c-.56.62-1,1.32-1.64,1.89a27.36,27.36,0,0,1-3.94,3.09L273,211a24.15,24.15,0,0,1,2.15-20.85,21.06,21.06,0,0,1,2.08-2.7c.1-.12.2-.32,0-.44l-2.09-1.52c-.48-.35-1.38-.07-1.88.12-.19.07-1.29.58-.83.91l2.08,1.51,0-.44a23.24,23.24,0,0,0-4.12,6.45,24.36,24.36,0,0,0-1.73,10.78,25.43,25.43,0,0,0,1.37,7c.12.34.78.27,1,.24a3.54,3.54,0,0,0,1.55-.53A30.14,30.14,0,0,0,276,209a11.92,11.92,0,0,0,1.46-1.38c.47-.56.91-1.14,1.41-1.68s.92-1,1.41-1.39-.49.3.28-.23c.34-.23.65-.53,1-.77.54-.41,1.11-.8,1.69-1.16.26-.16.53-.31.8-.46l.28-.14.17-.08c-.12.05-.13.06,0,0a5.37,5.37,0,0,1,.56-.21s.41-.14.2-.08l.21-.06.56-.15.36-.08c.11,0,.1,0,0,0l.22,0a22.83,22.83,0,0,1,2.9-.38,33.32,33.32,0,0,1,6,.14,12.5,12.5,0,0,1,4.67,1.16l-.08-.28a4.92,4.92,0,0,1-.42.94l-1,2.15-2.15,4.47a2.39,2.39,0,0,0-.2.43c0,.14.18-.24,0,0l-.86,1.21-3.05,4.3c-.65.92-1.43,1.82-2,2.8a1.57,1.57,0,0,0,0,1.07l.3,2.3.65,5a3.46,3.46,0,0,0,.5,1.41l4.66,8.67,2.18,4.06a8.2,8.2,0,0,1,.71,1.46l1.36,4.61a8.63,8.63,0,0,0,.82,2.45l5.22,7.71a4.94,4.94,0,0,0,.51.75,5.81,5.81,0,0,0,.94.53l4.57,2.6,2,1.14a8.26,8.26,0,0,0,.92.51c1.31.51,2.76.79,4.11,1.18l1.37.39-.27-.21c.22.36,0,.76-.13,1.15s-.31,1.06-.48,1.59c-.27.87-.55,1.74-.88,2.6a7.64,7.64,0,0,1-2,3.19,24.66,24.66,0,0,1-4.88,3.55,20.33,20.33,0,0,1-2.08,1,14.76,14.76,0,0,1-1.85.61l-1,.26-.44.1c-.07,0-.29.06,0,0l-.24.05c-.57.12-1.15.22-1.72.33a3.39,3.39,0,0,0-1.78.81l-.56.57c-.4.4-.8.81-1.22,1.2a21.43,21.43,0,0,1-7.33,4.56c-1.07.39-2.17.61-3.26.94,0,0,.23,0,.09,0H291c.18,0,.08,0,0,0a8.69,8.69,0,0,1-1-.12,44.9,44.9,0,0,1-6.11-1.77l.27.21c0-.08-.18-.41-.17-.16a.39.39,0,0,1,.05-.14c.1-.27.18-.55.27-.83l.85-2.56a11.48,11.48,0,0,0,.7-2.63l.46-4.86.24-2.58a12.51,12.51,0,0,0,.14-1.49,1.76,1.76,0,0,0-.16-.54l-.67-1.81-1.92-5.13-.7-1.86a2.72,2.72,0,0,0-.31-.67c-.87-1.18-1.84-2.29-2.75-3.44l-1.45-1.81c-.11-.13-.22-.26-.32-.4s.09.21,0,0a25.38,25.38,0,0,0-1.33-2.66l-4.78-9.55c-.43-.86-.82-1.76-1.3-2.59a2,2,0,0,0-.44-.48l-1.53-1.4-3.86-3.53c-.33-.31-.63-.7-1.11-.75a11.64,11.64,0,0,0-1.18,0c-3.07.08-6.14.11-9.22.22-.33,0,.1,0,.14,0s-.34-.05-.43-.06l-2.07-.32-5.1-.79-.7-.1c-.42-.07.15.05-.12-.06l.26.37a20.33,20.33,0,0,1,3.13-7.15,24.13,24.13,0,0,1,5.93-7,10.28,10.28,0,0,1,2.12-1.18c.51-.23,1-.42,1.55-.6a6.52,6.52,0,0,0,1.72-.66l-1,.43c1.85-.51,3.77-.52,5.63-1a34.72,34.72,0,0,0,5.76-2c.17-.08.68-.37.59-.65A30.79,30.79,0,0,1,273,189.36a16.52,16.52,0,0,1,2.19-3.45c.42-.5-.38-.6-.71-.58A3,3,0,0,0,272.53,186.05Z"/><path class="cls-2" d="M295,208.25l-4.35,6.25-2,2.89a.86.86,0,0,0-.2.63c0,.46.12.93.18,1.4l.62,4.86.28,2.15a7.78,7.78,0,0,0,.14,1.08,8.52,8.52,0,0,0,.74,1.4l2,3.74,4.46,8.32a14.66,14.66,0,0,1,.78,1.46,36.35,36.35,0,0,1,1.05,3.56l.69,2.33a9.08,9.08,0,0,0,.36,1.23,13.78,13.78,0,0,0,1.3,1.92c1.6,2.37,3.2,4.75,4.82,7.12a4.46,4.46,0,0,0,1.6,1.07l4.28,2.42c1,.58,2,1.18,3,1.73a3.79,3.79,0,0,0,.88.29l2.33.61,1.42.37-.14-.53-2.45,2.55,2.5-.67-2.86-.71a7.83,7.83,0,0,0-1.16-.28,3.07,3.07,0,0,0-2.41.88c-1.35,1.34-2.67,2.71-4,4.06l2.5-.67-2.74-1.17a2.83,2.83,0,0,0-2.5.67l-4.76,5.2,1.57-.68-6.94,1c-.4.06-1.58.32-1.68.84l-.56,2.95,1.69-.84-5.59,1c-.66.13-1.56.26-1.92.89a8.69,8.69,0,0,0-.37,1l-1,2.68,1.29-.76-3.7.9,1.58.29,1.39-3.6a5.65,5.65,0,0,0,.41-1.15c0-.31.05-.62.08-.93l.8-8.73a2.89,2.89,0,0,0-.31-1.48l-1.59-4.25-1.6-4.24a4.64,4.64,0,0,0-.79-1.51l-2.89-3.63-1.2-1.49c-.07-.09-.15-.18-.22-.28.16.22.07.1,0,0-.31-.81-.79-1.58-1.17-2.36L276.6,246l-3.9-7.8a3.31,3.31,0,0,0-.75-1.1l-3.06-2.82-3.24-3c-.3-.28-.51-.55-.94-.6a8.81,8.81,0,0,0-1,0l-8.81.23-.75,0,.71.58c.75-.76,1.47-1.53,2.28-2.22l3.11-2.65-2.25.72,5.93.8a3.16,3.16,0,0,0,3-.89l2.05-2.63,1.78-2.29-2.24.72,6.76.77c.7.08,2-.19,2.36-.88l3.17-6.1-2,.88,6-.37a5.56,5.56,0,0,0,1.61-.28,1.76,1.76,0,0,0,1.09-1l1.53-3.07,1.27-2.54-.92.63,7.46-2.58c.3-.1,1.2-.49.84-.92s-1.52,0-1.88.12l-6.18,2.14c-.72.25-1.85.47-2.24,1.17-.53,1-1,2-1.47,2.95L284.41,217l2-.88-6,.37a4.83,4.83,0,0,0-1.91.42,1.69,1.69,0,0,0-.79.9l-1.64,3.14-1.33,2.56,2.36-.88-6.05-.69a3.32,3.32,0,0,0-3.11.82c-.71.86-1.37,1.76-2.06,2.64l-1.82,2.34,2.24-.72-6.16-.82a3.35,3.35,0,0,0-2.39.5c-.3.22-.58.49-.87.73l-2.77,2.37a27.18,27.18,0,0,0-1.94,1.93c-.48.49.42.59.71.58l10.27-.27-.75-.14,4.69,4.33c.76.69,1.49,1.41,2.27,2.08l.17.16c-.11-.1-.1-.16-.05-.05s.2.41.3.61l6.57,13.13c.21.41.39.85.63,1.25a20,20,0,0,0,1.58,2l2.52,3.17a9.34,9.34,0,0,1,.63.78c-.17-.26,0,.16.07.28l2.61,7,1.06,2.81a2.57,2.57,0,0,1,0,1.17l-.71,7.83-.11,1.18c0,.08,0,.16,0,.23.05-.22,0-.08-.06,0-.52,1.11-.9,2.33-1.35,3.48l-.36.94c-.25.65,1.42.33,1.57.29l2.09-.51a6.5,6.5,0,0,0,2.7-.9,5.14,5.14,0,0,0,.84-2l.72-2-1.68.84,5.82-1.07c.4-.08,1.58-.32,1.68-.85l.56-2.95-1.68.85,6.21-.93a4.05,4.05,0,0,0,2.55-1.07l2.46-2.68,2-2.24-2.5.67,2.74,1.17a2.83,2.83,0,0,0,2.5-.67l4.16-4.22-2.5.67,3.77.94a3,3,0,0,0,2.51-.67l2.44-2.55c.2-.21.15-.45-.14-.53l-3.05-.8a6.7,6.7,0,0,0-1.3-.33c.09,0,.24.13.08,0l-.33-.19-6.6-3.74-1.29-.72a1.88,1.88,0,0,0-.36-.21s-.27-.13-.11,0,0,0,0-.05a4,4,0,0,0-.23-.34l-.78-1.15-4.45-6.57a5.69,5.69,0,0,1-.71-1.14c-.37-1-.63-2.13-.94-3.19a23.27,23.27,0,0,0-1.41-4.35l-6.9-12.86a10.06,10.06,0,0,1-.77-1.45,8.09,8.09,0,0,1-.22-1.63l-1-7.54-.07-.54-.12.32,5.66-8.14.81-1.15c.35-.51-.32-.6-.72-.58A2.84,2.84,0,0,0,295,208.25Z"/><path class="cls-2" d="M289.17,238.19a12.58,12.58,0,0,0,6.22,12.15,2.1,2.1,0,0,0,1.5,0c.32-.08,1.25-.34,1.29-.76A12.58,12.58,0,0,0,292,237.44a2.46,2.46,0,0,0-1.88.11c-.15.06-1.34.65-.84.92a12.14,12.14,0,0,1,6.06,11.59l2.8-.74a12.16,12.16,0,0,1-6.07-11.6c.07-.55-.85-.43-1.18-.37S289.23,237.68,289.17,238.19Z"/><path class="cls-2" d="M278.54,243.86A12.54,12.54,0,0,0,284.75,256a2.21,2.21,0,0,0,1.5,0c.32-.09,1.25-.35,1.29-.76a12.65,12.65,0,0,0-6.21-12.15,2.42,2.42,0,0,0-1.88.11c-.15.06-1.33.64-.84.92a12.23,12.23,0,0,1,6.07,11.59l2.79-.75a12.1,12.1,0,0,1-6.07-11.59c.06-.55-.85-.43-1.18-.38S278.59,243.34,278.54,243.86Z"/><path class="cls-2" d="M162.36,260.76A115.43,115.43,0,0,0,146.17,262c-4.73.66-9.44,1.41-14.09,2.49a60.84,60.84,0,0,0-10.32,3.23,25.4,25.4,0,0,0-7.21,4.36,11.45,11.45,0,0,0-3.41,5.23,12.52,12.52,0,0,0,0,6.43,28.44,28.44,0,0,0,3.36,7.71,75.76,75.76,0,0,0,6.62,9.23c3.15,3.86,6.53,7.55,10,11.12a102.51,102.51,0,0,0,10.35,9.41c4.77,3.7,10.6,7.33,16.9,6.92a16.19,16.19,0,0,0,8-2.77,23.82,23.82,0,0,0,6.13-6.41,59.89,59.89,0,0,0,5.51-10.37,129,129,0,0,0,5.16-14.43A67.78,67.78,0,0,0,186,281a23.57,23.57,0,0,0-.86-9.67,13.37,13.37,0,0,0-4.65-6.4,22.41,22.41,0,0,0-9.91-3.63,54.58,54.58,0,0,0-8.18-.55,2.82,2.82,0,0,0-1.93.72c-.41.52.37.58.71.58,6.69,0,15.37.79,19.51,6.9,3.68,5.46,2.73,12.93,1.45,19a108.9,108.9,0,0,1-4.2,14.26,95.8,95.8,0,0,1-5.19,12.21,37.29,37.29,0,0,1-5.45,8.09,16.82,16.82,0,0,1-2.88,2.55l-.71.47c-.24.15.1,0-.2.11-.14.08-.28.16-.43.23l-.38.2c-.09,0-.52.22-.15.07l-.84.32c-.34.12.3-.08-.11,0l-.36.1-.45.11c.39-.09,0,0-.16,0l-.37.06-.23,0h.08l-.9.06h-.64c-.31,0-.62,0-.93-.07a12.52,12.52,0,0,1-1.71-.31,26.65,26.65,0,0,1-8-3.67,70.3,70.3,0,0,1-9.46-7.58c-3.65-3.39-7.1-7-10.42-10.72a113.86,113.86,0,0,1-7.92-9.75,45.49,45.49,0,0,1-4.8-8.19c-1.7-3.93-2.56-8.48-.14-12.3a12.29,12.29,0,0,1,1.89-2.2c.11-.11.22-.2.34-.3l.13-.12c-.13.11,0,0,0,0,.24-.2.49-.39.74-.58.48-.35,1-.68,1.49-1,.2-.12,0,0,0,0l.22-.13.42-.24c.31-.17.61-.33.92-.48s.58-.29.88-.42l.48-.22c.21-.1-.31.13,0,0l.33-.15c.7-.29,1.4-.56,2.12-.82l1.13-.39.27-.09.73-.23a92,92,0,0,1,11.4-2.59c5.08-.88,10.22-1.59,15.36-2,2.35-.17,4.7-.27,7-.26a2.71,2.71,0,0,0,1.93-.72C163.49,260.83,162.71,260.77,162.36,260.76Z"/><path class="cls-2" d="M190.65,271.92l-2.07,5.91L183.66,292,177.71,309l-5.17,14.83-1.71,4.89a17.4,17.4,0,0,0-.8,2.3.3.3,0,0,1,0,.1c-.06.2.09.32.26.37,1.59.51,3.19,1,4.79,1.44.64.18,2.35-.07,2.62-.83l3.16-9.11,5-14.44,1.16-3.35-2.61.84,7.33,2.48-.25-.37-3.11,8.94-4.93,14.19-1.15,3.3c-.06.18.08.32.26.36,1.62.41,3.25.78,4.88,1.14.66.15,2.35-.05,2.62-.83l3.05-8.78,4.86-14,1.11-3.2-2.61.83,7.33,2.52-.25-.37-2.95,8.48-4.7,13.51-1.07,3.1c-.07.18.08.32.25.36,1.65.34,3.31.65,5,1,.66.13,2.34,0,2.61-.83l2.86-8.24,4.58-13.2,1.05-3-2.61.83,7.33,2.48-.25-.36-7.09,20.42-1,2.88a.29.29,0,0,0,.26.37c1.74.32,3.49.61,5.24.89.6.09,2.12-.2,2.36-.88l6.86-19.75,1-2.79-2.61.84,7.34,2.51-.25-.36-6.49,18.6-.91,2.62c-.12.32.3.37.5.41,1.68.28,3.37.51,5.05.74.6.08,2.12-.19,2.36-.88l6.2-17.83.87-2.53-2.61.84L240,325l-.25-.37L234,341.19l-.82,2.38c-.11.32.29.38.51.41,1.68.23,3.37.44,5.05.64.61.08,2.12-.18,2.36-.88L246.52,328l.77-2.23-2.61.83,7.33,2.52-.25-.37-5,14.37-.72,2.06c-.11.32.3.39.51.41,1.7.2,3.39.4,5.09.57.61.06,2.12-.18,2.36-.88l4.68-13.47.67-1.92-2.61.83,7.33,2.48-.25-.36-4.13,11.89-.6,1.72c-.11.31.3.39.51.41,1.72.17,3.44.27,5.16.37.61,0,2.11-.16,2.36-.88l3.75-10.81.54-1.56-2.61.84,7.33,2.48-.25-.37-3.57,10.26c-.11.3.29.41.51.41,1.88,0,3.75,0,5.63,0,.51,0,1.84-.27,2.05-.88l3-8.62-2.61.83,2.77,1-.25-.37c-1.33,5.44-.44,11.26,1.57,16.41a31,31,0,0,0,9.36,13,19.66,19.66,0,0,0,6.84,3.61c.68.19,2.29-.08,2.61-.83a23.16,23.16,0,0,0,1-13.36,33.33,33.33,0,0,0-6.14-13.65,27.4,27.4,0,0,0-5.5-5.52l-2.28,1.16a33.2,33.2,0,0,0,16.12-3.61,31,31,0,0,0,11.25-9.19,19.71,19.71,0,0,0,3.17-6.39c.06-.22-.08-.29-.26-.37-5-2.35-11.2-1.85-16.4-.41A34.74,34.74,0,0,0,289.54,329a23.81,23.81,0,0,0-4.88,6.84l2.62-.83-2.74-1,.25.36,2.35-6.7a.23.23,0,0,0-.08-.28c-1.35-1.15-2.71-2.29-4.09-3.39-.57-.46-2.55,0-2.8.75L277.26,333l2.62-.83-7.27-2.75.25.36,3.67-10.46a.23.23,0,0,0-.07-.28q-2.13-1.51-4.27-3c-.59-.42-2.54,0-2.79.75l-4.06,11.73,2.61-.83L260.68,325l.25.37,4.14-11.83.59-1.68a.22.22,0,0,0-.07-.28c-1.43-1-2.88-1.9-4.33-2.82-.62-.39-2.53,0-2.8.75L254,322.2l-.63,1.82,2.61-.83-7.26-2.72.25.37,4.92-14.11.7-2a.21.21,0,0,0-.08-.27c-1.45-.91-2.88-1.84-4.33-2.76-.61-.39-2.53,0-2.79.75l-5.2,14.93-.75,2.14,2.62-.83L236.83,316l.26.36,5.63-16.14.81-2.33a.23.23,0,0,0-.07-.28c-1.45-.9-2.9-1.79-4.37-2.65-.63-.38-2.52,0-2.79.75l-5.9,16.92-.84,2.42,2.61-.83-7.26-2.71.25.36,6.3-18.08.9-2.58a.22.22,0,0,0-.08-.28c-1.45-.85-2.91-1.7-4.39-2.51-.63-.36-2.52,0-2.79.74l-6.53,18.71-.94,2.69,2.62-.83L213,307l.25.36,6.86-19.79,1-2.77a.22.22,0,0,0-.07-.28c-1.47-.8-3-1.6-4.42-2.38-.65-.34-2.52-.05-2.8.75l-7.07,20.25-1,2.92,2.61-.84-7.24-2.71.26.36,2.82-8.11,4.5-13,1-3a.22.22,0,0,0-.07-.28c-1.56-.79-3.14-1.56-4.72-2.31-.58-.27-2.37.15-2.61.84l-2.87,8.28-4.59,13.22-1.06,3,2.62-.83L189.16,298l.25.37,2.94-8.45L197,276.45l1.08-3.1c.07-.21-.1-.29-.26-.36-1.51-.68-3-1.29-4.59-1.91a2.85,2.85,0,0,0-2,.34c-.34.18-.93.62-.33.86,1.54.62,3.08,1.23,4.59,1.91l-.25-.37-2.94,8.44-4.68,13.47-1.08,3.11c-.07.2.09.3.26.36L194,302c.61.23,2.36-.11,2.61-.84l2.87-8.28,4.59-13.21,1.06-3.06-2.62.84c1.46.69,2.92,1.39,4.36,2.12l-.08-.28L204,287.37l-4.5,13-1,3c-.07.21.09.31.25.37l7.24,2.71c.62.23,2.36-.11,2.62-.83l7.07-20.26,1-2.91-2.79.75,4.42,2.37-.08-.27-6.86,19.79-1,2.77c-.07.21.09.31.26.37l7.23,2.72c.61.23,2.36-.11,2.61-.83L227,291.36l.94-2.69-2.8.75c1.48.82,2.94,1.67,4.39,2.52l-.07-.28-6.3,18.09-.9,2.57c-.07.2.09.31.26.37l7.26,2.71c.62.23,2.36-.11,2.62-.84l5.89-16.92.85-2.42-2.8.74c1.47.87,2.92,1.76,4.37,2.66l-.08-.28L235,314.48l-.81,2.33c-.07.2.09.31.25.37l7.27,2.72c.61.23,2.36-.11,2.61-.84l5.2-14.93.75-2.14-2.8.75c1.45.91,2.88,1.84,4.33,2.75l-.07-.28-4.92,14.11-.7,2c-.07.2.09.3.26.36l7.26,2.72c.62.23,2.36-.11,2.62-.84l4.42-12.73.63-1.82-2.79.75c1.46.92,2.9,1.85,4.33,2.82l-.08-.28-4.13,11.83-.59,1.68c-.07.2.09.3.25.36l7.27,2.72c.62.23,2.37-.11,2.62-.84l4.06-11.73-2.8.75q2.14,1.49,4.27,3l-.08-.28L270,330.26c-.07.21.09.31.25.37l7.28,2.75c.61.23,2.36-.11,2.61-.84l2.91-8.35-2.79.75c1.38,1.1,2.74,2.24,4.09,3.39l-.07-.28-2.35,6.7c-.07.21.09.31.26.37l2.74,1c.67.25,2.29-.13,2.61-.84a25,25,0,0,1,9.21-10.18,27.55,27.55,0,0,1,14.17-4.67,17.26,17.26,0,0,1,7.8,1.47l-.25-.36c-2.2,8.18-10.26,14.26-18.11,16.48a24.25,24.25,0,0,1-7.71.95,3.67,3.67,0,0,0-1.78.38c-.19.1-.86.51-.51.78a31.13,31.13,0,0,1,12,24.84,19.21,19.21,0,0,1-1.46,7.13l2.62-.84c-4.53-1.27-8.3-4.53-11.14-8.19a32.37,32.37,0,0,1-6.45-15.28,23.38,23.38,0,0,1,.33-8.82c.05-.2-.07-.3-.26-.36l-2.77-.95c-.62-.21-2.36.1-2.61.84l-3,8.62,2-.89c-1.67,0-3.33.07-5,0l.51.41,3.57-10.26c.06-.19-.09-.31-.26-.36l-7.33-2.48c-.63-.21-2.36.09-2.62.83l-3.75,10.82-.54,1.55,2.36-.88c-1.72-.1-3.44-.2-5.16-.37l.51.41,4.13-11.89.6-1.72c.06-.2-.09-.31-.26-.37l-7.33-2.48c-.63-.21-2.36.1-2.62.84l-4.68,13.46-.67,1.93,2.36-.88c-1.7-.17-3.39-.37-5.09-.57l.51.41,5-14.36.72-2.07c.07-.2-.09-.31-.26-.36L247,325.4c-.63-.21-2.36.1-2.62.84L239,342l-.78,2.23,2.36-.88c-1.68-.2-3.37-.41-5-.64l.5.41,5.75-16.57.83-2.38c.06-.19-.09-.31-.26-.36L235,321.31c-.63-.21-2.36.09-2.62.83L226.17,340l-.88,2.53,2.36-.88c-1.68-.23-3.37-.47-5-.74l.5.41,6.49-18.61.91-2.61c.07-.2-.08-.31-.25-.37l-7.34-2.51c-.63-.22-2.36.09-2.62.83l-6.85,19.75-1,2.79,2.36-.88c-1.58-.25-3.16-.51-4.73-.8l.25.37,7.09-20.42,1-2.89c.07-.2-.08-.31-.25-.37l-7.33-2.48c-.63-.21-2.36.1-2.62.84l-2.86,8.23-4.58,13.2-1.05,3,2.62-.84c-1.65-.32-3.31-.63-5-1l.26.37,2.94-8.49,4.7-13.51,1.07-3.09c.07-.2-.08-.31-.25-.36L198.81,309c-.63-.21-2.36.1-2.62.84l-3.05,8.77-4.86,14-1.11,3.2,2.61-.84c-1.63-.36-3.26-.73-4.88-1.14l.25.37,3.11-8.94L193.19,311l1.14-3.3c.07-.19-.08-.31-.25-.36l-7.33-2.48c-.63-.22-2.36.09-2.62.83L181,314.82l-5,14.44-1.16,3.35,2.61-.84c-1.6-.46-3.2-.93-4.79-1.44l.25.36,2.06-5.91,4.93-14.12,6-17.09L191,278.74l1.7-4.88a19.8,19.8,0,0,0,.81-2.31l0-.1C193.75,270.78,190.93,271.11,190.65,271.92Z"/><path class="cls-2" d="M157.35,274.81a5.47,5.47,0,0,1,4.9,3.93,5.76,5.76,0,0,1-1.58,6,3.28,3.28,0,0,1-.53.39l-.12.08s-.42.21-.21.12l-.29.11c.28-.1-.18.05-.2.05s.25,0,0,0a1.41,1.41,0,0,1-.33,0,4.9,4.9,0,0,1-2.79-.85,5.88,5.88,0,0,1-2.54-5.49,5.71,5.71,0,0,1,1.55-3.33,5.11,5.11,0,0,1,1.15-.84l.26-.1c-.19.06.5-.11.18-.05a2.06,2.06,0,0,1,.6-.05,3.43,3.43,0,0,0,2.05-.55c.43-.31.41-.73-.2-.74-3.09-.09-6.44,1.27-7.87,4.16a6.37,6.37,0,0,0,1.31,7.38c2.22,2.12,5.65,2.15,8.35,1a6.85,6.85,0,0,0,4.42-6.56,6.38,6.38,0,0,0-6.21-6,3.46,3.46,0,0,0-2,.54C156.73,274.37,156.74,274.79,157.35,274.81Z"/></svg>