<svg id="Layer_1" data-name="Layer 1" xmlns="http://www.w3.org/2000/svg" viewBox="0 0 442.87 442.87"><defs><style>.cls-1{fill:#263a29;}.cls-2,.cls-3{fill:#fff;}.cls-3,.cls-4{stroke:#fff;}.cls-3{stroke-miterlimit:10;stroke-width:2.5px;}.cls-4{fill:none;stroke-linecap:round;stroke-linejoin:round;stroke-width:3px;}</style></defs><circle class="cls-1" cx="218.87" cy="221.84" r="220.02"/><path class="cls-2" d="M333.41,245.66c3.86,0,6.28,2,7.08,5.69s.37,7.92.37,11.75c0,2.43,0,4.85,0,7.28a4.84,4.84,0,0,0,2.94,4.46c4.19,2.26,9.48,2.58,14.15,2.6,5.63,0,11.25,0,16.88,0l-2.25-1.63a17.7,17.7,0,0,1-1.28,7.34,16,16,0,0,1-5.16,6.43,16.29,16.29,0,0,1-7.77,3.08,43.22,43.22,0,0,1-4.83.13h-6.29c-.64,0-1.27,0-1.91,0H324.58l2.25,1.63c0-5.52,0-11.05,0-16.57-.08-11.13-9.1-19.75-19.87-21.12a47.52,47.52,0,0,0-5.85-.19h-46l2.24,1.62V243.68l-2.65,2h78.75c1.06,0,2.54-.83,2.65-2s-1.27-1.63-2.24-1.63H255.07c-1,0-2.65.83-2.65,2v14.48c0,1.26,1.16,1.63,2.24,1.63h34.51c4.59,0,9.18,0,13.77,0,9.28.07,17.79,6.95,18.9,16.32a81.72,81.72,0,0,1,.09,9.26v9c0,1.26,1.17,1.63,2.24,1.63,6.66,0,13.33.12,20,0h.3c-.74,0,.11,0,.37,0h8.31a38.38,38.38,0,0,0,5.36-.2,24.33,24.33,0,0,0,9.77-3.6,20,20,0,0,0,9.22-17.14c0-1.25-1.16-1.62-2.24-1.62H360c-4.07,0-9,0-12.71-1.94a4.79,4.79,0,0,1-1-.64c-.48-.43.17.21-.23-.25,0,0-.33-.52-.19-.22a1.25,1.25,0,0,1-.15-.76c0-.65,0-1.3,0-1.95v-8.21c0-3.52.35-7.27-.65-10.69a9.47,9.47,0,0,0-3.31-5c-2.28-1.73-5.2-2.11-8-2.14-1.06,0-2.55.83-2.66,2S332.43,245.65,333.41,245.66Z"/><path class="cls-2" d="M345.85,270.08c0-4.31,0-8.63,0-12.95,0-2.9,0-6.07-1.54-8.64-3.21-5.4-10.69-4.51-16.11-4.51H254.85l2.51,1.05V165.24a9.35,9.35,0,0,1,2.14-6.55,8.87,8.87,0,0,1,6.56-3c6.73-.06,13.45,0,20.18,0h42.22c3.19,0,6.12.23,9.06,1.88a10.4,10.4,0,0,1,5.33,7c.39,1.91.75,3.83,1.13,5.74.63,3.27,1.17,6.57,2,9.81,1.63,6.73,3.36,13.43,4.82,20.19l6.06,28,.5,2.31c.12.56.74.82,1.25.91a17.69,17.69,0,0,1,12.1,8.31c1.95,3.4,1.93,6.95,1.93,10.73l3.75-1c-3.81-1.13-8.72-.47-11.37,2.74-1.62,2-1.38,4.32-1.38,6.68s-.24,4.74,1.39,6.68c2.7,3.21,7.57,3.76,11.39,2.62l-3.78-.88V275l2.48-1.13c-5.72,0-11.45,0-17.18,0a35.16,35.16,0,0,1-7.86-.89c-1.43-.35-4.1-1-4.19-2.85-.06-1.54-5.06-1.43-5,.08.11,2.52,3.22,3.64,5.22,4.27a38,38,0,0,0,9.65,1.49c6.44.3,12.94.07,19.39.07.62,0,2.48-.18,2.48-1.12v-7.56c0-1.33-3.07-1.09-3.78-.87-2.13.63-4.26-1.06-5-3.06-.49-1.35-.25-3.08-.25-4.49s-.24-3.14.25-4.49a4.22,4.22,0,0,1,5-2.94c.75.22,3.75.33,3.75-1s.06-2.92,0-4.37a15.85,15.85,0,0,0-2.43-7.49c-3.08-4.9-8.48-7.94-14.07-9l1.25.92L357,205.79c-1.49-6.91-3.11-13.78-4.78-20.65-.72-3-1.44-5.89-2-8.88-.82-4.19-1.39-8.53-2.5-12.66-2-7.31-10.48-10.07-17.27-10.12H267.86c-4.19,0-8.45.47-11.79,3.31a10.09,10.09,0,0,0-3.71,7.74c0,2.13,0,4.26,0,6.39v74.19c0,.95,2,1,2.52,1h76.88c2.34,0,4.77-.1,6.62,1.57,2.36,2.12,2.51,5.71,2.5,8.65,0,4.6,0,9.2,0,13.79C340.86,271.67,345.85,271.64,345.85,270.08Z"/><path class="cls-2" d="M62.29,288.68A24.32,24.32,0,0,0,77.52,312.2a26.61,26.61,0,0,0,28.9-6.59A24.32,24.32,0,0,0,110,277.54c-5-9.13-15.69-13.89-25.85-12.24-11.66,1.88-21.19,11.36-21.83,23.38-.13,2.28,4.76,1.46,4.86-.47C67.6,279.7,73,271.57,81.31,269s17.32.9,22.45,7.78a22.05,22.05,0,0,1,.8,24.95,19.61,19.61,0,0,1-21.49,8.36,22,22,0,0,1-15.92-21.91C67.24,285.91,62.36,286.74,62.29,288.68Z"/><circle class="cls-3" cx="87.61" cy="289.49" r="10.51" transform="translate(-52.06 21.21) rotate(-10.67)"/><path class="cls-2" d="M289.57,313.85c10.58-.34,20.41-6.46,24.23-16.54a23.86,23.86,0,0,0-7.54-26.87c-8.48-6.63-20.45-6.9-29.6-1.43a24.59,24.59,0,0,0-11.58,25.78c2.36,11.41,13,19.24,24.49,19.06,1.06,0,2.61-.32,3.18-1.36s-.45-1.56-1.35-1.55a21.68,21.68,0,0,1-20.33-13.59,22.08,22.08,0,0,1,5.16-24.13,19.52,19.52,0,0,1,23.17-2.41,22.25,22.25,0,0,1,10.78,22.37c-1.4,9.32-9.06,17.46-18.78,17.76-1.06,0-2.61.31-3.18,1.35S288.67,313.87,289.57,313.85Z"/><circle class="cls-3" cx="289.94" cy="289.49" r="10.51" transform="translate(-119.58 302.27) rotate(-46.74)"/><path class="cls-2" d="M113.17,283.73h123.4c5.67,0,11.38.23,17.05,0h.23c1,0,2.64-.86,2.64-2V153.2a11.37,11.37,0,0,0-3.3-8.3c-2.52-2.5-5.8-3.35-9.25-3.35H66a13.13,13.13,0,0,0-10,4.36c-3.53,4.05-2.76,9.55-2.76,14.51V282c0,1.28,1.15,1.74,2.27,1.74h6.76c1.09,0,2.54-.85,2.63-2S63.57,280,62.54,280H55.78l2.28,1.74V154c0-2.32.28-4.46,1.83-6.31,2.52-3,6.86-2.31,10.38-2.31H243.51a7.78,7.78,0,0,1,6.57,3.25,9.82,9.82,0,0,1,1.49,6V282l2.64-2H130.81c-5.67,0-11.38-.22-17,0h-.23c-1.09,0-2.54.86-2.63,2s1.24,1.74,2.27,1.74Z"/><path class="cls-3" d="M345.45,209.8v8.6c0,4.73-3.51,8.61-7.8,8.61a7.18,7.18,0,0,1-2.66-.55V201.74a7.18,7.18,0,0,1,2.66-.55C341.94,201.19,345.45,205.06,345.45,209.8Z"/><path class="cls-2" d="M335.75,196c-1.07-5.69-2.15-11.38-3.16-17.09-.62-3.54-1.62-7.13-4.07-9.88-4.41-4.94-11.2-4.47-17.21-4.36-7.67.13-15.35.27-23,.36-3.14,0-6.29,0-9.44.07-3.55,0-9.35.47-9.69,5.08-.27,3.79,0,7.68,0,11.48V199c0,4.48,0,8.95-.11,13.43-.08,3.19-.61,9,3.89,9.17,5.45.16,10.92,0,16.37,0h34.44c3,0,6,.22,8.93-.55s6.19-2.67,6.58-5.86a7.17,7.17,0,0,0-.3-2.2q-.66-3.54-1.33-7.06L335.75,196c-.28-1.49-5.13-.34-4.83,1.29L334.07,214c.1.54.16,1.12.31,1.65s.09-.11.05.09a4.06,4.06,0,0,1-.85,2,3.67,3.67,0,0,1-.85.77,5.69,5.69,0,0,1-2.53.44c-.82,0-1.64,0-2.46,0H277.56c-.82,0-1.66,0-2.47,0-.42,0,0-.09.07,0a4.31,4.31,0,0,1-.44-.44,5.52,5.52,0,0,1-.67-2.22c-.55-3.59-.08-7.34-.08-11V174.09c0-1.39,0-2.78,0-4.17a4.39,4.39,0,0,1,.31-1.86c.27-.55-.1.24.17-.28s.06,0,0,0l.13-.11a.91.91,0,0,1-.37.21c.55-.26-.51.11.13-.05s-.32,0,.13,0l.62-.08c.32,0,.71,0,1.14-.05,1.27,0,2.54,0,3.81,0l3.33,0c7.19-.07,14.38-.2,21.57-.32l8.15-.14a16.78,16.78,0,0,1,7.29,1.07c3.32,1.46,5.33,4.48,6.4,7.85,1.22,3.84,1.65,8,2.38,12,.58,3.08,1.15,6.17,1.73,9.25C331.2,198.77,336.06,197.61,335.75,196Z"/><path class="cls-2" d="M41.31,320.19H371.47c1.1,0,2.62-.3,3.16-1.42s-.42-1.79-1.41-1.79H43.06c-1.11,0-2.62.3-3.16,1.41s.42,1.8,1.41,1.8Z"/><path class="cls-4" d="M177.14,89.37v-.2a4,4,0,0,0-4-4H157.29c-.65-5.28-1.68-8.91-3.1-8.91h-10.6a24.23,24.23,0,0,0-23.94,20.35,89.74,89.74,0,0,0-26.57,10.16c-2.33,1.34-4.59,2.79-6.79,4.33S82,114.29,79.92,116a91.38,91.38,0,0,0-11.35,11.42c-3.43,4.14-8.71,13-11.37,17.68-.11.2,2-1.81,1.89-1.61,4.16.44,8.79-1.06,13.43,0,.52-.83,1-1.66,1.61-2.47q2-2.86,4.16-5.57a80.78,80.78,0,0,1,9.71-10q2.64-2.27,5.47-4.31c1.88-1.36,3.83-2.63,5.82-3.82s4-2.28,6.14-3.29,4.23-1.94,6.41-2.76a81.12,81.12,0,0,1,8.9-2.77,24.24,24.24,0,0,0,22.85,16.07h10.6c1.42,0,2.45-3.63,3.1-8.91h15.85a4,4,0,0,0,4-4v-.21a4,4,0,0,0-4-4H157.93c.2-4.6.2-9.57,0-14.16h15.21A4,4,0,0,0,177.14,89.37Z"/></svg>