<svg id="Layer_1" data-name="Layer 1" xmlns="http://www.w3.org/2000/svg" viewBox="0 0 442.87 442.87"><defs><style>.cls-1{fill:#263a29;}.cls-2{fill:#fff;}</style></defs><circle class="cls-1" cx="219.12" cy="219.83" r="220.02"/><path class="cls-2" d="M349.1,325.88H93.87c-3.44,0-6.92-.19-10.35,0h-.45l1.87,1.67V268.63l-4,2.21H336.21c3.43,0,6.92.18,10.34,0H347l-1.88-1.67v58.92c0,1.38,1.44,1.77,2.62,1.66,1-.09,3.23-.85,3.23-2.2V268.63A1.75,1.75,0,0,0,349.1,267h-266c-1.14,0-4,.52-4,2.21v58.92A1.74,1.74,0,0,0,81,329.76H347c1.36,0,3.1-.37,3.79-1.71C351.41,326.87,350.26,325.88,349.1,325.88Z"/><path class="cls-2" d="M349.93,253.24H94.7c-3.43,0-6.92-.18-10.35,0H83.9l1,.41V194.73l-4.78,2H335.38c3.43,0,6.92.18,10.34,0h.46l-1-.41V255.2c0,.94,5.79.12,5.79-1.55V194.73c0-.34-.89-.41-1-.41H83.9a8.28,8.28,0,0,0-3.22.66c-.51.22-1.56.61-1.56,1.31V255.2c0,.35.89.41,1,.41H335.38c3.45,0,6.89,0,10.34,0h.46a7.52,7.52,0,0,0,4.09-1.09C351.11,253.94,351.13,253.24,349.93,253.24Z"/><path class="cls-2" d="M321.24,191.62a21,21,0,0,0-7.75-16.26,22.49,22.49,0,0,0-18.91-4.12l3.19.71c-8.25-12-24.85-14.71-37-7.23a26.89,26.89,0,0,0-8.07,7.65l3.43-1.25c-6.49-.53-13.34.56-18.5,4.79a23,23,0,0,0-7.25,11,33.2,33.2,0,0,0-1.18,5.11c-.22,1.5,1.59,1.91,2.68,1.91h75.61c3.47,0,7,.17,10.45,0h.15c1.26,0,3-1,3.19-2.34.17-1.52-1.54-1.91-2.68-1.91h-82.7c-1.11,0-2.26-.09-3.36,0h-.15l2.68,1.91a30.64,30.64,0,0,1,.76-3.67c0-.07.16-.56.08-.29s.09-.28.12-.39c.13-.41.27-.81.43-1.21a22.78,22.78,0,0,1,1.07-2.42c.2-.4.42-.79.65-1.18q.18-.32.39-.63c.15-.23,0,0-.06.08l.25-.35a22.68,22.68,0,0,1,2-2.37c.35-.36-.21.17.17-.16.21-.18.41-.36.63-.53.43-.36.89-.68,1.36-1l.31-.2s-.39.23-.1.07l.78-.42a17,17,0,0,1,1.69-.75c-.57.21.42-.13.56-.17.32-.1.65-.19,1-.27s.78-.18,1.17-.25,0,0,0,0l.62-.09a25.44,25.44,0,0,1,5.23-.09,4,4,0,0,0,3.42-1.25,20.64,20.64,0,0,1,17.33-9.37,22,22,0,0,1,17.62,9.79c.68,1,2.18.92,3.19.71,10.19-2.14,19.61,6.69,19.72,16.83,0,1.44,1.4,2,2.68,1.91C319.16,193.88,321.26,193,321.24,191.62Z"/><path class="cls-2" d="M232.31,191.71a29.49,29.49,0,0,0-11.3-18,28.42,28.42,0,0,0-23.17-4.68l3.16.63a35.08,35.08,0,0,0-21.68-14.43,37.45,37.45,0,0,0-27.27,4.88,36.57,36.57,0,0,0-10.83,10.52l4.45-1.6c-12.74-2.7-26.28,2.75-32.71,14.31a27.93,27.93,0,0,0-3.14,9.35c-.23,1.48,1.61,1.78,2.64,1.78h102.3c4.7,0,9.46.2,14.16,0h.21c1.22,0,3-.94,3.21-2.27.19-1.5-1.58-1.78-2.65-1.78H117.77c-1.5,0-3-.1-4.54,0H113l2.64,1.78a23.86,23.86,0,0,1,8.86-15.35,21.34,21.34,0,0,1,17.75-4.06,4.1,4.1,0,0,0,4.45-1.6,29.14,29.14,0,0,1,39.66-8,31.82,31.82,0,0,1,9.29,9c.66,1,2.21.84,3.17.64,13.27-2.82,25.27,7.8,27.66,20.42C227,195.81,232.81,194.34,232.31,191.71Z"/><path class="cls-2" d="M222.58,154a27.65,27.65,0,0,1-13.14-3.11c-7.06-3.79-11.94-10.86-14.49-21l-.32-1.3,1.28-.37c10.05-2.86,18.52-2.14,25.18,2.16a28.33,28.33,0,0,1,10.34,12.87,34,34,0,0,1,2.31,7.68l.17,1.13-1.07.37a32.24,32.24,0,0,1-7.57,1.46C224.36,154,223.47,154,222.58,154ZM198,130.55c2.43,8.66,6.72,14.69,12.77,17.94,8,4.29,16.93,2.53,20,1.71-.73-3.25-3.44-12.48-11.21-17.48C213.9,129.06,206.64,128.33,198,130.55Z"/><path class="cls-2" d="M222.71,153a25.44,25.44,0,0,1-15.84-5.32,29.26,29.26,0,0,1-8.51-12,59.87,59.87,0,0,1-2.29-7.41l-1.19,1.36a47.43,47.43,0,0,1,10-2A26.21,26.21,0,0,1,215.43,129c7.09,2.54,12.13,8.62,14.87,15.47a34.85,34.85,0,0,1,2.16,8l1.19-1.36A32.8,32.8,0,0,1,222.71,153c-.62,0-1.52.47-1.6,1.15s.78.93,1.33.92a35.74,35.74,0,0,0,11.73-2c.6-.22,1.3-.61,1.19-1.36a34.09,34.09,0,0,0-8-17.7,25.32,25.32,0,0,0-9.13-6.51,28.75,28.75,0,0,0-11.43-2,48.42,48.42,0,0,0-12.4,2.15c-.56.16-1.37.66-1.19,1.36a43.67,43.67,0,0,0,5.9,14.28,26.42,26.42,0,0,0,12.06,9.77,30.92,30.92,0,0,0,11.3,2c.62,0,1.52-.47,1.6-1.15S223.26,153,222.71,153Z"/><path class="cls-2" d="M196.53,130.94c1.66,5.88,4.44,11.54,9.1,15.61,4.9,4.28,11.41,5.95,17.82,5.73a34.18,34.18,0,0,0,7.59-1.11c.57-.15,1.35-.66,1.19-1.36a32.39,32.39,0,0,0-5.68-12.42,22.92,22.92,0,0,0-16.24-9,37.2,37.2,0,0,0-12.6,1.19c-.55.15-1.37.68-1.18,1.36s1.16.72,1.7.58c6.12-1.55,12.93-1.92,18.68,1.12,4.92,2.6,8.42,7.17,10.57,12.23a33.49,33.49,0,0,1,1.85,5.72l1.19-1.36c-.83.22-1.68.41-2.53.56.32-.06-.33.05-.43.06-.29.05-.58.09-.88.12-.64.08-1.28.15-1.92.19a26,26,0,0,1-8.69-.82,22,22,0,0,1-12.67-9.81,36.42,36.42,0,0,1-4-9.37C199.05,128.86,196.16,129.64,196.53,130.94Z"/><path class="cls-2" d="M232.57,152.25l-.26-1.1a68.06,68.06,0,0,1,.78-30.1,51.37,51.37,0,0,1,7.17-15.89c9-13.16,24-21.33,44.72-24.27l1.32-.18.23,1.31c3.54,20.28.49,36.74-9,48.92-6.12,7.82-14.74,13.7-25.6,17.47a71.67,71.67,0,0,1-17.61,3.76l-.57,0ZM284,83.82c-19.23,3-33.19,10.68-41.5,22.89a48.69,48.69,0,0,0-6.78,15.05,61.71,61.71,0,0,0-2,14.17,67.58,67.58,0,0,0,1,13.44A70.23,70.23,0,0,0,251,145.81c10.36-3.6,18.55-9.17,24.33-16.57C284.14,118,287.07,102.68,284,83.82Z"/><path class="cls-2" d="M234,151.86a62.5,62.5,0,0,1-1.57-13.9,61.15,61.15,0,0,1,4.86-25.12,48.59,48.59,0,0,1,11.74-16.32,54.13,54.13,0,0,1,15.59-9.71,82.93,82.93,0,0,1,20.21-5.3l1.21-.17-1.21-.25a91.29,91.29,0,0,1,1.54,21.06,55.45,55.45,0,0,1-4.64,19.6,46.53,46.53,0,0,1-11.63,15.64A56.74,56.74,0,0,1,251.35,148a69.39,69.39,0,0,1-11,2.81c-1.29.22-2.58.41-3.88.55l-.38.05c.23,0,.1,0,0,0l-.65.06-1.13.08-1.13,0a2.74,2.74,0,0,0-1.93.72c-.4.52.35.63.72.62a68.62,68.62,0,0,0,16.51-2.82,65,65,0,0,0,21.36-10.42,48.65,48.65,0,0,0,13.4-15.59A52.93,52.93,0,0,0,289,104.63,83.6,83.6,0,0,0,288,81.53l-.21-1.21c-.07-.4-1-.28-1.2-.25a98.38,98.38,0,0,0-20.33,4.85,61.59,61.59,0,0,0-17.52,9.74,49.88,49.88,0,0,0-12.6,15.22,58.69,58.69,0,0,0-6.47,24.8,62.39,62.39,0,0,0,1.23,16.86c.09.36.18.73.26,1.1C231.31,153.4,234.22,152.67,234,151.86Z"/><path class="cls-2" d="M284.28,83.19c-12,1.87-24.07,5.77-33.64,13.45a47.24,47.24,0,0,0-10.81,12.26,52.45,52.45,0,0,0-6.89,20,66.18,66.18,0,0,0,.37,20.88c.06.29.65.3.85.28a72.61,72.61,0,0,0,17.75-3.95,58.44,58.44,0,0,0,17.36-9.47A45.42,45.42,0,0,0,280.69,123,49.12,49.12,0,0,0,286,106.37a77.4,77.4,0,0,0-.53-22.94c-.12-.73-3-.08-2.9.78,2,12.27,1.79,25.32-3.53,36.77a43.47,43.47,0,0,1-9.83,13.49,51,51,0,0,1-15.61,9.72,67,67,0,0,1-11,3.38c-1.43.3-2.93.57-4.39.78-.57.09-1.14.16-1.71.23l-.35,0-.16,0-.63.06.84.28a65.25,65.25,0,0,1-.74-17.54,54.53,54.53,0,0,1,5.66-20.19A47.58,47.58,0,0,1,264.31,90a75.91,75.91,0,0,1,19.49-5.5c.44-.07,1.56-.32,1.67-.87S284.55,83.14,284.28,83.19Z"/><path class="cls-2" d="M229.43,182.17a105.85,105.85,0,0,1,2.57-32,81.38,81.38,0,0,1,10.35-24.54,80.46,80.46,0,0,1,23-23.41l1.55,2.28a77.76,77.76,0,0,0-22.19,22.61,78.89,78.89,0,0,0-10,23.71,105.1,105.1,0,0,0-2.49,31.11Z"/><path class="cls-2" d="M230.88,181.78a79.41,79.41,0,0,1-.27-8.73,105.68,105.68,0,0,1,2-19.27,78.92,78.92,0,0,1,33.61-51.21l-2.23.17,1.55,2.28.46-.92a79.18,79.18,0,0,0-25.8,28.44c-6.37,12.11-9.24,25.64-9.65,39.24a85.72,85.72,0,0,0,.2,10.51l1.66-1.13-2.74.27c-.49,0-1.55.35-1.66.94s.88.57,1.23.54l2.74-.27c.51,0,1.74-.42,1.67-1.13a78.31,78.31,0,0,1-.25-8.25,105,105,0,0,1,1.89-18.81,76.14,76.14,0,0,1,32.48-49.6c.32-.22.74-.52.47-.93l-1.55-2.28c-.38-.55-1.86-.08-2.24.17a82,82,0,0,0-26.69,29.45c-6.54,12.43-9.55,26.35-10,40.33a87.3,87.3,0,0,0,.22,11C228.07,183.42,231,182.81,230.88,181.78Z"/></svg>