<svg id="Layer_1" data-name="Layer 1" xmlns="http://www.w3.org/2000/svg" viewBox="0 0 442.87 442.87"><defs><style>.cls-1{fill:#263a29;}.cls-2{fill:none;}.cls-2,.cls-3{stroke:#fff;stroke-miterlimit:10;stroke-width:2px;}.cls-3{fill:#fff;}</style></defs><circle class="cls-1" cx="218.87" cy="219.83" r="220.02"/><path class="cls-2" d="M340.49,274l.29-.62c2.3-8.42-1.59-14.37-7.1-22.76-1.68-2.57-3.43-5.22-5.18-8.22-6.45-11.09-20.11-32.1-24.3-38.52l-21.48,13.88c5.27,8.62,26.72,43.73,31.55,51.93,3.28,5.57,6.42,10.93,7.43,16.87C334.36,284.19,339.14,276.69,340.49,274Z"/><path class="cls-3" d="M337.52,248.09c-1.65-2.52-3.37-5.12-5-8-7.69-13.23-25.51-40.36-25.68-40.63a2.31,2.31,0,0,0-3.17-.67l-25.27,16.33a2.3,2.3,0,0,0-.72,3.13c.28.44,27.22,44.49,32.78,53.93,3.12,5.29,5.85,9.95,6.73,14.94a45.85,45.85,0,0,0,4.56-.56c-1-5.94-4.15-11.3-7.43-16.87-4.83-8.2-26.28-43.31-31.55-51.93l21.48-13.88c4.19,6.42,17.85,27.43,24.3,38.52,1.75,3,3.5,5.65,5.18,8.22,5.51,8.39,9.4,14.34,7.1,22.76l.07-.14a2.28,2.28,0,0,1,3-1.16,2.31,2.31,0,0,1,1.25,2.95s-.14.35-.42.93h0l-9.08,19.76a1.77,1.77,0,0,0,.31-.41l7.42-15.61C349.59,266.46,344,258,337.52,248.09Z"/><path class="cls-3" d="M340.51,274a1.3,1.3,0,0,1,.18-.23l.09-.37-.29.62Z"/><path class="cls-3" d="M343.55,272.92a2.31,2.31,0,0,1,1.1,3c.28-.58.42-.93.42-.93a2.31,2.31,0,0,0-1.25-2.95,2.28,2.28,0,0,0-3,1.16l-.07.14-.09.37A2.27,2.27,0,0,1,343.55,272.92Z"/><path class="cls-3" d="M322,291.15a35.26,35.26,0,0,0,12.76-4.71l-2.8,6.09.16-.06,7-14.75a27.46,27.46,0,0,0,1.12-2.75,2.55,2.55,0,0,1,.2-.93l0-.05c-1.35,2.7-6.13,10.2-18.79,12.56A23.25,23.25,0,0,1,322,291.15Z"/><path class="cls-3" d="M334.58,296.48l-5.27,1.87L328.09,301c-.07.13-6.44,13.23-18.52,14.32-9.45.85-38.6.48-55.13.18h-.05a2.29,2.29,0,0,0-2.29,2.18,41.51,41.51,0,0,1-1,7.57,204,204,0,0,1-18-10.72c-14.82-9.79-16.69-13.4-16.92-14.06.72-1.46,6-5.68,18.25-11.85,9.8-4.94,17.46-7.84,20-8.32.54,1.41.75,5.13.44,8.55a2.3,2.3,0,0,0,2.29,2.51h0c15.85-.11,38.09-.13,54.13.45a55.33,55.33,0,0,0,6.12-.13,18.77,18.77,0,0,0-.25-4.58,50.28,50.28,0,0,1-5.7.12c-15.31-.55-36.2-.57-51.87-.47.12-3.63-.18-8.73-2.62-10.53-1.11-.82-2.57-1.21-10.31,1.84-5.5,2.16-33.69,14.62-35,21.65-.36,2,.87,3.78,1.83,5,6.5,8.14,35.24,25.52,38.28,25.64h.11a3,3,0,0,0,2.1-.87c1.69-1.63,2.34-6.42,2.59-9.33,16.89.29,44.16.6,53.43-.23,14.66-1.33,21.95-16.29,22.27-17l3.32-7.24A2.27,2.27,0,0,1,334.58,296.48Z"/><path class="cls-3" d="M317.39,291.69c1.62-.12,3.19-.29,4.63-.54a23.25,23.25,0,0,0-.32-4.6,45.85,45.85,0,0,1-4.56.56A18.77,18.77,0,0,1,317.39,291.69Z"/><path class="cls-3" d="M344.65,276l0,.07a2.3,2.3,0,0,1-2.05,1.27,2.33,2.33,0,0,1-1-.22,2.31,2.31,0,0,1-1.3-2.1,27.46,27.46,0,0,1-1.12,2.75l-7,14.75-.16.06-2.67,5.82,5.27-1.87a2.27,2.27,0,0,0,1-.77L344.65,276Z"/><path class="cls-3" d="M340.51,274l0,0,0,.05a2.55,2.55,0,0,0-.2.93c.15-.42.3-.83.42-1.23A1.3,1.3,0,0,0,340.51,274Z"/><path class="cls-3" d="M343.55,272.92a2.27,2.27,0,0,0-2.86.82c-.12.4-.27.81-.42,1.23a2.31,2.31,0,0,0,1.3,2.1,2.33,2.33,0,0,0,1,.22,2.3,2.3,0,0,0,2.05-1.27l0-.07A2.31,2.31,0,0,0,343.55,272.92Z"/><path class="cls-2" d="M110,317.15l.35.58c5.75,6.58,12.85,6.64,22.89,6.69,3.07,0,6.25,0,9.72.24,12.8.77,37.86,1,45.52,1.08l.34-25.57c-10.09-.39-51.22-1.95-60.71-2.47-6.46-.35-12.66-.7-18.16-3.15C104.9,306.4,108.49,314.54,110,317.15Z"/><path class="cls-3" d="M133.2,329c3,0,6.13,0,9.47.23,15.28.92,47.73,1.1,48.06,1.1a2.29,2.29,0,0,0,2.31-2.26l.39-30.09a2.31,2.31,0,0,0-2.21-2.33c-.52,0-52.12-2-63.06-2.56-6.14-.33-11.53-.63-16.17-2.66a42.44,42.44,0,0,0-2,4.11c5.5,2.45,11.7,2.8,18.16,3.15,9.49.52,50.62,2.08,60.71,2.47l-.34,25.57c-7.66-.06-32.72-.31-45.52-1.08-3.47-.21-6.65-.22-9.72-.24-10-.05-17.14-.11-22.89-6.69l.09.14a2.29,2.29,0,0,1-3.83,2.52s-.22-.31-.54-.86h0L94.62,301a3.23,3.23,0,0,0,.18.49l8.89,14.81C111.23,328.89,121.41,329,133.2,329Z"/><path class="cls-3" d="M110,317.17c0,.09,0,.19.09.28s.17.18.25.28l-.35-.58Z"/><path class="cls-3" d="M109.18,320.29a2.29,2.29,0,0,1-3.12-.76c.32.55.54.86.54.86a2.29,2.29,0,0,0,3.83-2.52l-.09-.14c-.08-.1-.16-.18-.25-.28A2.26,2.26,0,0,1,109.18,320.29Z"/><path class="cls-3" d="M105.93,292.27a35.41,35.41,0,0,0-3.15,13.23l-3.52-5.7,0,.17,8.4,14c.55.9,1.11,1.7,1.68,2.46a2.38,2.38,0,0,1,.66.68l0,0c-1.5-2.61-5.09-10.75,0-22.6A23.2,23.2,0,0,1,105.93,292.27Z"/><path class="cls-3" d="M94.54,299.78l1.35-5.43-1.54-2.49c-.07-.12-7.45-12.68-1.67-23.35,4.52-8.34,21-32.41,30.37-46l0,0a2.29,2.29,0,0,0-.54-3.11,42.22,42.22,0,0,1-5.75-5,201.82,201.82,0,0,1,18.89-9c16.35-6.92,20.39-6.47,21.06-6.3.82,1.41,1.4,8.16-.23,21.75-1.31,10.9-3.13,18.88-4.12,21.23-1.47-.33-4.69-2.21-7.36-4.36a2.3,2.3,0,0,0-1.8-.48,2.27,2.27,0,0,0-1.55,1v0c-8.69,13.26-21,31.79-30.35,44.82a55.41,55.41,0,0,0-3.27,5.18,18.66,18.66,0,0,0,3.95,2.32,53.36,53.36,0,0,1,3.05-4.82c8.94-12.44,20.52-29.83,29.11-42.93,2.95,2.11,7.37,4.68,10.22,3.65,1.3-.47,2.43-1.48,4.18-9.61,1.24-5.77,6.47-36.15,1.34-41.13-1.43-1.39-3.63-1.37-5.16-1.24-10.38.91-40.77,15.23-42.55,17.69h0a.35.35,0,0,0-.06.09,3,3,0,0,0-.43,2.23c.42,2.31,4,5.5,6.34,7.32-9.6,13.9-25,36.44-29.39,44.62-7,12.95,1.42,27.3,1.79,27.93L94.62,301A2.22,2.22,0,0,1,94.54,299.78Z"/><path class="cls-3" d="M108,288.12a46.47,46.47,0,0,0-2.11,4.15,23.2,23.2,0,0,0,4,2.28,42.44,42.44,0,0,1,2-4.11A18.66,18.66,0,0,1,108,288.12Z"/><path class="cls-3" d="M106.06,319.53s0,0,0-.07a2.29,2.29,0,0,1,3.28-3c-.57-.76-1.13-1.56-1.68-2.46l-8.4-14,0-.17-3.37-5.45-1.35,5.43a2.22,2.22,0,0,0,.08,1.25l11.44,18.49Z"/><path class="cls-3" d="M110,317.17v0l0,0a2.38,2.38,0,0,0-.66-.68c.26.35.52.7.79,1C110.05,317.36,110.05,317.26,110,317.17Z"/><path class="cls-3" d="M109.18,320.29a2.26,2.26,0,0,0,.91-2.84c-.27-.32-.53-.67-.79-1a2.28,2.28,0,0,0-2.47-.08,2.28,2.28,0,0,0-.81,3.11s0,0,0,.07A2.29,2.29,0,0,0,109.18,320.29Z"/><path class="cls-2" d="M189.48,101.08l-.68.09c-8.35,2.55-11.31,9-15.47,18.14-1.27,2.8-2.59,5.69-4.19,8.77-5.94,11.37-16.42,34.14-19.61,41.1L172.72,180c4.48-9,22.74-45.94,27.1-54.39,3-5.75,5.81-11.26,10.3-15.28C201.37,100.83,192.47,100.78,189.48,101.08Z"/><path class="cls-3" d="M169.16,117.41c-1.25,2.74-2.54,5.58-4.09,8.55-7.09,13.56-20.53,43.1-20.67,43.4a2.29,2.29,0,0,0,1.13,3l27.29,12.67a2.3,2.3,0,0,0,3-1.07c.23-.47,23.11-46.75,28.13-56.49,2.81-5.46,5.3-10.26,9.05-13.67-1-1.29-1.94-2.5-2.91-3.55-4.49,4-7.34,9.53-10.3,15.28C195.46,134,177.2,170.9,172.72,180l-23.19-10.77c3.19-7,13.67-29.73,19.61-41.1,1.6-3.08,2.92-6,4.19-8.77,4.16-9.14,7.12-15.59,15.47-18.14l-.16,0a2.3,2.3,0,0,1-.74-4.53s.38-.07,1-.14h0l21.55-2.87a2.19,2.19,0,0,0-.51,0L192.8,95.67C178.25,97.4,174,106.67,169.16,117.41Z"/><path class="cls-3" d="M189.45,101.08c-.1,0-.2,0-.3,0s-.23.08-.35.12l.68-.09Z"/><path class="cls-3" d="M186.94,99.06a2.29,2.29,0,0,1,2-2.54c-.63.07-1,.14-1,.14a2.3,2.3,0,0,0,.74,4.53l.16,0c.12,0,.23-.09.35-.12A2.27,2.27,0,0,1,186.94,99.06Z"/><path class="cls-3" d="M213.84,107.55a35.46,35.46,0,0,0-10.78-8.28l6.63-.88-.13-.11-16.21,1.94a29.08,29.08,0,0,0-2.93.52,2.17,2.17,0,0,1-.9.33h0c3-.3,11.89-.25,20.64,9.2A23.3,23.3,0,0,1,213.84,107.55Z"/><path class="cls-3" d="M211.65,94.09,216,97.54l2.91-.38c.14,0,14.62-1.62,22,8,5.76,7.54,21,32.4,29.56,46.54l0,0a2.3,2.3,0,0,0,3.07.77,41.28,41.28,0,0,1,7-3.17,204.08,204.08,0,0,1,.51,20.92c-.37,17.75-2.43,21.26-2.86,21.8-1.62.17-8-2.07-19.76-9.11-9.4-5.65-15.94-10.58-17.68-12.45.9-1.2,3.94-3.37,7-4.93a2.28,2.28,0,0,0,.9-3.27h0c-8.54-13.35-20.42-32.15-28.49-46a54.36,54.36,0,0,0-3.38-5.1,18.32,18.32,0,0,0-3.73,2.65,50.37,50.37,0,0,1,3.14,4.76c7.7,13.24,18.83,30.92,27.27,44.12-3.13,1.83-7.28,4.81-7.51,7.84-.1,1.37.35,2.82,7.06,7.74,4.76,3.49,30.34,20.7,37,18.05,1.85-.73,2.74-2.75,3.24-4.2,3.42-9.85,2.79-43.43,1.27-46.06h0a.31.31,0,0,0-.05-.1,3,3,0,0,0-1.86-1.31c-2.28-.56-6.68,1.45-9.27,2.79-8.77-14.44-23.05-37.67-28.7-45.07-9-11.69-25.49-9.87-26.22-9.79l-7.9,1.05A2.27,2.27,0,0,1,211.65,94.09Z"/><path class="cls-3" d="M216.76,111.18c-1-1.31-1.94-2.54-2.92-3.63a23.3,23.3,0,0,0-3.72,2.73c1,1,1.94,2.26,2.91,3.55A18.32,18.32,0,0,1,216.76,111.18Z"/><path class="cls-3" d="M188.91,96.52H189a2.29,2.29,0,0,1,2.17,1.06,2.25,2.25,0,0,1,.34,1,2.29,2.29,0,0,1-1.08,2.21,29.08,29.08,0,0,1,2.93-.52l16.21-1.94.13.11,6.35-.85-4.39-3.45a2.27,2.27,0,0,0-1.18-.44l-21.55,2.87Z"/><path class="cls-3" d="M189.45,101.08h.07a2.17,2.17,0,0,0,.9-.33c-.43.1-.86.19-1.27.31C189.25,101.05,189.35,101.09,189.45,101.08Z"/><path class="cls-3" d="M186.94,99.06a2.27,2.27,0,0,0,2.21,2c.41-.12.84-.21,1.27-.31a2.29,2.29,0,0,0,1.08-2.21,2.25,2.25,0,0,0-.34-1A2.29,2.29,0,0,0,189,96.51h-.08A2.29,2.29,0,0,0,186.94,99.06Z"/></svg>