<svg id="Layer_1" data-name="Layer 1" xmlns="http://www.w3.org/2000/svg" viewBox="0 0 442.87 442.87"><defs><style>.cls-1{fill:#263a29;}.cls-2{fill:#fff;}</style></defs><circle class="cls-1" cx="219.63" cy="220.85" r="220.02"/><path class="cls-2" d="M174.69,324.09l-2.52,1,3.48.76-10.82-26.64q-4.58-11.25-9.14-22.5l-4.62-11.38-1.35,2.06,2.51-1c.65-.26,1.68-1.22,1.35-2.05l-1.27-3.11c-.56-1.4-2.33-1.23-3.48-.76L122.89,271l-3.62,1.48,3.37,1.67c3.08-9.39,1.2-19.74-3.63-28.21-3.8-6.66-10-12.7-17.61-14.67a18.9,18.9,0,0,0-19.85,6.34c-5.09,6.56-5.84,15.56-4.13,23.45,2.1,9.72,8.14,19.27,17.11,23.95l.8-2.79-2,.8c-.64.26-1.68,1.22-1.35,2.05l1.27,3.11c.57,1.4,2.33,1.23,3.48.76l2.51-1-3.48-.76,8,19.66L112.39,328l4.15,10.22a2,2,0,0,0,2.19,1.1h0l-2.2-1.1,3.84,9.45,1.35-2.06-2.52,1c-.65.26-1.68,1.22-1.35,2l1.27,3.11c.57,1.4,2.33,1.22,3.48.76L141.36,345l29.88-12.15,6.84-2.79c.65-.26,1.69-1.22,1.35-2.05l-1.26-3.11c-.46-1.11-1.81-1.27-2.86-1-.81.21-2.42,1.17-2,2.28l1.26,3.11L176,327.2l-18.75,7.63L127.32,347l-6.84,2.79,3.48.75-1.27-3.1-1.35,2.05,2.52-1c.65-.27,1.68-1.23,1.35-2.06l-3.84-9.45a2.05,2.05,0,0,0-2.2-1.1h0l2.2,1.1-6.51-16-11.17-27.5-3.07-7.55c-.57-1.4-2.33-1.23-3.48-.76l-2.51,1,3.48.76-1.27-3.11-1.35,2,2-.8c.92-.37,2.19-2.07.8-2.79-7.14-3.73-12.21-10.65-14.81-18.17-2.43-7-3-15.33.37-22.17a14.39,14.39,0,0,1,5.82-6.44,11.71,11.71,0,0,1,7.67-1.22c6.56,1,12.07,6,15.69,11.28,5.42,7.92,8.08,18.77,5,28.1-.7,2.11,2,2.21,3.37,1.67l25.94-10.55,3.62-1.48-3.48-.76,1.27,3.12,1.35-2.06-2.51,1c-.65.27-1.69,1.23-1.35,2.06q5.14,12.68,10.3,25.35L166,315.31l4.82,11.85c.57,1.4,2.34,1.23,3.48.76l2.52-1c.92-.37,1.79-1.51,1.14-2.46S175.62,323.71,174.69,324.09Z"/><path class="cls-2" d="M185.57,196.52l-10.45-18.59c-.15-.27-.29-.55-.46-.81-1.31-2-4.14-1.3-6-.7l2.65.48.1-.06c.63-.35.78-.81,0-.92a6.83,6.83,0,0,0-3.17.67l-.22.09,3.55,0a3.05,3.05,0,0,0,1-3.34c-.25-1-3.75.36-4.25.64h0l4.25-.63a12.45,12.45,0,0,0-1-1.94l-2.13-3.79c-1.07-1.9-2-4.86-4.38-5.39l-.17.9h0c.76-.43.68-.95-.26-.94a10.84,10.84,0,0,0-4.51.95l3.79-.4,0-.06-.58.66a3.37,3.37,0,0,0,1.78-3.15c0-1-3.87.42-4.25.64h0l4.25-.63a12.26,12.26,0,0,0-1.47-2.94L161,152.8c-.52-.92-1-1.89-1.56-2.78-1.52-2.38-5-1.57-7.09-.55l3.79-.4c-4.33-8.13-9-16.08-13.56-24.11-.63-1.12-1.22-2.27-1.89-3.36l-.58.66c1.7-1.12,2.22-2.67,1.22-4.44l-2.44-4.34c-.79-1.4-1.56-2.81-2.37-4.21-1.24-2.17-3.45-2.06-5.67-1.48l2,.67.14-.08c.5-.28.85-.68.16-.9a5.11,5.11,0,0,0-2.8.42l-.4.15,3,.24a3,3,0,0,0,1.13-3.34c-.35-1-3.68.32-4.24.63h0L134,105a42,42,0,0,0-2.35-4.25c-.82-1.46-1.63-2.93-2.46-4.38a10.91,10.91,0,0,0-2.15-2.77,16.26,16.26,0,0,0-5.25-2.7c-4.22-1.64-8.45-3.23-12.65-4.91-2.41-1-4.81-2-7.19-3a26.43,26.43,0,0,0-3.34-1.53,6,6,0,0,0-4,.86l4.25-.64-2.47-4.4-.58.66c.68-.39,1.85-.81,2.22-1.55s-.09-1.06-.37-1.55l-3-5.36c-.92-1.63-1.69-3.15-3.8-3.37a11.07,11.07,0,0,0-6.45,1.82L74.26,73.56c-1.28.72-2.82,1.39-3.39,2.85-.71,1.8.39,3.25,1.23,4.75,1,1.82,2,3.74,3.1,5.51.87,1.35,2.87.75,4.14.31a18.63,18.63,0,0,0,3-1.53l-4.25.64,2.48,4.39.24-.42c-.48.47-.36,1.48-.43,2.12-.13,1.14-.27,2.27-.42,3.4-.3,2.19-.64,4.37-1,6.55-.73,4.39-1.56,8.75-2.33,13.13a16,16,0,0,0-.41,5.63,9.81,9.81,0,0,0,1.2,3.17c.76,1.36,1.53,2.71,2.29,4.06a42.31,42.31,0,0,0,2.6,4.54l.58-.66h0s-.75.46-.58.66c1.59,1.85,4.13,1.25,6.19.57l-3-.24-.33.27c-.75.6.47.7.85.69a7.3,7.3,0,0,0,3.16-.91l.14-.08-4,.21c-1.41,1.37-1.19,2.76-.33,4.28l2.66,4.74c.69,1.24,1.35,2.51,2.09,3.72,1.51,2.47,4.94,1.7,7.15.65l-3.79.4c4.45,8,9,16,13.49,24l1.94,3.46c.55,1,3.59-.22,4.25-.64h0l-4.25.63,0,0,.58-.66c-1.51,1-2.29,2.47-1.37,4.18.6,1.11,1.24,2.2,1.86,3.3l2.37,4.22a10.06,10.06,0,0,0,1.62,2.49l.45-.82h0c-.19.1-.88.54-.44.81,2,1.21,4.41.62,6.4-.29l-3.79.4,0,.07.24-.43a4.37,4.37,0,0,0-1.25,1.42c-.35.58,1.19.47,1.32.45a7.53,7.53,0,0,0,2.89-.88h0l-4.21.43c-.71,2.16,1.36,4.58,2.36,6.37l2.07,3.68a13.24,13.24,0,0,0,1.12,1.89l.58-.66,0,0c-.28.16-.79.47-.45.81,1.68,1.66,3.94,1.15,6,.49l-3-.24-.2.15c-.78.58.5.7.86.69a7.3,7.3,0,0,0,3.15-.91l.06,0-4,.22a2.78,2.78,0,0,0-.66,3.69l1.6,2.84,5.18,9.21c1.26,2.24,2.5,4.48,3.77,6.71,2.59,4.52,8.33,4.13,12.42,1.94,10-5.35,19.78-11.13,29.66-16.69l6.35-3.57a10.36,10.36,0,0,0,2.29-1.6,6.44,6.44,0,0,0,1.21-7.62c-.58-1.1-5.16.66-4.83,1.29a5.72,5.72,0,0,1-2.19,7.83l-4.75,2.67L156.58,218l-13.32,7.5c-.15.08-.68.37-.67.38a3.13,3.13,0,0,1,.53-.12,4.44,4.44,0,0,1-.86-.08,5,5,0,0,1-1.51-.57,5.7,5.7,0,0,1-2.17-2.16c-1-1.67-1.91-3.39-2.86-5.08l-5.61-10-1.92-3.43c-.61-1.09-1.26-2.24-.09-3.32.68-.63-.41-.71-.85-.69a7.29,7.29,0,0,0-3.16.9l0,0,4-.21.2-.15c.52-.39,0-.63-.39-.68a6.28,6.28,0,0,0-2.6.44c2.5-.79,2,0,1-.45a3.22,3.22,0,0,1-.85-.71l-.45.81,0,0s.75-.46.58-.66a10.88,10.88,0,0,1-1-1.71l-2-3.64-1.86-3.3c-.52-.92-1.08-1.76-.71-2.88s-3.84.23-4.21.43h0l4.21-.43a2.48,2.48,0,0,1,.84-1,.47.47,0,0,0,.24-.42l0-.06c-.47-.91-3.18.13-3.79.4,1.92-.13,2.5-.26,1.73-.39a.73.73,0,0,1-.25-.08l-.57-.35-.45.81h0c.28-.16.8-.48.45-.81a8.61,8.61,0,0,1-1.31-2.1l-2.18-3.88c-.69-1.22-3.85-5.3-1.89-6.58.07-.05.71-.43.58-.66l0,0c-.55-1-3.59.21-4.25.64h0l4.25-.64L99.79,149c-.64-1.12-1.27-2.24-1.9-3.36-.5-.9-3.17.1-3.78.4,1.88-.11,2.44-.25,1.68-.4a.73.73,0,0,1-.29-.11,3.2,3.2,0,0,1-.64-.45,2.94,2.94,0,0,1-.31-.47c-.21-.33-.39-.68-.58-1l-2.14-3.81-2-3.65c-.62-1.1-1.27-2.35-.15-3.43.67-.64-.38-.71-.85-.69a7.25,7.25,0,0,0-3.15.9l-.15.08,4-.21.33-.27c.5-.4.07-.63-.38-.68a6.3,6.3,0,0,0-2.61.44c-.36.12-.15.07.64-.15,1,0,1.09-.11.42-.19a4.51,4.51,0,0,1-.79-.59l-.58.66,0,0s.73-.44.58-.65A35.33,35.33,0,0,1,85,127.69c-.88-1.55-1.75-3.09-2.62-4.65a10.17,10.17,0,0,1-1.35-6.7c.59-4.21,1.5-8.39,2.23-12.58.85-4.84,1.61-9.69,2.1-14.57l-.24.42h0a.47.47,0,0,0,.24-.42l-2.48-4.4c-.56-1-3.56.25-4.25.64l-.91.51c-.49.28-1.63.62-.16.15l2.81-.43c-.35,0-.51-.55-.65-.81l-1.09-1.94-2.41-4.28c-.75-1.33-1.33-3.1.17-4.19a21.32,21.32,0,0,1,2-1.11l8.72-4.91,1.33-.75c.15-.08.31-.16.45-.25.82-.52-.62,1-1.68.41.76.43,1.29.52,1.8,1.34.27.42.5.89.75,1.33l2.77,4.93c.24.42.45.89.72,1.28s.29.24,0,.48a5.23,5.23,0,0,1-1.11.63c-.07,0-.71.42-.58.65l2.47,4.4c.56,1,3.57-.24,4.25-.63l0,0L94.23,83c7.64,3.65,15.6,6.54,23.48,9.62,2.86,1.11,5.13,2.27,6.69,5,.78,1.34,1.52,2.7,2.28,4a43.53,43.53,0,0,1,2.53,4.58c.42,1,3.65-.3,4.25-.64h0l-4.25.63a2.15,2.15,0,0,1-.65,2.5c-.47.41-.08.63.39.68a5.92,5.92,0,0,0,2.6-.44l.4-.14-2.64-.48-.15.08c-.41.23-.8.55-.3.86s1.8,0,2.31-.19c-1.25.33-.94,0-.4.37a2.32,2.32,0,0,1,.67.69,1.29,1.29,0,0,1,.09.16c.23.36.42.74.63,1.11l2.18,3.88,2,3.56c.55,1,1.3,2.55.07,3.36-.06,0-.72.43-.58.65,1.85,3,3.47,6.18,5.2,9.25L149.4,147c.63,1.12,1.28,2.23,1.89,3.37.48.9,3.18-.12,3.78-.41l-1.83.37a1,1,0,0,1,.44.14c.17.15.39.23.56.39a3.41,3.41,0,0,1,.37.48c.16.25.29.53.44.79l1.93,3.44L159,159.2a9.37,9.37,0,0,1,1.12,2.32c.25,1,3.75-.35,4.25-.63h0l-4.25.64a2.1,2.1,0,0,1-.62,1.83c-.06,0-.71.42-.58.66l0,.06c.52.9,3.14-.12,3.78-.4-1.47.27-1.94.41-1.39.4l-.25-.94h0c-.44.24-.9.74-.17.9,1.06.25,1.44,1.16,1.91,2l1.88,3.34,1.93,3.44a11.37,11.37,0,0,1,1,1.85c.35,1,3.69-.32,4.25-.63l0,0-4.25.64a2.28,2.28,0,0,1-.56,2.49c-.62.5.16.68.59.7a7.36,7.36,0,0,0,3-.68l.23-.09-3.21-.26-.1.06c-.49.28-.85.69-.16.9a5.26,5.26,0,0,0,2.81-.42l-.62.17c-.66,0-.82.12-.48.25,0,0,.36.23.4.27.83.78.18.22.3.39s.09.17.14.26c.25.4.47.82.7,1.23l2.57,4.57,6,10.75,1.44,2.56C181.36,198.91,185.9,197.1,185.57,196.52Z"/><path class="cls-2" d="M230.81,171.36a2.44,2.44,0,0,0-.89-1.18l-2,3.28c2.23-.21,5.08-.25,6.08-2.69a4.21,4.21,0,0,0,.24-1.6c0-1.45.05-2.9.07-4.34l.28-18.51.71-46.14.17-11-2.65,2h0c1.36-.14,2.75-1,2.61-2.49l-.33-3.3a7.22,7.22,0,0,0-.11-1.14,2.55,2.55,0,0,0-2.78-1.69c-.67,0-1.34.13-2,.2L217.57,84l-30.52,3c-.91.09-1.82.15-2.72.27a3.6,3.6,0,0,0-3,1.83,3.9,3.9,0,0,0-.07,2l.36,3.71c.09.91,1.51,1.29,2.23,1.2h0l-2.22-1.2,6.17,29.07,9.14,43,1.21,5.72c.06.29.11.59.19.87.82,2.89,3.79,2.48,6.14,2.25l-1.85-2.61c-1.14,1.11-.47,3.59-.33,5l.59,6.05a2.27,2.27,0,0,0,.94,1.94,3.39,3.39,0,0,0,2.23.43c1.23-.09,2.47-.24,3.7-.36l12.81-1.26,4.85-.47c1.68-.16,3.94-.4,4.3-2.43a8.15,8.15,0,0,0-.12-2l-.32-3.31-.52-5.33c-.12-1.21-2-1.31-2.88-1.09a2.32,2.32,0,0,0-2,2.39l.48,5,.34,3.41c0,.35.08.71.1,1.06s-.1.64,0,.27l.42-.93-.17.2.95-.73-.26.09,1.29-.34-20,1.95-2.12.21-.57.05c-.27,0-.33-.08.14,0l1,.39-.21-.17.57.79a6.34,6.34,0,0,1-.23-1.62l-.34-3.47-.33-3.44c0-.38-.1-.77-.12-1.16a1.34,1.34,0,0,0,0-.35c-.06-.21.13-.08.09.09l-.42.93.2-.19c1.37-1.33-.51-2.75-1.85-2.62-.2,0-2.1.14-2.1.21s.36.19.43.1c1.28-1.86,0-.07,0-.16s0-.06,0-.08a4.08,4.08,0,0,0-.2-1l-1.06-5L198,147.78l-9.36-44.07L186.5,93.5c-.19-.9-1.42-1.3-2.22-1.2h0l2.22,1.2-.21-2.23-.15-1.49a3.88,3.88,0,0,0,0-.48c-.06-.24.09-.31.05,0l-.41.94.16-.21-.94.73.25-.09-1.29.34,16.23-1.58,25.71-2.51,4.29-.42,1.21-.11c.31,0,.64.08.06,0l-1-.39.2.17-.56-.79c.52,1.39.38,3.23.53,4.71l2.6-2.49h0c-1,.1-2.63.76-2.65,2l-.44,28.75-.67,43.89-.1,6.31a12.16,12.16,0,0,0,0,1.35c.08.53-.53,1.24.83-.23.13-.14.47,0,.07,0s-.56.06-.83.08l-1.09.11c-1.33.13-3.94,2-2,3.28l.22.15-.57-.79.11.25a2.31,2.31,0,0,0,2.88,1.08C229.69,173.52,231.31,172.48,230.81,171.36Z"/><path class="cls-2" d="M317.93,138a8.73,8.73,0,0,0-11.29,1.09,13,13,0,0,0-2.6,3.66c-.42.87-1.31,2.51-.56,3.4l.63-2.07-11.05,9.69L272.8,171.53,265.4,178l-2,1.72c-.58.51-1,.88-1.52.88-1.41,0-2.41-1.11-3.3-2.07a44.22,44.22,0,0,1-3.29-3.69,3.31,3.31,0,0,1-.79-1.53c0-.13-.06-.12-.11,0,.12-.34,1-.87,1.23-1.09l4.91-4.31,15.6-13.67,13-11.38c2-1.73,4.13-3.37,6-5.24l.17-.15-3.8,0h0c.66,1.14,3,.65,3.8,0q9.29-8.16,18.59-16.3l27.71-24.29,6.51-5.7-3,.54,3.05,1,1.95.62.7.21c.25.07.48.28.16,0s-.24-.1-.14,0c-.61-.41-.25-.3-.1-.07s.19.28.29.41.09.25,0-.1c.05.12.12.23.16.35a6.14,6.14,0,0,1,.23.84c0,.17.05.34.08.51.09.6,0-.27,0,.23a13.84,13.84,0,0,1-.42,3.07c-.05.16-.34,1.11-.16.56-.12.36-.25.73-.39,1.09-.31.79-.66,1.56-1,2.32a63.84,63.84,0,0,1-9.18,13.08c-3.09,3.62-6.37,7.07-9.74,10.43q-3.17,3.15-6.44,6.2c-1.24,1.15-2.48,2.29-3.74,3.43-.59.54-1.19,1.08-1.8,1.61a4.48,4.48,0,0,0-.83.73c-.3.21-.18.2.34,0,.34.05.29,0-.14-.22a3.29,3.29,0,0,0-3.46.32c-.78.57-1.3,1.72-.29,2.38a5.55,5.55,0,0,0,4.42.71c1.78-.44,3-1.74,4.34-2.92q3.42-3.08,6.76-6.22c3.71-3.52,7.34-7.12,10.81-10.88a92.92,92.92,0,0,0,12.34-15.94c2.06-3.54,5.33-9.75,2.52-13.79a3.35,3.35,0,0,0-.83-.85,3.29,3.29,0,0,0-.89-.37c-1.36-.47-2.75-.87-4.13-1.3-1.54-.48-3.07-1-4.57,0-.17.13-.33.29-.48.42l-2.91,2.55-26.71,23.41q-9.45,8.3-18.91,16.58l-3.79,3.33,3.79,0h0c-.67-1.15-3-.64-3.8,0-5.78,4.95-11.45,10-17.18,15.06L259.54,164l-4.89,4.29-2.52,2.21a8.11,8.11,0,0,0-2.17,2.2c-1.44,2.85,2.44,6,4.11,7.76a9.84,9.84,0,0,0,4.3,3.13,8.52,8.52,0,0,0,8.3-1.9l5.73-5,20.42-17.89q7.11-6.24,14.22-12.47l.24-.21c.54-.48,1.25-1.32.63-2.06l-.07-.09.22.84a4.27,4.27,0,0,1,.62-1.7,9.06,9.06,0,0,1,1.47-2.21,4.67,4.67,0,0,1,.9-.83c.4-.3,0-.06.38-.23.61-.29-.4.06.26-.1.38-.09-.05-.05.24,0-.3,0,.6.1.43.06a5.22,5.22,0,0,1,1.82.92C315.84,141.84,320.13,139.52,317.93,138Z"/><path class="cls-2" d="M358.09,326.06l-24.59,6.43-37,9.71a53.59,53.59,0,0,0-10.69,3.53c-2.58,1.28-4.94,3-7.46,4.36a24.58,24.58,0,0,1-9.68,3.28,29.58,29.58,0,0,1-15.14-2.89,66.31,66.31,0,0,0-7.35-3.31,23.82,23.82,0,0,0-8.68-1c-5,.32-9.22,2.18-13.71,4l-31.61,13.07-.74.31c-.27.11-1.13.5-1,.93l.75,3.27c.17.7,2.31.13,2.61.06L225,360.2l4.49-1.1-2.61-.06,1.19,4.44,2.23-1.35-31,8.39-4.45,1.21c-.38.1-2.43.66-2.23,1.36l1,3.34c.2.71,2.26.14,2.6.06l31.15-7.76,4.43-1.1-2.61-.06,1.26,4.7,2.22-1.35-31.16,8.58L197,380.72c-.35.09-2.46.69-2.23,1.35l1.13,3.15c.25.71,2.22.16,2.6.06l31.15-7.76,4.42-1.1-2.6-.06,1.19,4.45,2.23-1.36-31.28,8.83-4.41,1.24c-.36.1-2.45.68-2.23,1.36l1.1,3.3c.19.55,1.62.26,2,.21l35.88-5.76c1.53-.25,3.08-.45,4.6-.74A26.38,26.38,0,0,0,254.16,381a35.43,35.43,0,0,0,4.7-6.19,34.41,34.41,0,0,1,6.21-7.19,25.4,25.4,0,0,1,6.33-4.11,19.73,19.73,0,0,1,5.41-1.58,54.43,54.43,0,0,1,9.9-.32,29,29,0,0,0,8.47-1.18L309,356.75l44.31-11.87,6.83-1.83,1.8-.48c1.64-.44-1.81.33.08,0,4.08-.76,8.13-4.42,10.21-7.89.9-1.49,1.48-3.34.35-4.86-1.39-1.88-3.89-2.88-6.05-3.52a15.9,15.9,0,0,0-8.41-.21c-.43.1-2.42.65-2.23,1.35s2.27.14,2.6.06c-.31.08.75,0,.88,0a11.85,11.85,0,0,1,1.87.26,15.48,15.48,0,0,1,3.8,1.34c1.63.83,3.66,2.15,3.32,4.27-.29,1.89-1.79,3.59-3.08,4.89a21.83,21.83,0,0,1-2.4,2.11c-.25.18-.5.36-.76.53l-.48.3c-.21.11-.2.11,0,0-.23.1-.17.08.2-.07l1.51-.34a7.44,7.44,0,0,0-1.25.23h0l-.06,0-.42.11-1.67.45-6.34,1.69L310.5,354.82l-14.93,4-1.31.35c-.71.19-1.21.31-1.81.43-.34.07-1.19.15-.37.12H291c-3.33,0-6.64-.22-10,.07a37.72,37.72,0,0,0-13.64,3.73,34.75,34.75,0,0,0-12.7,11.26,46.46,46.46,0,0,1-4.68,6.38,17.12,17.12,0,0,1-7,4.54c-.69.22-1.41.34-2.09.57-.35.12.92-.15.27-.07s-1.32.22-2,.32l-37.31,6-1,.16,1.95.2-1.1-3.3-2.22,1.36,31.28-8.83,4.41-1.24c.39-.11,2.41-.65,2.22-1.36l-1.19-4.44c-.19-.71-2.28-.14-2.6-.06l-31.15,7.76-4.43,1.1,2.6.06-1.12-3.15-2.22,1.35,31.16-8.58,4.44-1.22c.39-.11,2.41-.65,2.23-1.35L234,366.27c-.18-.7-2.28-.14-2.6-.06L200.22,374l-4.43,1.11,2.61.06-1-3.35-2.22,1.35,31-8.39,4.46-1.21c.39-.1,2.41-.65,2.22-1.35l-1.19-4.44c-.19-.71-2.28-.14-2.6-.06l-31.24,7.63-4.49,1.09,2.6.06-.76-3.27-1,.93,28.44-11.75,7-2.88,1.85-.77.46-.19.1,0c-1.46.68-1.36.45-.66.28a18.6,18.6,0,0,1,6.92-.65,23.1,23.1,0,0,1,7.6,2.4c5,2.55,10.1,4.52,15.79,4.84,8.58.47,16.55-2.75,23.71-7.17l1.67-1,.76-.46c.15-.09,1-.53.5-.29.79-.4,1.59-.77,2.4-1.13,1.08-.48-.39,0,.12-.08,1.15-.26,2.29-.61,3.43-.91l35-9.18c9.58-2.51,19.17-5,28.74-7.53l.46-.12c.43-.11,2.42-.64,2.23-1.35S358.41,326,358.09,326.06Z"/><path class="cls-2" d="M222.86,311.79l1-2.38c.33-.82,1-2,.63-2.83s-1.29-1-2-1.31L219.33,304c-1.72-.7-4-1-4.45-3s.52-4,1.22-5.67l9.17-22.5,3.3-8.09-3,1.07a17,17,0,0,0,13.95-.66,23.08,23.08,0,0,0,10-11.15c2.24-4.94,4.13-10.07,6.18-15.09l2.58-6.32a1,1,0,0,0-.71-1.42l-6.37-2.13.71,1.42,3.3-7.62c.35-.81-.31-1.49-1.15-1.51l-7-.11,1.27,1.16.53-14.45c0-.58-.32-.86-.82-1.07l-15.88-6.46c-2.22-.91-5.85-3-7.47.09-.58,1.12-1,2.38-1.45,3.54q-6.78,16.65-13.57,33.29c-3.8,9.38-3.63,22.12,7,26.7l-.71-1.42-6.57,16.11-4.39,10.77c-.77,1.89-1.64,3.78-2.24,5.73-.16.52-.27,1.06-.46,1.57,0,.11-.23.38-.22.49s.35,0,.45-.22-.57-.12-.56-.11c-.18-.06-.35-.15-.52-.22l-5.19-2.11c-1.25-.51-2.85-1.49-4.25-1.38-2.56.19-3,2.59-3.85,4.55-.32.8-.83,1.72-.2,2.52a2.72,2.72,0,0,0,1.13.71l2.4,1,10.11,4.11,11.42,4.65c1.93.79,3.88,1.77,5.88,2.4a3.36,3.36,0,0,0,3.6-1.07c1.46-1.93-2.2-2.34-3.2-1l.27-.15,1.52-.28c.21,0,0,0-.07,0a4.73,4.73,0,0,0-.62-.25l-2.18-.89-7.16-2.92L195,300l-2.68-1.09a5.94,5.94,0,0,0-.79-.32c-.17,0-.24-.21-.17-.15l.43.55c0-.09-.29.15-.09-.18a3.6,3.6,0,0,0,.22-.54l.75-1.81a5,5,0,0,0,.48-1.18c0-.69-1.79,1-2.08.61,0,0,.17.06.22.09a15.29,15.29,0,0,0,2.4,1l3.56,1.45c2,.8,3.86,1.74,6.08,1.15,2.8-.74,2.89-3.29,3.8-5.57,2.93-7.42,6-14.79,9-22.18l3.59-8.82c.29-.7-.06-1.14-.7-1.42-9.17-3.93-8.85-15.85-5.7-23.67,1.68-4.16,3.38-8.3,5.07-12.44l7.67-18.82,2.16-5.28a2.14,2.14,0,0,0,.16-.42c.12-.69-2.48.15-1.77.62a14.26,14.26,0,0,0,2.32.94l16.89,6.88-.81-1.07-.54,14.45a1.2,1.2,0,0,0,1.27,1.16l7,.11-1.15-1.51-3.3,7.63a1,1,0,0,0,.7,1.42l6.37,2.12-.7-1.42-5.54,13.57c-2.2,5.39-4.05,11.46-8.58,15.4a11.92,11.92,0,0,1-12.67,2.12,2.67,2.67,0,0,0-3,1.07l-7.22,17.72-4.36,10.67c-1.14,2.8-3,6.07-2.33,9.11.53,2.51,2.77,3.21,4.84,4.05l3.44,1.4,1.33.54a1.51,1.51,0,0,0,.35.14c.2.05.11.14.07.11l-.43-.56c0,.07.27-.12.1.14a2.09,2.09,0,0,0-.17.41l-.54,1.33-.79,1.94C218.38,313.41,222.25,313.27,222.86,311.79Z"/><path class="cls-2" d="M268.54,264.23l11-25.84L293,206.93a27.23,27.23,0,0,0,2.45-8,9.33,9.33,0,0,0-1.47-6.41,12,12,0,0,0-5.4-3.8l-2.83,3.12,8.76,3.52,20.56,8.27,23.4,9.41,17.66,7.11,3.86,1.55c3.58,1.46,5.08,4.87,4.72,8.6a16.71,16.71,0,0,1-1.13,4.62,1.29,1.29,0,0,0,.89,1.79h0l-.89-1.78-9.93,23.27-14.2,33.29L338,295c-.15.35-.3.7-.47,1a8.3,8.3,0,0,1-1.74,2.52,3.3,3.3,0,0,1-1.66.91c-1.39.2-2.75-.49-4-1l-4.46-1.79-35-14.09-14.68-5.91-3.43-1.38a7.22,7.22,0,0,1-4.59-5.46,9.85,9.85,0,0,1,.65-5.57c1-2.48-3.82-2.32-4.59-.45-1.66,4-1.6,9,1.72,12.17a14.14,14.14,0,0,0,4.74,2.73l12.08,4.86,37,14.88c2.95,1.19,5.89,2.41,8.85,3.56a10.49,10.49,0,0,0,11.74-2.51,15.86,15.86,0,0,0,2.74-4.68l12.9-30.23L368,235.86l.21-.49a1.26,1.26,0,0,0-.88-1.78h0l.89,1.78c2.13-5.51,2.41-12.68-3.52-15.93a32.57,32.57,0,0,0-3.63-1.57l-15.79-6.35-23.45-9.44-21.91-8.81c-3.7-1.49-7.37-3.2-11.14-4.48l-.16-.07c-1.92-.77-5.63,2-2.83,3.12a8.22,8.22,0,0,1,3.92,2.94,7.27,7.27,0,0,1,.87,4.88,24.24,24.24,0,0,1-2,6.64l-4.91,11.51-15.63,36.65-4,9.33C262.9,266.24,267.75,266.09,268.54,264.23Z"/><path class="cls-2" d="M353.66,298.34,296.13,275.2,288,271.92a2.52,2.52,0,0,0-1.83.14,2.19,2.19,0,0,0-1.45,1c-1.12,2.53-2.52,5.74-5,7.22-1.84,1.08-3.86.48-5.73-.23-1.64-.63-5,1.7-2.51,2.69l64.16,25.82a15,15,0,0,0,6,1.4c6.12-.16,10.46-4.87,12.81-10.12C354.76,299.12,354.34,298.62,353.66,298.34Z"/><path class="cls-2" d="M287.31,257.94l1-2.25L332,273.26l-1,2.25-43.68-17.57Zm4.47-10.46,1-2.26,43.68,17.58-1,2.25-43.68-17.57ZM296.24,237l1-2.26,43.68,17.57-1,2.26L296.24,237Zm4.46-10.47,1-2.25,43.68,17.57-1,2.26L300.7,226.55Zm4.47-10.46,1-2.25,43.68,17.57-1,2.25-43.68-17.57Z"/></svg>