<svg id="Layer_1" data-name="Layer 1" xmlns="http://www.w3.org/2000/svg" viewBox="0 0 442.87 442.87"><defs><style>.cls-1{fill:#263a29;fill-rule:evenodd;}.cls-2{fill:#fff;}</style></defs><path class="cls-1" d="M439.4,219.83c-4.94,289.22-435.15,289.17-440,0C4.3-69.39,434.5-69.34,439.4,219.83Z"/><path class="cls-2" d="M297.11,86.41H128.43c-2.28,0-4.56,0-6.83,0h-.3c-1.24,0-4.07.62-4.07,2.26V331.36c0,3.24-.25,6.6,0,9.83,0,.15,0,.29,0,.44,0,.65,1.36.7,1.73.7H313.24c2.63,0,5.27,0,7.91,0h.34c1.24,0,4.07-.62,4.07-2.26V114.47c0-1.21-1.12-1.86-1.94-2.67L300.57,88.74l-1.93-1.93c-1.29-1.3-6.74.83-5.41,2.17l20.27,20.27,4.81,4.81c.44.44.87.9,1.32,1.33s.07.22.13,0a9.33,9.33,0,0,0,0,2.42v223.8l4.07-2.26H129.55c-2.62,0-5.29-.13-7.91,0h-.34l1.73.7V97.38c0-3.27.13-6.57,0-9.83,0-.15,0-.29,0-.43L119,89.37H287.64c2.27,0,4.55,0,6.83,0h.3c1.22,0,3.1-.43,3.84-1.51S298,86.41,297.11,86.41Z"/><path class="cls-2" d="M154,198h116c5.35,0,10.71.1,16.06,0h.22c1.22,0,3.1-.44,3.84-1.52s-.65-1.45-1.5-1.45h-116c-5.35,0-10.71-.1-16.06,0a1.61,1.61,0,0,1-.22,0c-1.22,0-3.1.44-3.84,1.52s.65,1.45,1.5,1.45Z"/><path class="cls-2" d="M154.46,223.05h116c5.35,0,10.71.1,16.05,0a1.77,1.77,0,0,1,.23,0c1.22,0,3.1-.44,3.84-1.52s-.65-1.45-1.5-1.45h-116c-5.35,0-10.71-.1-16.06,0h-.22c-1.23,0-3.1.44-3.85,1.52s.66,1.45,1.51,1.45Z"/><path class="cls-2" d="M154.46,244.72h116c5.35,0,10.71.1,16.05,0h.23c1.22,0,3.1-.44,3.84-1.51s-.65-1.45-1.5-1.45h-116c-5.35,0-10.71-.1-16.06,0h-.22c-1.23,0-3.1.44-3.85,1.51s.66,1.45,1.51,1.45Z"/><path class="cls-2" d="M155.29,267.65h116c5.35,0,10.71.1,16.06,0h.22c1.22,0,3.1-.44,3.84-1.52s-.65-1.44-1.5-1.44h-116c-5.35,0-10.71-.11-16.06,0h-.22c-1.22,0-3.1.43-3.84,1.51s.65,1.45,1.5,1.45Z"/><path class="cls-2" d="M155.29,292.24h116c5.35,0,10.71.1,16.06,0h.22c1.22,0,3.1-.44,3.84-1.51s-.65-1.45-1.5-1.45h-116c-5.35,0-10.71-.1-16.06,0h-.22c-1.22,0-3.1.44-3.84,1.51s.65,1.45,1.5,1.45Z"/><path class="cls-2" d="M196,114.69a18.21,18.21,0,0,1-3.49,11.48c-.07.09-.39.48-.16.21-.15.19-.32.37-.48.54q-.49.54-1,1l-.47.41c-.1.09-.66.53-.19.17-.38.3-.77.57-1.17.83s-.71.42-1.06.64.44-.2-.16.09l-.65.31c-.41.18-.82.36-1.23.52s-.7.22-.12.05l-.7.21c-.43.13-.86.24-1.3.34-.11,0-.9.19-.42.1s-.3,0-.43.07c-.44.07-.89.12-1.34.16-.24,0-.48,0-.73.06l-.31,0c-.4,0,.51,0,.11,0a26.39,26.39,0,0,1-2.81-.1l-.62-.07c.57.07-.14,0-.28-.05-.48-.08-.95-.18-1.42-.29s-.87-.22-1.3-.35l-.6-.18-.39-.14c.22.08.12.05,0,0a21.25,21.25,0,0,1-2.51-1.18,15.09,15.09,0,0,1-4.05-3.15A17.6,17.6,0,0,1,162.17,114l-4,2.08h39.69c1.29,0,3.12-.39,3.81-1.63s-.56-1.88-1.62-1.88H160.36c-1,0-4,.53-4,2.08a20.16,20.16,0,0,0,4.1,13A20.82,20.82,0,0,0,171,134.45c8.56,2.48,19.12.38,25.4-6.17A20,20,0,0,0,201.85,114c0-1.32-1.46-1.52-2.54-1.41C198.43,112.73,196,113.43,196,114.69Z"/><path class="cls-2" d="M277.13,115.14a18,18,0,0,1-3.59,11.34,12.17,12.17,0,0,1-1.67,1.79c-.33.3-.68.58-1,.85l-.49.37c-.3.22.24-.14-.32.21-.35.22-.7.43-1.06.62l-.64.34c-.28.15.19-.09.2-.09l-.37.17c-.41.17-.83.35-1.25.5s-.69.23-.12,0l-.69.21c-.43.13-.87.23-1.31.33s.64-.1-.13,0l-.72.12c-.45.07-.89.11-1.34.15s.19,0,.2,0l-.41,0-.73,0c-.46,0-.91,0-1.36,0-.18,0-.62,0-.19,0l-.83-.09a23.45,23.45,0,0,1-2.76-.49,9.39,9.39,0,0,1-1-.28c-.46-.15-.91-.31-1.36-.49a19.13,19.13,0,0,1-2.5-1.2,17.7,17.7,0,0,1-4-3.26,18.34,18.34,0,0,1-4.42-12.73l-4.06,2.29h39.69c1.23,0,3.1-.43,3.84-1.53s-.64-1.51-1.52-1.51H241.5c-1.3,0-4,.62-4.06,2.3a19.45,19.45,0,0,0,4.21,12.66,20.16,20.16,0,0,0,10.24,6.42c8.85,2.47,19.47.25,25.92-6.51a19.83,19.83,0,0,0,5.12-14.12C282.91,112,277.11,113,277.13,115.14Z"/><path class="cls-2" d="M216.7,114.57v54.62c0,3.08,5.88,2.26,5.88-.41V114.16c0-3.09-5.88-2.27-5.88.41Z"/><path class="cls-2" d="M183.2,174.24h69.15a7.37,7.37,0,0,0,4.1-1.1c.85-.57.84-1.35-.36-1.35H186.93a7.44,7.44,0,0,0-4.09,1.09c-.85.58-.84,1.36.36,1.36Z"/></svg>