<svg id="Layer_1" data-name="Layer 1" xmlns="http://www.w3.org/2000/svg" viewBox="0 0 442.87 442.87"><defs><style>.cls-1{fill:#263a29;}.cls-2,.cls-3{fill:#fff;}.cls-2{stroke:#fff;stroke-miterlimit:10;stroke-width:3px;fill-rule:evenodd;}</style></defs><circle class="cls-1" cx="219.12" cy="219.82" r="220.02"/><path class="cls-2" d="M224.86,122.23c.07-10.14-.08-20.21-.29-30.35A1.55,1.55,0,0,0,223,90.34,1.62,1.62,0,0,0,221.48,92c.22,10.07.37,20.14.3,30.2a1.44,1.44,0,0,0,1.46,1.55,1.56,1.56,0,0,0,1.62-1.47Z"/><path class="cls-2" d="M274,135.45c5.14-8.74,10.05-17.56,15-26.45a1.51,1.51,0,0,0-.66-2.06,1.48,1.48,0,0,0-2.06.59c-4.84,8.82-9.75,17.64-14.89,26.31A1.58,1.58,0,0,0,272,136a1.5,1.5,0,0,0,2.05-.52Z"/><path class="cls-2" d="M175.64,135.38c-5-8.82-10.2-17.49-15.41-26.09a1.63,1.63,0,0,0-2.12-.58,1.54,1.54,0,0,0-.51,2.13c5.2,8.67,10.34,17.26,15.33,26.08a1.56,1.56,0,0,0,2.12.59,1.63,1.63,0,0,0,.59-2.13Z"/><path class="cls-3" d="M72.05,244.17C85.49,251,97.5,260.1,110,268.5c3.6,2.42,7.25,4.78,11,7,1.2.72,3.19.16,4.28-.54.91-.58,1.72-1.73.5-2.46-12.88-7.71-24.69-17-37.46-24.9-3.72-2.3-7.53-4.46-11.43-6.44a4.71,4.71,0,0,0-4.28.54c-.84.53-1.8,1.81-.5,2.46Z"/><path class="cls-3" d="M216.1,191l-4.67-3.16c-1.72-1.16-3.83-3.28-6.07-3a49.32,49.32,0,0,0-6.56,1.58l-29.68,7.39-12.27,3.05c-1,.24-2,.44-2.92.73-1.16.34,1.21-.17,1.38.11-.06-.1-.41-.21-.51-.26l-22.16-11.29c-7.28-3.71-14.52-7.52-21.84-11.14l-.39-.19a4.54,4.54,0,0,0-4.29.49c-.85.57-1.78,2-.46,2.62l16,8.15,24.55,12.51c1.74.88,3.67,2.24,5.62,2.62,2.13.42,4.92-.68,7-1.19L185,193.47c6.7-1.67,13.46-3.16,20.11-5l.33-.08-2.83-.15,8.73,5.91c1.82,1.23,7.32-1.38,4.75-3.12Z"/><path class="cls-3" d="M211,309.24a12.48,12.48,0,0,1,1.44,9.11,15.7,15.7,0,0,1-3.21,6l-5.86,7.42a.69.69,0,0,0,0,.91c1.6,2.16,3.1,4.26,5.52,5.59,3.39,1.87,7.55,1.59,11.07.28,3.8-1.4,7.39-4.47,8.42-8.51.83-3.24-.23-6.34-2.15-9-2.38-3.23-4.79-6.45-7.18-9.67-1-1.38-2.11-2.73-3.08-4.15a2.6,2.6,0,0,1-.25-.33,1.63,1.63,0,0,1-.11-.31,2.3,2.3,0,0,1,0-.57l-2.16.61.21.23a3.63,3.63,0,0,0,.47.64c4.45,6,8.85,12,13.36,18a11.6,11.6,0,0,0,8.31,4.7,15.57,15.57,0,0,0,11.75-4.14,10.4,10.4,0,0,0,3.28-10.27,15.18,15.18,0,0,0-2.72-4.89l-7.69-10.35-3.69-5c-.32-.44-.68-.86-1-1.31-.06-.09-.14-.16-.19-.25s-.07-.3-.12-.44c-.25-.67,1.11-.73-1-.13s-1.07,0-.87.55a12.55,12.55,0,0,0,1.79,2.41l4,5.4,7.14,9.59a15.93,15.93,0,0,0,3.71,4,12.76,12.76,0,0,0,10.68,1.42c4.09-1.15,8-3.9,9.56-8,1.32-3.45.35-7-1.76-9.9-4.34-5.93-8.76-11.8-13.14-17.7a3.8,3.8,0,0,1-.29-.38c-.13-.24-.07-.61-.16-.8l0-.14-2.17.61c.34,5.51.16.09.21.23l.05.06a2.51,2.51,0,0,0,.27.37l2.88,3.87,8.31,11.19,2,2.67a12.13,12.13,0,0,0,7.36,5,15.4,15.4,0,0,0,11.83-3,14.47,14.47,0,0,0,5.32-8.66c.74-3.19.79-6.7-1.13-9.47-.84-1.21-5.53.35-4.51,1.82,1.94,2.78,1.39,6.74.43,9.77s-3,6.33-6.4,7.07c-4.3.93-7.24-2.84-9.54-5.93l-7.93-10.69-3.43-4.61c-.9-1.22-1.54-2.22-3.28-2.29-2.59-.09-6.6,1.93-4.52,4.86.79,1.12,1.64,2.21,2.46,3.32l8.23,11.09c2.47,3.32,5.55,6.75,4.4,11.25-.8,3.14-3.67,6.23-7,6.36s-5.73-2.21-7.54-4.65L238.7,293.11c-.22-.29-.42-.61-.66-.89-1-1.16-2.77-1.17-4.18-.79-1.61.43-4,1.87-3.16,3.89a5.21,5.21,0,0,0,.67,1l7,9.43c2,2.63,3.92,5.25,5.86,7.89a9,9,0,0,1,1,9.7c-1.56,2.88-4.68,5-8,4.21-3.83-.92-6-4.73-8.2-7.69l-8.24-11.1c-.84-1.13-1.67-2.28-2.53-3.39-1.7-2.22-6.05-1.39-7.36.91-.87,1.52.37,2.74,1.22,3.89l3.8,5.12,4.07,5.48a30.32,30.32,0,0,1,2.51,3.55,8.72,8.72,0,0,1-1.31,10.35,6.69,6.69,0,0,1-8.42,1.47c-2.22-1.18-3.59-3.33-5-5.29l0,.9,6-7.63a16.77,16.77,0,0,0,3.48-6.82,13.49,13.49,0,0,0-1.51-9.37c-.84-1.51-5.48.13-4.83,1.3Z"/><path class="cls-3" d="M326,173.92l-16.57,8.54L283,196.08l-4.38,2.26-1.26.65c-.46.24-1.18.42.5-.22l2.35-.54c.81-.1,0-.09-.42-.19l-2.34-.59-8.31-2.06-22.86-5.69-16-4a5.4,5.4,0,0,0-1.61-.22c-2.28.08-4.44,1.29-6.48,2.2q-2.7,1.18-5.38,2.42l-2.33,1.09-.38.18c-.79.38-.76.39.07,0a10.08,10.08,0,0,1-1.56.69q-2.58,1.24-5.14,2.55c-3,1.57-6.07,3.2-9,4.93-6,3.46-11.81,7.23-17.5,11a58.33,58.33,0,0,0-14.21,13,29.5,29.5,0,0,0-3.64,6.08c-1,2.34-2,5.4-1,7.9,1.81,4.56,8.81,3.66,12.56,3a53.94,53.94,0,0,0,19.34-7.8,62.77,62.77,0,0,1,8.68-4.9,38.42,38.42,0,0,1,6.88-2.4c1-.24-.59.11.38-.08l1.07-.21q1.24-.24,2.52-.36a40.51,40.51,0,0,1,5.28-.17c1.46,0,2.92.15,4.37.28,1.68.14,3.28,1.56,4.68,2.46a170.82,170.82,0,0,1,17,12.44,180.76,180.76,0,0,1,14.94,14.09c2.61,2.74,5.17,5.54,7.69,8.37,1.46,1.64,3,3.23,4.34,5,4,5.21,7.81,10.52,11.72,15.77l1.14,1.54c.41.56,1.49.35,2.06.26a10.15,10.15,0,0,0,3.25-1.05l15.1-7.86c4.48-2.32,9-4.57,13.44-7,4.13-2.25,8.21-4.6,12.32-6.9l21.18-11.86c4.37-2.44,8.8-4.79,13.1-7.34l.21-.11c1-.55.76-1.16-.32-1.18a8.84,8.84,0,0,0-4.26,1.14L350,248.71l-21.19,11.87-14.35,8c-3.63,2-7.39,3.86-11.08,5.78-5.86,3.05-11.78,6-17.59,9.15l-.35.18,5.31-.79c-4.35-5.86-8.56-11.85-13.07-17.59-2.89-3.68-6.23-7.1-9.41-10.53s-6.58-6.93-10.06-10.22a164.7,164.7,0,0,0-21.35-17.07c-2.12-1.44-4.26-2.89-6.48-4.19-1.7-1-4.09-.85-6-1a51.65,51.65,0,0,0-14.61,1.28,56.64,56.64,0,0,0-11.51,4.06c-2.07,1-4.1,2.09-6.06,3.28-1.06.63-2.1,1.3-3.12,2a18.69,18.69,0,0,1-3,1.77,61.47,61.47,0,0,1-6.09,2.59c-1,.34-1.52.52-2.22.72l-1.24.32c.53-.13-.5.1-.66.13a11.14,11.14,0,0,1-1.66.22,12.59,12.59,0,0,1-1.66,0c.24,0-.32,0-.4-.06-.25,0-.51-.08-.75-.14a5.08,5.08,0,0,1-2.12-1c-2.87-2.39-1.13-7.14.22-9.92a35.59,35.59,0,0,1,6-8.42,58.83,58.83,0,0,1,10.26-8.63c3.87-2.58,7.79-5.12,11.74-7.58A214.81,214.81,0,0,1,221.89,190c2.28-1,4.58-2.05,6.88-3.05l-4.21.81L243,192.37,271,199.32c2.42.6,4.82,1.53,7.33,1.06s5-2.06,7.32-3.24l25.27-13c6.45-3.32,13-6.51,19.35-10l.33-.17c1-.53.73-1.16-.32-1.18a9.22,9.22,0,0,0-4.26,1.14Z"/><path class="cls-3" d="M190.75,307.84,181.91,319c-1.95,2.47-3.79,5-3.92,8.32-.21,5.22,3.4,9.75,8.14,11.6a13.66,13.66,0,0,0,13.88-2.5,37.18,37.18,0,0,0,4.43-5.25l5.52-7c1.81-2.3,3.7-4.53,4.3-7.5,1.18-5.8-2.88-11.2-8.15-13.2a13.75,13.75,0,0,0-15.36,4.32c-1.86,2.27,2.76,2.49,3.95,1.05a7.74,7.74,0,0,1,4.52-3.1,7.92,7.92,0,0,1,4.86,1c3.83,2.08,6.3,6.43,5.24,10.77-.55,2.25-2,3.89-3.36,5.64l-4.88,6.19c-1.09,1.38-2.17,2.78-3.28,4.15-2.17,2.69-4.84,3.95-8.2,2.72-4-1.46-7.15-5.67-6.72-10a9,9,0,0,1,.82-3,12.62,12.62,0,0,1,1-1.7l.29-.4c-.22.3-.16.2-.11.14.35-.46.72-.91,1.08-1.37l8.74-11.08C196.52,306.58,191.91,306.37,190.75,307.84Z"/><path class="cls-3" d="M182.73,319.06l9.69-12.28-.15.19.45-.58,1.46-1.84a19.3,19.3,0,0,0,3.23-5.08c2-5.39-.73-11.08-5.52-13.9a13.68,13.68,0,0,0-16.5,2.23,57.63,57.63,0,0,0-4.18,5.15l-6.56,8.32a63.06,63.06,0,0,0-4.14,5.35c-3.62,5.77-1.33,12.84,4.4,16.2a13.78,13.78,0,0,0,17.51-3.37c1.88-2.26-2.75-2.46-3.94-1s-2.81,3-4.88,3.18a8.84,8.84,0,0,1-6-2,9.52,9.52,0,0,1-2.05-13.46c2.93-4,6.16-7.81,9.23-11.7,1.25-1.58,2.47-3.2,3.76-4.76a8,8,0,0,1,3.57-2.67,7.52,7.52,0,0,1,6,1.07c4.35,2.56,6.54,8,4.09,12.65a26.64,26.64,0,0,1-2.77,3.83l-1.19,1.51c-.27.33-.12.15.07-.09l-.38.48q-4.87,6.15-9.73,12.33c-.74.93.63,1.61,1.37,1.66A3.72,3.72,0,0,0,182.73,319.06Z"/><path class="cls-3" d="M163.36,303.55l10.28-13c1.58-2,3.5-4,4.44-6.43,2.06-5.25-.7-11-5.52-13.57-5.18-2.78-12-1.58-16.28,2.34-2.23,2-4,4.76-5.83,7.11-2.84,3.6-5.73,7.17-8.51,10.81a10.86,10.86,0,0,0-2.26,9.18,12,12,0,0,0,5.92,7.42c5.85,3.19,13.62,1.24,17.76-3.84.66-.81-.59-.9-1.16-.86-.95.06-2.58.37-3.23,1.17-1.18,1.45-2.69,3.07-4.69,3a10.46,10.46,0,0,1-6.8-3.14,10,10,0,0,1-1-13.52c2.49-3.26,5.08-6.45,7.62-9.66,1.66-2.12,3.32-4.24,5-6.34,1-1.24,2.32-2.79,4-3.14,2-.42,4.38.66,6,1.73,4.2,2.83,6.18,8.16,3.91,12.85a29.77,29.77,0,0,1-3.72,5.16l-10.28,13c-.64.82.57.9,1.16.86C161.06,304.66,162.72,304.35,163.36,303.55Z"/><path class="cls-3" d="M126.64,292c1,0,2.54-.81,2.66-2s-1.28-1.61-2.24-1.61-2.54.82-2.66,2,1.28,1.6,2.24,1.6Z"/><path class="cls-3" d="M143.9,289.22c2.3-2.93,4.81-5.77,6.92-8.84a11.51,11.51,0,0,0,1.09-12,13.64,13.64,0,0,0-10.28-7.18,13.46,13.46,0,0,0-11.43,4.21c-1.51,1.58-2.78,3.43-4.13,5.14-1,1.25-2,2.5-2.95,3.75-2.49,3.19-3.81,7.19-2.52,11.17a13.39,13.39,0,0,0,23.3,3.74,1.43,1.43,0,0,0-.64-2.37,3.28,3.28,0,0,0-3.41.91c-1.84,2.27-4.28,3.65-7.24,3a10.19,10.19,0,0,1-7.23-6.73c-1-3.1,0-6,2-8.5l2.4-3c2.43-3.09,5.09-8,9.56-7.8,3.37.13,6.51,2.6,8,5.53a8.8,8.8,0,0,1-1.11,9.48c-2.09,2.72-4.25,5.38-6.37,8.07a1.44,1.44,0,0,0,.63,2.37A3.29,3.29,0,0,0,143.9,289.22Z"/></svg>