<svg id="Layer_1" data-name="Layer 1" xmlns="http://www.w3.org/2000/svg" viewBox="0 0 442.87 442.87"><defs><style>.cls-1{fill:#263a29;}.cls-2,.cls-3{fill:#fff;}.cls-3{stroke:#fff;stroke-miterlimit:10;stroke-width:2px;}</style></defs><circle class="cls-1" cx="219.38" cy="221.84" r="220.02"/><path class="cls-2" d="M66.2,333.08H381c.86,0,2.12-.24,2.53-1.14s-.32-1.44-1.13-1.44H67.61c-.87,0-2.12.24-2.53,1.14s.31,1.44,1.12,1.44Z"/><path class="cls-2" d="M247.74,295.67c-.13,4.72-2.78,10-7.45,11.64-4.52,1.62-9.55-1-12.23-4.64a13.9,13.9,0,0,1-.93-14.47,11.41,11.41,0,0,1,4.93-5,8.08,8.08,0,0,1,6.38,0c5,1.84,9.3,7.07,9.3,12.49,0,.94,3.87.3,3.87-1,0-5.73-4.74-11.11-9.89-13.1a15,15,0,0,0-16.84,4.75,14.83,14.83,0,0,0-.94,17.08c3.41,5.25,9.75,7.26,15.73,5.84a15.35,15.35,0,0,0,11.94-14.57C251.63,293.73,247.78,294.34,247.74,295.67Z"/><ellipse class="cls-2" cx="324.12" cy="290.2" rx="8.28" ry="8.62"/><path class="cls-2" d="M330.46,289.91a7.59,7.59,0,0,1-4.43,6.94,6.1,6.1,0,0,1-1.87.46,7.07,7.07,0,0,1-1.84-.15,5.64,5.64,0,0,1-3-2,7.78,7.78,0,0,1-.53-8.56,6.7,6.7,0,0,1,6.73-3.42,4.82,4.82,0,0,1,1.83.72,5.69,5.69,0,0,1,1.52,1.36,7.66,7.66,0,0,1,1.57,4.66c0,1.8,3.91,2.63,3.88.59a10.63,10.63,0,0,0-6.83-9.7,9.86,9.86,0,0,0-12.14,14.35,10.8,10.8,0,0,0,11.13,5,9.82,9.82,0,0,0,7.84-9.62C334.37,288.69,330.48,287.85,330.46,289.91Z"/><ellipse class="cls-2" cx="133.53" cy="292.21" rx="8.28" ry="8.62"/><path class="cls-2" d="M139.87,291.91a7.6,7.6,0,0,1-4.42,6.95,5.81,5.81,0,0,1-1.87.45,6.78,6.78,0,0,1-1.85-.14,5.64,5.64,0,0,1-3-2,7.8,7.8,0,0,1-.53-8.56,6.71,6.71,0,0,1,6.74-3.42,4.85,4.85,0,0,1,1.82.71,6.11,6.11,0,0,1,1.53,1.37,7.58,7.58,0,0,1,1.56,4.65c0,1.81,3.91,2.64,3.89.59a10.64,10.64,0,0,0-6.84-9.69,9.86,9.86,0,0,0-12.14,14.35,10.81,10.81,0,0,0,11.13,5,9.83,9.83,0,0,0,7.85-9.63C143.78,290.7,139.9,289.86,139.87,291.91Z"/><path class="cls-2" d="M356.72,291.77c-.06,13.83-8.2,27.61-21.43,32.57-12.93,4.85-27.53-.88-35.73-11.52a37.09,37.09,0,0,1-2.68-40.38,33.16,33.16,0,0,1,14.5-13.63A29.23,29.23,0,0,1,330.47,257c13.76,3.32,23.85,15.49,25.86,29.31a38.07,38.07,0,0,1,.39,5.44c0,1.17,4.84.36,4.83-1.29-.07-15.21-9.52-29.52-24-34.64-14.79-5.22-32.12,0-41.93,12.12a38.08,38.08,0,0,0-3,43,36.25,36.25,0,0,0,16.3,14.49,37.15,37.15,0,0,0,22.85,2.06,38,38,0,0,0,29.4-31.12,41.75,41.75,0,0,0,.43-5.91C361.56,289.32,356.73,290.12,356.72,291.77Z"/><path class="cls-2" d="M165.62,293.32c-.07,13.85-8.28,27.44-21.48,32.39-12.92,4.84-27.49-.74-35.7-11.4a36.8,36.8,0,0,1-2.65-40.22,32.93,32.93,0,0,1,14.28-13.44,29.77,29.77,0,0,1,19.44-1.93c13.7,3.22,23.72,15.45,25.72,29.15a39.84,39.84,0,0,1,.39,5.45c0,1.45,4.84.55,4.83-1.29-.07-15.21-9.55-29.61-24.06-34.73-14.92-5.27-32-.14-41.93,12.12a38.29,38.29,0,0,0-3,43.09,36.23,36.23,0,0,0,16.33,14.57,37.16,37.16,0,0,0,22.87,2.16A38.14,38.14,0,0,0,170,298a42.3,42.3,0,0,0,.42-6C170.45,290.59,165.63,291.47,165.62,293.32Z"/><path class="cls-2" d="M236.65,295.31H90.93a1.94,1.94,0,0,1-1.9-2h0a1.94,1.94,0,0,1,1.9-2H232l-18.19-60.54,5.13,1.1Z"/><path class="cls-2" d="M237.05,294.85H91.78a2.94,2.94,0,0,1-.42,0,1.58,1.58,0,0,1-1-.61,1.88,1.88,0,0,1-.29-1.64,1.45,1.45,0,0,1,.47-.76c.16-.12,0,0,0,0a5.15,5.15,0,0,1,1.11,0h140c.25,0,1.5-.24,1.36-.7l-1.8-6-4.35-14.46-5.25-17.49L217,238l-1.5-5a19.26,19.26,0,0,0-.71-2.35l0-.1-1.75.66,3.74.81a5.22,5.22,0,0,0,1.39.29c-.33,0-.13-.28-.14,0a3.92,3.92,0,0,0,.28,1l.52,1.88,4,14.19,5.45,19.52,4.94,17.73,1.65,5.93a21.54,21.54,0,0,0,.81,2.88l0,.12c.15.53,2.08,0,1.93-.51l-1.76-6.34-4.21-15.08-5.12-18.36-4.4-15.77-1.46-5.24a16.39,16.39,0,0,0-.69-2.49.38.38,0,0,1,0-.1.28.28,0,0,0-.18-.16l-5.14-1.1c-.31-.06-1.93.08-1.75.67l1.81,6L219,251.56,224.28,269l4.54,15.13,1.5,5a19.26,19.26,0,0,0,.71,2.35.38.38,0,0,1,0,.1l1.37-.71H94.8c-1.73,0-4.21-.36-5.68.71a2.32,2.32,0,0,0-.82,2.91,2.42,2.42,0,0,0,2.23,1.23H236.25c.35,0,1.09-.15,1.28-.49S237.36,294.85,237.05,294.85Z"/><path class="cls-2" d="M188.6,292.24h-119a2.62,2.62,0,0,1-.74,0c-.69-.25-.69-1-.69-1.59V199.89c0-.17,0-.36,0-.53a.4.4,0,0,1,0-.11v0l0-.34c.21-.38.09-.47-.37-.26-.47,0-.62.06-.47.06a3.66,3.66,0,0,0,.74,0H184.54a9.15,9.15,0,0,1,2.56,0c1.12.41.69,3,.69,3.85V291c0,.18,0,.35,0,.53v.11c0,.55-.37.65.32.59-.69.06-2.06.49-2.2,1.31s1.14.89,1.67.84c1.93-.17,4-1.33,4.08-3.45,0-.58,0-1.17,0-1.75V202.16c0-1.21.3-3.19-.33-4.28-1-1.64-3-1.39-4.66-1.39H69.5c-2.25,0-5.11.84-5.17,3.49,0,1.7,0,3.4,0,5.09v86a3.49,3.49,0,0,0,.4,2.1,3.43,3.43,0,0,0,3,1.28c4.34.06,8.68,0,13,0H187.1a3.08,3.08,0,0,0,2.55-1.06C190.09,292.62,189.27,292.24,188.6,292.24Z"/><path class="cls-3" d="M255.07,260.53c17.82-14.4,30.81-39,31-39.4a1.86,1.86,0,0,1,2.57-.8,2,2,0,0,1,.76,2.67c-.8,1.53-14.83,28.16-34.41,42.55"/><path class="cls-3" d="M234.34,291.82a2,2,0,0,1,0-3.94c28.9,0,55.39-50.25,55.66-50.76a1.86,1.86,0,0,1,2.57-.79,2,2,0,0,1,.76,2.67C292.21,241.15,265.49,291.82,234.34,291.82Z"/><path class="cls-3" d="M265.45,209.74a11,11,0,0,1-1.6-.09,1.46,1.46,0,0,1-1.23-1.65,1.44,1.44,0,0,1,1.59-1.28c.43.05,10.53,1.2,19.6-9.14a1.38,1.38,0,0,1,2-.09,1.51,1.51,0,0,1,.1,2.08C277.9,208.71,269,209.74,265.45,209.74Z"/><path class="cls-3" d="M324.7,290.18a1.83,1.83,0,0,1-1.28-.52c-.41-.39-40.46-39.24-40.46-92.9a1.9,1.9,0,1,1,3.79,0c0,51.89,38.84,89.62,39.23,90a2,2,0,0,1,.11,2.79A1.86,1.86,0,0,1,324.7,290.18Z"/><path class="cls-3" d="M264.26,206.23a1.91,1.91,0,0,0-2.11,1.71,2,2,0,0,0,1.64,2.2,13.53,13.53,0,0,0,1.64.09A25.44,25.44,0,0,0,275.58,208a1.16,1.16,0,0,0,.6-1.41l-.52-1.59a1.07,1.07,0,0,0-1.48-.65A20.1,20.1,0,0,1,264.26,206.23Z"/><path class="cls-2" d="M251.6,273.65a5.25,5.25,0,0,1-1.16,3.33,4.15,4.15,0,0,1-2.73,1c-2.58.18-5.24-.45-6.63-2.81-1.22-2.07-1-4.94-.91-7.24.05-.72.14-1.43.2-2.14l2-21,.58-6.3a1.13,1.13,0,0,0-.84-1.15l-19.71-6.53c-2.59-.86-5.26-1.6-7.81-2.57a8.22,8.22,0,0,1-4.87-4.17c-1.37-3-1.42-6.7-1.26-9.93.47-9.13,1.27-18.27,2-27.38.47-5.73.29-14,7.25-15.89,3.29-.87,6.58.39,9.73,1.24,4.49,1.22,9,2.41,13.46,3.61s8.94,2.4,13.41,3.62c4.19,1.15,8.48,2.2,12.56,3.69,2.85,1,4,3.49,3.26,6.39a14.78,14.78,0,0,1-2.18,4.14c-.08.13-.25.13,0,0s.21,0,0-.06c-.75-.24-1.6-.33-2.36-.53q-13.33-3.51-26.66-7l-5.72-1.53c-1-.27-3,.09-3.08,1.45q-1,14.24-2,28.47a1.12,1.12,0,0,0,.84,1.15c5.19,1.4,10.38,2.76,15.56,4.16a69.24,69.24,0,0,1,7.42,2.13,8,8,0,0,1,3.78,3c2,3,1.25,6.46.84,9.74l-3.73,30.16-1.12,9c-.24,2,3.7,1.45,3.92-.3l2.94-23.72,1.84-14.87c.42-3.37,1.13-6.82-.3-10.08-2-4.54-6.36-5.73-10.76-6.94-6-1.66-12.11-3.24-18.16-4.87l.84,1.15,2-28.47L230.89,187c9.27,2.5,18.57,4.94,27.85,7.39,2.31.61,4.61,1.32,6.94,1.79a5.84,5.84,0,0,0,4.46-.66c2.55-1.67,4.2-5.65,4.11-8.63-.09-3.49-2.6-5.66-5.75-6.69-4.65-1.52-9.39-2.78-14.11-4.07-9.65-2.62-19.31-5.31-29-7.8-6.45-1.66-13.61.33-16.77,6.58-1.86,3.68-1.77,8.1-2.1,12.11-.4,5-.75,9.93-1.11,14.9s-1,9.73-1,14.59c0,3.24.29,6.8,1.91,9.68,2,3.63,6.12,4.66,9.8,5.88l23.06,7.64.62.2-.84-1.15-1.72,18.46-.91,9.83c-.4,4.26-.56,9.47,3.43,12.15,2.7,1.81,6.72,2,9.8,1.22a7.56,7.56,0,0,0,5.92-7.07C255.69,271.37,251.75,271.9,251.6,273.65Z"/><path class="cls-2" d="M222,164.83c6.35,1.6,13.38-.36,17.2-5.89a16,16,0,0,0-.43-18c-8.32-11.24-27.53-4.25-28.37,9.15-.47,7.36,4.79,12.9,11.6,14.78a2.86,2.86,0,0,0,2.73-.74,1,1,0,0,0-.45-1.67c-4.89-1.35-9-4.86-9.85-10a12.71,12.71,0,0,1,6-12.88,10.91,10.91,0,0,1,13.27,1.29,14.29,14.29,0,0,1,3.46,14.72,10.47,10.47,0,0,1-12.86,6.9,2.89,2.89,0,0,0-2.73.73A1,1,0,0,0,222,164.83Z"/></svg>