<svg id="Layer_1" data-name="Layer 1" xmlns="http://www.w3.org/2000/svg" viewBox="0 0 442.87 442.87"><defs><style>.cls-1{fill:#263a29;}.cls-2{fill:#fff;}</style></defs><circle class="cls-1" cx="219.38" cy="220.85" r="220.02"/><path class="cls-2" d="M244.5,196.52a25.78,25.78,0,0,0,7.82,6.42,23.66,23.66,0,0,0,9.19,2.05,33.44,33.44,0,0,0,18.38-3.92c12.23-6.82,19.26-20.68,21.34-34.12.81-5.21.74-10.5.85-15.76L298.76,153h12.88a4.06,4.06,0,0,0,2.65-.82c.43-.38,1-1.14.47-1.7L293.7,129l-2.94-3c-1.05-1.07-3.26-.49-4.2.47l-21.06,21.4-2.94,3c-1,1-.17,2.06,1.08,2.06h13.59l-1.53-1.27c-.55,6-.82,12.17-2.5,18C270.85,178,266,186,258.64,190.65a20.42,20.42,0,0,1-11,3.34c-1.08,0-2.62.31-3.17,1.39s.43,1.67,1.38,1.67a31.26,31.26,0,0,0,23.69-11.47c6.17-7.3,9.44-16.54,10.29-26l.75-8.4c.08-.84-.79-1.28-1.53-1.28H265.43l1.08,2.06,21.06-21.4,2.94-3-4.21.47,21.07,21.4,2.93,3,3.13-2.53H300.55c-.9,0-3.3.44-3.32,1.79-.08,3.76-.05,7.54-.34,11.29a54.44,54.44,0,0,1-5.44,20.2,38.78,38.78,0,0,1-11.2,13.91A23.06,23.06,0,0,1,266.39,202c-3.16,0-6.45-.05-9.44-1.2-3.22-1.25-5.75-3.73-8-6.26-1.25-1.41-5.86.4-4.45,2Z"/><path class="cls-2" d="M244.69,217.53a25.39,25.39,0,0,0,.2,10.2,23,23,0,0,0,4.37,8,30.42,30.42,0,0,0,14.35,10.5c13.68,4.64,29.35.31,41.15-7.2A131.87,131.87,0,0,0,317,229.6l-4.2.47,8.34,9.81c1,1.17,4.51.41,4.66-1.25l2.67-29.91.37-4.17c.08-.87-.79-1.22-1.53-1.27l-29.95-2.2-4.17-.3c-1-.07-4.4,1-3.13,2.52l8.8,10.36.69-1.87c-4.61,3.25-9.13,6.81-14.25,9.22-7.74,3.64-16.75,5.11-25,2.46a23.7,23.7,0,0,1-10.88-7.2c-1.22-1.43-5.84.36-4.46,2,6,7,15.18,9.86,24.17,9.61,9.7-.27,19-4.05,26.84-9.6l6.69-4.73c.55-.39,1.26-1.19.69-1.87l-8.8-10.36-3.13,2.53,30,2.19,4.17.31-1.53-1.28L321.26,235l-.37,4.17,4.66-1.25-8.34-9.81c-1-1.22-3.23-.33-4.2.46l-3.74,3.05c-1.74,1.41-2.88,2.37-4.58,3.61a52,52,0,0,1-18.46,8.66c-10.94,2.61-23.27.79-30.86-8.13-2.13-2.51-4.27-5.16-5.35-8.32-1.16-3.37-1-6.91-.47-10.38.3-2.14-4.6-1.36-4.86.5Z"/><path class="cls-2" d="M248.7,265.48c1.94-2.19,4.17-4.44,6.78-5.63A19.1,19.1,0,0,1,263,258.5a26,26,0,0,1,15.1,4.05c11,7,16.81,20.22,18.45,32.71a128.81,128.81,0,0,1,.65,14,1.36,1.36,0,0,0,1.53,1.28h12.88l-1.08-2.06-21.06,21.4-2.94,3,4.2-.46L269.7,311l-2.94-3-3.12,2.53h13.59c1.23,0,3.45-.56,3.31-2.18-.59-6.62-.91-13.28-3-19.64-2.82-8.69-8.26-16.86-16.27-21.54a27.34,27.34,0,0,0-13.68-3.78c-1.08,0-2.62.31-3.17,1.38s.43,1.68,1.38,1.68c8.2,0,15.39,4.65,20.33,10.95,5.4,6.91,8.05,15.44,8.83,24.08l.73,8.16L279,307.5H265.43a4.05,4.05,0,0,0-2.65.83c-.44.37-1,1.14-.47,1.7l21.06,21.4,2.93,3c1.06,1.07,3.27.48,4.21-.47l21.06-21.4,2.93-3c1-1,.17-2.06-1.07-2.06H300.55l1.53,1.28c-.09-4.28,0-8.6-.45-12.87a55.42,55.42,0,0,0-6.41-21.15,40,40,0,0,0-13-14.57A33.49,33.49,0,0,0,254,257.28a26,26,0,0,0-9.24,7.15,1.11,1.11,0,0,0,.53,2,3.71,3.71,0,0,0,3.42-.92Z"/><path class="cls-2" d="M192.68,184.2A88.52,88.52,0,0,0,185.83,207c-.08.55-.16,1.09-.23,1.64a2.54,2.54,0,0,1-.11.67c-.06.16-.22.27-.28.41s-.07,0,.07,0,.24-.07.27,0h0a.94.94,0,0,0-.29,0l-3-.16-8.93-.46L155,208.06l-6.27-.33-3.56-.18c-1-.05-2.1.06-2.23-1.25a5.24,5.24,0,0,1,.42-1.85c.18-.58.37-1.15.56-1.72.46-1.37,1-2.71,1.46-4.06,2.55-6.74,5.5-13.34,8.7-19.8,1.58-3.2,3.24-6.37,5-9.46a13.8,13.8,0,0,1,3.23-3.94,11.57,11.57,0,0,1,4.34-2.19,11.21,11.21,0,0,1,2.81-.36H180l10.51,0,15.93,0,22.33,0h12a1.14,1.14,0,0,1,.83.26,1.32,1.32,0,0,1,.12,1.78s.09,0,0,0a5.31,5.31,0,0,1-.71.21l-8.64,2.62-13.5,4.09-12.41,3.77c-1.86.56-3.71,1.14-5.57,1.68a12.59,12.59,0,0,0-8.14,7c-.59,1.36,2.31,1.1,2.72.14a9.62,9.62,0,0,1,6.08-5.59l2-.62,10.62-3.22,14.07-4.27,11.17-3.38,2.57-.78a4.84,4.84,0,0,0,2-1,2.48,2.48,0,0,0-.95-4.3,12.21,12.21,0,0,0-3.42-.16H229.15l-12.18,0-19.07,0-12.93,0H170.5a16.52,16.52,0,0,0-7.12,1.58,15.66,15.66,0,0,0-4.7,3.41,23.17,23.17,0,0,0-3,4.46,210.81,210.81,0,0,0-9.87,20.28c-1.35,3.15-2.65,6.34-3.83,9.57-.47,1.28-.92,2.57-1.33,3.87-.47,1.5-1.14,3.33.46,4.41a6.44,6.44,0,0,0,3.39.63l3.53.18,6.44.34,10.5.54,13,.67,5.37.28,1.09.06h.38a4.33,4.33,0,0,0,2.9-1.3,4.86,4.86,0,0,0,.92-2.87,81.34,81.34,0,0,1,3.07-13.18,92.45,92.45,0,0,1,3.68-9.72C196,183,193.11,183.24,192.68,184.2Z"/><path class="cls-2" d="M143.39,216l14.3-.44,22.62-.69,3.37-.11a11.32,11.32,0,0,1,1.54-.05c.71.1.8,1.21.89,1.8l.89,5.76,1.74,11.18L194,267.55l3.22,20.74L198.91,299l.62,4a5.58,5.58,0,0,1,.09.59,1.43,1.43,0,0,1-.18.83c.06-.11-.13.2-.13.19s.34-.06.35-.07-.63-.45-.65-.48a19,19,0,0,1-1.36-2.46l-1.48-2.72-5.08-9.37L183,274.57l-9.15-16.86-2.89-5.31c-.07-.13-.14-.28-.22-.41a2.47,2.47,0,0,0-.51-.61,3.73,3.73,0,0,0-6.05,2.49l-.73,3.06-7.73,32.22-2.94,12.26c-.16.65-.29,1.31-.47,1.95h0s-.17.59-.28.53.32-.11.34-.13c.17,0,.15,0-.07,0s-.2,0-.16,0c-.67-.27-.64-1.09-.7-1.68l-.31-3.18L150,287.58,148.12,268l-2.67-27.51L144,225.18l-.65-6.74c-.05-.55-.15-1.11-.16-1.67,0,0,0,0,0,0h0c0,.28.07-.23.07-.23a1.3,1.3,0,0,1,.18-.42c.09-.15.49-.63,0-.12-.06.06-.33.06,0,0,.56,0,1.53-.42,1.63-1.06s-.83-.76-1.29-.74c-1.75.06-3.61,1.43-3.48,3.33,0,.12,0,.25,0,.38l.35,3.63,1,10.59,2,21.11,3.43,35.32,1.12,11.54c.1,1,.2,2,.29,2.95a2.47,2.47,0,0,0,1.12,2.06,4.09,4.09,0,0,0,5.11-1.09,3.09,3.09,0,0,0,.46-1.15c.4-1.72.82-3.42,1.23-5.13l4.75-19.8,4.47-18.62,1.38-5.77a7.22,7.22,0,0,1,.31-1.06c.19-.5,0,.06,0-.06h-.18a.31.31,0,0,1,.19.06,4.08,4.08,0,0,1,.33.25,2.12,2.12,0,0,1,.32.42v0c.45.76.85,1.56,1.27,2.34l6.08,11.2L190,293.61l5.45,10a5.89,5.89,0,0,0,1.45,2.14,3.43,3.43,0,0,0,2.55.53,3.36,3.36,0,0,0,3.08-3.49s0-.05,0-.08c-.08-.62-.2-1.25-.29-1.88l-1.09-7-2.42-15.6-4.31-27.77-3-19.29-1.76-11.33L189.2,217a8.16,8.16,0,0,0-.63-2.82,3,3,0,0,0-3-1.23c-5.13.19-10.27.32-15.41.48l-22.44.68-4,.13c-.56,0-1.53.41-1.63,1S142.93,216,143.39,216Z"/><path class="cls-2" d="M181.73,159.17a17.38,17.38,0,0,1-11-30.39,16.38,16.38,0,0,1,4-2.58,13.27,13.27,0,0,1,4.53-1.15,16.36,16.36,0,0,1,9.87,2.45,17.37,17.37,0,0,1,3.37,27.06,16.28,16.28,0,0,1-3.89,2.91,14,14,0,0,1-4.37,1.5,15.75,15.75,0,0,1-2.48.2,2.61,2.61,0,0,0-1.93.74c-.39.54.34.67.74.67,8,0,15.65-4.78,18.6-12.28a18.18,18.18,0,0,0-5.39-20.47c-6.27-5.18-15.43-5.5-22.38-1.44a18.18,18.18,0,0,0,6.17,34,20,20,0,0,0,3,.22,2.63,2.63,0,0,0,1.92-.74C182.85,159.3,182.12,159.17,181.73,159.17Z"/><path class="cls-2" d="M289,108.37a134.68,134.68,0,0,0-60-21.54,135.13,135.13,0,0,0-132,67.81A133.09,133.09,0,0,0,81,202.91,133.78,133.78,0,0,0,190.93,352a135.35,135.35,0,0,0,77.29-9.35c1-.42,1.76-1.61,1.1-2.6s-2.33-.85-3.29-.43A129.52,129.52,0,0,1,118.2,307a130.43,130.43,0,0,1,5.32-180.11,129,129,0,0,1,161.82-15.66,3.07,3.07,0,0,0,3.47-.26c.8-.63,1.26-2,.23-2.63Z"/></svg>