<svg id="Layer_1" data-name="Layer 1" xmlns="http://www.w3.org/2000/svg" viewBox="0 0 442.87 442.87"><defs><style>.cls-1{fill:#263a29;}.cls-2,.cls-3{fill:#fff;}.cls-3,.cls-4{stroke:#fff;}.cls-3{stroke-miterlimit:10;stroke-width:2.5px;}.cls-4{fill:none;stroke-linecap:round;stroke-linejoin:round;stroke-width:3px;}</style></defs><circle class="cls-1" cx="218.36" cy="221.84" r="220.02"/><path class="cls-2" d="M52.37,308.54H367.13c1.32,0,3.14-.37,3.79-1.7s-.51-2.16-1.69-2.16H54.47c-1.32,0-3.14.36-3.79,1.7s.5,2.16,1.69,2.16Z"/><path class="cls-2" d="M125.68,280.64a22.15,22.15,0,0,0,13.86,21.42A24.43,24.43,0,0,0,166.11,296a22.15,22.15,0,0,0,3.24-25.57c-4.59-8.38-14.4-12.69-23.73-11.15C135,261,126.27,269.66,125.68,280.64c-.13,2.28,4.76,1.46,4.86-.47.41-7.59,5.15-14.92,12.61-17.22s15.68.89,20.27,7.17a19.89,19.89,0,0,1,.62,22.3,17.46,17.46,0,0,1-19.11,7.51,19.8,19.8,0,0,1-14.39-19.76C130.63,277.87,125.75,278.71,125.68,280.64Z"/><circle class="cls-3" cx="148.86" cy="281.35" r="9.53" transform="translate(-49.5 32.41) rotate(-10.67)"/><path class="cls-2" d="M261.37,279.31a22.16,22.16,0,0,0,13.86,21.42,24.45,24.45,0,0,0,26.58-6.05A22.17,22.17,0,0,0,305,269.11c-4.58-8.38-14.4-12.69-23.73-11.15-10.63,1.75-19.35,10.37-19.94,21.35-.12,2.28,4.76,1.46,4.86-.47.41-7.59,5.15-14.92,12.61-17.22s15.68.89,20.27,7.17a19.91,19.91,0,0,1,.63,22.3,17.47,17.47,0,0,1-19.11,7.51,19.8,19.8,0,0,1-14.4-19.76C266.32,276.54,261.44,277.38,261.37,279.31Z"/><circle class="cls-3" cx="284.55" cy="280.02" r="9.53" transform="translate(-46.91 57.5) rotate(-10.67)"/><path class="cls-2" d="M311.8,286.54c8.28.59,17.59.2,24.75-4.53a19.13,19.13,0,0,0,8.29-13.45c.4-2.77.27-5.57.43-8.36.18-3.2.46-6.4.38-9.62A27.32,27.32,0,0,0,344,241a20.73,20.73,0,0,0-6.39-8.51c-3.62-2.88-7.86-4.64-12.17-6.24-4.62-1.71-9.35-3.11-14.09-4.44-5.39-1.51-10.8-2.92-16.19-4.39-2.47-.68-5-1.28-7.41-2.1-.43-.14-.13,0,0,0l-.4-.17c-.33-.15-.67-.3-1-.47q-.92-.47-1.8-1c-5.64-3.54-10.12-9.08-14.34-14.21-4.79-5.82-9.32-11.89-14.51-17.37-4-4.25-8.94-8.89-14.91-10A145.65,145.65,0,0,0,226,170.58q-7.77-.57-15.56-.77a330.26,330.26,0,0,0-62.59,3.84c-14.74,2.44-26.13,12.66-34.78,24.3a107.92,107.92,0,0,0-13,22.45,200.41,200.41,0,0,0-9.73,29.2c-1.65,6.66-3.45,14.34-1,21,2.9,8.05,10.41,13.19,18.15,16a45.73,45.73,0,0,0,12.78,2.58c1.35.09,3.24-.46,4-1.72s-.62-2-1.71-2c-7.84-.5-16.1-3.17-21.89-8.68a19.91,19.91,0,0,1-5.77-9.44,24.71,24.71,0,0,1-.15-9.73A124.63,124.63,0,0,1,100,236.68q2.49-7.62,5.43-15.07l.15-.38c.12-.31-.21.5,0,.1,0-.13.11-.27.16-.41l.12-.29c.38-.9.79-1.79,1.21-2.68a121.8,121.8,0,0,1,6.36-11.73,94,94,0,0,1,11.07-14.82q1.75-1.89,3.64-3.65.84-.78,1.71-1.53c.57-.49,1.36-1.14,1.67-1.39a51.23,51.23,0,0,1,4.21-3c.64-.4,1.29-.79,2-1.15l.07,0,.51-.26c.41-.22.84-.42,1.26-.62.77-.36,1.55-.69,2.34-1,.18-.07,1.14-.41.54-.2.44-.16.89-.3,1.34-.43q1.09-.33,2.19-.57l.56-.12c.89-.19-.39.06.16,0l1.7-.28c4.79-.76,9.6-1.38,14.43-1.89,10-1.06,20.1-1.64,30.18-1.8,10.28-.16,20.58.1,30.84.86,2.36.17,4.73.38,7.09.61l3.47.37,1.81.21.8.1c.75.08-.14,0,.3,0s1,.23,1.57.39c.1,0,.85.3.42.13.33.13.66.28,1,.43a23.24,23.24,0,0,1,3.55,2.14c5.28,3.81,9.61,9.26,13.73,14.33,4.59,5.64,9,11.47,14.05,16.7a48.82,48.82,0,0,0,7.24,6.31,28.8,28.8,0,0,0,9,3.82c10,2.8,20.17,5.2,30.06,8.48,7.27,2.41,15.61,5.35,19.39,12.6,2.91,5.55,2.48,12,2.1,18.05-.18,2.79-.12,5.59-.35,8.37a26.41,26.41,0,0,1-.54,3.64c-.13.57-.29,1.14-.47,1.69a10.23,10.23,0,0,1-.57,1.52,16.7,16.7,0,0,1-1.79,3c-.27.36-.07.09,0,0l-.34.39c-.21.24-.43.47-.66.7s-.41.4-.63.59l-.33.28c-.56.47.44-.31-.17.12s-1,.7-1.54,1l-.42.23c.55-.3.06,0-.09,0-.34.17-.68.33-1,.48s-.74.3-1.11.44.48-.15,0,0l-.67.21c-.85.25-1.72.46-2.59.64.55-.11-.66.1-.76.12l-1.32.17c-1.07.13-2.14.21-3.22.25a61.7,61.7,0,0,1-6.66-.16c-1.36-.1-3.25.46-4,1.71s.63,2,1.71,2.05Z"/><path class="cls-2" d="M257.86,284.46H179.38c-1.26,0-3.23.47-4,1.54s.72,1.36,1.53,1.36h78.48c1.25,0,3.23-.47,4-1.54s-.72-1.36-1.53-1.36Z"/><path class="cls-2" d="M210.48,194l-.22,22.25,0,3.21c0,1.35,1.56,1.5,2.63,1.38.9-.1,3.4-.8,3.41-2.1l.22-22.24,0-3.21c0-1.36-1.57-1.51-2.63-1.39-.91.11-3.41.81-3.42,2.1Z"/><path class="cls-2" d="M251.78,219.59H151.11a41,41,0,0,0-4.15,0h-.17l1.86,1a41.4,41.4,0,0,1,.15-17.17,22.1,22.1,0,0,1,2.14-6,13.26,13.26,0,0,1,3.95-4.72c-.41.31.15-.09.29-.19s.45-.29.68-.43,1-.52.36-.21c.3-.15.59-.29.89-.41s.54-.22.81-.32c.43-.17-.52.15-.07,0l.38-.12,1-.27.54-.11c-.31.06-.29,0,0,0,.5-.07.71-.15.1-.09H160a2.08,2.08,0,0,1,.35,0l1.52,0q20.94-.31,41.88,0a38.6,38.6,0,0,1,17.69,4.28A54.39,54.39,0,0,1,234.8,205a78,78,0,0,1,8.91,10.86c.9,1.32,1.77,2.67,2.59,4.05.29.48.56.95.83,1.43-.28-.49.19.36.32.58l.16.32c.61,1.21,2.31,1.1,3.45.79.69-.18,3.18-1.24,2.59-2.41a72.6,72.6,0,0,0-11.11-15.76c-8.33-9.18-19.11-16.25-31.64-17.6-4.47-.48-9.05-.29-13.53-.33s-8.92-.06-13.38-.06c-6.15,0-12.3,0-18.45.13-1.09,0-2.17,0-3.26.05a21.07,21.07,0,0,0-8.16,2.07,20,20,0,0,0-10.21,11.18,35.23,35.23,0,0,0-2.06,13,42,42,0,0,0,.69,8.52c0,.14.05.28.08.42.14.75,1.25,1,1.86,1h92.09c4.24,0,8.49.05,12.73,0h.18c1.36,0,3.2-.42,4-1.68S252.83,219.59,251.78,219.59Z"/><path class="cls-4" d="M118.32,196.27c.28-1.45,2.79-2.9,3.16-4.34.57-2.24,3.44-4.46,4.2-6.65s1.62-4.34,2.57-6.45,2-4.18,3.13-6.2,2.36-4,3.66-5.91,2.7-3.77,4.16-5.57a80.85,80.85,0,0,1,9.72-10c1.75-1.51,3.58-2.95,5.46-4.31s3.83-2.63,5.83-3.82,4-2.28,6.14-3.29,4.22-1.93,6.4-2.75a81.33,81.33,0,0,1,8.91-2.78,24.25,24.25,0,0,0,22.84,16.08h10.61c1.42,0,2.45-3.64,3.09-8.92h15.86a4,4,0,0,0,4-4v-.2a4,4,0,0,0-4-4H218.84c.21-4.6.21-9.57,0-14.16h15.22a4,4,0,0,0,4-4v-.2a4,4,0,0,0-4-4H218.2c-.64-5.28-1.67-8.91-3.09-8.91H204.5a24.23,24.23,0,0,0-23.94,20.35,92.3,92.3,0,0,0-12,3.39A90.24,90.24,0,0,0,154,132.46c-2.32,1.34-4.59,2.79-6.78,4.33s-4.33,3.19-6.38,4.92a92.68,92.68,0,0,0-11.34,11.42,91.44,91.44,0,0,0-9.16,13.26c-1.33,2.34-2.56,4.74-3.68,7.18s-2.11,5-3,7.5a89.31,89.31,0,0,0-4,15.63c-.21,1.25-.38,2.5-.53,3.76C113.49,198.87,113.63,197.47,118.32,196.27Z"/></svg>