<svg xmlns="http://www.w3.org/2000/svg" viewBox="0 0 200 200"><g id="Layer_1" data-name="Layer 1"><path d="M50.37,160V68.65c0-1.22.1-2.49,0-3.71v-.17l-4,2.16H65.66l-1.85-1.56v54.42c0,2.35,3.56,1.51,4.77.77l25.79-15.87,3.69-2.27-4.77-.77v18.14c0,2.38,3.54,1.47,4.77.77l25.83-14.91,3.64-2.1-4.77-.77v17c0,2.57,4.19,1.44,5.29.34l22.31-22.31,3.19-3.19-5.28-.35V160.6c0,1.35,1.45,1.65,2.58,1.54,1-.1,3.25-.83,3.25-2.14V93.68c0-2.58-4.2-1.44-5.29-.35L126.5,115.65l-3.19,3.19,5.28.35v-17c0-2.38-3.55-1.47-4.77-.77L98,116.32l-3.63,2.1,4.77.77V101.05c0-2.35-3.56-1.52-4.77-.77L68.56,116.15l-3.69,2.27,4.77.77V64.77a1.65,1.65,0,0,0-1.84-1.55H48.53c-1.07,0-4,.53-4,2.15v83.49c0,3.85,0,7.71,0,11.57v.17c0,1.35,1.46,1.65,2.58,1.54,1-.1,3.25-.83,3.25-2.14Z"/><path d="M62.53,58.64a8.65,8.65,0,0,1-3.65-8.57,9.57,9.57,0,0,1,.83-2.45s.19-.35,0-.09c0-.09.11-.18.17-.27a6.45,6.45,0,0,1,.37-.54,6.25,6.25,0,0,1,.4-.5c.12-.15.54-.58.17-.22a10.31,10.31,0,0,1,1-.8c.46-.35-.48.27,0,0,.13-.07.84-.43.3-.19s.12,0,.24-.09.2-.06.29-.11-.85.24-.47.16l.58-.15c.38-.12-.51.1-.48.1a1.84,1.84,0,0,0,.4-.06c.55-.1-.77,0,0,0,.16,0,1,.06.51,0s.28,0,.41.06l.7.14c.29.05-.13,0-.16,0l.4.12c.23.08.46.17.68.27s.44.21.66.32l.14.07c-.14-.09.32.21.32.2,1.33.9,3.36.52,4.75-.08a4.75,4.75,0,0,0,2-1.31c.26-.35.51-1,0-1.32-4.68-3.14-11.15-2.64-15.85.27-4.06,2.52-6.68,7.09-5.51,11.93a10.28,10.28,0,0,0,4,5.88c1.3.92,3.39.5,4.75-.08.55-.24,3.3-1.72,2-2.63Z"/><path d="M66.1,42a9.4,9.4,0,0,1,.66-3.6c.13-.32.28-.63.44-.94.06-.11.51-.81.18-.33a13.08,13.08,0,0,1,1.3-1.59c-.41.42.06-.05.23-.19s.47-.35.7-.54.32-.22,0,0c.12-.08.25-.15.38-.22l.93-.46c.72-.34-.65.15.19-.06l.88-.23q.63-.14-.09,0l.61-.07.94,0c-.75,0,.18,0,.32,0,.35,0,.71.1,1.06.17s.2,0-.11,0l.57.18c.29.1.57.2.84.32.11.05.82.4.35.15a9.35,9.35,0,0,1,1,.63c.24.17.47.35.7.54,0,0,.67.6.33.26a10.51,10.51,0,0,1,1.29,1.6c.16.24.32.49.46.75,0,0,.39.8.21.4a10.41,10.41,0,0,1,.86,3.72c0,1.79,1.73,2.71,3.4,2.56,1.45-.14,4-1.18,4-3a13.78,13.78,0,0,0-9.13-12.94,16.22,16.22,0,0,0-17.35,4.57,13.88,13.88,0,0,0-3.42,8.84c0,1.8,1.76,2.71,3.39,2.56s3.94-1.17,4-3Z"/><path d="M88.58,40.25A19.67,19.67,0,0,1,92,29.32a18.44,18.44,0,0,1,3.67-4,16.11,16.11,0,0,1,2-1.4,6.55,6.55,0,0,1,.76-.4l.61-.28c.67-.3-.36.13.4-.15.13-.05.7-.23,0,0l.65-.18c.14,0,.72-.15,0,0l.67-.13c.09,0,.66-.08.12,0l.69-.07a13.14,13.14,0,0,1,1.32,0,17.37,17.37,0,0,1,5.29.94,19.42,19.42,0,0,1,9,6.43,20.17,20.17,0,0,1,4.13,12.16c0,1,7.26,0,7.24-1.94A20.66,20.66,0,0,0,114,20.82a26.14,26.14,0,0,0-15.07.23,26,26,0,0,0-12.57,7.66,20.74,20.74,0,0,0-5,13.48c0,1,7.23.05,7.24-1.94Z"/><path d="M83.66,150.14H68.59l1,.44v-7.67l-4.76,2H79.92l-1-.44v7.68c0,1,5.8.17,5.8-1.56v-7.67c0-.35-.88-.45-1-.45H68.59a8.06,8.06,0,0,0-3.21.66c-.54.22-1.55.63-1.55,1.34v7.68c0,.35.88.44,1,.44H79.92a7.46,7.46,0,0,0,4.1-1.1c.27-.18.77-.51.67-.9S83.94,150.14,83.66,150.14Z"/><path d="M108.55,150.14H93.48l1,.44v-7.67l-4.77,2h15.07l-1-.44v7.68c0,1,5.8.17,5.8-1.56v-7.67c0-.35-.88-.45-1-.45H93.48a8.14,8.14,0,0,0-3.22.66c-.54.22-1.55.63-1.55,1.34v7.68c0,.35.88.44,1,.44h15.07a7.5,7.5,0,0,0,4.1-1.1c.26-.18.77-.51.67-.9S108.82,150.14,108.55,150.14Z"/><path d="M133.43,150.14H118.36l1,.44v-7.67l-4.76,2h15.06l-1-.44v7.68c0,1,5.8.17,5.8-1.56v-7.67c0-.35-.88-.45-1-.45H118.36a8.06,8.06,0,0,0-3.21.66c-.54.22-1.55.63-1.55,1.34v7.68c0,.35.88.44,1,.44h15.06a7.48,7.48,0,0,0,4.1-1.1c.26-.18.77-.51.67-.9S133.71,150.14,133.43,150.14Z"/></g></svg>