<svg xmlns="http://www.w3.org/2000/svg" viewBox="0 0 200 200"><defs><style>.cls-1{fill:#fff;}</style></defs><g id="Layer_1" data-name="Layer 1"><path d="M159.91,146.78H44.53a46.44,46.44,0,0,0-4.72,0H39.6l1.87,1.67V121.81l-4,2.21H152.89a46.25,46.25,0,0,0,4.71,0h.21l-1.87-1.67V149c0,1.39,1.44,1.78,2.61,1.67,1-.09,3.23-.85,3.23-2.21V121.81a1.74,1.74,0,0,0-1.87-1.67H54.36c-4.85,0-9.7,0-14.55,0H39.6c-1.14,0-4,.52-4,2.21V149a1.74,1.74,0,0,0,1.87,1.67H157.81c1.36,0,3.1-.37,3.79-1.7S161.07,146.78,159.91,146.78Z"/><path d="M160.74,114.35H45.36a35.4,35.4,0,0,0-4.72,0,1.47,1.47,0,0,1-.21,0l1,.41V88.11l-4.78,2H152.06a37,37,0,0,0,4.71,0,1.47,1.47,0,0,1,.21,0l-1-.41v26.64c0,.94,5.8.12,5.8-1.55V88.11c0-.34-.89-.41-1-.41H55.19c-4.85,0-9.7,0-14.55,0h-.21a8.28,8.28,0,0,0-3.22.66c-.51.22-1.56.61-1.56,1.31v26.64c0,.34.89.41,1,.41H142.22c4.85,0,9.7,0,14.55,0H157a7.65,7.65,0,0,0,4.1-1.1C161.94,115.06,161.92,114.35,160.74,114.35Z"/><path d="M148.34,87a10.46,10.46,0,0,0-3.9-8.16,12.07,12.07,0,0,0-10.05-2l3.18.72c-5.48-7.82-17.81-7.25-23.18.41l3.43-1.25c-4.25-.31-8.67.72-11.51,4.1a13.34,13.34,0,0,0-2.83,6.65c-.22,1.5,1.6,1.91,2.68,1.91h39c1.26,0,3-1,3.19-2.35.17-1.52-1.54-1.91-2.68-1.91h-39L109.35,87c.05-.33.11-.65.18-1,0-.15.07-.3.1-.45.14-.6-.06.13.07-.25s.3-.82.48-1.22.24-.48.36-.72.38-.62.1-.19a7.8,7.8,0,0,1,1-1.18c-.43.43.28-.22.37-.29l.4-.28c-.29.17-.29.17,0,0s.47-.23.71-.32c-.63.25.46-.11.59-.14.61-.14-.19,0,.42-.06.28,0,.8-.07,1-.07,1.57,0,3,.11,4.17-1.21A20.67,20.67,0,0,1,120.66,78a6.84,6.84,0,0,1,3.8-1.8c.38,0,.77,0,1.15-.06-.75,0,.7.08.86.1a8.14,8.14,0,0,1,2.15.67,9.29,9.29,0,0,1,3.65,3.19c.69,1,2.16.91,3.18.72,3.7-.72,6.94,3.11,7,6.64,0,1.43,1.39,2,2.68,1.91C146.25,89.28,148.38,88.43,148.34,87Z"/><path d="M108.1,86.75A14.15,14.15,0,0,0,102.41,78a14.8,14.8,0,0,0-11.76-2.1l3.17.64a17.45,17.45,0,0,0-14.67-7.31A19,19,0,0,0,63.81,77.5l3.79-1.73c-8.1-1.65-16.76,3.69-18.08,12-.24,1.48,1.62,1.77,2.64,1.77h52.76c1.22,0,3-.93,3.21-2.27s-1.58-1.77-2.64-1.77H52.73l2.64,1.77a9.56,9.56,0,0,1,3.5-6.16,7.29,7.29,0,0,1,2.77-1.36,9.89,9.89,0,0,1,3.9,0,4,4,0,0,0,3.79-1.73,11.34,11.34,0,0,1,4-3.59,9.81,9.81,0,0,1,2.56-.94,8.83,8.83,0,0,1,1.28-.2l.77,0c.12,0,1,0,.35,0A12.94,12.94,0,0,1,88.5,79c.66,1,2.2.83,3.16.64,5.3-1.08,9.71,3.87,10.65,8.63C102.81,90.85,108.62,89.37,108.1,86.75Z"/><path class="cls-1" d="M102.12,70.13a12.62,12.62,0,0,1-6-1.4C93,67,90.78,63.82,89.62,59.23l-.14-.59.58-.16c4.54-1.3,8.37-1,11.38,1a12.78,12.78,0,0,1,4.68,5.82,15.52,15.52,0,0,1,1,3.48l.07.5-.48.17a14.9,14.9,0,0,1-3.42.66C102.92,70.11,102.52,70.13,102.12,70.13ZM91,59.51c1.1,3.92,3,6.65,5.77,8.12a13,13,0,0,0,9.07.77c-.34-1.47-1.56-5.64-5.07-7.91C98.19,58.84,94.91,58.51,91,59.51Z"/><path d="M102.25,69.09a10.56,10.56,0,0,1-7.87-3.48,17.25,17.25,0,0,1-3.46-7.36l-1.19,1.36c2.89-.82,5.91-1.31,8.8-.24a11.46,11.46,0,0,1,6.36,6.84,15.77,15.77,0,0,1,.9,3.43L107,68.28a14,14,0,0,1-4.73.81c-.62,0-1.52.48-1.6,1.16s.78.92,1.33.92a17,17,0,0,0,5.52-1c.6-.21,1.3-.61,1.19-1.36A15.71,15.71,0,0,0,105,60.68a12.76,12.76,0,0,0-9.85-4,23,23,0,0,0-5.88,1c-.56.16-1.37.66-1.19,1.36a17.88,17.88,0,0,0,4,8.2A13.48,13.48,0,0,0,102,71.17c.62,0,1.52-.48,1.6-1.16S102.8,69.1,102.25,69.09Z"/><path d="M89.54,59.9c1,3.39,2.79,6.7,6,8.47a14.4,14.4,0,0,0,10.59,1c.57-.15,1.35-.66,1.19-1.36a14.09,14.09,0,0,0-4.5-7.68c-3.38-2.79-8-2.8-12-1.78-.56.14-1.37.67-1.19,1.35s1.16.72,1.71.58c3.33-.83,6.92-.7,9.57,1.74a12.73,12.73,0,0,1,3.56,6.57l1.19-1.36-.68.16-.36.07c.35-.06-.14,0-.21,0a13.07,13.07,0,0,1-2.06.15,9.43,9.43,0,0,1-4.79-1.27c-2.7-1.63-4.19-4.5-5-7.44C92.07,57.82,89.17,58.6,89.54,59.9Z"/><path class="cls-1" d="M106.64,69.33l-.12-.5a31,31,0,0,1,.35-13.61A23.26,23.26,0,0,1,110.11,48c4-6,10.86-9.64,20.23-11l.59-.09.11.6c1.6,9.17.22,16.61-4.1,22.12a24.54,24.54,0,0,1-11.57,7.9,32.23,32.23,0,0,1-8,1.7l-.25,0Zm23.27-30.95c-8.69,1.35-15,4.83-18.77,10.35a22,22,0,0,0-3.06,6.81,27.61,27.61,0,0,0-.9,6.41,30.22,30.22,0,0,0,.45,6.07A31.26,31.26,0,0,0,115,66.41a23.25,23.25,0,0,0,11-7.49C130,53.82,131.28,46.91,129.91,38.38Z"/><path d="M108.09,68.94a28.37,28.37,0,0,1,1.34-17.25A22.15,22.15,0,0,1,121.38,40a37.14,37.14,0,0,1,9.31-2.38l-1.2-.25c1,6.06,1.21,12.42-1.33,18.15A22,22,0,0,1,115,67.09a28.73,28.73,0,0,1-5.24,1.32l-1,.13-.35,0c-.29,0,.26,0-.13,0s-.74,0-1.11.06a2.81,2.81,0,0,0-1.93.73c-.4.52.35.63.72.62a32.58,32.58,0,0,0,7.78-1.32,31,31,0,0,0,10.13-4.85,22.86,22.86,0,0,0,9-16.1,39.35,39.35,0,0,0-.56-11.15c-.07-.39-1-.27-1.2-.24-6.31.89-12.72,2.75-17.77,6.8a23,23,0,0,0-5.88,7,26.58,26.58,0,0,0-3,11.32,29.31,29.31,0,0,0,.67,8.25C105.37,70.48,108.28,69.75,108.09,68.94Z"/><path d="M130.15,37.75c-5.64.89-11.38,2.71-15.9,6.32A22.69,22.69,0,0,0,106,58.89a30.11,30.11,0,0,0,.16,9.52c0,.3.64.3.84.29a31.71,31.71,0,0,0,16.71-6.28,21.5,21.5,0,0,0,7.84-13.81A35,35,0,0,0,131.36,38c-.12-.73-3-.08-2.9.78.87,5.47.82,11.25-1.51,16.38a20.36,20.36,0,0,1-11,10.24,28.41,28.41,0,0,1-4.83,1.5c-.54.11-1.17.23-1.75.31l-.8.11-.28,0h-.11l.85.29a27,27,0,0,1,2.11-16.78,20.71,20.71,0,0,1,10.23-9.53A32.42,32.42,0,0,1,129.67,39c.44-.07,1.56-.32,1.68-.87S130.43,37.7,130.15,37.75Z"/><path class="cls-1" d="M105.22,82.86a47.84,47.84,0,0,1,1.16-14.49,35.87,35.87,0,0,1,15.06-21.68l.7,1a35.22,35.22,0,0,0-10,10.22,35.67,35.67,0,0,0-4.52,10.73,47.33,47.33,0,0,0-1.13,14.07Z"/><path d="M106.67,82.47a43.66,43.66,0,0,1,.73-12.39,36.35,36.35,0,0,1,7.72-16.51,35.43,35.43,0,0,1,7.21-6.51l-2.24.18.7,1,.47-.93a36.62,36.62,0,0,0-11.9,13,40.61,40.61,0,0,0-4.44,17.93,38.42,38.42,0,0,0,.09,4.8L106.67,82l-1.24.12c-.49,0-1.55.36-1.66.94s.88.58,1.23.55l1.24-.12c.51,0,1.73-.42,1.67-1.13a42.92,42.92,0,0,1,.7-12A35.23,35.23,0,0,1,116,54.46a34.26,34.26,0,0,1,7-6.36c.32-.22.74-.52.46-.93l-.7-1c-.37-.55-1.86-.08-2.23.17a37.89,37.89,0,0,0-12.31,13.5,42,42,0,0,0-4.58,18.43,39.71,39.71,0,0,0,.1,5C103.85,84.11,106.77,83.5,106.67,82.47Z"/></g></svg>