<svg xmlns="http://www.w3.org/2000/svg" viewBox="0 0 200 200"><g id="Layer_1" data-name="Layer 1"><path d="M98.29,69.43A14.85,14.85,0,0,1,84.63,59.9a15.16,15.16,0,0,1,3.85-16.63,13,13,0,0,1,15.34-1.2A15.37,15.37,0,0,1,111,57.56c-1,6.26-6.18,11.8-12.74,11.87-1.1,0-2.62.3-3.16,1.4s.42,1.77,1.4,1.76c7.74-.08,15.36-4.3,18.29-11.71a17.4,17.4,0,0,0-4.94-19.75c-6-5-14.76-5.47-21.51-1.75A18.12,18.12,0,0,0,79,58.14c1.43,8.44,9.16,14.36,17.56,14.45,1.09,0,2.62-.31,3.16-1.41S99.26,69.44,98.29,69.43Z"/><path d="M85.41,112.39c0-5.16.09-10.33,0-15.49a9.14,9.14,0,0,0-2.72-6.61c-.57-.56-1.22-1.06-1.84-1.56L74.18,83.3c-4.2-3.41-8.4-6.8-12.58-10.22-1.71-1.41-2.64-3.89-1.36-5.92,1.12-1.77,2.94-1.45,4.47-.36,2,1.45,4,3,6,4.47l7.1,5.28a32.24,32.24,0,0,0,14.52,6.07,32.75,32.75,0,0,0,19.25-3.12,54.9,54.9,0,0,0,8.06-5.38L128,67.94c.64-.48,1.26-1,1.91-1.43a3.17,3.17,0,0,1,4.64,1.13,4.35,4.35,0,0,1-1.05,5.73l-1.32,1.08-7.2,5.85L116.75,87A52.12,52.12,0,0,0,112,90.89a9.45,9.45,0,0,0-2.63,6.38c0,1,0,2,0,3v12.44c0,2.56,4.9,1.86,4.9-.35,0-5.18-.12-10.37,0-15.55a6.18,6.18,0,0,1,2.31-4.91l1.74-1.42L126,84.28l8.21-6.67c2-1.6,4.32-3.15,5.29-5.58A7,7,0,0,0,138,64.41a8.27,8.27,0,0,0-8.29-1.71c-2.71.85-5.08,3.06-7.32,4.73-6.2,4.62-12.24,10.16-20.1,11.55A26.55,26.55,0,0,1,84,75.4c-2.36-1.46-4.55-3.24-6.77-4.9l-8.06-6a10.75,10.75,0,0,0-3.73-2A8.94,8.94,0,0,0,56.75,65a7.16,7.16,0,0,0-1.42,7.71,9.26,9.26,0,0,0,2.89,3.47l6,4.84L78,92.23c2.56,2.08,2.54,4.73,2.54,7.67v12.84c0,2.56,4.89,1.86,4.89-.35Z"/><path d="M143.36,99.65l2.55,5.17c.92,1.85,1.78,4.78,3.9,5.52a33.51,33.51,0,0,0,6.16,1l3.56.52a7.12,7.12,0,0,1,.91.13c.25.07-.08,0-.12,0a1.22,1.22,0,0,1,.46.56c.29.78-.27,1.14-.76,1.61l-2.6,2.54-2.71,2.64a9.9,9.9,0,0,0-1.59,1.71c-1.15,1.79-.18,4.53.16,6.46a42.54,42.54,0,0,1,1,5.69,3.19,3.19,0,0,0-.06.53c.08.39-.19-.09.05,0-.07,0,1-.34,1.12-.21-.11-.16-.59-.3-.76-.4l-3-1.57a40.36,40.36,0,0,0-5.55-2.85c-2.74-.92-5.2.82-7.52,2l-3.5,1.83c-.31.17-1.77.66-1.91,1,0,.07-1.7-.12.33,0l.34,0c.21.07.23.06,0,0a5.33,5.33,0,0,1-.44-.75,2.13,2.13,0,0,1,.07-.75c.17-1,.35-2.08.53-3.12.35-2,.83-4.09,1.05-6.13.25-2.3-1.73-3.63-3.2-5.06s-3.13-2.93-4.59-4.48a1.51,1.51,0,0,1-.48-1.09c-.06-.6.32-.22-.15-.23-.86,0-.88.18-.5.15.87-.07,1.75-.26,2.61-.38,2.24-.33,4.49-.63,6.72-1a5.71,5.71,0,0,0,4.35-2.63c.34-.6.61-1.24.92-1.86l3.17-6.42c.06-.13.24-.36.24-.5,0-.38.14.21-.09,0s-1.49,1.64-1,.23c0,0,.45.58.47.62,1,1.67,5.62,0,4.45-2s-4.15-2.14-6.14-1.24a5.3,5.3,0,0,0-2.58,2.68l-3.42,6.93a9.78,9.78,0,0,0-.5,1c0,.06-.11.15-.11.21s-.79-.53-.11.18c-.19-.2,1.35-.22.94-.38-.17-.07-.63.09-.81.12l-1.81.26c-2.31.33-4.63.64-6.93,1-1.92.3-4,1.28-4.52,3.32a3.32,3.32,0,0,0,1,3.28c1.81,1.8,3.65,3.56,5.48,5.34a7.3,7.3,0,0,1,1.56,1.63c.32.64,0,1.64-.15,2.3l-1.29,7.56c-.68,3.92,3.44,5.34,6.59,3.83,2.09-1,4.13-2.18,6.19-3.26l1.48-.78a3.26,3.26,0,0,0,.87-.45c.23-.29-.76.25-.76,0,0,0,0-.1.09,0a4.13,4.13,0,0,0,1.08.57l6.78,3.56a6,6,0,0,0,3.79.84c2.3-.3,4.61-2.06,4.35-4.57-.23-2.12-.72-4.23-1.08-6.33-.18-1.07-.42-2.14-.55-3.21a1.4,1.4,0,0,1,.55-1.36l5.49-5.35a10.11,10.11,0,0,0,1.72-1.86,3.29,3.29,0,0,0-1.32-4.68,9,9,0,0,0-3-.67l-4.08-.59-3.56-.52a2.53,2.53,0,0,1-.67-.1c.31.16-.12-.29-.23-.48-1.25-2.11-2.21-4.47-3.29-6.68l-.92-1.86c-.51-1-1.79-1.1-2.81-.83C144.72,97.7,142.85,98.63,143.36,99.65Z"/><path d="M50.53,99.65l2.55,5.17c.92,1.86,1.81,4.84,3.93,5.6,1.9.69,4.18.72,6.16,1l3.56.52a5.54,5.54,0,0,1,.91.13.59.59,0,0,1,.13,0c-.35-.16.11.23.18.42.28.71-.32,1.08-.78,1.53l-2.6,2.53-2.71,2.64A9.64,9.64,0,0,0,60.27,121c-1.12,1.84-.16,4.57.18,6.53a45.07,45.07,0,0,0,1,5.69s-.06.4,0,.42.95-.41,1.14-.16c-.13-.17-.58-.3-.77-.4l-3-1.57a47.07,47.07,0,0,0-5.55-2.88c-2.72-1-5.22.79-7.53,2l-3.5,1.84c-.3.16-1.78.66-1.91,1,0-.1.61,0,.64-.12s-.3-.45-.33-.58a2.33,2.33,0,0,1,.08-.78c.16-1,.35-2.08.53-3.12.35-2,.84-4.08,1.05-6.13.25-2.34-1.72-3.66-3.21-5.12s-3.11-3-4.6-4.48a1.53,1.53,0,0,1-.46-1c0-.06.12-.32.11-.33l-.58.32c-.33.15-.44.06-.16,0L36,111.7c2.24-.33,4.49-.63,6.73-1A5.58,5.58,0,0,0,47,108c.33-.6.61-1.24.92-1.85l3.17-6.43c0-.11.25-.37.24-.49,0,0-.74.09-.89.24-.45.44-.11-.22-.1,0,0,0,.38.53.38.53,1.05,1.81,5.67,0,4.43-2.1S51,95.69,49,96.62a5.38,5.38,0,0,0-2.56,2.74L43,106.29a4.7,4.7,0,0,0-.51,1c-.09.56.29-.1.73,0a11.52,11.52,0,0,0-2.53.36c-2.35.34-4.7.66-7,1-2,.3-3.89,1.28-4.47,3.31a3.44,3.44,0,0,0,1,3.45c1.78,1.77,3.61,3.51,5.41,5.26a9.78,9.78,0,0,1,1.57,1.58c.39.63,0,1.68-.1,2.36l-1.29,7.49a3.73,3.73,0,0,0,.77,3.4c1.5,1.6,4,1.54,5.83.66,2.07-1,4.08-2.15,6.11-3.22A10,10,0,0,0,51,131.68c.25-.26-1.07-.35-.64,0a5.92,5.92,0,0,0,1.06.55l6.84,3.6a6,6,0,0,0,3.74.86c2.47-.32,4.63-2.25,4.3-4.86-.26-2.06-.7-4.11-1.06-6.16-.18-1.06-.44-2.14-.55-3.21-.06-.64.19-.89.62-1.31l5.44-5.31a8.6,8.6,0,0,0,1.8-2,3.48,3.48,0,0,0-1.66-4.8,10.23,10.23,0,0,0-2.76-.6L64,107.88l-3.56-.52a2.92,2.92,0,0,1-.66-.09c.25.11-.08-.16-.21-.38-1.24-2.12-2.2-4.47-3.29-6.68l-.92-1.86a2.3,2.3,0,0,0-2.84-.95C51.79,97.59,50,98.59,50.53,99.65Z"/><path d="M97.68,107.51l3.58,7.26,2,4.1a5.18,5.18,0,0,0,3.6,3.25c2.72.61,5.57.84,8.33,1.24l4.64.67c1,.15,1.81.45,1.9,1.69.08,1-.8,1.61-1.44,2.23l-3.57,3.49L113,135.09a10.26,10.26,0,0,0-2.27,2.61,6.2,6.2,0,0,0-.12,4l.84,4.93.89,5.15a6.55,6.55,0,0,1,.18,2.81c.09-.33-.16.4-.22.33s.64-.62.5-.08c0,0-.2,0-.24-.06a8.43,8.43,0,0,0-1-.54l-4.34-2.28-4.69-2.46A15.56,15.56,0,0,0,99.44,148c-3.34-.86-6.84,1.77-9.65,3.25L85,153.76l-1.49.78c-.09.05-.57.25-.43.27-.54-.08-1-1.24-1-1.74a5.75,5.75,0,0,1,.15-1l.75-4.39c.47-2.72,1.08-5.46,1.41-8.21.38-3.1-3-5.31-4.92-7.22s-4-3.69-5.8-5.66a2,2,0,0,1-.64-1.09c-.09-.48.12-.79.16-1.22-.07.7.09-.33.17-.24s-.14.09-.14.07-.62.09-.08,0l3.85-.56c3-.44,6-.85,9-1.32a6.42,6.42,0,0,0,5-3.2c.55-1,1-2.09,1.54-3.12,1.4-2.84,2.78-5.7,4.2-8.52.08-.16.33-.62.33-.64-.14.52-.61-.43-.14.15a6.52,6.52,0,0,1,.83,1c1,1.74,5.61,0,4.44-2.06-1.56-2.81-5.58-2.81-8-1.22a7.42,7.42,0,0,0-2.48,3.27l-4.67,9.48c-.2.39-.38.79-.59,1.18a1.63,1.63,0,0,0-.09.19l-.11.2c-.16.14-.13.16.1,0,0-.21.45,0,.2,0a18.19,18.19,0,0,0-3.58.52c-3.17.46-6.35.89-9.51,1.38-2.37.37-4.78,1.65-5.32,4.18a4.35,4.35,0,0,0,1.53,4.1l7.55,7.36c.69.67,1.84,1.48,2.18,2.4s-.15,2.31-.3,3.22l-1.77,10.27c-.27,1.6-.21,3.14,1,4.35,1.84,1.78,4.67,1.68,6.82.59,2.91-1.47,5.77-3,8.65-4.55,1-.53,2-1.12,3.06-1.6-.24.11-.21-.07-.09,0a1.83,1.83,0,0,0,.24.13c.54.24,1,.55,1.57.82L108,157a7,7,0,0,0,5.22.9c2.62-.69,4.62-2.86,4.23-5.65-.42-3-1-6.08-1.56-9.11-.22-1.3-.5-2.6-.67-3.91-.14-1.07.39-1.57,1.08-2.23l7.63-7.45a9.7,9.7,0,0,0,2.31-2.68,4.25,4.25,0,0,0-2.9-5.84,26.16,26.16,0,0,0-3.27-.52l-5.6-.82-4.65-.67-.52-.08c-.35-.06.28.24-.16,0a2.09,2.09,0,0,1-.9-1c-1.56-3-3-6.08-4.49-9.11l-1.26-2.55a2.31,2.31,0,0,0-2.83-.89C99,105.51,97.16,106.47,97.68,107.51Z"/></g></svg>