<svg xmlns="http://www.w3.org/2000/svg" viewBox="0 0 200 200"><defs><style>.cls-1{fill:#fff;stroke:#fff;stroke-miterlimit:10;stroke-width:3px;fill-rule:evenodd;}</style></defs><g id="Layer_1" data-name="Layer 1"><path class="cls-1" d="M103.15,55.87c0-4.59,0-9.14-.13-13.73a.71.71,0,0,0-.7-.7.74.74,0,0,0-.7.74c.1,4.55.17,9.1.13,13.65a.66.66,0,0,0,.67.7.71.71,0,0,0,.73-.66Z"/><path class="cls-1" d="M125.37,61.85c2.32-4,4.55-7.94,6.77-12a.7.7,0,0,0-1.23-.66c-2.19,4-4.41,8-6.73,11.9a.71.71,0,0,0,.26,1,.68.68,0,0,0,.93-.23Z"/><path class="cls-1" d="M80.89,61.81c-2.26-4-4.61-7.9-7-11.79a.75.75,0,0,0-1-.27.7.7,0,0,0-.23,1c2.35,3.93,4.68,7.81,6.93,11.8a.71.71,0,0,0,1,.27.74.74,0,0,0,.27-1Z"/><path d="M32.73,111.84c7.83,4,14.6,9.66,22.11,14.17,1.21.72,3.19.16,4.28-.54.92-.58,1.72-1.73.5-2.47-7.51-4.5-14.27-10.18-22.1-14.17a4.72,4.72,0,0,0-4.29.54c-.84.54-1.79,1.81-.5,2.47Z"/><path d="M100.49,86.12,98,84.45c-1.45-1-2.34-1.58-4.31-1.14-1.22.28-2.43.61-3.64.91L74.86,88l-3,.74L71,89c-.36.09-.6,0,.25-.06l1.45.08c.68.21,0,0-.22-.14L71,88.12l-4.88-2.49L55.26,80.1l-2.57-1.31a4.54,4.54,0,0,0-4.29.49c-.85.57-1.78,2-.46,2.62L66.4,91.31a10.07,10.07,0,0,0,3,1.28,10.61,10.61,0,0,0,4-.59l11.78-2.93,9.48-2.36-2.83-.14,3.95,2.67c1.82,1.23,7.32-1.38,4.75-3.12Z"/><path d="M95.54,140.79a5.64,5.64,0,0,1-.77,6.58l-2.58,3.27a.65.65,0,0,0,0,.9,8.26,8.26,0,0,0,2.45,2.51,7.35,7.35,0,0,0,5.37.56c3.27-.77,7.18-3.65,6-7.49-.51-1.63-2-3.16-3-4.5-.34-.46-2.92-3.5-2.64-3.81L99,139.7l.25-.12-1.89.39c-.8,0-.56-.23-.32.23a8.76,8.76,0,0,0,.85,1.15l2.34,3.14c1.23,1.65,2.48,4,4.23,5.14,3.71,2.46,10.7.26,11.74-4.28.61-2.63-1.37-4.68-2.82-6.62l-2.83-3.81c-.23-.32-1.48-1.68-1.25-1.94l-1.31.89.25-.12-1.89.39c-.75,0-.57-.21-.27.29s.57.77.85,1.15l2.44,3.29c1.17,1.57,2.42,3.83,4.09,4.93,3.72,2.47,10.9.22,11.77-4.45.49-2.62-1.53-4.67-3-6.62l-2.84-3.82c-.25-.33-1.47-1.66-1.24-1.92l-1.31.89.25-.12-1.89.39c-.87,0-.53-.25-.34.2a5,5,0,0,0,.68.92l2,2.7c1.06,1.44,2.12,2.88,3.2,4.31,2.49,3.29,7.08,3.08,10.34,1,2.88-1.84,4.7-6.2,2.69-9.29-.8-1.21-5.49.31-4.5,1.83.8,1.23.48,3,0,4.27-.25.75-.9,2.2-1.72,2.18-1.44,0-2.58-2.11-3.37-3.18l-3.73-5c-.41-.56-.8-1.17-1.25-1.7-.91-1-2.51-.88-3.7-.48s-3,1.52-2,3c.28.43.62.84.93,1.26l3.72,5c1,1.31,2.35,2.74,2.24,4.48,0,.87-.76,2.63-1.69,2.6s-1.93-1.24-2.5-2c-1.94-2.6-3.72-5.45-5.86-7.89-1.59-1.82-7.39,0-5.72,2.53.84,1.28,1.84,2.48,2.75,3.71,1,1.39,2.1,2.76,3.1,4.17a4.06,4.06,0,0,1,.88,3.06c-.15.86-.88,2.46-1.85,2.2-1.51-.4-2.56-2.32-3.45-3.51l-3.73-5a14.32,14.32,0,0,0-1-1.41c-1.11-1.16-3.21-.69-4.46,0s-1.92,1.56-1.11,2.76c.41.6.87,1.17,1.31,1.76,1.09,1.47,2.22,2.93,3.28,4.43a3.9,3.9,0,0,1,.75,3.55c-.38,1.18-1.07,2.06-2.19,1.5a7,7,0,0,1-2.28-2.36l0,.9c.92-1.16,1.85-2.32,2.75-3.49,1.76-2.27,2.37-5,1-7.63-.82-1.52-5.48.1-4.83,1.29Z"/><path d="M147.62,79.23l-19.43,10-2,1c-.66.34-1.64.51.25-.09l3-.57c.55,0,0,0-.13-.07-.4-.11-.8-.2-1.21-.3l-3.82-1L113.8,85.67c-2.31-.58-4.62-1.26-7-1.73-2.59-.53-5.35,1.14-7.64,2.18-3,1.37-6,2.85-8.84,4.49-2.68,1.54-5.3,3.3-7.87,4.94a28.21,28.21,0,0,0-6.92,6.06c-1.31,1.63-2.84,4-2.59,6.18.28,2.52,3.43,2.57,5.36,2.4a28.51,28.51,0,0,0,9.36-2.79c2.69-1.25,5.12-3.24,7.83-4.17,1-.35-.55.17.46-.13s-.56.07.37-.08a14.5,14.5,0,0,1,1.74-.21c.66,0,1.32,0,2,0a7.43,7.43,0,0,1,.94.07,4.49,4.49,0,0,1,1.52.78,81,81,0,0,1,7.71,5.56,85.11,85.11,0,0,1,7.57,7.14,68.74,68.74,0,0,1,5.2,5.85l5.55,7.47c.42.57,1.49.35,2.06.27a10.09,10.09,0,0,0,3.25-1.06c4.3-2.23,8.65-4.4,12.91-6.71,5.11-2.77,10.14-5.68,15.21-8.52l6-3.33c1-.56.76-1.16-.32-1.18a8.77,8.77,0,0,0-4.27,1.14c-8.64,4.84-17.21,9.8-26,14.37l-8.08,4.2,5.32-.79c-2-2.65-3.86-5.38-5.91-7.95a84.43,84.43,0,0,0-18-16.82c-.94-.65-1.91-1.28-2.88-1.9a5.54,5.54,0,0,0-2.89-.85,28,28,0,0,0-6.47.23,31.76,31.76,0,0,0-11.91,4.57A19.38,19.38,0,0,1,82,107.71c.22-.07-1,.26-.37.12a5.72,5.72,0,0,1-.57.11c.14,0,.45,0,0,0,.46,0-.41,0-.24,0a3.49,3.49,0,0,1-.6-.13c-3.3-1.24.76-6.69,2-8.07,3.08-3.41,7.3-5.81,11.21-8.15a106.88,106.88,0,0,1,12.48-6.25l-4.21.8,21.23,5.28a8.44,8.44,0,0,0,4,.38,16.78,16.78,0,0,0,4.69-1.89L143,84l9.22-4.75c1-.53.73-1.16-.32-1.18a9.26,9.26,0,0,0-4.27,1.14Z"/><path d="M86.64,139.51l-4.06,5.16a7.09,7.09,0,0,0-2,4.35,6.28,6.28,0,0,0,4.51,5.76,8.24,8.24,0,0,0,8-1.84A18,18,0,0,0,95,150.66l2.58-3.26a8.48,8.48,0,0,0,2.16-4c.41-2.94-1.7-5.45-4.35-6.4a8.17,8.17,0,0,0-8.74,2.48c-.65.79-.54,1.67.53,2a3.73,3.73,0,0,0,3.42-.91,4.23,4.23,0,0,1,.81-.8l.19-.12q-.33.18,0,0l-.23.08c.28-.07.26-.07-.06,0,.11,0,.71,0,.18,0,0,0,.67.1.24,0a3.7,3.7,0,0,1,1.33.56,3.83,3.83,0,0,1,1.6,4.47,3.16,3.16,0,0,1-.26.52s-.52.78-.17.31a1.34,1.34,0,0,0-.11.14l-.72.91-2.2,2.78c-.46.59-.92,1.19-1.39,1.77-.16.2-.33.38-.5.56-.46.5.23-.16-.28.24s.37-.27-.19.11.43-.29-.14,0l.27,0-.38,0c.57,0,0,0-.15-.05.46.06-.38-.12-.45-.15a4,4,0,0,1-2.48-4.16,3.53,3.53,0,0,1,.43-1.2c.16-.27.79-1.1.2-.35l.54-.68,3.89-4.93c.26-.34.57-.71.44-1.17a1.3,1.3,0,0,0-1-.8A3.72,3.72,0,0,0,86.64,139.51Z"/><path d="M85.34,145q2.2-2.79,4.4-5.59l0,0c-.62.81-.1.13,0,0s.09-.11.14-.17c.24-.3.48-.6.71-.91a8.17,8.17,0,0,0,1.51-2.6c.87-2.68-.74-5.47-3.12-6.72a8.17,8.17,0,0,0-9.24,1.46,24.35,24.35,0,0,0-2.13,2.6l-3.09,3.91a17.27,17.27,0,0,0-2,2.78,5.79,5.79,0,0,0,2.71,7.74,8.17,8.17,0,0,0,9.8-2.06c.65-.79.55-1.66-.53-2a3.74,3.74,0,0,0-3.41.92,5.85,5.85,0,0,1-.84.83c-.22.16,0,0,0,0s-.35.22-.11.06,0,0-.11,0c.53-.18-.13,0,.1,0s-.49-.05-.28,0-.38-.09-.49-.14a3.52,3.52,0,0,1-1.22-.73,3.8,3.8,0,0,1-.47-5.38c1.35-1.77,2.76-3.49,4.14-5.24.53-.67,1-1.39,1.61-2l0,0c-.15.17.1-.09.23-.2a1.79,1.79,0,0,1,.38-.29c.25-.15,0,0,0,0,.46-.22.06,0-.08,0-.35,0,.55,0,.25,0s.12,0,.14,0-.36-.09.11,0a4.15,4.15,0,0,1,1.45.74c.38.29-.19-.19.11.1a3.38,3.38,0,0,1,.27.26,4.43,4.43,0,0,1,.48.59,3.59,3.59,0,0,1-.18,4.41c-.32.43-.66.84-1,1.26l-.4.51.12-.15-.15.19-.08.09c-1.45,1.84-2.9,3.69-4.36,5.53-.73.94.64,1.61,1.38,1.66A3.73,3.73,0,0,0,85.34,145Z"/><path d="M76.54,137.78l4.78-6.07a9.47,9.47,0,0,0,2.18-3.49,5.39,5.39,0,0,0-3.52-6.1,9.32,9.32,0,0,0-9.13,2,30.31,30.31,0,0,0-2.67,3.3l-1.71,2.16A33.19,33.19,0,0,0,63.91,133a5.18,5.18,0,0,0,2.7,7.37c3.21,1.4,7.73.12,9.93-2.54.67-.81-.6-.9-1.16-.86-.95.06-2.57.37-3.23,1.17-.11.13-.92,1-1,1s.72-.2.66-.19c.45-.1.14,0,0-.06a4.84,4.84,0,0,1-2.6-1.54,4.31,4.31,0,0,1-.23-5.51c1.08-1.49,2.28-2.9,3.43-4.35l2.22-2.82c.15-.19.3-.37.47-.55a5.62,5.62,0,0,1,.44-.41c.3-.26.12-.07-.17,0l-.3.06c-.34,0-.4.06-.19,0,0-.06.21.06,0,0,.13,0,.29,0,.43.07a4.57,4.57,0,0,1,1.69.85,4.37,4.37,0,0,1,1.26,5.64,16.82,16.82,0,0,1-1.5,2l-4.58,5.8c-.65.82.57.9,1.16.86C74.24,138.89,75.9,138.58,76.54,137.78Z"/><path d="M58.62,133.61c1.05,0,2.54-.81,2.65-2S60,130,59,130s-2.55.82-2.66,2,1.28,1.6,2.24,1.6Z"/><path d="M67.64,131.78c1.11-1.4,2.33-2.77,3.31-4.26a6,6,0,0,0,.36-6.27,7.21,7.21,0,0,0-5.44-3.52,8,8,0,0,0-6.66,2.52c-.69.73-1.27,1.57-1.89,2.36L56,124.28a6.27,6.27,0,0,0-1.31,5.81,7.16,7.16,0,0,0,5.77,4.6,8,8,0,0,0,7.18-2.91,1.43,1.43,0,0,0-.63-2.37,3.34,3.34,0,0,0-3.42.92,6.4,6.4,0,0,1-.42.49c.32-.33-.15.1-.19.13-.43.4.41-.15-.1.08l-.16.08c-.27.11-.22.1.13,0a2.3,2.3,0,0,1-.5.13s.66,0,.15,0h0c-.07.06-.9-.17-.27,0a3.86,3.86,0,0,1-2.75-2.65c0-.15-.06-.3-.1-.45-.09-.46-.05.18,0-.28a5.44,5.44,0,0,1,0-.58s.14-.59.06-.32a3.57,3.57,0,0,1,.77-1.35c.35-.46.72-.92,1.08-1.37.52-.66,1-1.33,1.56-2,.11-.14.23-.27.35-.41.38-.48-.29.17.17-.17l.31-.24c-.45.35,0,0,.11,0,.5-.29-.52.1,0,0s0-.07,0,0l.33,0c.26,0,.22,0-.12,0,.07-.06.33.06.41,0,.26,0-.43-.17,0,0a3.68,3.68,0,0,1,1,.44,3.76,3.76,0,0,1,1.45,1.64c-.15-.3.08.26.08.26a4.61,4.61,0,0,1,.15.53,1.58,1.58,0,0,1,0,.76,3.23,3.23,0,0,1-.69,1.74c-1,1.21-1.92,2.43-2.88,3.65a1.43,1.43,0,0,0,.64,2.36A3.27,3.27,0,0,0,67.64,131.78Z"/></g></svg>