<svg xmlns="http://www.w3.org/2000/svg" viewBox="0 0 200 200"><defs><style>.cls-1{stroke:#000;stroke-miterlimit:10;stroke-width:3px;fill-rule:evenodd;}</style></defs><g id="Layer_1" data-name="Layer 1"><path class="cls-1" d="M97,41.09c0-6,0-12-.18-18.06a.92.92,0,0,0-.91-.92,1,1,0,0,0-.92,1c.13,6,.22,12,.17,18a.86.86,0,0,0,.88.91.92.92,0,0,0,1-.87Z"/><path class="cls-1" d="M126.28,49c3.06-5.2,6-10.45,8.91-15.74A.89.89,0,0,0,134.8,32a.88.88,0,0,0-1.23.35c-2.88,5.25-5.8,10.5-8.86,15.66a.94.94,0,0,0,.35,1.27.89.89,0,0,0,1.22-.31Z"/><path class="cls-1" d="M147.72,70.44c5.24-3,10.4-6,15.55-9.19a.9.9,0,0,0,.3-1.26,1,1,0,0,0-1.26-.31c-5.11,3.1-10.27,6.21-15.46,9.14a.94.94,0,0,0-.35,1.27.92.92,0,0,0,1.22.35Z"/><path class="cls-1" d="M155.58,99.79c6,0,12-.05,18-.18a.88.88,0,0,0,.87-.92.92.92,0,0,0-.92-.91c-6,.13-12,.22-18,.17a.91.91,0,0,0-.91.88,1,1,0,0,0,.91,1Z"/><path class="cls-1" d="M147.72,129.14c5.2,3,10.44,6,15.68,8.88a.93.93,0,1,0,.92-1.62c-5.29-2.89-10.48-5.82-15.68-8.88a.89.89,0,0,0-1.22.35.93.93,0,0,0,.3,1.27Z"/><path class="cls-1" d="M126.28,150.62c3,5.2,6,10.36,9.13,15.52a.91.91,0,0,0,1.26.31.92.92,0,0,0,.31-1.27c-3.1-5.12-6.16-10.28-9.13-15.48a.86.86,0,0,0-1.22-.35.94.94,0,0,0-.35,1.27Z"/><path class="cls-1" d="M97,158.44c0,6,0,12,.18,18.07a.85.85,0,0,0,.91.87.89.89,0,0,0,.92-.91c-.13-6-.22-12-.17-18a.94.94,0,0,0-.92-1,1,1,0,0,0-.92.92Z"/><path class="cls-1" d="M67.68,150.57c-3.05,5.2-6,10.45-8.86,15.7a.93.93,0,1,0,1.61.92c2.89-5.25,5.81-10.5,8.82-15.66a.91.91,0,0,0-.3-1.27.92.92,0,0,0-1.27.31Z"/><path class="cls-1" d="M46.24,129.09c-5.24,3-10.39,6-15.54,9.15a1,1,0,0,0-.31,1.26.92.92,0,0,0,1.27.31c5.15-3.1,10.26-6.17,15.5-9.1a1,1,0,0,0,.35-1.27.94.94,0,0,0-1.27-.35Z"/><path class="cls-1" d="M38.38,99.74c-6,0-12,.05-18,.18a.92.92,0,0,0-.91.92.93.93,0,0,0,1,.92c6-.13,12-.22,17.94-.18a.89.89,0,0,0,.92-.92.92.92,0,0,0-.92-.92Z"/><path class="cls-1" d="M46.24,70.4c-5.15-3.07-10.39-6-15.67-8.88a.87.87,0,0,0-1.23.35.94.94,0,0,0,.35,1.26C34.93,66,40.17,69,45.33,72a.91.91,0,0,0,1.26-.31.93.93,0,0,0-.35-1.26Z"/><path class="cls-1" d="M67.73,48.92c-3-5.25-6.07-10.41-9.17-15.53A1,1,0,0,0,57.29,33,.92.92,0,0,0,57,34.31c3.1,5.16,6.16,10.28,9.13,15.53a.94.94,0,0,0,1.27.35,1,1,0,0,0,.35-1.27Z"/><path d="M89.84,96.22H88a.37.37,0,0,1-.33-.19.37.37,0,0,1,0-.38,2.92,2.92,0,0,0-2.48-4.48h-13a.37.37,0,0,1-.35-.25A.37.37,0,0,1,72,90.5l3.45-2.8a3.52,3.52,0,0,0-2-6.43,4.41,4.41,0,0,0-2.07.72l-.16.09c-2.14,1.28-15.37,9.72-15.5,9.81a3.55,3.55,0,0,0-1.38,2.78v12.19a4.92,4.92,0,0,0,5.33,5.35H80.64a2.92,2.92,0,0,0,2.48-4.49.39.39,0,0,1,0-.38.37.37,0,0,1,.33-.19h3.64A2.93,2.93,0,0,0,90,104.22a2.89,2.89,0,0,0-.45-1.56.37.37,0,0,1,0-.38.36.36,0,0,1,.32-.19,2.94,2.94,0,0,0,0-5.87Zm0,5.06H74.12v.81h13a2.13,2.13,0,1,1,0,4.25h-13v.81h6.52a2.13,2.13,0,1,1,0,4.25H59.75a4.59,4.59,0,0,1-3.32-1.15,4.51,4.51,0,0,1-1.22-3.39V94.67a2.68,2.68,0,0,1,1-2.1l7-4.43c3.43-2.18,7.47-4.73,8.54-5.37a3.86,3.86,0,0,1,1.82-.69A2.7,2.7,0,0,1,75,87l-6.11,5H85.24a2.13,2.13,0,1,1,0,4.25H74.12V97H89.84a2.13,2.13,0,1,1,0,4.25Z"/><path d="M90.34,95.65H88.87c-.1,0-.45-.06-.2,0l.37.12c-.32-.18.14-.77.22-1.05a3.42,3.42,0,0,0,.11-1.19,3.14,3.14,0,0,0-.87-1.87,3.81,3.81,0,0,0-2.84-1.05H72.94c.47,0,0,0,.06,0,1.16-.9,2.26-1.87,3.41-2.78a4.07,4.07,0,0,0,1.78-3.86,3.84,3.84,0,0,0-2.53-3c-2.35-.83-4.52.51-6.45,1.71-1.61,1-3.21,2-4.81,3q-4.64,2.94-9.26,5.89a4.23,4.23,0,0,0-2,3.74v10.41c0,1.66,0,3.33.93,4.77,1.91,2.85,6,2.26,9,2.26H79.29a6,6,0,0,0,4.59-1.53,3.24,3.24,0,0,0,.86-1.73c.05-.35,0-2.5-.71-2.1l-.92.3c-.31.05-.1,0,0,0h1.64c.63,0,1.27,0,1.91,0a5.15,5.15,0,0,0,3.85-1.77,3.17,3.17,0,0,0,.68-1.65c0-.34-.11-2.32-.74-1.94l-.92.3a6.46,6.46,0,0,0,3.09-1.12A3.47,3.47,0,0,0,94,99.14c.17-2.16-1.66-3.43-3.63-3.49a2.21,2.21,0,0,0-1.6.61c-.32.46.27.52.6.53,1.59,0,2.52,2,2.12,3.38a2.56,2.56,0,0,1-.53,1,1.92,1.92,0,0,1-.34.3s-.29.14-.11.08-.07,0-.11,0a3.15,3.15,0,0,0-.43,0,3.42,3.42,0,0,0-.92.3c-.38.2-.82.53-.7,1a12.17,12.17,0,0,1,.46,1.24,2.78,2.78,0,0,1-.16,1.34,2.52,2.52,0,0,1-.61.9c-.08.07-.21.12-.29.2s-.19.06,0,0,0,0,0,0a23.07,23.07,0,0,0-2.63,0c-.36,0-.72,0-1.08,0-.62,0-2.2.36-2.1,1.28a2.88,2.88,0,0,0,.29.65,3.28,3.28,0,0,1,.19.68,2.7,2.7,0,0,1-.13,1.26,2.52,2.52,0,0,1-.6.94l-.25.2c-.26.19-.08,0,0,0-.92.06-1.86,0-2.78,0H60.88c-.33,0-.66,0-1,0A4.39,4.39,0,0,1,56,109c-.62-1.53-.43-3.37-.43-5V97.29c0-1.41-.3-3.33.48-4.59a3.43,3.43,0,0,1,1.24-1.1l1.93-1.23C63.11,87.92,67,85.45,70.85,83l.48-.3.22-.13,0,0,.74-.45a2,2,0,0,1,.67-.28,2.6,2.6,0,0,1,1.07.31,3.26,3.26,0,0,1,.37,5.51c-.75.59-1.47,1.2-2.21,1.8-.44.36-1.91,1.22-1.46,1.91.31.48,1.18.36,1.71.36H84.1a2.65,2.65,0,0,1,1.58.33A2.73,2.73,0,0,1,86.94,94a2.7,2.7,0,0,1-.14,1.29c-.15.4-.56.83-.18,1.24s1,.27,1.46.27h1.26A2.23,2.23,0,0,0,91,96.18C91.26,95.73,90.67,95.65,90.34,95.65Z"/><path d="M90.34,100.71H74.62c-.46,0-1.71.26-1.71.9v.8c0,.26.58.25.71.25H86.5c.17,0-.09-.07.16,0a1.86,1.86,0,0,1,1.1.88,2,2,0,0,1,.19,1.35,1.89,1.89,0,0,1-.26.6c-.06.09-.16.16-.21.25s-.3.14,0,.06-.11,0-.23,0H74.62c-.46,0-1.71.26-1.71.89v.81c0,.26.58.25.71.25h5.74c.21,0,.43,0,.64,0a.56.56,0,0,1,.13,0h0a1.63,1.63,0,0,1,.46.18,1.89,1.89,0,0,1,.9,1.34,1.76,1.76,0,0,1-.07.88,1.56,1.56,0,0,1-.17.37c-.08.13-.28.26-.34.39s.35,0,.14-.06a1.92,1.92,0,0,0-.24,0H60.93a4.74,4.74,0,0,1-3.13-.8c-1.24-1-1.38-2.57-1.38-4v-8.9c0-.9,0-1.81,0-2.71,0-1.42,1-1.88,2-2.54L66.1,87c2-1.25,4.15-2.65,6-3.79l.42-.25,0,0,.26-.15.2-.11c.31-.18.08,0-.07,0l.23,0a2.2,2.2,0,0,1,.45.17,2.48,2.48,0,0,1,1.21,3c-.35,1-1.67,1.8-2.48,2.46l-3.71,3-.7.57c-.55.45-.06.67.44.67h15.8c.17,0,.34,0,.5,0h-.07a1.54,1.54,0,0,1,.65.23A1.88,1.88,0,0,1,86.11,94a1.81,1.81,0,0,1-.26,1.4s-.32.39-.35.35c-.34-.4.45,0,.23-.09a2.66,2.66,0,0,0-.69,0H74.62c-.46,0-1.71.26-1.71.9v.8c0,.26.58.25.71.25H89.34s-.18,0,0,0a1.72,1.72,0,0,1,.52.19,2,2,0,0,1,.93,1.69,1.89,1.89,0,0,1-.31,1c-.06.09-.16.16-.21.25l-.14.1c.3-.06.39-.09.24-.09a2.26,2.26,0,0,0-1.6.62c-.31.43.26.53.6.52,1.47-.06,3.36-.77,3.76-2.37a2.42,2.42,0,0,0-1.77-2.9,11.8,11.8,0,0,0-3-.12H74.62l.71.25V95.9l-1.71.89H83.94a5.3,5.3,0,0,0,3.79-1.12,2.44,2.44,0,0,0,.6-2.87,2.77,2.77,0,0,0-2.59-1.4H69.43l.44.67c2-1.63,4-3.29,6-4.89a3.42,3.42,0,0,0,1.51-2.4,3,3,0,0,0-1.79-3,4.83,4.83,0,0,0-4.15.42l-.62.37c-.2.13.24-.14,0,0l-.14.09-1.33.82C66,85.65,62.54,87.84,59.12,90c-1.23.78-2.48,1.53-3.68,2.34A3.16,3.16,0,0,0,54,94.48a8.09,8.09,0,0,0,0,1.1v9.48a19.11,19.11,0,0,0,.1,3.3c.49,2.6,2.74,3.59,5.17,3.61,5.7,0,11.4,0,17.1,0,2.27,0,5.92.55,7.27-1.76a2.36,2.36,0,0,0-.89-3.26,4.13,4.13,0,0,0-2.08-.37h-6l.71.24V106l-1.71.89H86.29c1.48,0,3.23-.54,3.91-2a2.36,2.36,0,0,0-.49-2.65,3,3,0,0,0-2.17-.76c-2.06,0-4.13,0-6.19,0H74.62l.71.25V101l-1.71.89H89.34a2.23,2.23,0,0,0,1.61-.61C91.26,100.79,90.68,100.71,90.34,100.71Z"/><path d="M101.19,99.16a3,3,0,0,0,2.91,2.93.36.36,0,0,1,.32.19.37.37,0,0,1,0,.38,2.9,2.9,0,0,0-.46,1.56,2.94,2.94,0,0,0,2.94,2.93h3.64a.39.39,0,0,1,.33.19.39.39,0,0,1,0,.38,2.92,2.92,0,0,0,2.48,4.49h20.9a4.93,4.93,0,0,0,5.34-5.35V94.67a3.55,3.55,0,0,0-1.38-2.78c-.13-.09-13.36-8.53-15.51-9.81l-.16-.09a4.33,4.33,0,0,0-2.07-.72,3.51,3.51,0,0,0-3.5,3.51,3.56,3.56,0,0,0,1.54,2.92L122,90.5a.37.37,0,0,1,.11.42.37.37,0,0,1-.35.25h-13a2.91,2.91,0,0,0-2.48,4.48.39.39,0,0,1,0,.38.37.37,0,0,1-.33.19h-1.8A2.94,2.94,0,0,0,101.19,99.16Zm.81,0A2.14,2.14,0,0,1,104.13,97h15.72v-.81H108.73a2.13,2.13,0,1,1,0-4.25H125l-6.1-5a2.7,2.7,0,0,1,1.5-4.94,3.9,3.9,0,0,1,1.82.69c1.07.64,5.11,3.19,8.54,5.37l6.95,4.43a2.68,2.68,0,0,1,1,2.1v12.19a4.12,4.12,0,0,1-4.54,4.54H113.33a2.13,2.13,0,1,1,0-4.25h6.52v-.81h-13a2.13,2.13,0,1,1,0-4.25h13v-.81H104.13A2.13,2.13,0,0,1,102,99.15Z"/><path d="M100,99.48a3.17,3.17,0,0,0,1,2.28,4.44,4.44,0,0,0,2.43.91l-.37-.12c.31.18-.1.69-.19,1a3.36,3.36,0,0,0-.15,1,3,3,0,0,0,.54,1.7,3.64,3.64,0,0,0,3.1,1.48h3.07c.13,0,.25,0,.38,0s.29,0,0,0l-.36-.12c.31.18-.06.61-.16.86a3.2,3.2,0,0,0-.18.93,3.07,3.07,0,0,0,.45,1.77,3.48,3.48,0,0,0,2.75,1.59c.59,0,1.2,0,1.79,0h17.51c2.82,0,6.08,0,8-2.49a6.8,6.8,0,0,0,1.12-4.3V102.1c0-2.57,0-5.14,0-7.71s-2.74-3.76-4.67-5q-4.4-2.81-8.8-5.58c-1-.67-2.1-1.33-3.15-2a7.48,7.48,0,0,0-2.09-1,5.74,5.74,0,0,0-4.09.67,3.92,3.92,0,0,0-1.29,6,11.06,11.06,0,0,0,1.37,1.18l1.87,1.51c.25.2,1.09.65.87,1L121,91l-.12.08,1.14-.43c.24,0,.11,0,0,0h-6.4c-2.2,0-4.42-.1-6.61,0a5.19,5.19,0,0,0-3.77,1.77,3.28,3.28,0,0,0-.67,1.66c0,.32.09,2.31.73,1.93l.92-.3c.36-.06-.2,0-.32,0h-.88a7.08,7.08,0,0,0-1.89.22A4,4,0,0,0,100,99.48c0,.52,2.39.16,2.41-.65a2.52,2.52,0,0,1,1-2c.06,0,.33-.14.14-.09s.07,0,.14,0h.53c1.1,0,4,0,3.13-1.74a2.72,2.72,0,0,1,0-2.5,2.16,2.16,0,0,1,.66-.75c.05,0,.3-.12.11-.08s.08,0,.13,0h12.7c.75,0,3.16-.62,2.15-1.67a21.26,21.26,0,0,0-1.82-1.47c-.64-.52-1.3-1-1.93-1.55a3.3,3.3,0,0,1-.52-4.47c.38-.49.77-.82,1.4-.67a5.37,5.37,0,0,1,1.47.7c.59.35,1.18.72,1.76,1.08,2,1.23,3.92,2.48,5.88,3.72l5.78,3.68c1.31.83,2.81,1.5,3.18,3.17a7.87,7.87,0,0,1,.08,1.61v9.25c0,1.76.2,3.77-.92,5.26a3.14,3.14,0,0,1-2.75,1.27h-19c-1.09,0-2.25.19-3.15-.57a2.73,2.73,0,0,1-1-2.12,3.3,3.3,0,0,1,.39-1.33.63.63,0,0,0-.35-1,3.58,3.58,0,0,0-1.18-.08h-1.62a3.85,3.85,0,0,1-2.66-.51,2.78,2.78,0,0,1-1-2.09,3.09,3.09,0,0,1,.34-1.33c.19-.41.26-.78-.22-1a6.94,6.94,0,0,0-1-.19,2.43,2.43,0,0,1-1-.55,2.81,2.81,0,0,1-.89-2.06C102.39,98.28,100,98.69,100,99.48Z"/><path d="M103.21,98.83a2,2,0,0,1,.23-.84s.39-.53.43-.48-.43,0-.16.09a5.21,5.21,0,0,0,.79,0h14.85c.46,0,1.71-.26,1.71-.89V95.9c0-.26-.58-.25-.71-.25H109.24s.25.1-.09,0a1.75,1.75,0,0,1-.67-.36,1.88,1.88,0,0,1-.26-2.6,2.45,2.45,0,0,0,.2-.18c.06-.17-.2.06-.22.05h0a.61.61,0,0,0,.19,0c.73,0,1.47,0,2.21,0h13.9c.27,0,2.2-.54,1.63-1l-5.83-4.73a3.33,3.33,0,0,1-1.21-1.39,2.36,2.36,0,0,1,.78-2.78c-.17.11-.22-.06,0,0l.13,0a2.84,2.84,0,0,1,.7.3c.27.14.52.31.78.47.84.51,1.66,1,2.49,1.55,3.09,1.95,6.18,3.92,9.26,5.88,1.07.68,2.18,1.32,3.22,2s1,1.76,1,2.82v9c0,.8,0,1.61,0,2.41a4.14,4.14,0,0,1-1.2,3.18,2.4,2.4,0,0,1-1.69.47c-5.34,0-10.69,0-16,0h-4.8c.22,0,0,0-.08,0a2.09,2.09,0,0,1-.41-.17,1.89,1.89,0,0,1-.9-1.35,1.72,1.72,0,0,1,.07-.87,1.56,1.56,0,0,1,.17-.37c.08-.13.29-.26.34-.39s-.25,0-.18.06.09,0,.13,0c.22,0,.45,0,.67,0h5.71c.46,0,1.71-.26,1.71-.9V106c0-.26-.58-.25-.71-.25h-12.2c-.23,0-.46,0-.69,0s.11,0-.1,0a1.81,1.81,0,0,1-1.15-.89,2,2,0,0,1-.19-1.35,1.89,1.89,0,0,1,.26-.6c.06-.09.15-.16.21-.25s.3-.15,0-.06.11,0,.23,0h12.63c.46,0,1.71-.26,1.71-.89V101c0-.26-.58-.25-.71-.25H105.56c-.29,0-.59,0-.89,0,0,0,0,0,0,0s.16.05,0,0a1.52,1.52,0,0,1-.46-.18,2,2,0,0,1-.93-1.69c0-.56-2.45-.13-2.42.65a2.5,2.5,0,0,0,2.23,2.33,6.12,6.12,0,0,0,1,0h15.37l-.71-.24v.8l1.71-.89H107.68c-1.48,0-3.23.54-3.91,2a2.36,2.36,0,0,0,.49,2.65,3,3,0,0,0,2.16.76c2.07,0,4.13,0,6.2,0h6.73l-.71-.25v.81l1.71-.89h-3.94c-1.58,0-3.33-.2-4.78.57a2.63,2.63,0,0,0-1.47,3.27,2.76,2.76,0,0,0,2.67,1.55h20.26a8.75,8.75,0,0,0,4.52-1,5.05,5.05,0,0,0,2.36-4.76V97c0-.93.06-1.88,0-2.81-.13-1.65-1.48-2.29-2.7-3.06l-9.12-5.8-3.38-2.13c-.7-.43-1.4-.91-2.14-1.27-2.3-1.12-6.08.36-6.07,3.21,0,1.64,1.48,2.53,2.62,3.45l3.91,3.17.83.68,1.63-1h-14c-.75,0-1.5,0-2.25,0-1.73,0-4,1-4,3a2.42,2.42,0,0,0,1.69,2.21,4.34,4.34,0,0,0,1.44.16h10.83l-.71-.24v.8l1.71-.89H105.12c-1.92,0-4.23.8-4.33,3C100.77,100,103.18,99.64,103.21,98.83Z"/><path d="M93.65,109.89v1.8a.38.38,0,0,1-.2.33.37.37,0,0,1-.38,0,2.88,2.88,0,0,0-1.55-.45,2.93,2.93,0,0,0-2.93,2.93v13a.39.39,0,0,1-.25.36.38.38,0,0,1-.41-.12l-2.8-3.45a3.52,3.52,0,0,0-6.43,2,4.3,4.3,0,0,0,.72,2.07l.09.16c1.28,2.14,9.72,15.37,9.8,15.5a3.54,3.54,0,0,0,2.79,1.38h12.18a4.92,4.92,0,0,0,5.35-5.33V119.09a2.93,2.93,0,0,0-2.93-2.93,2.88,2.88,0,0,0-1.55.45.39.39,0,0,1-.38,0,.38.38,0,0,1-.2-.33v-3.64a2.93,2.93,0,0,0-2.93-2.93,2.88,2.88,0,0,0-1.55.45.38.38,0,0,1-.58-.31,2.93,2.93,0,0,0-5.86,0Zm5.06,0h0v15.72h.81v-13a2.13,2.13,0,1,1,4.25,0v13h.8v-6.52a2.13,2.13,0,1,1,4.25,0V140a4.54,4.54,0,0,1-1.15,3.32,4.5,4.5,0,0,1-3.38,1.22H92.1a2.7,2.7,0,0,1-2.11-1l-4.42-6.95c-2.18-3.43-4.74-7.47-5.37-8.54a3.75,3.75,0,0,1-.69-1.82,2.71,2.71,0,0,1,4.94-1.5l5,6.11V114.49a2.13,2.13,0,1,1,4.25,0v11.12h.81V109.89a2.13,2.13,0,1,1,4.25,0Z"/><path d="M92.44,110.21v1a2,2,0,0,1-.08.94l.26-.29-.11.09.82-.37-.19,0,1.1,0c-.32-.1-.61-.29-.94-.39a3.87,3.87,0,0,0-1-.16,5.5,5.5,0,0,0-2.2.36,4.07,4.07,0,0,0-2.52,2.33,7.72,7.72,0,0,0-.19,2.54V127a3.49,3.49,0,0,0,0,.56c.05.26-.15.23.24,0l.92-.29-.15,0,.78,0c-.14,0-.23-.21-.32-.31l-.66-.82-1.47-1.8a7.42,7.42,0,0,0-1.36-1.49,4.78,4.78,0,0,0-3.63-.67c-2.44.44-5,2.59-4,5.31a16.58,16.58,0,0,0,1.75,3.06c1.83,2.92,3.67,5.82,5.52,8.73L87.3,143a7.32,7.32,0,0,0,1.57,2.05,5.82,5.82,0,0,0,3.74.84h4.27c2.43,0,4.89.11,7.31,0,2.62-.14,5.42-1.33,6.32-4a9.23,9.23,0,0,0,.33-3V119a3.3,3.3,0,0,0-2.17-3.23,4.4,4.4,0,0,0-2-.18,5.85,5.85,0,0,0-1.09.22c-.18.06-.36.12-.54.2,0,0-.86.33-.24.15l1.11,0c-.34-.08-.16-1.54-.16-1.82,0-.66,0-1.33,0-2a3.19,3.19,0,0,0-1.72-2.75,4,4,0,0,0-1.92-.43,5.82,5.82,0,0,0-1.43.21,6.52,6.52,0,0,0-.7.25c-.11,0-.8.32-.24.15l1.11-.05c-.24,0-.26-1-.37-1.23a3.31,3.31,0,0,0-.8-1.16,3.8,3.8,0,0,0-2.8-.93c-2.18.11-4.4,1.47-4.47,3.82,0,.52,2.39.16,2.42-.64a2.52,2.52,0,0,1,1-2c.06,0,.33-.14.13-.09s.11,0,.2,0a2,2,0,0,1,1,.4,2.73,2.73,0,0,1,1.15,2c0,.35.08.61.44.77a2.59,2.59,0,0,0,1.94-.23c.38-.17.33-.23.71-.15a2.33,2.33,0,0,1,1,.53,2.75,2.75,0,0,1,1,2c0,.87,0,1.75,0,2.63a6.37,6.37,0,0,0,0,1.07c.16,1,1.61.62,2.22.38.45-.17.43-.3.85-.21a2.35,2.35,0,0,1,1,.48,2.73,2.73,0,0,1,1,2c.06.92,0,1.86,0,2.79v17.64c0,1.84-.32,4.21-2.32,4.92a5.59,5.59,0,0,1-1.87.17H95.12c-1.62,0-3.38.31-4.55-1.1a27.81,27.81,0,0,1-1.95-3c-2.44-3.82-4.88-7.64-7.28-11.49a16.08,16.08,0,0,1-1.13-2,3.08,3.08,0,0,1,0-2.54c.22-.5.71-1.24,1.29-1.35,1.15-.23,2.09.89,2.72,1.67l1.94,2.38a8,8,0,0,0,.63.78c.61.6,1.79.24,2.42-.12s.61-.91.61-1.57V114.81a3.84,3.84,0,0,1,.29-1.8,2.26,2.26,0,0,1,.67-.8c.06,0,.32-.14.14-.1s.25,0,.35.06c.44.09.79.4,1.25.46a3,3,0,0,0,2-.55c.67-.51.41-1.76.41-2.51C94.86,109,92.44,109.42,92.44,110.21Z"/><path d="M97.5,110.21v15.72c0,.26.58.25.71.25H99c.47,0,1.71-.26,1.71-.89V112.4c0-.09,0-.19,0-.28s.52-1.27.64-1.12-.67,0,0,.15a1.64,1.64,0,0,1,.56.32,1.94,1.94,0,0,1,.65,1.24,4,4,0,0,1,0,.6v12.62c0,.26.57.25.7.25h.81c.47,0,1.71-.26,1.71-.89v-5.75a3.6,3.6,0,0,1,.16-1.46c.1-.23.36-.4.45-.6l0,0c.11-.07,0,0-.26.07h0a.64.64,0,0,1,.2,0,1.86,1.86,0,0,1,1.2,1.18,3.09,3.09,0,0,1,.11,1v19.89a6.2,6.2,0,0,1-.56,3.12,2.33,2.33,0,0,1-2.27,1.25c-.23,0-.45,0-.68,0H95.22c-.87,0-1.74,0-2.61,0,.18,0-.28,0-.36-.08a2.07,2.07,0,0,1-.8-.46,1.55,1.55,0,0,1-.35-.38c-.31-.44-.58-.91-.87-1.37-1.65-2.59-3.31-5.18-5-7.78-1.25-2-2.51-3.93-3.72-5.92a3.55,3.55,0,0,1-.81-2.44,2.43,2.43,0,0,1,.74-1.32c.09-.1.33-.15.05-.11a1.3,1.3,0,0,1,.72.15,3.62,3.62,0,0,1,1.31,1.21l1.16,1.43,3,3.67.57.69c.4.5,2.33-.09,2.33-.76v-16.3a2.14,2.14,0,0,1,.2-.78c.09-.19.34-.35.41-.52l0,0c.11-.07,0,0-.26.07h0a.45.45,0,0,1,.2,0c1.21.36,1.31,1.5,1.31,2.54v10.42c0,.26.58.25.71.25H94c.47,0,1.71-.26,1.71-.89V110.06a2.77,2.77,0,0,1,.16-1.18c0-.09.44-.71.51-.64l-.29.09H96s.52.16.58.19a2,2,0,0,1,.93,1.69c0,.56,2.45.14,2.42-.65-.15-3.41-5.65-2.82-6.55-.15a9.29,9.29,0,0,0-.12,2.79v13.73L95,125h-.81l.71.25V115c0-1.12-.12-2.18-1.23-2.8-2-1.1-5.38.2-5.44,2.64,0,.54,0,1.07,0,1.6v14.72l2.34-.76c-1.64-2-3.29-4-4.91-6.05A3.36,3.36,0,0,0,83,123a5,5,0,0,0-4,1.63,2.87,2.87,0,0,0-.29,3.27c.38.73.85,1.41,1.29,2.1,2.14,3.43,4.31,6.83,6.48,10.24.75,1.18,1.48,2.39,2.26,3.55s2.2,1.34,3.54,1.34h9.59a18.6,18.6,0,0,0,3.58-.17,5.91,5.91,0,0,0,3.66-2,5.41,5.41,0,0,0,.93-3.24c.06-5.67,0-11.35,0-17v-3.28c0-.2,0-.39,0-.58a2.44,2.44,0,0,0-2-2.29,4.36,4.36,0,0,0-4.14,1.4,3,3,0,0,0-.51,2v6.08l1.7-.89h-.8l.7.25V112.62c0-4-6.59-3.16-6.66.39,0,2.06,0,4.13,0,6.19v6.73L100,125h-.81l.71.25V109.56C99.92,109,97.5,109.42,97.5,110.21Z"/><path d="M96.58,92.54a2.94,2.94,0,0,0,2.93-2.91.38.38,0,0,1,.58-.31,2.89,2.89,0,0,0,1.55.46,2.94,2.94,0,0,0,2.93-2.94V83.2a.38.38,0,0,1,.58-.32,2.89,2.89,0,0,0,1.55.46,2.94,2.94,0,0,0,2.93-2.94V59.5a4.93,4.93,0,0,0-5.35-5.34H92.1a3.57,3.57,0,0,0-2.79,1.38c-.08.13-8.52,13.36-9.8,15.51l-.09.16a4.26,4.26,0,0,0-.72,2.07,3.52,3.52,0,0,0,6.43,2l2.8-3.46a.36.36,0,0,1,.41-.11.37.37,0,0,1,.25.35V85a2.94,2.94,0,0,0,2.93,2.93,2.89,2.89,0,0,0,1.55-.46.4.4,0,0,1,.38,0,.38.38,0,0,1,.2.33v1.8A2.94,2.94,0,0,0,96.58,92.54Zm0-.81a2.13,2.13,0,0,1-2.12-2.13V73.88h-.81V85a2.13,2.13,0,0,1-4.25,0V68.69l-5,6.1a2.7,2.7,0,0,1-4.94-1.5,3.8,3.8,0,0,1,.69-1.82c.63-1.07,3.19-5.11,5.37-8.54L90,56a2.73,2.73,0,0,1,2.11-1h12.19a4.12,4.12,0,0,1,4.53,4.54V80.4a2.13,2.13,0,1,1-4.25,0V73.88h-.8v13a2.13,2.13,0,0,1-4.25,0v-13h-.81V89.6h0A2.14,2.14,0,0,1,96.58,91.73Z"/><path d="M96.08,93.1a5.44,5.44,0,0,0,3.47-1.28,3.79,3.79,0,0,0,.89-1.17,2.85,2.85,0,0,0,.22-.7,2.21,2.21,0,0,1,.14-.74l-.25.28.1-.08-.82.37.19,0-1.1,0c.39.12.73.35,1.14.45a4.56,4.56,0,0,0,1.17.11,5.86,5.86,0,0,0,2.42-.62,3.65,3.65,0,0,0,2.13-3c0-.66,0-1.33,0-2V83.45a1.27,1.27,0,0,1,.08-.68l-.25.29.1-.08-.82.36.19,0-1.1,0c.33.1.61.3.94.4a4.34,4.34,0,0,0,1,.16,5.72,5.72,0,0,0,2.34-.43,4,4,0,0,0,2.43-2.42,7.6,7.6,0,0,0,.13-2.08V61.45c0-2.52.18-5.41-2.31-6.94a8.12,8.12,0,0,0-4.39-.91h-4c-2.52,0-5-.05-7.56,0A5.56,5.56,0,0,0,88,55.85l-1.71,2.67Q83.5,63,80.67,67.45c-.69,1.1-1.39,2.19-2.07,3.3a10.2,10.2,0,0,0-.83,1.52,3.57,3.57,0,0,0,.46,3.49c1.62,2.21,5.11,1.93,7.09.38a8.65,8.65,0,0,0,1.32-1.45l1.52-1.88.62-.76c0-.06.3-.34.21-.26l-.82.37.15,0-.9.09.16,0-.37-.13c.24.15.17.47.17.72v5.89c0,2.2,0,4.42,0,6.62a3.19,3.19,0,0,0,1.8,2.78,3.93,3.93,0,0,0,1.94.39,5.43,5.43,0,0,0,1.33-.21l.51-.17c.13-.05,1-.4.43-.23l-1.11,0c.3.07.16,1,.16,1.21a6.39,6.39,0,0,0,.08,1.45,3.48,3.48,0,0,0,3.56,2.5,2.17,2.17,0,0,0,1.61-.61C98,92,97.41,92,97.08,92c-1.43,0-2.22-1.6-2.22-2.85,0-.5,0-1,0-1.52,0-.89-1.19-.79-1.82-.61-.31.08-.57.26-.86.36s0,0-.16,0A2.1,2.1,0,0,1,91,87a2.69,2.69,0,0,1-1.19-1.89,10.75,10.75,0,0,1,0-1.39V72.15a3.08,3.08,0,0,0,0-.43c-.14-.84-1.3-.67-1.88-.5-1,.29-1.55,1.16-2.19,2S84.6,74.55,84,75.25c-.27.35-.61.85-1.09,1A2.55,2.55,0,0,1,81,75.49a3.31,3.31,0,0,1-1.1-2.1A3.79,3.79,0,0,1,80.63,71c.3-.53.63-1,1-1.56,1.18-1.89,2.37-3.77,3.57-5.66s2.5-4,3.76-5.92c.39-.61.78-1.23,1.18-1.84s.61-1.05,1.17-1.24a3.71,3.71,0,0,1,1.2-.05h9.25c1.74,0,3.6-.18,5,1s1.67,3.16,1.67,5V78.53a8.89,8.89,0,0,1-.19,3.13,2.37,2.37,0,0,1-.6.9,2.25,2.25,0,0,1-.36.24c.09,0,.2,0,0,0a11.22,11.22,0,0,1-1.23-.43,2.75,2.75,0,0,0-2,.29,1.15,1.15,0,0,0-.68,1.14c0,.49,0,1,0,1.45a8.47,8.47,0,0,1-.17,2.8,2.38,2.38,0,0,1-.59.94c-.1.09-.24.15-.33.24s0,0-.09,0c.11-.07.21,0,.07,0s-.42,0-.64-.13-.36-.2-.55-.27a2.57,2.57,0,0,0-1.94.2,1.3,1.3,0,0,0-.82.81A5.55,5.55,0,0,1,98.07,91a2.23,2.23,0,0,1-.61.85,1.73,1.73,0,0,1-.32.2c.06,0,.29,0-.06,0a2.21,2.21,0,0,0-1.6.61C95.17,93,95.74,93.11,96.08,93.1Z"/><path d="M97.35,91.17c-1.42-.06-1.69-1.39-1.69-2.53V73.56c0-.26-.57-.25-.7-.25h-.81c-.47,0-1.71.26-1.71.9V84a4.11,4.11,0,0,1-.31,2.31s-.32.38-.35.35.67,0,0-.15a1.79,1.79,0,0,1-1.06-1,2.82,2.82,0,0,1-.17-1V68.36c0-.33-.86-.23-1-.21a2.19,2.19,0,0,0-1.31.58l-4.73,5.83-.21.26a2.37,2.37,0,0,1-.35.42c-.12.11-.36.2-.11.16-1.12.14-2-1.13-2.15-2.1a2.51,2.51,0,0,1,.37-1.53,9,9,0,0,1,.49-.83c.49-.81,1-1.61,1.5-2.41Q86,63.88,89,59.25c.68-1.06,1.32-2.17,2-3.21a1.68,1.68,0,0,1,.45-.47c.16-.1-.1,0,.12,0h.07c.33,0,.67,0,1,0h9.13a17.37,17.37,0,0,1,2.7.06c2.19.36,3.1,2.26,3.11,4.3,0,5.34,0,10.69,0,16V79.5a5,5,0,0,1-.16,1.92c-.1.22-.37.4-.45.6s.25-.14.28-.06a2.13,2.13,0,0,1-.28-.06,1.84,1.84,0,0,1-1.17-1.31,5.88,5.88,0,0,1-.06-1.33v-5.7c0-.26-.57-.25-.71-.25h-.8c-.47,0-1.71.26-1.71.9v12.2c0,.23,0,.45,0,.68a2.83,2.83,0,0,1,0,.29c0,.1-.52,1.26-.64,1.11s.67.05,0-.15a1.49,1.49,0,0,1-.56-.32,1.94,1.94,0,0,1-.65-1.24c0-.2,0-.4,0-.6V73.56c0-.26-.57-.25-.7-.25h-.81c-.47,0-1.71.26-1.71.9V88.76c0,.35,0,.7,0,1a1.55,1.55,0,0,1,0,.22,1.89,1.89,0,0,1-.3.87c-.06.09-.16.16-.21.25l-.14.1q.45-.09.24-.09a2.25,2.25,0,0,0-1.61.61c-.3.44.27.54.61.53a4.11,4.11,0,0,0,3.62-2A3.13,3.13,0,0,0,99.92,89V73.56l-1.71.89H99l-.7-.24V86.87c0,4,6.59,3.16,6.66-.39,0-2.06,0-4.13,0-6.19V73.56l-1.71.89h.81l-.7-.24v3.93c0,1.31-.32,3.1.64,4.14,1.78,1.93,6,.41,6-2.21,0-.65,0-1.3,0-1.95V59.77A5.65,5.65,0,0,0,109,56c-1.17-1.45-3.07-1.6-4.79-1.6H94.72a14.09,14.09,0,0,0-3.31.16,4.42,4.42,0,0,0-2.63,1.63c-.32.47-.62,1-.92,1.45q-2.89,4.55-5.78,9.1c-.73,1.14-1.45,2.28-2.16,3.43-.48.76-.89,1.35-1.24,2a2.84,2.84,0,0,0,.38,3.3,3.85,3.85,0,0,0,3.8.88,4.76,4.76,0,0,0,2.75-1.71c.34-.44.7-.86,1-1.29l3.17-3.92.67-.83L88.19,69V83c0,.75,0,1.51,0,2.26,0,2,1.94,2.71,3.64,2.38a3.72,3.72,0,0,0,2.85-2,3.14,3.14,0,0,0,.18-1.25V73.56l-1.71.89H94l-.7-.24v15c0,.23,0,.47,0,.7a2.54,2.54,0,0,0,2.57,2.36,2.63,2.63,0,0,0,1.7-.46C97.86,91.56,97.86,91.19,97.35,91.17Z"/></g></svg>