<svg xmlns="http://www.w3.org/2000/svg" viewBox="0 0 200 200"><g id="Layer_1" data-name="Layer 1"><path d="M79.2,145.58l-1.14.47,3.48.75q-4.5-11.09-9-22.19l-2.1-5.17-1.35,2,1.13-.46c.65-.27,1.69-1.23,1.35-2.06l-.57-1.4c-.57-1.4-2.33-1.23-3.48-.76l-13.37,5.44,3.37,1.67c2.46-7.75-1.84-18.35-10.23-20.45a10.39,10.39,0,0,0-10.55,3.19c-2.55,3.06-3,7.3-2.34,11.11a16.81,16.81,0,0,0,8.13,11.67l.8-2.79-.89.36c-.65.27-1.69,1.23-1.35,2.06l.57,1.4c.57,1.4,2.33,1.23,3.48.76l1.13-.46L42.78,130q3.77,9.24,7.51,18.48l1.88,4.62a2,2,0,0,0,2.19,1.1h0l-2.19-1.1,1.73,4.27,1.35-2-1.13.46c-.65.26-1.69,1.22-1.35,2.05l.57,1.41c.57,1.4,2.33,1.22,3.48.76l21.95-8.93,3.13-1.28c.65-.26,1.69-1.22,1.35-2.05l-.57-1.41c-.45-1.11-1.81-1.27-2.85-1-.81.22-2.43,1.18-2,2.29l.57,1.4,1.35-2-21.95,8.93-3.13,1.27,3.48.76-.57-1.4-1.35,2,1.13-.46c.65-.27,1.69-1.23,1.35-2L57,151.81a2.05,2.05,0,0,0-2.2-1.1h0l2.2,1.1q-4-9.83-8-19.66l-1.4-3.43c-.56-1.4-2.33-1.23-3.48-.76l-1.13.46,3.48.76-.57-1.41-1.35,2.06.89-.37c.92-.37,2.17-2.05.8-2.79-5.58-3-9.13-11.09-6.41-17.08A5.48,5.48,0,0,1,42,107a3.35,3.35,0,0,1,2.34-.3c2.67.45,4.89,2.6,6.36,4.76,2.28,3.35,3.46,8,2.2,12-.67,2.11,2,2.22,3.37,1.67l13.37-5.44-3.48-.76.57,1.41,1.35-2-1.13.46c-.65.26-1.69,1.22-1.35,2q4.45,11,8.93,22l2.18,5.39c.57,1.4,2.34,1.22,3.48.76l1.14-.46c.92-.38,1.8-1.51,1.15-2.47S80.13,145.2,79.2,145.58Z"/><path d="M86,88.31l-3.12-5.56c-.54-1-1-1.91-1.6-2.85-.9-1.5-2.54-1.16-4.08-.78l2,.68.05,0c.63-.35.78-.82,0-.92a6.82,6.82,0,0,0-3.17.66l-.1,0,3.55,0a1.71,1.71,0,0,0,.6-1.74c-.24-1-3.75.35-4.25.63h0l4.25-.64a17.9,17.9,0,0,0-1.48-2.67c-.58-1-.94-2.12-2.16-2.49l-.16.9h0c.77-.43.68-.94-.25-.94a9.12,9.12,0,0,0-3.1.59l3.23-.18,0,0-.24.42a1.75,1.75,0,0,0,.78-1.55c0-1-3.86.42-4.25.64h0l4.25-.63a24.45,24.45,0,0,0-2-3.8,4.22,4.22,0,0,0-.89-1.31c-1.31-1-3.58-.05-4.86.46l3.79-.4c-2.22-4.17-4.5-8.41-7-12.42l-.24.42c1.63-1.23.07-3-.66-4.26-.34-.61-.65-1.28-1-1.86-.74-1.11-2.1-.93-3.27-.71l1.37.83.06,0c.49-.28.85-.69.16-.9a5.16,5.16,0,0,0-2.81.42l-.18.07,3,.24a1.6,1.6,0,0,0,.64-1.74c-.36-1-3.68.32-4.24.63h0l4.25-.64a29.26,29.26,0,0,0-1.58-2.84,6.94,6.94,0,0,0-2.26-2.85,23.65,23.65,0,0,0-3.72-1.53c-1.39-.53-2.79-1.07-4.17-1.63s-2.58-1.11-3.87-1.68a5.24,5.24,0,0,0-4.54.59l4.25-.63-1.12-2-.58.66c.71-.4,1.6-.8,1.19-1.7s-1-1.73-1.45-2.58a2.47,2.47,0,0,0-2.16-1.58,8.51,8.51,0,0,0-4.55,1.21c-1.66.91-3.31,1.86-5,2.79-.73.41-1.54.85-1.75,1.73s.44,1.67.85,2.4a9,9,0,0,0,1.34,2.31c.79.69,2.71.07,3.52-.22A11.39,11.39,0,0,0,39,38.44l-4.25.64,1.12,2,.24-.42c-.59.59-.45,2.29-.56,3.08-.18,1.29-.4,2.58-.62,3.87s-.49,2.74-.74,4.11A8,8,0,0,0,34,55.18a10.71,10.71,0,0,0,1.22,2.44,25.18,25.18,0,0,0,1.44,2.52l.58-.66h0s-.75.47-.58.66c1.1,1.28,3.21.61,4.57.16l-3-.24-.15.12c-.75.6.47.71.85.69a7.29,7.29,0,0,0,3.16-.9l.06,0-4,.21a1.64,1.64,0,0,0-.28,2.17c.43.8.89,1.59,1.34,2.38.28.49.52,1,.84,1.5,1,1.44,3.39.77,4.72.24l-3.23.18c2.3,4.15,4.65,8.27,7,12.41.55,1,3.59-.22,4.25-.64h0L48.53,79h0l.24-.42c-1.38,1-.51,2.17.13,3.31a20,20,0,0,0,1.86,3.16l.58-.66h0c-.19.11-.88.55-.44.81,1.26.79,3.07.27,4.33-.21L52,85.2v0l.24-.42a2.86,2.86,0,0,0-.67.76c-.36.58,1.18.47,1.31.45a7.53,7.53,0,0,0,2.89-.88h0l-4.21.44c-.28,1.12.5,2,1,3a16.69,16.69,0,0,0,1.45,2.54l.58-.66h0c-.29.16-.79.48-.45.81.82.81,2.1.62,3.13.39L55.62,91l-.09.07c-.78.58.5.7.86.69a7.29,7.29,0,0,0,3.15-.9l0,0-4,.22c-1.11,1.21-.36,2,.3,3.19l2.4,4.28c.55,1,1.07,2,1.66,2.94,1.41,2.28,4.3,1.9,6.51,1.13a39.09,39.09,0,0,0,5.95-3.18l8.86-5c2.23-1.26,6.38-2.87,4.79-6.16-.52-1.09-5.16.61-4.83,1.29C82.45,92.18,80.08,93,78.33,94l-7.56,4.25-6,3.39a2.45,2.45,0,0,0-.48.26h0c-.3.17,0,.08.95-.29,1.49-.46,1-.17.35-.57a2.51,2.51,0,0,1-.79-.83c-.5-.75-.9-1.59-1.34-2.38L61,93.61c-.29-.52-1.71-2.33-1.13-3s-.32-.72-.85-.69a7.29,7.29,0,0,0-3.16.9h0l4-.21.09-.06c1.07-.81-1.49-.64-1.7-.59l-.38.08L59.42,90a1,1,0,0,1-.66-.37l-.44.82h0s.75-.46.58-.66a14.47,14.47,0,0,1-1.33-2.33c-.38-.67-1.45-1.94-1.24-2.78.3-1.18-3.81.22-4.21.44h0l4.21-.43c.14-.24-.36.2.27-.32a.47.47,0,0,0,.24-.42v0c-.41-.78-2.75,0-3.23.18,1.93-.72,2.78.12,1.85-.46l-.45.82h0s.75-.45.59-.65A17.31,17.31,0,0,1,54,81c-.35-.62-1.67-2.26-.84-2.88a.47.47,0,0,0,.24-.42v0c-.55-1-3.59.21-4.25.64h0l4.25-.64c-2.33-4.13-4.68-8.26-7-12.4-.43-.77-2.73,0-3.23.17l2-.34-.27-.25a.41.41,0,0,0,0-.09,3.09,3.09,0,0,0-.24-.43l-1-1.72c-.29-.53-1.7-2.32-1.12-3s-.32-.72-.85-.69a7.12,7.12,0,0,0-3.15.9l-.07,0,4-.22.15-.12c.5-.4.06-.63-.39-.68a6.28,6.28,0,0,0-2.6.44c-.37.12,1.38-.3,1.55-.31,1-.1.55,0,.34-.21l-.58.66h0s.73-.44.58-.66a22,22,0,0,1-1.33-2.31c-.37-.68-.84-1.35-1.15-2.06a5.21,5.21,0,0,1-.16-3.1c.22-1.29.46-2.58.7-3.87.45-2.56.88-5.14,1.15-7.73l-.24.42h0a.47.47,0,0,0,.24-.42l-1.12-2c-.56-1-3.56.25-4.25.64l-.82.46L37.42,38l-.23,0,1.21.1a6.75,6.75,0,0,1-1.08-1.83,10.12,10.12,0,0,1-1-1.76c-.31-1,0-1.09.75-1.48l2.34-1.32,2.18-1.23.46-.26c-2.79,1.78-3.07.08-2.23,1.41.48.74.87,1.54,1.3,2.3.1.18.3.74.48.86s.6-.3.34-.11-.33.18-.49.28-.71.42-.58.65l1.12,2c.56,1,3.56-.24,4.24-.63h0l-4.12.79c2.26,1.07,4.58,2,6.92,2.92l3.52,1.36a5.73,5.73,0,0,1,2.86,1.76,21.55,21.55,0,0,1,1.15,2,23.07,23.07,0,0,1,1.3,2.33c.42,1,3.65-.3,4.25-.63h0l-4.25.64a1,1,0,0,1,0,.63c-.09.49,0,.07-.18.27-.48.41-.09.63.39.68a6,6,0,0,0,2.6-.44l.18-.06-2.65-.48-.06,0c-1.61.91.7,1,1.36.83l-.94.05.29.27s0,.05.05.08a4,4,0,0,0,.28.5l1,1.76c.35.63,1.74,2.35.91,3a.47.47,0,0,0-.24.42c2.48,4,4.76,8.26,7,12.42.5.93,3.16-.14,3.79-.4l.27-.1-2.44.65c-.55.06-.27,0-.1.33a2.88,2.88,0,0,0,.22.38l.89,1.59a16.18,16.18,0,0,1,1.38,2.6c.35,1,3.7-.32,4.25-.64h0l-4.25.64a.65.65,0,0,1-.3.7.47.47,0,0,0-.24.42l0,0c.44.78,2.71,0,3.23-.18-1.73.23-2.3.34-1.69.34l-.25-.94h0c-.49.27-.85.69-.16.91s1.25,1.87,1.56,2.42a15.43,15.43,0,0,1,1.24,2.25c.35,1,3.69-.33,4.25-.64h0l-4.25.64a.84.84,0,0,1-.12.89c-.52.55.07.69.59.71a7.58,7.58,0,0,0,3-.68l.1,0-3.21-.26,0,0c-.41.24-.8.56-.31.86s1.8,0,2.32-.18l.27-.07-1.76.26c.26,0,.83,1.37.92,1.52l1.65,3L81.2,89.6C81.82,90.7,86.36,88.89,86,88.31Z"/><path d="M106.28,76.49l-.15-.17-2.4,2.93c1.88-.19,4.12-.67,4.31-2.93,0-.58,0-1.18,0-1.76l.12-8.24.32-21.09.08-5.18-2.64,2h0c1.36-.14,2.76-1,2.61-2.49-.12-1.21,0-2.66-1.32-3.21a4.05,4.05,0,0,0-2-.15l-5.79.57L85.13,38.16a6,6,0,0,0-2.25.47c-1.9.95-1.42,2.68-1.26,4.38.09.91,1.51,1.29,2.22,1.2h0L81.62,43l7,32.95c.17.79.31,1.6.51,2.38.49,2,2.3,2.1,4.05,1.93l-2.13-2.16A4.64,4.64,0,0,0,91,80.7c.09.93.09,1.91.27,2.82.39,2,2.63,1.64,4.17,1.49l6.11-.59c1.74-.17,4.48,0,5.28-2a7,7,0,0,0-.07-2.94l-.25-2.6c-.12-1.21-2-1.31-2.88-1.09a2.31,2.31,0,0,0-2,2.39l.44,4.48.09-1,0,.17,1.23-1.19-.16.09,1.28-.35-10.35,1,1.18.16-.17-.06.83.6c.29.54.08-.17,0-.42l-.15-1.54L95.67,78l-.1,1,.12-.2c.78-1.38-1.06-2.27-2.13-2.17-.16,0-.32,0-.48,0-.5.08-.54-.21.17.09l.83.6c-.18-.19-.2-.65-.26-.93l-.54-2.51-1.8-8.5L87.4,46.18l-1-4.46c-.19-.89-1.42-1.3-2.22-1.2h0l2.22,1.2-.19-2-.1,1,0-.18L85,41.68l.16-.09-1.28.35,18.93-1.85,2.71-.26-1.19-.16.17,0-.82-.6c-.26-.48-.08-.17-.1,0a3.78,3.78,0,0,0,.07.74l.1,1,2.61-2.5h0c-1,.11-2.62.77-2.64,2l-.49,32,0,3.22a2.92,2.92,0,0,1-.07,1.19l.7-.85-.21.14,1.16-.56c.69-.17-.38,0-.61,0-1.13.11-3.63,1.46-2.4,2.94l.15.17C103.34,80.42,107.91,78.45,106.28,76.49Z"/><path d="M145.59,61.46a5.69,5.69,0,0,0-7,.64c-.83.75-2.82,3.15-1.81,4.35l.64-2.06L123.56,76.56l-3.42,3c-.21.18-1.27,1-1.24,1.13l.73-.15a.45.45,0,0,1-.21-.12,5.06,5.06,0,0,0-.65-.66,13.29,13.29,0,0,0-1.35-1.53l-.16-.24c-.05-.28-.15-.11-.3.53a11.94,11.94,0,0,1,1.08-.94l2.33-2,6.6-5.79c2.74-2.4,5.46-4.84,8.23-7.21h-3.8c.66,1.14,3,.65,3.8,0q10.43-9.16,20.86-18.29l3-2.65-3,.54a16.13,16.13,0,0,0,2.73.86c-.13.15-.91-.65-.63-.38a1,1,0,0,1,.12.17c.16.33-.07-.48,0-.07a1.69,1.69,0,0,0,.1.35c.1.37,0,.36,0,.13a10.44,10.44,0,0,1-.19,1.35c0,.13-.18.56,0,0-.05.15-.1.3-.16.44-.15.37-.31.73-.49,1.09a25.74,25.74,0,0,1-3.83,5.5c-1.35,1.59-2.78,3.12-4.26,4.59-.91.92-1.83,1.81-2.77,2.7L145,60.46l-.7.63-.35.32c-.66.51-.45.5.61,0l1.17.11-.18,0a3.36,3.36,0,0,0-3.46.32c-.72.53-1.35,1.78-.29,2.38,3.2,1.78,5.7-1,7.89-3,1.85-1.71,3.66-3.47,5.39-5.29A48.35,48.35,0,0,0,161.36,48c1.16-1.9,2.87-5.11,1.39-7.3a4.07,4.07,0,0,0-2.46-1.28c-1.51-.47-3-.92-4.42.16-.38.28-.71.62-1.06.93L142.68,51.16c-3.54,3.11-7.1,6.22-10.64,9.34l3.8,0h0c-.66-1.14-3-.64-3.79,0-2.66,2.28-5.28,4.62-7.91,6.93l-7.24,6.34-2.19,1.92a7.75,7.75,0,0,0-2.15,2.16c-.7,1.45.63,2.77,1.54,3.74,1.35,1.44,2.67,2.47,4.76,2.33a6,6,0,0,0,3.24-1.23c.78-.62,1.51-1.33,2.26-2l9.37-8.22,6.89-6c.55-.48,1.26-1.33.64-2.07l0,0,.22.83c.05-.33-.09,0,.12-.37.11-.2.35-.65.38-.69s.23-.22.31-.35c-.08.13.13,0,0,0a2.24,2.24,0,0,0-.8.19s.35.24.35.25a3.29,3.29,0,0,0,3.46-.33C146.08,63.26,146.59,62.12,145.59,61.46Z"/><path d="M162.62,146.86l-28,7.33a27.3,27.3,0,0,0-5.2,1.71c-1.23.6-2.36,1.38-3.55,2a6.9,6.9,0,0,1-3.57,1.18,14.49,14.49,0,0,1-7-2,12.61,12.61,0,0,0-7.47-1.22,26.23,26.23,0,0,0-6.63,2.09l-14.6,6c-.27.11-1.14.5-1,.93l.35,1.48c.16.71,2.3.13,2.6.06l16.16-3.94-2.61-.06.54,2,2.23-1.35-16,4.34c-.38.1-2.43.66-2.23,1.35l.44,1.52c.21.7,2.27.14,2.61.06l16.08-4-2.6-.06.57,2.13,2.22-1.36-16.1,4.44c-.34.09-2.46.68-2.22,1.35l.5,1.42c.25.71,2.23.16,2.61.06l16.09-4-2.61-.06.54,2,2.23-1.36-16.14,4.56c-.36.1-2.45.67-2.23,1.35l.5,1.49c.18.56,1.62.27,2,.21L107.48,176c3.31-.53,6.62-1.4,9.17-3.73,2.06-1.88,3.12-4.51,5.25-6.35a9.4,9.4,0,0,1,2.41-1.56,4.9,4.9,0,0,1,1.7-.43,38.92,38.92,0,0,1,4.2,0,16.62,16.62,0,0,0,4.31-.72l6.55-1.75,20.2-5.41,3-.81a1.82,1.82,0,0,0,.52-.14h0c-.78.18-.75.18.08,0a9.53,9.53,0,0,0,1.3-.46,8.46,8.46,0,0,0,1.31-.74c1.28-.88,4.12-3.14,3.24-5-.49-1-1.84-1.57-2.84-1.89a8.88,8.88,0,0,0-4.63-.22c-.69.15-2.6.46-2.84,1.29s1.63.48,1.92.42a5.06,5.06,0,0,1,2.59.83c.83.5,1.34,1.09.95,2.05a5.9,5.9,0,0,1-1.73,2.14,6.59,6.59,0,0,0-.78.58c0-.14,3-.89,1-.4-1.5.38-3,.8-4.47,1.2L140.48,160l-6.27,1.68-.55.15c-.16,0-.33.07-.49.12l.12,0c-.44.08-.32.08.37,0h-.87a33.52,33.52,0,0,0-4.91.11,18.44,18.44,0,0,0-12.61,6.66c-1.43,1.82-2.45,4.24-4.76,5.15-.17.06-.69.29-.84.23s.88-.14.44-.11-.63.11-.94.16L91.92,176.9l2,.21-.5-1.49L91.16,177l16.14-4.55c.39-.11,2.41-.65,2.22-1.36l-.54-2c-.19-.7-2.28-.14-2.6-.06l-16.09,4,2.6.06-.5-1.42L90.16,173l16.1-4.43c.39-.11,2.41-.66,2.23-1.36l-.57-2.12c-.19-.71-2.28-.14-2.6-.06l-16.09,4,2.6.06-.44-1.51-2.23,1.35,16-4.34c.39-.1,2.41-.65,2.22-1.35l-.54-2c-.19-.71-2.28-.14-2.6-.06l-16.16,4,2.61.06-.35-1.48-1,.93,12.74-5.27,3.19-1.32c.29-.12.58-.23.87-.36,1-.43-1.42.41-.61.22,2.19-.5,4.09.33,6,1.31a16.75,16.75,0,0,0,7.11,1.84,22.2,22.2,0,0,0,11.89-3.59c.49-.3,1-.61,1.48-.9.32-.19,0,0,0,0l.58-.28a2.8,2.8,0,0,0,.61-.28s-1.06.27-.78.28a6.32,6.32,0,0,0,1.52-.4l15.79-4.14L163,148.27c.42-.11,2.41-.65,2.22-1.35S163,146.77,162.62,146.86Z"/><path d="M102.58,140.89a7.15,7.15,0,0,0,.83-2.33c0-1.05-1.25-1.33-2-1.66l-1.43-.58c-.21-.09-.81-.2-1-.39.12.16,0-.57,0-.65a3.88,3.88,0,0,1,.28-1.22c.07-.19.15-.37.22-.55,1.37-3.39,2.77-6.78,4.15-10.17l1.51-3.71-3,1.06a9.33,9.33,0,0,0,8.74-1.21,12.78,12.78,0,0,0,4.12-5.65l3.57-8.74a1,1,0,0,0-.71-1.42l-2.88-1,.71,1.42,1.49-3.45c.35-.81-.31-1.49-1.15-1.51l-3.15,0,1.26,1.16.24-6.53a1.05,1.05,0,0,0-.82-1.07l-7.42-3c-1.46-.59-3-1.12-4.33.2a5.34,5.34,0,0,0-1,2c-2.08,5.1-4.21,10.17-6.23,15.29-1.87,4.71-1.58,10.49,3.58,12.79l-.7-1.41-3.14,7.71-2,4.78c-.3.73-1.24,2.37-1.14,3.1l1.46-.67c.09,0,.1,0,0,0a2.37,2.37,0,0,0-.32-.13c-.29-.15-.62-.25-.93-.38-.83-.34-1.67-.74-2.52-1-2.28-.75-3.65,1-4.21,2.91-.46,1.57,1.18,1.93,2.31,2.39l4.78,2,5.62,2.29c1.69.69,3.28,1.43,4.86-.18a1,1,0,0,0-.47-1.75,2.8,2.8,0,0,0-2.73.73l-.16.16,1.8-.82c1,0,.71.09.14-.14l-1.51-.62-4.71-1.92L90.06,135l-1.54-.63-.45-.18c-.32-.1-.12-.24.31.19l.18.65c0,.09-.18.11,0-.14a5.56,5.56,0,0,0,.25-.61c.08-.2.18-.4.24-.6s.23-.3,0-.1l-1.8.82c-.82,0-.76-.11-.09.16l1.49.61A11.94,11.94,0,0,0,91,136a3.6,3.6,0,0,0,4-1.67c.25-.56.36-1.18.59-1.75,1.35-3.39,2.75-6.76,4.13-10.14l1.47-3.61c.29-.71-.07-1.14-.7-1.42-4.61-2.05-3-8-1.52-11.59l4.77-11.68,1-2.42c.09-.22.21-.45.28-.68s.22-.3.08-.16l-1.79.82c-.93,0-.73-.15-.3.06s.64.26,1,.39l3,1.24,4.37,1.78-.82-1.07-.24,6.53a1.2,1.2,0,0,0,1.26,1.16l3.15,0-1.14-1.5-1.5,3.44a1,1,0,0,0,.71,1.42l2.88,1-.7-1.42-3.17,7.76c-1.3,3.18-3.23,7.25-7.32,5.72-.89-.33-2.58.1-3,1.07l-3.38,8.27-1.94,4.78c-.57,1.39-1.46,3-1,4.53.39,1.15,1.43,1.53,2.45,1.94l1.63.67c.2.07.39.16.59.24.4.14.2.26-.21-.15l-.18-.66c0-.09.17-.08,0,.15a3.26,3.26,0,0,0-.25.61l-.35.87C98.1,142.51,102,142.38,102.58,140.89Z"/><path d="M123.49,119.41q5.55-13,11.09-26a11.39,11.39,0,0,0,1.17-4.3c0-2.47-1.55-3.9-3.69-4.81l-2.83,3.11,31.62,12.72c.65.27,1.34.49,2,.8,1.93.92,1.76,3.27,1.11,5a1.28,1.28,0,0,0,.89,1.78h0L164,105.9l-10.79,25.29-.72,1.7-.14.33c-.1.21-.2.44-.32.64a3,3,0,0,0-.27.39c-.27.68-.42-.2.11.06-.76-.37-2-.84-3-1.23l-15.48-6.22-7.3-2.94c-.45-.18-.94-.33-1.38-.55a3,3,0,0,1-1.16-4c1-2.5-3.85-2.33-4.59-.45a5.71,5.71,0,0,0,.53,5.89,6.66,6.66,0,0,0,2.74,1.77c1.74.71,3.49,1.4,5.23,2.1l17,6.84c1.37.55,2.72,1.14,4.11,1.65a6.64,6.64,0,0,0,8.49-3.82c1.95-4.48,3.84-9,5.76-13.48l5.78-13.56c.37-.85-.09-1.46-.88-1.78h0l.89,1.78c1-2.68,1.22-5.83-1.32-7.73A9.54,9.54,0,0,0,165,97.53l-7-2.83-20.74-8.34-5.17-2.08c-1.92-.77-5.63,1.93-2.83,3.11,2.51,1.06,1.53,3.76.69,5.71l-2.29,5.39-7,16.3L118.9,119C117.85,121.42,122.69,121.26,123.49,119.41Z"/><path d="M160.72,134.71l-26-10.47L131,122.76a1.21,1.21,0,0,0-.83.06,1,1,0,0,0-.66.47c-.51,1.15-1.13,2.6-2.27,3.26a2.89,2.89,0,0,1-2.59-.1c-.75-.29-2.26.77-1.14,1.22l29,11.67a6.58,6.58,0,0,0,2.72.64c2.77-.08,4.73-2.21,5.8-4.58C161.22,135.06,161,134.84,160.72,134.71Z"/><path d="M130.72,116.44l.43-1,19.76,7.94-.44,1-19.75-8Zm2-4.73.43-1,19.76,7.94-.44,1-19.75-7.94Zm2-4.73.43-1,19.75,7.94-.43,1L134.76,107Zm2-4.73.44-1,19.75,8-.43,1-19.76-7.94Zm2-4.74.44-1,19.75,8-.43,1-19.76-7.95Z"/></g></svg>