<svg xmlns="http://www.w3.org/2000/svg" viewBox="0 0 200 200"><defs><style>.cls-1,.cls-2{fill:none;stroke:#000;stroke-linecap:round;stroke-linejoin:round;}.cls-1{stroke-width:3px;}.cls-2{stroke-width:2.5px;}.cls-3{fill:#fff;}</style></defs><g id="Layer_1" data-name="Layer 1"><path class="cls-1" d="M30.36,114.78h0c1.91.08,5.57-1.4,10.3-3.22h0a53,53,0,0,1,18.46-3.73h.06A43.69,43.69,0,0,1,77,111.76h0c4.38,1.8,7.25,3,11.37,3h0c4.12,0,7.28-1.25,11.72-3h0c4.33-1.75,9.85-3.88,17.28-3.91h.24c7.5,0,12.74,2.25,16.73,4h0c4.16,1.74,7,3,12.32,3h0c.18,0,.32,0,.42,0h0c5.18,0,9.27-1.46,13.69-3.15h0c4.37-1.67,9.06-3.63,15-3.79"/><path class="cls-1" d="M30.36,126.51h0c1.91.08,5.57-1.4,10.3-3.22h0a53,53,0,0,1,18.46-3.73h.06A43.69,43.69,0,0,1,77,123.49h0c4.38,1.8,7.25,3,11.37,3h0c4.12,0,7.28-1.25,11.72-3h0c4.33-1.75,9.85-3.88,17.28-3.91h.24c7.5,0,12.74,2.25,16.73,4h0c4.16,1.74,7,3,12.32,3h0c.18,0,.32,0,.42,0h0c5.18,0,9.27-1.46,13.69-3.15h0c4.37-1.67,9.06-3.63,15-3.79"/><path class="cls-1" d="M30.36,138.24h0c1.91.08,5.57-1.4,10.3-3.22h0a53,53,0,0,1,18.46-3.73h.06A43.69,43.69,0,0,1,77,135.22h0c4.38,1.8,7.25,3,11.37,3h0c4.12,0,7.28-1.25,11.72-3h0c4.33-1.75,9.85-3.88,17.28-3.91h.24c7.5,0,12.74,2.25,16.73,4h0c4.16,1.74,7,3,12.32,3h0c.18,0,.32,0,.42,0h0c5.18,0,9.27-1.46,13.69-3.15h0c4.37-1.67,9.06-3.63,15-3.79"/><polyline class="cls-2" points="39.85 91.92 39.85 86.05 50.3 86.05 50.3 77.38 66.36 77.38 66.36 91.92"/><path d="M106.16,107.62q-16.84,0-33.69-.08a5.81,5.81,0,0,0-3.42.92c-.68.5-.71,1.19.32,1.2q17.37.06,34.74.08a4.58,4.58,0,0,0,3.22-1.19c.65-.86-.57-.92-1.17-.93Z"/><path d="M167.07,107.17a8.42,8.42,0,0,1-1.72.21c.93,0,.56,0,.33,0h-.6c-.7,0-1.41,0-2.11,0l-7.15,0q-12.15,0-24.32,0c-1,0-2.62.34-3.18,1.33s.47,1.45,1.32,1.45q12.3,0,24.62,0c2.37,0,4.74,0,7.1,0a29.45,29.45,0,0,0,5.06-.29c.88-.15,2.56-.57,2.74-1.65s-1.41-1.19-2.09-1.07Z"/><path d="M46.86,106.68c-2.32,0-4.68.08-7-.06s-3.67-1.27-3.66-3.52c0-3.78.14-7.56.25-11.34l-2.65,2h37l-2.22-1.21,2.29,6.89a2.12,2.12,0,0,0,2.23,1.21l22.44-.09,35.64-.14,8.2,0a2.92,2.92,0,0,0,2.51-1.53l2.8-6.63-2.51,1.53h33l-2.26-1.7c-.49,2.49-1,5-1.75,7.42a25.88,25.88,0,0,1-1.85,4.8,4,4,0,0,1-3,2.5c-1,.22-2.24,1.23-1.95,2.39s1.91,1.31,2.88,1.1c4.73-1,7-5,8.31-9.26a86.86,86.86,0,0,0,2.28-9.26c.24-1.26-1.37-1.7-2.26-1.7h-33A2.92,2.92,0,0,0,140,91.59l-2.8,6.63,2.51-1.53-22.45.08-35.63.14-8.2,0,2.22,1.21-2.29-6.88a2.11,2.11,0,0,0-2.23-1.21h-37c-1,0-2.62.85-2.65,2-.05,1.83-.1,3.65-.14,5.48a48.75,48.75,0,0,0,0,7.35c.43,3.25,3.47,5,6.49,5.36a80.35,80.35,0,0,0,8.64.13c1.08,0,2.55-.84,2.65-2s-1.25-1.7-2.27-1.7Z"/><rect class="cls-3" x="53.62" y="81.82" width="1.41" height="2.8"/><path d="M54.74,83.69H53.33l1,1.39v-2.8l-.37.47h1.41l-1-1.39v2.8a1.57,1.57,0,0,0,.16.71,1.48,1.48,0,0,0,.46.56c.14.08.33.18.48.09a.52.52,0,0,0,.23-.44v-2.8a1.6,1.6,0,0,0-.31-.94.92.92,0,0,0-.65-.45H53.33c-.25,0-.37.25-.37.47v2.8a1.67,1.67,0,0,0,.3.94.94.94,0,0,0,.66.45h1.41c.44,0,.39-.65.3-.93a1.7,1.7,0,0,0-.39-.66A.8.8,0,0,0,54.74,83.69Z"/><rect class="cls-3" x="57.45" y="81.82" width="1.41" height="2.8"/><path d="M58.56,83.69h-1.4l1,1.39v-2.8l-.37.47h1.41l-1-1.39v2.8a1.57,1.57,0,0,0,.16.71,1.48,1.48,0,0,0,.46.56c.14.08.33.18.48.09a.52.52,0,0,0,.23-.44v-2.8a1.6,1.6,0,0,0-.31-.94.92.92,0,0,0-.66-.45h-1.4c-.25,0-.37.25-.37.47v2.8a1.67,1.67,0,0,0,.3.94.92.92,0,0,0,.66.45h1.41c.44,0,.39-.65.3-.93a1.83,1.83,0,0,0-.39-.66A.8.8,0,0,0,58.56,83.69Z"/><rect class="cls-3" x="61.28" y="81.82" width="1.41" height="2.8"/><path d="M62.39,83.69H61l1,1.39v-2.8l-.37.47H63l-1-1.39v2.8a1.58,1.58,0,0,0,.17.71,1.48,1.48,0,0,0,.46.56c.13.08.33.18.48.09a.51.51,0,0,0,.22-.44v-2.8a1.67,1.67,0,0,0-.3-.94.92.92,0,0,0-.66-.45H61c-.24,0-.37.25-.37.47v2.8a1.6,1.6,0,0,0,.31.94.92.92,0,0,0,.65.45H63c.45,0,.4-.65.31-.93a1.72,1.72,0,0,0-.4-.66A.76.76,0,0,0,62.39,83.69Z"/></g></svg>