<svg id="Calque_1" data-name="Calque 1" xmlns="http://www.w3.org/2000/svg" viewBox="0 0 200 200"><defs><style>.cls-1,.cls-2{fill:none;stroke:#000;stroke-linecap:round;stroke-linejoin:round;}.cls-2{stroke-width:3px;}</style></defs><g id="Layer_1" data-name="Layer 1"><path d="M132.17,94.73a4.28,4.28,0,0,1-1,2.67s-.24.24-.11.12-.17.14-.21.16l-.25.19c.08-.05.35-.29,0,0,0,0,.46-.22.17-.09s.34-.09.41-.11h0a3.11,3.11,0,0,1-.44-.08c.26.07-.34-.14-.41-.17a4.09,4.09,0,0,1-1.14-.79,4.52,4.52,0,0,1-1.34-2.73,11.22,11.22,0,0,1,0-1.64V92a4.67,4.67,0,0,1,.08-.52,10.24,10.24,0,0,1,1.1-2.65c.48-.9.78-1.41,1.31-2.31l2.38-4-5.57.82a75.53,75.53,0,0,1,4.49,7.81,8.14,8.14,0,0,1,.64,3.55c0,.41.85.6,1.08.64a5.59,5.59,0,0,0,2.15-.19c.94-.27,2.57-.81,2.57-2a8.27,8.27,0,0,0-.64-3.54A80.54,80.54,0,0,0,133,81.83c-.48-.78-1.65-.74-2.45-.61-1,.16-2.57.52-3.12,1.44-1.39,2.3-2.81,4.58-4.09,6.94a9.38,9.38,0,0,0-1.3,3.05,7.37,7.37,0,0,0,.57,4.6c1.58,2.83,4.88,3.67,7.92,3.12,3.77-.67,7.39-3.06,7.48-7.2,0-.41-.86-.6-1.08-.64a5.59,5.59,0,0,0-2.15.19C133.78,93,132.2,93.53,132.17,94.73Z"/><path class="cls-1" d="M87,56.26a6.11,6.11,0,1,0-11.49-.92l-.63,2.47,8,3.53,1.4-2.14A6,6,0,0,0,87,56.26Z"/><line class="cls-1" x1="77.63" y1="57.13" x2="76.89" y2="58.79"/><line class="cls-1" x1="81.49" y1="58.84" x2="80.75" y2="60.51"/><line class="cls-1" x1="79.56" y1="57.98" x2="78.82" y2="59.65"/><path class="cls-1" d="M80.54,53c.37-.81-2.58-1.67-2.94-.86-.72,1.63,0,1.74.73,2.09S80.18,53.83,80.54,53Z"/><path class="cls-1" d="M82.57,53.92c.36-.81,3,.8,2.62,1.61-.72,1.62-1.27,1.19-2,.86A2.07,2.07,0,0,1,82.57,53.92Z"/><polyline class="cls-1" points="81.06 56.34 81.13 54.76 80.89 54.65 79.76 55.76"/><line class="cls-2" x1="123.16" y1="147.01" x2="128.2" y2="152.05"/><line class="cls-2" x1="128.2" y1="147.01" x2="123.16" y2="152.05"/><path class="cls-2" d="M119.55,139.83c-7.16,0-13.36,5.18-16.38,8.21l-6.41-4.15v12.58l6.41-4.14c3,3,9.22,8.21,16.38,8.21,10.13,0,18.34-10.36,18.34-10.36S129.68,139.83,119.55,139.83Z"/><path class="cls-2" d="M121.2,140.37s-2.19,1-2.27,10.48,2.27,9.47,2.27,9.47"/><path d="M27.51,117.48a17.08,17.08,0,0,0,6.83-1.74c2.46-1,4.83-2.26,7.29-3.3a38.25,38.25,0,0,1,14.28-3.3l-1.78-1.3h0c0,1.25,1.51,1.43,2.51,1.26-1.2.21-.59,0-.19,0h.92a8.23,8.23,0,0,1,1.57.1,27.5,27.5,0,0,1,3.11.48,33.36,33.36,0,0,1,5.36,1.6c3.52,1.4,6.75,3.41,10.29,4.75a20.66,20.66,0,0,0,12.58.68c4-1,7.61-3.16,11.37-4.83,6.85-3,14.44-3.8,21.67-1,3.23,1.26,6.18,3.08,9.35,4.46a25.19,25.19,0,0,0,11.75,2c5.12-.29,9.83-2.18,14.43-4.32,3.9-1.81,7.85-3.75,12.23-3.94,1.28-.06,3.09-.38,3.82-1.59s-.57-1.77-1.57-1.73A37.11,37.11,0,0,0,160,109.12c-3.64,1.59-7.16,3.59-11,4.55a17.83,17.83,0,0,1-10.69-.65c-3.22-1.26-6.18-3.13-9.36-4.48a35.31,35.31,0,0,0-25-.77c-3.78,1.27-7.25,3.13-10.88,4.76-3.3,1.48-6.39,2.16-10,1-4-1.3-7.66-3.75-11.64-5.25A36.81,36.81,0,0,0,65,106.46c-2.33-.44-5.19-1-7.57-.59l2.51,1.26h0c0-1-.89-1.32-1.77-1.3a48.86,48.86,0,0,0-16.89,3.41c-2.38.92-4.68,2-7,3.1-1.16.54-2.34,1-3.54,1.52-.14.06-.46.17-.13.06l-.68.2c-.38.11-.46,0-.07,0h-.08c-1.26,0-3.12.42-3.82,1.59s.59,1.71,1.57,1.72Z"/><path d="M27.43,128a17.55,17.55,0,0,0,6.81-1.78c2.48-1,5-2.33,7.29-3.31a37.72,37.72,0,0,1,14.29-3.26l-1.68-.55h0c0,.77,2.08.53,2.4.48-1.44.24.17.08.57.1s1,.07,1.55.12a28.57,28.57,0,0,1,3.19.49,35.45,35.45,0,0,1,5.51,1.7c3.52,1.39,6.75,3.41,10.29,4.75a20.71,20.71,0,0,0,12.53.49c4.06-1,7.84-3.23,11.55-4.9a28,28,0,0,1,10.19-2.65,27.19,27.19,0,0,1,11.35,1.94c3.23,1.26,6.18,3.07,9.34,4.46a24.52,24.52,0,0,0,11.57,1.85c5.3-.38,10.14-2.29,14.9-4.51,3.84-1.78,7.62-3.58,11.91-3.76,1.21,0,3.07-.43,3.86-1.45s-.69-1.25-1.44-1.22a37.37,37.37,0,0,0-13.34,3.32c-3.63,1.58-7.17,3.63-11,4.56a17.94,17.94,0,0,1-10.74-.83c-3.22-1.27-6.17-3.13-9.36-4.48-8.11-3.43-17.06-3.2-25.33-.46a110.78,110.78,0,0,0-10.76,4.74,12.39,12.39,0,0,1-9.78.71c-4-1.38-7.65-3.75-11.64-5.25a36.74,36.74,0,0,0-6.36-1.75,23,23,0,0,0-7.54-.49l2.41.48h0c0-.6-1.38-.56-1.69-.55a49.31,49.31,0,0,0-16.87,3.45c-2.47,1-4.86,2.1-7.27,3.21-1.08.5-2.17,1-3.28,1.41l-.6.22c.47-.16-.12,0-.21,0-.37.13.42-.22-.07,0,.3-.15.31,0-.09,0A5.46,5.46,0,0,0,26,126.74c-.82,1.06.72,1.2,1.44,1.22Z"/><path d="M27.48,139a17.23,17.23,0,0,0,6.82-1.76c2.46-1,4.84-2.26,7.29-3.3a37.9,37.9,0,0,1,14.29-3.29l-1.74-.76h0c0,.88,2,.78,2.47.71-1.22.21-.58,0-.2.05a5.76,5.76,0,0,0,.93,0c.31,0,.91,0,1.36.09a30.94,30.94,0,0,1,3.32.51,32.62,32.62,0,0,1,5.37,1.64c3.52,1.39,6.75,3.4,10.29,4.74a20.62,20.62,0,0,0,12.57.61,35.32,35.32,0,0,0,6.21-2.37c2-.92,3.26-1.61,5.15-2.46,6.9-3.07,14.42-3.74,21.69-.9,3.23,1.26,6.18,3.08,9.35,4.46a24.89,24.89,0,0,0,11.59,1.94c5.18-.33,9.91-2.17,14.57-4.34,3.91-1.82,7.85-3.74,12.24-3.93,1.25,0,3.08-.4,3.84-1.54s-.62-1.57-1.53-1.53A37,37,0,0,0,160,130.85c-3.63,1.59-7.16,3.59-11,4.56a17.91,17.91,0,0,1-10.71-.72c-3.22-1.27-6.18-3.13-9.37-4.48a35.39,35.39,0,0,0-24.95-.7,114.2,114.2,0,0,0-10.89,4.75c-3.31,1.49-6.39,2.17-10,.94-4-1.38-7.65-3.75-11.64-5.25a37.25,37.25,0,0,0-6.37-1.8,22.9,22.9,0,0,0-7.56-.55l2.47.71h0c0-.66-1.35-.76-1.74-.76A49.17,49.17,0,0,0,41.31,131c-2.39.92-4.68,2-7,3.1-1.17.53-2.34,1.07-3.54,1.52l-.61.22c.48-.16-.11,0-.2,0-.36.09-.49,0-.07,0H29.8c-1.23,0-3.11.45-3.84,1.54S26.6,139,27.49,139Z"/><path d="M119.58,77l4.78-10.77.69-1.55-5.59,1.49,6.07,2.7-.13-.5-4.78,10.77-.69,1.55,5.59-1.5-6.07-2.69a5.21,5.21,0,0,0-3.74.3c-.23.09-2.67,1.27-1.72,1.7l6.08,2.69a4.6,4.6,0,0,0,3-.06c.79-.23,2.23-.59,2.61-1.44l4.77-10.77.69-1.55a.37.37,0,0,0-.13-.5l-6.08-2.69a4.6,4.6,0,0,0-3,.06c-.79.22-2.23.59-2.61,1.43l-4.77,10.77L113.86,78c-.44,1,2,.68,2.33.61a7.78,7.78,0,0,0,2.21-.69C118.81,77.68,119.38,77.42,119.58,77Z"/><path d="M123.56,66.32c-1.29-.58-2.63-1.1-3.9-1.73-2-1-2-2.73-1.92-4.62.05-1.67.11-3.34.14-5a6.42,6.42,0,0,0-3.68-6l-4.55,1.68h0L114.23,49l-7.38-3.27-2.94-1.31c-2.38-1-6.17-.13-7.66,2.07l-.09.13a2.69,2.69,0,0,0-.16.29l-.15.3c-.67.66-.14.55,1.59-.31h-.11a5.1,5.1,0,0,0-.86-.38L93,44.91l-9.7-4.28c-1.69-.75-5.59-1.68-5-4.17.21-1,.56-1.75,0-2.72a3.14,3.14,0,0,0-1.44-1.33c-.82-.4-1.68-.74-2.52-1.11L65,27.14l-3.78-1.68a8.87,8.87,0,0,0-2.54-.91c-2.46-.28-5.75.72-6.94,3.06-.25.49-.44,1-.67,1.51L47.55,37c-2.32,5.22-4.71,10.41-6.95,15.66a3.28,3.28,0,0,0,.57,3.76,6.72,6.72,0,0,0,2.14,1.15l8.78,3.9,6.82,3a7.21,7.21,0,0,0,7-1.2,4.83,4.83,0,0,0,1-1.25c-.18.27.45-.86.37-.53L65.46,62h0a2.58,2.58,0,0,0,.59.26l16.31,7.23c.84.38,1.78.67,2.16,1.61.44,1.1-.37,2-.25,3.14a2.9,2.9,0,0,0,1.62,2.18c2.51,1.28,5.19,2.3,7.77,3.44L96.23,81l4.54-1.68h0l-4.25,1.81c3.1,1.26,7.15.42,9.8-1.51a36.14,36.14,0,0,0,3.41-3.14l1.84-1.77c.11-.1.39-.28.45-.42h0c.25-.23-.08-.16-1,.21.08.09.33.06.45.12,1.24.63,2.57,1.14,3.84,1.7a4.35,4.35,0,0,0,3.13-.22c.19-.08,2.23-1.1,1.41-1.46-1.28-.57-2.57-1.15-3.86-1.71a8.35,8.35,0,0,0-8.46,1.72c-1.18,1.07-2.3,2.2-3.44,3.3-.43.4-.84.82-1.27,1.21-.21.19-1,.61-.54.51a5.51,5.51,0,0,1-1.87-.45,4.83,4.83,0,0,0-3.1.48c-.21.09-1.9,1-1.15,1.33h0a4.29,4.29,0,0,0,3.13-.23c.19-.07,2.23-1.09,1.41-1.45l-7.1-3.19c-1-.46-2.1-.87-3.11-1.38A2.24,2.24,0,0,1,89.13,73c-.1-1.1.69-2,.25-3.14-.72-1.85-3.81-2.6-5.43-3.32l-9.36-4.15-3.45-1.53A8.63,8.63,0,0,0,68.67,60a8.34,8.34,0,0,0-4.49.93A5,5,0,0,0,62.66,62a5.88,5.88,0,0,0-.91,1.36c.43-1.82,2.58-.09,1.45-.69-.39-.21-.82-.36-1.22-.54-5.09-2.26-10.25-4.41-15.29-6.78-2.4-1.13-1.48-3.14-.7-4.92l3.44-7.74C51.72,37.51,54,32.3,56.32,27.14c.06-.12.1-.25.16-.36s.45-1.26.17-.32l.22-.27-1.43.43.17.05a9.59,9.59,0,0,0,2.51,1.12l9.18,4.07L71,33.52a9.93,9.93,0,0,1,1.86.89c1.09.78.88,1.77.59,2.86a2.87,2.87,0,0,0,.92,3,8,8,0,0,0,1.8.9L92.28,48.3a6.34,6.34,0,0,0,4,.53,7,7,0,0,0,3.94-1.93,3.81,3.81,0,0,0,.69-1.12c.43-1.14.37,1.81-1.57.3h.09a20.41,20.41,0,0,0,3.17,1.41l4.72,2.09,2.35,1a4.35,4.35,0,0,0,3.13-.22c.19-.08,2.23-1.1,1.41-1.46h0a4.35,4.35,0,0,0-3.13.22c-.21.08-2.22,1.07-1.42,1.46A5.89,5.89,0,0,1,113,56.46c0,1.73-.09,3.47-.14,5.2-.06,1.93.3,3.66,2.22,4.61,1.27.63,2.6,1.15,3.9,1.73a4.37,4.37,0,0,0,3.12-.23c.2-.07,2.23-1.09,1.42-1.45Z"/><line class="cls-2" x1="101.62" y1="45.24" x2="88.16" y2="75.59"/><line class="cls-2" x1="75.5" y1="33.66" x2="62.04" y2="64.01"/></g></svg>