<svg xmlns="http://www.w3.org/2000/svg" viewBox="0 0 200 200"><defs><style>.cls-1{fill:#263a29;}.cls-2{fill:#fff;}</style></defs><g id="fond"><circle class="cls-1" cx="100.55" cy="100.55" r="99.5"/></g><g id="Layer_1" data-name="Layer 1"><path class="cls-2" d="M116.1,31.42l-4.64.78c-.67.12-1.69.47-1.6,1.34l.1,1c.05.54.07.77.09,1.22.06,1.33.12,2.66.2,4,.14,2.42.31,4.83.46,7.24q.56,8.8.52,17.63a4.33,4.33,0,0,0,0,.72v.25q.12,0,.09,0s0,0,0,0a1.12,1.12,0,0,1-.13.24l-.54,1-2,3.7-5.47,10.29L99.7,87.44l2.82-.28c-.67-1.31-1.3-2.64-1.9-4l-.26.73a24.3,24.3,0,0,0,4.73-7.74,13.06,13.06,0,0,0-.33-8.57C102.71,62,98,57.63,93.1,54.4a35,35,0,0,0-8.31-4.18,2.09,2.09,0,0,0-2.23.78,9.28,9.28,0,0,0-1,2.38A31.6,31.6,0,0,0,80.78,57,52.66,52.66,0,0,0,80,66.43a29.17,29.17,0,0,0,1.32,9.29,13.68,13.68,0,0,0,5.78,7.06c3,1.77,6.62,2.19,10.06,2.34l-.93-.56c.72,1.77,1.4,3.55,2.09,5.33l.08-.5L93.52,96.7q-2.7,4-5.41,8.08A7.81,7.81,0,0,0,87,106.45c-.21.63.5,1.36.94,1.74a5.69,5.69,0,0,0,2.61,1.14,2.16,2.16,0,0,0,2.23-.78l2.94-4.4,6.2-9.28,8-11.88,7-10.53c1.13-1.7,2.36-3.37,3.42-5.12l.12-.18-.76.64c1.73-.88,3.45-1.77,5.19-2.6l-1.74,0c2.58,2.12,5.45,4.17,8.79,4.86a15.4,15.4,0,0,0,10.64-1.84,30.5,30.5,0,0,0,6.88-5.79,54.6,54.6,0,0,0,5.66-7.28,35.79,35.79,0,0,0,2-3.5,9.73,9.73,0,0,0,1-2.65.62.62,0,0,0-.33-.63,35.38,35.38,0,0,0-8.73-2.47,39.39,39.39,0,0,0-9.94-.4c-5.88.54-12.4,3-15.16,8.59a22.67,22.67,0,0,0-1.84,9l.85-.89c-1.45.65-2.91,1.26-4.4,1.8l2.06.36-1.3-12.93-.19-1.85-.26.74c2.18-2.15,4.39-4.26,6.57-6.41,1.57-1.54,3.09-3.12,4.73-4.59a.78.78,0,0,0,.25-.73L129.78,37c-.42-1-2-.5-2.64.05l-9.38,8.5-1.51,1.36,2.64,0-1.28-12.6c-.07-.76-.15-1.51-.22-2.26s-1.26-.6-1.69-.49c-.59.16-1.28.58-1.21,1.27.42,4.25.86,8.51,1.29,12.77l.21,2.09c.05.45.79.57,1.11.56a2.33,2.33,0,0,0,1.53-.6l9.24-8.37,1.65-1.5-2.63,0,.68,1.67.25-.73c-2.14,1.93-4.13,4-6.2,6l-4,3.88c-.49.48-1.41,1.07-1.35,1.82a3.16,3.16,0,0,0,0,.32l1.08,10.69.37,3.75c.09.87,1.65.51,2.07.36q2.22-.83,4.39-1.8c.32-.14.83-.48.85-.88a24.11,24.11,0,0,1,1.23-7.54,10.87,10.87,0,0,1,4.16-5.21,16.78,16.78,0,0,1,7.36-2.57,35.43,35.43,0,0,1,8.91.1A32.41,32.41,0,0,1,155.56,50l-.33-.64a5.75,5.75,0,0,1-.22.84c0,.14.06-.16,0,0a.61.61,0,0,1,0,.12,2.77,2.77,0,0,1-.1.26q-.12.3-.27.6a28,28,0,0,1-1.53,2.79,49,49,0,0,1-4.8,6.56,34.53,34.53,0,0,1-6.06,5.72A11.3,11.3,0,0,1,138.57,68a10.24,10.24,0,0,1-4.22.42c-3.41-.39-6.35-2.62-8.92-4.73a1.91,1.91,0,0,0-1.74,0q-1.68.8-3.33,1.65a6.76,6.76,0,0,0-2.7,1.7l-.25.37-1.65,2.47-6.54,9.78L100.9,92.14,93.83,102.7l-3,4.5-.76,1.13,2.23-.79a3.91,3.91,0,0,1-1.8-.7,2,2,0,0,1-.61-.8l-.08.5q2.14-3.18,4.26-6.36l6.45-9.63a10,10,0,0,0,.62-.93.92.92,0,0,0,0-.85l-.6-1.58c-.44-1.14-.89-2.28-1.35-3.41a1,1,0,0,0-.92-.56,20.43,20.43,0,0,1-8.1-1.59,12.36,12.36,0,0,1-5.63-6.07,15.66,15.66,0,0,1-1.13-4.15A31.81,31.81,0,0,1,83,66.84a51.54,51.54,0,0,1,.6-9.2,35.36,35.36,0,0,1,.83-4.07c.07-.26.15-.52.23-.77l.12-.38.07-.17a5.45,5.45,0,0,1,.5-1L83.07,52a35.69,35.69,0,0,1,13.48,8.57c3.8,3.8,7.19,9.13,5.93,14.74-.67,3-2.58,5.57-4.5,7.9-.14.17-.37.48-.26.73.6,1.35,1.23,2.68,1.9,4,.51,1,2.36.59,2.82-.29l8.44-15.88,2.16-4c.33-.63.71-1.25,1-1.89a3.71,3.71,0,0,0,.11-1.49c0-1,0-2,0-3,0-1.63,0-3.27-.07-4.9q-.1-4.2-.36-8.39c-.16-2.72-.36-5.43-.52-8.15-.14-2.38-.21-4.77-.44-7.15l-1.61,1.34,4.63-.78c.58-.1,1.52-.38,1.62-1.09S116.6,31.33,116.1,31.42Z"/><path class="cls-2" d="M154.41,49.16c-1.66.84-3.3,1.74-5,2.53s-3.15,1.41-4.73,2.12l-16.75,7.53c-1.46.65-2.9,1.32-4.37,1.95l2.07.36-.33-.76L124.48,64c3.88-1.62,7.71-3.37,11.57-5.06l14.15-6.21c1.78-.77,3.62-1.41,5.43-2.1.49-.19,1.13-.82.73-1.35s-1.42-.34-2-.14c-1.73.67-3.5,1.28-5.21,2-1.56.66-3.1,1.36-4.66,2l-16.88,7.4c-1.47.64-2.93,1.31-4.41,1.92-.34.15-1,.66-.83,1.14l.32.76c.33.77,1.44.62,2.06.35,3.86-1.68,7.69-3.45,11.53-5.18l14.07-6.32c1.78-.8,3.5-1.75,5.23-2.63.46-.24,1.15-.79.73-1.35S154.91,48.91,154.41,49.16Z"/><path class="cls-2" d="M83.24,53.16c.84,1.65,1.74,3.29,2.51,5s1.4,3.1,2.09,4.65l7.55,16.8,2,4.4.84-1.13-.75.32,2.06.35C97.78,79.7,96.13,75.82,94.44,72l-6.2-14.14c-.78-1.78-1.41-3.64-2.1-5.45-.24-.64-1.13-.64-1.68-.49s-1.46.63-1.22,1.27c.67,1.73,1.27,3.5,2,5.21s1.36,3.11,2,4.67l7.4,16.86c.64,1.47,1.28,2.95,1.94,4.41.34.77,1.42.63,2.06.36l.74-.32c.33-.14,1-.66.84-1.13q-2.58-5.77-5.18-11.53l-6.33-14.1C88,55.82,87,54.11,86.14,52.38a1.38,1.38,0,0,0-1.68-.49C84.07,52,82.94,52.55,83.24,53.16Z"/><path class="cls-2" d="M84.16,53.72a2.11,2.11,0,0,0,1.9-.84c.32-.59-.27-1.06-.84-1.06a2.09,2.09,0,0,0-1.9.84c-.31.59.27,1.06.84,1.06Z"/><path class="cls-2" d="M45.08,60.12a14.53,14.53,0,0,0-3.88.59c-1.2.37-3.09,1-2.89,2.6l3-1.86c-1.82-.72-3.54.93-4.56,2.24A15.18,15.18,0,0,0,34.46,68c-1.83,5.2-1.23,10.68,0,15.94a31.72,31.72,0,0,0,3,8.16c.33.59,1.32.65,1.87.56a2.26,2.26,0,0,0,1.75-1.18l.62-1.62.42-1.07c.05-.13.11-.26.15-.39s.17-.22-.06.07l-.76.59.16-.07-1,.28L45.11,89a2.42,2.42,0,0,0,2-1.22l1-2,.69-1.38.24-.47c.1-.2.23-.22,0,.07l-.75.59.13-.06-1,.28c1.67-.21,3.34-.4,5-.63a2.64,2.64,0,0,0,2.16-1.51l.69-1.36L56,79.77l.26-.51c.11-.22.26-.28,0,0L55,80c-.47.14-.45,0-.19,0l.52,0L56.75,80a6.55,6.55,0,0,0,3.09-.5A5.73,5.73,0,0,0,61.43,77l.66-1.3c.07-.14.14-.29.22-.43s.21-.19,0,0l-1.26.77.17,0-1,.07,3.43.3a2.45,2.45,0,0,0,2.51-1.2l1-2.67a1.15,1.15,0,0,0-.1-1.12,39.79,39.79,0,0,0-7.76-6.65,27.8,27.8,0,0,0-9.76-4.28,19.88,19.88,0,0,0-4.42-.41c-.86,0-2,.66-2.12,1.6s1,1.35,1.8,1.33c.17,0,.33,0,.49,0s.17,0-.12,0h.26c.37,0,.73,0,1.09.09a19.11,19.11,0,0,1,2.26.41l.36.1.66.2c.47.15.93.31,1.39.49a23.93,23.93,0,0,1,2.67,1.24,36,36,0,0,1,9.68,7.6l-.09-1.11-1,2.67,2.51-1.21-2.14-.18c-1.36-.12-2.9-.36-3.87.89a11.73,11.73,0,0,0-1.07,2l-1,1.88,2-1.22-2.34.13c-1.36.08-2.91,0-3.76,1.29a23.36,23.36,0,0,0-1.09,2.11l-1,2,2-1.22c-1.76.22-3.53.38-5.28.68s-2.14,1.66-2.81,3l-1.22,2.42,2-1.22c-1.47.07-3,.08-4.43.23a2.79,2.79,0,0,0-2.32,1.46c-.15.33-.26.67-.39,1L37.44,91l3.62-.61a27.82,27.82,0,0,1-2.38-6.16,39.55,39.55,0,0,1-1.46-8.06,22.84,22.84,0,0,1,.62-6.59c.1-.44-.05.17,0-.09s.07-.23.1-.34l.21-.64c.14-.39.29-.78.46-1.16s.29-.63.45-.93l.26-.47.1-.17c.2-.35,0,0,0,0,.37-.48.69-1,1.1-1.44a2.06,2.06,0,0,0,.25-.26c-.35.46-.24.22-.06.08l.2-.17c.31-.26-.34.15,0,0l-1,.28H40l-1-.13.07,0c1.23.49,3.23-.36,3-1.86v0l-.08.77c-.52.88-.94.82-.33.52.36-.18.05.06-.07,0,.15.05.75-.22.91-.26l.51-.1c.14,0,.12,0-.07,0l.3,0c.47-.06.95-.09,1.42-.11.87,0,2-.64,2.12-1.6S45.87,60.09,45.08,60.12Z"/><path class="cls-2" d="M68.48,78.69,67,81l.56-.68-.09.09.92-.45-.12,0,1-.08c.44,0,.37.12.19.06l-.4-.11L68,79.53,66.31,79a2.61,2.61,0,0,0-2.73.73l-1.24,1.53-.85,1.06c-.09.11-.18.21-.26.32s-.26.18.09-.07l1.45-.54c.46,0,.4,0,.18,0L62.5,82l-1.34-.22-2-.31a2.59,2.59,0,0,0-2.28.85L55.53,84l-.92,1.15-.34.41c-.14.18-.28.19.09-.07l.92-.45-.14,0,1-.08c-1.68-.14-3.36-.33-5-.44s-2.52,1.14-3.48,2.33l-1.11,1.38-.39.48c-.15.19-.34.27.05,0l1.45-.54c.49,0,.37,0,.14,0l-.53-.09-1.46-.23-2.2-.35a2.55,2.55,0,0,0-2.28.85c-.68,1-1.36,2.06-2,3.1a1.69,1.69,0,0,0-.15,1.77c.24.7.51,1.38.8,2A36.55,36.55,0,0,0,41.76,99a20.14,20.14,0,0,0,11.42,8.81,17.94,17.94,0,0,0,7.49.79,16.63,16.63,0,0,0,1.87-.34c.26-.06.52-.14.77-.22l.45-.16.46-.17a18.65,18.65,0,0,0,3.82-1.9,17.64,17.64,0,0,0,7.23-11.9c.91-5.42-.55-11.09-3.17-15.85-.47-.85-1.93-.68-2.64-.33a1.5,1.5,0,0,0-.89,2.06,27.7,27.7,0,0,1,2.3,6,22.55,22.55,0,0,1,.58,2.56,15,15,0,0,1,.18,2.52,21.68,21.68,0,0,1-.2,2.79c-.06.43-.13.87-.22,1.3s-.21.92-.29,1.21a19.61,19.61,0,0,1-1,2.58c-.2.42-.42.82-.65,1.22l-.16.28c0-.06.15-.23,0,0s-.27.4-.41.59c-.27.37-.56.73-.86,1.07-.14.17-.29.33-.44.48l-.23.23c.23-.22-.07.06-.13.13-.33.29-.67.56-1,.82l-.54.38c-.06,0-.31.2,0,0l-.43.25q-.6.33-1.23.6c-.13.06-.7.29-.31.14l-.66.25c-.51.19.41-.13-.1,0s-.81.25-1.23.34c-.15,0-.72.11-.27.06-.26,0-.53.07-.8.09-.44,0-.87,0-1.31,0s-.07,0,0,0l-.33,0-.84-.08c-.45-.06-.89-.13-1.34-.23-.05,0-.69-.16-.38-.08-.28-.07-.56-.15-.83-.24a17.43,17.43,0,0,1-5.14-2.51,16.09,16.09,0,0,1-4.44-4.49,27.21,27.21,0,0,1-3-6.5l-.31,1.13,2.08-3.17-2.29.84,2.44.39c1.17.18,2.51.59,3.63,0a7.79,7.79,0,0,0,2.2-2.3l1.54-1.93-2.28.85c1.68.14,3.35.33,5,.44,1.84.12,2.64-1.07,3.63-2.3l1.69-2.1-2.28.84,2.2.35a6.2,6.2,0,0,0,3.14.09,5.86,5.86,0,0,0,2.21-2.1L66.83,81l-2.73.74c1.18.35,2.36.78,3.56,1.06a2.82,2.82,0,0,0,3.08-1.27l.41-.64,1-1.67c.52-.83-.47-1.6-1.2-1.7A2.53,2.53,0,0,0,68.48,78.69Z"/><path class="cls-2" d="M70.18,80.41a2.15,2.15,0,0,0,2.11-1.6c.1-1-1-1.33-1.8-1.33a2.16,2.16,0,0,0-2.12,1.6c-.1,1,1,1.33,1.81,1.33Z"/><path class="cls-2" d="M124,84a11.73,11.73,0,0,0-2.29,5.14,13.91,13.91,0,0,0,.24,7.16l.93-.79a12,12,0,0,1-1.25.49l-.44.11c-.57.17.33,0-.29.06a13.3,13.3,0,0,0-3.18.7l.47-.19-.6.19-.64.24a11.1,11.1,0,0,0-1.21.57,7.8,7.8,0,0,0-1.61,1.19A14.61,14.61,0,0,0,111.7,102a8.85,8.85,0,0,0-1.26,3c0,.22,0,.29.25.37a10.71,10.71,0,0,0,2.32.38,13.94,13.94,0,0,0,2.21.29c1.54,0,3.07-.07,4.61-.1l-.75-.14c.9.83,1.78,1.69,2.71,2.48.14.12.19.21.09.06a3.84,3.84,0,0,1,.18.35l.83,1.65,2,4a11.63,11.63,0,0,0,1.49,2.15l.65.82c.09.1.17.21.26.32s.15.24.08.09.07.24.09.3l.33.88.83,2.22a4.89,4.89,0,0,1,.35,1,7.78,7.78,0,0,1-.15,1.59l-.21,2.23a3.73,3.73,0,0,1,0,.47c0-.14,0-.15,0,0a2.8,2.8,0,0,0-.16.46,14.16,14.16,0,0,0-.61,1.84c-.1.57.53.64,1,.78a18.28,18.28,0,0,0,1.92.55,7.75,7.75,0,0,0,4.25-.48,14.22,14.22,0,0,0,5.73-3.73l-1.58.68a16,16,0,0,0,6.16-2.31,7,7,0,0,0,2.48-2.41,10.38,10.38,0,0,0,.5-1.31c.11-.33.21-.66.31-1s.29-.64.18-.89c-.19-.45-1.27-.55-1.67-.67s-.63-.2-.95-.27.15.13-.13,0c-.55-.33-1.11-.63-1.67-1a20,20,0,0,0-1.74-1c-.15-.07-.23-.13-.11,0a3.14,3.14,0,0,1-.33-.48l-1.28-1.89c-.31-.45-.68-.91-1-1.4a5.37,5.37,0,0,1-.34-1,12.76,12.76,0,0,0-.84-2.58l-1.95-3.63-1.07-2a4.4,4.4,0,0,1-.38-.75,16.76,16.76,0,0,1-.27-2.13L134.81,98l-.13.32c.9-1.26,1.81-2.51,2.68-3.78a12.12,12.12,0,0,0,.94-1.87,11.68,11.68,0,0,0,.93-2,.22.22,0,0,0-.07-.28,7.67,7.67,0,0,0-3.13-.76,17.43,17.43,0,0,0-4.39.16,8.87,8.87,0,0,0-4.56,2c-.24.22-.57.44-.91.76a11.5,11.5,0,0,0-.9.95,9,9,0,0,1-2.12,1.82l2.58-.29a10.55,10.55,0,0,1,1.84-10.48c.1-.12.2-.32,0-.45l-.94-.68c-.49-.35-1.39-.08-1.89.11-.19.08-1.29.59-.83.92l.94.68,0-.44a11.21,11.21,0,0,0-2.09,11.11c.11.34.78.27,1,.24a3.58,3.58,0,0,0,1.55-.53,16.78,16.78,0,0,0,3.41-3.11c.46-.52-.62.4.16-.13.15-.11.29-.25.45-.36a9,9,0,0,1,1-.64c.22-.12-.09,0,.07,0s.27-.1.06,0l.42-.11.13,0a12.11,12.11,0,0,1,3-.1,6.42,6.42,0,0,1,2.34.5l-.08-.28a7.22,7.22,0,0,1-.61,1.29l-1,2.08c-.1.2-.18.33,0,.13-.12.19-.26.36-.39.55l-1.39,2a15.29,15.29,0,0,0-.9,1.26c-.25.44,0,1.08,0,1.56l.3,2.32a1.65,1.65,0,0,0,.22.68l2.11,3.93a19.71,19.71,0,0,1,1.33,2.53c.24.69.41,1.41.61,2.1a5.27,5.27,0,0,0,.37,1.1c.69,1.21,1.59,2.34,2.37,3.5a2.22,2.22,0,0,0,.85.72l2.35,1.33a6,6,0,0,0,1.3.64l2.16.61-.26-.21c.14.25-.2.91-.28,1.17s-.24.75-.38,1.12a3.19,3.19,0,0,1-.88,1.42,9.51,9.51,0,0,1-2,1.45,5.39,5.39,0,0,1-.72.33c-.06,0-.49.18-.25.1l-.46.13-.39.1c-.22.06.25-.05,0,0l-.17,0-.87.17a4.09,4.09,0,0,0-2.07,1.34,8.58,8.58,0,0,1-2.79,1.86c-.42.16-.86.24-1.28.39s.22,0,.25,0c-.14,0-.06,0,0,0-.1,0-.24,0-.34,0a18.75,18.75,0,0,1-2.72-.79l.27.21c-.09-.17-.07.11,0-.09a1.6,1.6,0,0,1,.12-.37l.4-1.22a5,5,0,0,0,.3-1.2l.21-2.21a11.2,11.2,0,0,0,.17-1.82,5,5,0,0,0-.39-1.08l-.87-2.32a5.07,5.07,0,0,0-.49-1.18c-.37-.55-.84-1-1.25-1.57l-.64-.79-.16-.2c0-.07.12.2,0,.06-.19-.4-.4-.8-.6-1.2l-2.18-4.35a10.1,10.1,0,0,0-.57-1.14,5,5,0,0,0-1-.93l-1.75-1.6a1.69,1.69,0,0,0-1.34-.39l-2.49.06-1.28,0h-.4c-.32,0,.16,0,.17,0a16.7,16.7,0,0,0-2-.31l-1.33-.2-.41-.07c-.28,0,.17.05,0,0l.26.36a8.51,8.51,0,0,1,1.09-2.69,14,14,0,0,1,2.13-2.89c.18-.17.35-.34.54-.5l.29-.21.12-.08a5.28,5.28,0,0,1,.94-.42c.21-.07.42-.11.63-.19,1.06-.41-.69.1.07,0a18.09,18.09,0,0,0,4.78-1.23c.22-.1,1-.41.93-.79a13.31,13.31,0,0,1-.27-6.86,11.07,11.07,0,0,1,2.07-4.81c.42-.49-.37-.59-.71-.57A3,3,0,0,0,124,84Z"/><path class="cls-2" d="M134.13,94l-2,2.9-.87,1.25c-.24.34-.13.62-.08,1l.28,2.21a8.67,8.67,0,0,0,.2,1.52,4.05,4.05,0,0,0,.32.62l.9,1.68,2.06,3.83a11.76,11.76,0,0,1,.82,2.29,11.53,11.53,0,0,0,.46,1.55,6.23,6.23,0,0,0,.65,1c.7,1,1.37,2.13,2.12,3.14a3,3,0,0,0,1,.67l2.14,1.21a7.69,7.69,0,0,0,1.23.66c.61.21,1.27.33,1.9.5l-.15-.53-1.1,1.15,2.5-.67c-1.41-.36-3-.91-4.22.26-.65.6-1.25,1.26-1.87,1.89l2.5-.67-1.23-.53a2.85,2.85,0,0,0-2.51.67L137,123.92l1.57-.68-3.13.47c-.41.06-1.59.33-1.69.85l-.25,1.33,1.68-.84c-.86.16-1.72.31-2.58.48s-1.57.39-1.86,1.2l-.48,1.32,1.29-.76-1.68.41,1.58.29a10.32,10.32,0,0,0,.86-2.62c.12-1.33.27-2.67.36-4a1.47,1.47,0,0,0-.14-.67l-.72-1.91a9.89,9.89,0,0,0-1.13-2.67l-1.31-1.64-.52-.65a1.71,1.71,0,0,1-.11-.14s.1.18.05.06c-.43-1-1-2-1.51-3l-1.73-3.46a7.62,7.62,0,0,0-1.79-1.84c-.52-.48-1-1-1.56-1.44a2.26,2.26,0,0,0-1.48-.21l-4,.11.72.58c.77-.79,1.59-1.49,2.43-2.21l-2.25.72c1.33.18,2.9.64,4.2.21s2-1.85,2.82-2.87l-2.25.72,3.06.35a2.71,2.71,0,0,0,2.36-.88l1.43-2.76-2,.88,1.71-.1a6.77,6.77,0,0,0,2.68-.47c.64-.33.84-1,1.15-1.63l.78-1.56-.91.64L136,94.34c.29-.11,1.19-.5.84-.92s-1.53,0-1.88.11c-1.12.39-2.27.74-3.37,1.17-.87.34-1.05.9-1.43,1.66L129.29,98l2.05-.89-1.71.11a5.89,5.89,0,0,0-2.82.55,3.86,3.86,0,0,0-1.08,1.62l-.8,1.55,2.36-.88-1.72-.2a6.3,6.3,0,0,0-2.41,0c-1.4.37-2.16,1.85-3,2.93l2.25-.72c-1.55-.2-3.61-.84-5,.16a20.41,20.41,0,0,0-2.64,2.37c-.47.48.43.58.71.57l4.65-.12-.75-.13,2.11,1.94a10.26,10.26,0,0,0,1,.95c.17.12,0-.07,0,0l.14.28,3,6a8.47,8.47,0,0,0,1,1.47l1.15,1.44c.1.12.21.24.3.37s-.09-.16-.06-.07a.78.78,0,0,1,0,.14c.33,1.06.79,2.1,1.18,3.14a3.93,3.93,0,0,1,.49,1.78l-.35,3.83a2.45,2.45,0,0,1,0,.38c.08-.33-.14.26-.17.35l-.62,1.59c-.25.64,1.42.32,1.58.29a7.76,7.76,0,0,0,2.65-.84c.55-.4.7-1.39.93-2l-1.69.84,2.63-.48c.41-.08,1.59-.32,1.69-.85l.25-1.33-1.68.84,1.74-.26a8.34,8.34,0,0,0,2.33-.49,5.32,5.32,0,0,0,1.59-1.44l1.2-1.31-2.51.67,1.24.53a2.86,2.86,0,0,0,2.51-.67l1.88-1.91-2.5.67,1.7.43a2.94,2.94,0,0,0,2.5-.67l1.11-1.15c.2-.21.15-.46-.14-.53l-1.39-.37c-.19-.05-.38-.11-.58-.15.26,0,.13.06,0,0l-3-1.69-.55-.3c-.06,0-.4-.25-.16,0a4.66,4.66,0,0,1-.53-.78l-2-2.91c-.79-1.17-.73-2.7-1.39-3.93l-3.11-5.81a3.61,3.61,0,0,1-.36-.67,7.26,7.26,0,0,1-.15-1.14L134,97.75l-.13.31,2.93-4.2c.36-.51-.32-.59-.71-.58A2.87,2.87,0,0,0,134.13,94Z"/><path class="cls-2" d="M131.45,107.64a5.79,5.79,0,0,0,2.85,5.64,2.1,2.1,0,0,0,1.5,0,4.66,4.66,0,0,0,.71-.26c.12-.06.56-.3.58-.5a5.79,5.79,0,0,0-2.85-5.64,2.37,2.37,0,0,0-1.88.11,2,2,0,0,0-.8.47c-.09.11-.23.34,0,.44a5.37,5.37,0,0,1,2.7,5.09l2.8-.74a5.37,5.37,0,0,1-2.7-5.09c0-.21,0-.3-.26-.37a2.09,2.09,0,0,0-.93,0,3.82,3.82,0,0,0-1.1.35C131.86,107.24,131.47,107.42,131.45,107.64Z"/><path class="cls-2" d="M126.64,110.2a5.79,5.79,0,0,0,2.85,5.65,2.15,2.15,0,0,0,1.5,0,4.71,4.71,0,0,0,.71-.27c.12-.06.56-.3.58-.49a5.85,5.85,0,0,0-2.85-5.65,2.37,2.37,0,0,0-1.88.11c-.15.06-1.33.64-.84.92a5.06,5.06,0,0,1,2,2.07,5.23,5.23,0,0,1,.67,3l2.8-.75a5.33,5.33,0,0,1-2.7-5.09c0-.21,0-.29-.26-.37a2.24,2.24,0,0,0-.93,0,3.55,3.55,0,0,0-1.1.36C127.05,109.8,126.66,110,126.64,110.2Z"/><path class="cls-2" d="M75.22,117.36a62.11,62.11,0,0,0-14.16,1.77c-3,.69-6.2,1.65-8.51,3.73-4.33,3.91.23,9.85,3,13.19a57,57,0,0,0,9.36,9.4c2.3,1.76,5,3.32,8,3.08a9.75,9.75,0,0,0,7.25-4.4,39,39,0,0,0,5-11.33,30.58,30.58,0,0,0,1.25-6.07,10.79,10.79,0,0,0-.38-4.45c-1-3-4-4.22-6.91-4.68a25.84,25.84,0,0,0-3.83-.24,2.76,2.76,0,0,0-1.93.72c-.42.52.36.58.71.58,2.9,0,6.64.38,8.41,3,1.6,2.42,1.18,5.73.62,8.4A47.53,47.53,0,0,1,78.86,142a16.56,16.56,0,0,1-2.4,3.63,7.19,7.19,0,0,1-1.17,1.08,4,4,0,0,1-.34.23c-.19.13,0,0,0,0a1,1,0,0,1-.17.1l-.34.17c.31-.15,0,0-.15,0s.3-.06.11,0l-.18.05c-.33.08.24,0,0,0s-.41,0-.11,0l-.47,0c.24,0,0,0-.12,0l-.39,0a4,4,0,0,1-.71-.14,12.47,12.47,0,0,1-3.54-1.71,47.58,47.58,0,0,1-8.82-8.19,31.2,31.2,0,0,1-5.63-7.92c-.77-1.75-1.18-3.74-.15-5.47a5.29,5.29,0,0,1,.79-.93l.14-.13.29-.23c.21-.16.43-.31.65-.45s0,0,0,0l.19-.1.38-.21.41-.2.21-.09.05,0c.31-.13.62-.26.94-.37l.43-.15.26-.09c-.31.11.13,0,.15,0a37,37,0,0,1,4.91-1.12c2.25-.39,4.51-.7,6.78-.87,1.05-.08,2.1-.12,3.15-.11a2.82,2.82,0,0,0,1.93-.72C76.34,117.42,75.57,117.36,75.22,117.36Z"/><path class="cls-2" d="M86.89,122.89l-3.15,9-5,14.43-1.16,3.32c-.07.2.09.31.25.37.72.23,1.45.44,2.17.65a2.78,2.78,0,0,0,1.51-.14c.34-.11,1-.31,1.11-.7l3.7-10.66.52-1.5-2.61.84,3.32,1.12-.26-.37-3.64,10.47-.51,1.48c-.07.19.08.32.25.37.74.18,1.47.35,2.21.51a3,3,0,0,0,1.51-.13c.34-.11,1-.32,1.11-.7L91.76,141l.51-1.46-2.62.84L93,141.52l-.26-.36-3.45,9.93-.49,1.41a.3.3,0,0,0,.26.37l2.24.44a3,3,0,0,0,1.51-.14c.33-.11,1-.31,1.1-.7l3.37-9.69.47-1.36-2.61.83,3.31,1.12-.25-.36L95,152.24l-.45,1.31a.28.28,0,0,0,.25.36c.84.16,1.68.3,2.51.43.6.09,2.13-.2,2.36-.88l3.09-8.9.45-1.29-2.61.83,3.32,1.14-.26-.37-3.34,9.6c-.12.32.3.38.51.41.75.13,1.52.23,2.28.34.6.08,2.12-.19,2.36-.89l3.2-9.2L106,146l3.32,1.12-.26-.37-3,8.57c-.11.32.3.38.51.41l2.29.29c.6.08,2.12-.18,2.36-.88l2.82-8.13-2.62.84,3.32,1.13-.25-.36L111.94,156c-.11.31.3.39.51.41l2.3.26c.61.06,2.12-.18,2.36-.88l2.42-7-2.61.83,3.31,1.12-.25-.36-2.14,6.15c-.11.32.3.4.51.41.78.08,1.56.13,2.33.17.62,0,2.11-.16,2.36-.88L125,150.7l-2.62.83,3.32,1.12-.26-.36-1.61,4.64c-.1.3.29.41.51.41.91,0,1.81,0,2.72,0,.51,0,1.83-.28,2-.89l1.35-3.89-2.62.83,1.26.43-.26-.37a13.3,13.3,0,0,0,1.69,9.55,11.61,11.61,0,0,0,6.49,5.58c.67.2,2.3-.08,2.61-.83a11.47,11.47,0,0,0,0-7.94,14.3,14.3,0,0,0-4.83-6.92L132.46,154a17.31,17.31,0,0,0,9.94-2.81,11.67,11.67,0,0,0,5.16-6.36c.06-.21-.08-.28-.25-.36-3.27-1.49-7.42-.66-10.56.71a14,14,0,0,0-7.34,6.55l2.61-.83-1.24-.47.26.36,1.06-3a.22.22,0,0,0-.08-.28c-.61-.52-1.22-1-1.85-1.53s-2.55,0-2.79.75l-1.32,3.77,2.62-.83-3.29-1.24.25.36,1.66-4.73a.23.23,0,0,0-.07-.28l-1.93-1.36a2,2,0,0,0-1.5,0c-.39.11-1.14.33-1.3.76l-1.83,5.31,2.61-.83L120,146.42l.26.36,2.14-6.11a.22.22,0,0,0-.08-.28c-.64-.43-1.3-.85-2-1.27a2,2,0,0,0-1.5,0c-.39.11-1.14.32-1.29.76l-2.29,6.58,2.62-.83-3.29-1.23.26.36,2.54-7.28a.22.22,0,0,0-.08-.27c-.65-.42-1.3-.84-2-1.25a2,2,0,0,0-1.5,0c-.39.1-1.14.32-1.29.76l-2.69,7.72,2.61-.83-3.28-1.24.25.37,2.92-8.35a.22.22,0,0,0-.08-.28c-.65-.41-1.31-.81-2-1.2a2.1,2.1,0,0,0-1.5,0c-.39.1-1.14.32-1.3.76l-3,8.75,2.61-.84-3.28-1.23.25.37,3.26-9.34a.23.23,0,0,0-.08-.28l-2-1.14a2.15,2.15,0,0,0-1.5,0c-.4.1-1.15.32-1.3.76l-3.38,9.68,2.62-.84-3.27-1.23.25.37,3.09-8.91.45-1.3a.23.23,0,0,0-.07-.28l-2-1.08a2.21,2.21,0,0,0-1.5,0c-.4.11-1.15.33-1.3.76L94.16,137l-.46,1.3,2.62-.83L93,136.26l.26.36,3.3-9.5.48-1.38a.22.22,0,0,0-.08-.28c-.73-.38-1.48-.74-2.23-1.09-.58-.28-2.37.14-2.61.83l-3.37,9.71-.48,1.4,2.61-.84-3.27-1.24.25.36,3.44-9.88.5-1.43c.07-.21-.1-.3-.26-.37-.68-.3-1.38-.58-2.08-.86a2.85,2.85,0,0,0-2,.34c-.33.18-.93.62-.33.86s1.4.56,2.08.86l-.25-.36-3.44,9.88-.5,1.43c-.07.2.1.3.26.37l3.27,1.24a2.59,2.59,0,0,0,1.51-.13c.34-.11,1-.32,1.11-.7l3.36-9.71.49-1.4-2.62.84c.63.3,1.26.6,1.87.91l-.07-.27-3.3,9.5-.48,1.38c-.07.21.09.31.25.37L94,138.69a2.61,2.61,0,0,0,1.51-.14c.33-.11,1-.31,1.1-.7l3.21-9.18.45-1.3-2.79.75,2,1.08-.08-.28-3.09,8.91-.45,1.29c-.07.21.09.31.26.37l3.27,1.23a2.53,2.53,0,0,0,1.51-.14c.33-.11,1-.31,1.1-.69l3.38-9.68-2.79.75,2,1.13-.07-.28-3.26,9.35c-.07.2.09.3.26.36l3.28,1.23a2.52,2.52,0,0,0,1.51-.14c.34-.11,1-.31,1.11-.69l3-8.75-2.79.74,2,1.2-.07-.27-2.92,8.35c-.07.2.09.3.26.36l3.28,1.24a2.59,2.59,0,0,0,1.51-.14c.34-.11,1-.32,1.11-.7l2.69-7.72-2.8.75,2,1.24-.07-.28L112,145.22c-.07.21.09.31.25.37l3.29,1.23a2.61,2.61,0,0,0,1.51-.14c.33-.11,1-.32,1.1-.7l2.29-6.58-2.8.75c.66.41,1.32.84,2,1.27l-.07-.28-2.14,6.11c-.07.21.09.31.25.37l3.29,1.23a2.59,2.59,0,0,0,1.51-.14c.34-.11,1-.32,1.11-.7l1.83-5.31-2.79.75,1.93,1.37-.08-.28-1.66,4.73c-.07.2.09.31.26.37l3.29,1.24a2.53,2.53,0,0,0,1.51-.14c.33-.11,1-.31,1.1-.69l1.32-3.78-2.8.75c.63.5,1.24,1,1.85,1.53l-.07-.28-1.06,3c-.07.21.09.31.25.37l1.24.47a2.67,2.67,0,0,0,2.62-.84c2-4.36,8-7.72,12.66-5.59l-.25-.37c-1.18,4.29-6,7.59-10.38,7.4a3.65,3.65,0,0,0-1.78.39c-.19.1-.87.51-.51.77a13.7,13.7,0,0,1,4.65,6.67,11,11,0,0,1,.07,7.64l2.62-.84A10.89,10.89,0,0,1,133.3,162a12.91,12.91,0,0,1-1.61-9.06c.05-.2-.07-.3-.25-.36l-1.26-.43a2.53,2.53,0,0,0-1.51.14c-.33.11-1,.31-1.1.69l-1.34,3.9,2-.88c-.7,0-1.39,0-2.09,0l.51.41,1.61-4.64c.07-.2-.08-.31-.25-.37l-3.32-1.12a2.68,2.68,0,0,0-1.51.14c-.33.11-1,.31-1.1.7l-1.94,5.59,2.35-.88c-.77,0-1.55-.09-2.33-.17l.51.41,2.14-6.15c.07-.2-.09-.31-.26-.37l-3.31-1.12a2.6,2.6,0,0,0-1.51.14c-.34.11-1,.31-1.11.7l-2.42,7,2.36-.88-2.3-.26.51.41,2.59-7.43c.06-.2-.09-.31-.26-.37l-3.32-1.13a2.6,2.6,0,0,0-1.51.13c-.33.11-1,.32-1.1.7l-2.82,8.13,2.36-.88-2.29-.29.51.41,3-8.57c.07-.2-.09-.31-.25-.36l-3.32-1.12a2.6,2.6,0,0,0-1.51.13c-.33.11-1,.32-1.1.7l-3.2,9.2,2.36-.88c-.76-.1-1.53-.21-2.28-.33l.5.41,3.35-9.6c.07-.19-.09-.3-.25-.36l-3.32-1.14a2.68,2.68,0,0,0-1.51.14c-.34.11-1,.31-1.11.7l-3.09,8.89-.45,1.3,2.36-.88-2-.34.26.37,3.2-9.23.46-1.31c.07-.2-.09-.31-.26-.37l-3.31-1.12a2.6,2.6,0,0,0-1.51.14c-.34.11-1,.31-1.11.69l-3.36,9.69L91,152.94l2.62-.83-2.24-.44.25.36,3.45-9.93.49-1.41c.07-.2-.08-.31-.25-.37L92,139.19a2.6,2.6,0,0,0-1.51.13c-.33.11-1,.32-1.1.7L85.82,150.3l-.5,1.46,2.61-.84c-.74-.16-1.47-.33-2.21-.51l.26.36,3.63-10.46.52-1.49c.07-.2-.09-.31-.25-.36l-3.32-1.13a2.68,2.68,0,0,0-1.51.14c-.34.11-1,.32-1.11.7l-3.7,10.66-.52,1.5,2.61-.83c-.72-.21-1.45-.42-2.17-.65l.26.36,3.15-9.05,5-14.43,1.16-3.31c.19-.54-1-.42-1.19-.38C88.11,122.12,87.08,122.34,86.89,122.89Z"/><path class="cls-2" d="M72.11,124.42s.39,0,.18,0l.36.1.21.09c-.14-.07.11.07.13.08a2.74,2.74,0,0,1,.76.72l-.09-.13a2.8,2.8,0,0,1,.49,1.86l0-.16a2.91,2.91,0,0,1-.17.72,3,3,0,0,1-.17.36l-.09.16c.06-.09,0,0,0,0s-.15.17-.23.26,0,.07,0,0-.1.08-.14.11a1.1,1.1,0,0,0-.14.09c.27-.26.13,0,0,0s.33-.12.14-.06.39-.11.12,0,.34-.06.16,0-.23,0,.12,0a.55.55,0,0,0-.18,0c-.14,0,.28,0,.07,0l-.18,0c-.12,0,.19.05,0,0a2.35,2.35,0,0,1-.35-.11s-.21-.1-.08,0l-.13-.07a2.35,2.35,0,0,1-.32-.23,2.8,2.8,0,0,1-.5-.53l.09.13a2.8,2.8,0,0,1-.49-1.86l0,.15a3.15,3.15,0,0,1,.23-.85,2.24,2.24,0,0,1,.22-.4c-.09.12,0-.06.06-.07l.14-.16a1.14,1.14,0,0,1,.16-.15l-.09.08.12-.09.06,0-.09,0,.06,0-.14.06.07,0c.15,0,.09,0-.18.05.07,0,.29-.07,0,0s-.17,0-.06,0l-.18,0c.09,0,.38,0,0,0a3.29,3.29,0,0,0,2-.55c.14-.11.38-.28.33-.49s-.37-.25-.53-.25c-1.8,0-4,.63-4.85,2.36a3,3,0,0,0,.63,3.49c1.25,1.2,3.34,1,4.81.39a4.38,4.38,0,0,0,2-1.59,3,3,0,0,0,.47-1.81,3.12,3.12,0,0,0-3.1-2.84,3.31,3.31,0,0,0-2,.55c-.14.1-.38.27-.32.48S72,124.41,72.11,124.42Z"/></g></svg>