<svg xmlns="http://www.w3.org/2000/svg" viewBox="0 0 200 200"><defs><style>.cls-1{fill:#263a29;}.cls-2{fill:#fff;}.cls-3{fill:none;stroke:#fff;stroke-linecap:round;stroke-linejoin:round;stroke-width:3.5px;}</style></defs><g id="fond"><circle class="cls-1" cx="101.22" cy="99.89" r="99.5"/></g><g id="Layer_1" data-name="Layer 1"><path class="cls-2" d="M74.38,136.71c.12,3.62,3.5,4.86,6.69,4.34a7.18,7.18,0,0,0,4.81-2.74,11.78,11.78,0,0,0,1.52-5.79c.24-4.51.09-9.07.09-13.58,0-2.31,0-4.62,0-6.93,0-.56,0-1.12,0-1.68,0-.33,0-.67,0-1l-.58.24a9.4,9.4,0,0,0,2.26-1.19L85,109c.49.44.72.56.83,1.23a21.89,21.89,0,0,1,.18,2.42c.09,1.56.07,3.11.07,4.67q0,4.83,0,9.68v19.37c0,.74,1.69.63,2.06.58a72.48,72.48,0,0,1,7.3-.43c1.9,0,4.82.38,6.32-1l-1.62.78c-1.73.4-1.13.15-.41.19l.54,0,.34,0,3.59.32q3.73.34,7.46.78c1.18.15,3.92-.29,3.92-1.88v-19c0-6.31-.34-12.75.21-19l-3.37,1.61H115l-1.45-.63c0,6.34,0,12.68,0,19,0,3-.33,6.34.45,9.3a6,6,0,0,0,1.54,3,5.44,5.44,0,0,0,3.41,1.17c2.5.11,5.66-.77,6.92-3.12s.9-5.84.91-8.51q0-9.72,0-19.44c0-5,.58-11.28-3.08-15.26s-10-4.07-15-4.28a124.2,124.2,0,0,0-18.6.3c-4.83.52-10.77,1.24-13.76,5.59a13,13,0,0,0-2,7.37c-.06,3.55,0,7.11,0,10.65,0,7.43,0,14.85,0,22.28,0,1.33,4.83.47,4.83-1.29q0-8.67,0-17.33,0-4.45,0-8.91a66.94,66.94,0,0,1,.1-8.26,9.62,9.62,0,0,1,2-5.13,6.59,6.59,0,0,1,4.22-2,78.91,78.91,0,0,1,15.13-1c2.85.05,5.71.14,8.57.3a20.81,20.81,0,0,1,7.11,1.39c4.21,1.83,5.16,5.9,5.53,10.08.25,2.71.13,5.46.14,8.18,0,3,0,5.91,0,8.86s0,5.74,0,8.61c0,1.43.06,2.88,0,4.31a10.2,10.2,0,0,1-.66,3.68c-.07.13-.17.24-.24.37s.27-.07.26-.07a2.33,2.33,0,0,1-.93-.24c-1-.56-1.31-1.87-1.57-2.9-.71-2.9-.39-6.12-.4-9.09,0-6.34,0-12.69,0-19,0-.55-1.13-.63-1.45-.63h-2.61c-.77,0-3.27.46-3.37,1.61-.56,6.35-.23,12.82-.23,19.18V147l3.91-1.89c-3-.35-5.95-.65-8.93-.92-2.23-.2-6-1.07-7.81.64l2.88-1a90,90,0,0,0-12,.55l2.06.59V125.18q0-4.84,0-9.69c0-1.63,0-3.26-.11-4.89a9.1,9.1,0,0,0-.23-2.28,3.3,3.3,0,0,0-1.07-1.19c-1-.94-3.25-.12-4.17.6.74-.58.15-.13-.14,0a9.26,9.26,0,0,0-1.06.5,2.71,2.71,0,0,0-1.37,1.34,7.48,7.48,0,0,0-.08,2.5c0,1,0,2,0,3,0,3.87,0,7.75,0,11.62,0,3.61.4,7.64-1,11.07-.12.31-.55.76-.6,1l.4-.12a.32.32,0,0,0-.14,0l-.73-.23a3.13,3.13,0,0,1-1.41-3C79.16,134.05,74.32,135,74.38,136.71Z"/><path class="cls-2" d="M94.05,77.18a9.74,9.74,0,0,1,1.33-5,7.49,7.49,0,0,1,1.4-1.67,5.55,5.55,0,0,1,1.69-1c.45-.2.19-.07.07,0,.24-.08.49-.14.73-.2.06,0,.48-.08.1,0,.25,0,.51-.07.77-.09a7,7,0,0,1,2.19.28,9,9,0,0,1,4.25,2.86,8.52,8.52,0,0,1,.92,9.9,7.8,7.8,0,0,1-1.41,1.73,7.47,7.47,0,0,1-1.52,1c-.23.1-.47.21-.71.29.36-.12-.06,0-.11,0-.26.06-.51.14-.77.19.36-.06-.09,0-.13,0a7.65,7.65,0,0,1-2.33-.08,8.4,8.4,0,0,1-6.47-8.14c0-1.1-1.22-1.29-2.13-1.19-.74.08-2.73.67-2.72,1.73a10.54,10.54,0,0,0,7.42,10.14,14,14,0,0,0,14.08-3.73,10.42,10.42,0,0,0,1.22-12.65c-2.81-4.45-8.27-6.1-13.24-5a11.85,11.85,0,0,0-9.48,11.2c0,1.1,1.24,1.28,2.13,1.19S94,78.25,94.05,77.18Z"/><path class="cls-2" d="M83.75,39.1l.28-10,.14-5.45a2.35,2.35,0,0,0-.82-2A13.19,13.19,0,0,0,78.6,17.9c-3.19-1.4-7.17-.59-10.09,1.11a9.55,9.55,0,0,0-3.75,3.68,7.8,7.8,0,0,0-.15,2.94V55.74a18.45,18.45,0,0,0,.21,3.93,8.16,8.16,0,0,0,3.38,5.14c2.91,1.9,6.38,1.58,9.68,1.31,2.69-.22,5.44-.12,8-1.08a5.7,5.7,0,0,0,4-4.31c1.19-4.75,1.29-9.73,1.4-14.6.11-4.45.1-8.89,0-13.34,0-.26,0-.51,0-.77,0-1.36-6.81-.27-6.77,1.81A182.31,182.31,0,0,1,84,57,26.39,26.39,0,0,1,82.9,62.8a6.5,6.5,0,0,1-.36.86c-.14.28,0,0,0,0s-.11.11-.12.13c.37-.29.08-.11.41-.29a4.2,4.2,0,0,1,1-.43c.13,0,1.34-.32.74-.2s.42,0,.18,0-.52,0-.78,0c-1.17.07-2.35.12-3.53.23a12.82,12.82,0,0,1-3.91,0,6.22,6.22,0,0,1-4.38-3.7c-1.12-2.6-.74-5.7-.74-8.46V22.71a4,4,0,0,1,0-1.15,6,6,0,0,1,1.34-1.44c.18-.16.66-.33.33-.27s-.77.24-1.15.32c-.6.13.06.06-.41,0a2,2,0,0,1,.34,0c.39.13-.5-.14.19.06a10.19,10.19,0,0,1,4.41,3.07,9,9,0,0,1,1.09,1.3c.15.25-.07-.17-.07-.1s0,.2,0,.3A26.23,26.23,0,0,0,77.31,29L77,40.14l0,.77c0,1.27,6.71.32,6.76-1.81Z"/><polygon class="cls-3" points="149.83 40.89 50.29 39.56 51.18 160.78 149.39 161.22 149.83 40.89"/></g></svg>