<svg xmlns="http://www.w3.org/2000/svg" viewBox="0 0 200 200"><defs><style>.cls-1{fill:#263a29;}.cls-2,.cls-3{fill:#fff;}.cls-3,.cls-4{stroke:#fff;}.cls-3{stroke-miterlimit:10;stroke-width:2.5px;}.cls-4{fill:none;stroke-linecap:round;stroke-linejoin:round;stroke-width:3px;}</style></defs><g id="fond"><circle class="cls-1" cx="101.22" cy="99.78" r="99.5"/></g><g id="Layer_1" data-name="Layer 1"><path class="cls-2" d="M25.58,140H150.47c5.74,0,11.47,0,17.21,0h.24c1.35,0,3.1-.37,3.79-1.7s-.54-2.16-1.69-2.16H45.13c-5.74,0-11.47,0-17.21,0h-.24c-1.36,0-3.1.38-3.79,1.7s.53,2.16,1.69,2.16Z"/><path class="cls-2" d="M58,126.5a10.67,10.67,0,0,0,6.85,10.39,13,13,0,0,0,13.81-3.2,10.7,10.7,0,0,0,1.66-12.45c-2.24-4.13-7.2-6.11-11.74-5.41-5.42.84-10.24,5-10.58,10.67-.13,2.28,4.75,1.46,4.87-.48a8.41,8.41,0,0,1,1.52-4.53,7.11,7.11,0,0,1,1.51-1.5l.4-.27c.65-.42-.37.16.32-.19l.44-.21.46-.18c-.2.07-.21.08,0,0a4.92,4.92,0,0,1,1.75-.27,6.94,6.94,0,0,1,2.34.45,8,8,0,0,1,3.65,2.88,8.4,8.4,0,0,1,.29,9.26A7.27,7.27,0,0,1,74,133.13a6.08,6.08,0,0,1-1.73,1c-.07,0-.46.15-.07,0-.24.08-.48.14-.72.2-.07,0-.48.08-.09,0l-.64.07a6.53,6.53,0,0,1-2-.21A8.29,8.29,0,0,1,62.84,126c0-1.14-1.23-1.43-2.17-1.34S58,125.37,58,126.5Z"/><circle class="cls-3" cx="69.79" cy="126.69" r="4.31" transform="matrix(0.98, -0.19, 0.19, 0.98, -22.24, 15.1)"/><path class="cls-2" d="M119.34,125.89a10.65,10.65,0,0,0,6.85,10.39,13,13,0,0,0,13.8-3.19,10.68,10.68,0,0,0,1.67-12.45c-2.25-4.13-7.2-6.11-11.75-5.41-5.42.84-10.24,5-10.57,10.66-.14,2.29,4.75,1.47,4.86-.47a8.58,8.58,0,0,1,1.52-4.53,7.35,7.35,0,0,1,1.51-1.5l.41-.27c.64-.42-.38.16.31-.19l.45-.21.46-.19c-.2.08-.22.08,0,0a4.92,4.92,0,0,1,1.75-.27,6.53,6.53,0,0,1,2.34.45,8,8,0,0,1,3.65,2.88,8.42,8.42,0,0,1,.28,9.26,7.23,7.23,0,0,1-1.43,1.65,6.64,6.64,0,0,1-1.73,1c-.07,0-.46.15-.07,0l-.73.2c-.07,0-.48.08-.09,0l-.63.07a6.78,6.78,0,0,1-2-.21,8.31,8.31,0,0,1-5.92-8.24c0-1.14-1.23-1.43-2.17-1.34S119.37,124.77,119.34,125.89Z"/><circle class="cls-3" cx="131.15" cy="126.09" r="4.31" transform="translate(-21.07 26.45) rotate(-10.67)"/><path class="cls-2" d="M142.86,130.07c6.62.45,15.55-1,17.11-8.76a21.53,21.53,0,0,0,.26-3.59c.06-1.46.21-2.92.22-4.39,0-3.26-.62-6.49-3.09-8.82-3.11-3-7.66-4.15-11.67-5.32-2.36-.69-4.73-1.31-7.09-2-1.32-.35-2.63-.71-3.94-1.08-.28-.08-1-.29-1-.3.26.11-.16-.07-.21-.1l-.5-.25c-2.62-1.45-4.67-4-6.58-6.33-2.21-2.68-4.28-5.48-6.67-8-2-2.07-4.3-4.24-7.17-4.84a53.7,53.7,0,0,0-6.81-.74c-2.43-.19-4.88-.31-7.32-.38a146.08,146.08,0,0,0-29,1.78c-11.11,1.93-19,12.15-23.18,22a89.41,89.41,0,0,0-4.58,13.81c-.77,3.17-1.53,6.83-.17,10,1.6,3.68,5,5.93,8.7,7.25a22.39,22.39,0,0,0,6.11,1.21c1.36.09,3.25-.47,4-1.72s-.63-2-1.71-2a14.44,14.44,0,0,1-9.21-3.78c-2.33-2.35-2.76-5.15-2.28-8.31.84-5.47,2.81-10.77,4.8-15.92.14-.38-.2.45,0-.06l0-.12c.18-.41.36-.82.55-1.23A54.1,54.1,0,0,1,55.2,93,41.42,41.42,0,0,1,60,86.49a26.9,26.9,0,0,1,3.2-3,22.55,22.55,0,0,1,2.93-1.86c.34-.16.68-.31,1-.45l.39-.15c-.57.21-.11,0,0,0l1.09-.29c.11,0,.6-.12,0,0l1-.16q3.14-.5,6.3-.82c4.36-.46,8.76-.73,13.15-.8,4.58-.07,9.18,0,13.75.37,2.11.16,4.28.27,6.37.63-.67-.12.12.06.29.11s.41.16,0,0a2.76,2.76,0,0,1,.39.18,12,12,0,0,1,1.57,1,35,35,0,0,1,5.93,6.26c2.06,2.53,4,5.14,6.29,7.49a16.07,16.07,0,0,0,7.14,4.71c4.47,1.28,9,2.35,13.42,3.75,3.26,1,7.07,2.17,9,5.26,1.39,2.28,1.26,5.13,1.1,7.68-.14,2.28.07,4.71-.72,6.89a5,5,0,0,1-1.46,2.06c.4-.35-.1.06-.25.17-.54.4.28-.07-.37.21-.21.1-.89.36-.3.16-.41.13-.82.24-1.24.34s.44-.06-.1,0l-.48.07c-.46.06-.92.11-1.38.13a25.14,25.14,0,0,1-2.87-.08c-1.35-.09-3.24.47-4,1.72s.62,2,1.71,2Z"/><path class="cls-2" d="M119.76,127.3H84.27c-1.25,0-3.22.47-4,1.54s.71,1.36,1.52,1.36h35.49c1.26,0,3.23-.47,4-1.54s-.72-1.36-1.53-1.36Z"/><path class="cls-2" d="M96,87.38l-.1,10.06,0,1.45a1.1,1.1,0,0,0,.63,1.14,3.7,3.7,0,0,0,2,.24,5.48,5.48,0,0,0,2.29-.78c.4-.28,1.13-.77,1.13-1.32l.1-10.06V86.66a1.08,1.08,0,0,0-.63-1.14,3.51,3.51,0,0,0-2-.24,5.48,5.48,0,0,0-2.28.78c-.41.27-1.13.76-1.13,1.32Z"/><path class="cls-2" d="M117,97.78H69.48l1.87,1a17.65,17.65,0,0,1,0-7.31,10.27,10.27,0,0,1,.83-2.51,4.67,4.67,0,0,1,1.61-2c-.37.28.06,0,.21-.1.48-.3-.34.19.17-.08s-.4.08.31-.1,0,0-.35,0a8.56,8.56,0,0,0,1.13,0q9.3-.15,18.62,0c5.18.08,9.66,2.55,13.33,6.31a34.73,34.73,0,0,1,4.21,5.22c.4.6.77,1.21,1.14,1.84.26.44-.15-.27.11.2,0,.07.07.13.1.2.61,1.21,2.32,1.1,3.45.79.69-.18,3.18-1.24,2.59-2.41-4-7.9-11.53-14.8-20.59-15.65-4.11-.38-8.35-.15-12.48-.15q-4,0-8.1.06c-5,.08-9.7,2.12-11.68,7a19,19,0,0,0-.67,10.41c.15.74,1.26,1,1.87,1h47.48c1.36,0,3.2-.42,4-1.68S118,97.78,117,97.78Z"/><path class="cls-4" d="M56,88.21c.12-.65,1.26-1.31,1.43-2,.25-1,1.55-2,1.9-3s.73-2,1.16-2.91.9-1.89,1.41-2.81,1.07-1.8,1.66-2.67,1.22-1.7,1.88-2.52a36.59,36.59,0,0,1,4.39-4.5c.8-.68,1.62-1.33,2.47-2s1.74-1.19,2.64-1.72,1.83-1,2.78-1.49,1.91-.88,2.89-1.25a37.57,37.57,0,0,1,4-1.25A11,11,0,0,0,95,67.44h4.8c.64,0,1.11-1.65,1.4-4h7.17a1.81,1.81,0,0,0,1.81-1.81v-.09a1.81,1.81,0,0,0-1.81-1.81h-6.88c.09-2.08.09-4.33,0-6.4h6.88a1.81,1.81,0,0,0,1.81-1.81V51.4a1.81,1.81,0,0,0-1.81-1.81h-7.17c-.29-2.39-.76-4-1.4-4H95a11,11,0,0,0-10.83,9.2,42.8,42.8,0,0,0-5.42,1.53,42,42,0,0,0-6.59,3.07c-1,.6-2.08,1.26-3.07,2s-2,1.44-2.88,2.22A41.07,41.07,0,0,0,61,68.71a42,42,0,0,0-4.15,6c-.6,1.06-1.15,2.14-1.66,3.25s-.95,2.24-1.36,3.39a40.72,40.72,0,0,0-1.8,7.07c-.09.56-.16,1.13-.23,1.7C53.79,89.39,53.85,88.75,56,88.21Z"/></g></svg>