<svg xmlns="http://www.w3.org/2000/svg" viewBox="0 0 200 200"><defs><style>.cls-1{fill:#263a29;}.cls-2{fill:#fff;}</style></defs><g id="fond"><circle class="cls-1" cx="100.33" cy="99.89" r="99.5"/></g><g id="Layer_1" data-name="Layer 1"><path class="cls-2" d="M136.13,38.74H56.62c-1.24,0-4.07.62-4.07,2.26V150.73a27.8,27.8,0,0,0,0,4.47,1.21,1.21,0,0,1,0,.19c0,.66,1.36.71,1.73.71h80.33c3.69,0,7.4.08,11.1,0h.16c1.24,0,4.07-.62,4.07-2.26V53.73a15.37,15.37,0,0,0,0-1.92c-.08-.6-.51-.89-.94-1.32L138.54,40l-.88-.88c-1.29-1.29-6.74.83-5.41,2.17l9.16,9.16,2.19,2.18a4.47,4.47,0,0,0,.57.58c.33.25-.09.14,0-.14a6,6,0,0,0,0,1.12v95.6c0,1.77-.12,3.59,0,5.35a1.76,1.76,0,0,1,0,.23l4.07-2.25H60.37c-1.18,0-2.41-.11-3.59,0h-.16l1.73.7V44.1c0-1.47.11-3,0-4.46a1.21,1.21,0,0,1,0-.19L54.28,41.7h79.5c1.23,0,3.11-.43,3.85-1.51S137,38.74,136.13,38.74Z"/><path class="cls-2" d="M70.14,90.84H130c1.22,0,3.1-.43,3.84-1.51s-.65-1.45-1.5-1.45H72.49c-1.23,0-3.11.44-3.85,1.52s.66,1.44,1.5,1.44Z"/><path class="cls-2" d="M70.33,102.15h59.85c1.22,0,3.1-.43,3.84-1.51s-.65-1.45-1.5-1.45H72.67c-1.22,0-3.1.44-3.84,1.52s.65,1.44,1.5,1.44Z"/><path class="cls-2" d="M70.33,112h59.85c1.22,0,3.1-.44,3.84-1.52s-.65-1.45-1.5-1.45H72.67c-1.22,0-3.1.44-3.84,1.52s.65,1.45,1.5,1.45Z"/><path class="cls-2" d="M70.71,122.32h59.84c1.23,0,3.1-.43,3.85-1.51s-.66-1.45-1.51-1.45H73.05c-1.22,0-3.1.44-3.84,1.52s.65,1.44,1.5,1.44Z"/><path class="cls-2" d="M70.71,133.45h59.84c1.23,0,3.1-.44,3.85-1.52s-.66-1.45-1.51-1.45H73.05c-1.22,0-3.1.44-3.84,1.52s.65,1.45,1.5,1.45Z"/><path class="cls-2" d="M88.19,52.52A7.44,7.44,0,0,1,87,56.86c-.13.2-.26.39-.4.58s-.19.25-.07.11l-.32.34c-.16.17-.34.32-.51.48-.49.48.36-.21-.21.18-.22.15-.48.28-.69.44l.13-.07-.43.2c-.17.08-.85.26-.14.07-.23.06-.46.13-.7.18.77-.18-.26,0-.42,0-.59.07.38,0-.26,0-.25,0-.5,0-.75,0,.46,0-.33-.08-.42-.1a4.93,4.93,0,0,1-1.16-.38,7.44,7.44,0,0,1-2.27-1.59,8.11,8.11,0,0,1-2.32-5.42l-4,2.08H90c1.31,0,3.08-.4,3.81-1.63s-.59-1.88-1.62-1.88h-18a5.35,5.35,0,0,0-2.6.61c-.48.25-1.41.81-1.4,1.47a10.3,10.3,0,0,0,7.14,9.8,13.47,13.47,0,0,0,13.83-3.64A10.44,10.44,0,0,0,94,51.87c0-1.31-1.49-1.55-2.54-1.41S88.2,51.24,88.19,52.52Z"/><path class="cls-2" d="M124.86,53a8.07,8.07,0,0,1-2.11,5.28,7,7,0,0,1-1.07.89c.39-.27-.3.15-.37.2s-.13.08.13-.05l-.43.19c-.57.26.52-.1-.15.05-.29.07-.67.12-.16,0l-.49.07c.32,0,.32,0,0,0s-.5,0-.75,0c.42,0-.33-.06-.34-.06-.19,0-.6-.11-.68-.14a8.49,8.49,0,0,1-1.29-.52,7.66,7.66,0,0,1-2.24-1.72,8.57,8.57,0,0,1-2.19-5.77l-4.06,2.29H126.6c1.27,0,3.06-.44,3.84-1.53s-.68-1.51-1.52-1.51H111c-1.26,0-4.08.62-4,2.3a9.83,9.83,0,0,0,7,9.16,14.17,14.17,0,0,0,14.29-4,10.13,10.13,0,0,0,2.45-6.68c0-.43-.85-.65-1.1-.7a5,5,0,0,0-2.15.17C126.41,51.18,124.88,51.73,124.86,53Z"/><path class="cls-2" d="M97.51,52.4V77.1c0,1.45,1.41,2.05,2.7,2s3.18-.94,3.18-2.38V52c0-1.45-1.4-2.06-2.69-2s-3.19.94-3.19,2.38Z"/><path class="cls-2" d="M83,79.94h31.27a7.45,7.45,0,0,0,4.1-1.09c.85-.58.84-1.36-.36-1.36H86.68a7.36,7.36,0,0,0-4.09,1.1c-.85.57-.84,1.35.36,1.35Z"/></g></svg>