<svg xmlns="http://www.w3.org/2000/svg" viewBox="0 0 200 200"><defs><style>.cls-1{fill:#263a29;}.cls-2,.cls-3,.cls-4{fill:#fff;}.cls-2,.cls-4{fill-rule:evenodd;}.cls-4{stroke:#fff;stroke-miterlimit:10;stroke-width:3px;}</style></defs><g id="fond"><circle class="cls-1" cx="100.11" cy="100" r="99.5"/></g><g id="Layer_1" data-name="Layer 1"><path class="cls-2" d="M127.09,104.67a.75.75,0,0,0-.39,0,.92.92,0,1,1-.4-1.8,3.33,3.33,0,0,1,4,4,.93.93,0,0,1-1.09.7.94.94,0,0,1-.7-1.1,1.29,1.29,0,0,0,0-.73A41.41,41.41,0,0,1,72,105.7a1.4,1.4,0,0,0-.07.83.94.94,0,0,1-.7,1.1.9.9,0,0,1-1.06-.7,3.36,3.36,0,0,1,4-4,.92.92,0,0,1-.39,1.8.45.45,0,0,0-.24,0,39.71,39.71,0,0,0,53.57,0Z"/><path class="cls-3" d="M127.37,103.15c-1,.08.47.06.65.21-.11-.09-1.55,1.07-1.59,1,.11.14.59.26.76.41a2.25,2.25,0,0,1,.62,1c.07.2.08.41.14.6a.81.81,0,0,1,0,.31q-.17,1.34,2.16-.57l1,.27c-.27-.11-.13-.87-.17-1.2-.11-.75-1.3-.9-1.83-.89a3.89,3.89,0,0,0-2.56,1A38.19,38.19,0,0,1,85.29,112a40.74,40.74,0,0,1-11.06-7.31C73,103.58,70,104.24,69.57,106a2.07,2.07,0,0,0-.08.82l0,.41,3.07-.89c.12-.4-.08-.89.09-1.34,0,0,.46-.79.5-.71.14.27-1-.07-.19.23L72.2,104c.29.25.25.16.12.52l.45-.78c2-.32,2.52-.53,1.65-.62a3.8,3.8,0,0,0-2.66.83c-.41.35-1.05,1.18-.47,1.71A43,43,0,0,0,117.05,113a43.89,43.89,0,0,0,12-7.8,1.12,1.12,0,0,0-.53-2,3.8,3.8,0,0,0-3.42.92,36.43,36.43,0,0,1-39,6.27,38.86,38.86,0,0,1-10.39-6.73l-3.12,2.53a4.75,4.75,0,0,0,4-1.28,2,2,0,0,0,.13-2.82c-.85-.91-2.51-.9-3.65-.75a7,7,0,0,0-3.79,1.72c-1.32,1.22-2.71,4.28-.76,5.61a4.16,4.16,0,0,0,4,0,3.61,3.61,0,0,0,1.64-1.45c.3-.59.13-1.18.28-1.8l-4.66,1.25a44.71,44.71,0,0,0,48.16,7.9,45.28,45.28,0,0,0,12.56-8.26l-4.38.11c.07.53-.09,1,.15,1.47a2.07,2.07,0,0,0,1.06,1,4.49,4.49,0,0,0,4.24-.59c1.95-1.37,1.46-4.28-.14-5.72a6,6,0,0,0-7.15-.29,2.23,2.23,0,0,0-.89,2.81c.68,1.22,2.23,1.19,3.44,1.09.94-.08,2.55-.67,2.7-1.78S128.17,103.08,127.37,103.15Z"/><path class="cls-4" d="M100.26,54.87c0-4.59,0-9.14-.13-13.73a.71.71,0,0,0-.7-.7.74.74,0,0,0-.7.74c.1,4.55.17,9.1.14,13.65a.65.65,0,0,0,.66.7.7.7,0,0,0,.73-.66Z"/><path class="cls-4" d="M122.48,60.85c2.33-4,4.55-7.94,6.77-12a.7.7,0,0,0-1.23-.66c-2.19,4-4.41,8-6.73,11.9a.71.71,0,0,0,.26,1,.68.68,0,0,0,.93-.23Z"/><path class="cls-4" d="M138.77,77.16c4-2.26,7.9-4.58,11.81-7a.7.7,0,0,0,.23-1,.73.73,0,0,0-1-.23c-3.88,2.36-7.8,4.72-11.74,6.94a.72.72,0,0,0-.27,1,.7.7,0,0,0,.93.26Z"/><path class="cls-4" d="M144.74,99.46c4.58,0,9.12,0,13.7-.14a.67.67,0,0,0,.67-.69.71.71,0,0,0-.7-.7c-4.55.1-9.09.16-13.67.13a.69.69,0,0,0-.69.67.73.73,0,0,0,.69.73Z"/><path class="cls-4" d="M138.77,121.75c3.95,2.3,7.93,4.52,11.91,6.75a.75.75,0,0,0,1-.27.73.73,0,0,0-.26-1c-4-2.19-8-4.42-11.91-6.75a.68.68,0,0,0-.93.27.7.7,0,0,0,.23,1Z"/><path class="cls-4" d="M122.48,138.07q3.39,5.93,6.94,11.79a.69.69,0,0,0,1,.24.71.71,0,0,0,.23-1c-2.35-3.89-4.68-7.81-6.93-11.76a.67.67,0,0,0-.93-.27.72.72,0,0,0-.27,1Z"/><path class="cls-4" d="M100.23,144c0,4.59,0,9.14.13,13.73a.65.65,0,0,0,.7.66.68.68,0,0,0,.69-.69c-.1-4.56-.16-9.11-.13-13.66a.71.71,0,0,0-.7-.73.72.72,0,0,0-.69.69Z"/><path class="cls-4" d="M78,138c-2.32,4-4.55,7.95-6.74,11.93a.71.71,0,1,0,1.23.7c2.19-4,4.41-8,6.7-11.89a.71.71,0,0,0-.23-1,.7.7,0,0,0-1,.23Z"/><path class="cls-4" d="M61.68,121.72c-4,2.26-7.89,4.58-11.81,6.94a.74.74,0,0,0-.23,1,.7.7,0,0,0,1,.23c3.92-2.36,7.8-4.69,11.78-6.91a.74.74,0,0,0,.26-1,.71.71,0,0,0-1-.26Z"/><path class="cls-4" d="M55.71,99.42c-4.54,0-9.12,0-13.67.14a.7.7,0,0,0-.69.69.71.71,0,0,0,.73.7c4.54-.1,9.09-.16,13.63-.13a.68.68,0,0,0,.7-.7.71.71,0,0,0-.7-.7Z"/><path class="cls-4" d="M61.68,77.13c-3.91-2.33-7.89-4.55-11.91-6.75a.67.67,0,0,0-.93.27.71.71,0,0,0,.27,1c4,2.2,8,4.42,11.87,6.71a.69.69,0,1,0,.7-1.19Z"/><path class="cls-4" d="M78,60.81c-2.25-4-4.61-7.9-7-11.79a.75.75,0,0,0-1-.27.7.7,0,0,0-.23,1c2.36,3.93,4.68,7.81,6.93,11.8a.72.72,0,0,0,1,.27.74.74,0,0,0,.26-1Z"/></g></svg>