<svg xmlns="http://www.w3.org/2000/svg" viewBox="0 0 200 200"><defs><style>.cls-1,.cls-2{fill:#fff;}.cls-1{stroke:#fff;stroke-miterlimit:10;stroke-width:1.5px;}</style></defs><g id="Layer_1" data-name="Layer 1"><path class="cls-1" d="M101,87.14,98.61,90a10.44,10.44,0,0,0-6.86-2.59c-5.48,0-10,3.71-10,14.42,0,10.2,4.36,14.31,9.94,14.31a11.7,11.7,0,0,0,7.52-2.9l2.18,2.8a13.63,13.63,0,0,1-9.85,3.85c-8.37,0-14.46-6.34-14.46-18.06,0-11.88,6.49-18.07,14.41-18.07A13.57,13.57,0,0,1,101,87.14Z"/><path class="cls-1" d="M133.63,101.86c0,11.52-5.89,18-14.62,18s-14.62-6.29-14.62-18c0-11.52,6-18.17,14.62-18.17S133.63,90.08,133.63,101.86Zm-24.57,0c0,10.15,4.06,14.31,10,14.31,6.09,0,10-4.16,10-14.36s-3.81-14.47-10-14.47S109.06,91.66,109.06,101.91Z"/><path class="cls-1" d="M151.85,114c0,3.55-2.23,6.14-9.19,12.53h9.75l-.41,2.94H138.55v-2.74c7.72-7.51,9.54-9.49,9.54-12.43a3.11,3.11,0,0,0-3.4-3.35,5.37,5.37,0,0,0-4.41,2.23L138,111.4a8.62,8.62,0,0,1,7-3.4C149.31,108,151.85,110.59,151.85,114Z"/><path class="cls-2" d="M149.33,82.79a42.61,42.61,0,0,0-22.62-33.33,45.18,45.18,0,0,0-44.31,2A44.2,44.2,0,0,0,65.88,70.19l5.18-1.89a24.92,24.92,0,0,0-20.52,2.46A23.53,23.53,0,0,0,39.93,85.12,21.68,21.68,0,0,0,40.47,97l1.88-2.9c-10.06,5.94-17,16.57-16.52,28.5a31.38,31.38,0,0,0,14.74,25.59,33.54,33.54,0,0,0,17.64,4.86l-3.12-2.22h0c0,1.76,1.63,2.23,3.12,2.23h81.08c1.32,0,3.72-1.15,3.72-2.74h0l-3.72,2.73a38.25,38.25,0,0,0,34.07-21.43,35.82,35.82,0,0,0-5.64-38.95,37.31,37.31,0,0,0-20.6-11.48,4.36,4.36,0,0,0-4.4,2.08c-.74,1.6.68,2.58,2.07,2.85a31.56,31.56,0,0,1,24.3,23.89,32,32,0,0,1-1.16,18.39,31.5,31.5,0,0,1-4.1,7.58,33.78,33.78,0,0,1-3,3.47,28,28,0,0,1-3.07,2.68c-.66.5-1.32,1-2,1.42l-.55.35-.1.06c-.38.22-.76.44-1.14.64-.73.39-1.47.75-2.23,1.09-.4.18-.81.34-1.22.51l-.46.18c.62-.23-.1,0-.22.07-.79.26-1.59.51-2.41.72-.43.11-.87.22-1.31.31-.22,0-1.33.26-.74.16a34.07,34.07,0,0,1-5.52.45c-1.33,0-3.72,1.14-3.72,2.74h0l3.72-2.74H58.81l3.13,2.23h0c0-1.77-1.64-2.22-3.13-2.23-1.13,0,.6.05-.53,0l-.69,0c-.57,0-1.14-.1-1.71-.17a20.42,20.42,0,0,1-3.2-.62,26.94,26.94,0,0,1-5.91-2.38A27.76,27.76,0,0,1,37.19,136a27.46,27.46,0,0,1-2-26.49A26.37,26.37,0,0,1,39.49,103a22.36,22.36,0,0,1,2.78-2.65c.55-.45,1.12-.88,1.71-1.3l.59-.4c.11-.08,1.11-.7.78-.5.94-.56,2.3-1.6,1.88-2.91a18.64,18.64,0,0,1-.32-11.11,17.58,17.58,0,0,1,4.26-7.28,17.26,17.26,0,0,1,3.21-2.57c-.5.31.57-.33.68-.38.29-.16.58-.31.88-.45s.81-.36,1.23-.52c-.68.26.33-.1.38-.12a18.39,18.39,0,0,1,2.3-.57c-.68.13.65-.08.77-.09.35,0,.7-.07,1-.08a15.56,15.56,0,0,1,5.5.81c1.77.54,4.34-.08,5.19-1.9A38,38,0,0,1,84.69,56a37.16,37.16,0,0,1,8.18-4.35c.31-.12,1.45-.49,2.11-.69.87-.26,1.74-.48,2.62-.68l1.25-.26.54-.1c-.51.09.1,0,.17,0,.91-.12,1.83-.24,2.75-.31a35.56,35.56,0,0,1,9.81.55,33.18,33.18,0,0,1,4.32,1.14A40,40,0,0,1,120.81,53a38.53,38.53,0,0,1,14.11,11.62,39.68,39.68,0,0,1,7.65,19.94c.17,1.67,2.87,1.73,4,1.42,1.54-.41,2.92-1.53,2.75-3.23Z"/></g></svg>