<svg xmlns="http://www.w3.org/2000/svg" viewBox="0 0 200 200"><defs><style>.cls-1{fill:#fff;}</style></defs><g id="Layer_1" data-name="Layer 1"><path class="cls-1" d="M44.1,86.47a10.27,10.27,0,0,0,5.13-1.38c1.11-.67,1.05-1.42-.39-1.42A10.26,10.26,0,0,0,43.72,85c-1.11.68-1,1.43.38,1.43Z"/><path class="cls-1" d="M141.26,81.1l8.12,5.18c1,.66,3.15,0,4.17-.33.77-.25,2.88-.79,2.87-1.85A39.27,39.27,0,0,0,146,58.17c-6.88-7.72-16.21-12.9-26.09-15.68a70.63,70.63,0,0,0-35.4-.31c-10.62,2.53-21,7.52-28.89,15.2S42.9,75.06,42.85,86c0,1,7.24,0,7.25-1.94a38.29,38.29,0,0,1,9.53-24.67,48.32,48.32,0,0,1,16.5-12.18c.52-.24,1.06-.47,1.59-.69,1-.45-.6.22.47-.19l.65-.25c.55-.21,1.11-.4,1.67-.59l1-.34c.43-.13.45-.14.07,0l.52-.15c.63-.19,1.27-.36,1.91-.53l.7-.17s1.22-.28.44-.11c1.32-.29,2.65-.53,4-.74a3.68,3.68,0,0,1,.58-.08l.74-.09c.69-.08,1.37-.15,2.06-.21,1.35-.11,2.62-.17,4-.19a62,62,0,0,1,15.7,1.83,54.18,54.18,0,0,1,25.32,14.11A39.17,39.17,0,0,1,149.18,86l7-2.18-8.13-5.18c-1.17-.74-3.48.07-4.64.48-.37.13-3.21,1.3-2.19,1.94Z"/><path class="cls-1" d="M155.7,85.64l8.12-7.41,1.15-1c.39-.36.88-1,.73-1.55s-.89-.88-1.4-1a6,6,0,0,0-2.7.16A6.18,6.18,0,0,0,159.17,76l-8.11,7.41-1.16,1c-.39.36-.88,1-.72,1.55s.88.88,1.4,1a6.73,6.73,0,0,0,5.12-1.37Z"/><path class="cls-1" d="M60.67,112l-8.13-5.52c-1-.68-3.19,0-4.17.33-.77.25-2.87.8-2.87,1.85a43,43,0,0,0,9.93,27,54.13,54.13,0,0,0,25.32,16.89c21.78,7.09,48.1,1.22,64.48-14.92,8.35-8.22,13.79-19.1,13.84-30.95,0-1-7.24,0-7.24,1.94a41.81,41.81,0,0,1-10.42,26.77,50.78,50.78,0,0,1-10.8,9.41,52.54,52.54,0,0,1-6.38,3.54c-.59.28-1.18.54-1.78.79l-.82.34-.48.19q-.84.32-1.68.6l-.85.28-.51.17-.07,0c-.57.16-1.14.33-1.72.48l-1,.26c-1.12.29.42-.09-.26.06s-1.29.28-1.94.39l-.71.13c-.12,0-1.37.22-.89.15a47.21,47.21,0,0,1-7.58.48,57.6,57.6,0,0,1-15.16-2.23,53.29,53.29,0,0,1-24.8-15.26,43.08,43.08,0,0,1-11.2-28.51l-7,2.18,8.13,5.52c1.13.76,3.51-.08,4.65-.48.39-.14,3.18-1.27,2.19-1.94Z"/><path class="cls-1" d="M46.22,107.07,38.09,115,37,116.09c-.39.37-.89.94-.72,1.54s.88.89,1.39,1a5.92,5.92,0,0,0,2.71-.17,5.8,5.8,0,0,0,2.42-1.2l8.13-7.91L52,108.22c.39-.38.89-.94.72-1.55s-.88-.88-1.39-1a6.06,6.06,0,0,0-2.71.16,5.82,5.82,0,0,0-2.42,1.21Z"/><path class="cls-1" d="M86.32,133.93a99.5,99.5,0,0,1,2.56-17.59,47.58,47.58,0,0,1,4.51-12.59c3-5.34,7.71-9.82,12.21-13.92q3.42-3.1,7-6c.72-.57,1.45-1.14,2.18-1.69.31-.24,1.71-1.26.33-.26.92-.67,2.2-2,.64-2.83s-3.9-.21-5.13.68c-3,2.22-6,4.59-8.83,7.07-5.14,4.48-10.29,9.4-14.14,15.07a43,43,0,0,0-5.43,12.89,97.14,97.14,0,0,0-2.5,13c-.31,2.34-.57,4.69-.69,7-.08,1.6,2,1.7,3.13,1.55s4-.93,4.12-2.45Z"/><path class="cls-1" d="M92.88,104.51A16.43,16.43,0,0,0,93.05,95,16,16,0,0,0,88,87.65c-1.33-1-3.36-.73-4.8-.08A4.39,4.39,0,0,0,81.21,89c-.27.41-.47,1.13,0,1.49a13.73,13.73,0,0,1,4.58,6.45,14.07,14.07,0,0,1-.17,8.49,1.18,1.18,0,0,0,.74,1.3,4.35,4.35,0,0,0,2.39.25c1.43-.21,3.63-.87,4.12-2.46Z"/><path class="cls-1" d="M94.89,96.33a15.71,15.71,0,0,0,7,4.41,16.55,16.55,0,0,0,7,.28,19.79,19.79,0,0,0,4.4-1.14,4.42,4.42,0,0,0,1.94-1.42,1.18,1.18,0,0,0,0-1.49c-1.18-1.14-3.5-.61-4.8-.08a.76.76,0,0,1-.16.06c-.41.12,1.17-.37.67-.23l-.28.09c-.25.08-.51.14-.77.2s-.84.07.35-.06l-.54.08-.58.07-.21,0c-.37,0-.28,0,.28,0a5.37,5.37,0,0,0-1.27,0l-.36,0,.18,0-.67-.1-.58-.14c-.2-.06-.13,0,.19.07l-.28-.1a12.4,12.4,0,0,1-2-1l-.46-.3c-.51-.32.36.28-.1-.06-.26-.2-.52-.39-.77-.6a13,13,0,0,1-1.49-1.39c-1.7-1.86-8.61.78-6.73,2.84Z"/><path class="cls-1" d="M133.64,61.42a64,64,0,0,0-7.82-.67,87.76,87.76,0,0,0-19.28,1.32C91.47,64.85,75.47,73.67,71.3,89.48c-2.9,11,1.72,25.7,13.12,30a33.2,33.2,0,0,0,26.7-1.28A30.89,30.89,0,0,0,120.4,111a21.57,21.57,0,0,0,3.54-6.49c2.33-6.13,3.6-12.66,5.05-19s2.44-11.82,5.1-17.61c.26-.56.53-1.1.82-1.63l.37-.65c.22-.37-.33.49-.09.16l.28-.41a2.3,2.3,0,0,0-1-3.71A4.74,4.74,0,0,0,129.36,63c-3.24,4.63-4.66,10.31-6,15.71-1.57,6.21-2.78,12.52-4.42,18.71-.16.61-.21.8-.47,1.67-.21.71-.42,1.42-.65,2.12-.41,1.25-.85,2.49-1.37,3.7-.21.49-.43,1-.67,1.46-.12.26-.26.51-.39.76s-.48.78-.1.2c-.26.39-.52.78-.82,1.15-.13.16-.26.31-.4.46s-.31.33-.46.49l-.23.24,0,0a27.39,27.39,0,0,1-4,3.16c-.5.32.42-.24-.1.06l-.45.26c-.41.23-.83.45-1.25.66s-.75.36-1.13.53l-.66.28c-.12.05-.88.33-.23.1-.81.29-1.62.54-2.45.75-.48.12-1,.22-1.44.32l-.25,0-.62.09a22.29,22.29,0,0,1-5.52.07,26.8,26.8,0,0,1-5.82-1.3c-.76-.26-1.51-.54-2.23-.87l-.36-.19s.55.32.26.14-.54-.32-.8-.5c-.42-.28-.83-.58-1.22-.9l-.67-.58-.33-.31c.17.16.26.29,0,0a25.84,25.84,0,0,1-2.33-2.89,20.07,20.07,0,0,1-3.1-6.82,21.54,21.54,0,0,1-.8-8.18,25,25,0,0,1,8.68-16.74A42.19,42.19,0,0,1,91,73.55c.08,0,.58-.37.08-.06l.45-.26c.34-.21.69-.41,1-.61.8-.45,1.61-.87,2.44-1.26s1.55-.72,2.33-1l1.1-.44c.7-.27.16-.05,0,0l.8-.28c1.62-.57,3.27-1,4.94-1.46s3.14-.72,4.74-1c-.76.13.13,0,.41-.06l1.08-.15c.8-.11,1.61-.21,2.42-.29a81.68,81.68,0,0,1,8.57-.41c.56,0,1.13,0,1.69,0l.92,0c-.77,0-.3,0,.16,0,1,0,2,.11,3,.19,1.21.09,2.41.23,3.61.38l.48.07a4.56,4.56,0,0,0,4.71-2.27C136.63,63,135.21,61.68,133.64,61.42Z"/></g></svg>