<svg xmlns="http://www.w3.org/2000/svg" viewBox="0 0 200 200"><defs><style>.cls-1{fill:#fff;}</style></defs><g id="Layer_1" data-name="Layer 1"><path class="cls-1" d="M110.47,89.21a11.41,11.41,0,0,0,8.22,4.11,17.23,17.23,0,0,0,9-1.64c6.09-3.11,9.78-9.42,10.93-16a48.9,48.9,0,0,0,.47-7.65l-3.32,1.79h5.82a4,4,0,0,0,2.66-.83c.43-.37,1-1.14.47-1.7l-10.85-11c-1.06-1.07-3.27-.48-4.2.47l-10.86,11c-1,1-.17,2.06,1.08,2.06H126l-1.53-1.28c-.33,3.71-.52,7.45-2.14,10.88a14.92,14.92,0,0,1-4.08,5.42,7.54,7.54,0,0,1-4.66,1.85c-1.08,0-2.62.31-3.17,1.39s.43,1.67,1.38,1.67a16.67,16.67,0,0,0,14.27-8.51c2.41-4.1,2.84-8.59,3.26-13.21.07-.83-.8-1.27-1.53-1.27h-6.15l1.08,2.06,10.85-11-4.2.46,10.85,11,3.13-2.52h-5.83c-.9,0-3.29.43-3.32,1.78a51.7,51.7,0,0,1-.44,7.46,21.73,21.73,0,0,1-4.23,10A14,14,0,0,1,126.15,89a8.39,8.39,0,0,1-1.83.89,8.26,8.26,0,0,1-1.54.33,11.5,11.5,0,0,1-4-.23,8.34,8.34,0,0,1-3.86-2.8c-1.26-1.41-5.87.41-4.46,2Z"/><path class="cls-1" d="M110.45,98.3a10.66,10.66,0,0,0,2.21,8.68,14.6,14.6,0,0,0,6.7,4.88c6.65,2.35,14.38.25,20.17-3.34a60.61,60.61,0,0,0,6-4.61l-4.2.47,3.77,4.44c1,1.17,4.51.4,4.66-1.25l1.37-15.41c.08-.88-.79-1.23-1.53-1.28l-15.43-1.13c-1-.07-4.4,1-3.13,2.53L135,97l.69-1.87c-2.78,2-5.48,4.09-8.82,5-4.19,1.15-8.89.38-11.8-3-1.21-1.43-5.84.36-4.46,2,3.89,4.57,10.35,5.3,15.9,4.12,4.67-1,8.45-3.62,12.26-6.32.56-.39,1.27-1.19.69-1.87l-4-4.68-3.12,2.52,15.43,1.13-1.53-1.28-1.38,15.42,4.66-1.25-3.77-4.44c-1-1.22-3.23-.33-4.2.47-4.32,3.51-9,7.06-15.19,6.87a11.4,11.4,0,0,1-8.07-3.31,13.79,13.79,0,0,1-2.56-3.47,9,9,0,0,1-.47-5.15c.29-2.14-4.61-1.36-4.86.5Z"/><path class="cls-1" d="M114.67,120.14a12.18,12.18,0,0,1,1.91-1.82,3,3,0,0,1,1.42-.63,16,16,0,0,1,1.9-.16,11.06,11.06,0,0,1,2,.09,12.43,12.43,0,0,1,7.39,4.71,21.94,21.94,0,0,1,4.44,10,46.28,46.28,0,0,1,.49,7.44,1.37,1.37,0,0,0,1.53,1.28h5.82L140.49,139l-10.85,11,4.2-.47-10.86-11-3.12,2.53H126c1.24,0,3.46-.56,3.31-2.18-.39-4.46-.8-8.71-3-12.71-2.56-4.62-7.26-8.11-12.69-8.11-1.08,0-2.62.31-3.17,1.39s.43,1.67,1.38,1.67c4.64,0,8.4,3.65,10.32,7.61,1.75,3.63,2,7.51,2.36,11.44L127.8,138h-6.15a4.05,4.05,0,0,0-2.65.83c-.44.37-1,1.14-.48,1.7l10.86,11c1.05,1.07,3.26.49,4.2-.47l10.85-11c1-1,.17-2.06-1.07-2.06h-5.83l1.53,1.28c0-2,0-4.1-.22-6.13a25.34,25.34,0,0,0-3.13-9.92c-3.08-5.49-8.34-8.9-14.69-8.76a13.41,13.41,0,0,0-10.29,4.6,1.11,1.11,0,0,0,.53,2,3.71,3.71,0,0,0,3.41-.92Z"/><path class="cls-1" d="M87.52,83.05a40.85,40.85,0,0,0-3.1,10.06l-.12.8c0,.11-.12.46-.07.55l1.1-.36h-.15c-1.82-.22-3.69-.19-5.51-.29l-8.17-.42-2.81-.15-1.55-.07-.36,0h-.13c-.14,0-.16,0-.07,0s0-.22,0-.28a1,1,0,0,1,0-.23,27.17,27.17,0,0,1,1.15-3.36c1.17-3,2.52-6,4-8.94.7-1.4,1.41-2.78,2.21-4.12a5,5,0,0,1,1.46-1.58A3.75,3.75,0,0,1,77.06,74a7.7,7.7,0,0,1,1,0h4.36l11.93,0,10,0h4.55a2.76,2.76,0,0,1,.86,0c-.19-.06-.07,0,0,.13s-.29.38.29,0c2.25-1.33.35-.17.29-.18l-.09,0a3.88,3.88,0,0,0-.45.14L99.51,77.16,94.08,78.8c-1,.29-2,.55-2.9.9a6.42,6.42,0,0,0-3.66,3.35c-.61,1.35,2.29,1.1,2.72.14a3.62,3.62,0,0,1,2.14-2.13l1-.31,5-1.52,11.36-3.45.94-.28a2.85,2.85,0,0,0,1.76-1.24,1.45,1.45,0,0,0-1-2.06,12.65,12.65,0,0,0-3.2-.09H99.5L85,72.16H78.53a9.27,9.27,0,0,0-4.46,1.16,8.9,8.9,0,0,0-3.39,3.75,97.2,97.2,0,0,0-4.53,9.36c-.61,1.44-1.2,2.89-1.73,4.36-.39,1.11-1.41,3,0,3.82.89.51,2.24.36,3.23.41l3,.15,4.82.25,8.34.43.46,0a2.71,2.71,0,0,0,3-2.18,35.52,35.52,0,0,1,1.35-6,41.78,41.78,0,0,1,1.69-4.49C90.84,81.84,87.94,82.09,87.52,83.05Z"/><path class="cls-1" d="M65.87,98l16.7-.51L85,97.38l-.7,0c.28,0,.33,1.3.37,1.59L85,101.4l.65,4.21,1.17,7.58,1.76,11.33,1.69,10.86a13.54,13.54,0,0,0,.29,1.91h0c-.18-.57,0,.3,0,.09.13.33,1.45.06,1.27-.42a6.45,6.45,0,0,0-.49-.89l-1.19-2.19-3.69-6.79-4.76-8.78c-.88-1.61-1.67-3.32-2.65-4.88a1.67,1.67,0,0,0-.59-.56,2.86,2.86,0,0,0-3.84,1.47c-.43,1.44-.7,3-1,4.41l-2.87,11.93-1.23,5.15a8.39,8.39,0,0,0-.29,1.2v0s0,0,0,0c0-.21,1.28-.44,1.28-.4s-.06-.06,0-.13a4.28,4.28,0,0,0-.12-1.27l-.85-8.73L68.19,113.4l-1.28-13.17-.2-2.09a1.92,1.92,0,0,1-.06-.53v0c0,.18.08,0,.11-.07l-.58.38-.31.07c.57,0,1.53-.4,1.63-1.06s-.82-.78-1.28-.74a2.39,2.39,0,0,0-2.45,2.36c0,.55.11,1.09.16,1.63l1.4,14.44,1.57,16.23.51,5.23c.07.73,0,1.55.66,2a2.84,2.84,0,0,0,2.74.09,2.25,2.25,0,0,0,1.31-1.48c1-3.53,1.71-7.14,2.57-10.7l2-8.19.56-2.34.17-.71a2.62,2.62,0,0,0,.18-.72c-.06-.42-1.41,0-1.27.43l.09.13v0a9.8,9.8,0,0,0,.6,1.1l9.66,17.8,1.18,2.17.68,1.25a7.58,7.58,0,0,0,.67,1.22c1.08,1.35,4,.6,4.32-1.11a1.75,1.75,0,0,0,0-.56c0-.26-.08-.53-.13-.8l-1.58-10.24-2-12.69L88.45,104l-.81-5.23a6.08,6.08,0,0,0-.52-2.45,2.12,2.12,0,0,0-2-.71l-17.09.52-1.84.06c-.56,0-1.53.42-1.63,1S65.42,98,65.87,98Z"/><path class="cls-1" d="M83.63,71.38A7.53,7.53,0,0,1,77,66.51a7.69,7.69,0,0,1,1.81-8.26,6.18,6.18,0,0,1,1.67-1.14,4.47,4.47,0,0,1,1.48-.39,6.67,6.67,0,0,1,4,1.05,7.86,7.86,0,0,1,3.61,7.71,7.62,7.62,0,0,1-2.25,4.36A6.51,6.51,0,0,1,85.58,71a6.12,6.12,0,0,1-.76.27,5.33,5.33,0,0,1-1.19.11,2.6,2.6,0,0,0-1.92.75c-.39.53.33.67.73.67,3.89,0,7.84-2.15,9.43-5.81a8.4,8.4,0,0,0-2.42-9.71c-3.12-2.55-7.67-2.5-11.11-.61a8.49,8.49,0,0,0,4.1,16.13,2.64,2.64,0,0,0,1.93-.75C84.76,71.51,84,71.39,83.63,71.38Z"/><path class="cls-1" d="M132.85,48A62.76,62.76,0,0,0,44,69.2,61.12,61.12,0,0,0,65,151.68a63,63,0,0,0,50.79,6.54,67.17,67.17,0,0,0,7.19-2.64c1-.42,1.78-1.63,1.11-2.61s-2.32-.86-3.3-.43A57.32,57.32,0,0,1,72.59,151a58.31,58.31,0,0,1-26.83-75.5,56.72,56.72,0,0,1,77.65-27.9,57.67,57.67,0,0,1,5.74,3.35,3.07,3.07,0,0,0,3.47-.26c.8-.63,1.26-2,.23-2.63Z"/></g></svg>