<svg xmlns="http://www.w3.org/2000/svg" viewBox="0 0 200 200"><defs><style>.cls-1,.cls-2{fill:#fff;}.cls-2{stroke:#fff;stroke-miterlimit:10;stroke-width:2px;}</style></defs><g id="Layer_1" data-name="Layer 1"><path class="cls-1" d="M30.68,150.79H155.57c5.74,0,11.47,0,17.21,0H173a2.76,2.76,0,0,0,2.53-1.14c.39-.79-.34-1.44-1.13-1.44H49.53c-5.74,0-11.47,0-17.21,0h-.24a2.77,2.77,0,0,0-2.53,1.14c-.38.79.34,1.44,1.13,1.44Z"/><path class="cls-1" d="M112.1,133.45a5.61,5.61,0,0,1-1.79,4.06c-.1.09-.21.16-.31.24s-.35.23-.11.08l-.27.16c-.19.09-.19.09,0,0l-.22.09c-.32.09.48-.14,0,0s.28,0,0,0c-.09,0-.45,0-.09,0h-.34c-.48,0,.24.06-.24,0l-.32,0a3.33,3.33,0,0,1-.74-.22,5.46,5.46,0,0,1-2.37-1.88,6.1,6.1,0,0,1-.39-6.26,5,5,0,0,1,.88-1.23,3.81,3.81,0,0,1,.45-.4l.26-.19c-.25.17.14-.06.19-.09-.37.21.08,0,.14,0s-.41.1,0,0-.28.1,0,0-.42.05.08,0c.28,0,.17,0,.08,0a3,3,0,0,1,.51.06,4.45,4.45,0,0,1,.64.18,6.25,6.25,0,0,1,4,5.48c0,.94,3.87.29,3.87-1,0-2.72-2.33-5.25-4.78-6.15a8.65,8.65,0,0,0-9.42,2.78,6.94,6.94,0,0,0-.44,7.87c1.8,2.81,5.21,3.57,8.32,2.8a7.83,7.83,0,0,0,6.32-7.3C116,131.51,112.14,132.11,112.1,133.45Z"/><ellipse class="cls-1" cx="147.7" cy="130.69" rx="3.75" ry="3.9"/><path class="cls-1" d="M149.5,130.4a3.44,3.44,0,0,0,0,.54c-.05,0,.06-.29,0,0,0,.09-.05.17-.07.26a4.09,4.09,0,0,1-.18.49l-.1.18c-.11.27.19-.23,0,.07-.06.08-.53.77-.63.72l.15-.12-.16.12-.17.12-.22.12-.13.07c-.16.08-.12.06.11,0-.08,0-.39.13-.49.15a1.46,1.46,0,0,0-.2.05c.32-.15.3-.05.09,0h-.26c-.31,0,.15,0,.18,0a2.91,2.91,0,0,0-.31,0l-.1,0,.22.06a1.13,1.13,0,0,0-.24-.08c-.18-.06-.31-.21.15.08l-.43-.25c-.16-.1-.07-.16.15.12a1.62,1.62,0,0,0-.19-.17,1,1,0,0,0-.18-.17c.19.22.23.26.11.11l-.07-.08a4.38,4.38,0,0,1-.28-.42c-.19-.28.08.27,0,.06a2.56,2.56,0,0,0-.11-.24,4.74,4.74,0,0,1-.15-.5c-.08-.28,0,.06,0,.07s0-.29,0-.38a4,4,0,0,1,0-.49,1.76,1.76,0,0,1,0-.33s-.07.33,0,.06a4.84,4.84,0,0,1,.14-.51c.05-.12.15-.49.26-.56s-.2.3,0,.07c.05-.07.1-.15.15-.21a3.09,3.09,0,0,1,.33-.39s.17-.18.19-.17-.27.19-.07.06a4.45,4.45,0,0,1,.51-.33l.18-.08-.21.08.2-.07a3.51,3.51,0,0,0,.49-.12s-.43,0-.14,0h.26c.18,0,.34.08-.12,0l.31,0c.24.05.3.18-.12,0a2.47,2.47,0,0,0,.29.1c.31.09-.21-.11-.21-.11a1.34,1.34,0,0,1,.31.17l.21.14c-.44-.24-.22-.17-.08,0s.15.18.21.21c-.13-.05-.25-.32,0,0s.2.32.32.47-.17-.38,0-.06l.12.29c0,.1.07.2.09.3l0,.1c0,.17,0,.14,0-.07-.06.11.05.53.05.66,0,.95,1.13,1.66,2,1.76s1.92-.17,1.91-1.17a5.89,5.89,0,0,0-3.9-5.28,5.63,5.63,0,0,0-6.33,1.45,5.24,5.24,0,0,0-.33,6,6.25,6.25,0,0,0,6.49,2.77,5.09,5.09,0,0,0,4.07-5c0-1-1.15-1.67-2-1.76S149.51,129.4,149.5,130.4Z"/><ellipse class="cls-1" cx="61.51" cy="131.6" rx="3.75" ry="3.9"/><path class="cls-1" d="M63.31,131.3a3.57,3.57,0,0,0,0,.55c-.06,0,0-.29,0,0a2.5,2.5,0,0,1-.07.26,4.84,4.84,0,0,1-.18.49l-.09.18c-.12.27.18-.23,0,.07-.06.08-.53.76-.63.72l.15-.12-.16.12-.17.12-.21.12-.14.07c-.16.08-.12.06.11,0-.08,0-.39.13-.48.15l-.21,0c.32-.14.3,0,.1,0H61c-.3,0,.15,0,.18,0a1.06,1.06,0,0,0-.31,0l-.1,0L61,134a2.34,2.34,0,0,0-.24-.09c-.18-.05-.31-.21.15.09l-.43-.25c-.16-.1-.06-.16.16.11a1.56,1.56,0,0,0-.2-.16c0-.05-.11-.14-.18-.17.19.22.23.26.11.11l-.07-.08c-.1-.13-.19-.28-.28-.42s.08.27,0,.06a2.44,2.44,0,0,0-.1-.24,4.83,4.83,0,0,1-.16-.5c-.08-.29,0,.06,0,.07a1,1,0,0,1,0-.38,4.13,4.13,0,0,1,0-.5,1.73,1.73,0,0,1,0-.32s-.07.32,0,.06a4.91,4.91,0,0,1,.15-.51c0-.12.14-.5.25-.56s-.2.29,0,.06c0-.07.09-.14.14-.2a4.32,4.32,0,0,1,.34-.39s.16-.18.18-.17-.27.19-.07.06a5.54,5.54,0,0,1,.51-.33,1,1,0,0,0,.18-.09l-.2.09.19-.07a4.05,4.05,0,0,0,.5-.12s-.43,0-.15,0l.27,0c.17,0,.33.08-.13,0l.31,0c.24,0,.3.18-.12,0a1.66,1.66,0,0,0,.29.1c.31.1-.21-.1-.2-.1a1.11,1.11,0,0,1,.3.17c.08,0,.14.1.21.14-.43-.24-.22-.17-.08,0s.15.18.22.21c-.14-.06-.26-.32,0,0s.2.31.31.46-.17-.37,0-.05c0,.1.09.19.12.29s.07.2.1.3l0,.1c0,.17,0,.14,0-.07-.06.11.05.53.05.65,0,1,1.14,1.67,2,1.76s1.91-.16,1.9-1.16a5.88,5.88,0,0,0-3.9-5.28A5.63,5.63,0,0,0,57,128.07a5.24,5.24,0,0,0-.33,6,6.28,6.28,0,0,0,6.49,2.77,5.08,5.08,0,0,0,4.07-5c0-1-1.15-1.67-2-1.76S63.33,130.3,63.31,131.3Z"/><path class="cls-1" d="M161.12,131.76c-.06,5.69-3.26,11.86-8.83,13.92-5.29,2-11.33-1.09-14.57-5.39a16.5,16.5,0,0,1-1.1-17.69c2.74-4.87,7.86-7.73,13.38-6.2,6.81,1.9,11.05,8.48,11.12,15.36,0,1.17,4.85.35,4.83-1.3a17,17,0,0,0-11.57-16,19.84,19.84,0,0,0-20.73,6.16,17.54,17.54,0,0,0-1.34,20.18c4.1,6.51,11.77,9,19.12,7.32A18.34,18.34,0,0,0,166,130.46C166,129.31,161.14,130.1,161.12,131.76Z"/><path class="cls-1" d="M74.7,132.12c-.06,5.78-3.08,11.87-8.72,14-5.3,2-11.27-.76-14.59-5.08a16.24,16.24,0,0,1-1.27-17.52c2.79-4.91,7.85-7.73,13.45-6.35,6.85,1.7,11.06,8.48,11.13,15.26,0,1.45,4.85.55,4.83-1.3A17.17,17.17,0,0,0,67.93,115a19.5,19.5,0,0,0-20.63,6,17.71,17.71,0,0,0-1.5,20.25c3.93,6.53,11.62,9.25,18.93,7.71a18.42,18.42,0,0,0,14.8-17.53C79.55,129.55,74.72,130.57,74.7,132.12Z"/><path class="cls-1" d="M108.14,133H42.24a.87.87,0,0,1-.85-.89h0a.87.87,0,0,1,.85-.89h63.81l-8.22-27.38,2.32.5Z"/><path class="cls-1" d="M108.54,132.55H51.33c-2.82,0-5.64.08-8.46,0a.67.67,0,0,1-.2,0h0c.21.06,0-.1,0-.11s-.17-.19-.21-.35,0-.32,0-.44l.07-.15-.63.17h0c.06.06.46,0,.53,0h63.27c.26,0,1.51-.25,1.37-.71l-2.77-9.23L99.81,107l-1-3.38-1.75.67,2.33.5-.19-.15,2.71,9.72,4.29,15.37,1,3.57c.14.53,2.08,0,1.93-.52L106.4,123l-4.29-15.37-1-3.57a.26.26,0,0,0-.19-.15l-2.32-.5c-.31-.07-1.93.08-1.75.67l2.77,9.22,4.44,14.78,1,3.38,1.37-.71H44.11c-1.07,0-2.28-.14-3.17.58a1.14,1.14,0,0,0,.54,2.08,3.46,3.46,0,0,0,.46,0h65.8A1.78,1.78,0,0,0,109,133C109.26,132.6,108.82,132.55,108.54,132.55Z"/><path class="cls-1" d="M85.79,131H36.16c-1.22,0-3,.49-3.14-1.2-.21-2.24,0-4.61,0-6.86v-12.6c0-6.55-.15-13.11,0-19.66v-.24c0-.06,0,.23,0-.17.11-.91-.15-.19-.82-.37a1.14,1.14,0,0,0,.32,0c.73,0,1.46,0,2.18,0H83.24a3.1,3.1,0,0,1,1.14,0c.77.36.61,1.42.61,2.09v37.34c0,.29,0,.58,0,.86v.19c0,.57-.34.65.32.6-.7.06-2.06.49-2.2,1.31s1.14.89,1.67.84c2-.18,4-1.39,4.07-3.56,0-1,0-1.93,0-2.89V91.81a10.07,10.07,0,0,0,0-2c-.33-1.64-2-2.1-3.44-2.12-2.26,0-4.51,0-6.76,0H52.36c-6.12,0-12.24-.07-18.36,0-1.86,0-4.4.75-4.81,2.88a9.84,9.84,0,0,0,0,1.8v37.77a2.89,2.89,0,0,0,3.07,3.06c1.58.07,3.18,0,4.77,0H84.3a3.09,3.09,0,0,0,2.55-1.06C87.29,131.39,86.47,131,85.79,131Z"/><path class="cls-2" d="M116.47,117.27c8.06-6.51,13.94-17.66,14-17.82a.84.84,0,0,1,1.16-.36.92.92,0,0,1,.35,1.21c-.37.7-6.71,12.74-15.57,19.25"/><path class="cls-2" d="M107.1,131.42a.89.89,0,0,1,0-1.78c13.07,0,25.05-22.72,25.17-22.95a.84.84,0,0,1,1.16-.36.91.91,0,0,1,.35,1.21C133.27,108.51,121.19,131.42,107.1,131.42Z"/><path class="cls-2" d="M121.17,94.3c-.42,0-.68,0-.73,0a.66.66,0,0,1-.55-.75.65.65,0,0,1,.72-.58c.19,0,4.76.54,8.86-4.13a.63.63,0,0,1,.91,0,.7.7,0,0,1,0,.95A12.38,12.38,0,0,1,121.17,94.3Z"/><path class="cls-2" d="M148,130.68a.87.87,0,0,1-.58-.23c-.18-.18-18.29-17.75-18.29-42a.86.86,0,1,1,1.71,0c0,23.47,17.56,40.53,17.74,40.7a.92.92,0,0,1,.05,1.26A.85.85,0,0,1,148,130.68Z"/><path class="cls-2" d="M120.63,92.72a.85.85,0,0,0-.95.77.89.89,0,0,0,.74,1s.31,0,.74,0a11.35,11.35,0,0,0,4.59-1,.52.52,0,0,0,.27-.63l-.23-.72a.49.49,0,0,0-.67-.3A9.2,9.2,0,0,1,120.63,92.72Z"/><path class="cls-1" d="M113.83,123.29a2.1,2.1,0,0,1-.21,1c-.13.19.28,0-.24.12a2.66,2.66,0,0,1-1.45-.17c-1.32-.6-1.19-2.46-1.12-3.66s.23-2.44.34-3.66l.9-9.67a1.14,1.14,0,0,0-.84-1.15l-8.56-2.83c-1-.32-1.93-.65-2.9-1a4.43,4.43,0,0,1-2.51-1.41,6.6,6.6,0,0,1-.81-3.71c0-3.69.48-7.44.76-11.12.14-1.85.2-3.75.48-5.59a3.8,3.8,0,0,1,1.54-2.78,3.62,3.62,0,0,1,2.78,0c2.09.54,4.17,1.12,6.26,1.68,3.8,1,7.63,2,11.4,3.14,1.54.47,3.11.87,2.52,2.84-.1.34-.32.62-.45,1a1,1,0,0,1-.19.27c-.35.41,0,.31,1.12-.3,0,0-1-.23-.9-.2l-1.9-.5c-4.23-1.12-8.47-2.23-12.69-3.37-1-.27-3,.09-3.08,1.45q-.45,6.44-.92,12.88a1.12,1.12,0,0,0,.84,1.15l6.48,1.73c1.68.45,4.32.64,5.31,2.3.75,1.26.38,2.77.22,4.14l-1.68,13.49-.5,4c-.24,2,3.7,1.45,3.92-.3L119.11,112l.83-6.71c.21-1.72.45-3.38-.39-5-1-2-3.15-2.57-5.17-3.13-2.71-.74-5.43-1.45-8.14-2.18l.84,1.15q.45-6.43.92-12.87l-3.07,1.44q6.57,1.77,13.16,3.5c1.75.46,3.68,1.26,5.44.4a5.57,5.57,0,0,0,2.63-4c.8-4.38-5-5.07-8-5.89-4.64-1.28-9.29-2.51-13.93-3.75-3.31-.89-7.07-.51-9.2,2.5a9.62,9.62,0,0,0-1.44,5c-.2,2.31-.37,4.61-.53,6.92s-.37,4.48-.49,6.72a12.84,12.84,0,0,0,.48,5.12c.82,2.21,2.73,3,4.82,3.71,3.71,1.21,7.41,2.46,11.11,3.68l-.84-1.15-.84,9.1c-.32,3.36-1.62,8.74,2.48,10.22,3.2,1.15,7.58,0,8-3.84C118,121,114,121.54,113.83,123.29Z"/><path class="cls-1" d="M100.87,74.65a8.76,8.76,0,0,0,9.37-3.19,7.67,7.67,0,0,0-.13-8.65C106,57,95.61,60.56,95.18,67.41c-.22,3.62,2.34,6.32,5.69,7.24a2.89,2.89,0,0,0,2.73-.73,1,1,0,0,0-.45-1.67,5.7,5.7,0,0,1-2.72-1.55,4.81,4.81,0,0,1-1.3-2.6,5.45,5.45,0,0,1,.37-2.94,4.87,4.87,0,0,1,2-2.19c.25-.18-.39.18.07,0,.14-.07.3-.13.44-.21s.37-.14,0,0l.47-.14.32-.08c-.5.12,0,0,.11,0s.27,0,.4,0h-.09l.33,0s.49.06.26,0,.28.07.25.06l.4.12.16.06a5,5,0,0,1,1.3.84,6,6,0,0,1,1.45,6.32c-.06.15-.23.51-.34.72s-.11.18-.17.27a2.33,2.33,0,0,1-.17.26c.08-.11.06-.09,0,0l-.21.24s-.52.46-.23.23l-.25.18c-.08.06-.64.36-.22.16l-.28.14-.29.12q.39-.14.06,0l-.3.08c-.39.11.34,0-.18,0a3.79,3.79,0,0,1-1.49-.11,2.89,2.89,0,0,0-2.73.73A1,1,0,0,0,100.87,74.65Z"/></g></svg>