<svg xmlns="http://www.w3.org/2000/svg" viewBox="0 0 200 200"><defs><style>.cls-1{fill:none;}.cls-1,.cls-2{stroke:#fff;stroke-miterlimit:10;stroke-width:2px;}.cls-2{fill:#fff;}</style></defs><g id="Layer_1" data-name="Layer 1"><path class="cls-1" d="M155.78,124.38l.13-.28c1-3.81-.72-6.5-3.21-10.29-.77-1.16-1.56-2.36-2.34-3.72-2.92-5-9.1-14.52-11-17.42L129.65,99c2.38,3.89,12.09,19.78,14.27,23.48,1.48,2.52,2.9,4.94,3.36,7.63C153,129,155.17,125.6,155.78,124.38Z"/><path class="cls-2" d="M154.43,112.67c-.75-1.14-1.52-2.32-2.28-3.63-3.48-6-11.54-18.25-11.62-18.37a1,1,0,0,0-1.43-.3l-11.43,7.38a1.05,1.05,0,0,0-.32,1.42c.12.2,12.31,20.12,14.82,24.39,1.41,2.39,2.65,4.5,3.05,6.75a18.14,18.14,0,0,0,2.06-.25c-.46-2.69-1.88-5.11-3.36-7.63-2.18-3.7-11.89-19.59-14.27-23.48l9.71-6.28c1.9,2.9,8.08,12.4,11,17.42.78,1.36,1.57,2.56,2.34,3.72,2.49,3.79,4.25,6.48,3.21,10.29l0-.06a1,1,0,0,1,1.34-.53,1,1,0,0,1,.57,1.34l-.19.42h0l-4.11,8.94a1.15,1.15,0,0,0,.14-.19L157,127C159.89,121,157.36,117.13,154.43,112.67Z"/><path class="cls-2" d="M155.78,124.37a.43.43,0,0,1,.09-.1,1,1,0,0,1,0-.17l-.13.28Z"/><path class="cls-2" d="M157.16,123.9a1,1,0,0,1,.5,1.37l.19-.42a1,1,0,0,0-.57-1.34,1,1,0,0,0-1.34.53l0,.06a1,1,0,0,0,0,.17A1,1,0,0,1,157.16,123.9Z"/><path class="cls-2" d="M147.42,132.14a15.9,15.9,0,0,0,5.77-2.13l-1.26,2.75.07,0,3.17-6.67a12.66,12.66,0,0,0,.51-1.25,1.06,1.06,0,0,1,.09-.42v0c-.61,1.22-2.78,4.61-8.5,5.68A10.2,10.2,0,0,1,147.42,132.14Z"/><path class="cls-2" d="M153.1,134.55l-2.38.85-.55,1.2c0,.06-2.91,6-8.38,6.48-4.27.38-17.45.21-24.93.08h0a1,1,0,0,0-1,1,18.15,18.15,0,0,1-.46,3.43c-1.31-.66-4.57-2.5-8.13-4.85-6.7-4.43-7.54-6.06-7.64-6.36.32-.66,2.72-2.57,8.25-5.36a49.5,49.5,0,0,1,9-3.76,11.53,11.53,0,0,1,.19,3.87,1,1,0,0,0,1,1.13h0c7.17-.05,17.23-.06,24.48.21a24.84,24.84,0,0,0,2.77-.07,8.91,8.91,0,0,0-.11-2.07,24,24,0,0,1-2.58.06c-6.92-.25-16.37-.26-23.46-.21.06-1.64-.08-4-1.18-4.77-.5-.37-1.17-.54-4.67.83-2.48,1-15.23,6.62-15.82,9.8a2.93,2.93,0,0,0,.82,2.25c2.94,3.68,15.94,11.54,17.32,11.59h0a1.38,1.38,0,0,0,1-.4c.76-.74,1-2.9,1.17-4.22,7.63.13,20,.27,24.16-.1,6.63-.6,9.92-7.37,10.07-7.67l1.5-3.27A1,1,0,0,1,153.1,134.55Z"/><path class="cls-2" d="M145.33,132.38c.73,0,1.44-.13,2.09-.24a10.2,10.2,0,0,0-.14-2.08,18.14,18.14,0,0,1-2.06.25A8.91,8.91,0,0,1,145.33,132.38Z"/><path class="cls-2" d="M157.66,125.27l0,0a1,1,0,0,1-2-.48,12.66,12.66,0,0,1-.51,1.25L152,132.74l-.07,0-1.21,2.64,2.38-.85a1,1,0,0,0,.45-.34l4.11-8.94Z"/><path class="cls-2" d="M155.78,124.37h0v0a1.06,1.06,0,0,0-.09.42l.19-.55A.43.43,0,0,0,155.78,124.37Z"/><path class="cls-2" d="M157.16,123.9a1,1,0,0,0-1.29.37l-.19.55a1,1,0,0,0,.58,1,1,1,0,0,0,1.38-.47l0,0A1,1,0,0,0,157.16,123.9Z"/><path class="cls-1" d="M51.54,143.9l.16.26c2.59,3,5.81,3,10.35,3,1.39,0,2.82,0,4.39.11,5.79.34,17.13.46,20.59.48l.15-11.56c-4.56-.17-23.16-.88-27.45-1.12-2.93-.16-5.73-.31-8.22-1.42C49.23,139,50.86,142.72,51.54,143.9Z"/><path class="cls-2" d="M62,149.26c1.37,0,2.78,0,4.29.11,6.91.41,21.58.49,21.73.5a1,1,0,0,0,1-1l.18-13.61a1,1,0,0,0-1-1c-.23,0-23.57-.89-28.52-1.16-2.77-.14-5.21-.28-7.31-1.2-.35.64-.67,1.26-.93,1.86,2.49,1.11,5.29,1.26,8.22,1.42,4.29.24,22.89,1,27.45,1.12L87,147.78c-3.46,0-14.8-.14-20.59-.48-1.57-.1-3-.11-4.39-.11-4.54,0-7.76-.05-10.35-3l0,.06a1,1,0,0,1-.31,1.41,1.06,1.06,0,0,1-1.43-.26s-.1-.15-.24-.39h0l-5.17-8.36a1,1,0,0,0,.08.22l4,6.7C52.1,149.21,56.7,149.23,62,149.26Z"/><path class="cls-2" d="M51.54,143.91a.65.65,0,0,1,0,.13l.12.12-.16-.26Z"/><path class="cls-2" d="M51.17,145.32a1,1,0,0,1-1.41-.34c.14.24.24.39.24.39a1.06,1.06,0,0,0,1.43.26,1,1,0,0,0,.31-1.41l0-.06-.12-.12A1,1,0,0,1,51.17,145.32Z"/><path class="cls-2" d="M49.7,132.65a15.84,15.84,0,0,0-1.42,6l-1.59-2.58,0,.08,3.8,6.33a12.6,12.6,0,0,0,.75,1.11,1,1,0,0,1,.3.31l0,0c-.68-1.18-2.31-4.86,0-10.22A10.91,10.91,0,0,1,49.7,132.65Z"/><path class="cls-2" d="M44.55,136l.61-2.45-.69-1.13c0-.05-3.38-5.73-.76-10.56,2-3.77,9.48-14.65,13.73-20.8v0a1,1,0,0,0-.24-1.41,18.06,18.06,0,0,1-2.6-2.28,93.72,93.72,0,0,1,8.54-4.08c7.39-3.13,9.22-2.93,9.53-2.86.37.64.63,3.7-.11,9.84a49.59,49.59,0,0,1-1.86,9.6,11.33,11.33,0,0,1-3.33-2,1.1,1.1,0,0,0-.82-.22,1.07,1.07,0,0,0-.7.45h0c-3.93,6-9.49,14.37-13.72,20.27a24.42,24.42,0,0,0-1.49,2.34,8.38,8.38,0,0,0,1.79,1,24.23,24.23,0,0,1,1.38-2.18c4-5.62,9.28-13.49,13.16-19.41,1.34,1,3.34,2.11,4.63,1.64.58-.21,1.1-.66,1.89-4.34.56-2.61,2.92-16.35.6-18.6a2.93,2.93,0,0,0-2.33-.56c-4.69.41-18.44,6.89-19.24,8h0l0,0a1.41,1.41,0,0,0-.2,1c.19,1,1.84,2.49,2.87,3.31-4.34,6.29-11.28,16.48-13.29,20.18-3.17,5.86.64,12.35.81,12.63l1.9,3.07A1,1,0,0,1,44.55,136Z"/><path class="cls-2" d="M50.65,130.77c-.36.64-.68,1.27-.95,1.88a10.91,10.91,0,0,0,1.81,1c.26-.6.58-1.22.93-1.86A8.38,8.38,0,0,1,50.65,130.77Z"/><path class="cls-2" d="M49.76,145l0,0a1,1,0,0,1,0-1.09,1,1,0,0,1,.33-.31,1,1,0,0,1,1.11,0,12.6,12.6,0,0,1-.75-1.11l-3.8-6.33,0-.08-1.53-2.46L44.55,136a1,1,0,0,0,0,.57L49.76,145Z"/><path class="cls-2" d="M51.54,143.91h0l0,0a1,1,0,0,0-.3-.31l.36.47A.65.65,0,0,0,51.54,143.91Z"/><path class="cls-2" d="M51.17,145.32a1,1,0,0,0,.41-1.28l-.36-.47a1,1,0,0,0-1.11,0,1,1,0,0,0-.33.31,1,1,0,0,0,0,1.09l0,0A1,1,0,0,0,51.17,145.32Z"/><path class="cls-1" d="M87.48,46.18l-.3,0c-3.78,1.15-5.12,4.07-7,8.2-.57,1.27-1.17,2.57-1.89,4C75.6,63.54,70.86,73.83,69.42,77l10.49,4.87c2-4.09,10.28-20.77,12.25-24.59,1.34-2.6,2.63-5.1,4.66-6.91C92.86,46.07,88.84,46.05,87.48,46.18Z"/><path class="cls-2" d="M78.29,53.57c-.56,1.24-1.14,2.52-1.85,3.87-3.2,6.13-9.28,19.49-9.34,19.62a1,1,0,0,0,.51,1.37L80,84.16a1,1,0,0,0,1.37-.48c.1-.21,10.45-21.14,12.72-25.55,1.27-2.47,2.4-4.64,4.09-6.18a18.41,18.41,0,0,0-1.31-1.6c-2,1.81-3.32,4.31-4.66,6.91-2,3.82-10.23,20.5-12.25,24.59L69.42,77c1.44-3.15,6.18-13.44,8.87-18.58.72-1.4,1.32-2.7,1.89-4,1.88-4.13,3.22-7,7-8.2H87.1a1,1,0,0,1-.33-2.05,4,4,0,0,1,.46-.07h0L97,42.83a1,1,0,0,0-.24,0L89,43.74C82.41,44.52,80.5,48.72,78.29,53.57Z"/><path class="cls-2" d="M87.47,46.19l-.13,0-.16.06.3,0Z"/><path class="cls-2" d="M86.34,45.27a1,1,0,0,1,.89-1.15,4,4,0,0,0-.46.07,1,1,0,0,0,.33,2.05h.08l.16-.06A1,1,0,0,1,86.34,45.27Z"/><path class="cls-2" d="M98.5,49.11a15.93,15.93,0,0,0-4.88-3.74l3-.4-.06,0-7.33.88c-.47.06-.9.14-1.32.23a1,1,0,0,1-.41.15h0c1.36-.13,5.38-.11,9.34,4.17A10,10,0,0,1,98.5,49.11Z"/><path class="cls-2" d="M97.51,43l2,1.57,1.31-.18c.07,0,6.61-.73,10,3.63,2.6,3.41,9.49,14.65,13.36,21.05h0a1,1,0,0,0,1.39.36A17.79,17.79,0,0,1,128.66,68a91.36,91.36,0,0,1,.24,9.46c-.17,8-1.1,9.62-1.3,9.86-.73.08-3.63-.94-8.93-4.12a49.5,49.5,0,0,1-8-5.63,11.38,11.38,0,0,1,3.16-2.23,1,1,0,0,0,.53-.65,1.05,1.05,0,0,0-.12-.83h0c-3.87-6-9.24-14.54-12.89-20.82a25.71,25.71,0,0,0-1.53-2.31A9,9,0,0,0,98.13,52a24.3,24.3,0,0,1,1.43,2.15c3.48,6,8.51,14,12.33,20-1.42.83-3.3,2.17-3.4,3.54,0,.62.16,1.28,3.19,3.5,2.16,1.58,13.72,9.36,16.73,8.17a3,3,0,0,0,1.46-1.9c1.55-4.46,1.26-19.64.57-20.83h0s0,0,0,0a1.39,1.39,0,0,0-.84-.59c-1-.25-3,.65-4.2,1.26-4-6.53-10.42-17-13-20.38-4-5.29-11.53-4.47-11.86-4.43L97,42.83A1,1,0,0,1,97.51,43Z"/><path class="cls-2" d="M99.82,50.75a18.88,18.88,0,0,0-1.32-1.64,10,10,0,0,0-1.68,1.24A18.41,18.41,0,0,1,98.13,52,9,9,0,0,1,99.82,50.75Z"/><path class="cls-2" d="M87.23,44.12h0A1,1,0,0,1,88.4,45a1,1,0,0,1-.49,1c.42-.09.85-.17,1.32-.23l7.33-.88.06,0,2.88-.38-2-1.57a1,1,0,0,0-.53-.19l-9.75,1.29Z"/><path class="cls-2" d="M87.47,46.19h0a1,1,0,0,0,.41-.15l-.57.14Z"/><path class="cls-2" d="M86.34,45.27a1,1,0,0,0,1,.9l.57-.14a1,1,0,0,0,.49-1,1,1,0,0,0-1.14-.91h0A1,1,0,0,0,86.34,45.27Z"/></g></svg>