<svg xmlns="http://www.w3.org/2000/svg" viewBox="0 0 200 200"><defs><style>.cls-1{fill:#fff;}</style></defs><g id="Layer_1" data-name="Layer 1"><path class="cls-1" d="M124.94,81.36A24.82,24.82,0,0,0,110.7,58.28a28.93,28.93,0,0,0-29,2.69A25,25,0,0,0,71.35,86C73,94.8,78.58,102.67,84.53,109.2a87.57,87.57,0,0,0,12.74,11.6c1,.75,3.07,0,3.87-.75a112.68,112.68,0,0,0,7.81-8.4c4.88-5.74,9.5-11.9,12.72-18.75a31.19,31.19,0,0,0,3.27-11.54c.1-2.15-4.76-1.26-4.85.53-.35,7.14-4.15,13.79-8,19.57A113.34,113.34,0,0,1,100,116.25c-.9,1-1.82,1.9-2.77,2.81l3.87-.74-.76-.58-.17-.13-.49-.39c-.4-.32-.8-.64-1.19-1q-3.51-2.91-6.72-6.14c-5.74-5.75-11.1-12.38-14-20a26,26,0,0,1-1.8-12.48,21.65,21.65,0,0,1,28-18c9.57,3,16.52,12.23,16.18,22.31C120,84.06,124.88,83.15,124.94,81.36Z"/><path class="cls-1" d="M108,80.55c0,4.28-2.33,8.8-6.58,10.29-4,1.43-8.52-.56-11.08-3.79a11.73,11.73,0,0,1-1.06-12.79,9.1,9.1,0,0,1,9.91-4.8A11.59,11.59,0,0,1,108,80.55c0,1.1,1.22,1.27,2.13,1.18.74-.08,2.74-.67,2.72-1.73a13.66,13.66,0,0,0-9.3-12.91,16.3,16.3,0,0,0-17.09,4.58,13.63,13.63,0,0,0-1.51,16c3.14,5.26,9.56,7.4,15.4,6.28,6.75-1.3,12.4-6.85,12.5-13.94C112.88,77.86,108,78.8,108,80.55Z"/><path class="cls-1" d="M107,110.9l23.53.12h3.4l-1.29-.38,17.72,19.8,2.53,2.84,3.2-2.24-11.36.08-27.29.18-33,.22-28.67.19-9.41.06a28.86,28.86,0,0,0-4.46,0h-.2L43,133.15l17.82-20.82,2.54-3-3.2,1.3,23,.11,3.29,0c1,0,2.63-.35,3.2-1.29s-.49-1.33-1.29-1.34l-25-.12c-1.66,0-3.31,0-4.51,1.41-.85,1-1.66,1.94-2.49,2.91L46,124.32l-7.53,8.79c-.75.88.66,1.34,1.29,1.33l11.36-.07,27.29-.19,33-.22,28.67-.19c4.62,0,9.25,0,13.87-.09h.2c.73,0,4.37-.93,3.2-2.24L140.46,112.5c-1-1.12-2-2.3-3-3.38a3.14,3.14,0,0,0-2.51-.72l-13.67-.07-12.34-.06c-1,0-2.63.35-3.2,1.29s.49,1.33,1.29,1.34Z"/></g></svg>