<svg xmlns="http://www.w3.org/2000/svg" viewBox="0 0 200 200"><defs><style>.cls-1,.cls-2{fill:#fff;}.cls-2,.cls-3{stroke:#fff;}.cls-2{stroke-miterlimit:10;stroke-width:2.5px;}.cls-3{fill:none;stroke-linecap:round;stroke-linejoin:round;stroke-width:3px;}</style></defs><g id="Layer_1" data-name="Layer 1"><path class="cls-1" d="M167.13,116.39v-4a4.27,4.27,0,0,1,4.5-4,5.17,5.17,0,0,1,1.54.25v11.35a5.17,5.17,0,0,1-1.54.25A4.27,4.27,0,0,1,167.13,116.39Z"/><path class="cls-1" d="M152.46,111.53c1.87,0,2.14,2,2.15,3.59,0,1.31,0,2.63,0,3.94s-.26,2.78.18,3.92c1,2.54,5.29,2.82,7.56,2.9,2.94.11,5.9,0,8.85,0L169,124.28c0,2.88-1.35,5.57-4.28,6.39-2,.55-4.35.18-6.37.21h-9.6l2.24,1.62c0-2.5,0-5,0-7.5-.09-5.28-4-9.27-9.08-10.29a36.36,36.36,0,0,0-7-.23h-17.6l2.24,1.63v-6.55l-2.65,2h35.61c1.06,0,2.54-.82,2.65-2s-1.27-1.63-2.24-1.63H117.26c-1,0-2.66.83-2.66,2v6.55c0,1.26,1.17,1.62,2.25,1.62h15.31c2.15,0,4.31-.07,6.45,0a7.71,7.71,0,0,1,7.42,6.84c.21,2.61,0,5.31,0,7.93,0,1.26,1.17,1.63,2.24,1.63h4.22a44.68,44.68,0,0,0,4.91,0c.08,0,.33,0-.2,0s.3,0,.44,0h4a13.41,13.41,0,0,0,7.66-2.14,10,10,0,0,0,4.54-8.41c0-1.26-1.17-1.63-2.25-1.63-2.73,0-5.53.14-8.24,0a9.85,9.85,0,0,1-3.51-.65s-.46-.39-.34-.21,0-.14,0-.29c0-.69,0-1.39,0-2.08,0-2.3.35-5-.31-7.23-.86-2.94-3.52-3.83-6.32-3.89-1.06,0-2.54.84-2.65,2S151.49,111.51,152.46,111.53Z"/><path class="cls-1" d="M159.57,121.57q0-3,0-6a7.32,7.32,0,0,0-.76-3.88c-1.66-2.73-5.46-2.45-8.25-2.45H117l2.51,1V74.51c0-1.7.55-3.85,2.59-4.07a28.64,28.64,0,0,1,2.93,0h25.14a5.39,5.39,0,0,1,3.18.66c2.12,1.22,2.23,3.51,2.65,5.66.28,1.41.51,2.84.85,4.24,1.75,7.21,3.33,14.45,4.9,21.71l.23,1c.12.57.73.82,1.25.92a7.12,7.12,0,0,1,4.91,3.55,9,9,0,0,1,.75,4.56l3.74-1c-2.14-.58-5-.41-6.7,1.16-1.12,1-1.11,2.26-1.11,3.65s0,2.51,1,3.53c1.73,1.68,4.64,1.76,6.83,1.16l-3.77-.88v3.41l2.48-1.12H164c-.78,0-4.34.12-4.46-1.12-.15-1.58-5.14-1.38-5,.08.26,2.71,5.39,3,7.34,3.14,3.17.21,6.37.07,9.53.07.63,0,2.49-.18,2.49-1.12v-3.42c0-1.35-3.07-1.07-3.78-.88.62-.17.78.25.25-.27a1.91,1.91,0,0,1-.53-1.18,12.18,12.18,0,0,1,0-1.48c0-.44,0-.89,0-1.33a2,2,0,0,1,.48-1.22c.06-.07.41-.28.42-.34.24-.1.11-.11-.41,0s-.65,0-.16.11c.75.2,3.75.33,3.75-1a9.63,9.63,0,0,0-1.27-5.68,10.69,10.69,0,0,0-6.9-4.26l1.26.91c-1.52-7-3-14-4.69-20.93-.32-1.32-.62-2.62-.88-3.95a33.44,33.44,0,0,0-1.31-6.13c-1.82-4.42-7.49-4.39-11.54-4.39H122.89a10.23,10.23,0,0,0-6.14,1.55c-2.3,1.64-2.2,4-2.2,6.44v34.06c0,1,2,1.05,2.52,1.05h34.42a3,3,0,0,1,2.06.35c1,.86,1,2.46,1,3.67,0,2.09,0,4.18,0,6.26C154.57,123.16,159.57,123.13,159.57,121.57Z"/><path class="cls-1" d="M28.63,130.13a11.64,11.64,0,0,0,7.46,11.33A14,14,0,0,0,51,138a11.65,11.65,0,0,0,1.81-13.57C50.32,120,45,117.79,40,118.56c-5.87.9-11,5.41-11.39,11.57-.13,2.28,4.75,1.47,4.87-.47a9.44,9.44,0,0,1,1.72-5.08,7.82,7.82,0,0,1,1.71-1.69,6,6,0,0,1,.85-.54,10.45,10.45,0,0,1,1-.44,6.06,6.06,0,0,1,2.06-.31,8.25,8.25,0,0,1,2.64.51,9,9,0,0,1,4.11,3.23,9.39,9.39,0,0,1,.32,10.33,7.71,7.71,0,0,1-3.62,3.06,5.36,5.36,0,0,1-1,.27s-.47.09-.16,0c-.23,0-.47.06-.7.08a7.56,7.56,0,0,1-2.37-.24,9.27,9.27,0,0,1-6.63-9.22C33.57,127.36,28.69,128.2,28.63,130.13Z"/><circle class="cls-2" cx="41.42" cy="130.37" r="4.75" transform="translate(-23.41 9.92) rotate(-10.67)"/><path class="cls-1" d="M132.24,142.18c5.37-.2,10.57-3,12.66-8.09a11.2,11.2,0,0,0-3.42-12.89c-4.34-3.42-10.43-3.34-15.14-.68a11.92,11.92,0,0,0-6,12.31c1,5.68,6.35,9.41,11.94,9.35,1.08,0,2.6-.32,3.18-1.35s-.46-1.56-1.34-1.55a9,9,0,0,1-8.33-5.61,9.41,9.41,0,0,1,1.9-10.27,9,9,0,0,1,1.67-1.25,5.16,5.16,0,0,1,2-.64,8,8,0,0,1,4.74,1,9.58,9.58,0,0,1,4.69,9.27,9.14,9.14,0,0,1-2.42,5.32,8.13,8.13,0,0,1-2.11,1.55,5,5,0,0,1-2.18.58c-1.08,0-2.58.3-3.18,1.35S131.36,142.21,132.24,142.18Z"/><circle class="cls-2" cx="132.91" cy="130.37" r="4.75" transform="translate(-53.11 137.83) rotate(-46.74)"/><path class="cls-1" d="M52.88,128.8h63.61c1,0,2.64-.86,2.64-2V71.05c0-2.48.18-4.91-1.77-6.81s-4.45-1.81-6.93-1.81H47.08c-5.14,0-10.27,0-15.41,0a7.61,7.61,0,0,0-5.62,2.47c-1.75,1.94-1.56,4.29-1.56,6.69v55.47c0,1.28,1.15,1.74,2.27,1.74h3.06c1.09,0,2.54-.85,2.63-2S31.21,125,30.18,125H27.12l2.28,1.74V69.33A4.41,4.41,0,0,1,29.75,67c.67-1.14,2.51-.79,3.75-.79H96.13c5.21,0,10.45-.15,15.66,0,3.23.1,2.43,4.86,2.43,7v53.88l2.64-2H53.24a2.7,2.7,0,0,0-2.64,2c-.1,1.29,1.24,1.74,2.28,1.74Z"/><path class="cls-2" d="M158,94.33v3.89a3.73,3.73,0,0,1-3.53,3.89,3.07,3.07,0,0,1-1.2-.25V90.69a3.26,3.26,0,0,1,1.2-.25A3.73,3.73,0,0,1,158,94.33Z"/><path class="cls-1" d="M155,87.73c-.5-2.63-1-5.27-1.46-7.9a8.73,8.73,0,0,0-2.05-4.6c-2.21-2.29-5.53-2.06-8.46-2l-10.74.17c-1.5,0-3,0-4.51,0-1.93.1-5.06.61-5.51,2.92a26.71,26.71,0,0,0,0,5v8.16c0,2.09,0,4.18,0,6.27,0,1.63-.24,4.12,1.84,4.53a18.31,18.31,0,0,0,3.31.06h16.14c3.51,0,8,.65,11.13-1.26,1-.64,2.09-1.73,2-3-.27-2.78-1.05-5.59-1.56-8.33-.28-1.49-5.14-.34-4.83,1.29q.69,3.75,1.41,7.49a5.37,5.37,0,0,0,.15.8c.09.3,0-.12,0-.11,0,.2-.26.89-.35.82s.84-.15,0-.22c-.43,0-.87,0-1.29,0H127.86a4.87,4.87,0,0,0-1.08,0c-.31.09.47.11.51,0a7.51,7.51,0,0,0-.27-1.15,42,42,0,0,1,0-4.89V78.1c0-.67,0-1.34,0-2a4.51,4.51,0,0,0,.06-.6c-.24-.93.06-.11,0-.15.17.45-2.28.49-1.24.64.35,0,1.59,0,2.23,0h1.66c3.19,0,6.37-.09,9.56-.15,2.26,0,5.5-.63,7.33,1a7.24,7.24,0,0,1,2,4.32c.49,2.64,1,5.27,1.46,7.9C150.41,90.51,155.26,89.36,155,87.73Z"/><path class="cls-1" d="M20,145.13H151c6,0,12,0,18.05,0h.26c1.1,0,2.62-.3,3.16-1.41s-.42-1.8-1.41-1.8H21.75c-1.11,0-2.62.3-3.16,1.42s.42,1.79,1.41,1.79Z"/><path class="cls-3" d="M81.91,39.87v-.09A1.81,1.81,0,0,0,80.1,38H72.93c-.29-2.39-.76-4-1.4-4h-4.8A11,11,0,0,0,55.9,43.15a39.72,39.72,0,0,0-5.42,1.53,41,41,0,0,0-6.59,3.06c-1,.61-2.08,1.26-3.07,2s-2,1.44-2.88,2.22a41.07,41.07,0,0,0-5.13,5.17,72.52,72.52,0,0,0-5.15,8c-.05.09.91-.82.86-.73,1.88.2,4-.48,6.07,0,.24-.38.48-.75.73-1.12.59-.86,1.22-1.7,1.88-2.52a36.59,36.59,0,0,1,4.39-4.5c.8-.68,1.62-1.33,2.47-2s1.74-1.18,2.64-1.72,1.83-1,2.78-1.49,1.91-.88,2.89-1.25a37.57,37.57,0,0,1,4-1.25,11,11,0,0,0,10.33,7.27h4.8c.64,0,1.11-1.65,1.4-4H80.1A1.81,1.81,0,0,0,81.91,50v-.09a1.81,1.81,0,0,0-1.81-1.81H73.22c.09-2.08.09-4.32,0-6.4H80.1A1.81,1.81,0,0,0,81.91,39.87Z"/></g></svg>