<svg xmlns="http://www.w3.org/2000/svg" viewBox="0 0 528.74 528.74"><defs><style>.cls-1{fill:#e94e1b;}.cls-2{fill:#fff;}</style></defs><g id="Layer_1" data-name="Layer 1"><circle class="cls-1" cx="264.6" cy="263.49" r="262.99"/><path class="cls-2" d="M211.08,387.16l-3,1.22,3.48.76-13-31.94-10.89-26.81-5.52-13.59-1.35,2.06,3-1.22c.65-.27,1.69-1.23,1.35-2.06l-1.51-3.72c-.57-1.4-2.33-1.22-3.48-.76l-31,12.63-4.32,1.75,3.37,1.68c3.68-11.17,1.37-23.56-4.4-33.61-4.52-7.86-11.86-15-20.85-17.29-8.45-2.18-17.51.37-23,7.36-6.07,7.77-6.93,18.49-4.9,27.85,2.5,11.54,9.68,22.89,20.35,28.44l.79-2.79-2.35,1c-.65.26-1.69,1.22-1.35,2.05l1.51,3.72c.57,1.4,2.34,1.23,3.48.76l3-1.22-3.47-.76,9.61,23.65,10.23,25.19,5,12.2a2.06,2.06,0,0,0,2.2,1.1h0l-2.2-1.1L146.43,415l1.35-2-3,1.22c-.65.27-1.69,1.23-1.35,2.06l1.51,3.71c.57,1.4,2.33,1.23,3.48.76l22.45-9.13L206.6,397l8.12-3.3c.65-.26,1.69-1.23,1.35-2.05l-1.51-3.72c-.45-1.12-1.81-1.27-2.85-1-.81.21-2.43,1.17-2,2.28l1.51,3.72,1.35-2.05L190.14,400l-35.73,14.54-8.12,3.3,3.48.76-1.51-3.72L146.91,417l3-1.23c.65-.26,1.69-1.22,1.35-2.05l-4.59-11.3a2,2,0,0,0-2.19-1.1h0l2.19,1.1-7.8-19.19-13.33-32.81-3.67-9c-.56-1.39-2.33-1.22-3.47-.76l-3,1.23,3.48.76-1.51-3.72L116,340.89l2.35-1c.91-.37,2.19-2.06.8-2.79-8.72-4.54-14.87-13.07-17.94-22.27-2.84-8.47-3.39-18.42.75-26.58a17.42,17.42,0,0,1,7.3-7.74,14.13,14.13,0,0,1,4.45-1.45,16.23,16.23,0,0,1,4.87.07c8,1.23,14.63,7.23,19,13.66,6.51,9.54,9.69,22.58,6,33.79-.69,2.11,2,2.22,3.37,1.67l31-12.62,4.32-1.75-3.48-.76,1.51,3.72,1.35-2.06-3,1.23c-.65.26-1.69,1.22-1.35,2.05l12.33,30.35L201,376.21l5.78,14.22c.56,1.4,2.33,1.23,3.48.76l3-1.22c.92-.37,1.8-1.51,1.15-2.47S212,386.78,211.08,387.16Z"/><path class="cls-2" d="M223.41,234.53,211,212.39c-.19-.35-.37-.71-.58-1-1.44-2.24-4.48-1.57-6.6-.88l2.65.48.12-.07c.63-.35.79-.82,0-.92a6.91,6.91,0,0,0-3.16.66l-.27.11,3.54,0a3.52,3.52,0,0,0,1.2-3.9c-.24-1-3.75.35-4.25.63l0,0,4.25-.63a14.77,14.77,0,0,0-1.24-2.32L204,200.07l-2.21-3.94a4.32,4.32,0,0,0-3-2.51l-.16.91h0c.76-.43.68-.94-.26-.94a11.68,11.68,0,0,0-4.82,1l3.79-.4,0-.07-.58.66a3.88,3.88,0,0,0,2-3.64c0-1-3.86.42-4.25.64h0l4.25-.63a12.93,12.93,0,0,0-1.65-3.33l-3-5.29c-.66-1.17-1.28-2.38-2-3.53-1.64-2.69-5.35-2-7.76-.79l3.79-.4c-5.2-9.75-10.85-19.29-16.27-28.93-.73-1.3-1.42-2.64-2.2-3.9l-.58.66a3.57,3.57,0,0,0,1.34-5.2l-2.89-5.14-2.79-5a5.17,5.17,0,0,0-1-1.38c-1.43-1.3-3.66-.94-5.35-.48l2,.68.17-.1c.49-.28.85-.69.16-.9a5.26,5.26,0,0,0-2.81.42c-.35.11-.69.26-1,.4l3.54,0a3.43,3.43,0,0,0,1.21-1.51,3.1,3.1,0,0,0,.1-2.41c-.36-1-3.69.33-4.25.64h0l4.25-.64a48.94,48.94,0,0,0-2.77-5c-1-1.77-2-3.55-3-5.31a12.74,12.74,0,0,0-2.63-3.36c-1.71-1.52-3.92-2.26-6-3.08-5-1.93-9.95-3.8-14.89-5.79-2.79-1.12-5.56-2.27-8.31-3.49-1.37-.6-2.71-1.25-4.07-1.87a5.25,5.25,0,0,0-4.57.61l4.24-.64-3-5.25-.58.65c.78-.44,2.29-1,2.62-1.9.23-.65-.3-1.29-.6-1.83l-3.51-6.23c-1.08-1.92-2-3.76-4.48-4s-4.9.86-7.08,2.09l-12,6.74c-1.47.83-3.25,1.59-4,3.23-.92,2.14.4,3.91,1.41,5.69,1.22,2.18,2.39,4.42,3.68,6.56,1.6,2.62,5.76-.14,7.73-1.25l-4.24.64,2.95,5.25.24-.42c-.57.57-.41,2.06-.5,2.84-.15,1.29-.31,2.58-.49,3.86-.35,2.59-.75,5.17-1.18,7.74-.85,5.1-1.81,10.17-2.71,15.25-.41,2.33-1,4.71-.55,7.08a12.09,12.09,0,0,0,1.44,3.79c.9,1.63,1.83,3.25,2.74,4.87A52.47,52.47,0,0,0,100.9,158l.59-.66h0s-.75.46-.58.66a3.78,3.78,0,0,0,2.71,1.41,7.11,7.11,0,0,0,1.13,0c.43,0,1.18-.16.38,0a14.9,14.9,0,0,0,2.55-.65l-3-.24a3,3,0,0,0-.39.31c-.71.63.42.71.85.69a7.12,7.12,0,0,0,3.15-.9l.18-.1-4,.22a3.31,3.31,0,0,0-.92,4c.18.37.4.73.61,1.08l3.1,5.52c.83,1.49,1.64,3,2.5,4.45,1.63,2.8,5.34,2.14,7.84.92l-3.79.4c5.33,9.6,10.76,19.13,16.14,28.7l2.3,4.09c.55,1,3.59-.21,4.25-.63h0l-4.25.63,0,0,.58-.66c-1.82,1.16-2.57,3-1.49,4.92.72,1.31,1.46,2.6,2.19,3.91l2.83,5a11.8,11.8,0,0,0,1.91,2.94l.45-.81h0c-.19.1-.88.54-.45.81,2.15,1.33,4.74.77,6.94-.24l-3.78.4,0,.08.59-.66a5.34,5.34,0,0,0-1.8,1.89c-.35.57,1.18.46,1.31.45a7.59,7.59,0,0,0,2.9-.89h0l-4.21.44a4.11,4.11,0,0,0,.64,3.67l2.2,3.92,2.47,4.38a15,15,0,0,0,1.33,2.25l.58-.66,0,0c-.31.17-.77.47-.45.82,1.73,1.86,4.38,1.43,6.57.65l-3-.24-.23.17c-.78.59.5.71.85.69a7.16,7.16,0,0,0,3.16-.9l.06,0-4,.21a3.24,3.24,0,0,0-.74,4.31l1.84,3.29,6.2,11c1.51,2.69,3,5.38,4.53,8.06,3,5.24,9.45,5,14.24,2.43,4.34-2.36,8.61-4.85,12.91-7.27l22.31-12.56,7.13-4c2.73-1.53,5.07-3.47,5.46-6.83a7.42,7.42,0,0,0-.88-4.35c-.58-1.1-5.16.67-4.83,1.29a6.92,6.92,0,0,1-2.74,9.49l-5.64,3.17-20.76,11.68-15.84,8.92c-.32.18-.64.38-1,.53,0,0,.43,0,.14-.08s-.54,0-.79-.06a6.14,6.14,0,0,1-2.16-.77,7,7,0,0,1-2.57-2.57c-1.16-2-2.26-4-3.39-6l-6.07-10.81c-1.18-2.09-2.48-4.14-3.54-6.29a2.44,2.44,0,0,1,.52-3c.69-.63-.41-.71-.85-.69a7.25,7.25,0,0,0-3.15.9l-.07,0,4-.21.23-.18c.52-.39,0-.63-.38-.68a6,6,0,0,0-2.61.44c2.27-.8,1.58.09.51-.55a4.12,4.12,0,0,1-.89-.78l-.45.82,0,0s.75-.46.58-.66a13.7,13.7,0,0,1-1.24-2.09L148.06,232l-2.22-3.94c-.63-1.11-1.29-2.11-.83-3.47.38-1.12-3.85.23-4.21.44h0l4.21-.44a2.74,2.74,0,0,1,.71-1c.08,0,.71-.42.58-.66l0-.07c-.48-.91-3.19.12-3.79.4,1.87-.85,2-.07,1-.45a4.29,4.29,0,0,1-.68-.42l-.45.81h0c.27-.15.8-.48.45-.81a10.75,10.75,0,0,1-1.65-2.64l-2.59-4.59-2.22-3.95c-.67-1.2-1.38-3,.12-4,.07,0,.71-.42.58-.66l0,0c-.54-1-3.59.21-4.24.63h0l4.25-.63-16.26-28.92c-.72-1.29-1.46-2.58-2.18-3.87-.49-.9-3.17.1-3.78.4,1.79-.87,1.82,0,.87-.53a2.52,2.52,0,0,1-.83-.69,2.65,2.65,0,0,1-.26-.42c-.24-.37-.44-.78-.66-1.16l-2.56-4.56L109,162.47c-.78-1.37-1.59-2.91-.17-4.26.67-.64-.39-.71-.85-.69a7.29,7.29,0,0,0-3.16.9l-.17.1,4-.21A2.37,2.37,0,0,1,109,158c.53-.39,0-.64-.38-.69a6.47,6.47,0,0,0-2.61.44c-.34.11-.18.08.48-.07.82-.15.83-.16,0,0l.68-.12c-.45,0-.55,0-.3,0s-.38-.17-.41-.18a3,3,0,0,1-.79-.66l-.58.66h0s.74-.45.58-.66a40.94,40.94,0,0,1-2.48-4.32l-3.18-5.65a18,18,0,0,1-1-1.93,12.25,12.25,0,0,1-.51-6.35c.77-5,1.8-10,2.67-15,1-5.7,1.89-11.41,2.47-17.17l-.24.43h0a.47.47,0,0,0,.24-.42l-3-5.26c-.57-1-3.57.25-4.25.64l-1.1.62-.75.42c-.4.23-.71.18.37-.17l2.81-.42c-.49,0-.68-.68-.88-1l-1.3-2.31-2.86-5.1c-.93-1.64-1.6-3.85.31-5.15.73-.49,1.56-.88,2.33-1.31l10.33-5.81,1.76-1c.15-.09.63-.25.73-.41l-.78.22c-.88.13-1,.22-.45.28.15.08.33.11.48.18a3.86,3.86,0,0,1,.83.55,3.8,3.8,0,0,1,.67.88c.31.5.58,1,.86,1.54l3.35,6c.29.51.59,1,.86,1.53s.25.44-.15.73-.85.47-1.26.7c-.07,0-.71.43-.58.66l3,5.26c.56,1,3.56-.25,4.24-.64l0,0-4.12.79c9.09,4.34,18.55,7.79,27.92,11.44a19,19,0,0,1,5.67,2.88,11.56,11.56,0,0,1,2.5,3.16c.93,1.62,1.83,3.25,2.74,4.88a52.62,52.62,0,0,1,3,5.45c.42,1,3.65-.3,4.25-.64h0l-4.24.64a2.89,2.89,0,0,1,.13,1.67c-.1.39-.57.84-.55,1.22l.24-.42a7.57,7.57,0,0,1-.65.6c-.6.51.15.68.6.7a7.36,7.36,0,0,0,2.95-.68l-.08,0L157,129l-.17.09c-.41.23-.8.56-.3.86s1.8,0,2.31-.18c-1.17.32-.79,0-.23.28a2.56,2.56,0,0,1,.87.69c.12.15.17.28.27.42.25.41.46.83.69,1.25l2.65,4.69,2.45,4.37c.69,1.24,1.51,3.11,0,4.11-.05,0-.72.44-.58.66,2.22,3.59,4.16,7.38,6.22,11.06l10.05,17.87c.74,1.3,1.5,2.59,2.2,3.91.48.9,3.19-.11,3.78-.4-1.68.83-1.84,0-.87.52a2.5,2.5,0,0,1,.68.53,3.22,3.22,0,0,1,.38.53c.21.33.38.68.57,1l2.31,4.11,2.47,4.39a9.89,9.89,0,0,1,1.27,2.64c.22,1,3.77-.36,4.25-.63h0l-4.25.64a2.53,2.53,0,0,1-.85,2.31c-.06.05-.71.43-.58.66l0,.08c.52.9,3.15-.12,3.79-.41-1.18.25-1.55.36-1.09.36l-.25-.94h0c-.44.25-.91.75-.17.91,1.3.29,1.77,1.37,2.35,2.41l2.23,4,2.33,4.14a14.06,14.06,0,0,1,1.19,2.23c.35,1,3.69-.32,4.25-.63l0,0-4.25.63a2.78,2.78,0,0,1-.71,3.06c-.62.51.16.69.59.71a7.41,7.41,0,0,0,2.95-.69l.27-.1-3.2-.26-.13.07c-.49.28-.84.68-.16.9a5.26,5.26,0,0,0,2.81-.42c-1.92.63-1.21,0-.38.63a2.21,2.21,0,0,1,.52.61,1.57,1.57,0,0,1,.14.25c.29.47.54,1,.81,1.43l3.06,5.44,7.3,13,1.72,3.07C219.2,236.92,223.74,235.11,223.41,234.53Z"/><path class="cls-2" d="M277.49,204.46a2.61,2.61,0,0,0-1-1.26l-2,3.28c2.61-.25,6.27-.32,6.94-3.54a5.8,5.8,0,0,0,.09-1.25l.09-5.26.33-22.12.45-29,.4-26.07.13-8.72c0-1.36.17-2.79.06-4.15a1.21,1.21,0,0,1,0-.19l-2.65,2h0c1.36-.15,2.75-1,2.61-2.49l-.37-3.73a13.16,13.16,0,0,0-.15-1.54,2.62,2.62,0,0,0-2.9-1.82c-.81,0-1.63.16-2.44.24L262,100.31l-36.27,3.54c-1.12.11-2.24.18-3.36.33a3.69,3.69,0,0,0-3,1.89,4.54,4.54,0,0,0-.05,2.26l.42,4.35c.09.91,1.5,1.29,2.22,1.2h0l-2.22-1.2L221.9,123l5.17,24.33,6.06,28.55,4.88,23,1.35,6.36c.1.45.18.9.29,1.34.52,2.11,2.31,3,4.4,2.86.84,0,1.69-.17,2.53-.25l-1.84-2.62c-1.29,1.26-.47,4.24-.31,5.83l.69,7.11a2.51,2.51,0,0,0,1,2.17,3.56,3.56,0,0,0,2.42.42c1.5-.12,3-.29,4.5-.44l15.18-1.48,5.75-.56c1.86-.18,4.56-.42,4.7-2.83a14.34,14.34,0,0,0-.2-2.16l-.39-4-.6-6.17c-.12-1.21-2-1.32-2.88-1.09a2.31,2.31,0,0,0-1.95,2.38l.57,5.93.39,4,.14,1.38a2.85,2.85,0,0,0,0,.41c0,.2-.11.15-.08,0l.42-.93-.2.24.94-.73-.3.12,1.28-.35-24,2.34-2.44.24-.69.07c-.27,0-.36-.08.05,0l1,.39-.25-.2.57.79a8.16,8.16,0,0,1-.28-2l-.4-4.13-.4-4.1-.13-1.38c0-.13,0-.28,0-.4s.12-.1.09,0l-.41.93.23-.23c1.37-1.33-.5-2.74-1.84-2.61-.83.08-1.68.11-2.5.24-.22,0,.18.06.2.12a1.92,1.92,0,0,1-.16-.42.13.13,0,0,1,0-.06c-.11-.35-.16-.72-.24-1.08L243,198.5l-4.66-21.93-5.94-28-5.28-24.85-1.74-8.2c-.28-1.31-.47-2.68-.84-4a1.16,1.16,0,0,1,0-.18c-.19-.89-1.43-1.3-2.22-1.2h0l2.22,1.2-.26-2.66-.17-1.79c0-.2,0-.41-.06-.61s.09-.3.06-.11l-.41.93.19-.24-.94.73.3-.11-1.29.34L241.38,106l30.67-3,5.18-.5,1.42-.14c.29,0,.74.08.2,0l-1-.39.24.2-.57-.78a10.81,10.81,0,0,1,.36,2.85l.28,2.78,2.6-2.49h0c-1,.1-2.63.76-2.65,2l-.15,10.17-.37,24.2-.44,28.72-.37,23.75-.1,7,0,1.81c0,.14,0,.27,0,.4v.07c.05.88.13-.27.79-.11a9.58,9.58,0,0,0-2.53.25c-1.33.13-3.94,2-2,3.28l.26.18-.56-.79.13.29a2.33,2.33,0,0,0,2.88,1.09C276.37,206.62,278,205.58,277.49,204.46Z"/><path class="cls-2" d="M381.72,164.72A9.78,9.78,0,0,0,369,165.9a15.29,15.29,0,0,0-3,4.27c-.46,1-1.51,2.85-.69,3.82l.63-2.06-13.41,11.76-24.23,21.23-8.81,7.72-2.24,2a3.11,3.11,0,0,1-2.25,1.1c-1.95,0-3.2-1.56-4.42-2.86a40,40,0,0,1-3.94-4.5,4.84,4.84,0,0,1-.75-1.53c0-.14.16-.55,0-.28a7.64,7.64,0,0,1,1.41-1.24l5.94-5.21,18.73-16.41,15.38-13.48c2.39-2.1,5-4.1,7.25-6.36l.19-.17-3.79,0h0c.65,1.14,3,.65,3.79,0L377,144.17l33.06-29,7.79-6.83-3,.54,3.64,1.14,2.41.76c.3.09.59.2.89.28s.57.3-.12-.11a.87.87,0,0,1,.11.09c-.62-.41-.23-.26-.06,0l.36.5c.18.25.15.4,0,0,.05.15.13.28.18.43a7.34,7.34,0,0,1,.28,1c0,.2.06.39.09.59.09.66,0-.26,0,.36a15.76,15.76,0,0,1-.51,3.67l-.15.53c0,.13-.25.77-.07.23-.15.44-.3.87-.47,1.3-.38,1-.81,1.9-1.27,2.82-2.93,5.84-6.77,10.72-11,15.71-3.72,4.34-7.66,8.49-11.71,12.52q-3.85,3.82-7.82,7.51c-1.47,1.36-2.95,2.72-4.43,4.06L383,164.19c-.22.2-.72.81-1,.88.39-.09.07-.12-.29-.35a3.25,3.25,0,0,0-3.45.32c-.79.58-1.3,1.72-.3,2.37a6,6,0,0,0,5.35.64c2.06-.68,3.59-2.44,5.16-3.86q4-3.65,8-7.39c4.34-4.13,8.58-8.36,12.62-12.77,5.28-5.75,10.4-11.83,14.33-18.61,1.91-3.29,3.75-7,4.07-10.9a8.06,8.06,0,0,0-1.1-5.26,3.82,3.82,0,0,0-.92-1,4.27,4.27,0,0,0-1.09-.43l-5.09-1.59c-1.57-.49-3.09-1.08-4.62,0-.22.16-.42.37-.63.55L410.46,110l-31.77,27.85q-11.29,9.88-22.58,19.78l-4.53,4,3.8,0h0c-.66-1.15-3-.64-3.8,0-6.85,5.86-13.56,11.89-20.34,17.83l-18.11,15.87-5.83,5.11-3,2.66a13.34,13.34,0,0,0-2.87,2.74c-1.93,3.24,2.8,7.06,4.7,9.1,1.47,1.58,2.86,3,5,3.72a9.78,9.78,0,0,0,6.78-.35,10.11,10.11,0,0,0,2.72-1.84l6.82-6L351.87,189q8.44-7.41,16.91-14.82l.27-.23c.55-.48,1.25-1.33.63-2.07l-.08-.1.22.83a1.42,1.42,0,0,1,.08-.4A1.4,1.4,0,0,0,370,172c.11-.43-.08.23,0,0,.16-.45.36-.89.56-1.32a11.35,11.35,0,0,1,2-2.93,6,6,0,0,1,1.17-1,2,2,0,0,1,1.07-.48c-.56.11.55,0,.16,0a4.65,4.65,0,0,1,.74.07,6.71,6.71,0,0,1,2.35,1.16C379.63,168.57,383.92,166.24,381.72,164.72Z"/><path class="cls-2" d="M430.13,389.38l-29.39,7.69-44.31,11.61-5.86,1.54a34.9,34.9,0,0,0-6.67,2.59c-3,1.5-5.77,3.48-8.71,5.1a31.6,31.6,0,0,1-11.72,4.1,35.22,35.22,0,0,1-18.33-3.19c-3-1.31-5.7-3-8.78-4a28.05,28.05,0,0,0-10.16-1.39,31.7,31.7,0,0,0-10.51,2.29l-5.81,2.4L232,433.77l-.85.35c-.27.11-1.13.5-1,.94l.9,3.9c.17.71,2.31.14,2.61.06L248,435.5l23-5.61,5.27-1.29-2.6-.06,1.42,5.3,2.23-1.35L263,436.37l-22.82,6.18L235,444c-.37.1-2.42.66-2.22,1.35l1.16,4c.21.71,2.27.14,2.61.06l14.34-3.57,22.89-5.71,5.29-1.31-2.6-.06,1.5,5.62,2.22-1.36-14.4,4-22.85,6.29-5.3,1.46c-.35.1-2.47.69-2.23,1.35l1.34,3.77c.25.7,2.23.15,2.6.06l14.35-3.57,22.89-5.71,5.29-1.31-2.61-.06,1.43,5.31,2.23-1.35-14.35,4.05-23,6.49-5.28,1.49c-.36.1-2.46.68-2.23,1.36l1.32,3.94c.18.56,1.61.27,1.95.21l16.58-2.66,26.08-4.18c1.9-.31,3.82-.57,5.71-.92a30.58,30.58,0,0,0,15.89-8.11,49.53,49.53,0,0,0,5.8-7.73,42.12,42.12,0,0,1,7.35-8.36,30.79,30.79,0,0,1,7.52-4.82,25.19,25.19,0,0,1,6.57-2,62.77,62.77,0,0,1,12.13-.45,25,25,0,0,0,6-.4c1.31-.28,2.62-.59,3.92-.94l16.27-4.36,27.38-7.33L424,411.67l8.23-2.2,2.26-.61.58-.15c.89-.27-2,.38-.39.09a14.41,14.41,0,0,0,6.27-3.22,23.88,23.88,0,0,0,5.35-5.73c1.09-1.73,2-4,.67-5.89-1.62-2.29-4.63-3.51-7.22-4.28a18.12,18.12,0,0,0-9.66-.3c-.43.1-2.42.65-2.23,1.35s2.27.14,2.6.06c-.31.08.23,0,.3,0a8,8,0,0,1,.85,0,13.36,13.36,0,0,1,2.19.26,18.9,18.9,0,0,1,4.63,1.52c1.93.94,4.46,2.42,4.38,4.88-.08,2.28-2,4.47-3.44,6a29,29,0,0,1-2.78,2.53c-.38.3-.76.59-1.16.85l-.5.33c-.12.07-.63.45-.29.18-.39.3,0,0,.27-.08s1.84-.37.91-.21c-.32.06-.63.11-.95.19l-.05,0-.4.1-1.9.51-7.43,2-24.35,6.52-27.11,7.27-18.06,4.83-1.73.47-1.78.43-1,.21c-.14,0-.91.14-.41.07s.1,0-.13,0H350c-3.93,0-7.84-.26-11.78.05a43.72,43.72,0,0,0-16,4.24,40.81,40.81,0,0,0-15,13.16c-1.87,2.64-3.39,5.43-5.66,7.78a21.89,21.89,0,0,1-8.39,5.61c-1,.34-2,.52-3,.85-.42.14.9-.15.17-.05s-1.52.24-2.27.36l-23.27,3.73-21.43,3.44-1.18.19,2,.21-1.32-3.95-2.23,1.36,14.35-4,23-6.5,5.28-1.49c.39-.11,2.42-.65,2.23-1.35l-1.43-5.32c-.19-.7-2.28-.14-2.6-.06l-14.34,3.57-22.89,5.71L239,458.48l2.6,0-1.34-3.76L238,456.12l14.41-4,22.84-6.29,5.31-1.46c.39-.11,2.41-.66,2.22-1.36l-1.49-5.62c-.19-.7-2.29-.14-2.61-.06L264.32,441l-22.89,5.7L236.14,448l2.6.06-1.16-4-2.23,1.35,14.32-3.88,22.82-6.18,5.24-1.42c.39-.1,2.41-.65,2.22-1.35l-1.42-5.3c-.19-.71-2.28-.14-2.6-.06l-14.43,3.52-23,5.61-5.28,1.29,2.6.06-.9-3.91-1,.93L268,420.59l8.26-3.41,2.25-.94.5-.2.09,0c-1.76.81-1.22.43-.51.24a22.3,22.3,0,0,1,8.36-.83,27.32,27.32,0,0,1,9.24,2.83,63.72,63.72,0,0,0,9.59,4.16,38.91,38.91,0,0,0,9.38,1.68c10.11.55,19.38-3.3,27.81-8.51l2-1.22.9-.53.42-.24c.53-.3-.13.05.22-.12.94-.46,1.89-.91,2.85-1.33.21-.1.45-.17.65-.29l-.22.1c.3-.11.17-.07-.38.11l.23-.06c1.36-.33,2.7-.71,4-1.07q20.94-5.51,41.87-11l34.41-9,.56-.15c.43-.11,2.42-.65,2.23-1.35S430.45,389.29,430.13,389.38Z"/><path class="cls-2" d="M268.1,372.14l1.22-3c.42-1,1.31-2.46.44-3.47a6.18,6.18,0,0,0-2.32-1.16L263.71,363c-2.07-.85-4.63-1.24-5.19-3.63s.65-4.76,1.5-6.85l11-26.89,3.94-9.66L272,317a19.74,19.74,0,0,0,16.54-.87c5.43-2.94,9.34-8,11.77-13.59,2.54-5.85,4.83-11.82,7.24-17.72l3-7.31a1,1,0,0,0-.7-1.42l-7.62-2.54.71,1.42,3.94-9.11a1.1,1.1,0,0,0-1.14-1.51l-8.33-.13,1.26,1.16.63-17.28c0-.58-.31-.86-.82-1.07l-18.87-7.69c-2.43-1-6.68-3.55-8.46-.12-.72,1.37-1.2,2.93-1.78,4.37l-9.17,22.5q-3.5,8.56-7,17.14c-3.86,9.5-4.75,22.61,4.4,29.48a18.3,18.3,0,0,0,3.87,2.15l-.71-1.41-7.85,19.26-5.25,12.87c-.92,2.25-2,4.5-2.67,6.83-.18.6-.31,1.21-.52,1.8a6.39,6.39,0,0,1-.26.6c-.12.25-.31.25.1.09s.31,0,.07-.08a5.94,5.94,0,0,0-.87-.1,4,4,0,0,1-.48-.2l-6-2.46c-1.45-.59-3.16-1.64-4.76-1.78-3.13-.26-3.79,3-4.7,5.23-.37.92-1,2-.19,2.88a3.09,3.09,0,0,0,1.2.7c1,.42,2,.81,3,1.22l12,4.9,13.6,5.54c2.31.94,4.61,2.08,7,2.85a3.51,3.51,0,0,0,4-1.48c.53-.81-.47-1.42-1.15-1.5a2.66,2.66,0,0,0-2.52,1.15c1-1.51,2.74-.26,1.54-.81-.39-.19-.81-.33-1.21-.5l-4.29-1.74-12.86-5.24-12.43-5.06-3.75-1.53c-.18-.08-.65-.38-.86-.35.07,0-.75-.14,0,.15.43.16,0,.26.22,0a2.13,2.13,0,0,0,.23-.56l1.27-3.1c.05-.15.34-.61.31-.76.13.55-2.69.14-1.66.75a15.55,15.55,0,0,0,2.23.91l3.31,1.35c1.55.63,3.09,1.39,4.68,1.9,2.58.84,5.85.13,6.9-2.59.52-1.35.81-2.78,1.36-4.13l1.25-3.08,4.76-11.69c2.92-7.16,5.9-14.3,8.76-21.49.06-.13.12-.27.17-.41.29-.7-.06-1.15-.7-1.42-11.08-4.72-10.79-19.07-7-28.54,2-4.92,4-9.82,6-14.72L272,246.43l2.57-6.29c0-.11.21-.38.2-.5s-1.93.18-1.58.53a3.34,3.34,0,0,0,.91.37l1.68.68,19.92,8.11.49.2-.82-1.07-.63,17.28A1.2,1.2,0,0,0,296,266.9l8.33.13-1.15-1.51-3.94,9.11a1,1,0,0,0,.7,1.42l7.61,2.54-.7-1.42-6.62,16.22c-2.65,6.51-4.88,13.74-10.34,18.5a14.73,14.73,0,0,1-15.64,2.65,2.63,2.63,0,0,0-3,1.07l-9.67,23.71-4.95,12.13c-1.66,4.08-4.21,10.35,1.3,12.59l7.78,3.17a5.65,5.65,0,0,0,.87.35c.13-.15-.22-.36-.3-.34s-.07.19-.09.22a3.3,3.3,0,0,0-.34.82l-1.43,3.53C263.62,373.77,267.49,373.63,268.1,372.14Z"/><path class="cls-2" d="M322.61,315.29l4-9.42,9.09-21.31,9.87-23.15,6.23-14.6a40.63,40.63,0,0,0,2.6-7.53c1-4.84-.14-9.48-4.44-12.26a19.65,19.65,0,0,0-3.27-1.65l-2.83,3.12,10.57,4.25L379,242.61l28,11.27,21.07,8.48,4.57,1.84c4.42,1.79,6.27,6,5.82,10.6a21.21,21.21,0,0,1-1.37,5.54,1.27,1.27,0,0,0,.88,1.78h0l-.89-1.78-3.56,8.36-8.35,19.56-9.61,22.54-7.37,17.26c-.57,1.36-1.15,2.72-1.73,4.08-.21.47-.41.94-.64,1.4a10.17,10.17,0,0,1-2.15,3,5.89,5.89,0,0,1-1.06.76,3.48,3.48,0,0,1-1.08.4c-1.8.32-3.53-.51-5.17-1.17l-5.43-2.19-19.14-7.7L349,337.49l-17.54-7.06-4-1.62a8.9,8.9,0,0,1-5.67-6.84,12.06,12.06,0,0,1,.83-6.68c1-2.47-3.82-2.31-4.59-.45-1.95,4.69-1.87,10.6,2,14.3a16.84,16.84,0,0,0,5.54,3.18l14.48,5.82,22.62,9.1,21.46,8.64c3.54,1.42,7.08,2.88,10.63,4.27a11.87,11.87,0,0,0,13.54-3,19.75,19.75,0,0,0,3.09-5.4l6-14,9.47-22.21,9.29-21.78,5.29-12.38.25-.59c.36-.86-.09-1.46-.89-1.78h0l.89,1.78c2.58-6.63,2.78-15.23-4.47-18.93-1.29-.66-2.69-1.16-4-1.7l-18.9-7.6-28-11.27-26.22-10.54c-4.36-1.76-8.71-3.77-13.16-5.3l-.19-.08c-1.92-.77-5.63,2-2.83,3.12a10.38,10.38,0,0,1,4.67,3.37,8.56,8.56,0,0,1,1.29,5.93,28.24,28.24,0,0,1-2.48,8.26l-5.78,13.56L332,282.05l-9.21,21.59c-1.56,3.68-3.23,7.32-4.7,11,0,.06,0,.12-.07.17C317,317.3,321.81,317.15,322.61,315.29Z"/><path class="cls-2" d="M424.8,356.11,356,328.45l-9.75-3.93a3,3,0,0,0-2.18.17,2.65,2.65,0,0,0-1.74,1.23c-1.34,3-3,6.87-6,8.63-2.2,1.3-4.62.58-6.85-.27-2-.76-6,2-3,3.22l76.69,30.85A17.77,17.77,0,0,0,410.4,370c7.31-.2,12.5-5.83,15.31-12.1C426.12,357,425.62,356.44,424.8,356.11Z"/><path class="cls-2" d="M345.5,307.82l1.15-2.7,52.2,21-1.15,2.7-52.2-21Zm5.33-12.51,1.15-2.69,52.21,21-1.15,2.7-52.21-21Zm5.34-12.5,1.15-2.7,52.2,21-1.15,2.7-52.2-21Zm5.33-12.51,1.15-2.7,52.21,21-1.15,2.7-52.21-21Zm5.34-12.5,1.15-2.7,52.21,21L419,278.8l-52.2-21Z"/></g></svg>