<svg xmlns="http://www.w3.org/2000/svg" viewBox="0 0 528.74 528.74"><defs><style>.cls-1{fill:#e94e1b;}.cls-2{fill:#fff;}</style></defs><g id="Layer_1" data-name="Layer 1"><circle class="cls-1" cx="264.46" cy="265.83" r="262.99"/><path class="cls-2" d="M305.28,84.66,293,86.73c-.68.11-1.69.47-1.61,1.34.54,5.41.72,10.83,1,16.26.36,6.45.82,12.9,1.23,19.35q1.49,23.5,1.39,47c0,.65,0,1.31,0,2,0,.17.1.81.07,1s-.05.08-.06.12a3.2,3.2,0,0,1-.34.63l-1.4,2.64-5.27,9.92-14.34,27-6,11.27c-1,2-2.2,3.89-3.14,5.9,0,.09-.09.18-.14.27l2.82-.28c-1.78-3.46-3.45-7-5-10.53l-.25.73c4.94-6,9.71-12.38,12.11-19.84s1.7-15-.94-22.16a57.43,57.43,0,0,0-12.28-19.07A102.07,102.07,0,0,0,242.76,145a90.42,90.42,0,0,0-21.37-10.76,2.09,2.09,0,0,0-2.23.78,22.34,22.34,0,0,0-2.41,5.9,81.24,81.24,0,0,0-2.13,9.39A137.3,137.3,0,0,0,212.57,175c.06,8.08.7,16.44,3.34,24.14a37.19,37.19,0,0,0,6.37,11.09,31.9,31.9,0,0,0,8.43,7.27c7.71,4.52,16.9,5.55,25.66,5.94l-.92-.57c1.9,4.68,3.7,9.39,5.51,14.1l.07-.5-12.81,19.16-14.36,21.46-.63.94a22.14,22.14,0,0,0-2.13,3.16c-.51,1.14,1.29,2.91,2.06,3.57a13.27,13.27,0,0,0,6.35,2.77,2.16,2.16,0,0,0,2.23-.79l7.76-11.61L266,250.51l21-31.36,18.59-27.8,9-13.48c.1-.16.22-.31.31-.48l-.76.64c4.56-2.31,9.1-4.66,13.72-6.86l-1.74,0c6.66,5.5,14,10.83,22.67,12.63a36.84,36.84,0,0,0,25.65-4.5c6.71-4,12.52-9.42,17.76-15.12a140.89,140.89,0,0,0,14.46-18.72,88.29,88.29,0,0,0,5.22-9,23.35,23.35,0,0,0,2.43-6.54.63.63,0,0,0-.33-.64A90.56,90.56,0,0,0,391.82,123,101.68,101.68,0,0,0,366,122c-14.68,1.38-30.68,7.38-37.46,21.48-3.46,7.21-4.3,15.36-4.64,23.25l.84-.89c-3.82,1.71-7.68,3.32-11.61,4.76l2.06.35-1.33-13.23-2.12-21-.49-4.85-.26.74c4.47-4.39,9-8.74,13.46-13.11,2.3-2.25,4.61-4.5,6.89-6.78,2.06-2,4-4.19,6.15-6.16,1.11-1,2.23-2,3.35-3a.83.83,0,0,0,.26-.74l-1.8-4.41c-.42-1-2-.51-2.64,0q-4.56,4.11-9.11,8.25L311.88,121l-4,3.6,2.64,0-1.46-14.4-1.92-19c-.2-2-.39-3.94-.59-5.91-.11-1.16-3-.49-2.9.78l1.26,12.44,2.17,21.44.55,5.4c.11,1.14,2.2.35,2.64,0l10.56-9.57,13.85-12.55,4.38-4-2.64,0,1.8,4.42.26-.74c-5.66,5.12-10.93,10.65-16.4,16L311.56,129.1c-.88.87-1.8,1.71-2.65,2.6a1.35,1.35,0,0,0-.51,1.05,7.5,7.5,0,0,0,.1.94L311.35,162l1,9.74c.09.86,1.65.5,2.06.35,3.93-1.44,7.8-3.05,11.62-4.75.32-.15.83-.48.85-.89.29-6.79.9-13.81,3.37-20.21a30.61,30.61,0,0,1,11.52-14.49A48.49,48.49,0,0,1,363,124.21a94.69,94.69,0,0,1,24.43.24,89.18,89.18,0,0,1,24.24,6.38l-.33-.63a20,20,0,0,1-1.86,5.25,76.74,76.74,0,0,1-4.1,7.44,135,135,0,0,1-13.09,17.81,91,91,0,0,1-16.68,15.54c-6.62,4.57-14.84,7.16-22.92,6.18-9.33-1.13-17.32-6.95-24.36-12.77a1.91,1.91,0,0,0-1.74,0c-2.86,1.36-5.7,2.78-8.52,4.21l-4.33,2.2a4.15,4.15,0,0,0-1.84,1.4l-.68,1-4.38,6.54-7.55,11.3-9.73,14.55-10.91,16.31-11.12,16.64-10.24,15.3-8.39,12.56-5.55,8.3c-.79,1.18-1.58,2.37-2.38,3.55l-2,3,2.23-.79c-2.89-.53-6.22-1.81-7.33-4.8l-.08.5q5.66-8.4,11.28-16.83L262,239.33a20.63,20.63,0,0,0,1.71-2.55c.22-.48,0-.8-.17-1.29l-1.69-4.41c-1.16-3-2.32-6-3.53-8.94a1,1,0,0,0-.92-.57c-7.59-.33-15.52-1.09-22.43-4.5-7.1-3.5-12.13-9.65-15.42-16.74a42.1,42.1,0,0,1-2.94-10.86,92.64,92.64,0,0,1-1.11-12.22,138.8,138.8,0,0,1,1.58-24.61,96.45,96.45,0,0,1,2.22-10.79,22.82,22.82,0,0,1,2.57-6.59l-2.23.79A85.09,85.09,0,0,1,238,145a103,103,0,0,1,18.14,14.29c10.21,10.19,19.2,24.56,15.86,39.59-1.83,8.27-7.05,15.35-12.36,21.75-.13.17-.36.49-.25.73,1.58,3.56,3.24,7.07,5,10.53.51,1,2.35.6,2.82-.28l7.69-14.47,14.5-27.28L295.14,179c.88-1.67,2-3.35,2.71-5.1a.43.43,0,0,0,0-.07,4.61,4.61,0,0,0,.1-1.44c0-.78,0-1.57,0-2.35q0-3.71,0-7.41,0-6.52-.19-13c-.18-7.26-.51-14.51-.93-21.75-.38-6.48-.84-13-1.25-19.43-.37-6.11-.43-12.27-1-18.36l-.27-2.75-1.61,1.34L305,86.56c.59-.1,1.53-.38,1.62-1.09S305.78,84.57,305.28,84.66Z"/><path class="cls-2" d="M407.81,131.22l-8.45,4.29c-1.57.8-3.13,1.66-4.74,2.38l-4.29,1.94-8.14,3.65-10.65,4.78-11.87,5.34L348,158.84l-10.15,4.56-7.33,3.29-3.17,1.42c-.34.16-.7.31-1.05.46l2.06.36-.85-2-.83,1.13c1-.42,2-.86,3-1.3l6.51-2.85,9.65-4.23,11.46-5,11.94-5.23,11.14-4.89,8.9-3.89,5.36-2.36c1-.42,2-.8,3-1.19L408.25,133l.79-.31c.48-.18,1.13-.81.72-1.35s-1.41-.34-1.95-.13L399,134.61c-1.65.63-3.33,1.21-4.94,1.92l-4.31,1.88L381.58,142l-10.67,4.68L359,151.89,347.29,157l-10.21,4.47-7.38,3.24c-1.07.47-2.14,1-3.22,1.41l-1,.42c-.34.15-1,.66-.84,1.14l.86,2c.33.78,1.44.63,2.06.36l3-1.33,6.46-2.91,9.59-4.31L358,156.39,369.9,151l11.11-5,8.87-4,5.35-2.4c1-.44,1.92-.92,2.87-1.4l10.18-5.17.76-.39c.45-.23,1.15-.78.72-1.35S408.31,131,407.81,131.22Z"/><path class="cls-2" d="M221.09,139.92l4.27,8.44c.79,1.58,1.65,3.13,2.37,4.74l1.93,4.29,3.67,8.17,4.77,10.64,5.33,11.87,5.24,11.65,4.58,10.2,3.28,7.31c.47,1.06,1,2.11,1.42,3.16l.46,1,.84-1.13-2,.84,2.06.36c-.45-1-.89-2-1.33-3L255.16,212l-4.23-9.64-5-11.46-5.23-11.95-4.87-11.1-3.9-8.9-2.36-5.37c-.43-1-.81-2-1.2-3l-4.05-10.63-.3-.79c-.25-.64-1.13-.63-1.69-.49s-1.45.63-1.21,1.27l3.37,8.85c.63,1.64,1.2,3.33,1.91,4.94l1.88,4.29,3.57,8.16,4.69,10.68,5.2,11.86,5.13,11.71,4.48,10.22,3.25,7.41c.47,1.07.93,2.14,1.4,3.2l.47,1c.34.77,1.42.63,2.06.36l2-.85c.33-.14,1-.65.84-1.13-.45-1-.89-2-1.33-3l-2.9-6.45-4.3-9.58-5.15-11.46-5.34-11.9-5-11.1-4-8.87-2.41-5.38c-.44-1-.92-1.91-1.4-2.87l-5.13-10.14-.39-.79a1.41,1.41,0,0,0-1.69-.49C221.92,138.76,220.78,139.31,221.09,139.92Z"/><path class="cls-2" d="M222,140.49a2.11,2.11,0,0,0,1.9-.85c.31-.59-.27-1.06-.84-1.06a2.11,2.11,0,0,0-1.9.84c-.32.6.27,1.07.84,1.07Z"/><path class="cls-2" d="M117.58,161.37a36.36,36.36,0,0,0-8.75,1.23,23.26,23.26,0,0,0-2.94,1,7.88,7.88,0,0,0-1.93,1.11c-.47.37-1.14,1.14-.84,1.8l3.41-1.66c-1.85-1.2-4,.46-5.4,1.74a26.06,26.06,0,0,0-2.88,3.24,39,39,0,0,0-5.66,11,55.3,55.3,0,0,0-2.74,17.54c0,7.85,1.45,15.59,3.3,23.19a89.18,89.18,0,0,0,6.53,18.29,18.34,18.34,0,0,0,1.1,2.17c.8,1.13,3.15.6,3.62-.62l3.2-8.28a2.33,2.33,0,0,0,.11-.28c-.17.72-2,.74-1,.69l1.71-.09,5.75-.3,4-.21a2.46,2.46,0,0,0,2-1.22l3.6-7.11,1.71-3.39c.46-.91-2,.63-1.12.55.42,0,.84-.1,1.26-.15l9.77-1.23c1.18-.15,3-.14,3.83-1.11a5.61,5.61,0,0,0,.54-1l.86-1.7,2.65-5.23,1.06-2.1.3-.6c.25-.51-.14.24-.38.33l-1,.28c.69-.11,1.42-.1,2.13-.14l4.24-.23,3.59-.2.64,0a2.59,2.59,0,0,0,2.13-1.46l3.37-6.64c.4-.79.86-1.57,1.21-2.39a.16.16,0,0,0,0-.07s1.13-1.25-.14.22l-1.57.55a.65.65,0,0,0,.24,0l1.31.12,7.52.66a2.48,2.48,0,0,0,2.51-1.2l2.56-7.07a1.1,1.1,0,0,0-.09-1.11,102,102,0,0,0-19.92-17,70.18,70.18,0,0,0-24.68-10.93,48.65,48.65,0,0,0-10.76-1c-.87,0-2,.65-2.12,1.6s1,1.35,1.8,1.33H119c.71,0,1.42.06,2.13.12,1.58.13,3.15.35,4.71.63.84.16,1.67.33,2.5.53.06,0,.68.17.35.08l.65.17,1.41.39c1.91.56,3.79,1.23,5.64,2a73.14,73.14,0,0,1,12.29,6.47,127.72,127.72,0,0,1,11.56,8.46,77.3,77.3,0,0,1,9.22,9l-.09-1.12L166.76,198l2.51-1.21-8.73-.76a3.61,3.61,0,0,0-3.42,1.23,9,9,0,0,0-.64,1.18l-2.41,4.74L152.15,207l2-1.22-9.86.54a3.73,3.73,0,0,0-3,1.32,8.14,8.14,0,0,0-.7,1.3l-2.71,5.35-2.11,4.18,2-1.22-11.39,1.43-1.78.22a3.51,3.51,0,0,0-2.84,1.94L119,226.3l-2.51,5,2-1.22-9.56.5c-1.77.1-4-.06-4.94,1.86-.59,1.28-1,2.67-1.53,4L100.69,241l3.62-.62a19.05,19.05,0,0,1-1.06-2.08c-.3-.62-.6-1.25-.92-2-.62-1.36-1.2-2.73-1.75-4.12a84.71,84.71,0,0,1-2.81-8.65c-1-3.54-1.74-7.14-2.46-10.75a77.09,77.09,0,0,1-1.45-11.12,57.76,57.76,0,0,1,1.7-17.86c0-.07.14-.49.06-.24l.12-.41c.09-.31.19-.62.28-.93.18-.56.36-1.11.56-1.66.37-1.05.78-2.08,1.24-3.09s.85-1.83,1.33-2.72c.22-.4.45-.8.68-1.19l.34-.56.07-.11.12-.19a30,30,0,0,1,2.65-3.49c.2-.21.4-.43.61-.64l.28-.28c.06-.06-.38.36-.13.13l.14-.13a11.53,11.53,0,0,1,1-.84l.2-.13c.2-.16-.35.16-.06,0a1.07,1.07,0,0,0,.24-.12s-.89.16-.55.17l-1-.12-.23-.14a2.42,2.42,0,0,0,2.35.05c.53-.26,1.37-1,1.06-1.71.14.32-.17.76-.33,1s-.06,0,0,0,.38-.21,0,0l.33-.17a9.28,9.28,0,0,1,1.22-.54s-.47.17-.15.06l.3-.11.6-.19c.44-.13.88-.25,1.33-.36s1-.22,1.44-.32l.46-.08c.15,0,.24,0,0,0l.89-.13a40.61,40.61,0,0,1,4.11-.32c.87,0,2-.65,2.12-1.6S118.37,161.35,117.58,161.37Z"/><path class="cls-2" d="M182.73,208.47l-3.68,5.89c-.64,1,2.75-.26,1.71-.62-.43-.15-.86-.26-1.29-.39L175.14,212l-3-.91a2.59,2.59,0,0,0-2.73.73L166.1,216l-2.23,2.76-.74.92a2.43,2.43,0,0,0-.2.25c-.15.22-.14-.09.3-.25l1-.27c.19,0,.23,0,.09,0l-.32-.05-1.16-.19-3.54-.56-5.23-.83a2.6,2.6,0,0,0-2.29.84l-5,6.26-1.41,1.75a11.06,11.06,0,0,0-.81,1s0,0-.06.08,1.58-.53,1.57-.53a1.71,1.71,0,0,0-.31,0l-1.46-.12-9.82-.86c-1.37-.12-3-.47-4,.7-.65.74-1.25,1.54-1.86,2.31l-3.69,4.58-1.46,1.8-.41.51c-.25.33-.15,0,.22-.14l1-.27c.28,0,.1,0-.09,0l-.83-.13-2.72-.43-6.33-1-1.46-.24a2.55,2.55,0,0,0-2.28.85l-5.28,8.08-.2.31a1.58,1.58,0,0,0-.15,1.61c.15.45.3.9.46,1.35q.95,2.63,2.06,5.19a90.62,90.62,0,0,0,4.62,9.38,46.52,46.52,0,0,0,12,13.46,54.25,54.25,0,0,0,16.79,8.78,43.48,43.48,0,0,0,18.36,1.92,35.08,35.08,0,0,0,4.55-.86c.7-.18,1.39-.39,2.07-.62l1.32-.49.45-.17c.21-.09-.09,0-.11,0l.41-.15A38.49,38.49,0,0,0,188.66,265a49,49,0,0,0,5.8-16.68,52.92,52.92,0,0,0,0-17.31,70.66,70.66,0,0,0-2.11-8.46,88,88,0,0,0-3.59-9.82c-.73-1.65-1.54-3.25-2.42-4.83-.46-.84-1.93-.68-2.63-.33a1.5,1.5,0,0,0-.9,2.06,75.65,75.65,0,0,1,6.45,16.63,53.84,53.84,0,0,1,1.49,6.75,49,49,0,0,1,.46,7.29A52.64,52.64,0,0,1,189.06,255a47.78,47.78,0,0,1-2.76,7,36.35,36.35,0,0,1-3.74,6.13c-.75,1-1.54,1.95-2.37,2.87-.4.44-.81.87-1.24,1.29l-.34.34,0,0-.84.77a37.2,37.2,0,0,1-3,2.35c-.49.35-1,.69-1.51,1-.05,0-.52.32-.14.09l-.36.22c-.32.18-.63.37-.95.54a36.26,36.26,0,0,1-3.55,1.72l-.81.33-.15.06-.5.18c-.4.14-.8.29-1.19.45s.47-.16,0,0l-.6.21a31.51,31.51,0,0,1-3.55.95l-.87.16c-.33.07.49-.07,0,0l-.48.07c-.65.09-1.29.16-1.94.22-1.25.1-2.51.13-3.77.12-.55,0,.39,0-.16,0l-.5,0-.84-.05c-.66-.05-1.33-.11-2-.19a42.24,42.24,0,0,1-7.41-1.57,50.5,50.5,0,0,1-14.3-7,46.76,46.76,0,0,1-11.33-11,67.13,67.13,0,0,1-7.55-14.66c-.59-1.47-1.13-3-1.63-4.48l-.3,1.13,5.49-8.39-2.29.84,10.58,1.68a6.78,6.78,0,0,0,1.85.16,3.91,3.91,0,0,0,2.65-1.7l3.86-4.79,3.24-4-2.28.84,11.29,1,1.88.17a3.73,3.73,0,0,0,3.25-1.32c1.24-1.51,2.45-3,3.68-4.56l3.51-4.36-2.28.84,9.35,1.49c.39.06.77.14,1.15.17a3.58,3.58,0,0,0,3.15-1.51l3.35-4.15,2.88-3.56-2.73.73,7.37,2.24,1.32.39a3.37,3.37,0,0,0,3.88-1.18c.64-.95,1.22-1.95,1.83-2.92l2.11-3.38c.52-.83-.46-1.59-1.2-1.7A2.53,2.53,0,0,0,182.73,208.47Z"/><path class="cls-2" d="M184.43,210.18a2.16,2.16,0,0,0,2.12-1.6c.1-1-1-1.33-1.81-1.33a2.15,2.15,0,0,0-2.11,1.6c-.1,1,1,1.33,1.8,1.33Z"/><path class="cls-2" d="M328.56,221.87a27.24,27.24,0,0,0-4.85,9.4,40.55,40.55,0,0,0-1.93,13.83,32.12,32.12,0,0,0,1.56,8.75l.6-.64a31,31,0,0,1-4.78,1.65c-1.52.39-3.2.41-5,.75a11.56,11.56,0,0,0-3,.81l-.14.08c-.36.21-.17.12.56-.25a3,3,0,0,0-.65.2c-.55.17-1.11.36-1.66.56A21.94,21.94,0,0,0,305,259.1a23.31,23.31,0,0,0-5.27,5.08,43.78,43.78,0,0,0-4.34,6.61A20.12,20.12,0,0,0,293,277.1c0,.22.05.29.25.37a6.36,6.36,0,0,0,1.38.27l2.71.42,5.81.89a13.2,13.2,0,0,0,2.59.08l6.14-.14,4.57-.11-.75-.13,7,6.39c.17.16.34.34.52.48s.07.07,0,0c.14.25.26.52.38.77l2,4L330.89,301c.41.82.77,1.69,1.24,2.48a27.22,27.22,0,0,0,2.23,2.81c1.08,1.34,2.14,2.69,3.22,4,.14.17.11.21.06.07,0,.13.09.25.14.37l.69,1.86,2.13,5.68.91,2.43a7.57,7.57,0,0,1,.46,1.23,3.44,3.44,0,0,1-.05.71l-.22,2.31-.56,6-.19,2c0,.14,0,.27,0,.4,0-.27,0,0-.08.16l-1.71,5.16c-.15.45-.5,1-.25,1.47s.53.41.91.53l1.43.47c.81.25,1.62.51,2.44.74a25,25,0,0,0,3.9.89,10,10,0,0,0,3.85-.32,32.13,32.13,0,0,0,15-8c.66-.63,1.29-1.29,1.93-1.93l-1.57.67a50.84,50.84,0,0,0,6.79-1.63,30.12,30.12,0,0,0,8.1-4.24,26.47,26.47,0,0,0,4.06-3.47,8.93,8.93,0,0,0,1.45-2.52,42.55,42.55,0,0,0,1.48-4.24c.28-.9.61-1.82.82-2.74a.72.72,0,0,0-.46-.82c-.59-.24-1.28-.36-1.89-.54l-3-.84a10.72,10.72,0,0,0-1.65-.48c.2,0,.18.1,0,0l-.64-.36-4.8-2.73c-1.34-.76-2.66-1.61-4-2.29-.09-.05-.33-.21-.12,0a2.75,2.75,0,0,1-.19-.28l-1-1.53-3.34-4.94c-.76-1.12-1.67-2.23-2.32-3.42a3.21,3.21,0,0,1-.24-.7L365,293l-1.51-5.15a8.07,8.07,0,0,0-.73-1.51l-5.2-9.68L355,272a14.31,14.31,0,0,1-1.08-2,8.27,8.27,0,0,1-.14-1.1l-.33-2.56-.72-5.63-.14-1.06-.13.32,5.85-8.24a15.7,15.7,0,0,0,1.54-2.25l2.36-4.92,1.44-3a8.64,8.64,0,0,0,.65-1.42.22.22,0,0,0-.07-.28,14.94,14.94,0,0,0-5.53-1.55,43.1,43.1,0,0,0-8-.35,30.9,30.9,0,0,0-7.81,1.24,18.57,18.57,0,0,0-4,1.82,27.23,27.23,0,0,0-4.1,3,24.15,24.15,0,0,0-2.21,2.2c-.63.71-1.17,1.5-1.86,2.16a32.17,32.17,0,0,1-4.75,3.72l2.57-.3c-2.84-8.21-2.17-17.64,2.6-25a25.06,25.06,0,0,1,2.48-3.22c.11-.12.21-.32,0-.45l-2.49-1.8c-.48-.35-1.38-.08-1.88.11-.19.07-1.29.58-.84.91l2.49,1.81,0-.44a27.7,27.7,0,0,0-4.89,7.62,29.16,29.16,0,0,0-2.08,13,30.43,30.43,0,0,0,1.63,8.23c.12.34.78.27,1,.24a3.58,3.58,0,0,0,1.56-.53,36.35,36.35,0,0,0,4-3.05,16.17,16.17,0,0,0,1.69-1.62c.56-.69,1.11-1.39,1.72-2s1.2-1.11,1.75-1.71c.42-.45-.19.07-.05,0a3.76,3.76,0,0,0,.62-.45l1.07-.83c.64-.47,1.3-.92,2-1.33.29-.17.59-.34.89-.49l.34-.17c.14-.06.15-.07,0,0l.24-.1.63-.23.15-.05.4-.12.71-.19.43-.1.35-.07a27.89,27.89,0,0,1,3.46-.42,40.34,40.34,0,0,1,7.12.16,15,15,0,0,1,5.68,1.42l-.08-.28a6.65,6.65,0,0,1-.52,1.16l-1.22,2.55-2.57,5.35a2.41,2.41,0,0,0-.25.51c0,.07.18-.24,0,0l-1,1.44-3.67,5.17c-.78,1.1-1.66,2.18-2.36,3.33a1.76,1.76,0,0,0,0,1.2l.35,2.72.76,5.95a5.53,5.53,0,0,0,.12.83,6,6,0,0,0,.49.9L357.09,282l2.63,4.89a10.29,10.29,0,0,1,.87,1.76l1.62,5.51.69,2.35a1.74,1.74,0,0,0,.3.61l6.24,9.21a4.08,4.08,0,0,0,.6.87,6.36,6.36,0,0,0,1.16.67l5.41,3.07,2.35,1.34a8.16,8.16,0,0,0,1.12.62c.56.22,1.19.34,1.77.51l3.12.89,1.67.48-.27-.21a.74.74,0,0,1,.15.34,3.65,3.65,0,0,1-.29,1l-.57,1.9c-.34,1.08-.68,2.15-1.08,3.2a16.9,16.9,0,0,1-1,2.21,6.57,6.57,0,0,1-1.4,1.62,30.34,30.34,0,0,1-6,4.34,23,23,0,0,1-2.54,1.18c-.4.16-.8.3-1.21.44l-.16.05-.22.07-.68.2c-.37.1-.74.2-1.11.28l-.56.14c-.07,0-.3.06,0,0l-.36.08-2.06.4a3.36,3.36,0,0,0-1.9.91l-.66.68c-.49.49-1,1-1.48,1.45a25.93,25.93,0,0,1-9,5.52c-.58.21-1.16.39-1.76.56l-1.15.31-.43.1-.36.09c-.33.09.21,0-.17,0h-.19c.29,0-.06,0-.1,0a11.86,11.86,0,0,1-1.18-.14,55.3,55.3,0,0,1-7.33-2.13l.26.21c-.06-.11-.19-.42-.2-.22a1.69,1.69,0,0,1,.08-.24l.34-1,1-3.09a13.28,13.28,0,0,0,.8-3.06l.55-5.85.28-3a13,13,0,0,0,.17-1.75,2,2,0,0,0-.2-.66l-.82-2.19-2.28-6.1-.83-2.22a2.71,2.71,0,0,0-.36-.77c-1.07-1.39-2.2-2.75-3.3-4.12l-1.73-2.16-.37-.47s.09.19,0,0c-.44-1.08-1.06-2.12-1.59-3.16l-5.7-11.38c-.52-1-1-2.12-1.57-3.14a2.37,2.37,0,0,0-.5-.55l-1.79-1.64-4.63-4.24c-.37-.33-.74-.84-1.27-.89a11.81,11.81,0,0,0-1.33,0c-3.67.09-7.34.15-11,.26-.38,0,0-.05.07,0a1.57,1.57,0,0,0-.49-.07l-2.48-.39-6.12-.94-.82-.13a1.2,1.2,0,0,1-.2,0c-.12,0,.32.09,0,0l.26.36a15.45,15.45,0,0,1,1.24-3.83,38.91,38.91,0,0,1,2.51-4.73,29.3,29.3,0,0,1,7.13-8.38,12.83,12.83,0,0,1,2.55-1.43c.63-.28,1.28-.53,1.94-.75a8,8,0,0,0,2-.74l-1,.43c2.23-.61,4.52-.62,6.75-1.16a39,39,0,0,0,6.72-2.32c.18-.08.69-.36.6-.64a33.63,33.63,0,0,1-1.31-14.61,38.7,38.7,0,0,1,3.65-12.6,20.25,20.25,0,0,1,2.62-4.14c.43-.49-.37-.59-.71-.58A3,3,0,0,0,328.56,221.87Z"/><path class="cls-2" d="M355.37,248.41l-5.2,7.45-2.4,3.46a1,1,0,0,0-.24.69c.06.55.14,1.1.22,1.65l.75,5.84.33,2.56a8.24,8.24,0,0,0,.17,1.31,9,9,0,0,0,.87,1.65l2.41,4.5,5.33,9.94a19.36,19.36,0,0,1,.93,1.74c.53,1.36.84,2.86,1.25,4.25l.82,2.77a12,12,0,0,0,.43,1.48,16.84,16.84,0,0,0,1.55,2.3c1.92,2.83,3.83,5.67,5.75,8.49a5.36,5.36,0,0,0,1.91,1.28l5.08,2.88c1.22.69,2.43,1.4,3.66,2.07a4.63,4.63,0,0,0,1.05.35l2.8.73,1.66.44-.14-.53-2.92,3,2.5-.67-2.37-.59a9.05,9.05,0,0,0-2.89-.57,4.11,4.11,0,0,0-2.66,1.63L373.59,321,372,322.67l2.5-.67-3.28-1.39a2.83,2.83,0,0,0-2.5.67l-5.69,6.2,1.57-.67-8.29,1.24c-.4.06-1.58.32-1.68.84l-.67,3.53,1.69-.84-5.25,1a19.75,19.75,0,0,0-2.29.46,1.63,1.63,0,0,0-1.23,1.06l-.49,1.33-1,2.73,1.29-.76-4.42,1.07,1.57.29,1.68-4.33a5.85,5.85,0,0,0,.47-1.33c.05-.37.07-.76.1-1.14l1-10.47a2.1,2.1,0,0,0,0-.61,7.19,7.19,0,0,0-.44-1.17l-1.87-5-1.9-5.06a8.73,8.73,0,0,0-.42-1.11,3.94,3.94,0,0,0-.56-.73l-3.45-4.34-1.4-1.75a3.76,3.76,0,0,1-.25-.31c.16.24.05.07,0,0-.38-.93-.92-1.83-1.37-2.73l-2.52-5-4.65-9.3a4,4,0,0,0-.88-1.29l-3.6-3.32-3.92-3.62c-.33-.3-.59-.65-1.05-.7a9.3,9.3,0,0,0-1.18,0l-10.55.28-.87,0,.71.58a37.46,37.46,0,0,1,2.71-2.64l3.73-3.18-2.24.71,7,.95a3.26,3.26,0,0,0,3.22-.93l2.47-3.16,2.11-2.7-2.25.71,8.09.93a2.71,2.71,0,0,0,2.36-.88l3.79-7.3-2.05.89,7.08-.45a6.79,6.79,0,0,0,1.42-.16,2.07,2.07,0,0,0,1.5-1.17l1.82-3.66,1.53-3.06-.91.64,8.91-3.09c.3-.1,1.19-.5.84-.92s-1.52,0-1.88.11l-7.39,2.56c-.77.27-2.08.52-2.49,1.28-.64,1.16-1.19,2.38-1.78,3.57l-1.73,3.45,2.05-.88-7.15.44a5.12,5.12,0,0,0-1.89.36,1.88,1.88,0,0,0-1,1.07l-1.94,3.74-1.58,3.05,2.36-.88-7.22-.83c-1.19-.13-2.51-.15-3.33.89l-2.46,3.16-2.15,2.75,2.25-.72-7.32-1a3.38,3.38,0,0,0-2.5.48c-.35.26-.67.57-1,.85l-3.34,2.84c-.82.7-1.54,1.52-2.3,2.3-.48.48.42.58.71.58l10.72-.29,1.56,0-.75-.14,5.61,5.18,2.71,2.49.19.18c-.05-.05-.1-.18,0,0s.23.46.35.69l7.87,15.73c.25.5.46,1,.75,1.5a24.07,24.07,0,0,0,1.89,2.38l3,3.78c.25.3.52.6.74.92.05.07-.08-.2,0,0a2.79,2.79,0,0,0,.14.37l3.14,8.37,1.24,3.3a3,3,0,0,1,0,1.39l-.85,9.36-.13,1.44a2.66,2.66,0,0,1,0,.28c0-.15,0-.1-.06.07-.64,1.31-1.08,2.77-1.61,4.14l-.45,1.15c-.25.65,1.42.33,1.58.29l2.39-.58c.89-.22,2.42-.36,3.12-1a1.92,1.92,0,0,0,.42-.83l.56-1.5.85-2.33-1.69.85,7-1.29c.4-.07,1.58-.31,1.68-.84l.67-3.53-1.69.84,7.45-1.11c.34,0,.69-.09,1-.17a3,3,0,0,0,1.75-1.05l2.89-3.14,2.43-2.65-2.51.67,3.28,1.39a2.83,2.83,0,0,0,2.5-.67l5-5-2.5.67,4.51,1.13a2.94,2.94,0,0,0,2.5-.67l2.92-3.05a.29.29,0,0,0-.14-.53l-3.72-1a10.74,10.74,0,0,0-1.48-.39c.16,0,.22.13,0,0l-.42-.24L373.4,309l-1.53-.86a4.19,4.19,0,0,0-.42-.24c-.05,0-.33-.2-.08,0a3.14,3.14,0,0,1-.38-.57l-.95-1.4-5.28-7.79a6,6,0,0,1-.86-1.38c-.42-1.23-.74-2.49-1.11-3.74l-1.23-4.19a6.18,6.18,0,0,0-.46-1.06l-8.26-15.4a14.27,14.27,0,0,1-.93-1.72,11.18,11.18,0,0,1-.26-2l-1.15-8.92-.09-.69-.13.32,6.77-9.72,1-1.39c.36-.51-.31-.59-.71-.57A2.79,2.79,0,0,0,355.37,248.41Z"/><path class="cls-2" d="M348.47,284.16a15,15,0,0,0,7.42,14.47,2.1,2.1,0,0,0,1.5,0c.31-.08,1.25-.34,1.29-.75a15,15,0,0,0-7.41-14.47,2.41,2.41,0,0,0-1.88.11c-.15.05-1.34.65-.84.91a14.54,14.54,0,0,1,7.26,13.91l2.8-.74a14.55,14.55,0,0,1-7.27-13.92c.07-.54-.85-.42-1.18-.37S348.53,283.65,348.47,284.16Z"/><path class="cls-2" d="M335.76,290.94c-.62,5.62,2.33,11.79,7.41,14.47a2.21,2.21,0,0,0,1.5,0c.32-.09,1.25-.35,1.29-.76a15.07,15.07,0,0,0-7.41-14.47,2.37,2.37,0,0,0-1.88.11c-.15.06-1.33.64-.84.92a14.64,14.64,0,0,1,7.27,13.91l2.79-.75a14.5,14.5,0,0,1-7.26-13.91c.06-.55-.85-.43-1.19-.38S335.81,290.42,335.76,290.94Z"/><path class="cls-2" d="M196.5,311.32A135.85,135.85,0,0,0,177,312.84c-5.56.77-11.11,1.66-16.59,2.93a72.72,72.72,0,0,0-12.24,3.84,29.87,29.87,0,0,0-8.54,5.2,13.53,13.53,0,0,0-4,6.21,15.13,15.13,0,0,0,.08,7.62,34.61,34.61,0,0,0,4,9.2,91.2,91.2,0,0,0,8,11.15c3.75,4.58,7.75,8.95,11.9,13.18a121.67,121.67,0,0,0,12.24,11.13c5.68,4.41,12.65,8.8,20.15,8.3a18.92,18.92,0,0,0,9.26-3.23,28.47,28.47,0,0,0,7.23-7.57,71.57,71.57,0,0,0,6.62-12.47,154.47,154.47,0,0,0,6.14-17.21,80.14,80.14,0,0,0,3.21-15.61,28.24,28.24,0,0,0-1-11.6,15.77,15.77,0,0,0-5.55-7.63c-3.43-2.52-7.64-3.67-11.79-4.31a62.6,62.6,0,0,0-9.67-.65,2.76,2.76,0,0,0-1.93.72c-.42.51.36.57.71.57,5.38,0,11,.44,16.07,2.53a16.38,16.38,0,0,1,7.37,5.72,19.25,19.25,0,0,1,3,9.43,47.24,47.24,0,0,1-1.21,13.3,132.24,132.24,0,0,1-5.07,17.22,116,116,0,0,1-6.17,14.48,44.25,44.25,0,0,1-6.57,9.73,20.48,20.48,0,0,1-3.44,3l-.88.58c-.06,0-.26.15,0,0l-.25.15-.51.27-.43.22-.26.12c-.29.14.21-.09,0,0s-.67.27-1,.39.26-.07-.15,0l-.5.14c-.16,0-.33.07-.49.12.47-.13-.13,0-.25,0l-.46.08-.28,0c-.31,0,.24,0,0,0-.36,0-.72.06-1.08.08h-.79c-.37,0-.75,0-1.12-.08a15.13,15.13,0,0,1-2.05-.36,31.47,31.47,0,0,1-9.61-4.39,82.49,82.49,0,0,1-11.22-8.95c-4.4-4.08-8.55-8.43-12.55-12.89A136.64,136.64,0,0,1,145.87,352a54,54,0,0,1-5.76-9.82c-2-4.69-3.08-10.14-.2-14.71a16.35,16.35,0,0,1,5.57-5.13l.22-.13c-.24.15.06,0,.09-.05l.46-.26c.35-.2.71-.38,1.07-.56l1.12-.55.54-.24c.36-.16-.27.11.1-.05l.33-.14c.85-.36,1.71-.69,2.58-1l1.38-.48.65-.21c-.33.11.11,0,.14,0l.4-.13a108.18,108.18,0,0,1,13.65-3.13c6.15-1.07,12.36-1.93,18.59-2.39,2.82-.21,5.65-.33,8.48-.32a2.76,2.76,0,0,0,1.93-.71C197.62,311.38,196.85,311.32,196.5,311.32Z"/><path class="cls-2" d="M230.7,324.47l-2.46,7.07-5.88,16.88-7.12,20.42-6.18,17.73-2,5.84a21,21,0,0,0-1,2.76s0,.08,0,.12c-.07.2.09.31.25.37,1.9.61,3.82,1.17,5.73,1.72.64.18,2.36-.07,2.62-.83l3.78-10.89,6-17.26,1.39-4-2.62.83,8.77,3-.26-.37L228,378.52l-5.89,17-1.37,3.94c-.07.18.08.32.25.36,1.94.49,3.89.94,5.84,1.37.66.14,2.35,0,2.62-.84l3.65-10.48,5.8-16.71,1.33-3.83-2.61.84,8.76,3-.25-.37-3.52,10.14L237,399.06l-1.28,3.69c-.07.18.08.33.25.37,2,.4,3.95.77,5.93,1.16.66.13,2.33,0,2.61-.84l3.42-9.84,5.48-15.78,1.25-3.6-2.62.83,8.77,3-.26-.37L252,402.06l-1.2,3.45a.3.3,0,0,0,.26.37c2.06.38,4.14.72,6.21,1.05.6.09,2.13-.2,2.36-.88l8.2-23.6,1.15-3.34-2.61.84,8.77,3-.25-.36-7.76,22.24L266.08,408c-.11.32.31.38.51.41,2,.34,4,.61,6,.89.6.08,2.12-.19,2.36-.88l7.4-21.31,1.05-3-2.62.83,8.77,3-.26-.37-6.86,19.8-1,2.85c-.11.32.3.38.51.41,2,.27,4,.52,6,.77.61.07,2.12-.19,2.36-.88l6.54-18.82.92-2.67-2.61.84,8.76,3-.25-.36-6,17.17-.85,2.47c-.11.31.29.38.51.41,2,.23,4.05.47,6.08.68.61.06,2.12-.18,2.36-.88l5.6-16.1.8-2.3-2.62.83,8.77,3-.26-.37-4.93,14.22-.72,2.06c-.1.31.3.39.51.41,2.05.19,4.11.32,6.17.44.62,0,2.11-.16,2.36-.88L326,400.61l.64-1.86-2.61.84,8.76,3-.25-.36-4.27,12.26c-.1.3.3.41.51.41,2.23,0,4.45,0,6.68,0,.51,0,1.83-.27,2-.88l3.55-10.3-2.62.83,3.32,1.13-.25-.37c-1.59,6.49-.53,13.44,1.87,19.59a37.13,37.13,0,0,0,11.17,15.51,23.54,23.54,0,0,0,8.14,4.3c.69.19,2.3-.08,2.62-.83,2.12-5,2.16-10.69,1.14-15.94a40,40,0,0,0-7.32-16.3,33.08,33.08,0,0,0-6.57-6.59l-2.29,1.16a38.88,38.88,0,0,0,18.93-4.24A36.67,36.67,0,0,0,382.58,391a23.37,23.37,0,0,0,3.77-7.61c0-.22-.08-.28-.26-.36-5.93-2.77-13.2-2.21-19.35-.51a41,41,0,0,0-17.85,10.19,28,28,0,0,0-5.81,8.14l2.62-.83-3.28-1.24.26.36,2.8-8a.22.22,0,0,0-.08-.28c-1.61-1.37-3.23-2.73-4.89-4.05-.57-.46-2.55,0-2.8.74l-3.47,10,2.61-.84-8.69-3.28.25.37,4.39-12.51a.22.22,0,0,0-.08-.28c-1.69-1.21-3.38-2.42-5.09-3.61-.6-.42-2.54,0-2.79.75l-4.86,14,2.62-.83L313.9,388l.26.37,4.95-14.14.7-2a.23.23,0,0,0-.07-.28c-1.71-1.16-3.44-2.27-5.18-3.37-.62-.38-2.53,0-2.79.75l-5.29,15.22-.76,2.18,2.62-.84-8.69-3.24.26.36,5.88-16.86.83-2.38a.22.22,0,0,0-.08-.28c-1.73-1.08-3.45-2.19-5.17-3.29-.62-.39-2.53,0-2.8.75l-6.21,17.85-.89,2.56,2.61-.84-8.68-3.25.25.37,6.73-19.3,1-2.78a.23.23,0,0,0-.08-.28q-2.58-1.62-5.22-3.17c-.62-.38-2.52,0-2.79.74l-7,20.24-1,2.89,2.62-.83-8.68-3.25.25.37,7.53-21.62L280,347.6a.22.22,0,0,0-.07-.28c-1.74-1-3.49-2-5.25-3-.64-.36-2.52,0-2.79.75l-7.81,22.36L263,370.65l2.62-.84-8.65-3.25.26.36,8.2-23.66,1.15-3.31a.22.22,0,0,0-.08-.28l-5.28-2.84c-.65-.35-2.52-.05-2.8.75l-8.46,24.21-1.21,3.48,2.61-.84-8.65-3.24.25.37,3.37-9.7,5.38-15.49,1.25-3.59a.22.22,0,0,0-.07-.28c-1.86-.94-3.72-1.85-5.6-2.74-.59-.28-2.38.14-2.62.84l-3.43,9.9-5.48,15.79-1.27,3.65,2.62-.83-8.65-3.29.25.36,3.51-10.09,5.59-16.1,1.29-3.71c.08-.21-.09-.29-.25-.36-1.81-.82-3.65-1.54-5.49-2.28a2.79,2.79,0,0,0-2,.34c-.33.18-.94.61-.33.86,1.83.74,3.68,1.46,5.49,2.28l-.26-.37-3.5,10.09-5.6,16.1-1.29,3.71c-.07.2.09.3.26.37l8.65,3.29c.61.23,2.36-.11,2.61-.84l3.44-9.89,5.48-15.8,1.26-3.65-2.61.83c1.4.67,2.79,1.34,4.18,2,.14.07.3.17.45.23,0,0,.49.15.42.09.62.57.05-.18.1,0s0,.1,0,.13a5.87,5.87,0,0,1-.52,1.49l-2.28,6.57L241.45,358l-1.4,4c-.07.2.09.3.26.36l8.65,3.24c.62.24,2.36-.1,2.62-.83L260,340.59l1.22-3.48-2.79.74,3.66,2,.89.48s.76.3.66.12c0,0,0,.07,0,.08a4.48,4.48,0,0,1-.46,1.33l-2.11,6.08-5.44,15.7-1.31,3.78c-.07.21.09.31.25.37l8.65,3.25c.61.23,2.36-.11,2.61-.83l7.8-22.37,1.13-3.21-2.8.74c1.17.65,2.33,1.32,3.49,2,.49.28,1,.56,1.46.85s.18-.27.2,0a4.12,4.12,0,0,1-.41,1.16l-1.9,5.47-5,14.45-1.24,3.55c-.07.2.09.3.26.37l8.68,3.24c.62.23,2.36-.11,2.61-.84l7.05-20.23,1-2.9-2.79.75,2.88,1.74,1.46.89c.06,0,.84.51.79.29,0,.2-.27.76-.33.94l-1.71,4.91L283.88,375l-1.1,3.15c-.07.2.09.3.26.36l8.68,3.25c.62.24,2.36-.1,2.62-.83l6.21-17.85.89-2.56-2.79.75,2.6,1.66,1.28.82a4.13,4.13,0,0,0,.72.45s.63.35.5.09c.05.1-.22.61-.25.71L302,369.16l-4,11.5-1,2.85c-.07.2.09.31.25.37l8.68,3.24c.62.23,2.37-.11,2.62-.83l5.29-15.22.75-2.18-2.79.75,2.34,1.49a19.46,19.46,0,0,0,2.28,1.5c.51.23.52,0,.32.55l-1.18,3.39-3.44,9.82-.87,2.49c-.07.2.09.3.25.36l8.7,3.25c.61.23,2.36-.11,2.61-.84l4.86-14-2.8.74,3.54,2.5.78.56a2,2,0,0,0,.39.28c-.08,0,.39.14.31,0,0,0-.06.13-.05.16a3.63,3.63,0,0,1-.31.87l-.54,1.54-2.77,7.89-.72,2c-.07.21.09.31.26.37l8.69,3.28c.62.24,2.36-.11,2.62-.83l3.47-10-2.79.75c1,.78,1.95,1.58,2.91,2.38l1.3,1.09c-.07-.05.69.59.61.31,0,0,0,.05,0,.07,0,.18-.23.66-.29.83l-.54,1.56-1.94,5.55c-.07.2.09.3.25.37l3.28,1.24a2.66,2.66,0,0,0,2.61-.84A30.06,30.06,0,0,1,357,388.12a33.58,33.58,0,0,1,17.28-5.7,21,21,0,0,1,9.44,1.78l-.25-.37c-2.67,9.89-12.43,17.17-21.91,19.86a30,30,0,0,1-9.42,1.15,3.43,3.43,0,0,0-1.77.39c-.19.1-.87.5-.51.77,9,6.7,14.58,18.53,14.35,29.71a23.29,23.29,0,0,1-1.75,8.56l2.62-.84c-5.43-1.53-9.95-5.43-13.35-9.8A38.73,38.73,0,0,1,344,415.34a28.26,28.26,0,0,1,.39-10.57c.05-.21-.06-.31-.25-.37l-3.32-1.13c-.62-.21-2.36.1-2.61.84l-3.55,10.3,2.05-.89c-2,.05-4,.08-6.05.05l.51.41,4.27-12.26c.07-.2-.09-.31-.26-.37l-8.76-3c-.63-.21-2.36.09-2.62.83l-4.48,12.93-.65,1.86,2.36-.88c-2.06-.12-4.11-.25-6.17-.44l.51.41,4.94-14.22.71-2.06c.07-.19-.08-.31-.25-.36l-8.77-3c-.62-.21-2.35.1-2.61.84l-5.6,16.09-.8,2.31,2.36-.89c-2-.2-4.06-.44-6.08-.67l.5.41,6-17.18.86-2.46c.07-.2-.09-.31-.26-.37l-8.76-3c-.63-.22-2.36.09-2.61.83l-6.54,18.82-.93,2.67,2.36-.88c-2-.25-4-.5-6-.77l.51.41,6.87-19.8,1-2.85c.07-.19-.08-.31-.25-.36l-8.77-3c-.62-.21-2.35.1-2.61.84l-7.4,21.31-1.05,3,2.36-.88c-2-.28-4-.56-6-.89l.51.41,7.76-22.24,1.09-3.12c.07-.2-.09-.31-.26-.37l-8.77-3c-.63-.22-2.36.09-2.61.83l-8.2,23.6-1.16,3.34,2.36-.88c-1.9-.3-3.81-.61-5.7-1l.25.36,8.47-24.4,1.2-3.46c.07-.19-.08-.3-.25-.36l-8.77-3c-.62-.21-2.35.1-2.61.84l-3.42,9.84-5.48,15.78-1.25,3.6,2.62-.83c-2-.39-4-.76-5.93-1.16l.26.36,3.52-10.14L247.68,376,249,372.3c.07-.2-.09-.31-.26-.37l-8.76-3c-.63-.22-2.36.09-2.61.83l-3.65,10.49L227.88,397l-1.33,3.82,2.61-.83c-1.95-.43-3.9-.88-5.84-1.37l.26.37,3.71-10.69,5.89-16.95,1.37-3.95c.07-.19-.08-.3-.25-.36l-8.76-3c-.63-.21-2.36.1-2.62.84l-3.78,10.88-6,17.27-1.39,4,2.61-.84c-1.91-.55-3.83-1.11-5.73-1.72l.26.36,2.46-7.06,5.89-16.89,7.11-20.42,6.18-17.73,2-5.84a20.83,20.83,0,0,0,1-2.75l0-.13C233.8,323.34,231,323.67,230.7,324.47Z"/><path class="cls-2" d="M190.81,327.85a6.64,6.64,0,0,1,6,4.82,7,7,0,0,1-2,7.2,5.57,5.57,0,0,1-1.24.79,2.16,2.16,0,0,1-.56.18c.25-.06-.28,0-.26,0l-.47,0a6.07,6.07,0,0,1-3.46-1.14,7.07,7.07,0,0,1-2.9-6.68,7,7,0,0,1,2-4,5.3,5.3,0,0,1,1.49-1,2.88,2.88,0,0,1,1.41-.24,3.47,3.47,0,0,0,2.05-.55c.42-.31.4-.73-.2-.74-3.58-.1-7.38,1.53-9,4.89a7.57,7.57,0,0,0,1.51,8.6c2.62,2.58,6.69,2.64,9.89,1.2a8,8,0,0,0,4.91-7.7,7.56,7.56,0,0,0-7.32-7,3.38,3.38,0,0,0-2,.55C190.19,327.41,190.2,327.84,190.81,327.85Z"/></g></svg>