<svg xmlns="http://www.w3.org/2000/svg" viewBox="0 0 528.74 528.74"><defs><style>.cls-1{fill:#e94e1b;}.cls-2,.cls-3,.cls-4{fill:#fff;}.cls-2,.cls-4{fill-rule:evenodd;}.cls-4{stroke:#fff;stroke-miterlimit:10;stroke-width:3px;}</style></defs><g id="Layer_1" data-name="Layer 1"><circle class="cls-1" cx="264.6" cy="264.82" r="262.99"/><path class="cls-2" d="M335.92,277.18a2.24,2.24,0,0,0-1.06.08,2.41,2.41,0,0,1-2.89-1.84,2.44,2.44,0,0,1,1.84-2.9,8.8,8.8,0,0,1,10.61,10.63,2.42,2.42,0,1,1-4.73-1.06,3.72,3.72,0,0,0,0-1.93,109.49,109.49,0,0,1-149.4-.26,3.84,3.84,0,0,0-.18,2.19,2.48,2.48,0,0,1-1.84,2.9,2.36,2.36,0,0,1-2.8-1.84A8.87,8.87,0,0,1,196,272.52a2.43,2.43,0,1,1-1.06,4.74,1.39,1.39,0,0,0-.61-.08,105,105,0,0,0,141.6,0Z"/><path class="cls-3" d="M336.81,275.64a5.31,5.31,0,0,0-1.32,0l-.65.12c.27,0,.35,0,.23,0a1.41,1.41,0,0,1-.64-.83c0-.08,0-1.45.23-1.3s-.88.19-.27.27a2.76,2.76,0,0,0,.57-.06,6.83,6.83,0,0,1,5.3,2.44,7.94,7.94,0,0,1,1.91,5.9,6.47,6.47,0,0,1-.11.87c0-.1-.21.71-.23.68.06.14,1-.19.95-.24s-.29-.25-.36-.33a1.67,1.67,0,0,1-.31-1.32,6.7,6.7,0,0,0,0-2.32c-.16-.75-1.24-.9-1.83-.89a3.89,3.89,0,0,0-2.56,1,106.06,106.06,0,0,1-55.34,27,107.3,107.3,0,0,1-59.84-7.84,108.63,108.63,0,0,1-30-19.89c-1.28-1.19-4.14-.4-4.66,1.25a5.28,5.28,0,0,0-.24,2.16,4,4,0,0,1,.09.84s-.17.68-.2.6l-.09.09,1.13-.34a1.46,1.46,0,0,1-.22-.17,4.4,4.4,0,0,1-.55-1.35,7.74,7.74,0,0,1,1.5-5.92,5.34,5.34,0,0,1,4-2.21c.86,0,1.72,0,2,.94.1.27-.1,1,0,1.15s1.88-.24-.1-.3a4,4,0,0,0-2.65.82c-.41.36-1.05,1.18-.47,1.71a107.46,107.46,0,0,0,55.55,26.7,108.53,108.53,0,0,0,90.25-27.16,1.12,1.12,0,0,0-.53-2,3.8,3.8,0,0,0-3.42.92,101.28,101.28,0,0,1-52.3,25.22,102.74,102.74,0,0,1-56.53-7.19,104.13,104.13,0,0,1-28.56-18.49l-3.12,2.54c2,.06,3.71.09,5.36-1.25A3.69,3.69,0,0,0,200,273c-1.53-3.13-6.65-2.5-9.33-1.57a11.55,11.55,0,0,0-7,6.25c-1,2.49-1.65,6.87,1.25,8.37a5.86,5.86,0,0,0,6.24-1,4.11,4.11,0,0,0,1.43-2.31c.19-1.08-.18-2.05.17-3.15l-4.66,1.25a111.92,111.92,0,0,0,58.46,28.68,113.2,113.2,0,0,0,95.14-28.88l-4.39.11c.36,1.62-.49,3,.8,4.45s3.62,1.57,5.41,1c3.54-1.2,4.15-5,3.24-8.2a9.81,9.81,0,0,0-5.54-6.31c-3-1.29-7.61-1.62-10.22.65a3.69,3.69,0,0,0-1,4.67,3.74,3.74,0,0,0,2.19,1.62,6,6,0,0,0,2.27.16c.18,0,1.15,0,.6-.09a3.46,3.46,0,0,0,3.17-1.39C338.73,276.28,337.73,275.73,336.81,275.64Z"/><path class="cls-4" d="M265,145.53c.08-12.12-.09-24.15-.35-36.27a1.86,1.86,0,0,0-1.84-1.85,1.93,1.93,0,0,0-1.85,1.93c.27,12,.44,24.07.35,36.1a1.74,1.74,0,0,0,1.76,1.85,1.87,1.87,0,0,0,1.93-1.76Z"/><path class="cls-4" d="M323.73,161.34c6.14-10.45,12-21,17.89-31.62a1.8,1.8,0,0,0-.79-2.46,1.76,1.76,0,0,0-2.46.7c-5.79,10.54-11.66,21.08-17.8,31.45a1.89,1.89,0,0,0,.7,2.54,1.8,1.8,0,0,0,2.46-.61Z"/><path class="cls-4" d="M366.78,204.46c10.52-6,20.87-12.12,31.21-18.44a1.85,1.85,0,0,0,.61-2.55,1.93,1.93,0,0,0-2.54-.62c-10.26,6.24-20.6,12.48-31,18.36a1.89,1.89,0,0,0-.71,2.55,1.85,1.85,0,0,0,2.46.7Z"/><path class="cls-4" d="M382.56,263.39c12.1.09,24.11-.09,36.21-.35a1.78,1.78,0,0,0,1.75-1.85,1.85,1.85,0,0,0-1.84-1.84c-12,.26-24,.44-36.12.35a1.84,1.84,0,0,0-1.84,1.76,1.94,1.94,0,0,0,1.84,1.93Z"/><path class="cls-4" d="M366.78,322.32c10.43,6.06,21,11.94,31.48,17.83a1.87,1.87,0,0,0,1.84-3.25c-10.61-5.8-21.05-11.68-31.48-17.83a1.79,1.79,0,0,0-2.46.7,1.86,1.86,0,0,0,.62,2.55Z"/><path class="cls-4" d="M323.73,365.44c6,10.45,12.1,20.81,18.32,31.18a1.85,1.85,0,0,0,3.16-1.94q-9.34-15.4-18.33-31.08a1.75,1.75,0,0,0-2.45-.71,1.88,1.88,0,0,0-.7,2.55Z"/><path class="cls-4" d="M264.9,381.16c-.09,12.12.09,24.15.35,36.27a1.73,1.73,0,0,0,1.84,1.76,1.81,1.81,0,0,0,1.84-1.85c-.26-12-.44-24.06-.35-36.09a1.88,1.88,0,0,0-1.84-1.94,1.91,1.91,0,0,0-1.84,1.85Z"/><path class="cls-4" d="M206.07,365.35c-6.14,10.45-12,21-17.8,31.53a1.86,1.86,0,0,0,.7,2.55,1.89,1.89,0,0,0,2.55-.7c5.78-10.54,11.66-21.08,17.71-31.44a1.85,1.85,0,0,0-3.16-1.94Z"/><path class="cls-4" d="M163,322.23c-10.52,6-20.86,12.12-31.21,18.35a2,2,0,0,0-.62,2.55,1.86,1.86,0,0,0,2.55.62c10.34-6.24,20.6-12.39,31.12-18.27a2,2,0,0,0,.7-2.55,1.87,1.87,0,0,0-2.54-.7Z"/><path class="cls-4" d="M147.24,263.3c-12-.09-24.11.09-36.12.35a1.85,1.85,0,1,0,.09,3.69c12-.26,24-.44,36-.35a1.8,1.8,0,0,0,1.84-1.84,1.86,1.86,0,0,0-1.84-1.85Z"/><path class="cls-4" d="M163,204.37c-10.34-6.15-20.86-12-31.48-17.83a1.76,1.76,0,0,0-2.45.71,1.87,1.87,0,0,0,.7,2.54c10.52,5.8,21,11.68,31.39,17.74a1.84,1.84,0,0,0,2.54-.61,1.88,1.88,0,0,0-.7-2.55Z"/><path class="cls-4" d="M206.16,161.25c-6-10.54-12.19-20.9-18.42-31.18a2,2,0,0,0-2.54-.7,1.86,1.86,0,0,0-.61,2.55c6.22,10.36,12.36,20.63,18.32,31.17a1.89,1.89,0,0,0,2.55.71,2,2,0,0,0,.7-2.55Z"/></g></svg>