<svg xmlns="http://www.w3.org/2000/svg" viewBox="0 0 528.74 528.74"><defs><style>.cls-1{fill:#e94e1b;}.cls-2,.cls-3{fill:#fff;}.cls-3{stroke:#fff;stroke-miterlimit:10;stroke-width:2px;}</style></defs><g id="Layer_1" data-name="Layer 1"><circle class="cls-1" cx="264.03" cy="263.93" r="262.99"/><path class="cls-2" d="M81.08,396.64H457.3c.85,0,2.15-.24,2.53-1.14s-.3-1.43-1.13-1.43H82.48c-.85,0-2.14.23-2.53,1.13s.31,1.44,1.13,1.44Z"/><path class="cls-2" d="M298.31,352.08c-.15,5.79-3.39,11.93-9,14.08s-11.65-.77-15-5.2A16.67,16.67,0,0,1,273,343.25a14,14,0,0,1,6-6.09,10.25,10.25,0,0,1,8-.13c6,2.17,11.35,8.48,11.33,15.05,0,.94,3.86.3,3.86-1,0-6.76-5.54-13.13-11.58-15.54A17.33,17.33,0,0,0,270.88,341a17.64,17.64,0,0,0-1.12,20.08,17,17,0,0,0,18.44,7.1,18,18,0,0,0,14-17.17C302.2,350.14,298.35,350.75,298.31,352.08Z"/><ellipse class="cls-2" cx="389.22" cy="345.64" rx="9.9" ry="10.3"/><path class="cls-2" d="M397.18,345.35a9.31,9.31,0,0,1-5.47,8.52,7.23,7.23,0,0,1-8.52-2.22,9.55,9.55,0,0,1-.68-10.46,8.28,8.28,0,0,1,8.41-4.24c3.94.68,6.21,4.65,6.26,8.4,0,1.8,3.91,2.63,3.88.59a12.31,12.31,0,0,0-7.88-11.28A11.69,11.69,0,0,0,380,338a11.89,11.89,0,0,0-.91,13.51,12.41,12.41,0,0,0,12.79,5.76,11.51,11.51,0,0,0,9.18-11.28C401.09,344.13,397.21,343.29,397.18,345.35Z"/><ellipse class="cls-2" cx="161.42" cy="348.04" rx="9.9" ry="10.3"/><path class="cls-2" d="M169.38,347.75a9.32,9.32,0,0,1-5.47,8.52,7.23,7.23,0,0,1-8.53-2.22,9.53,9.53,0,0,1-.67-10.45,8.27,8.27,0,0,1,8.41-4.25c3.93.69,6.21,4.65,6.26,8.4,0,1.8,3.91,2.63,3.88.59a12.33,12.33,0,0,0-7.88-11.28,11.71,11.71,0,0,0-13.19,3.29,11.9,11.9,0,0,0-.9,13.51,12.4,12.4,0,0,0,12.78,5.76,11.5,11.5,0,0,0,9.19-11.28C173.29,346.54,169.4,345.69,169.38,347.75Z"/><path class="cls-2" d="M428.67,347.4c-.07,16.69-9.95,33.2-25.88,39.19-15.65,5.88-33.32-.77-43.3-13.66-10.67-13.79-11.85-33.43-3.25-48.53A40.1,40.1,0,0,1,373.75,308,35.78,35.78,0,0,1,397,305.73c16.57,3.9,28.78,18.53,31.2,35.14a47.46,47.46,0,0,1,.47,6.53c0,1.16,4.83.35,4.83-1.3C433.43,328,422.23,311,405,304.84c-17.49-6.26-37.91-.14-49.5,14.26a45.4,45.4,0,0,0-3.59,51.14,43.1,43.1,0,0,0,19.17,17.19A43.57,43.57,0,0,0,398.25,390a45,45,0,0,0,34.74-37,49.34,49.34,0,0,0,.51-7C433.5,344.94,428.68,345.74,428.67,347.4Z"/><path class="cls-2" d="M200.24,349.24c-.06,16.72-10,33-25.93,39-15.63,5.88-33.27-.62-43.26-13.54a44.13,44.13,0,0,1-3.22-48.36,39.89,39.89,0,0,1,17.29-16.22,36.39,36.39,0,0,1,23.6-2.41c16.51,3.82,28.65,18.48,31.05,35a44.49,44.49,0,0,1,.47,6.52c0,1.45,4.84.55,4.83-1.29-.07-18.08-11.28-35.21-28.5-41.36-17.62-6.3-37.82-.24-49.5,14.26a45.61,45.61,0,0,0-3.56,51.25,43.11,43.11,0,0,0,19.19,17.27,43.72,43.72,0,0,0,27.17,2.7A45.14,45.14,0,0,0,204.58,355a50.13,50.13,0,0,0,.49-7C205.08,346.51,200.25,347.4,200.24,349.24Z"/><path class="cls-2" d="M284.67,351.74H110.5a2.31,2.31,0,0,1-2.27-2.35h0A2.32,2.32,0,0,1,110.5,347H279.15l-21.74-72.36,6.14,1.31Z"/><path class="cls-2" d="M285.07,351.29H111.44a4.34,4.34,0,0,1-.51,0,1.87,1.87,0,0,1-1.27-.75c-.58-.75-.74-2.73.44-3.06a5.91,5.91,0,0,1,1.33,0H278.75c.26,0,1.51-.24,1.37-.71L278,339.58l-5.19-17.28-6.28-20.9-5.43-18.08-1.79-6a22.38,22.38,0,0,0-.85-2.82s0-.08,0-.12l-1.75.67,4.47,1c.56.12,1.11.22,1.67.35-.34-.08-.13-.23-.14,0a4.61,4.61,0,0,0,.34,1.19l.62,2.24,4.73,17,6.51,23.33,5.91,21.19,2,7.09a22.44,22.44,0,0,0,1,3.44s0,.1,0,.15c.14.53,2.07,0,1.93-.52l-2.12-7.57-5-18-6.12-22-5.26-18.84-1.74-6.27a19,19,0,0,0-.83-3,.42.42,0,0,1,0-.12.24.24,0,0,0-.18-.16l-6.14-1.31c-.31-.07-1.93.08-1.75.67l2.16,7.19,5.19,17.28,6.29,20.9,5.43,18.08,1.79,6a18.33,18.33,0,0,0,.85,2.82.42.42,0,0,1,0,.12l1.37-.71H115c-2,0-4.88-.44-6.56.77a2.73,2.73,0,0,0-.94,3.42,2.76,2.76,0,0,0,2.56,1.42H284.27c.35,0,1.1-.14,1.29-.48S285.39,351.29,285.07,351.29Z"/><path class="cls-2" d="M227.46,348.29H84.5a3,3,0,0,1-.85,0c-.78-.27-.7-1.13-.7-1.75V237.4c0-.22,0-.43,0-.65v-.16c0-.1-1.93-10.56,0-.34.22-.38.09-.47-.37-.26-.47,0-.62.06-.46.06a4.83,4.83,0,0,0,.85,0H225.19a2.84,2.84,0,0,1,.77,0c1.21.43.69,3.66.69,4.53V347c0,.21,0,.42,0,.63a.75.75,0,0,1,0,.15c0,.59-.37.65.32.59-.69.06-2.05.5-2.19,1.32s1.13.88,1.67.83c2-.18,4-1.41,4.07-3.58,0-.74,0-1.49,0-2.23V240.15c0-1.34.38-3.69-.33-4.91-1-1.73-3.44-1.39-5.16-1.39H84.37c-2.38,0-5.25.85-5.28,3.64,0,2.11,0,4.22,0,6.33V347a3.83,3.83,0,0,0,.39,2.26,3.52,3.52,0,0,0,3.14,1.27c5.28.05,10.57,0,15.85,0H226a3.08,3.08,0,0,0,2.55-1.06C229,348.68,228.13,348.29,227.46,348.29Z"/><path class="cls-3" d="M306.69,310.17c21.3-17.2,36.83-46.67,37-47.09a2.21,2.21,0,0,1,3.07-.95,2.4,2.4,0,0,1,.92,3.19c-1,1.83-17.73,33.65-41.14,50.86"/><path class="cls-3" d="M281.91,347.58a2.36,2.36,0,0,1,0-4.71c34.54,0,66.22-60.07,66.53-60.67a2.22,2.22,0,0,1,3.07-.95,2.39,2.39,0,0,1,.91,3.19C351.08,287,319.15,347.58,281.91,347.58Z"/><path class="cls-3" d="M319.1,249.46a14.47,14.47,0,0,1-1.91-.1,1.75,1.75,0,0,1-1.47-2,1.71,1.71,0,0,1,1.89-1.53c.52.06,12.6,1.44,23.43-10.92a1.65,1.65,0,0,1,2.4-.12,1.83,1.83,0,0,1,.11,2.5C334,248.24,323.37,249.46,319.1,249.46Z"/><path class="cls-3" d="M389.92,345.61a2.17,2.17,0,0,1-1.53-.62c-.49-.46-48.36-46.9-48.36-111a2.27,2.27,0,1,1,4.53,0c0,62,46.42,107.12,46.89,107.57a2.42,2.42,0,0,1,.13,3.33A2.18,2.18,0,0,1,389.92,345.61Z"/><path class="cls-3" d="M317.68,245.27a2.28,2.28,0,0,0-2.52,2,2.34,2.34,0,0,0,1.95,2.64,18.1,18.1,0,0,0,2,.1,30.17,30.17,0,0,0,12.13-2.73,1.36,1.36,0,0,0,.71-1.67l-.62-1.91a1.28,1.28,0,0,0-1.76-.78A24,24,0,0,1,317.68,245.27Z"/><path class="cls-2" d="M302.93,325.83a6.54,6.54,0,0,1-1.43,4.08,5.07,5.07,0,0,1-3.31,1.33c-3.07.29-6.39-.32-8.26-3s-1.6-6.24-1.43-9.22c.05-.79.15-1.59.23-2.39l2.33-25.07.72-7.75a1.12,1.12,0,0,0-.84-1.15l-23.65-7.84c-3.08-1-6.26-1.9-9.28-3.06a10.09,10.09,0,0,1-6-5.15c-1.6-3.62-1.68-8-1.49-11.88.56-10.95,1.52-21.91,2.41-32.83.23-2.77.42-5.54.74-8.29a15.88,15.88,0,0,1,1.53-5.32,10.65,10.65,0,0,1,6.61-5.57c4-1.09,7.88.35,11.7,1.38l16.13,4.33q8,2.15,16.09,4.34a159.86,159.86,0,0,1,15.49,4.56c3.31,1.28,4.61,4.24,3.82,7.62a12.33,12.33,0,0,1-2.8,5.34c-.11.11-.24.13.05,0-.25.1-.06.05-.27,0a12.47,12.47,0,0,1-2.7-.56L287,221.23q-3.37-.89-6.74-1.8c-1-.27-3,.09-3.08,1.45l-2.43,34a1.12,1.12,0,0,0,.84,1.16c6.26,1.68,12.53,3.33,18.79,5a77.22,77.22,0,0,1,8.77,2.53,9.82,9.82,0,0,1,4.54,3.63c2.41,3.63,1.55,7.83,1.06,11.82l-4.48,36.14-1.32,10.62c-.24,2,3.7,1.45,3.91-.3l3.51-28.28,2.19-17.62c.49-4,1.36-8.06-.21-11.92a11.56,11.56,0,0,0-4.32-5.32c-2.57-1.7-5.64-2.32-8.56-3.12-7.2-2-14.44-3.87-21.65-5.81l.84,1.16q1.22-17,2.44-34L278,222c11.18,3,22.37,5.95,33.56,8.91,2.63.69,5.25,1.5,7.91,2a6.53,6.53,0,0,0,5.11-.75,11.36,11.36,0,0,0,3.46-4.74,12,12,0,0,0,1.16-6c-.4-4.33-4.07-6.28-7.8-7.45-5.62-1.77-11.31-3.31-17-4.85s-11.39-3.06-17.09-4.59-11.17-3.16-16.8-4.52c-7.69-1.85-16.11,1-19.38,8.62a20.32,20.32,0,0,0-1.44,6.06c-.28,2.89-.52,5.78-.75,8.67-.47,5.87-.87,11.74-1.31,17.62s-1.22,11.67-1,17.48c.11,3.7.5,7.78,2.56,11,2.54,3.94,7.22,5.05,11.4,6.43L288,285l.74.25-.84-1.16-2,22-1.09,11.73c-.46,4.91-.71,10.59,3.43,14,3,2.52,8,2.71,11.65,1.92a8.69,8.69,0,0,0,7-8.23C307,323.55,303.08,324.08,302.93,325.83Z"/><path class="cls-2" d="M267.33,195.55c7.49,1.91,15.75-.49,20.15-7.07a18.92,18.92,0,0,0-.72-21.19c-9.9-13.26-32.43-4.79-33.16,11.07-.39,8.58,5.78,15,13.73,17.19a2.88,2.88,0,0,0,2.73-.73,1,1,0,0,0-.45-1.68c-5.91-1.62-10.86-5.87-11.93-12.12A15.48,15.48,0,0,1,265,165.34,13.52,13.52,0,0,1,281.46,167a17.25,17.25,0,0,1,4.1,17.73,13.31,13.31,0,0,1-6.12,7.5,13.5,13.5,0,0,1-9.83,1,2.89,2.89,0,0,0-2.73.73A1,1,0,0,0,267.33,195.55Z"/></g></svg>