<svg xmlns="http://www.w3.org/2000/svg" viewBox="0 0 528.74 528.74"><defs><style>.cls-1{fill:#e94e1b;}.cls-2,.cls-3{fill:#fff;}.cls-3,.cls-4{stroke:#fff;}.cls-3{stroke-miterlimit:10;stroke-width:2.5px;}.cls-4{fill:none;stroke-linecap:round;stroke-linejoin:round;stroke-width:3px;}</style></defs><g id="Layer_1" data-name="Layer 1"><circle class="cls-1" cx="264.76" cy="263.93" r="262.99"/><path class="cls-2" d="M66.56,367.18H442.78c1.33,0,3.15-.36,3.8-1.7s-.51-2.16-1.7-2.16H68.66c-1.32,0-3.14.37-3.79,1.7s.51,2.16,1.69,2.16Z"/><path class="cls-2" d="M154.45,334.16a26.26,26.26,0,0,0,16.4,25.38,28.55,28.55,0,0,0,31.06-7.06,26.24,26.24,0,0,0,3.83-30.26c-5.35-9.83-16.85-15-27.8-13.25-12.57,2-22.81,12.26-23.49,25.19-.12,2.29,4.77,1.47,4.87-.47.49-9.29,6.39-18.12,15.48-20.91s19,1,24.66,8.57a24,24,0,0,1,.79,27,21.56,21.56,0,0,1-23.53,9.18,23.88,23.88,0,0,1-17.4-23.87C159.41,331.4,154.53,332.23,154.45,334.16Z"/><circle class="cls-3" cx="181.69" cy="335.06" r="11.39" transform="translate(-58.87 39.41) rotate(-10.67)"/><path class="cls-2" d="M316.64,332.57A26.27,26.27,0,0,0,333,358a28.55,28.55,0,0,0,31.06-7.06,26.26,26.26,0,0,0,3.84-30.26c-5.36-9.83-16.86-15-27.81-13.25-12.56,2-22.8,12.26-23.49,25.19-.12,2.29,4.77,1.47,4.87-.47C322,322.81,327.9,314,337,311.19s19,1,24.65,8.57a24,24,0,0,1,.79,27A21.56,21.56,0,0,1,338.91,356a23.88,23.88,0,0,1-17.4-23.87C321.6,329.81,316.72,330.64,316.64,332.57Z"/><circle class="cls-3" cx="343.88" cy="333.47" r="11.39" transform="translate(-55.78 69.4) rotate(-10.67)"/><path class="cls-2" d="M376.67,340.9c9.68.69,20.61.28,29-5.26a22.38,22.38,0,0,0,9.68-15.8c.49-3.31.33-6.66.52-10,.22-3.83.55-7.66.46-11.5a32.65,32.65,0,0,0-2-11.38,24.44,24.44,0,0,0-7.6-10.09c-4.26-3.4-9.28-5.47-14.36-7.35-5.52-2-11.17-3.72-16.84-5.31-6.43-1.81-12.9-3.49-19.35-5.25-4.6-1.26-8.9-2.06-12.84-4.53-6.82-4.28-12.16-10.91-17.22-17.05-5.72-7-11.14-14.22-17.35-20.77-4.75-5-10.56-10.53-17.63-11.8A173.26,173.26,0,0,0,273.66,203q-9.29-.69-18.6-.92c-24.89-.67-50.06.52-74.66,4.59-17.35,2.87-30.77,15-40.94,28.71A128.49,128.49,0,0,0,124,262.24a240,240,0,0,0-11.59,34.81c-2,7.93-4.12,17.07-1.25,25,3.42,9.51,12.32,15.61,21.46,18.94a54.78,54.78,0,0,0,15.14,3.06c1.33.08,3.28-.46,4-1.72s-.59-2-1.7-2.05c-9.5-.6-19.48-3.83-26.49-10.49a24,24,0,0,1-7-11.37,29.88,29.88,0,0,1-.18-11.73c1.2-8.5,3.67-16.84,6.33-25q3-9.11,6.48-18l.18-.46c.13-.32-.19.46,0,0l.19-.49.15-.35c.46-1.08,1-2.14,1.44-3.2a143.74,143.74,0,0,1,7.61-14c7.74-12.59,18.09-25.56,31.5-31.82a34.46,34.46,0,0,1,5.19-2,40.09,40.09,0,0,1,5.67-1.22c5.72-.91,11.48-1.66,17.24-2.26q18.06-1.91,36.23-2.16c12.29-.19,24.6.12,36.86,1,2.83.21,5.65.45,8.48.73,1.38.14,2.76.28,4.14.44l2.17.25.95.12.48.06c-.29-.05-.29-.05,0,0a19.45,19.45,0,0,1,7.9,3.73c6.42,4.63,11.54,11.1,16.49,17.19,5.49,6.74,10.75,13.71,16.8,20a57.6,57.6,0,0,0,8.57,7.48,34,34,0,0,0,10.67,4.52c12,3.34,24.11,6.22,35.92,10.13,8.8,2.92,18.87,6.48,23.43,15.25,3.47,6.68,3,14.41,2.5,21.67-.38,6.06.2,12.73-2.35,18.29a18.85,18.85,0,0,1-2.13,3.56,20.9,20.9,0,0,1-2.73,2.69,20.65,20.65,0,0,1-9.19,3.77,59,59,0,0,1-14.6.48c-1.33-.09-3.28.46-4,1.72s.6,2,1.71,2Z"/><path class="cls-2" d="M311.73,339.07H229.48c-3.79,0-7.6-.11-11.4,0h-.16c-1.25,0-3.22.47-4,1.53s.72,1.36,1.52,1.36h82.25c3.8,0,7.61.1,11.4,0h.16c1.26,0,3.23-.47,4-1.54s-.72-1.35-1.53-1.35Z"/><path class="cls-2" d="M255.93,230.56l-.26,26.62,0,3.81c0,1.35,1.56,1.51,2.63,1.38.91-.1,3.41-.8,3.42-2.1l.26-26.61,0-3.81c0-1.36-1.56-1.51-2.63-1.39-.91.11-3.41.81-3.42,2.1Z"/><path class="cls-2" d="M304.48,261.59H184.1c-1.61,0-3.29-.14-4.9,0H179l1.86,1a49.94,49.94,0,0,1,.21-20.8,26.64,26.64,0,0,1,2.59-7.07,21.42,21.42,0,0,1,2.19-3.24c.29-.35.1-.12,0-.05l.37-.41c.22-.24.45-.47.69-.7s.43-.41.65-.6,1-.78.51-.44a17.76,17.76,0,0,1,1.72-1.15c.2-.11.92-.49.36-.21.37-.18.73-.35,1.1-.51s.7-.28,1.05-.41-.75.21.06,0l.49-.15,1-.28c.18,0,.36-.07.53-.12.73-.17-.41.05.28,0,.22,0,1.48-.25.38-.13h.47c.61,0,1.23,0,1.84,0q24.93-.41,49.87,0a48.43,48.43,0,0,1,11.65,1.33,46.71,46.71,0,0,1,9.81,3.78,64.76,64.76,0,0,1,16.13,12.12,92.8,92.8,0,0,1,10.71,13c1.09,1.59,2.14,3.22,3.13,4.88.33.57.67,1.14,1,1.72-.31-.56.09.15.17.3l.24.46c.07.12.14.25.2.38.61,1.21,2.32,1.1,3.45.79.69-.18,3.18-1.23,2.59-2.41a85.91,85.91,0,0,0-13.2-18.72c-9.9-10.93-22.76-19.42-37.7-21-5.27-.54-10.65-.33-15.94-.38s-10.77-.07-16.15-.06q-10.92,0-21.84.14c-1.33,0-2.66,0-4,.07a24.21,24.21,0,0,0-9.35,2.39,23.33,23.33,0,0,0-11.84,13.07c-3.06,7.93-3,17.29-1.61,25.58a4.54,4.54,0,0,0,.09.51c.14.75,1.25,1,1.86,1H286.74c5.07,0,10.15.05,15.23,0h.21c1.36,0,3.2-.42,4-1.68S305.53,261.59,304.48,261.59Z"/><path class="cls-4" d="M145.18,233.37c.34-1.74,3.35-3.47,3.78-5.19.68-2.68,4.12-5.33,5-8s1.93-5.18,3.06-7.71,2.39-5,3.75-7.41,2.81-4.77,4.37-7.06,3.23-4.51,5-6.66a95.19,95.19,0,0,1,11.61-11.89q3.15-2.72,6.53-5.16c2.25-1.62,4.58-3.14,7-4.56s4.84-2.73,7.34-3.94,5-2.31,7.65-3.29a96.47,96.47,0,0,1,10.65-3.31,29,29,0,0,0,27.31,19.21h12.67c1.7,0,2.93-4.34,3.7-10.65h19A4.77,4.77,0,0,0,288.3,163v-.24a4.77,4.77,0,0,0-4.77-4.78H265.34c.24-5.49.24-11.43,0-16.92h18.19a4.77,4.77,0,0,0,4.77-4.78v-.24a4.77,4.77,0,0,0-4.77-4.78h-19c-.77-6.31-2-10.65-3.7-10.65H248.2A29,29,0,0,0,219.58,145a109.1,109.1,0,0,0-14.32,4,107.33,107.33,0,0,0-17.43,8.1q-4.17,2.4-8.12,5.17c-2.62,1.85-5.17,3.81-7.62,5.89a108.75,108.75,0,0,0-24.51,29.49q-2.37,4.2-4.39,8.59t-3.6,8.95a107.59,107.59,0,0,0-4.75,18.69c-.24,1.49-.44,3-.62,4.49C139.41,236.47,139.58,234.8,145.18,233.37Z"/></g></svg>