<svg xmlns="http://www.w3.org/2000/svg" viewBox="0 0 528.74 528.74"><defs><style>.cls-1{fill:#e94e1b;}.cls-2,.cls-3{fill:#fff;}.cls-2{stroke:#fff;stroke-miterlimit:10;stroke-width:3px;fill-rule:evenodd;}</style></defs><g id="Layer_1" data-name="Layer 1"><circle class="cls-1" cx="264.6" cy="263.93" r="262.99"/><path class="cls-2" d="M256.44,108.81c.12-16-.11-31.79-.46-47.74a2.44,2.44,0,0,0-2.42-2.43,2.54,2.54,0,0,0-2.43,2.54c.35,15.84.58,31.68.46,47.52a2.28,2.28,0,0,0,2.31,2.43,2.44,2.44,0,0,0,2.54-2.32Z"/><path class="cls-2" d="M333.77,129.62C341.85,115.87,349.58,102,357.32,88a2.36,2.36,0,0,0-1.05-3.24,2.31,2.31,0,0,0-3.23.92c-7.62,13.87-15.34,27.75-23.43,41.39a2.47,2.47,0,0,0,.93,3.35,2.36,2.36,0,0,0,3.23-.81Z"/><path class="cls-2" d="M390.43,186.39c13.86-7.86,27.48-16,41.09-24.28a2.44,2.44,0,0,0,.81-3.35A2.53,2.53,0,0,0,429,158c-13.51,8.21-27.13,16.42-40.86,24.16a2.47,2.47,0,0,0-.93,3.35,2.43,2.43,0,0,0,3.23.93Z"/><path class="cls-2" d="M411.21,264c15.93.12,31.74-.12,47.67-.46a2.36,2.36,0,0,0,2.31-2.43,2.45,2.45,0,0,0-2.43-2.43c-15.81.35-31.62.58-47.55.47a2.41,2.41,0,0,0-2.42,2.31,2.54,2.54,0,0,0,2.42,2.54Z"/><path class="cls-2" d="M390.43,341.53c13.74,8,27.59,15.72,41.44,23.48a2.6,2.6,0,0,0,3.35-.93,2.56,2.56,0,0,0-.92-3.35c-14-7.63-27.7-15.38-41.44-23.47a2.35,2.35,0,0,0-3.23.92,2.44,2.44,0,0,0,.8,3.35Z"/><path class="cls-2" d="M333.77,398.3c7.85,13.76,15.92,27.4,24.12,41A2.43,2.43,0,1,0,362,436.8c-8.19-13.53-16.27-27.17-24.12-40.93a2.3,2.3,0,0,0-3.23-.92,2.47,2.47,0,0,0-.92,3.35Z"/><path class="cls-2" d="M256.33,419c-.12,16,.11,31.8.46,47.75a2.27,2.27,0,0,0,2.42,2.31,2.37,2.37,0,0,0,2.43-2.42c-.35-15.84-.58-31.68-.47-47.52a2.47,2.47,0,0,0-2.42-2.55,2.52,2.52,0,0,0-2.42,2.43Z"/><path class="cls-2" d="M178.88,398.18c-8.08,13.76-15.81,27.63-23.42,41.51a2.44,2.44,0,0,0,.92,3.35,2.47,2.47,0,0,0,3.35-.92c7.61-13.88,15.34-27.75,23.31-41.39a2.44,2.44,0,1,0-4.16-2.55Z"/><path class="cls-2" d="M122.22,341.42c-13.85,7.86-27.47,15.95-41.09,24.16a2.56,2.56,0,0,0-.81,3.36,2.43,2.43,0,0,0,3.35.8c13.62-8.2,27.12-16.3,41-24a2.6,2.6,0,0,0,.92-3.36,2.47,2.47,0,0,0-3.34-.92Z"/><path class="cls-2" d="M101.45,263.84c-15.82-.11-31.75.12-47.56.47a2.44,2.44,0,0,0-2.42,2.43A2.46,2.46,0,0,0,54,269.16c15.81-.34,31.62-.57,47.44-.46a2.37,2.37,0,0,0,2.42-2.43,2.44,2.44,0,0,0-2.42-2.43Z"/><path class="cls-2" d="M122.22,186.27c-13.62-8.09-27.47-15.84-41.44-23.47a2.31,2.31,0,0,0-3.23.93,2.47,2.47,0,0,0,.93,3.35c13.84,7.63,27.69,15.38,41.31,23.35a2.43,2.43,0,0,0,3.35-.8,2.49,2.49,0,0,0-.92-3.36Z"/><path class="cls-2" d="M179,129.51c-7.85-13.87-16-27.51-24.24-41a2.57,2.57,0,0,0-3.34-.93,2.43,2.43,0,0,0-.81,3.35c8.19,13.65,16.27,27.17,24.12,41a2.47,2.47,0,0,0,3.35.93,2.58,2.58,0,0,0,.92-3.35Z"/><path class="cls-3" d="M237.45,254.53h-4.76a1,1,0,0,1-.87-.51,1,1,0,0,1,0-1,7.72,7.72,0,0,0-6.55-11.85H191a1,1,0,0,1-.63-1.76l9.13-7.4a9.28,9.28,0,0,0-5.18-17,11.38,11.38,0,0,0-5.48,1.89l-.42.24c-5.67,3.39-40.63,25.69-41,25.91a9.4,9.4,0,0,0-3.64,7.37v32.21c0,4.41,1.33,8,3.87,10.48s6,3.65,10.22,3.65h55.27a7.76,7.76,0,0,0,7.75-7.75,7.67,7.67,0,0,0-1.2-4.1,1,1,0,0,1,.84-1.52h9.63a7.72,7.72,0,0,0,6.55-11.86,1,1,0,0,1,0-1,1,1,0,0,1,.86-.52,7.75,7.75,0,0,0-.08-15.5Zm0,13.38H195.9V270h34.26a5.62,5.62,0,0,1,0,11.24H195.9v2.13h17.24a5.62,5.62,0,1,1,0,11.24H157.92c-3.76,0-6.71-1-8.79-3s-3.2-5.07-3.21-9V250.44a7.18,7.18,0,0,1,2.66-5.57L167,233.18c9.06-5.76,19.75-12.52,22.57-14.2.28-.18,2.95-1.94,4.82-1.82a7.14,7.14,0,0,1,3.95,13.06L182.17,243.3H225.3a5.62,5.62,0,0,1,0,11.23H195.9v2.14h41.55a5.62,5.62,0,0,1,0,11.24Z"/><path class="cls-3" d="M238,254H234.5a5.22,5.22,0,0,1-1.31,0c.3.09,0-.13-.08-.17a.78.78,0,0,1-.2-.43,1.4,1.4,0,0,1,.3-.83,7.87,7.87,0,0,0,.79-1.9,8.09,8.09,0,0,0-6.18-9.83,21.05,21.05,0,0,0-4.35-.21h-31a4.1,4.1,0,0,1-1,0c-.06,0,.15,0,.12,0a.8.8,0,0,1-.41-.78.51.51,0,0,1,.18-.37c.24-.23.53-.43.79-.64l6.62-5.37c.54-.44,1.07-.89,1.63-1.32a10.51,10.51,0,0,0,4-5.62,9.59,9.59,0,0,0-4.79-10.87,10.11,10.11,0,0,0-7-.88,17.71,17.71,0,0,0-5.2,2.31c-4.08,2.45-8.09,5-12.11,7.57q-8.52,5.38-17,10.8l-11.23,7.15a9.81,9.81,0,0,0-4.43,6.71,28.22,28.22,0,0,0-.11,4.11v29.45c0,3.86,1,7.81,3.82,10.61s7.05,3.89,11.05,3.9H212a11.21,11.21,0,0,0,6.53-1.85,8.32,8.32,0,0,0,3.43-5.12,7.87,7.87,0,0,0-.08-3.58,7.46,7.46,0,0,0-.73-1.81,1.85,1.85,0,0,1-.37-.88,3.4,3.4,0,0,0,.12-.38c1.21,4.84-1.15.21-.83.25a21.14,21.14,0,0,0,2.64,0h7a10.29,10.29,0,0,0,6.5-2.35,8.21,8.21,0,0,0,2.92-5.55,7.77,7.77,0,0,0-.6-3.78c-.21-.49-.79-1.12-.7-1.67s.42.15-.75,0a2,2,0,0,0,.35,0c.36,0,.72-.06,1.08-.11,4.48-.71,8.3-4.38,7.93-9.12a8.05,8.05,0,0,0-2.62-5.27A8.67,8.67,0,0,0,238,254a2.17,2.17,0,0,0-1.6.61c-.32.45.27.52.6.52,4.35.05,7.62,4.4,7,8.58a7.3,7.3,0,0,1-3.2,5,4.91,4.91,0,0,1-2.32.76c-1.09.07-3.14.42-3,1.93,0,.57.53,1.14.76,1.66a8.06,8.06,0,0,1,.53,2,7.42,7.42,0,0,1-.35,3.34,6.78,6.78,0,0,1-3.83,4.18,7.92,7.92,0,0,1-2.87.3h-8c-1.29,0-4,.61-3.11,2.41a13.08,13.08,0,0,1,.83,1.78,7.6,7.6,0,0,1,.37,2.11,7.47,7.47,0,0,1-.61,3.13,6.54,6.54,0,0,1-4,3.77,10.72,10.72,0,0,1-2.89.17H160.38c-.67,0-1.34,0-2,0-4.58,0-9.17-1.86-11.51-6S145,281,145,276.35V251.94a12.85,12.85,0,0,1,.74-5.32,8.11,8.11,0,0,1,2.76-3.52c.34-.23.7-.45,1-.67l4.79-3.05,15.74-10q7.58-4.81,15.17-9.58l1.37-.85.59-.36.27-.17.15-.1c.17-.1-.18.12,0,0,.6-.37,1.2-.74,1.81-1.09a16,16,0,0,1,2.62-1.31,6.11,6.11,0,0,1,3.12-.18,8.92,8.92,0,0,1,5.16,3.12,9.09,9.09,0,0,1-.65,12.11c-.64.64-1.44,1.18-2.15,1.76l-3.17,2.57c-1.65,1.34-3.34,2.64-5,4a1.31,1.31,0,0,0,.63,2.4,4,4,0,0,0,.6,0h32.25a10.78,10.78,0,0,1,4.4.54,7.43,7.43,0,0,1,4.05,9.55,8,8,0,0,0-.84,1.87c-.16,1.67,2.09,1.4,3.16,1.4H237a2.19,2.19,0,0,0,1.61-.61C238.87,254,238.29,254,238,254Z"/><path class="cls-3" d="M238,267.34H196.4c-.47,0-1.71.26-1.71.89v2.14c0,.25.58.24.71.24h34.21a5.3,5.3,0,0,1,2.56,9.71,3.89,3.89,0,0,1-2.1.39H196.4c-.47,0-1.71.26-1.71.89v2.14c0,.25.58.24.71.24H211a7.09,7.09,0,0,1,4,.71,5.42,5.42,0,0,1,1.27,8.12,3.44,3.44,0,0,1-2.59,1.27H160.31c-3,0-6-.07-8.61-1.76a10.7,10.7,0,0,1-4.49-8.23c-.1-1-.09-2-.09-3.07v-23.8c0-2.36,0-4.72,0-7.08a6.53,6.53,0,0,1,2.67-5.33l3.3-2.11,11-7,10.19-6.47c5.17-3.28,10.5-6.72,15.63-9.82l.56-.34.13-.08c.14-.09,0,0,0,0l.17-.1a12.68,12.68,0,0,1,1.68-.86,4.77,4.77,0,0,1,3.85.3,6.86,6.86,0,0,1,1,11.79c-.21.15-.4.32-.6.48l-3.72,3-9.87,8-1.94,1.57c-.55.45-.06.67.44.67H224.8a5.32,5.32,0,0,1,4.89,5c.15,2.26-1.41,5-3.89,5.08H196.4c-.47,0-1.71.25-1.71.89V257c0,.26.58.25.71.25h40.93a5.37,5.37,0,0,1,3.78,1.35c2.4,2.21,2.34,6.47-.52,8.28a3,3,0,0,1-1.63.47,2.23,2.23,0,0,0-1.61.61c-.31.44.27.53.6.53,3.6-.07,7.21-2.51,7.32-6.34.11-3.54-3-6-6.32-6-2.11,0-4.22,0-6.33,0H198.93c-.8,0-1.62-.06-2.42,0h-.11l.7.25v-2.14l-1.7.89h29.24a8.08,8.08,0,0,0,5.78-2.32,5.9,5.9,0,0,0,.65-7.45,6.38,6.38,0,0,0-5.34-2.6H182.67l.44.67,7-5.72,8.75-7.1c.48-.38,1-.74,1.43-1.16a7.4,7.4,0,0,0-2.24-12.19c-3.17-1.38-6.46-.27-9.24,1.46a1.37,1.37,0,0,1-.2.13c-.18.12.21-.12,0,0l-.51.3-1.39.86-3.42,2.13q-8.77,5.49-17.5,11.07l-8.73,5.55-9.21,5.86a7.47,7.47,0,0,0-3.22,6.18c0,.64,0,1.28,0,1.92v24.9a52.65,52.65,0,0,0,.21,8.14,10.62,10.62,0,0,0,5.24,7.9,15.3,15.3,0,0,0,7.38,1.59c1.87,0,3.74,0,5.61,0h47.6c.6,0,1.19,0,1.79,0a7.73,7.73,0,0,0,6.53-3.35A5.88,5.88,0,0,0,217,283.7a9.35,9.35,0,0,0-4.86-.86H196.4l.7.25V281l-1.7.89h33.17c.48,0,1,0,1.44,0a7.41,7.41,0,0,0,6.59-4.37,5.89,5.89,0,0,0-2-6.79,6.93,6.93,0,0,0-4.19-1.19h-34l.7.24v-2.13l-1.7.89H237a2.23,2.23,0,0,0,1.61-.61C238.87,267.42,238.29,267.34,238,267.34Z"/><path class="cls-3" d="M267.46,262.29a7.76,7.76,0,0,0,7.67,7.74,1,1,0,0,1,.86.52,1,1,0,0,1,0,1,7.71,7.71,0,0,0,6.54,11.86h9.63a1,1,0,0,1,.84,1.52,7.67,7.67,0,0,0-1.2,4.1,7.76,7.76,0,0,0,7.76,7.75h55.26c4.24,0,7.77-1.26,10.23-3.65s3.86-6.07,3.86-10.48V250.44a9.4,9.4,0,0,0-3.64-7.37c-.35-.22-35.31-22.52-41-25.91l-.42-.24a11.38,11.38,0,0,0-5.48-1.89,9.28,9.28,0,0,0-5.17,17l9.12,7.4a1,1,0,0,1-.63,1.76H287.36A7.72,7.72,0,0,0,280.81,253a1,1,0,0,1,0,1,1,1,0,0,1-.87.51h-4.76A7.77,7.77,0,0,0,267.46,262.29Zm2.13,0a5.65,5.65,0,0,1,5.62-5.62h41.55v-2.14h-29.4a5.62,5.62,0,0,1,0-11.23H330.5l-16.13-13.08a7.14,7.14,0,0,1,3.95-13.06c1.87-.12,4.54,1.64,4.82,1.82,2.82,1.68,13.51,8.44,22.57,14.2l18.37,11.69a7.11,7.11,0,0,1,2.66,5.57v32.21c0,3.88-1.09,6.89-3.21,9s-5,3-8.79,3H299.53a5.62,5.62,0,1,1,0-11.24h17.23v-2.13H282.5a5.62,5.62,0,0,1,0-11.24h34.26v-2.13H275.21A5.65,5.65,0,0,1,269.59,262.29Z"/><path class="cls-3" d="M266.25,262.61a8.08,8.08,0,0,0,2.44,5.67,8.43,8.43,0,0,0,2.63,1.7,8.67,8.67,0,0,0,1.58.46,6.8,6.8,0,0,0,.77.11,4.4,4.4,0,0,1,.82.06c.77.3.22,1.17,0,1.61a7.91,7.91,0,0,0,2.75,10.43c2.52,1.6,5.45,1.33,8.29,1.33h5.84a1,1,0,0,1,.25,0c-.27-.07.09.15.16.23a.88.88,0,0,1-.06,1,7.95,7.95,0,0,0,3.63,11.39,11.14,11.14,0,0,0,4.74.75h54.2c4.79,0,10-1.58,13-5.53a15.85,15.85,0,0,0,2.84-9.8V252.26a15.67,15.67,0,0,0-.48-5.06,9.84,9.84,0,0,0-4.19-5.17l-11.92-7.59Q345,229,336.43,223.61c-3.79-2.39-7.55-4.86-11.43-7.11a11,11,0,0,0-13.21.34,9.68,9.68,0,0,0-3,11.71c1.2,2.57,3.61,4.15,5.75,5.88l6.3,5.12c.21.17.49.34.59.6a.8.8,0,0,1,.06.38c0,.36-.41.41.3.2l.42-.13h0s-.07,0-.1,0a12.89,12.89,0,0,0-1.39,0H289.6a14.51,14.51,0,0,0-5.5.74,9.17,9.17,0,0,0-4.85,4.26,8,8,0,0,0-.12,6.87c.15.3.33.57.48.87s.08.46.07.79,1.08-.13.76-.16h-2.16a28,28,0,0,0-4,.11c-4.36.63-8,4-8,8.53,0,.53,2.41.15,2.42-.65a7.36,7.36,0,0,1,2.55-5.54,5.62,5.62,0,0,1,3.86-1.32h4a4.09,4.09,0,0,0,2.36-.6,1.51,1.51,0,0,0,.75-1.31c0-.63-.61-1.27-.83-1.87a7.44,7.44,0,0,1,.59-6.59,6,6,0,0,1,4.39-3c1.08-.1,2.2,0,3.29,0h31.56c1,0,2.46-.48,2.69-1.59a1.29,1.29,0,0,0-.55-1.28c-1.91-1.61-3.88-3.15-5.82-4.72l-2.74-2.23a13.35,13.35,0,0,1-3-2.9,9.06,9.06,0,0,1,1.63-11.78,6.53,6.53,0,0,1,5.27-1.55,13.7,13.7,0,0,1,4.71,2.07c1.56.94,3.09,1.9,4.63,2.87q7.83,4.91,15.63,9.87L359,240.25l4.32,2.76a9.18,9.18,0,0,1,4.15,5.85,20.76,20.76,0,0,1,.2,4.32v24.64c0,4.91.46,10.28-2.84,14.35-2.39,2.95-5.92,4-9.61,4-.86,0-1.72,0-2.59,0H301a8,8,0,0,1-4.41-1,7.61,7.61,0,0,1-3.45-4.94,7.38,7.38,0,0,1,.21-3.73,8.52,8.52,0,0,1,.77-1.68,1.26,1.26,0,0,0-.08-1.5c-.63-.72-2.12-.5-3-.5h-7.76a7,7,0,0,1-4.18-1.34,7.56,7.56,0,0,1-3.06-5.12,7.36,7.36,0,0,1,.52-3.85,6.48,6.48,0,0,0,.75-1.66,1.25,1.25,0,0,0-.85-1.29,8.43,8.43,0,0,0-1.6-.19,6.48,6.48,0,0,1-1.42-.38,7.51,7.51,0,0,1-4.76-7.05C268.66,261.42,266.24,261.82,266.25,262.61Z"/><path class="cls-3" d="M270.8,262c0-2.18,1.56-4.69,3.94-4.72h35.51c2,0,4,.06,5.93,0h.08c.47,0,1.71-.26,1.71-.89v-2.14c0-.26-.57-.24-.71-.24h-29a5.09,5.09,0,0,1-3.74-1.58,5.4,5.4,0,0,1-.25-7.19,3.61,3.61,0,0,1,2.9-1.33h27.23c5.12,0,10.26,0,15.39,0H330c.27,0,2.21-.54,1.64-1l-6.72-5.44-8.87-7.2-.54-.44a7.23,7.23,0,0,1-2.88-4.15c-.69-2.9.68-6.46,3.59-7.61,2.24-.89,4.38.53,6.24,1.66,2.16,1.31,4.3,2.66,6.45,4q8,5.06,16.05,10.16l9,5.74,8.74,5.57a6.8,6.8,0,0,1,2.83,5.62v26.46c0,2.43.15,4.94-.08,7.36-.31,3.19-1.61,6.41-4.45,8.14a11.17,11.17,0,0,1-5.92,1.34H300.38a5.13,5.13,0,0,1-3.8-1.63c-2.16-2.28-1.91-6.4.9-8.06,1-.58,2.28-.41,3.39-.41h15.39c.47,0,1.71-.26,1.71-.89V281c0-.25-.57-.24-.71-.24h-32.7c-.51,0-1,0-1.51,0a5.3,5.3,0,0,1-2.56-9.71,3.89,3.89,0,0,1,2.1-.39h33.67c.47,0,1.71-.26,1.71-.89v-2.13c0-.26-.57-.25-.71-.25H278c-.7,0-1.41,0-2.11,0a5.22,5.22,0,0,1-4.59-3.16,6,6,0,0,1-.46-2.22c0-.55-2.43-.14-2.41.65a6,6,0,0,0,5.79,5.85c.57,0,1.15,0,1.72,0h38.26c.66,0,1.36.06,2,0h.09l-.7-.25v2.14l1.7-.89H284.09c-.47,0-1,0-1.43,0a7.38,7.38,0,0,0-6.6,4.37,5.87,5.87,0,0,0,2,6.78,6.87,6.87,0,0,0,4.19,1.2h34l-.7-.24v2.14l1.7-.9H301.37a10.28,10.28,0,0,0-5.44,1.13,6.07,6.07,0,0,0-2.43,8.27,6.35,6.35,0,0,0,5.65,3c1.88,0,3.77,0,5.65,0h47.6c3.44,0,6.92-.17,10-1.95a11.05,11.05,0,0,0,5.34-8,25,25,0,0,0,.23-4.05V257.06c0-2.31,0-4.63,0-6.95a7.18,7.18,0,0,0-3.08-5.89l-3.58-2.28L350,234.77l-11.42-7.25c-4.9-3.1-9.79-6.22-14.74-9.23a11.27,11.27,0,0,0-4-1.65,9.37,9.37,0,0,0-5.25,1,7.82,7.82,0,0,0-4.51,7.94,7.37,7.37,0,0,0,2.35,4.47c.38.34.8.63,1.19.95l3.51,2.85,10.2,8.27,2,1.65,1.64-1H288.43a9.8,9.8,0,0,0-3.18.46,6.52,6.52,0,0,0-4.71,6,6,6,0,0,0,4.87,5.74,13,13,0,0,0,2.5.13h28.35l-.7-.24V257l1.7-.89H277.47c-.58,0-1.16,0-1.74,0-2.84,0-5.84,1.57-6.93,4.31a5.92,5.92,0,0,0-.41,2.2C268.38,263.13,270.79,262.76,270.8,262Z"/><path class="cls-3" d="M247.51,290.66v4.76a1,1,0,0,1-.51.87,1,1,0,0,1-1,0,7.72,7.72,0,0,0-11.85,6.55v34.32a1,1,0,0,1-.66.94,1,1,0,0,1-1.1-.31l-7.4-9.12a9.28,9.28,0,0,0-17,5.17,11.28,11.28,0,0,0,1.89,5.48l.24.42c3.39,5.67,25.69,40.63,25.91,41a9.4,9.4,0,0,0,7.37,3.64h32.21c4.41,0,8-1.33,10.48-3.87s3.65-6,3.65-10.22V315a7.76,7.76,0,0,0-7.75-7.75,7.67,7.67,0,0,0-4.1,1.2,1,1,0,0,1-1.52-.84V298a7.72,7.72,0,0,0-11.86-6.55,1,1,0,0,1-1,0,1,1,0,0,1-.52-.86,7.75,7.75,0,0,0-15.5.08Zm13.38,0h0v41.55H263V298a5.62,5.62,0,0,1,11.24,0v34.26h2.13V315a5.62,5.62,0,0,1,11.24,0v55.22c0,3.76-1,6.72-3.05,8.79s-5.07,3.2-8.95,3.21H243.42a7.18,7.18,0,0,1-5.57-2.66l-11.69-18.37c-5.76-9.06-12.52-19.75-14.2-22.57-.18-.28-1.94-2.95-1.82-4.82a7.14,7.14,0,0,1,13.06-3.95l13.08,16.12V302.81a5.62,5.62,0,0,1,11.23,0v29.4h2.14V290.66a5.62,5.62,0,0,1,11.24,0Z"/><path class="cls-3" d="M246.31,291v3.46a9.4,9.4,0,0,1,0,1.3l-.14.37.48-.14c.54,0,.64-.12.29-.26a4.16,4.16,0,0,0-.84-.43,8.52,8.52,0,0,0-2.06-.65c-4.49-.82-9.66,1.86-10.84,6.42a17.28,17.28,0,0,0-.26,4.31v31a7.79,7.79,0,0,1,0,1.08h0c0,.08,0,.14-.05.21l-.08.15c1,0,1.26-.1.91-.32-.08-.09-.2-.17-.28-.27l-.66-.81-5.4-6.66c-.46-.56-.94-1.12-1.37-1.71a9.86,9.86,0,0,0-5.73-3.79,11.46,11.46,0,0,0-12,4.79,9.06,9.06,0,0,0-1.31,6.39,14.81,14.81,0,0,0,2.15,4.86c2.45,4.07,5,8.08,7.57,12.11q5.4,8.53,10.83,17.07,3.51,5.5,7,11a9.75,9.75,0,0,0,7.19,4.37,38.13,38.13,0,0,0,4,.06H275c4.19,0,8.55-1.11,11.7-4s4.23-7,4.24-11V315.33a8.64,8.64,0,0,0-1.86-5.73,8.27,8.27,0,0,0-5.47-2.89,9.9,9.9,0,0,0-4.08.41,10.2,10.2,0,0,0-2,.83,1.93,1.93,0,0,0-.38.23c.69-.88,1.13.17.63-.33a.94.94,0,0,1-.22-.6c-.07-.87,0-1.77,0-2.64v-4.56c0-.81,0-1.61,0-2.42a8,8,0,0,0-2.41-5.65,8.5,8.5,0,0,0-5.87-2.34,10.23,10.23,0,0,0-4.26.88,6.17,6.17,0,0,0-1.06.53c-.54.38.36-.47.67-.06-.06-.08-.21-.12-.28-.21-.32-.4-.19-1.25-.28-1.74a8,8,0,0,0-3.28-5.16,9,9,0,0,0-6.48-1.43c-4.36.63-8,4-8,8.53,0,.53,2.4.15,2.41-.65,0-4,3.44-7.78,7.61-6.63a7.55,7.55,0,0,1,4.67,3.84,7.73,7.73,0,0,1,.79,3,1.42,1.42,0,0,0,.61,1.32,2.64,2.64,0,0,0,2.1.08c.66-.19,1.2-.62,1.84-.87a4.91,4.91,0,0,1,1.69-.31,6.68,6.68,0,0,1,2.91.68,7.49,7.49,0,0,1,3.9,4.55,11.07,11.07,0,0,1,.34,3.34v8a3.18,3.18,0,0,0,0,.82c.4,1.44,2.47,1,3.41.5a5.59,5.59,0,0,1,3.31-.85,6.92,6.92,0,0,1,2.87.92,7.58,7.58,0,0,1,3.55,4.86,14.22,14.22,0,0,1,.19,3.19v51.77c0,.67,0,1.34,0,2,0,4.48-1.62,9.32-5.73,11.65a14.65,14.65,0,0,1-7.46,1.55H245.5a10.55,10.55,0,0,1-5.61-1.14,8.47,8.47,0,0,1-2.76-2.46c-.26-.39-.5-.79-.75-1.18l-3.19-5q-5.06-8-10.1-15.9c-3.16-5-6.33-10-9.45-15-.91-1.45-1.82-2.9-2.68-4.39a9.82,9.82,0,0,1-1.61-6.73,8.84,8.84,0,0,1,3-5.24,6.79,6.79,0,0,1,5.11-1.6,8.89,8.89,0,0,1,6,3.31c1.39,1.72,2.76,3.45,4.16,5.17l2.67,3.3c.43.53.92,1.39,1.6,1.64,1.1.41,3.22-.15,3.5-1.45a3.71,3.71,0,0,0,0-.47V304.4a12.16,12.16,0,0,1,.52-4.6,6.62,6.62,0,0,1,4-3.95,5.43,5.43,0,0,1,3,0,7.51,7.51,0,0,1,1.86.76,2.68,2.68,0,0,0,2.11.28c1-.23,1.9-.76,1.93-1.83,0-.48,0-1,0-1.42v-3.29C248.72,289.8,246.31,290.18,246.31,291Z"/><path class="cls-3" d="M259.68,291v41.56c0,.25.58.24.71.24h2.13c.47,0,1.71-.26,1.71-.89V299.18c0-.5,0-1,0-1.5a5,5,0,0,1,2.86-4.61c2.21-.83,4.72,1.11,5.53,3.06a6.86,6.86,0,0,1,.43,2.73v33.68c0,.25.57.24.71.24h2.13c.46,0,1.71-.26,1.71-.89V316.37a8.5,8.5,0,0,1,.63-4.17,4,4,0,0,1,2.93-2.27,5,5,0,0,1,4,1.81,5.87,5.87,0,0,1,1.29,3.94v52.87c0,3,0,5.94-1.54,8.6a8.86,8.86,0,0,1-7.39,4.42c-.92.07-1.85.06-2.78.06h-23.9c-2.29,0-4.59.05-6.88,0a6.42,6.42,0,0,1-5.09-2.76l-2.19-3.45-7-11q-3.3-5.19-6.59-10.38c-3.28-5.17-6.6-10.32-9.76-15.56a21.18,21.18,0,0,1-1.43-2.65,6.19,6.19,0,0,1-.16-4.52,6.42,6.42,0,0,1,2.68-3.44,4.82,4.82,0,0,1,3.91-.43,7.23,7.23,0,0,1,3.76,2.79c.16.21.33.41.5.61l3,3.71,8,9.87,1.57,1.93c.4.5,2.34-.1,2.34-.76V303.49c0-.33,0-.67,0-1,0-2.21,1.67-4.93,4.16-4.71a5.38,5.38,0,0,1,4.66,5.36v29.4c0,.25.57.24.7.24h2.14c.46,0,1.71-.26,1.71-.89V291a5.84,5.84,0,0,1,1.27-4,3.42,3.42,0,0,1,3.45-1.24,5.32,5.32,0,0,1,3.57,2.9,5.73,5.73,0,0,1,.53,2.37c0,.55,2.43.14,2.42-.65a6.15,6.15,0,0,0-6.85-5.83c-3.52.29-6.75,2.77-6.81,6.48,0,2.11,0,4.22,0,6.33V330c0,.8-.07,1.63,0,2.43v.11l1.71-.89H248l.71.24V302.64a5.93,5.93,0,0,0-2.41-4.81c-2.49-1.81-6.05-1.44-8.51.24a6.23,6.23,0,0,0-2.73,5.14c0,1.59,0,3.18,0,4.77v38.29l2.34-.76-5.72-7.05-7.1-8.76a15.24,15.24,0,0,0-1.21-1.45,7.79,7.79,0,0,0-4.68-2.11,9.31,9.31,0,0,0-8.84,4.37A7,7,0,0,0,209,335a11.1,11.1,0,0,0,1.65,3.76c1.16,1.85,2.29,3.72,3.45,5.57q5.46,8.69,11,17.34l5.66,8.89,5.77,9.07a7.63,7.63,0,0,0,6.42,3.13h27a48.59,48.59,0,0,0,8.53-.29,12.25,12.25,0,0,0,8.56-5.26,13.89,13.89,0,0,0,1.81-7.45c0-1.83,0-3.67,0-5.51V316.56c0-.6,0-1.2,0-1.8a5.93,5.93,0,0,0-3.47-5.39,7.69,7.69,0,0,0-9.28,2.78,8.15,8.15,0,0,0-.9,4.6v15.79l1.71-.89h-2.13l.7.24V298.71c0-.47,0-.95,0-1.43a6,6,0,0,0-4.64-5.33,7.91,7.91,0,0,0-7.73,2.63,6.32,6.32,0,0,0-1.26,4v34l1.7-.89h-2.13l.71.24V290.33C262.1,289.8,259.68,290.18,259.68,291Z"/><path class="cls-3" d="M255.27,244.79a7.77,7.77,0,0,0,7.74-7.67,1,1,0,0,1,.52-.86,1,1,0,0,1,1,0,7.72,7.72,0,0,0,11.86-6.55v-9.63a1,1,0,0,1,1.52-.84,7.67,7.67,0,0,0,4.1,1.2,7.76,7.76,0,0,0,7.75-7.75V157.47c0-4.25-1.26-7.78-3.65-10.23s-6.07-3.87-10.48-3.87H243.42a9.38,9.38,0,0,0-7.37,3.65c-.22.34-22.52,35.3-25.91,41l-.24.42a11.31,11.31,0,0,0-1.89,5.48,9.28,9.28,0,0,0,17,5.18l7.4-9.13a1,1,0,0,1,1.1-.3,1,1,0,0,1,.66.93v34.32A7.72,7.72,0,0,0,246,231.44a1,1,0,0,1,1,0,1,1,0,0,1,.51.87V237A7.76,7.76,0,0,0,255.27,244.79Zm0-2.13a5.65,5.65,0,0,1-5.61-5.62V195.49h-2.14v29.4a5.62,5.62,0,0,1-11.23,0V181.76L223.2,197.88a7.14,7.14,0,0,1-13.06-3.95c-.12-1.87,1.64-4.54,1.82-4.82,1.68-2.82,8.44-13.51,14.2-22.57l11.69-18.37a7.18,7.18,0,0,1,5.57-2.66h32.21c3.88,0,6.89,1.09,8.95,3.21s3.05,5,3.05,8.79v55.22a5.62,5.62,0,1,1-11.24,0V195.49h-2.13v34.26a5.62,5.62,0,0,1-11.24,0V195.49h-2.13V237h0A5.65,5.65,0,0,1,255.26,242.66Z"/><path class="cls-3" d="M254.77,245.36c4.55-.05,9-3.2,9.42-8,0-.26.06-.54.09-.8l.08-.15-1,.29c0,.05.42.24.49.28a8.17,8.17,0,0,0,2,.78,9.4,9.4,0,0,0,3.88.14,9.92,9.92,0,0,0,5.94-3.23,8.29,8.29,0,0,0,1.93-5.31c0-.94,0-1.89,0-2.84v-6.19c0-.14,0-.29,0-.43s.14-.37.14-.5l-1,.29.2.11a2.28,2.28,0,0,0,.46.26,8.53,8.53,0,0,0,.87.39,8.4,8.4,0,0,0,2.09.51,10,10,0,0,0,3.78-.31,9.43,9.43,0,0,0,5.41-3.72,9.26,9.26,0,0,0,1.39-5.35V165.22c0-2.68,0-5.37,0-8.06,0-4.25-1.37-8.6-4.8-11.33-2.91-2.33-6.65-3-10.29-3H246.2a20.7,20.7,0,0,0-5.09.37,10.87,10.87,0,0,0-6.62,4.61q-3.66,5.72-7.3,11.45-5.41,8.53-10.82,17.07c-2.48,3.91-5,7.81-7.38,11.79a13,13,0,0,0-2.17,5.68,9.21,9.21,0,0,0,1.87,6c2.82,3.82,8,4.74,12.28,3.12a11.56,11.56,0,0,0,5.14-3.94c.5-.65,1-1.28,1.56-1.92l5.3-6.53a5.2,5.2,0,0,0,.51-.63h0c.17-.36,10.64,22.36-1,.24,0,.06.23.16.27.22a.85.85,0,0,1,.15.35.86.86,0,0,1,0,.22c0,.4,0,.8,0,1.19v31.11a13.21,13.21,0,0,0,.47,4.64,8.2,8.2,0,0,0,4.08,4.47,9.47,9.47,0,0,0,7.37.21,8.54,8.54,0,0,0,1.08-.46,2.38,2.38,0,0,0,.77-.42l-.85.17a.67.67,0,0,1,.28.22.78.78,0,0,1,.15.35,2.5,2.5,0,0,1,0,.25c0,.52,0,1.06,0,1.58,0,1.24-.08,2.49,0,3.73a8.05,8.05,0,0,0,2.62,5.26,8.72,8.72,0,0,0,5.82,2.12,2.17,2.17,0,0,0,1.6-.61c.32-.45-.27-.52-.6-.52-4.08,0-7-3.76-7.05-7.65V232.7a2.25,2.25,0,0,0-.21-1.36c-.89-1.29-2.78-.34-3.81.18a6,6,0,0,1-5.95-.61,7.59,7.59,0,0,1-3.29-5.06,23.44,23.44,0,0,1-.1-3.75V191.41c0-.37,0-.75,0-1.13-.14-2-3.22-1.25-4.1-.26-1.55,1.74-2.95,3.64-4.42,5.44l-2.41,3a16.21,16.21,0,0,1-2.3,2.59c-3.43,2.74-8.21,1.55-10.88-1.68a9.12,9.12,0,0,1-2-5.77c0-2.12,1.11-4,2.16-5.82.87-1.47,1.79-2.91,2.69-4.36q4.84-7.74,9.74-15.43t9.85-15.48c1-1.51,1.92-3,2.89-4.54a8.1,8.1,0,0,1,4.72-3.81,16.86,16.86,0,0,1,4.08-.19H274.8a14.25,14.25,0,0,1,9.31,2.92c3.23,2.7,4.43,6.88,4.44,11,0,.8,0,1.6,0,2.4v51.72a9.69,9.69,0,0,1-.68,4.18,6.45,6.45,0,0,1-4.12,3.67,6,6,0,0,1-3.29-.26c-.59-.21-1.09-.56-1.65-.8a3,3,0,0,0-2.19.09,1.91,1.91,0,0,0-1.44,1.73c0,.37,0,.75,0,1.13v4.2c0,2.58.35,5.42-.94,7.77a6.18,6.18,0,0,1-4.19,3.22,6.37,6.37,0,0,1-3.57-.57,5.31,5.31,0,0,0-1.68-.72,3.62,3.62,0,0,0-2.36.68c-.88.68-.62,1.94-.88,2.93a7.28,7.28,0,0,1-1.25,2.6,5.8,5.8,0,0,1-4.54,2.44,2.19,2.19,0,0,0-1.61.61C253.85,245.28,254.43,245.36,254.77,245.36Z"/><path class="cls-3" d="M255.77,242.09c-2.82-.05-4.88-2.72-4.91-5.38,0-.51,0-1,0-1.54V195.92a3.75,3.75,0,0,0,0-.67s0-.06,0-.09c0-.25-.58-.24-.71-.24H248c-.46,0-1.7.26-1.7.89V222.2c0,2.33.29,4.8-1.49,6.64A3.28,3.28,0,0,1,242,229.9a5.21,5.21,0,0,1-3.19-1.78,5.72,5.72,0,0,1-1.29-3.83V187c0-1.78.08-3.58,0-5.36a2.09,2.09,0,0,1,0-.25c0-.33-.87-.23-1-.21a2.19,2.19,0,0,0-1.31.58l-5.44,6.71-7.2,8.87c-1.11,1.38-2.22,2.84-4.12,3.05-3.08.34-5.95-2-6.78-4.9A6.26,6.26,0,0,1,212,191a21.92,21.92,0,0,1,1.38-2.48c1.28-2.11,2.6-4.2,3.91-6.29q5.07-8.07,10.21-16.13l5.74-9,5.56-8.72a5,5,0,0,1,4.17-2.3c.8,0,1.6,0,2.4,0h24.46a51.76,51.76,0,0,1,7.68.18,9.91,9.91,0,0,1,7.56,5.18,14.39,14.39,0,0,1,1.35,6.56v52.48c0,2.26.22,4.57-1.6,6.31-2.26,2.15-5.67.34-6.76-2.17a10,10,0,0,1-.46-4.06v-15.4c0-.25-.58-.24-.71-.24h-2.13c-.47,0-1.71.26-1.71.89v32.71c0,.5,0,1,0,1.51a5,5,0,0,1-2.86,4.6c-2.21.83-4.72-1.11-5.53-3.06a6.92,6.92,0,0,1-.43-2.73V195.16c0-.25-.57-.24-.71-.24h-2.13c-.47,0-1.71.26-1.71.89v41.35a5.2,5.2,0,0,1-2.4,4.54,3,3,0,0,1-1.51.39,2.23,2.23,0,0,0-1.61.61c-.31.44.27.53.6.52,3.25-.05,6.72-2.08,7.26-5.5a14.2,14.2,0,0,0,.08-2.06V197.3c0-.67.06-1.38,0-2.05a.27.27,0,0,1,0-.09l-1.71.9h2.13l-.7-.25V229c0,.48,0,1,0,1.44a6,6,0,0,0,4.64,5.33,7.89,7.89,0,0,0,7.72-2.63,6.26,6.26,0,0,0,1.27-4v-34l-1.7.9h2.13l-.71-.25V213a6,6,0,0,0,1.15,3.45c2.12,2.9,6.36,3.07,9.28,1.34a6.32,6.32,0,0,0,3.22-5.51c0-1.89,0-3.77,0-5.65V159c0-3.26-.12-6.55-2-9.36a11.36,11.36,0,0,0-8.45-4.59,34.88,34.88,0,0,0-3.54-.11h-29.2c-.75,0-1.52,0-2.28,0-2.52.2-5.39,1.36-6.8,3.58l-2.26,3.55-7.17,11.26-7.2,11.34q-3,4.73-6,9.47c-.71,1.13-1.42,2.26-2.12,3.4l-.75,1.23-.49.79a10.08,10.08,0,0,0-1.62,3.94A7,7,0,0,0,210,198a8.1,8.1,0,0,0,8.7,3.4,9.28,9.28,0,0,0,4.89-2.67c.37-.39.67-.84,1-1.25l2.85-3.52,8.27-10.2,1.64-2-2.31.37v42.57a6.9,6.9,0,0,0,.43,2.7,6.32,6.32,0,0,0,6.71,3.66c2.87-.32,5.73-2.17,6.37-5.12a11.06,11.06,0,0,0,.14-2.37V195.16l-1.71.9h2.14l-.71-.25v39.62c0,.63,0,1.25,0,1.88a6,6,0,0,0,3.94,5.52,7.16,7.16,0,0,0,2.38.39,2.19,2.19,0,0,0,1.61-.61C256.69,242.16,256.09,242.1,255.77,242.09Z"/></g></svg>