<svg xmlns="http://www.w3.org/2000/svg" viewBox="0 0 528.74 528.74"><defs><style>.cls-1{fill:#e94e1b;}.cls-2{fill:#fff;}</style></defs><g id="Layer_1" data-name="Layer 1"><circle class="cls-1" cx="264.46" cy="263.93" r="262.99"/><path class="cls-2" d="M157.7,303.55c-2.21-.72-5.29-.8-7.1.95a3.25,3.25,0,0,0-.82,2.28c-.1,1.85,0,3.72,0,5.56V415.52c0,2.91.5,6.37-1.58,8.74a5.92,5.92,0,0,1-7.51,1c-3.09-1.85-3.35-5.58-3.44-8.83-.23-7.59-.05-15.2-.05-22.79V368.18c0-4.3,0-8.6,0-12.89,0-1.23.32-3.5-.92-4.25-1-.61-2.55-.24-3.64-.18-.58,0-2.77.41-2.77,1.27q0,21.86,0,43.72c0,3.66,0,7.33,0,11a97.8,97.8,0,0,1-.31,10.69c-.28,2.54-.38,6.07-2.43,7.93-1.6,1.45-4.33.89-6.1.06a7.12,7.12,0,0,1-4.3-6.15c-.2-3.7-.07-7.44-.11-11.15q-.09-11-.17-21.93c-.09-14.59,0-29.18.09-43.77.06-8.27.23-16.54.12-24.8q-.09-5.85-.31-11.7a2.78,2.78,0,0,0-.7-2.17c-1-.84-2.76-.49-3.91-.28-.51.09-2.25.44-2.3,1.2-.35,5.65-.24,11.31-.23,17s0,11.41,0,17.11a31.32,31.32,0,0,1-.86,7.9,10.06,10.06,0,0,1-1.06,2.69,4.57,4.57,0,0,1-.74.95c-.23.21-.91.48-.28.37a5.16,5.16,0,0,1-4.22-1.29c-1.32-1.33-1.47-3.46-1.59-5.22-.38-5.61-.14-11.3-.15-16.92s0-11.25,0-16.88c0-5.08-.28-10.27.18-15.33a19.92,19.92,0,0,1,2.62-8.85c3.77-6.08,11.07-6,17.43-6.15,5.68-.17,11.37-.15,17.05-.06,2.8,0,5.6.11,8.4.17a29,29,0,0,1,7.93.92c4.18,1.27,8.23,3.22,10.44,7.17s2.48,9.24,2.52,13.74c.09,11.34.06,22.68,0,34,0,2.77.12,5.58-.1,8.34-.14,1.85-.41,4.57-1.82,6-.14.15-.64.38-.29.28a3.72,3.72,0,0,1-.62.06,5.13,5.13,0,0,1-2.62-.47c-1.82-.95-2.52-3.07-2.91-4.95a41.77,41.77,0,0,1-.4-8.14l0-8.41q0-8.41,0-16.82,0-4.09,0-8.2c0-.56-3.87,0-3.87,1,0,12.46-.09,24.92,0,37.38,0,4.26.89,9.6,6,10.07a13,13,0,0,0,6.5-1.05,5.68,5.68,0,0,0,3.13-3.7,28.12,28.12,0,0,0,.83-8.48c0-3.15,0-6.29,0-9.44q0-9.43,0-18.87c0-6.07.19-12.16-.81-18.17a14.36,14.36,0,0,0-6.53-10.21,27.38,27.38,0,0,0-7.21-2.9,36.82,36.82,0,0,0-8.71-.75c-6.26-.15-12.52-.27-18.78-.21-5.35.06-10.86-.05-16.14.87a22.93,22.93,0,0,0-10,4c-6.31,4.81-6.12,13.31-6.14,20.46,0,12.41,0,24.82,0,37.23,0,3.87-.47,9.6,4.18,11,3.74,1.08,8.92-.06,10.76-3.78a20,20,0,0,0,1.61-7.56c.17-3,.09-6,.1-9,0-6.21,0-12.41,0-18.61,0-3.11,0-6.18.25-9.28l-2.3,1.21c.91-.17,1.29.45,1.42,1.26a35.11,35.11,0,0,1,.15,4.23c.11,3.75.23,7.5.23,11.26,0,7.62-.09,15.24-.14,22.86-.11,15.09-.17,30.18-.07,45.27,0,7.56.13,15.12.19,22.67,0,1.75,0,3.49,0,5.24a13.19,13.19,0,0,0,.54,5.08,8.51,8.51,0,0,0,5.56,4.59c4.44,1.31,11.61,0,13.4-4.83a22.08,22.08,0,0,0,.85-4.19,49.22,49.22,0,0,0,.5-5.41c.13-3.72.06-7.45.06-11.16.05-16.91,0-33.81,0-50.71l-2.77,1.26c1-.05,1.89-.36,2.2.8.46,1.73.17,3.8.17,5.58,0,3.82,0,7.65,0,11.47v22.93c0,7.46,0,14.92,0,22.38,0,3.19-.14,7,2,9.61,1.9,2.28,5.09,2.8,7.89,2.45s6.13-1.34,8.19-3.41,2.17-4.42,2.18-7.06c0-7.52,0-15,0-22.57V310.81a29.31,29.31,0,0,1,.09-5.7c.06-.27.4-.73.42-1-.05.86-2.36.27-1,.5a9.14,9.14,0,0,1,1.36.38,4.34,4.34,0,0,0,2.7-.51C157.59,304.33,158.5,303.81,157.7,303.55Z"/><path class="cls-2" d="M122.72,248.21c-2.21-.77-5.09-1.28-6.86-2.91s-.3-4.77,1.41-5.89,5-.47,6.11-2.42c.87-1.54,1.12-3.33,2.49-4.58a3.57,3.57,0,0,1,2.19-.79c1.27-.22,2.54-.44,3.82-.57a13.82,13.82,0,0,1,7.62,1.07c2.21,1.1,3.16,3.48,4.19,5.57.51,1,1.9.9,2.94,1.06a11,11,0,0,1,3.83,1.07,4.62,4.62,0,0,1,2.33,5.53c-.95,2.47-3.8,2.72-6,3.29-.33.09-2,.63-1.73,1.25,1.45,3.45,2.34,7.31,1.34,11a14,14,0,0,1-7.07,8.55c-6.52,3.23-15-1.44-17.13-8.05-1.33-4.15-.36-8.63.88-12.68.3-1-3.49-.48-3.83.61-1.24,4.07-2.24,8.64-1,12.83a14.23,14.23,0,0,0,7.13,8.3c8.28,4.28,19.75.55,23.94-7.79,2.21-4.41,1.44-9.43-.4-13.82l-1.74,1.25c3.64-.94,9.54-2.09,9.75-6.86.24-5.3-6.09-6-9.89-6.58l.7.36c-1.25-2.77-2.56-5.45-5.48-6.72-3.11-1.34-6.58-1.3-9.88-.92-3,.35-6.67.61-9.2,2.47-2,1.44-2.76,3.72-3.66,5.88l1.72-1c-2.12.61-4.35.91-6.3,2a7.84,7.84,0,0,0-3.61,4.64c-1.18,4.33,5.42,5.51,8.27,6.5a3.74,3.74,0,0,0,2.71-.44C122.7,249.17,123.56,248.51,122.72,248.21Z"/><path class="cls-2" d="M164.18,199.45,178,145.62l3.88-15.19c.14-.55-.41-1-.85-1.2l-1.14-.44a2.5,2.5,0,0,0-3,1.09,39.55,39.55,0,0,0-1.75,3.73c-.55,1.54-.95,3.15-1.41,4.71l-2.64,9.05c-1.7,5.88-3.37,11.78-5.13,17.65-.64,2.11-1.15,4.94-2.83,6.51a4.28,4.28,0,0,1-4.71.48c-4.84-2.13-1.73-8.95-.66-12.45,3.6-11.85,6.79-23.82,10.39-35.67,1.29-4.25,3.41-8.33,7.16-10.9s8.44-2.42,12.91-2.48q20.58-.27,41.17-.23c.94,0,2.36-.86,2.09-2-.77-3.14-1.63-6.22-2.57-9.31-.49-1.61-1-3.22-1.41-4.84a19.36,19.36,0,0,1-1-4.79c0-1.75.78-3.48,2.65-3.74,2.76-.39,4.92,2,5.77,4.36,1.18,3.29,2.09,6.7,3.11,10s2.05,6.82,3.06,10.23c.73,2.46,1.52,5.12.81,7.69-.5,1.79-1.75,2.42-3.53,2.48-3.85.12-7.74-.11-11.59-.08s-7.57.09-11.36.3c-1,0-2.31.82-2.09,2l11.61,60.28L228.22,200l2.1-2H212.67c-.78,0-2.12.67-2.12,1.59q0,12.87,0,25.73,0,6.69,0,13.38,0,3.23,0,6.45c0,2.13.09,4.31-.13,6.44-.26,2.47-.87,6.74-3.91,7.18-2.84.41-5-2-5.78-4.47a16.7,16.7,0,0,1-.51-5.27q0-3.35,0-6.69,0-6.56,0-13.12,0-14.81,0-29.62a1.33,1.33,0,0,0-1.31-1.3l-3.72-.18c-.87,0-2.62.37-2.62,1.58q0,13,0,26,0,6.71,0,13.42c0,4.28.19,8.63-.15,12.91-.19,2.53-.49,6.15-3.57,6.66a5.15,5.15,0,0,1-6.11-4,26,26,0,0,1-.48-6.11q0-3.35,0-6.7,0-6.69,0-13.4v-29c0-1-.93-1.32-1.8-1.32H162.38a2.17,2.17,0,0,0-2.12,1.59c-.1,1,1,1.32,1.8,1.32h18.05l-1.8-1.32v28q0,7.2,0,14.39,0,3.6,0,7.2a26.16,26.16,0,0,0,.58,6.55c1.8,6.77,12.22,7.82,15.82,2,2.11-3.39,1.72-8.1,1.74-11.92q0-7.2,0-14.41,0-16.09,0-32.18L193.86,201l3.73.17-1.3-1.31q0,14.19,0,28.38,0,7.31,0,14.61,0,3.6,0,7.18a16.81,16.81,0,0,0,.63,5.47,8.76,8.76,0,0,0,7,6.13c3.13.44,6.76-.72,8.42-3.56,2.25-3.86,2.11-8.41,2.14-12.71,0-4.79,0-9.58.06-14.37,0-10.56,0-21.12,0-31.68l-2.12,1.59H230c1,0,2.3-.85,2.09-2l-11.61-60.29-3.29-17.06-2.09,2c3.87-.21,7.73-.27,11.6-.3,2.05,0,4.1,0,6.15,0a55.67,55.67,0,0,0,5.92.05,7.82,7.82,0,0,0,6.48-4c1.2-2.39,1-5.5.33-8-1.05-4-2.35-7.92-3.55-11.86q-.93-3.09-1.88-6.18A48.11,48.11,0,0,0,238.42,88a8.81,8.81,0,0,0-7.94-5.35,7.84,7.84,0,0,0-7,3.65c-1.85,3.21-.3,7.22.63,10.47,1.2,4.18,2.49,8.31,3.53,12.54l2.09-2q-19.83,0-39.67.22c-5.38.06-10.85-.18-15.69,2.56a21,21,0,0,0-9,10.62c-1.22,3.06-2,6.33-2.9,9.48l-2.85,9.81c-1.89,6.49-3.7,13-5.68,19.46-1.36,4.47-4,10.7.6,14.21a9.18,9.18,0,0,0,12.58-1.84c1.87-2.65,2.53-6.2,3.42-9.27q1.6-5.48,3.19-11T176.8,141c.54-1.82,1.07-3.65,1.61-5.47a35.46,35.46,0,0,1,2.18-5.12l-3,1.09,1.13.45-.85-1.2q-6.82,26.7-13.66,53.4l-4,15.62c-.25,1,1.11,1.36,1.8,1.32A2.26,2.26,0,0,0,164.18,199.45Z"/><path class="cls-2" d="M182.25,81.9c.21-5.54,3.29-10.9,8.59-13S202,69,205.53,73.36a14.44,14.44,0,0,1,1.59,16.32A13,13,0,0,1,193,95.8a14.29,14.29,0,0,1-10.76-13.9c0-2-3.89-1.4-3.91.31a16.49,16.49,0,0,0,10.82,15.65,18.19,18.19,0,0,0,19.67-5,16.28,16.28,0,0,0,1.53-19.36,17.1,17.1,0,0,0-18.22-7.79,17.73,17.73,0,0,0-13.8,16.5C178.26,84.19,182.18,83.62,182.25,81.9Z"/><path class="cls-2" d="M284.55,132.35c.68,2.82,1,5.76,2.72,8.2a8,8,0,0,0,5.87,3.31c2.94.28,5.75-.73,8.4-1.86,2.33-1,5-2.6,7.57-1.78,6,1.9,2.53,9.46.78,13.17a30.38,30.38,0,0,0-3.13,9,21.11,21.11,0,0,0,.75,8.83,25.54,25.54,0,0,0,4.41,8.54,12.83,12.83,0,0,0,6.43,3.89c1,.33,3.47,0,3.47-1.45,0-4.28-.15-8.59.17-12.87A67.07,67.07,0,0,1,324.3,157a60.61,60.61,0,0,0,1.1-25.29l-2.2,1.58c6.74-1.16,13.19,3.84,15.15,10.13,1.31,4.21,1.32,8.93,1.37,13.3q.07,7.31.07,14.62t0,14.58c0,2.49-.05,5-.16,7.45a29.34,29.34,0,0,1-.54,6.21c-.35,1.36-1.23,2.84-2.78,2.92a4.39,4.39,0,0,1-3.61-1.95c-2.56-3.6-2-9-2-13.11-.08-10.77,0-21.55,0-32.33,0-.46-.9-.57-1.18-.57h-4.11c-.93,0-2.69.42-2.69,1.6v90.6c0,7.55.19,15.13,0,22.67-.06,2.54-.26,5.34-2.4,7a6.94,6.94,0,0,1-5.9.91,5.22,5.22,0,0,1-3.84-3.81,14.61,14.61,0,0,1-.38-3.84c0-2,0-4-.06-5.94,0-7.51,0-15,0-22.52V209.8c0-1.57.12-3.19,0-4.76-.26-2.95-3.4-2.72-5.62-2.2-.71.17-1.67.64-1.67,1.47q0,18.39,0,36.78,0,9.36,0,18.72a82.86,82.86,0,0,1-.37,8.91c-.16,1.41-.36,2.81-.62,4.21a8.55,8.55,0,0,1-.91,3,3.58,3.58,0,0,1-3.22,1.71,8.3,8.3,0,0,1-5.82-1.58c-1.71-1.43-2.1-3.32-2.26-5.45-.22-2.92-.28-5.85-.28-8.77q0-18.48,0-37V187.7q0-9.22,0-18.47c0-3.06,0-6.12,0-9.18,0-1.17.15-2.89-.37-4a3.41,3.41,0,0,0-2.79-1.44,4.53,4.53,0,0,0-3,1.11c-1,.85-1,1.89-1.09,3.13-.14,3,0,6.07,0,9.1,0,6.19,0,12.37,0,18.56a65.19,65.19,0,0,1-.27,8.84,20.59,20.59,0,0,1-.93,3.87,5.47,5.47,0,0,1-1.74,2.9c-1.25.85-3.3,0-4.24-1-1.62-1.65-1.6-4.15-1.6-6.29,0-12.34,0-24.67,0-37,0-8-1.47-19.7,7.57-23.43a33.81,33.81,0,0,1,6-1.68c.56-.12,1.88-.7,1.67-1.47s-1.66-.55-2.18-.44c-4.13.85-8.54,2-11.79,4.86-3.07,2.66-4.46,6.69-4.91,10.63a82.75,82.75,0,0,0-.23,9.32c0,3.16,0,6.33,0,9.49q0,9.75,0,19.49c0,3.33,0,6.66,0,10,0,2.44-.19,5,1.18,7.15,2.38,3.75,8.46,3.51,11.62,1,2-1.62,2.77-4.36,3.25-6.79a47.64,47.64,0,0,0,.44-8.94c.05-6.37,0-12.74,0-19.1,0-3.25-.15-6.54,0-9.79a11.26,11.26,0,0,0,.2-1.69l-1.65.36a2,2,0,0,1,.45.24c.31.26.24.26.34.72a22.07,22.07,0,0,1,.21,4.74V182q0,19.47,0,38.94t0,38.95c0,3.13,0,6.27.14,9.4.12,2.42.08,4.89,1.48,7,2.52,3.72,8.14,4.12,12.13,3.19a8.69,8.69,0,0,0,4.86-2.81c1.46-1.8,1.68-4.31,2-6.52.89-6.21.62-12.55.64-18.81q0-19.5,0-39v-9L305,204.75c.84-.2,1,.09,1.2.91a20.69,20.69,0,0,1,.08,3.69v11.4c0,7.76,0,15.52,0,23.28s0,15.34,0,23c0,2.84-.42,6.2.91,8.83a6.92,6.92,0,0,0,4.7,3.55c4.83,1.24,11.37-.36,13.7-5.13,1.32-2.73,1-6,1-9,0-4,0-7.93,0-11.89q0-23.2,0-46.39V155.12l-2.69,1.6H328l-1.18-.57c0,10.62-.07,21.23,0,31.84,0,4.55-.63,10.34,2.36,14.2,2.38,3.08,7.05,3,10.22,1.31,4.33-2.33,3.95-7.34,4.11-11.61.2-5.29.13-10.59.14-15.88q0-8.17,0-16.35c0-5.18,0-10.42-1-15.53a16.54,16.54,0,0,0-18.91-12.95c-.67.12-2.36.57-2.19,1.58a59.56,59.56,0,0,1-1.36,25.68,57.85,57.85,0,0,0-2.11,12.33c-.25,4.14-.11,8.32-.11,12.47l3.47-1.45a11.83,11.83,0,0,1-5.73-3.3,23.38,23.38,0,0,1-4.07-7.5,20.17,20.17,0,0,1-1.05-8.68,27.9,27.9,0,0,1,3-9c1.88-4,5.06-10.34.63-13.83-4.8-3.78-10.81-.31-15.6,1.55-2.47,1-4.94,1-6.91-1-2.27-2.32-2.55-5.72-3.27-8.72C288.1,130,284.22,131,284.55,132.35Z"/><path class="cls-2" d="M294.36,113.8c.08-5.2,2.54-10.37,7.64-12.3,5.52-2.09,11.57.39,15.07,4.91a11.55,11.55,0,0,1,2.61,8,15.68,15.68,0,0,1-2.44,7.48c-2.8,4.08-8,5.65-12.77,4.84-6.21-1.06-10.08-6.87-10.11-12.93,0-2-3.93-1.49-3.92.28,0,6.68,3.82,12.86,10.36,14.94,6.18,2,13.74.39,18.31-4.29s5.92-12.39,2.76-18.11a17.38,17.38,0,0,0-18.53-8.38,16.13,16.13,0,0,0-12.9,15.84C290.41,116.13,294.33,115.58,294.36,113.8Z"/><path class="cls-2" d="M412.16,247.28h-4c-.78,0-2.51.34-2.67,1.37a68.45,68.45,0,0,0-.4,10.33c0,3.48,0,7,0,10.46v21.44q0,21.48,0,43v21.49c0,1.83,0,3.67,0,5.5a23.68,23.68,0,0,1-.2,4.29,6.36,6.36,0,0,1-2.67,4.5,7.16,7.16,0,0,1-5.58.33,5.77,5.77,0,0,1-3.74-4.6,25.07,25.07,0,0,1-.2-4.9c0-1.9,0-3.81,0-5.72V296.56c0-.54-.28-.71-.76-.87-2.15-.7-5.6-.82-6.51,1.82-.49,1.41-.24,3.2-.23,4.67v28.47q0,11.25,0,22.49a102.1,102.1,0,0,1-.57,11.05c-.19,1.8-.23,4.29-1.89,5.46-1.42,1-4.09.83-5.74.43a6.27,6.27,0,0,1-4.56-4.4,14.66,14.66,0,0,1-.42-4q-.07-3.11-.1-6.2c0-3.83,0-7.66,0-11.49q0-22.48,0-45V248.63a.69.69,0,0,0-.41-.74c-1.84-.72-4.1-1-5.72.41s-1.06,3.67-1.07,5.43q0,8.55-.13,17.12c-.05,5.51,0,11-.21,16.54-.11,2.83-.54,8-4.51,7.62-4.92-.43-4.06-7.07-4.06-10.46q0-8.49,0-17t0-17.23c0-5.21-.52-10.77,1.12-15.8a11.53,11.53,0,0,1,7-7.59c4.85-1.69,10.24-1.92,15.32-2,5.66-.1,11.32-.09,17,0,5.24.07,10.61.05,15.64,1.76a14.24,14.24,0,0,1,8.1,6.63c2.14,4,2.27,8.65,2.28,13.05q0,17,0,34c0,2.78.06,5.58,0,8.37-.06,1.84-.15,4.47-1.71,5.77a3.74,3.74,0,0,1-4,0c-1.85-1.08-2.39-3.51-2.72-5.47a52.66,52.66,0,0,1-.33-8.43q0-4.2,0-8.42c0-5.61,0-11.22,0-16.84V248.2c0-1.68-3.87-.9-3.87.45,0,11.8-.06,23.6,0,35.4,0,4.21-.22,10.79,4.51,12.73,3.67,1.49,9.08.27,10.92-3.46,1.14-2.31,1-4.95,1-7.46q0-4.59,0-9.18V258.32c0-6,.3-12-.19-17.95-.34-4.07-1.46-8.11-4.25-11.21s-7-4.77-11.13-5.59c-5.84-1.15-11.87-1-17.79-1s-12.11-.19-18.11.27a64,64,0,0,0-8.47,1.33,21.14,21.14,0,0,0-6.7,2.47,15.44,15.44,0,0,0-6.79,9.7,35.25,35.25,0,0,0-.73,8.45c0,3.08,0,6.16,0,9.24v18.49c0,6-.25,12,0,17.92a7.14,7.14,0,0,0,2.42,5.48,7.9,7.9,0,0,0,5.49,1.37,8.65,8.65,0,0,0,8.15-7.36,54.61,54.61,0,0,0,.37-8.58c0-3,0-6,.06-9,0-6.11.1-12.22.14-18.33,0-1.33-.08-2.71,0-4a4.06,4.06,0,0,0,.15-.82l.11-.16-1.27.56s.81.26.83.26l-.41-.74q0,45.71,0,91.41c0,7.58,0,15.17.17,22.76.06,2.55.51,5,2.44,6.88a10.19,10.19,0,0,0,6.92,2.48c4.56.13,9.62-1.3,10.66-6.33a52.6,52.6,0,0,0,.87-10.1c0-3.83,0-7.66,0-11.49q0-13,0-26v-13c0-2.12,0-4.25,0-6.37l0-.94a8.56,8.56,0,0,0,.18-1.28c-.14-.25-1.37.12-1,.4a6.41,6.41,0,0,0,1.27.35l-.76-.87v44.74c0,7.36-.14,14.73,0,22.08,0,2.59.6,5.21,2.73,6.91a10.73,10.73,0,0,0,7.29,1.86c4.65-.24,8.87-2.88,9.87-7.62a20,20,0,0,0,.25-4.09q0-3,0-6v-11q0-22.74,0-45.48V273q0-6.24,0-12.46c0-4.11-.22-8.26.4-12.32l-2.67,1.38h4a3,3,0,0,0,2.54-1.08C413.66,247.72,412.87,247.28,412.16,247.28Z"/><path class="cls-2" d="M390.47,215.13A14.18,14.18,0,0,1,377.6,206a14.8,14.8,0,0,1,3.28-15.31,10.27,10.27,0,0,1,6.25-3.22,13,13,0,0,1,8,2.14A14.75,14.75,0,0,1,402,204.33c-1,5.69-5.57,10.74-11.54,10.8a5.42,5.42,0,0,0-2.73.73c-.57.37-.59.74.19.73,6.51-.07,13.5-2.94,16.56-9a14.71,14.71,0,0,0-3.61-17.67c-5.34-4.79-13-4.92-19.27-1.82a15.61,15.61,0,0,0-8.71,15.31c.7,7.69,7.55,13.09,15,13.18a5.32,5.32,0,0,0,2.73-.73C391.24,215.49,391.24,215.14,390.47,215.13Z"/><path class="cls-2" d="M254.31,288.74c-.87,6.15-.45,12.48-.45,18.69,0,3.15-.22,6.37,0,9.5a10.05,10.05,0,0,0,3.24,6.58,78.41,78.41,0,0,1,18.18,26.15A66.1,66.1,0,0,1,280,367.38l2.12-1.86H207.22L209,366.7a77,77,0,0,1,17.37-37.94,1,1,0,0,0,.17-1.35,25.07,25.07,0,0,1-6-13.08c-.81-5.21-.36-10.54-.36-15.79,0-4.74.32-9.33,2.31-13.7A24.06,24.06,0,0,1,264,281a61.27,61.27,0,0,1,4,6.95c1.39,2.57,2.75,5.16,4.1,7.76,3.07,5.87,6.28,11.72,9.11,17.7.93,2,1.82,4.11,1.6,6.32-.25,2.54-1.59,4.88-2.79,7.08a1,1,0,0,0,.34,1.26c5.34,4.3,10.51,8.82,16,12.92a22.67,22.67,0,0,0,8.1,4.32,20.4,20.4,0,0,0,9,.08c2.5-.52,4.88-1.8,7.49-1.26a9.92,9.92,0,0,1,5.39,3.71c2.11,2.55,4.07,5.24,6.18,7.8s4.44,5.34,6.67,8q1.82,2.19,3.6,4.39a13.41,13.41,0,0,1,2.56,4.17c1.06,3.29-.57,6.3-2.66,8.78l3.38-.31c-5.71-6-10.74-12.57-16.92-18.1-1-.88-3.72.14-3.44,1.6l5,25.6,1.6-1.77-7,1.62c-.8.19-1.74.86-1.6,1.77q1.11,7.25,2.23,14.49c.37,2.37.72,4.74,1.12,7.1.34,2,1,4.19.73,6.2a2.72,2.72,0,0,1-1.84,2.59,2.76,2.76,0,0,1-3-1.43c-1.05-1.68-1.19-4.11-1.58-6-.49-2.38-.94-4.77-1.39-7.16-1-5.11-2-10.2-3.07-15.29-.15-.71-1.17-.89-1.74-.83l-5.66.58c-.79.08-2,.57-2.14,1.51-.77,7.48-1.59,15-2.24,22.46-.16,1.8-.31,3.61-.5,5.42a7.71,7.71,0,0,1-1,3.77c-1,1.34-3.39.64-4.18-.64a6.24,6.24,0,0,1-.57-3.44q.1-3,.26-5.91c.17-3.78.37-7.55.59-11.33q.66-11.66,1.39-23.32.36-5.73.73-11.45c.13-1.82.25-3.64.38-5.47a17.8,17.8,0,0,0,.08-5.1,6.83,6.83,0,0,0-2.25-3.39l-4.34-4.07q-4.16-3.9-8.3-7.83T279.23,335c-2-1.89-4.41-3.9-5-6.74a7.29,7.29,0,0,1,.14-3.15,14.13,14.13,0,0,1,.51-1.68,10.61,10.61,0,0,0,1.07-2.72c0-.94-.87-2.27-1.26-3.1-.55-1.2-1.12-2.39-1.69-3.58q-3.94-8.17-8.41-16.1c-1.22-2.16-2.47-4.3-3.8-6.39a21.77,21.77,0,0,0-2.77-3.77,2.33,2.33,0,0,0-2.61-.23c-.55.26-1.64,1.21-.94,1.89a24.34,24.34,0,0,1,3.3,4.61c1.7,2.72,3.28,5.51,4.82,8.32,3.4,6.22,6.63,12.55,9.47,19l.1-.7c-.78,2.1-1.82,4.14-1.94,6.42a8.49,8.49,0,0,0,1.42,5.15,31.14,31.14,0,0,0,5.1,5.42q3.23,3.09,6.47,6.16,6.66,6.31,13.37,12.58a6,6,0,0,1,1.85,2.46,10.28,10.28,0,0,1,0,3.71q-.32,4.6-.62,9.2-1.19,18.11-2.18,36.22-.24,4.56-.45,9.11c-.1,2.35-.61,5.13.15,7.41,1.26,3.81,6.3,4.47,9.53,2.88a6.54,6.54,0,0,0,3.46-5c.56-3.23.64-6.58.94-9.84.6-6.59,1.33-13.17,2-19.75l-2.14,1.51,5.65-.58-1.74-.82c1.08,5.17,2.14,10.34,3.12,15.54.53,2.78,1.06,5.57,1.64,8.34.43,2.07.69,4.45,2.24,6,2.67,2.72,7.79,2.08,10.2-.68a6.7,6.7,0,0,0,1.44-5.15c-.23-2.63-.82-5.24-1.23-7.85q-1.46-9.39-2.9-18.78L326,392.13l7-1.63c.76-.17,1.77-.85,1.59-1.76q-2.49-12.8-5-25.6l-3.43,1.6c6,5.35,10.84,11.81,16.37,17.6a2.47,2.47,0,0,0,3.37-.32c1.92-2.28,3.73-5,3.73-8.13s-1.69-5.55-3.58-7.87c-4.47-5.53-9.15-10.88-13.54-16.47-1.82-2.32-3.49-4.86-6-6.5a11.42,11.42,0,0,0-6.84-1.73c-3,.16-5.77,1.62-8.8,1.82a14.2,14.2,0,0,1-8.86-2.41c-6.59-4.4-12.49-9.85-18.65-14.82l.34,1.26a25,25,0,0,0,2.89-6.92,10.76,10.76,0,0,0-.63-5.83,74,74,0,0,0-3.82-7.8q-2.22-4.35-4.46-8.68c-2.88-5.55-5.66-11.2-8.82-16.59a26.3,26.3,0,0,0-10.18-9.84,29.55,29.55,0,0,0-27.64.08,27.83,27.83,0,0,0-14.61,22.11c-.29,3.53-.07,7.09-.17,10.64a70.47,70.47,0,0,0,.14,8.72,27.45,27.45,0,0,0,6.58,16l.18-1.35A79.88,79.88,0,0,0,205.07,367c-.14,1,1.08,1.17,1.76,1.17h74.89c1,0,2.25-.78,2.12-1.85a70.85,70.85,0,0,0-11-29.84A78.55,78.55,0,0,0,263,324.13c-1.73-1.77-3.93-3.39-4.77-5.81-.94-2.7-.45-5.95-.44-8.76,0-3.78,0-7.56,0-11.35,0-1.81,0-3.62,0-5.43a31,31,0,0,1,.44-4.38C258.48,286.54,254.54,287.09,254.31,288.74Z"/><path class="cls-2" d="M228.93,288.29c-1.34,2.4-1.35,5-1.19,7.65.18,2.94,0,5.87,0,8.82q0,8.78.05,17.54c0,1.38,1.89,1.36,2.79.9,2.47-1.26,4.51-3.12,4.71-6,.26-3.88,0-7.86,0-11.75s0-7.86,0-11.79a11.9,11.9,0,0,0-.25-4,4.14,4.14,0,0,0-3.16-2.37,2.81,2.81,0,0,0-2.73.73,1,1,0,0,0,.47,1.77c1,.23,1.57.56,1.73,1.61a30.07,30.07,0,0,1,0,4.35v10.08c0,3.28,0,6.55,0,9.83,0,2.47-.09,4.25-2.49,5.48l2.79.89c0-5.68,0-11.36-.06-17,0-2.8.22-5.61.07-8.41s-.46-5.41.9-7.86c.46-.84-.42-1.43-1.15-1.52A2.63,2.63,0,0,0,228.93,288.29Z"/><path class="cls-2" d="M231.51,244.33c0-5.5,2.82-11,8.17-13.05s11.21.06,14.68,4.26a14.72,14.72,0,0,1,1.49,16.22,12.29,12.29,0,0,1-13.54,6.37c-6.5-1.51-10.7-7.58-10.8-14.09,0-1.28-3.89-.52-3.87,1A15.92,15.92,0,0,0,238.84,260a18.15,18.15,0,0,0,19.06-5.81A16.14,16.14,0,0,0,259,235.42c-3.83-6-11.26-8.16-18-6.71a16.62,16.62,0,0,0-13.35,16.08C227.63,246.46,231.5,245.67,231.51,244.33Z"/><path class="cls-2" d="M246.59,372.29h10.64l-1.79-1c.36,4,.29,8,.29,12s0,8,0,12c0,8,0,16,0,23.95,0,2.43.16,5.78-3,6.09-2.53.26-4.12-1.44-4.42-3.85a49.7,49.7,0,0,1-.05-6V397.52q0-6.74,0-13.45c0-4.47-.26-9,.4-13.4.31-2.06-3.65-1.62-3.93.24-.64,4.26-.4,8.6-.4,12.9s0,8.8,0,13.2v19.93a26.62,26.62,0,0,0,.27,6.31c1.58,6.29,11,6.78,14.08,1.39a9.68,9.68,0,0,0,1-4.95c0-2.24,0-4.49,0-6.73V384.77c0-4.85.08-9.67-.35-14.5-.07-.79-1.2-1-1.79-1H246.88C244.61,369.28,244,372.29,246.59,372.29Z"/><path class="cls-2" d="M231,372.07h10.86l-1.23-.8c.57,7.86.27,15.81.27,23.69s0,15.82,0,23.73c0,2.13.11,6.14-2.73,6.62-2.68.45-4.46-1.82-4.7-4.25-.2-2,0-4,0-6v-18c0-8.81-.29-17.68.22-26.48.11-1.89-3.81-1.26-3.9.35-.49,8.55-.22,17.17-.22,25.73v20a30.8,30.8,0,0,0,.17,6.15c1.35,6.63,11.3,6.79,14.15,1.21a11.21,11.21,0,0,0,.94-5c0-2.19,0-4.38,0-6.57q0-6.56,0-13.1c0-9.67.39-19.43-.31-29.07,0-.51-.84-.8-1.24-.8H232.38a2.7,2.7,0,0,0-2.52,1.15C229.48,371.38,230.19,372.07,231,372.07Z"/><path class="cls-2" d="M312.49,309.42a12,12,0,0,1,7.44,21.13,10.83,10.83,0,0,1-12.87.71,12.37,12.37,0,0,1-5.36-12.51,11.06,11.06,0,0,1,10.79-9.33c.82,0,2-.62,2.14-1.54s-1-1.23-1.77-1.21c-6.13.12-12.12,3.78-14.3,9.64a14.45,14.45,0,0,0,4.21,16.19,15.7,15.7,0,0,0,17.52,1.24,14.88,14.88,0,0,0,7.49-15.35c-1.29-7.18-7.9-11.69-14.92-11.72-.82,0-2,.63-2.14,1.53S311.76,309.41,312.49,309.42Z"/></g></svg>