<svg xmlns="http://www.w3.org/2000/svg" viewBox="0 0 528.74 528.74"><defs><style>.cls-1{fill:#e94e1b;}.cls-2,.cls-3{fill:#fff;}.cls-2{stroke:#fff;stroke-miterlimit:10;stroke-width:1.5px;}</style></defs><g id="Layer_1" data-name="Layer 1"><circle class="cls-1" cx="264.76" cy="264.82" r="262.99"/><path class="cls-2" d="M263.16,230.83l-6.3,7.51c-5.9-4.69-11.4-6.84-18.11-6.84-14.49,0-26.42,9.79-26.42,38.1,0,27,11.53,37.82,26.29,37.82,8.85,0,14.48-3.62,19.85-7.64l5.77,7.38c-5.23,5.23-13.82,10.19-26,10.19-22.13,0-38.23-16.77-38.23-47.75,0-31.39,17.17-47.76,38.1-47.76C249.48,221.84,255.92,225.06,263.16,230.83Z"/><path class="cls-2" d="M349.42,269.73c0,30.45-15.56,47.62-38.63,47.62s-38.63-16.63-38.63-47.49c0-30.44,15.83-48,38.63-48S349.42,238.61,349.42,269.73Zm-64.92.13c0,26.83,10.73,37.83,26.29,37.83,16.1,0,26.29-11,26.29-38S327,231.5,310.79,231.5C295,231.5,284.5,242.77,284.5,269.86Z"/><path class="cls-2" d="M397.58,301.79c0,9.39-5.9,16.23-24.28,33.13h25.76L398,342.7H362.44v-7.24c20.39-19.85,25.22-25.08,25.22-32.86,0-5.77-3.63-8.86-9-8.86-4.83,0-8.05,1.75-11.67,5.9L361,295c4.7-5.77,10.73-9,18.38-9C390.87,286,397.58,292.8,397.58,301.79Z"/><path class="cls-3" d="M385.38,220.83a109.07,109.07,0,0,0-111.51-98.49,111.16,111.16,0,0,0-95,58c-1.13,2.06-2.18,4.17-3.17,6.3l5.18-1.89a58.11,58.11,0,0,0-27.64-2,58.76,58.76,0,0,0-21,8.12,56.93,56.93,0,0,0-25.08,35.29,54.9,54.9,0,0,0,1.61,29.36l1.89-2.91c-25.14,14.77-41.43,41.84-40.53,71.27A79.88,79.88,0,0,0,107.65,389a82,82,0,0,0,42.93,12l-3.12-2.23h0c0,1.75,1.63,2.23,3.12,2.23H338.49c8.65,0,17.38.36,26,0h.36c1.32,0,3.72-1.15,3.72-2.74h0l-3.72,2.74a94.58,94.58,0,0,0,50.73-15,91.69,91.69,0,0,0,41.27-90.61,90.67,90.67,0,0,0-22.28-47.27,92.19,92.19,0,0,0-44.45-27.29c-2.31-.62-4.63-1.14-7-1.6a4.33,4.33,0,0,0-4.4,2.08c-.71,1.61.65,2.58,2.06,2.85,33.43,6.5,60.51,33.11,68,66.25,7.44,32.86-5.11,68.08-32,88.48a85.21,85.21,0,0,1-51.39,17.18c-1.33,0-3.72,1.15-3.72,2.74h0l3.72-2.74H160c-2.78,0-5.67-.23-8.44,0h-.36l3.13,2.23h0c0-1.76-1.64-2.22-3.13-2.23C126.44,396,103.1,383,89.47,362.47a75.68,75.68,0,0,1-5.29-73.77,74.91,74.91,0,0,1,29.46-32.08c.93-.55,2.3-1.61,1.88-2.91a50.64,50.64,0,0,1,4.76-43.31,49.8,49.8,0,0,1,30.64-22.28,48.64,48.64,0,0,1,26,1.23c1.76.55,4.34-.08,5.18-1.89a105.74,105.74,0,0,1,34.16-41.29A101.17,101.17,0,0,1,267,127.63,103.33,103.33,0,0,1,318.77,137a104.55,104.55,0,0,1,39,31.77,106.44,106.44,0,0,1,20,47.33c.34,2.18.61,4.37.83,6.57.31,3.1,7.09,1.46,6.76-1.81Z"/></g></svg>