<svg xmlns="http://www.w3.org/2000/svg" viewBox="0 0 528.74 528.74"><defs><style>.cls-1{fill:#e94e1b;}.cls-2,.cls-3{fill:none;stroke:#fff;stroke-linecap:round;stroke-linejoin:round;}.cls-2{stroke-width:3px;}.cls-3{stroke-width:2.5px;}.cls-4{fill:#fff;}</style></defs><g id="Layer_1" data-name="Layer 1"><circle class="cls-1" cx="264.33" cy="263.93" r="262.99"/><path class="cls-2" d="M77.63,303.59h0c5.06.21,14.71-3.71,27.23-8.51h0c12.61-4.68,28.66-9.69,48.78-9.87h0v0l.13,0h0c20.71,0,35.62,5.69,47,10.4h0c11.58,4.75,19.15,7.94,30,8h0c10.88,0,19.25-3.32,31-8h0c11.45-4.61,26-10.25,45.67-10.34H308c.09,0,.09,0,.09,0h0c19.83,0,33.67,5.94,44.22,10.45h0c11,4.59,18.48,7.82,32.57,7.93h0c.49,0,.84,0,1.1,0h0c13.7,0,24.52-3.86,36.19-8.33h0c11.56-4.41,23.95-9.58,39.71-10"/><path class="cls-2" d="M77.63,334.59h0c5.06.22,14.71-3.71,27.23-8.51h0c12.61-4.68,28.66-9.69,48.78-9.87h0v0l.13,0h0c20.71,0,35.62,5.7,47,10.4h0c11.58,4.76,19.15,7.95,30,8h0c10.88,0,19.25-3.31,31-8h0c11.45-4.61,26-10.25,45.67-10.34H308c.09,0,.09,0,.09,0h0c19.83,0,33.67,6,44.22,10.45h0c11,4.6,18.48,7.82,32.57,7.93h0c.49,0,.84,0,1.1,0h0c13.7,0,24.52-3.85,36.19-8.32h0c11.56-4.42,23.95-9.59,39.71-10"/><path class="cls-2" d="M77.63,365.6h0c5.06.21,14.71-3.72,27.23-8.51h0c12.61-4.69,28.66-9.7,48.78-9.88h0v0l.13,0h0c20.71,0,35.62,5.7,47,10.4h0c11.58,4.76,19.15,7.95,30,8h0c10.88,0,19.25-3.32,31-8h0c11.45-4.62,26-10.26,45.67-10.35H308c.09,0,.09,0,.09,0h0c19.83,0,33.67,6,44.22,10.46h0c11,4.59,18.48,7.82,32.57,7.93h0c.49,0,.84,0,1.1,0h0c13.7,0,24.52-3.86,36.19-8.33h0c11.56-4.41,23.95-9.59,39.71-10"/><polyline class="cls-3" points="102.71 243.15 102.71 227.65 130.34 227.65 130.34 204.74 172.79 204.74 172.79 243.15"/><path class="cls-4" d="M276.29,286.41q-35.58-.11-71.14-.16l-18.77-.06a5.81,5.81,0,0,0-3.42.92c-.67.5-.71,1.19.32,1.19q35,.13,69.88.17l21.08.06a4.64,4.64,0,0,0,3.22-1.19c.65-.86-.57-.92-1.17-.93Z"/><path class="cls-4" d="M438.43,285.71a30.09,30.09,0,0,1-3,.43,5.67,5.67,0,0,0-1.55.12c-.08.07.73,0,.35,0l-1.05,0-3.51.05q-6,.06-12.1.07-21,.06-41.94,0l-32.2-.06c-1,0-2.62.33-3.19,1.33s.47,1.45,1.32,1.45q26.71.06,53.43.08c10.64,0,21.28,0,31.93-.08a60.78,60.78,0,0,0,10.87-.68c.88-.17,2.56-.57,2.74-1.66s-1.41-1.2-2.1-1.07Z"/><path class="cls-4" d="M120.94,285.22c-5.56,0-11.12-.07-16.68-.12-4.8,0-10.21-.61-13.28-4.8-2.47-3.39-2-7.59-1.93-11.54.09-5.23.22-10.46.35-15.69q.12-5,.26-10.08L87,245h97.7l-2.22-1.21L188.57,262a2.11,2.11,0,0,0,2.22,1.21l17.49-.07,41.79-.16,50.71-.19,43.67-.17c7.05,0,14.19.27,21.23-.08H366A3,3,0,0,0,368.5,261l7.4-17.52L373.39,245h87.26l-2.26-1.7c-1.39,7.09-3,14.18-5.06,21.11a64.45,64.45,0,0,1-5.28,13.11,14.73,14.73,0,0,1-10.41,7.8c-1,.21-2.25,1.25-1.94,2.39s1.88,1.31,2.88,1.1A19.91,19.91,0,0,0,449.39,283c2.77-3,4.54-6.93,6.1-10.67,3-7.24,4.73-15.13,6.43-22.77q.72-3.25,1.37-6.52c.25-1.26-1.37-1.7-2.26-1.7H373.77a2.93,2.93,0,0,0-2.51,1.54l-7.41,17.52,2.52-1.54-17.49.07-41.79.16-50.71.2-43.67.16-14.39.06a62.42,62.42,0,0,0-6.84,0h-.31l2.23,1.21-6.07-18.2a2.12,2.12,0,0,0-2.23-1.21H87.4c-1,0-2.61.85-2.64,2-.24,8.59-.47,17.18-.61,25.77-.08,4.4-.46,8.89,2,12.78,3.49,5.52,10.43,6.9,16.49,6.95s11.94.1,17.91.13c2.82,0,3.65-3.71.38-3.72Z"/><rect class="cls-4" x="139.11" y="216.47" width="3.73" height="7.41"/><path class="cls-4" d="M142.54,223h-3.72l1,1.39v-7.41l-.37.46h3.72l-1-1.38v7.41a1.55,1.55,0,0,0,.63,1.26c.33.23.7.09.7-.34v-7.41c0-.5-.35-1.39-1-1.39h-3.72c-.25,0-.37.25-.37.47v7.41c0,.49.35,1.39,1,1.39h3.72C144,224.81,143.28,223,142.54,223Z"/><rect class="cls-4" x="149.23" y="216.47" width="3.73" height="7.41"/><path class="cls-4" d="M152.66,223h-3.72l1,1.39v-7.41l-.37.46h3.72l-1-1.38v7.41a1.55,1.55,0,0,0,.63,1.26c.33.23.7.09.7-.34v-7.41c0-.5-.35-1.39-1-1.39h-3.72c-.25,0-.37.25-.37.47v7.41c0,.49.35,1.39,1,1.39h3.72C154.07,224.81,153.4,223,152.66,223Z"/><rect class="cls-4" x="159.35" y="216.47" width="3.73" height="7.41"/><path class="cls-4" d="M162.78,223h-3.72l1,1.39v-7.41l-.37.46h3.72l-1-1.38v7.41a1.55,1.55,0,0,0,.63,1.26c.33.23.7.09.7-.34v-7.41c0-.5-.35-1.39-1-1.39h-3.72c-.25,0-.37.25-.37.47v7.41c0,.49.35,1.39,1,1.39h3.72C164.19,224.81,163.52,223,162.78,223Z"/></g></svg>