<svg xmlns="http://www.w3.org/2000/svg" viewBox="0 0 528.74 528.74"><defs><style>.cls-1{fill:#e94e1b;}.cls-2{fill:#fff;}</style></defs><g id="Layer_1" data-name="Layer 1"><circle class="cls-1" cx="264.03" cy="264.49" r="262.99"/><path class="cls-2" d="M294.49,235.2c2.7,3.05,5.75,6,9.47,7.72a28.21,28.21,0,0,0,10.8,2.31,44.29,44.29,0,0,0,11.26-.71,36.65,36.65,0,0,0,10.48-4.1c14.34-8.17,22.52-24.66,24.92-40.49.94-6.17.86-12.44,1-18.66l-3.32,1.78h15.39a4,4,0,0,0,2.65-.82c.44-.38,1-1.14.48-1.7L352.46,155l-3.54-3.59c-1.06-1.08-3.26-.49-4.2.46L319.57,177.4,316,181c-1,1-.17,2.06,1.08,2.06h16.24l-1.53-1.27c-.66,7.31-1,14.72-3.05,21.82-2.87,9.88-8.69,19.44-17.56,25a25.38,25.38,0,0,1-13.61,4.09c-1.08,0-2.62.31-3.17,1.38s.43,1.68,1.38,1.68c10.91,0,21-5.4,27.91-13.69,7.22-8.65,11-19.56,12-30.7.31-3.36.6-6.72.91-10.08.07-.84-.8-1.28-1.54-1.28H318.9l1.08,2.06,25.14-25.55,3.54-3.6-4.2.47,25.15,25.55,3.54,3.6,3.12-2.53H360.88c-.91,0-3.3.44-3.33,1.79-.09,4.53-.05,9.1-.4,13.63a65.14,65.14,0,0,1-6.52,24.07,46.71,46.71,0,0,1-13.53,16.78,28.28,28.28,0,0,1-17,6c-3.84,0-7.85-.06-11.49-1.47-3.88-1.51-6.95-4.49-9.66-7.56-1.25-1.4-5.87.41-4.46,2Z"/><path class="cls-2" d="M294.76,260.47c-.56,4-.83,8.12.21,12a26.92,26.92,0,0,0,5.09,9.39,40.65,40.65,0,0,0,7.47,7.64,34.15,34.15,0,0,0,9.65,5c16.15,5.47,34.59.41,48.53-8.44,5.17-3.29,9.82-7.37,14.56-11.23l-4.2.47L386,287c1,1.17,4.51.4,4.66-1.25l3.19-35.71.45-5c.08-.87-.8-1.22-1.53-1.27l-35.76-2.62-5-.37c-1-.07-4.4,1-3.13,2.53l10.52,12.38.69-1.88c-5.54,3.91-11,8.18-17.13,11.08-9.42,4.44-20.41,6.21-30.48,3a28.65,28.65,0,0,1-13.08-8.67c-1.22-1.43-5.85.36-4.46,2,7.11,8.37,18.1,11.72,28.81,11.37,11.39-.37,22.24-4.86,31.46-11.37l8-5.62c.55-.39,1.26-1.2.69-1.87l-10.52-12.38-3.12,2.52L386,246.47l5,.37-1.53-1.28-3.19,35.71-.45,5,4.66-1.25-10-11.73c-1-1.22-3.23-.33-4.2.46-3.46,2.82-6.84,5.72-10.18,8.14a62.76,62.76,0,0,1-22.33,10.39,44.41,44.41,0,0,1-21.19.08,31.25,31.25,0,0,1-16.26-10.22c-2.51-3-5-6.12-6.24-9.86-1.33-4-1.1-8.22-.51-12.35.3-2.13-4.6-1.36-4.86.51Z"/><path class="cls-2" d="M298.69,317.73c2.41-2.72,5.15-5.46,8.43-6.92a17.13,17.13,0,0,1,4-1.18,39.51,39.51,0,0,1,5.21-.44,33.13,33.13,0,0,1,9.47.91,31.9,31.9,0,0,1,8.85,4c13.13,8.37,20.18,24.17,22.16,39.14a151.81,151.81,0,0,1,.78,16.93,1.37,1.37,0,0,0,1.54,1.28h15.39l-1.08-2.06-25.14,25.55-3.54,3.6,4.2-.47-25.15-25.55-3.54-3.6-3.12,2.53h16.24c1.24,0,3.46-.55,3.31-2.18-.71-7.94-1.09-15.94-3.59-23.58-3.38-10.35-9.9-20.09-19.47-25.61a32.29,32.29,0,0,0-16-4.38c-1.08,0-2.62.32-3.17,1.39s.43,1.67,1.38,1.67c9.76,0,18.38,5.45,24.34,12.92,6.59,8.29,9.87,18.6,10.8,29.05l.88,9.84,3.31-2.18H318.9a4,4,0,0,0-2.65.83c-.44.37-1,1.14-.47,1.69l25.14,25.56,3.54,3.59c1.06,1.08,3.26.49,4.2-.46L373.81,374l3.54-3.6c1-1,.17-2.06-1.08-2.06H360.88l1.53,1.28c-.11-5.06,0-10.17-.52-15.2a66.32,66.32,0,0,0-7.56-25.19A48.15,48.15,0,0,0,339.16,312a35,35,0,0,0-20.11-5.92c-4.52,0-9,.36-13.28,2.06s-7.93,5-11,8.49a1.12,1.12,0,0,0,.52,2,3.71,3.71,0,0,0,3.42-.92Z"/><path class="cls-2" d="M232.39,220.69a104.9,104.9,0,0,0-8.22,27.44c-.15,1-.08,2.25-.75,3.08-.24.3-.08-.06,0,0s-.54,0,0,0h0l-.36,0-3.63-.19-10.75-.55-21.84-1.13L179.3,249l-4.28-.22a5.35,5.35,0,0,1-1.65-.16,1.59,1.59,0,0,1-1-1.4,5.77,5.77,0,0,1,.47-2.18q.33-1.06.69-2.13c.54-1.62,1.12-3.22,1.73-4.82,3.07-8.11,6.62-16.05,10.47-23.82,1.88-3.81,3.85-7.57,6-11.25a16.81,16.81,0,0,1,3.91-4.77,14.32,14.32,0,0,1,5.3-2.69,13.67,13.67,0,0,1,3.58-.46h5l7.5,0,12.66,0,19,0,26.88,0,8,0H288c.93,0,2.19-.29,2.86.5a1.66,1.66,0,0,1-.06,2.21c-.05,0-.17.09-.06,0l-.06,0c-.27.1-.55.17-.82.25L279.64,201l-16.11,4.88-14.92,4.53c-2.23.67-4.44,1.38-6.68,2a14.73,14.73,0,0,0-9.54,8.24c-.59,1.36,2.3,1.1,2.72.14a11.79,11.79,0,0,1,7.48-6.83l2.35-.71,12.6-3.82,16.76-5.08,13.49-4.09,3.13-1a6,6,0,0,0,1.89-.84,3.15,3.15,0,0,0,1.37-2.83,2.73,2.73,0,0,0-1.76-2.25,10.69,10.69,0,0,0-4-.31h-4.34l-8.09,0-14.58,0-22.84.05-15.58,0-9.72,0H205.5a19.57,19.57,0,0,0-7.87,1.66,18.34,18.34,0,0,0-5.66,3.93,25.28,25.28,0,0,0-3.69,5.3,248.61,248.61,0,0,0-11.85,24.28c-1.62,3.78-3.18,7.6-4.6,11.46-.57,1.55-1.12,3.11-1.61,4.68s-1.41,3.85.29,5.13c1.14.85,2.55.77,3.91.84l4.25.22,7.74.4,12.47.64,15.72.81,6.46.34c.44,0,.89.06,1.33.06h0a4.78,4.78,0,0,0,3.48-1.34c.94-.95,1-2.17,1.14-3.41a96,96,0,0,1,3.69-15.86,114.07,114.07,0,0,1,4.4-11.59C235.71,219.48,232.82,219.73,232.39,220.69Z"/><path class="cls-2" d="M173.24,258.52l5-.16,12.06-.37,14.55-.44,12.49-.38c1.95-.06,3.91-.15,5.87-.18a.44.44,0,0,1,.25,0c.8.28.91,1.25,1,2l1.1,7.09,2,13.2L231.18,302l2.82,18.2,2.2,14.13L237.86,345l1.19,7.68.8,5.16.49,3.15.25,1.62c0,.21.07.41.1.62,0,0,0,.06,0,.09a1.75,1.75,0,0,1-.34,1.25,2.64,2.64,0,0,1-.22.2s.15-.09.17-.07-.34-.13-.36-.14a1.77,1.77,0,0,1-.46-.4,7.53,7.53,0,0,1-.76-1.32l-.88-1.62-1.71-3.14L230,346.77,220.35,329l-6.72-12.38-4.29-7.9-2.4-4.43-1.06-1.95c-.09-.17-.17-.34-.27-.5a3.16,3.16,0,0,0-.67-.79,4.38,4.38,0,0,0-5.73.67,6.13,6.13,0,0,0-1,2.8l-.85,3.51-5.49,22.88-3.7,15.46-2.28,9.49-1.2,5-.46,1.92c0,.11,0,.22-.08.33a1.35,1.35,0,0,1-.09.33,1.21,1.21,0,0,1-.2.3c-.06.08-.19.12-.05.07s.09,0-.06,0a.8.8,0,0,1-.3-.06c-.88-.37-.84-1.43-.91-2.22l-.35-3.55-1.32-13.59L178.58,321l-1.8-18.57-1.4-14.39-1-10.74-.74-7.63-.49-5-.29-3-.14-1.48c0-.16,0-.33-.05-.5v0h0c0,.25,0,0,0,0a2,2,0,0,1,.38-1c.11-.16.35-.28.08-.15s0,0,.14,0c.56,0,1.52-.42,1.62-1.06s-.82-.76-1.28-.74c-2,.06-4,1.62-3.85,3.73,0,.15,0,.3.05.46l.13,1.42.29,2.93.49,5,.74,7.61,1,10.77,1.41,14.48,1.81,18.74,2.3,23.64,1.33,13.75c.12,1.23.26,2.46.36,3.69a2.66,2.66,0,0,0,1.26,2.09,4.44,4.44,0,0,0,5.68-1.26,4,4,0,0,0,.47-1.24c.12-.55.26-1.09.39-1.64l1.09-4.53,2.14-8.94,3.56-14.83,5.32-22.21,1.67-6.94a3.43,3.43,0,0,1,.36-1.19.47.47,0,0,1,.21-.21c-.16.11.07,0,0,0a1.87,1.87,0,0,1,1,.92l0,0,.32.58,1.17,2.17,2.61,4.8,4.57,8.43,7.12,13.12L229,351l6.45,11.88a10,10,0,0,0,1.72,2.82,3.74,3.74,0,0,0,2.9.84c2-.22,3.84-1.84,3.58-4l0-.08c0-.2-.06-.4-.09-.6l-.25-1.63-.5-3.18-.81-5.23-1.2-7.79L239,333.16,236.8,318.7l-2.9-18.64-3.6-23.18-2.09-13.49-.56-3.61a9.09,9.09,0,0,0-.71-3.19,3.37,3.37,0,0,0-3.34-1.4c-2,.08-3.93.12-5.89.18l-12.61.38-14.67.45-12.05.37-4.8.15c-.56,0-1.53.42-1.63,1S172.78,258.53,173.24,258.52Z"/><path class="cls-2" d="M218.91,190.89a20.84,20.84,0,0,1-13.24-36.54,19.84,19.84,0,0,1,5-3.13,17.18,17.18,0,0,1,5.52-1.39,20,20,0,0,1,11.94,2.95,21.22,21.22,0,0,1,9.68,21.75A21,21,0,0,1,232,185.32a19.61,19.61,0,0,1-4.77,3.53,17.55,17.55,0,0,1-5.35,1.81,18.8,18.8,0,0,1-3,.23,2.66,2.66,0,0,0-1.93.75c-.39.54.34.67.74.67,9.39,0,18.42-5.71,21.86-14.56a21.67,21.67,0,0,0-6.5-24.39c-7.4-6.07-18.15-6.5-26.32-1.68a22.89,22.89,0,0,0-9,9.73A21.5,21.5,0,0,0,196,174.7,22.06,22.06,0,0,0,214.11,192a24.18,24.18,0,0,0,3.61.28,2.64,2.64,0,0,0,1.93-.75C220,191,219.3,190.9,218.91,190.89Z"/><path class="cls-2" d="M346.93,130.32a160.5,160.5,0,0,0-71.45-25.67,161,161,0,0,0-157.16,80.76A158.79,158.79,0,0,0,99.08,243a160,160,0,0,0,204.7,173.5,165.48,165.48,0,0,0,18.41-6.74c1-.42,1.76-1.62,1.11-2.61s-2.33-.85-3.3-.43a155.27,155.27,0,0,1-177.33-39,156,156,0,0,1,54.26-247.83,154.79,154.79,0,0,1,146.3,13.33,3.08,3.08,0,0,0,3.48-.26c.79-.63,1.26-1.94.22-2.63Z"/></g></svg>