<svg xmlns="http://www.w3.org/2000/svg" viewBox="0 0 528.74 528.74"><defs><style>.cls-1{fill:#e94e1b;}.cls-2{fill:#fff;}</style></defs><g id="Layer_1" data-name="Layer 1"><circle class="cls-1" cx="266.03" cy="264.38" r="262.99"/><path class="cls-2" d="M358.71,105.19H157.09c-2.72,0-5.44,0-8.16,0-.12,0-.24,0-.36,0-1.24,0-4.07.62-4.07,2.26V397.53c0,3.88-.3,7.89,0,11.76a4.34,4.34,0,0,1,0,.51c0,.66,1.36.71,1.73.71H378.45c3.15,0,6.3,0,9.46,0h.4c1.24,0,4.07-.62,4.07-2.26V138.59c0-1.42-1.31-2.16-2.27-3.13L362.55,107.9l-2.3-2.31c-1.3-1.29-6.75.83-5.41,2.17L379.06,132l5.75,5.75c.52.53,1,1.08,1.58,1.59s.18.41.19.08c0,1,0,1.93,0,2.89V409.8l4.07-2.25H158.43c-3.13,0-6.33-.18-9.46,0h-.4l1.73.7V118.17c0-3.9.18-7.86,0-11.76,0-.17,0-.34,0-.51l-4.07,2.25H347.85c2.72,0,5.44,0,8.16,0h.36c1.19,0,3.14-.42,3.84-1.51S359.6,105.19,358.71,105.19Z"/><path class="cls-2" d="M188.16,238H326.91c6.38,0,12.77.1,19.15,0h.27c1.23,0,3.1-.44,3.85-1.52s-.66-1.44-1.51-1.44H209.93c-6.38,0-12.77-.11-19.15,0h-.28c-1.22,0-3.1.43-3.84,1.51s.65,1.45,1.5,1.45Z"/><path class="cls-2" d="M188.66,267.93H327.4c6.39,0,12.78.11,19.16,0h.27c1.22,0,3.1-.44,3.84-1.51S350,265,349.17,265H210.43c-6.38,0-12.77-.1-19.16,0H191c-1.22,0-3.1.44-3.84,1.52s.65,1.44,1.5,1.44Z"/><path class="cls-2" d="M188.66,293.84H327.4c6.39,0,12.78.1,19.16,0h.27c1.22,0,3.1-.44,3.84-1.51s-.65-1.45-1.5-1.45H210.43c-6.38,0-12.77-.11-19.16,0H191c-1.22,0-3.1.44-3.84,1.51s.65,1.45,1.5,1.45Z"/><path class="cls-2" d="M189.66,321.24H328.4c6.38,0,12.77.11,19.15,0h.28c1.22,0,3.1-.43,3.84-1.51s-.65-1.45-1.5-1.45H211.42c-6.38,0-12.77-.1-19.15,0H192c-1.23,0-3.1.44-3.85,1.52s.66,1.44,1.51,1.44Z"/><path class="cls-2" d="M189.66,350.64H328.4c6.38,0,12.77.1,19.15,0h.28c1.22,0,3.1-.44,3.84-1.52s-.65-1.44-1.5-1.44H211.42c-6.38,0-12.77-.11-19.15,0H192c-1.23,0-3.1.43-3.85,1.51s.66,1.45,1.51,1.45Z"/><path class="cls-2" d="M238.7,138.64c-.06,9-5.35,17.5-13.68,20.58a21.06,21.06,0,0,1-2.77.75l-.22,0-1,.14c-.56.06-1.2.12-1.7.13a21.29,21.29,0,0,1-6.41-.88,22,22,0,0,1-10.64-7.17A22.83,22.83,0,0,1,197.08,138l-4,2.08h47.44c1.29,0,3.12-.39,3.82-1.63s-.56-1.88-1.62-1.88H195.27c-1,0-4,.54-4,2.08a25.17,25.17,0,0,0,16.88,23.68,28.34,28.34,0,0,0,30.19-8.1A25.27,25.27,0,0,0,244.52,138c0-1.32-1.49-1.52-2.55-1.4C241.07,136.69,238.71,137.37,238.7,138.64Z"/><path class="cls-2" d="M335.63,139.09c-.07,8.91-5.64,17.58-13.93,20.51a17.72,17.72,0,0,1-5.56.91,20,20,0,0,1-6.38-1A22.93,22.93,0,0,1,299,152.05a23.33,23.33,0,0,1-5-14.51l-4.06,2.3h47.44c1.23,0,3.1-.43,3.83-1.54s-.63-1.5-1.51-1.5H292.25c-1.28,0-4.07.61-4.06,2.29a24.73,24.73,0,0,0,16.92,23.11,29,29,0,0,0,30.47-8.56,25,25,0,0,0,5.84-16.1C341.43,136,335.64,137,335.63,139.09Z"/><path class="cls-2" d="M263.41,138.52v65.29c0,3.08,5.88,2.26,5.88-.42V138.11c0-3.08-5.88-2.26-5.88.41Z"/><path class="cls-2" d="M223.15,209.65h82.66a7.48,7.48,0,0,0,4.1-1.1c.85-.58.84-1.36-.36-1.36H226.89a7.37,7.37,0,0,0-4.1,1.1c-.85.57-.84,1.36.36,1.36Z"/></g></svg>