<svg xmlns="http://www.w3.org/2000/svg" viewBox="0 0 528.74 528.74"><defs><style>.cls-1{fill:#e94e1b;}.cls-2,.cls-3{fill:#fff;}.cls-2{stroke:#fff;stroke-miterlimit:10;stroke-width:3px;fill-rule:evenodd;}</style></defs><g id="Layer_1" data-name="Layer 1"><circle class="cls-1" cx="265.46" cy="264.82" r="262.99"/><path class="cls-2" d="M272.32,148.17c.09-12.12-.09-24.15-.35-36.27a1.85,1.85,0,0,0-1.84-1.84,1.92,1.92,0,0,0-1.84,1.93c.26,12,.43,24.06.34,36.09a1.74,1.74,0,0,0,1.76,1.85,1.86,1.86,0,0,0,1.93-1.76Z"/><path class="cls-2" d="M331.06,164c6.14-10.45,12-21,17.89-31.62a1.8,1.8,0,0,0-.79-2.46,1.76,1.76,0,0,0-2.46.71c-5.79,10.54-11.66,21.08-17.8,31.44a1.9,1.9,0,0,0,.7,2.55,1.81,1.81,0,0,0,2.46-.62Z"/><path class="cls-2" d="M213.49,163.89c-6-10.54-12.19-20.9-18.42-31.18a2,2,0,0,0-2.54-.7,1.86,1.86,0,0,0-.61,2.55c6.22,10.36,12.36,20.64,18.32,31.18a1.89,1.89,0,0,0,2.55.7,2,2,0,0,0,.7-2.55Z"/><path class="cls-3" d="M90.13,293.64c16.15,8.18,30.57,19.14,45.54,29.22,4.23,2.85,8.52,5.61,12.9,8.23,1.21.73,3.19.17,4.28-.53.92-.59,1.72-1.74.5-2.47-15.47-9.25-29.64-20.45-45-29.89-4.38-2.7-8.85-5.24-13.44-7.56a4.75,4.75,0,0,0-4.29.53c-.84.54-1.79,1.81-.5,2.47Z"/><path class="cls-3" d="M261.39,230.71l-5.63-3.81-3.61-2.44a4.43,4.43,0,0,0-4-1c-2.37.53-4.71,1.17-7.07,1.75l-35.46,8.83-14.53,3.62c-1.16.28-2.33.54-3.48.86s.58-.4,1.14.09a2.77,2.77,0,0,0-.62-.31l-26.65-13.59-25.92-13.2-.47-.25a4.59,4.59,0,0,0-4.3.5c-.85.57-1.77,1.95-.45,2.62l19.14,9.76L178.59,239l4,2.06a11.63,11.63,0,0,0,2.3,1.05c2.5.61,6-.77,8.38-1.38L224.59,233c8-2,16.07-3.83,24-6l.4-.1-2.83-.14,10.44,7c1.82,1.23,7.32-1.37,4.75-3.11Z"/><path class="cls-3" d="M256.17,371.57a15.1,15.1,0,0,1,1.73,10.91,18.78,18.78,0,0,1-3.87,7.28l-7,8.89a.67.67,0,0,0,0,.9c1.9,2.56,3.67,5.07,6.53,6.65,4,2.2,9,1.9,13.09.23,4.4-1.78,8.48-5.46,9.47-10.27.78-3.73-.51-7.21-2.71-10.19q-4.31-5.84-8.64-11.64c-1.2-1.62-2.47-3.21-3.61-4.86-.08-.12-.19-.23-.26-.35a1.76,1.76,0,0,1-.2-.65c0-.77.69-.75-.83-.38-1.34.33-1,.09-.51.64.21.23.38.51.57.76,5.32,7.17,10.58,14.38,16,21.49a13.54,13.54,0,0,0,9.62,5.55,17.75,17.75,0,0,0,13.78-5c3.23-3.2,4.86-7.74,3.48-12.19a19.18,19.18,0,0,0-3.22-5.6l-9.25-12.46-4.32-5.8c-.37-.51-.77-1-1.13-1.52-.05-.09-.14-.17-.18-.26a3.21,3.21,0,0,1-.19-.8l0-.16c.37-.85-.23-.79-1.82.17a5.24,5.24,0,0,0,.45.41c.76.86,1.4,1.89,2.09,2.82l4.71,6.33,8.63,11.61a19.27,19.27,0,0,0,4.48,4.79,14.71,14.71,0,0,0,12.43,1.62c4.76-1.38,9.29-4.73,11-9.54,1.39-4,.22-8.08-2.22-11.41-5.2-7.08-10.48-14.11-15.72-21.17a2.62,2.62,0,0,1-.54-1.47l0-.12c.26-.72-.36-.62-1.85.29a4.48,4.48,0,0,0,.44.4s0,0,0,0,.2.27.3.41l3.29,4.42,10,13.42c.84,1.13,1.68,2.25,2.51,3.38a14.38,14.38,0,0,0,8.29,5.85c4.75,1.13,10-.43,13.86-3.26a17,17,0,0,0,6.26-10.23c.87-3.74,1-7.94-1.32-11.21-.85-1.21-5.53.36-4.51,1.83,2.3,3.27,1.71,7.91.63,11.51-1.16,3.86-3.5,7.55-7.54,8.84-3.64,1.16-7.49-.78-9.92-3.56-.87-1-1.64-2.12-2.43-3.19l-9.33-12.57-4.23-5.69c-.88-1.18-1.59-2.53-3.16-2.83-3.07-.59-7.89,2-5.44,5.35,1,1.36,2,2.71,3,4.06l9.82,13.22c2.92,3.94,6.54,8,5.24,13.33-1,4-4.57,7.73-8.7,8-4,.29-7.15-2.33-9.38-5.33l-15.29-20.58c-.28-.38-.55-.78-.86-1.15-1.12-1.35-3-1.37-4.6-.94-2.06.55-4.45,2.47-3,4.75.18.28.39.53.58.8l8.59,11.57c2.24,3,4.5,6,6.72,9.05,2.61,3.55,3.37,8.23,1,12.11-2.09,3.44-5.87,5.8-9.89,4.94-4.7-1-7.31-5.55-10-9.13l-9.93-13.37c-1-1.36-2-2.73-3-4.08a3.37,3.37,0,0,0-1.66-1.28c-2.1-.7-5.82.31-6.52,2.67-.49,1.64,1.07,3.13,2,4.35l4.64,6.25,4.78,6.45a25.61,25.61,0,0,1,3.15,4.73,10.5,10.5,0,0,1-2.42,12.06,8.71,8.71,0,0,1-10.51,1.55c-2.66-1.41-4.31-4-6.05-6.34l0,.9,7.18-9.11a20,20,0,0,0,4.14-8.08,16,16,0,0,0-1.8-11.16c-.85-1.51-5.49.13-4.83,1.29Z"/><path class="cls-3" d="M393.63,210l-19.92,10.27-31.47,16.23-5.23,2.7-1.49.77c-.45.23-1.29.48.35-.15l2.35-.54c.35-.05.28,0,0,0a6,6,0,0,0-.73-.18l-2.85-.71-9.81-2.44-27.14-6.76-19.24-4.78c-.34-.09-.7-.2-1.05-.26-2.58-.43-5.41,1.32-7.7,2.33q-3,1.31-5.9,2.65l-2.68,1.25-1.32.61c-1.25.62-.31.21,0,.09-.37.17-.77.31-1.14.48-2.18,1-4.33,2.11-6.47,3.2q-5.4,2.76-10.65,5.79c-7.18,4.15-14.18,8.69-21.05,13.28a69.49,69.49,0,0,0-16.91,15.35,35.92,35.92,0,0,0-4.41,7.3c-1.23,2.79-2.35,6.36-1.27,9.34,2,5.59,10.51,4.48,15,3.59a63.92,63.92,0,0,0,11-3.38c2-.78,3.91-1.64,5.82-2.56a27.29,27.29,0,0,0,3.19-1.62c1-.66,2-1.37,3-2A72,72,0,0,1,246.29,274c1.47-.65,2.86-1.18,4.43-1.7.82-.27.79-.26,1.71-.51l1.07-.29c.12,0,1.22-.29.68-.17a46.53,46.53,0,0,1,11.89-1,49.29,49.29,0,0,1,5.28.36,7.7,7.7,0,0,1,2.89,1.47q1.51.94,3,1.92A203.92,203.92,0,0,1,297.35,289a220.56,220.56,0,0,1,17.82,16.91c3,3.18,6,6.43,8.9,9.71,1.7,1.91,3.54,3.77,5.07,5.83l14,18.82,1.35,1.8c.41.56,1.49.35,2.06.27a10.42,10.42,0,0,0,3.25-1.06l18.1-9.41c5.34-2.78,10.74-5.45,16-8.33,5-2.7,9.85-5.52,14.77-8.27L424.07,301c5.17-2.89,10.42-5.68,15.53-8.69a2,2,0,0,1,.25-.14c1-.56.76-1.16-.32-1.18a8.77,8.77,0,0,0-4.27,1.14l-12.89,7.22-25.29,14.16-17.19,9.63c-4.36,2.44-8.87,4.64-13.31,6.94-7,3.64-14,7.2-21,10.91l-.42.22,5.31-.79c-5.2-7-10.23-14.17-15.61-21-1.59-2-3.41-3.9-5.12-5.82q-3-3.34-6-6.64c-3.83-4.13-7.75-8.17-11.83-12.05a198.54,198.54,0,0,0-25.52-20.48q-3.79-2.57-7.68-5c-2.17-1.35-5-1.19-7.53-1.33a60.62,60.62,0,0,0-17.09,1.52,65.25,65.25,0,0,0-13.5,4.83c-2.53,1.23-5,2.57-7.39,4a81.24,81.24,0,0,1-7.39,4.49,71.76,71.76,0,0,1-7.26,3c-1.17.41-1.68.57-2.74.86l-1.4.35-.23.05-.86.16a15.09,15.09,0,0,1-4,.23c.15,0-.56-.08-.71-.1s-.57-.1-.85-.17a6,6,0,0,1-2.74-1.44c-3.19-3.05-1-8.67.64-12a42.77,42.77,0,0,1,7.26-10,70.5,70.5,0,0,1,12.08-10.12q7.09-4.75,14.36-9.27a258.32,258.32,0,0,1,29.24-15.47q4-1.81,8-3.55l-4.21.81,21.91,5.45,33.34,8.29c2.77.69,5.73,1.87,8.6,1.34s5.71-2.41,8.26-3.72l30.08-15.51c7.72-4,15.52-7.85,23.18-12l.39-.2c1-.53.74-1.16-.31-1.18a9.26,9.26,0,0,0-4.27,1.14Z"/><path class="cls-3" d="M231.94,370.13l-10.53,13.34c-2.33,3-4.55,6-4.65,10-.15,6.14,4.16,11.43,9.76,13.57a15.67,15.67,0,0,0,16.21-3.35,52.78,52.78,0,0,0,4.86-5.89l6.51-8.26c2.12-2.68,4.33-5.3,5.06-8.76,1.43-6.81-3.3-13.26-9.51-15.63a15.76,15.76,0,0,0-17.71,5c-1.86,2.28,2.76,2.5,3.94,1.06a9.85,9.85,0,0,1,5.71-3.88,9.72,9.72,0,0,1,5.86,1.06c4.71,2.37,8,7.59,6.86,12.92-.6,2.8-2.27,4.82-4,7l-5.82,7.37c-1.37,1.74-2.73,3.49-4.12,5.22-2.52,3.17-5.77,4.88-9.8,3.7-5-1.46-9.19-6.45-9-11.78a11.26,11.26,0,0,1,.74-3.58,12.08,12.08,0,0,1,1-1.9c.24-.4.51-.76.77-1.14.12-.18.57-.78,0-.07.37-.49.76-1,1.14-1.44l10.62-13.46C237.7,368.88,233.09,368.67,231.94,370.13Z"/><path class="cls-3" d="M221.51,383.42l11.54-14.62.17-.21c-.4.5-.06.07.17-.22.52-.65,1-1.31,1.55-2a25.69,25.69,0,0,0,3.83-5.65c2.74-6.44-.17-13.35-6-16.94a15.68,15.68,0,0,0-19,2.12,59.5,59.5,0,0,0-5.14,6.27l-7.83,9.92c-1.58,2-3.3,3.94-4.72,6.05A13.31,13.31,0,0,0,199,386.23a15.64,15.64,0,0,0,18.59,1,17.34,17.34,0,0,0,3.66-3.39c1.88-2.25-2.76-2.45-3.94-1-1.68,2-3.71,3.8-6.41,4a11.08,11.08,0,0,1-7.39-2.48,12.68,12.68,0,0,1-4.69-7.29,11.26,11.26,0,0,1,2-8.74c1.25-1.79,2.7-3.46,4.05-5.18l7.13-9c1.51-1.91,3-3.85,4.54-5.74a10.25,10.25,0,0,1,4.48-3.38,9.25,9.25,0,0,1,7.27,1c5.32,2.89,8.43,9.4,5.69,15.13a27.34,27.34,0,0,1-3.49,5c-.49.61-1,1.22-1.45,1.84-.12.14-.58.71,0,0l-.4.5q-5.82,7.35-11.62,14.74c-.74.93.63,1.6,1.37,1.65A3.71,3.71,0,0,0,221.51,383.42Z"/><path class="cls-3" d="M198.38,364.93l12.13-15.36c1.82-2.31,4-4.67,5.23-7.37,2.73-6.21-.33-13.16-6.05-16.42-5.93-3.38-13.73-2.19-18.77,2.29a26.11,26.11,0,0,0-3.16,3.64l-3.84,4.85c-3.41,4.33-6.88,8.62-10.23,13a13.24,13.24,0,0,0-3,9.34,13.52,13.52,0,0,0,4.77,8.68c5.36,4.61,13.24,4.57,19.07.85a16,16,0,0,0,3.84-3.49c.66-.81-.59-.9-1.16-.86-.94.06-2.58.37-3.23,1.17-1.52,1.88-3.51,3.84-6.07,3.87a12.36,12.36,0,0,1-8.06-3.35,12.76,12.76,0,0,1-4.33-8.16,12.22,12.22,0,0,1,2.7-8.56c3-3.89,6.07-7.7,9.11-11.55,2-2.53,4-5.07,6-7.59,1.25-1.57,2.85-3.3,4.85-3.87,2.4-.67,5.31.4,7.33,1.63,5.29,3.22,8.05,9.73,5.39,15.55a33.48,33.48,0,0,1-4.45,6.27L194,365.24c-.64.82.58.9,1.16.87C196.08,366.05,197.74,365.74,198.38,364.93Z"/><path class="cls-3" d="M155,350.73c1,0,2.54-.81,2.66-2s-1.28-1.61-2.24-1.61-2.54.82-2.66,2,1.28,1.6,2.24,1.6Z"/><path class="cls-3" d="M175.15,347.63c2.72-3.45,5.64-6.8,8.17-10.4,2.93-4.18,3.75-9.3,1.46-14a16,16,0,0,0-11.95-8.6,15.37,15.37,0,0,0-13.14,4.69,73.92,73.92,0,0,0-5,6.18c-1.19,1.51-2.39,3-3.57,4.53-2.89,3.68-4.45,8.27-3,12.89a15.91,15.91,0,0,0,12.31,10.57,15.53,15.53,0,0,0,14.74-5.89,1.44,1.44,0,0,0-.63-2.37,3.29,3.29,0,0,0-3.42.92c-2.28,2.82-5.35,4.52-9,3.8a12.45,12.45,0,0,1-9.08-8.16c-1.2-3.73-.12-7.36,2.24-10.37,1-1.29,2-2.56,3-3.84,3-3.85,6.23-9.63,11.78-9.52,4.19.09,8.11,3.07,10,6.68A10.68,10.68,0,0,1,179,336.15c-2.53,3.42-5.27,6.69-7.9,10a1.43,1.43,0,0,0,.64,2.36A3.25,3.25,0,0,0,175.15,347.63Z"/></g></svg>