<svg xmlns="http://www.w3.org/2000/svg" viewBox="0 0 528.74 528.74"><defs><style>.cls-1{fill:#e94e1b;}.cls-2,.cls-3{fill:#fff;}.cls-3,.cls-4{stroke:#fff;}.cls-3{stroke-miterlimit:10;stroke-width:2.5px;}.cls-4{fill:none;stroke-linecap:round;stroke-linejoin:round;stroke-width:3px;}</style></defs><g id="Layer_1" data-name="Layer 1"><circle class="cls-1" cx="264.89" cy="263.93" r="262.99"/><path class="cls-2" d="M440.29,307.84V297.4c0-5.75,5.35-10.45,11.89-10.45a13.12,13.12,0,0,1,4.05.67v30a13.12,13.12,0,0,1-4.05.67C445.64,318.28,440.29,313.58,440.29,307.84Z"/><path class="cls-2" d="M401.84,292.05a9.38,9.38,0,0,1,6.4,2.09,9.14,9.14,0,0,1,2.46,4.76,25.27,25.27,0,0,1,.51,5.82c0,2.69,0,5.38,0,8.08v8.69a5.37,5.37,0,0,0,.74,3.31,7,7,0,0,0,2.44,2.09c5,2.76,11.37,3.14,16.94,3.15h20.05l-2.25-1.63a21.57,21.57,0,0,1-1.6,9,19.78,19.78,0,0,1-6.32,7.78,20.07,20.07,0,0,1-9.32,3.73,46.73,46.73,0,0,1-5.92.19h-9.88c-.75,0,1.24,0-.51,0H391.22l2.24,1.63c0-6.59,0-13.17,0-19.76-.06-13.13-10.73-23.36-23.43-25a55,55,0,0,0-6.91-.23H314.45c-2,0-4.05-.14-6.05,0h-.27l2.24,1.62V290.07l-2.65,2h94.12c1.06,0,2.54-.83,2.65-2s-1.27-1.63-2.24-1.63H308.13c-1,0-2.66.83-2.66,2v17.31c0,1.26,1.17,1.63,2.25,1.63h57.7c11.29,0,21.7,8.4,23,19.81a83.77,83.77,0,0,1,.11,9.51v12.39c0,1.26,1.17,1.63,2.25,1.63,7.95,0,15.9.1,23.85,0h10.66a50.16,50.16,0,0,0,6.13-.19A28,28,0,0,0,443,348.37a24.47,24.47,0,0,0,8.61-9.37A23.38,23.38,0,0,0,454,328.06c0-1.26-1.16-1.63-2.24-1.63H433.64c-5,0-10.86,0-15.45-2.3a4.17,4.17,0,0,1-2-1.64s-.15-.64-.15-.68c0-.76,0-1.52,0-2.27v-9.31c0-4.36.46-9-.72-13.29a11.13,11.13,0,0,0-3.86-6c-2.63-2-6-2.48-9.25-2.51-1.06,0-2.54.83-2.66,2S400.87,292,401.84,292.05Z"/><path class="cls-2" d="M416.19,321.6c0-5.18,0-10.36,0-15.54,0-3.44,0-7.22-1.86-10.26-3.81-6.31-12.63-5.19-19-5.19H307.9l2.52,1V196.36c0-3,.56-5.72,2.64-8a11.12,11.12,0,0,1,8.22-3.71c8,0,15.93,0,23.9,0h50.69c3.9,0,7.51.28,11.1,2.25a12.69,12.69,0,0,1,6.6,8.48c.46,2.23.87,4.47,1.31,6.71.77,3.95,1.42,7.95,2.37,11.87,2,8.07,4,16.11,5.79,24.23l7.25,33.53.58,2.7c.12.56.74.82,1.26.92a21.39,21.39,0,0,1,14.65,10,17.35,17.35,0,0,1,2.35,8.36c0,1.53,0,3,0,4.57l3.74-1c-5.79-1.74-14.47.69-14.51,7.88,0,4.09-.83,8.9,2.47,12,3.14,2.92,8.12,3.35,12.07,2.16l-3.77-.88v9l2.48-1.13c-6.92,0-13.85.08-20.77,0a42.3,42.3,0,0,1-9.44-1.1c-1.78-.43-5.13-1.25-5.22-3.57-.06-1.54-5.05-1.44-5,.08.08,2.14,2.18,3.39,3.91,4.16a31.26,31.26,0,0,0,8.62,2.11c5.88.77,11.88.5,17.8.5h10.13c.63,0,2.48-.19,2.48-1.13v-9c0-1.33-3.06-1.09-3.77-.88-2.75.83-5.5-1-6.58-3.53-.7-1.68-.41-3.88-.41-5.66s-.28-3.86.36-5.51a5.51,5.51,0,0,1,6.66-3.56c.74.22,3.74.32,3.74-1,0-1.74.08-3.5,0-5.24a18.9,18.9,0,0,0-2.86-8.83c-3.63-5.81-10-9.44-16.63-10.7l1.25.92-6.4-29.6c-1.78-8.21-3.7-16.36-5.68-24.53-.86-3.52-1.73-7-2.42-10.58l-1.85-9.48c-.39-2-.66-4-1.22-6-2.41-8.41-12.22-11.66-20.1-11.7-2.42,0-4.83,0-7.25,0H323.43c-5,0-10.15.6-14,4.18a11.93,11.93,0,0,0-4,9v96.1c0,1,2,1,2.52,1h92c2.87,0,5.84-.08,8.15,1.92,2.9,2.51,3.11,6.84,3.11,10.39,0,5.53,0,11.06,0,16.59C411.19,323.19,416.19,323.16,416.19,321.6Z"/><path class="cls-2" d="M78.21,343.77a28.84,28.84,0,0,0,18,27.87,31.14,31.14,0,0,0,34-7.77,28.86,28.86,0,0,0,4.15-33.11c-5.84-10.79-18.47-16.54-30.48-14.59s-22.49,10.95-25.07,23.15a29,29,0,0,0-.57,4.45c-.12,2.29,4.76,1.47,4.87-.47.53-10.3,7.1-20.06,17.15-23.2s21.25.92,27.54,9.38a26.58,26.58,0,0,1,.94,30,24.14,24.14,0,0,1-26.3,10.27A26.45,26.45,0,0,1,83.08,343.3C83.17,341,78.29,341.84,78.21,343.77Z"/><circle class="cls-3" cx="108" cy="344.79" r="12.56" transform="translate(-61.94 25.94) rotate(-10.67)"/><path class="cls-2" d="M349.58,373.62c12.44-.38,24-7.74,28.37-19.6a28.37,28.37,0,0,0-9.07-31.83c-9.95-7.74-23.94-8.13-34.66-1.68a28.61,28.61,0,0,0,15.36,53.11c1.06,0,2.61-.32,3.18-1.35s-.45-1.57-1.35-1.56a26.19,26.19,0,0,1-24.55-16.3,26.58,26.58,0,0,1,6.39-29.31,24,24,0,0,1,28.22-2.91,26.76,26.76,0,0,1,13,27c-1.74,11.42-11.25,21.13-23.08,21.48-1.06,0-2.61.31-3.17,1.36S348.68,373.65,349.58,373.62Z"/><circle class="cls-3" cx="349.84" cy="344.79" r="12.56" transform="translate(-141 363.3) rotate(-46.74)"/><path class="cls-2" d="M138.59,337.54H286.07c6.78,0,13.61.24,20.39,0h.28c1,0,2.64-.86,2.64-2V182a13.24,13.24,0,0,0-3.6-9.48c-3-3.05-6.84-4.14-11-4.14H82.12a15,15,0,0,0-11.73,5.15c-4,4.79-3.1,11.32-3.1,17.13V335.8c0,1.28,1.15,1.74,2.27,1.74h8.08c1.09,0,2.54-.85,2.64-2S79,333.76,78,333.76H69.93l2.27,1.74V182.68c0-2.79.4-5.37,2.28-7.59s4.64-3,7.53-3h212.4a9.7,9.7,0,0,1,8.22,4c1.57,2.22,1.84,4.66,1.84,7.27V335.8l2.63-2H159.62c-6.78,0-13.61-.24-20.39,0H139c-1.09,0-2.54.86-2.63,2s1.24,1.74,2.27,1.74Z"/><path class="cls-3" d="M416.2,249.54v10.28c0,5.66-4.2,10.29-9.33,10.29a8.53,8.53,0,0,1-3.18-.66V239.91a8.53,8.53,0,0,1,3.18-.66C412,239.25,416.2,243.88,416.2,249.54Z"/><path class="cls-2" d="M404.13,233.15c-1.28-6.83-2.58-13.66-3.79-20.5-.74-4.2-1.94-8.47-4.86-11.72-5.24-5.84-13.27-5.23-20.39-5.11-9.08.16-18.16.32-27.24.43-3.76.05-7.51,0-11.27.08-4.15.06-10.77.44-11.1,5.86-.28,4.54,0,9.17,0,13.71v21c0,5.27,0,10.53-.14,15.8-.09,3.59-.72,10.55,4.41,10.69,6.55.17,13.12,0,19.67,0h40.92c3.42,0,7,.25,10.33-.57s7.16-3.06,7.65-6.76a8.33,8.33,0,0,0-.34-2.52c-.54-2.85-1.07-5.7-1.61-8.54l-2.22-11.81c-.28-1.49-5.13-.34-4.83,1.29q1.88,10,3.77,20c.12.65.19,1.35.37,2s.15-.17.05.22a5.54,5.54,0,0,1-1.16,2.58,3.78,3.78,0,0,1-1.38,1.07c.35-.17-.45.17-.41.15.39-.14-.54.14-.48.13a10.29,10.29,0,0,1-1.87.21c-1.1,0-2.19,0-3.28,0H334.75c-.93,0-1.87,0-2.81,0-.37,0-.28-.1,0,.05a1.4,1.4,0,0,1-.61-.47,5.6,5.6,0,0,1-.88-2.49c-.78-4.35-.15-8.94-.15-13.33V207c0-1.67,0-3.34,0-5a5.37,5.37,0,0,1,.38-2.28c.06-.12.46-.62.32-.46.34-.37-.33.15.12-.1-.69.38.7-.22-.1,0,.08,0,.76-.16.22-.06l.73-.1c.5-.06.82-.07,1.38-.09,1.59-.06,3.17,0,4.75,0q2,0,4,0c8.62-.08,17.23-.24,25.85-.38l9.7-.17a21,21,0,0,1,8.79,1.21c4.05,1.71,6.56,5.27,7.89,9.34,1.5,4.58,2,9.59,2.89,14.31.69,3.77,1.4,7.53,2.1,11.29C399.58,235.93,404.44,234.78,404.13,233.15Z"/><path class="cls-2" d="M52.83,381.17H447.47c1.08,0,2.65-.29,3.16-1.41s-.4-1.8-1.41-1.8H54.58c-1.08,0-2.65.3-3.16,1.42s.4,1.79,1.41,1.79Z"/><path class="cls-4" d="M215,105.59v-.24a4.78,4.78,0,0,0-4.78-4.78h-19c-.77-6.31-2-10.65-3.7-10.65H174.91a29,29,0,0,0-28.61,24.33,109.68,109.68,0,0,0-14.33,4,108.12,108.12,0,0,0-17.43,8.1q-4.17,2.4-8.11,5.17t-7.62,5.89A109.28,109.28,0,0,0,85.25,151.1c-4.1,4.94-10.42,15.54-13.59,21.13-.14.23,2.39-2.17,2.25-1.93,5,.52,10.52-1.27,16.06,0,.63-1,1.26-2,1.92-3q2.34-3.43,5-6.66a97.32,97.32,0,0,1,11.61-11.89q3.15-2.72,6.53-5.16t7-4.56q3.59-2.13,7.34-3.94c2.5-1.2,5.05-2.3,7.65-3.28a96.52,96.52,0,0,1,10.65-3.32,29,29,0,0,0,27.3,19.21h12.68c1.7,0,2.93-4.34,3.7-10.65h19a4.78,4.78,0,0,0,4.78-4.78v-.24a4.78,4.78,0,0,0-4.78-4.78H192.05c.25-5.49.25-11.43,0-16.92h18.19A4.78,4.78,0,0,0,215,105.59Z"/></g></svg>