<svg xmlns="http://www.w3.org/2000/svg" viewBox="0 0 528.74 528.74"><defs><style>.cls-1{fill:#e94e1b;}.cls-2{fill:#fff;}</style></defs><g id="Layer_1" data-name="Layer 1"><circle class="cls-1" cx="264.33" cy="264.38" r="262.99"/><path class="cls-2" d="M323.63,215.85a61.52,61.52,0,0,0-9.58-35.43,66.43,66.43,0,0,0-27.14-23.95A69.55,69.55,0,0,0,249.52,150a70.52,70.52,0,0,0-35.13,13.9A65.86,65.86,0,0,0,192.5,193a63.28,63.28,0,0,0-2.08,35.87c2.55,11.44,7.65,22.2,13.81,32.12a183.55,183.55,0,0,0,20.92,27.09,251.55,251.55,0,0,0,20.25,19.61c3.79,3.29,7.66,6.49,11.67,9.49l.54.4c1,.75,3.07,0,3.87-.74A293.59,293.59,0,0,0,282,294.77c12.8-15,24.87-31.23,33.27-49.18,4.37-9.32,7.89-19.37,8.35-29.74.09-2.15-4.77-1.26-4.85.53-.4,9.07-3.15,17.93-6.78,26.2a166.23,166.23,0,0,1-14.7,26.07A308.11,308.11,0,0,1,265,308.37c-2.42,2.54-4.86,5.07-7.4,7.49l3.87-.74q-1.07-.78-2.1-1.59l-.47-.36-.37-.29-1.33-1.06q-1.63-1.31-3.24-2.64-9.48-7.87-18.18-16.66a206.41,206.41,0,0,1-21.06-24.59,123.69,123.69,0,0,1-16.38-30c-3.93-10.85-5.79-22.51-4-34a60,60,0,0,1,15.37-31.29,62.49,62.49,0,0,1,65.43-16.93,64.77,64.77,0,0,1,29.08,19.38,60.41,60.41,0,0,1,14.23,32.11,58.18,58.18,0,0,1,.35,9.14C318.7,218.54,323.56,217.64,323.63,215.85Z"/><path class="cls-2" d="M286.83,212.81c-.06,12.93-7.8,25-20.06,29.59-12,4.5-25.89-.14-33.89-9.9A32.45,32.45,0,0,1,230,195.87a29.78,29.78,0,0,1,31.63-14.27,32.17,32.17,0,0,1,25.21,31.21c0,2.15,4.86,1.19,4.85-.55A34.4,34.4,0,0,0,268.74,180a37,37,0,0,0-39.85,10.86,34.34,34.34,0,0,0-3.23,39.71c7.72,12.77,23,18.61,37.44,15.69,14.12-2.85,25.81-14.31,28.15-28.63a34.52,34.52,0,0,0,.43-5.37C291.69,210.12,286.84,211.07,286.83,212.81Z"/><path class="cls-2" d="M281.76,291.31l24,.12,38.33.2,8.84,0-1.29-.38,18.15,20.29,28.78,32.19,6.6,7.37,3.2-2.24-8.14.05-21.94.15-32.65.22-39.57.26-43.64.29-43.75.29-41.06.28-34.48.23-25,.16c-3.87,0-7.88-.25-11.75.08a4.34,4.34,0,0,1-.51,0l1.29,1.33L125.43,331l29-33.87,6.61-7.72-3.2,1.3,23.55.11,37.2.19,8.61.05c1,0,2.63-.35,3.2-1.3s-.49-1.33-1.29-1.33l-27.63-.14-38.15-.19c-2.57,0-5.33-.42-7.18,1.75l-6.89,8.05-27.07,31.63L109.76,344c-2.23,2.61-4.59,5.15-6.71,7.85l-.3.35c-.76.88.65,1.34,1.28,1.33l8.14-.05,21.94-.15,32.65-.21,39.57-.27,43.64-.29,43.74-.29,41.07-.28,34.48-.23,25-.16c3.91,0,7.83,0,11.74-.08h.52c.74,0,4.37-.93,3.2-2.25l-16.63-18.59-27.88-31.18L357,290.4c-.71-.79-1-1.27-2.19-1.36-.86-.06-1.75,0-2.61,0L316,288.85c-10.58-.06-21.17-.21-31.75-.16h-.53c-1,0-2.63.35-3.2,1.3s.49,1.33,1.29,1.33Z"/></g></svg>