<svg xmlns="http://www.w3.org/2000/svg" viewBox="0 0 528.74 528.74"><defs><style>.cls-1{fill:#e94e1b;}.cls-2{fill:none;}.cls-2,.cls-3{stroke:#fff;stroke-miterlimit:10;stroke-width:2px;}.cls-3{fill:#fff;}</style></defs><g id="Layer_1" data-name="Layer 1"><circle class="cls-1" cx="263.89" cy="264.38" r="262.99"/><path class="cls-2" d="M409.27,329.12l.34-.74c2.75-10.07-1.89-17.18-8.48-27.21-2-3.07-4.1-6.25-6.19-9.83-7.71-13.26-24-38.37-29.05-46l-25.68,16.58c6.3,10.3,32,52.28,37.71,62.07,3.93,6.66,7.68,13.06,8.88,20.16C401.93,341.3,407.66,332.34,409.27,329.12Z"/><path class="cls-3" d="M405.72,298.16c-2-3-4-6.12-6-9.58-9.2-15.82-30.49-48.24-30.7-48.57a2.75,2.75,0,0,0-3.78-.79L335,258.74a2.74,2.74,0,0,0-.86,3.73c.33.53,32.54,53.18,39.18,64.47,3.73,6.32,7,11.89,8.05,17.85a48.14,48.14,0,0,0,5.44-.67c-1.2-7.1-4.95-13.5-8.88-20.16-5.76-9.79-31.41-51.77-37.71-62.07l25.68-16.58c5,7.66,21.34,32.77,29.05,46,2.09,3.58,4.17,6.76,6.19,9.83,6.59,10,11.23,17.14,8.48,27.21l.08-.18a2.74,2.74,0,0,1,5.05,2.14s-.16.43-.5,1.11h0l-10.85,23.62a2.59,2.59,0,0,0,.37-.5l8.86-18.65C420.14,320.11,413.46,309.94,405.72,298.16Z"/><path class="cls-3" d="M409.29,329.09a2.92,2.92,0,0,1,.21-.28c.05-.15.07-.29.11-.43l-.34.74Z"/><path class="cls-3" d="M412.93,327.84a2.74,2.74,0,0,1,1.31,3.61c.34-.68.5-1.11.5-1.11a2.74,2.74,0,0,0-5.05-2.14l-.08.18c0,.14-.06.28-.11.43A2.71,2.71,0,0,1,412.93,327.84Z"/><path class="cls-3" d="M387.19,349.62A42.28,42.28,0,0,0,402.44,344l-3.34,7.27.19-.07,8.37-17.62a33.35,33.35,0,0,0,1.35-3.3,2.59,2.59,0,0,1,.24-1.11l0-.05c-1.61,3.22-7.34,12.18-22.47,15A27,27,0,0,1,387.19,349.62Z"/><path class="cls-3" d="M402.2,356l-6.3,2.24-1.46,3.18c-.07.16-7.69,15.82-22.13,17.12-11.3,1-46.14.57-65.9.21h-.05a2.74,2.74,0,0,0-2.74,2.6,49.54,49.54,0,0,1-1.22,9.06,245,245,0,0,1-21.49-12.82c-17.71-11.7-19.94-16-20.21-16.8.86-1.74,7.2-6.79,21.81-14.16,11.71-5.91,20.86-9.38,23.86-9.95.64,1.69.9,6.13.52,10.22a2.75,2.75,0,0,0,2.74,3h0c18.95-.13,45.53-.15,64.7.55a64.47,64.47,0,0,0,7.32-.17,22.57,22.57,0,0,0-.3-5.47,60.34,60.34,0,0,1-6.82.15c-18.3-.66-43.26-.68-62-.56.14-4.34-.22-10.43-3.14-12.59-1.32-1-3.07-1.44-12.32,2.2-6.57,2.58-40.27,17.47-41.84,25.88-.43,2.34,1,4.51,2.19,5.95,7.77,9.73,42.13,30.51,45.76,30.65h.14a3.59,3.59,0,0,0,2.5-1.05c2-1.94,2.8-7.67,3.09-11.15,20.2.35,52.79.72,63.87-.27,17.53-1.59,26.23-19.47,26.61-20.27l4-8.65A2.67,2.67,0,0,1,402.2,356Z"/><path class="cls-3" d="M381.66,350.26c1.94-.14,3.8-.34,5.53-.64a27,27,0,0,0-.39-5.5,48.14,48.14,0,0,1-5.44.67A22.57,22.57,0,0,1,381.66,350.26Z"/><path class="cls-3" d="M414.24,331.45a.36.36,0,0,0,0,.09,2.74,2.74,0,0,1-5.19-1.26,33.35,33.35,0,0,1-1.35,3.3l-8.37,17.62-.19.07-3.2,7,6.3-2.24a2.67,2.67,0,0,0,1.19-.91l10.85-23.62Z"/><path class="cls-3" d="M409.29,329.09l0,0,0,.05a2.59,2.59,0,0,0-.24,1.11c.17-.49.35-1,.49-1.47A2.92,2.92,0,0,0,409.29,329.09Z"/><path class="cls-3" d="M412.93,327.84a2.71,2.71,0,0,0-3.43,1c-.14.48-.32,1-.49,1.47a2.74,2.74,0,0,0,5.19,1.26.36.36,0,0,1,0-.09A2.74,2.74,0,0,0,412.93,327.84Z"/><path class="cls-2" d="M133.75,380.7l.43.7c6.86,7.86,15.35,7.93,27.35,8,3.68,0,7.48,0,11.62.29,15.3.92,45.26,1.21,54.42,1.29L228,360.4c-12.06-.45-61.21-2.33-72.56-2.95-7.73-.42-15.13-.84-21.71-3.77C127.67,367.85,132,377.58,133.75,380.7Z"/><path class="cls-3" d="M161.5,394.88c3.6,0,7.33,0,11.32.28,18.26,1.09,57.05,1.31,57.44,1.31a2.75,2.75,0,0,0,2.76-2.71l.47-36a2.76,2.76,0,0,0-2.64-2.78c-.63,0-62.3-2.35-75.38-3.06-7.33-.4-13.77-.76-19.32-3.18a49.87,49.87,0,0,0-2.46,4.9c6.58,2.93,14,3.35,21.71,3.77,11.35.62,60.5,2.5,72.56,2.95L227.57,391c-9.16-.08-39.12-.37-54.42-1.29-4.14-.25-7.94-.27-11.62-.29-12-.06-20.49-.13-27.35-8l.1.16a2.74,2.74,0,0,1-4.58,3s-.26-.37-.64-1h0l-13.66-22.11a2.37,2.37,0,0,0,.21.58l10.62,17.71C135.23,394.74,147.41,394.8,161.5,394.88Z"/><path class="cls-3" d="M133.76,380.73a2.19,2.19,0,0,1,.12.33l.3.34-.43-.7Z"/><path class="cls-3" d="M132.79,384.45a2.74,2.74,0,0,1-3.73-.9c.38.66.64,1,.64,1a2.74,2.74,0,0,0,4.58-3l-.1-.16-.3-.34A2.7,2.7,0,0,1,132.79,384.45Z"/><path class="cls-3" d="M128.9,351a42,42,0,0,0-3.76,15.81l-4.21-6.8-.05.19,10.05,16.74a33.43,33.43,0,0,0,2,2.94,2.78,2.78,0,0,1,.79.81l0,.05c-1.79-3.12-6.08-12.85-.06-27A27,27,0,0,1,128.9,351Z"/><path class="cls-3" d="M115.28,359.94l1.63-6.49-1.84-3c-.09-.15-8.92-15.15-2-27.91,5.41-10,25.07-38.74,36.31-55l0-.05a2.73,2.73,0,0,0-.65-3.72,48.18,48.18,0,0,1-6.86-6A242.8,242.8,0,0,1,164.45,247c19.54-8.27,24.38-7.74,25.18-7.54,1,1.68,1.66,9.76-.28,26-1.56,13-3.74,22.56-4.93,25.37-1.76-.39-5.6-2.65-8.8-5.22a2.76,2.76,0,0,0-2.15-.57,2.71,2.71,0,0,0-1.85,1.19v0c-10.38,15.85-25.08,38-36.27,53.58a66,66,0,0,0-3.92,6.18,22.72,22.72,0,0,0,4.73,2.78,59,59,0,0,1,3.64-5.76c10.69-14.87,24.52-35.66,34.79-51.32,3.54,2.52,8.81,5.59,12.22,4.36,1.55-.56,2.9-1.76,5-11.48,1.48-6.9,7.73-43.21,1.6-49.17-1.71-1.65-4.34-1.63-6.17-1.47-12.41,1.09-48.72,18.2-50.85,21.14h0l-.07.11a3.64,3.64,0,0,0-.52,2.67c.51,2.76,4.84,6.58,7.58,8.75-11.47,16.62-29.82,43.56-35.12,53.34-8.39,15.47,1.69,32.62,2.14,33.38l5,8.1A2.7,2.7,0,0,1,115.28,359.94Z"/><path class="cls-3" d="M131.42,346c-.95,1.69-1.82,3.36-2.52,5a27,27,0,0,0,4.79,2.72,49.87,49.87,0,0,1,2.46-4.9A22.72,22.72,0,0,1,131.42,346Z"/><path class="cls-3" d="M129.06,383.55l-.05-.09a2.72,2.72,0,0,1,.09-2.88,2.83,2.83,0,0,1,.88-.84,2.76,2.76,0,0,1,3,.1,33.43,33.43,0,0,1-2-2.94l-10.05-16.74.05-.19-4-6.52-1.63,6.49a2.7,2.7,0,0,0,.11,1.49l13.66,22.11Z"/><path class="cls-3" d="M133.76,380.73v0l0-.05a2.78,2.78,0,0,0-.79-.81c.31.42.62.84.95,1.22A2.19,2.19,0,0,0,133.76,380.73Z"/><path class="cls-3" d="M132.79,384.45a2.7,2.7,0,0,0,1.09-3.39c-.33-.38-.64-.8-.95-1.22a2.76,2.76,0,0,0-3-.1,2.83,2.83,0,0,0-.88.84,2.72,2.72,0,0,0-.09,2.88l.05.09A2.74,2.74,0,0,0,132.79,384.45Z"/><path class="cls-2" d="M228.76,122.43l-.81.11c-10,3-13.52,10.77-18.48,21.69-1.52,3.34-3.1,6.8-5,10.48-7.09,13.59-19.62,40.8-23.43,49.13l27.72,12.87c5.35-10.82,27.17-54.91,32.38-65,3.54-6.88,6.95-13.46,12.32-18.27C243,122.14,232.35,122.08,228.76,122.43Z"/><path class="cls-3" d="M204.47,142c-1.49,3.28-3,6.68-4.88,10.22-8.47,16.22-24.54,51.52-24.7,51.88a2.74,2.74,0,0,0,1.34,3.62l32.63,15.14a2.74,2.74,0,0,0,3.61-1.27c.28-.56,27.63-55.89,33.63-67.52,3.36-6.53,6.33-12.27,10.81-16.34a52.48,52.48,0,0,0-3.47-4.25c-5.37,4.81-8.78,11.39-12.32,18.27-5.21,10.1-27,54.19-32.38,65L181,203.84c3.81-8.33,16.34-35.54,23.43-49.13,1.92-3.68,3.5-7.14,5-10.48,5-10.92,8.5-18.64,18.48-21.69l-.19,0a2.75,2.75,0,0,1-.88-5.42s.45-.08,1.21-.16h0l25.77-3.43a3.24,3.24,0,0,0-.62,0L232.74,116C215.35,118,210.31,129.12,204.47,142Z"/><path class="cls-3" d="M228.73,122.44c-.12,0-.23,0-.35,0l-.43.14.81-.11Z"/><path class="cls-3" d="M225.73,120a2.75,2.75,0,0,1,2.36-3c-.76.08-1.21.16-1.21.16a2.75,2.75,0,0,0,.88,5.42l.19,0,.43-.14A2.7,2.7,0,0,1,225.73,120Z"/><path class="cls-3" d="M257.88,130.17A41.84,41.84,0,0,0,245,120.28l7.93-1.06-.15-.12-19.38,2.31a33.79,33.79,0,0,0-3.5.62,2.65,2.65,0,0,1-1.07.39h-.06c3.59-.35,14.22-.29,24.68,11A28.69,28.69,0,0,1,257.88,130.17Z"/><path class="cls-3" d="M255.26,114.08l5.26,4.13,3.47-.46c.17,0,17.48-1.93,26.29,9.59,6.88,9,25.09,38.72,35.33,55.63l0,0a2.75,2.75,0,0,0,3.67.93,48.47,48.47,0,0,1,8.31-3.8,247.41,247.41,0,0,1,.62,25c-.45,21.22-2.91,25.41-3.43,26.06-1.93.2-9.59-2.47-23.61-10.89-11.25-6.75-19.06-12.65-21.14-14.88,1.08-1.44,4.71-4,8.36-5.89a2.75,2.75,0,0,0,1.07-3.91v0c-10.21-16-24.41-38.42-34.05-55a66.54,66.54,0,0,0-4-6.1,22.52,22.52,0,0,0-4.47,3.17,61,61,0,0,1,3.77,5.69c9.2,15.83,22.5,36.95,32.59,52.73-3.75,2.2-8.71,5.75-9,9.37-.12,1.64.42,3.37,8.44,9.25,5.69,4.18,36.26,24.74,44.2,21.58,2.21-.88,3.27-3.29,3.87-5,4.09-11.77,3.33-51.91,1.51-55.06h0l-.07-.11a3.59,3.59,0,0,0-2.22-1.57c-2.72-.67-8,1.73-11.08,3.34-10.48-17.27-27.55-45-34.31-53.87-10.68-14-30.45-11.81-31.33-11.7l-9.44,1.25A2.69,2.69,0,0,1,255.26,114.08Z"/><path class="cls-3" d="M261.38,134.51c-1.16-1.56-2.32-3-3.5-4.34a28.69,28.69,0,0,0-4.44,3.26,52.48,52.48,0,0,1,3.47,4.25A22.52,22.52,0,0,1,261.38,134.51Z"/><path class="cls-3" d="M228.09,117h.09a2.75,2.75,0,0,1,2.6,1.26,2.82,2.82,0,0,1,.4,1.15,2.72,2.72,0,0,1-1.29,2.64,33.79,33.79,0,0,1,3.5-.62l19.38-2.31.15.12,7.6-1-5.26-4.13a2.69,2.69,0,0,0-1.4-.52L228.09,117Z"/><path class="cls-3" d="M228.73,122.44h.09a2.65,2.65,0,0,0,1.07-.39c-.51.12-1,.23-1.51.37C228.5,122.4,228.61,122.45,228.73,122.44Z"/><path class="cls-3" d="M225.73,120a2.7,2.7,0,0,0,2.65,2.38c.48-.14,1-.25,1.51-.37a2.72,2.72,0,0,0,1.29-2.64,2.82,2.82,0,0,0-.4-1.15,2.75,2.75,0,0,0-2.6-1.26h-.09A2.75,2.75,0,0,0,225.73,120Z"/></g></svg>