<svg xmlns="http://www.w3.org/2000/svg" viewBox="0 0 528.74 528.74"><defs><style>.cls-1{fill:#e94e1b;}.cls-2{fill:#fff;}</style></defs><g id="Layer_1" data-name="Layer 1"><circle class="cls-1" cx="263.89" cy="264.82" r="262.99"/><path class="cls-2" d="M125.88,423.9V182.4c0-3.24.17-6.53,0-9.76,0-.15,0-.29,0-.43l-4,2.15h50.94L171,172.81V298.93c0,5.82-.06,11.64,0,17.45v.25c0,2.35,3.55,1.52,4.77.77l26.44-16.27L244,275.38l9.62-5.92-4.77-.77v47.94c0,2.38,3.55,1.47,4.77.77l26.47-15.27L322,278l9.57-5.53-4.77-.76v44.94c0,2.58,4.2,1.44,5.29.35l6.72-6.72,16-16,19.49-19.5,16.87-16.86c2.7-2.71,5.68-5.3,8.19-8.2l.12-.11-5.29-.35V403c0,7.07-.06,14.13,0,21.2v.3c0,1.35,1.46,1.65,2.58,1.53,1-.09,3.25-.82,3.25-2.13V270.11c0-7.07.06-14.13,0-21.2v-.3c0-2.57-4.19-1.43-5.28-.34L388,255l-16,16-19.5,19.49-16.86,16.87c-2.71,2.7-5.68,5.3-8.2,8.19a.57.57,0,0,1-.11.11l5.28.35V271.09c0-2.38-3.54-1.48-4.76-.77l-26.47,15.27-41.86,24.15L250,315.26l4.77.77V268.09c0-2.35-3.55-1.52-4.77-.77l-26.44,16.27-41.84,25.75-9.62,5.92,4.77.77V189.91c0-5.82.06-11.64,0-17.45v-.25a1.66,1.66,0,0,0-1.85-1.55H124c-1.07,0-4,.52-4,2.15V414.3c0,3.26,0,6.51,0,9.77v.43c0,1.35,1.46,1.65,2.58,1.53,1-.09,3.25-.82,3.25-2.13Z"/><path class="cls-2" d="M157.26,157.73a24.12,24.12,0,0,1-9.9-24.68,22.93,22.93,0,0,1,6.93-12.23c.42-.38.86-.74,1.3-1.09l.54-.4s.86-.6.44-.32c.46-.31.94-.59,1.42-.86l.59-.32.59-.3c-.33.15-.3.14.08,0l1.53-.61c1-.39-.47.09.14-.06.27-.06.53-.16.79-.23l.8-.21c.19,0,.92-.18.15,0,.65-.12,1.3-.2,2-.29,1-.14-.38,0,.24,0l1.16,0h.82c.12,0,1.07,0,.69,0a21.86,21.86,0,0,1,3.94.63,22.73,22.73,0,0,1,7,3.2c1.34.91,3.34.48,4.75-.09.54-.22,3.31-1.75,2-2.63-9.91-6.72-23.4-6.2-33.31.33-9.37,6.17-14.4,17.53-11.52,28.55a25.71,25.71,0,0,0,10.12,14.45c1.33.93,3.36.48,4.75-.08.55-.23,3.3-1.73,2-2.63Z"/><path class="cls-2" d="M166.19,111.88a29.49,29.49,0,0,1,1.22-8.37,30.1,30.1,0,0,1,1.61-4,21.91,21.91,0,0,1,2-3.41,29.33,29.33,0,0,1,2.7-3.29l.49-.51c-.14.14.4-.37.52-.48.57-.51,1.15-1,1.75-1.47s1-.79,1.59-1.15c.17-.12,1-.65.45-.3.33-.2.66-.4,1-.58.58-.32,1.16-.62,1.76-.9.35-.17.7-.32,1.06-.48.18-.07,1.1-.43.77-.31l.63-.21,1.12-.34c.71-.2,1.42-.37,2.13-.52l.68-.13.87-.11c.74-.09,1.49-.14,2.24-.18l1.23,0c.16,0,1,0,.47,0,.75,0,1.49.1,2.24.19s1.47.2,2.19.35c.33.06.66.14,1,.21l.24.06a5.34,5.34,0,0,0,.55.16A27.05,27.05,0,0,1,212,94.87a27.86,27.86,0,0,1,6.38,17.49c0,1.79,1.73,2.71,3.39,2.55,1.47-.14,4-1.17,4-3a32.46,32.46,0,0,0-21.36-30.36,34.9,34.9,0,0,0-38,10.29,32.54,32.54,0,0,0-7.58,20.55c0,1.79,1.76,2.71,3.4,2.55s4-1.17,4-3Z"/><path class="cls-2" d="M225.72,108.5a52.46,52.46,0,0,1,9.52-30,51.4,51.4,0,0,1,10.49-11,46.95,46.95,0,0,1,12.32-6.91c.63-.23,1.27-.44,1.9-.65,1.06-.35-.74.21.33-.1l.65-.18q1-.27,1.95-.51c1.09-.27-.75.14.35-.07.45-.09.89-.19,1.34-.27a43.67,43.67,0,0,1,6.91-.7,50.77,50.77,0,0,1,15.82,2.21,52.16,52.16,0,0,1,25.25,17.19,53.11,53.11,0,0,1,11.55,33c0,1,7.25,0,7.24-1.94A53.14,53.14,0,0,0,321,77.1a53.9,53.9,0,0,0-26-19c-22.32-7.58-49,0-64.13,18a53.66,53.66,0,0,0-12.43,34.28c0,1,7.24,0,7.25-1.94Z"/><path class="cls-2" d="M215.59,399.35H175.77l1,.45V379.51l-4.77,2h39.82l-1-.45v20.29c0,1,5.8.17,5.8-1.55V379.51c0-.35-.88-.44-1-.44H175.77a7.92,7.92,0,0,0-3.22.65c-.54.23-1.55.63-1.55,1.34v20.29c0,.35.88.44,1,.44h39.82a7.46,7.46,0,0,0,4.1-1.1C216.8,400.12,216.79,399.35,215.59,399.35Z"/><path class="cls-2" d="M281.36,399.35H241.54l1,.45V379.51l-4.77,2h39.83l-1-.45v20.29c0,1,5.79.17,5.79-1.55V379.51c0-.35-.88-.44-1-.44H241.54a8,8,0,0,0-3.22.65c-.54.23-1.55.63-1.55,1.34v20.29c0,.35.88.44,1,.44h39.83a7.45,7.45,0,0,0,4.09-1.1C282.58,400.12,282.56,399.35,281.36,399.35Z"/><path class="cls-2" d="M347.14,399.35H307.31l1,.45V379.51l-4.76,2H343.4l-1-.45v20.29c0,1,5.8.17,5.8-1.55V379.51c0-.35-.88-.44-1-.44H307.31a7.88,7.88,0,0,0-3.21.65c-.54.23-1.55.63-1.55,1.34v20.29c0,.35.88.44,1,.44H343.4a7.5,7.5,0,0,0,4.1-1.1C348.35,400.12,348.33,399.35,347.14,399.35Z"/></g></svg>