<svg xmlns="http://www.w3.org/2000/svg" viewBox="0 0 528.74 528.74"><defs><style>.cls-1{fill:#e94e1b;}.cls-2{fill:#fff;}.cls-3{fill:none;stroke:#fff;stroke-linecap:round;stroke-linejoin:round;stroke-width:3.5px;}</style></defs><g id="Layer_1" data-name="Layer 1"><circle class="cls-1" cx="264.76" cy="264.38" r="262.99"/><path class="cls-2" d="M197.78,360.63a10.75,10.75,0,0,0,3,7.81,12.37,12.37,0,0,0,8.25,3,14.53,14.53,0,0,0,9.35-3c2.8-2.27,3.92-5.67,4.75-9.06a53.64,53.64,0,0,0,1.29-12.18q.09-6.74.11-13.48c0-9.07,0-18.13,0-27.2,0-5,0-10-.11-14.95a12,12,0,0,1,.09-1.9c0-.13.24-1,.11-.75s.15-.1.23-.14.62-.27.87-.37a13.41,13.41,0,0,0,4-2.07l-4.17.6c.75.72,2,1.37,2.33,2.43a29,29,0,0,1,.44,4.85q.36,4.86.36,9.74,0,10,0,19.92,0,19.94,0,39.85v22.42c0,.74,1.69.63,2.06.58,6-.71,11.77-1,17.85-1.16,3.83-.09,7.69-.24,11.52-.14,1.07,0,2.93-.47,3.37-1.61h0l-.49.65a14.61,14.61,0,0,1-2.65.91h.95c.71,0,1.43.07,2.14.12,2.09.14,4.05.3,6.27.5q7.75.68,15.51,1.48c3.2.33,6.39.7,9.58,1.08,1.18.14,3.91-.29,3.92-1.88q0-39.58,0-79.16v-11c0-3.72.25-7.35.56-11.06L295.88,287h6.89l-1.45-.63c0,16.07-.07,32.13,0,48.2q0,6.21.06,12.44c0,3.9-.11,7.85.58,11.7.57,3.13,1.43,6.84,3.58,9.29a10.73,10.73,0,0,0,7.53,3.22c5.87.39,12.4-2.1,14-8.27a46.42,46.42,0,0,0,1.27-11.32q0-6.21,0-12.43.06-24.58,0-49.18c0-8.07,0-16.11-1.42-24.09a26.56,26.56,0,0,0-7.21-14.35c-4.35-4.3-10-6.48-15.91-7.8-7.73-1.74-15.71-1.92-23.59-2.23-15.34-.6-30.77-.8-46.06.9-11.78,1.31-26.05,2.89-32.53,14.29-3,5.25-3.93,11.19-4,17.16-.11,8.27,0,16.57,0,24.84q0,24.95.06,49.88,0,6,.05,12c0,1.34,4.84.47,4.83-1.29q-.12-23.68-.1-47.38,0-12,0-23.95c0-4,0-7.95,0-11.92a55.78,55.78,0,0,1,.6-10.33c.85-4.86,2.71-9.73,6.23-13.29,3.78-3.83,8.76-5.08,13.89-6,13.9-2.58,28.15-2.89,42.24-2.66,7.69.12,15.4.35,23.07.84,6.77.43,14,1.31,20.16,4.26A23.37,23.37,0,0,1,319.33,259c3,5.63,3.52,12.26,4,18.5.28,3.78.2,7.58.21,11.37,0,4,0,7.95,0,11.92q0,11.93,0,23.85,0,11.67-.05,23.35a82,82,0,0,1-.55,11.73c-.4,2.68-.71,5.82-2.84,7.75-1.49,1.35-3.65,1.47-5.59,1.16a7.49,7.49,0,0,1-5.76-4.45c-3.05-6.9-2.54-14.55-2.59-21.91-.11-15.76,0-31.52,0-47.28v-9.87c0-.56-1.13-.63-1.45-.63h-6.9c-.76,0-3.27.46-3.37,1.6-.25,3.08-.56,6.11-.57,9.21v9.95q0,10.1,0,20.17,0,20,0,40.08v22.4l3.91-1.88c-11.09-1.33-22.26-2.57-33.42-3.21-1.73-.1-4.93-.39-5.7,1.6L262,382.8c-3.94-.1-7.9.05-11.84.15-6.28.16-12.51.5-18.75,1.25l2.06.58q0-40.09,0-80.19c0-3.76-.06-7.5-.33-11.25a32.82,32.82,0,0,0-.47-5.34c-.33-1.34-1.73-2.07-2.66-3s-3.34-.17-4.17.6a1.79,1.79,0,0,1-.55.32c-.57.25-1.15.47-1.72.72a8.25,8.25,0,0,0-3.36,2.08c-.89,1.16-.68,3.13-.63,4.5.08,2.09.08,4.17.08,6.26,0,8.48,0,17,0,25.45s0,16.81-.15,25.21a43.88,43.88,0,0,1-1.73,11.55c-.76,2.61-1.79,5.48-4.43,6.72-2,.95-5.29.26-7.26-1.11-2.62-1.83-3.45-4.95-3.5-8C202.59,358,197.75,358.88,197.78,360.63Z"/><path class="cls-2" d="M241.84,204.8c.07-9.59,5-19,14.12-22.73,9.47-3.87,20.27.07,26.72,7.73a23.53,23.53,0,0,1,2.14,28.3,23.12,23.12,0,0,1-24.16,10.11,24,24,0,0,1-18.82-23.41c0-2.16-4.86-1.21-4.85.54a26,26,0,0,0,17.88,24.9c10.84,3.6,24.06.3,31.7-8.26a26.57,26.57,0,0,0,6.66-14.68,25.21,25.21,0,0,0-3.92-16.51,28.52,28.52,0,0,0-30.86-12.39A27.37,27.37,0,0,0,237,205.34C237,207.49,241.82,206.55,241.84,204.8Z"/><path class="cls-2" d="M213.05,105.2l.69-25.61.4-14.7a11.83,11.83,0,0,0,.08-2.91,7.38,7.38,0,0,0-1.43-1.93,35.87,35.87,0,0,0-10.94-9.43,20.37,20.37,0,0,0-20.67,1.2,22.75,22.75,0,0,0-4.52,4,30.7,30.7,0,0,0-2.12,2.7,3.72,3.72,0,0,0-1,2.4v85.17a54.12,54.12,0,0,0,.42,9.86,21.09,21.09,0,0,0,8,13.32,22.43,22.43,0,0,0,9.75,3.74c4.5.7,8.93.1,13.42-.28,3.16-.26,6.33-.37,9.49-.58a26.88,26.88,0,0,0,7.9-1.44,9.33,9.33,0,0,0,5-4,22.45,22.45,0,0,0,2.13-6.5c2.8-12.46,3.06-25.37,3.32-38.09.23-11.24.21-22.49,0-33.73,0-.64,0-1.27,0-1.9,0-1.36-6.81-.27-6.76,1.81.18,8,.21,15.94.17,23.9-.06,13.12-.1,26.4-1.66,39.44-.31,2.59-.77,5.14-1.3,7.7a39.77,39.77,0,0,1-2,7.3,9.93,9.93,0,0,1-.58,1.18,4.08,4.08,0,0,1-.28.44c.28-.4-.09.12-.18.21s-.23.23-.33.35c-.37.45.34-.33,0,0-.07.07-.62.45-.12.1s-.74.3.08,0c.64-.25,0,0-.19.06.4-.13.86-.25.26-.1-.77.2.77-.11.22,0l-.75.12-.31.05c-.6.1.69-.05.26,0-.24,0-.47.05-.71.07l-1.85.13c-3.19.18-6.38.32-9.56.6-4,.35-7.82.94-11.75.14a18.13,18.13,0,0,1-13-10,26.25,26.25,0,0,1-2.3-11.52v-88a14,14,0,0,1,0-1.45c.09-.84,1-1.75,1.57-2.44a19.94,19.94,0,0,1,3.94-3.9,9,9,0,0,1,1.64-1c.13-.07.58-.24-.05,0l.47-.19c.59-.24-.06,0-.17.05.23-.07.49-.12.72-.2-.87.32,0,0,.27,0,.58-.1,0,0-.13,0l.58,0c.68-.05-.24-.05.43,0,.39,0,.77.06,1.15.11a12.76,12.76,0,0,1,1.55.34,17.55,17.55,0,0,1,2,.69,21,21,0,0,1,3.45,1.88,36,36,0,0,1,5.81,4.85,45.38,45.38,0,0,1,3.49,4l.44.57c.22.3,0-.11,0,0s0,.28,0,.41c.06,1.22-.07,2.49-.1,3.72l-.19,6.74L206.34,105l-.05,2c0,1.27,6.7.32,6.76-1.81Z"/><polygon class="cls-3" points="393.25 108.44 130.16 104.94 132.5 425.32 392.08 426.49 393.25 108.44"/></g></svg>