<svg xmlns="http://www.w3.org/2000/svg" viewBox="0 0 528.74 528.74"><defs><style>.cls-1{fill:#e94e1b;}.cls-2{fill:#fff;}.cls-3,.cls-4{fill:none;stroke:#fff;stroke-linecap:round;stroke-linejoin:round;}.cls-4{stroke-width:3px;}</style></defs><g id="Layer_1" data-name="Layer 1"><circle class="cls-1" cx="264.6" cy="264.38" r="262.99"/><path class="cls-2" d="M354.1,249.46a12.71,12.71,0,0,1-3,8,10.5,10.5,0,0,1-3,2.46,6.19,6.19,0,0,1-2.88.85c-5.56.4-10.72-4.19-12.08-9.49s.07-10.39,2.7-15.31c3.15-5.92,6.75-11.62,10.21-17.36l-5.57.82c3.55,5.9,7.25,11.75,10.48,17.83a23.16,23.16,0,0,1,2.94,8,36.77,36.77,0,0,1,.15,4.2c0,1.45,5.79.47,5.79-1.55a22.19,22.19,0,0,0-.8-7.12c-1.28-3.86-3.55-7.43-5.6-10.92-2.35-4-4.76-8-7.16-12-.91-1.51-4.8-.45-5.57.83-3.48,5.78-7.06,11.52-10.29,17.45a26.41,26.41,0,0,0-3.23,8,20,20,0,0,0,.73,10.43c2.74,6.7,9.8,9.83,16.73,8.95,8.12-1,15.08-7.16,15.19-15.62C359.91,246.48,354.12,247.43,354.1,249.46Z"/><path class="cls-3" d="M230,149.06a16.15,16.15,0,1,0-30.37-2.44l-1.68,6.55,21,9.31,3.72-5.64A16,16,0,0,0,230,149.06Z"/><line class="cls-3" x1="205.17" y1="151.35" x2="203.21" y2="155.76"/><line class="cls-3" x1="215.37" y1="155.88" x2="213.42" y2="160.29"/><line class="cls-3" x1="210.27" y1="153.62" x2="208.32" y2="158.02"/><path class="cls-3" d="M212.87,140.5c1-2.13-6.83-4.41-7.78-2.27-1.91,4.3-.1,4.61,1.93,5.52S211.91,142.64,212.87,140.5Z"/><path class="cls-3" d="M218.24,142.88c.94-2.14,7.86,2.1,6.91,4.25-1.9,4.29-3.35,3.16-5.38,2.27S217.3,145,218.24,142.88Z"/><polyline class="cls-3" points="214.26 149.28 214.43 145.09 213.8 144.81 210.81 147.75"/><line class="cls-4" x1="325.51" y1="388.93" x2="338.83" y2="402.25"/><line class="cls-4" x1="338.83" y1="388.93" x2="325.51" y2="402.25"/><path class="cls-4" d="M316,370c-18.93,0-35.32,13.68-43.29,21.7l-16.95-11v33.25l16.95-11c8,8,24.36,21.69,43.29,21.69,26.77,0,48.46-27.36,48.46-27.36S342.75,370,316,370Z"/><path class="cls-4" d="M320.33,371.38s-5.78,2.73-6,27.69,6,25,6,25"/><path class="cls-2" d="M74.56,308.16c3.85.13,7.68-1.25,11.23-2.61,5.3-2,10.42-4.54,15.57-6.94a139.61,139.61,0,0,1,28.25-10.14,96.88,96.88,0,0,1,20-2.36l-1.77-1.3v0c0,1.24,1.5,1.43,2.51,1.26-.15,0-1.08,0-.21,0,.36,0,.71,0,1.06,0,.82,0,1.63,0,2.44.07,1.57.07,3.14.17,4.71.32,2.73.27,5.44.69,8.13,1.23A89.2,89.2,0,0,1,180.9,292c9.18,3.53,17.61,8.64,26.7,12.35a47.86,47.86,0,0,0,31,2.13c10.27-2.8,19.47-8.39,29.16-12.62a87.4,87.4,0,0,1,29.95-7.59,75.51,75.51,0,0,1,31,4.79c8.4,3.18,16.1,7.79,24.24,11.52A62.16,62.16,0,0,0,382.9,308c11.55-.66,22.3-4.83,32.69-9.63,9.65-4.45,19.28-9.33,29.82-11.28a60.68,60.68,0,0,1,8.61-1c1.26,0,3.13-.37,3.82-1.58s-.54-1.77-1.57-1.73c-11.54.45-22.39,3.81-32.87,8.49-9.89,4.41-19.54,9.67-30.16,12.14a54.23,54.23,0,0,1-31.51-2c-8.35-3.25-16-8-24.24-11.61-20.05-8.66-42.19-9.07-62.81-2-9.64,3.3-18.49,8.23-27.78,12.34a51.28,51.28,0,0,1-15,4.47,38.19,38.19,0,0,1-15.35-1.56c-9.62-2.94-18.26-8.56-27.49-12.48a96,96,0,0,0-29.84-7.51c-2.58-.21-5.58-.66-8.14-.22l2.51,1.26v0c0-1-.9-1.31-1.78-1.29a112.7,112.7,0,0,0-34,5.8c-10.09,3.36-19.5,8.1-29.2,12.38-2.34,1-4.71,2.06-7.14,2.88a15,15,0,0,1-4.72,1c-1.23,0-3.15.42-3.82,1.59s.58,1.69,1.58,1.72Z"/><path class="cls-2" d="M73.84,336.36c4,.13,7.91-1.13,11.61-2.54,5.27-2,10.37-4.48,15.48-6.87,9.21-4.3,18.63-8.07,28.58-10.32a97,97,0,0,1,20-2.31l-1.69-.55v0c0,.77,2.08.54,2.41.48-1.18.2.44.06.87.06l2.49.09c1.56.08,3.12.2,4.67.36a78.22,78.22,0,0,1,8.21,1.26,93.21,93.21,0,0,1,14.36,4.26c9.18,3.52,17.61,8.64,26.7,12.35a47.81,47.81,0,0,0,31,1.94c10.28-2.8,19.46-8.37,29.17-12.6a85.75,85.75,0,0,1,29.9-7.56,76.34,76.34,0,0,1,31.13,4.93c8.4,3.18,16.1,7.79,24.24,11.52a61,61,0,0,0,29.79,5.37c11.6-.77,22.35-4.88,32.81-9.69,9.63-4.42,19.22-9.34,29.74-11.26a61.06,61.06,0,0,1,8.62-.93c1.14-.05,3.18-.42,3.86-1.46s-.59-1.24-1.44-1.21c-11.53.45-22.44,3.9-32.92,8.56-9.86,4.39-19.49,9.67-30.08,12.12a54.24,54.24,0,0,1-31.56-2.19c-8.36-3.26-16-8.06-24.25-11.61-20.09-8.68-42.24-8.8-62.87-1.82C265.06,320,256.24,325,247,329.06a49.19,49.19,0,0,1-14.88,4.46,38.27,38.27,0,0,1-15.47-1.71c-9.6-3.05-18.23-8.57-27.48-12.5a93.89,93.89,0,0,0-29.84-7.4c-2.59-.19-5.52-.59-8.09-.15l2.41.48v0c0-.6-1.39-.56-1.69-.55A114.87,114.87,0,0,0,118,317.49c-10,3.27-19.37,8-29,12.26-2.39,1.07-4.82,2.1-7.3,3a14.42,14.42,0,0,1-4.21,1,6.46,6.46,0,0,0-4.1,1.1c-.8.64-.84,1.5.42,1.54Z"/><path class="cls-2" d="M74.52,365.11c3.84.13,7.7-1.26,11.23-2.62,5.3-2.05,10.43-4.54,15.57-6.94a139.85,139.85,0,0,1,28.25-10.15,97,97,0,0,1,20-2.34l-1.74-.76v0c0,.87,2,.78,2.47.7-1.18.2.42,0,.86,0l2.44.07c1.58.07,3.15.18,4.72.34,2.72.28,5.43.7,8.12,1.24A89.41,89.41,0,0,1,180.88,349c9.18,3.52,17.61,8.63,26.7,12.34a47.86,47.86,0,0,0,31,2.07c10.27-2.8,19.47-8.39,29.17-12.62,9.49-4.14,19.51-7,29.9-7.58A76.57,76.57,0,0,1,328.77,348c8.39,3.18,16.09,7.8,24.23,11.53A61.37,61.37,0,0,0,382.81,365c11.59-.74,22.31-4.82,32.75-9.64,9.64-4.45,19.27-9.36,29.81-11.29a60.94,60.94,0,0,1,8.62-.95c1.22-.05,3.12-.4,3.84-1.54s-.59-1.57-1.53-1.54c-11.52.45-22.39,3.84-32.86,8.51-9.89,4.41-19.54,9.67-30.16,12.14a54.13,54.13,0,0,1-31.53-2.07c-8.36-3.26-16-8.06-24.24-11.61-20.11-8.69-42.24-8.95-62.9-1.93-9.61,3.27-18.42,8.21-27.68,12.3A51.22,51.22,0,0,1,232,361.84a37.46,37.46,0,0,1-15.38-1.62c-9.61-3.05-18.24-8.56-27.48-12.49a95.11,95.11,0,0,0-29.84-7.45c-2.59-.2-5.55-.65-8.12-.21l2.47.7v0c0-.66-1.36-.76-1.75-.76a113.29,113.29,0,0,0-34,5.83c-10.09,3.34-19.5,8.09-29.2,12.37-2.4,1.05-4.82,2.1-7.31,2.93a12.84,12.84,0,0,1-4.55.92c-1.2,0-3.16.45-3.84,1.54s.61,1.5,1.52,1.53Z"/><path class="cls-2" d="M311.36,204.62,324,176.07l1.79-4-5.59,1.49,16.06,7.12-.14-.5-12.65,28.55-1.79,4,5.59-1.5-16.06-7.12a5.23,5.23,0,0,0-3.74.3c-.23.08-2.66,1.28-1.71,1.7l16.06,7.11a4.65,4.65,0,0,0,3,0c.8-.22,2.24-.61,2.61-1.44l12.66-28.55,1.79-4a.37.37,0,0,0-.14-.5l-16.06-7.12a4.58,4.58,0,0,0-3,.06c-.8.21-2.24.6-2.61,1.43l-12.66,28.55-1.79,4c-.43,1,2,.67,2.34.61C308.92,206.07,310.9,205.65,311.36,204.62Z"/><path class="cls-2" d="M322.85,177l-8.56-3.8a16.18,16.18,0,0,1-3.93-2.11,9.14,9.14,0,0,1-3.25-7.27c.08-5.86.38-11.72.49-17.58a16.27,16.27,0,0,0-9.51-15.1l-4.54,1.68.1,0,4.54-1.68-19.11-8.47-8-3.57a10.64,10.64,0,0,0-8-.08,9.79,9.79,0,0,0-4.25,2.72c-1,1.16-1.37,2.71-2.53,3.72-.91.8-1.72.49-2.83,0-.73-.31-1.45-.64-2.17-1l-9.18-4.07-25-11.07-8.71-3.86c-2.56-1.14-5-2.27-5.64-5.39-.33-1.66.25-2.9.7-4.44a6.87,6.87,0,0,0-.2-4.54,7.09,7.09,0,0,0-3.74-3.74c-2-.91-4.05-1.8-6.07-2.69L169.17,74l-10.34-4.58a46.56,46.56,0,0,0-5.08-2.19c-4.88-1.5-11.16,1-13.28,5.66-.71,1.59-1.4,3.18-2.11,4.77l-9.43,21.28-11.16,25.17L111.16,139c-1.67,3.77-.73,8.3,3.12,10.35,1.49.79,3.1,1.39,4.65,2.08l23.39,10.37,17.19,7.62a10.27,10.27,0,0,0,6.85.42,11,11,0,0,0,4.9-2.58c1.1-1.06,1.48-2.48,2.42-3.61,1.08-1.3,1.78-1.28,3.3-.65.69.28,1.37.6,2.05.91l21.43,9.5,21.44,9.5c2.41,1.07,4.82,2,5.68,4.85.94,3.1-1.46,5.73-.6,8.85a7.06,7.06,0,0,0,4,4.51c6.94,3.13,13.93,6.17,20.89,9.26l6.2,2.75,4.54-1.69-.1,0-4.25,1.81c6.1,2.62,13.59,1.48,19-2.18a53.74,53.74,0,0,0,6.68-6l7.7-7.38a7.53,7.53,0,0,1,2.75-2c1.62-.5,3.35.26,4.82.92l9.33,4.14a4.41,4.41,0,0,0,3.13-.23c.2-.08,2.23-1.1,1.42-1.46l-8.54-3.78a20.78,20.78,0,0,0-3.92-1.52,14.84,14.84,0,0,0-10.41,1.87c-2.48,1.45-4.54,3.9-6.6,5.87l-7.62,7.3a14.45,14.45,0,0,1-4.47,3.19c-3,1.25-6.45.64-9.35-.61-.85-.37-2.33.13-3.1.48-.21.08-1.9,1-1.14,1.33l.1,0a4.39,4.39,0,0,0,3.12-.23c.2-.07,2.23-1.1,1.42-1.46l-18.9-8.37c-2.73-1.21-5.47-2.41-8.19-3.64a6.33,6.33,0,0,1-3.83-4.58c-.33-1.66.24-2.9.7-4.44a6.87,6.87,0,0,0-.15-4.39c-1-2.69-3.32-3.68-5.71-4.74l-8.8-3.9-24.68-10.95-9.11-4c-2.28-1-4.35-2.07-6.95-1.89-3.48.23-7.2,1.87-8.81,5.11-.44.88-1.26,2.41-2.27,2.6a4.61,4.61,0,0,1-1.75-.42c-1.74-.68-3.44-1.52-5.14-2.28L135.33,155c-5.33-2.36-10.7-4.64-16-7.09a7.1,7.1,0,0,1-3.49-9.57l2.16-4.87,9.35-21.08,11.08-25,6.64-15a10.89,10.89,0,0,1,.87-1.7c.54-.79,1.4-1.76,2.36-1.81a5.19,5.19,0,0,1,2.11.47c1.82.73,3.6,1.6,5.4,2.39L179.55,82.3c5.22,2.32,10.51,4.53,15.68,7a6.26,6.26,0,0,1,3.68,6.51c-.21,1.49-1,2.74-1,4.29a6.61,6.61,0,0,0,1.35,4.17c1.35,1.81,3.46,2.5,5.44,3.38l21.8,9.67,20.78,9.21,1.85.82a10.24,10.24,0,0,0,6.82.4,10.94,10.94,0,0,0,4.91-2.58c1.09-1.05,1.47-2.47,2.41-3.6s1.27-1.27,2.43-1a7.3,7.3,0,0,1,1,.37c7,3,13.93,6.17,20.89,9.26l6.09,2.7a4.28,4.28,0,0,0,3.12-.23c.2-.07,2.23-1.09,1.42-1.45l-.1,0a4.33,4.33,0,0,0-3.12.22c-.2.08-2.23,1.09-1.42,1.46a15.65,15.65,0,0,1,9.23,14.29c0,2.73-.15,5.47-.22,8.2-.09,3.21-.2,6.42-.27,9.63-.1,4.42,2.53,7.76,6.45,9.5l9.57,4.24a4.34,4.34,0,0,0,3.12-.23c.2-.07,2.23-1.09,1.42-1.45Z"/><line class="cls-4" x1="268.59" y1="119.93" x2="233.01" y2="200.17"/><line class="cls-4" x1="199.54" y1="89.32" x2="163.97" y2="169.55"/></g></svg>