<svg xmlns="http://www.w3.org/2000/svg" viewBox="0 0 528.74 528.74"><defs><style>.cls-1{fill:#e94e1b;}.cls-2{fill:#fff;}</style></defs><g id="Layer_1" data-name="Layer 1"><circle class="cls-1" cx="264.46" cy="264.38" r="262.99"/><path class="cls-2" d="M419.62,391.51H114.54c-4.09,0-8.28-.25-12.37,0h-.54l1.88,1.67V322.76l-4,2.21H404.62c4.09,0,8.27.25,12.36,0,.18,0,.36,0,.54,0l-1.87-1.67v70.42c0,2.82,5.84,1.81,5.84-.54V322.76a1.74,1.74,0,0,0-1.87-1.67h-318c-1.14,0-4,.52-4,2.21v70.42a1.74,1.74,0,0,0,1.88,1.67h318c1.33,0,3.15-.36,3.8-1.7S420.81,391.51,419.62,391.51Z"/><path class="cls-2" d="M420.45,304.54H115.37c-4.1,0-8.28-.24-12.37,0h-.54l1,.41V234.53l-4.77,2H403.78c4.1,0,8.28.25,12.37,0,.18,0,.36,0,.54,0l-1-.41v70.43c0,.93,5.8.11,5.8-1.56V234.53c0-.34-.89-.41-1-.41h-318c-1,0-4.77.43-4.77,2v70.43c0,.34.88.41,1,.41h318a7.37,7.37,0,0,0,4.1-1.1C421.61,305.24,421.66,304.54,420.45,304.54Z"/><path class="cls-2" d="M386,230.7a24.7,24.7,0,0,0-9.21-19.22,26.25,26.25,0,0,0-22-4.8l3.19.72a31.48,31.48,0,0,0-19.41-12.88,32.91,32.91,0,0,0-23.79,4.14,32,32,0,0,0-9.73,9.15l3.43-1.25c-7.58-.61-15.58.66-21.6,5.63a27.09,27.09,0,0,0-8.45,13,38,38,0,0,0-1.37,5.95c-.22,1.5,1.59,1.91,2.68,1.91H370c4.17,0,8.39.19,12.56,0h.18c1.26,0,3-1,3.19-2.34s-1.54-1.91-2.68-1.91H284.44c-1.33,0-2.71-.1-4,0h-.18l2.68,1.91a36.88,36.88,0,0,1,.92-4.42c0-.14.23-.78.07-.27l.21-.67c.15-.47.32-.93.49-1.39a31.73,31.73,0,0,1,1.32-3c.26-.49.53-1,.81-1.45.13-.21.26-.42.4-.63-.26.4.28-.41.38-.54a23.14,23.14,0,0,1,2.32-2.72c.1-.11.22-.21.33-.32-.37.34-.07.06,0,0,.24-.21.47-.41.72-.61.53-.43,1.09-.82,1.66-1.21s-.17.07.43-.26q.45-.25.9-.48l.83-.4c.19-.08,1.32-.54.75-.32a24.3,24.3,0,0,1,11-1.24,4,4,0,0,0,3.43-1.26A25.08,25.08,0,0,1,344.41,202a27.82,27.82,0,0,1,8.23,7.94c.68,1,2.19.93,3.19.72A19.9,19.9,0,0,1,372.54,215a21.41,21.41,0,0,1,7.54,16.09c0,1.44,1.4,2,2.68,1.91C383.87,233,386,232.12,386,230.7Z"/><path class="cls-2" d="M279.66,230.91a33.35,33.35,0,0,0-40.54-26.84l3.17.64a41.48,41.48,0,0,0-25.49-17.08,44,44,0,0,0-32.3,5.76,42.85,42.85,0,0,0-12.62,12.29l4.45-1.61a35.77,35.77,0,0,0-23.18,2.64,34.49,34.49,0,0,0-15,14.1,32.74,32.74,0,0,0-3.76,11.13c-.22,1.48,1.62,1.77,2.65,1.77H259.31c5.62,0,11.3.23,16.93,0h.24c1.21,0,3-.93,3.21-2.27.18-1.49-1.58-1.77-2.65-1.77H143.3c-1.81,0-3.66-.12-5.47,0h-.24l2.65,1.77a29.17,29.17,0,0,1,7.48-15.62,26.84,26.84,0,0,1,14.25-8,16.87,16.87,0,0,1,2.14-.34c.87-.1,1.76-.16,2.64-.19a26.39,26.39,0,0,1,6.2.59,4.12,4.12,0,0,0,4.45-1.6,35.27,35.27,0,0,1,48.35-9.91A38.39,38.39,0,0,1,237,207.21c.65.95,2.21.83,3.16.63,12.38-2.65,24.32,4.33,30.32,15a31.4,31.4,0,0,1,3.41,9.59C274.34,235,280.15,233.55,279.66,230.91Z"/><path class="cls-2" d="M268.59,185.72a33.05,33.05,0,0,1-15.7-3.71c-8.44-4.53-14.27-13-17.32-25.1l-.39-1.55,1.54-.44c12-3.43,22.14-2.56,30.09,2.58a33.73,33.73,0,0,1,12.36,15.38,41.32,41.32,0,0,1,2.77,9.18l.2,1.35-1.28.45a39.16,39.16,0,0,1-9.05,1.73C270.73,185.68,269.65,185.72,268.59,185.72Zm-29.41-28.05c2.91,10.35,8,17.56,15.27,21.44,9.56,5.13,20.23,3,23.95,2-.88-3.88-4.12-14.92-13.4-20.9C258.22,155.88,249.54,155,239.18,157.67Z"/><path class="cls-2" d="M268.73,184.69a30.66,30.66,0,0,1-19-6.32A35,35,0,0,1,239.42,164a68.75,68.75,0,0,1-2.79-9l-1.19,1.35A57.77,57.77,0,0,1,247.58,154a31.73,31.73,0,0,1,12.75,1.67c8.54,3.1,14.58,10.46,17.85,18.74a42.51,42.51,0,0,1,2.51,9.4l1.19-1.35a39.76,39.76,0,0,1-13.15,2.25c-.62,0-1.53.47-1.61,1.15s.79.92,1.34.92a42.05,42.05,0,0,0,13.93-2.39c.61-.21,1.3-.61,1.19-1.35a40.62,40.62,0,0,0-9.5-21,30.09,30.09,0,0,0-10.81-7.75,33.8,33.8,0,0,0-13.49-2.4,57,57,0,0,0-14.86,2.56c-.55.16-1.36.65-1.19,1.35,1.52,6,3.53,11.9,7.05,17.06a31.43,31.43,0,0,0,14.35,11.6,36.49,36.49,0,0,0,13.33,2.36c.62,0,1.52-.48,1.6-1.15S269.28,184.69,268.73,184.69Z"/><path class="cls-2" d="M237.73,158.05c2,7,5.26,13.68,10.75,18.51,5.81,5.11,13.54,7.13,21.16,6.88a41.11,41.11,0,0,0,9-1.32c.57-.15,1.35-.66,1.19-1.36A38.81,38.81,0,0,0,273.13,166a27.4,27.4,0,0,0-8.31-7.37,28.09,28.09,0,0,0-11-3.36,43.75,43.75,0,0,0-14.93,1.42c-.55.14-1.37.67-1.19,1.35s1.17.72,1.71.58c7.35-1.86,15.51-2.3,22.43,1.28,6,3.09,10.23,8.61,12.83,14.72a41,41,0,0,1,2.25,6.91l1.19-1.36c-1,.26-1.94.46-2.92.65h0l-.2,0-.49.08-1.09.15c-.75.09-1.49.16-2.24.21a31.34,31.34,0,0,1-10.43-1A26.52,26.52,0,0,1,245.4,168.5a43.59,43.59,0,0,1-4.77-11.22C240.26,156,237.37,156.75,237.73,158.05Z"/><path class="cls-2" d="M280.54,183.6l-.31-1.32a81.44,81.44,0,0,1,.93-36,61.56,61.56,0,0,1,8.56-19c10.72-15.73,28.7-25.49,53.46-29l1.58-.23.28,1.58c4.22,24.23.58,43.91-10.83,58.47-7.32,9.35-17.61,16.37-30.6,20.89a85.87,85.87,0,0,1-21,4.49l-.68,0Zm61.51-81.79c-23,3.56-39.66,12.76-49.6,27.35a58.36,58.36,0,0,0-8.1,18A73.51,73.51,0,0,0,282,164.1a79.64,79.64,0,0,0,1.18,16.06,83.8,83.8,0,0,0,19.37-4.26c12.38-4.3,22.17-11,29.08-19.8C342.17,142.62,345.68,124.35,342.05,101.81Z"/><path class="cls-2" d="M282,183.21a74.42,74.42,0,0,1-1.88-16.83A73,73,0,0,1,286,136.46,57.8,57.8,0,0,1,300,117a65.11,65.11,0,0,1,18.79-11.71,99.63,99.63,0,0,1,24.33-6.39l1.45-.2-1.21-.25a108.84,108.84,0,0,1,1.83,25.28,66.13,66.13,0,0,1-5.59,23.45,55.49,55.49,0,0,1-13.91,18.65A67.74,67.74,0,0,1,303,178.63,83.62,83.62,0,0,1,289.76,182c-1.53.26-3.08.49-4.63.66l-.43.05c-.2,0,.25,0,.06,0l-.2,0-.73.07c-.44,0-.89.07-1.34.09l-1.35,0a2.83,2.83,0,0,0-1.93.73c-.39.52.35.63.73.62a81.37,81.37,0,0,0,19.58-3.35A77.14,77.14,0,0,0,325,168.48a58,58,0,0,0,15.88-18.56,63.39,63.39,0,0,0,6.88-23.21,99.76,99.76,0,0,0-1.26-27.54c-.09-.49-.17-1-.26-1.47s-1-.28-1.21-.25a116.11,116.11,0,0,0-24.25,5.8A73.17,73.17,0,0,0,300,114.82,59.28,59.28,0,0,0,285,133a70,70,0,0,0-7.67,29.45,86,86,0,0,0,.49,14.26,56.39,56.39,0,0,0,1,5.93c.1.44.21.88.31,1.31C279.27,184.75,282.18,184,282,183.21Z"/><path class="cls-2" d="M342.3,101.17a102.65,102.65,0,0,0-22.41,6,69.17,69.17,0,0,0-17.51,10,56.38,56.38,0,0,0-12.87,14.58,62.65,62.65,0,0,0-8.27,24,80.14,80.14,0,0,0,.22,23.35c.08.48.16,1,.25,1.45.05.3.64.3.84.29a86.09,86.09,0,0,0,21-4.68A69.61,69.61,0,0,0,324.3,164.8a54.22,54.22,0,0,0,13.5-16.17,59,59,0,0,0,6.36-19.92,89.19,89.19,0,0,0-.18-24c-.14-1.09-.3-2.17-.48-3.25-.11-.73-3-.09-2.89.78a94.76,94.76,0,0,1,1,24,61.28,61.28,0,0,1-5.27,20,52.14,52.14,0,0,1-11.83,16.17A61.2,61.2,0,0,1,305.87,174a79.54,79.54,0,0,1-21,5.35l-.33,0-.21,0h.12l-.68.06.85.29a77.41,77.41,0,0,1-.89-21,65.2,65.2,0,0,1,6.78-24.15A54.14,54.14,0,0,1,302.64,119a61.39,61.39,0,0,1,15.79-10,89.29,89.29,0,0,1,20.46-6.1l2.92-.49c.45-.07,1.56-.31,1.68-.86S342.57,101.13,342.3,101.17Z"/><path class="cls-2" d="M276.79,219.36a126.22,126.22,0,0,1,3.06-38.28,97.36,97.36,0,0,1,12.38-29.33,96.21,96.21,0,0,1,27.45-28l1.85,2.73a92.94,92.94,0,0,0-26.52,27,94.15,94.15,0,0,0-12,28.34,125.49,125.49,0,0,0-3,37.18Z"/><path class="cls-2" d="M278.24,219a91.8,91.8,0,0,1-.33-10.36,126.9,126.9,0,0,1,2.37-23.17,101.39,101.39,0,0,1,7.91-24A92.42,92.42,0,0,1,301,141.64a97,97,0,0,1,17.18-15.83c.78-.57,1.57-1.13,2.37-1.67l-2.23.17,1.85,2.73.46-.92a98.39,98.39,0,0,0-17.7,15.27,90.29,90.29,0,0,0-13.18,18.91,96.48,96.48,0,0,0-8.41,22.85,121,121,0,0,0-3,23.9c-.08,2.73-.09,5.46,0,8.18.05,1.33.05,2.68.22,4,0,.06,0,.13,0,.2l1.66-1.13-3.28.32c-.49,0-1.55.35-1.66.94s.88.58,1.23.54l3.28-.32c.51-.05,1.73-.42,1.67-1.13a88.94,88.94,0,0,1-.3-9.79,124.94,124.94,0,0,1,2.25-22.51A98.12,98.12,0,0,1,291.08,163a89,89,0,0,1,12.36-19.15,93.38,93.38,0,0,1,16.68-15.4c.75-.55,1.52-1.08,2.29-1.61.33-.22.75-.52.47-.93L321,123.21c-.38-.55-1.86-.08-2.24.18a102.46,102.46,0,0,0-18.21,15.69A93.07,93.07,0,0,0,287,158.52a99.85,99.85,0,0,0-8.8,23.72,124.76,124.76,0,0,0-3.11,24.49,110.13,110.13,0,0,0,.25,12.72l0,.3C275.42,220.61,278.34,220,278.24,219Z"/></g></svg>