<svg xmlns="http://www.w3.org/2000/svg" viewBox="0 0 528.74 528.74"><defs><style>.cls-1{fill:#e94e1b;}.cls-2{fill:#fff;}</style></defs><g id="Layer_1" data-name="Layer 1"><circle class="cls-1" cx="265.03" cy="264.82" r="262.99"/><path class="cls-2" d="M258.18,186.62a41.75,41.75,0,0,1-26.89-73.41c12.93-11,31.81-12.22,46.28-3.49a42.32,42.32,0,0,1,19.53,43.67c-3,16.26-16.11,30-32.63,32.68a40.27,40.27,0,0,1-6.29.55c-1.09,0-2.62.3-3.16,1.4s.42,1.76,1.4,1.76a47.39,47.39,0,0,0,26.93-8.31,45.15,45.15,0,0,0,16.49-21,43.81,43.81,0,0,0-13.17-49.51c-14.74-12.23-36.12-13.32-52.52-3.77a45,45,0,0,0-21.44,47c3.54,18.21,18.64,32.17,36.81,35.1a44.28,44.28,0,0,0,6.9.55c1.09,0,2.62-.31,3.16-1.41S259.16,186.62,258.18,186.62Z"/><path class="cls-2" d="M221.57,297.86V278.18c0-7.11.05-14.23,0-21.34a22.22,22.22,0,0,0-8.69-17.55c-1-.84-2.09-1.7-3.14-2.55l-18.49-15-21.94-17.84-7.34-6a42.2,42.2,0,0,1-4.33-3.65c-4.67-5-5.73-12.76-1.3-18.27,4.24-5.26,11.41-5.41,16.8-1.78s10.22,7.59,15.3,11.37l19.74,14.69a82,82,0,0,0,36.47,15.61,80.88,80.88,0,0,0,49.8-8.37c7.22-3.82,13.62-8.94,20.15-13.8l21.93-16.32c1.69-1.26,3.36-2.7,5.18-3.79a12.55,12.55,0,0,1,16.8,3.31,13.92,13.92,0,0,1-1.87,18.2c-1.21,1.15-2.64,2.17-3.94,3.23l-18,14.6-22.06,17.93c-3.67,3-7.32,6-11,8.95A22.43,22.43,0,0,0,293,257.26c0,2.55,0,5.11,0,7.67v33.28c0,2.56,4.9,1.86,4.9-.35V277.93c0-7.05-.05-14.09,0-21.14a19,19,0,0,1,7.35-15c1.34-1.07,2.65-2.16,4-3.24l19.67-16L350.53,205l6.53-5.3a27.39,27.39,0,0,0,6.55-6.86,16.34,16.34,0,0,0-1.95-19.57c-5.28-5.55-13.43-6.44-20.3-3.45a37.73,37.73,0,0,0-7.18,4.69l-9.83,7.33L303.6,197.24A90.87,90.87,0,0,1,293.41,204a73.55,73.55,0,0,1-23.68,8.22,74.94,74.94,0,0,1-48.87-8.8c-6.66-3.81-12.72-8.77-18.87-13.35l-21.56-16a32.56,32.56,0,0,0-7.54-4.71,18.25,18.25,0,0,0-20.25,4.79,16.55,16.55,0,0,0-1.36,19.78c1.59,2.52,3.88,4.32,6.15,6.17l16.8,13.66,22.59,18.36c4.1,3.33,8.17,6.7,12.29,10a19.42,19.42,0,0,1,7.57,15.13c0,2.48,0,5,0,7.44v33.58c0,2.56,4.89,1.86,4.89-.35Z"/><path class="cls-2" d="M382.72,262.83l7,14.27,3.8,7.7c.27.54.53,1.09.81,1.62a7.5,7.5,0,0,0,5.71,3.74c5.38.87,10.8,1.57,16.2,2.36l8.35,1.21a7,7,0,0,1,1.69.35,4.71,4.71,0,0,1,2.71,4.64c-.18,2.13-1.88,3.37-3.3,4.75l-7.07,6.89-7.19,7c-1.7,1.65-3.54,3.16-4.22,5.54-.59,2.08.14,4.54.5,6.62l1.74,10.12,1.59,9.31c.37,2.16,1.09,4.7-.86,6.38a2.33,2.33,0,0,1-2.86.15c-.65-.32-1.28-.68-1.92-1l-8.34-4.39L388,345.28c-1.92-1-3.94-2.34-6.12-2.66-3.06-.46-5.49.88-8.05,2.23l-8.75,4.6-8.81,4.63c-1.38.73-3.21,2.14-4.73,1.69a4.63,4.63,0,0,1-3.05-5c.07-.52.17-1,.26-1.55l1.47-8.58c.89-5.18,1.92-10.36,2.67-15.56a6.93,6.93,0,0,0-1.92-5.94c-.46-.47-.95-.92-1.42-1.38l-6.73-6.56-7.44-7.25c-1.23-1.2-3-2.49-3.84-4a4.6,4.6,0,0,1,.57-5.32,2.07,2.07,0,0,1,1.58-.76l7.49-1.09c5.8-.84,11.6-1.63,17.39-2.52a9.39,9.39,0,0,0,7.42-5.2l3.38-6.85c2.57-5.21,5.06-10.46,7.71-15.63a3.2,3.2,0,0,1,2.12-1.92c-.16,0,.35,0,.63,0a3.92,3.92,0,0,1,1.08.36,4.9,4.9,0,0,1,2.05,2.22c.89,1.69,5.54.05,4.45-2-2.56-4.87-9.64-4.76-13.29-1.26-1.52,1.46-2.33,3.69-3.25,5.55l-8.87,18c-.66,1.33-1.27,3.18-2.86,3.55-2.24.52-4.62.67-6.89,1-6.08.88-12.17,1.73-18.24,2.65-3.91.59-7.85,3.18-7.93,7.54,0,2.89,1.65,4.63,3.53,6.47L344,318.74c1.59,1.54,3.77,3.14,4,5.49.19,1.84-.53,4-.84,5.81l-3.36,19.59c-.1.57-.22,1.15-.28,1.72a6.86,6.86,0,0,0,3,6.45c3.08,2.12,6.79,1.38,9.88-.24l17.44-9.17,3.31-1.74a10.26,10.26,0,0,1,1.62-.82c1.62-.48,4.12,1.41,5.46,2.11L402,357.26c.56.29,1.11.6,1.67.88a9.19,9.19,0,0,0,7.54.3,8.2,8.2,0,0,0,5.1-5.6,8.5,8.5,0,0,0-.08-3.37L413,330.79c-.35-2-.76-4.08-1-6.13-.38-2.64,1.35-4,3-5.65l14.37-14c1.64-1.6,3.53-3.11,4.26-5.37a6.87,6.87,0,0,0-1.15-6.26,7.76,7.76,0,0,0-5.11-2.71c-5.68-.9-11.39-1.66-17.09-2.49L402.38,287c-2-.3-3.06-1.65-3.89-3.32L389.77,266l-2.22-4.5c-.51-1-1.79-1.11-2.81-.84C384.08,260.88,382.22,261.81,382.72,262.83Z"/><path class="cls-2" d="M137.37,262.83l7,14.27,3.8,7.7c.27.55.53,1.11.82,1.66a7.63,7.63,0,0,0,5.72,3.81c5.38.9,10.81,1.57,16.2,2.35l8.35,1.22a7.44,7.44,0,0,1,1.69.33,4.51,4.51,0,0,1,2.68,4.52c-.18,2.07-1.93,3.34-3.31,4.69l-7.08,6.9-7.19,7c-1.71,1.67-3.54,3.17-4.2,5.59-.57,2.1.15,4.55.51,6.65l1.73,10.12,1.6,9.31c.35,2,1.05,4.45-.69,6.11a2.45,2.45,0,0,1-3,.35c-.65-.3-1.28-.67-1.92-1L151.73,350l-9.15-4.81c-1.91-1-4-2.37-6.13-2.71-3.06-.49-5.5.88-8.06,2.22l-8.74,4.6L110.83,354c-1.37.72-3.2,2.13-4.72,1.72a4.45,4.45,0,0,1-3-4.93c.07-.52.18-1,.26-1.55l1.48-8.58c.89-5.18,1.91-10.36,2.67-15.56a7.08,7.08,0,0,0-1.94-6c-.47-.47-1-.92-1.42-1.38l-6.73-6.56L90,303.86c-1.24-1.2-3-2.49-3.85-4a4.47,4.47,0,0,1,.61-5.21,2.23,2.23,0,0,1,1.59-.72l7.49-1.09c5.79-.84,11.6-1.64,17.39-2.52a9.33,9.33,0,0,0,7.4-5.26L124,278.2c2.57-5.21,5.06-10.46,7.72-15.63a3.06,3.06,0,0,1,2.13-1.86c-.42.07.45,0,.43,0-.25,0,.2,0,.2,0a3.55,3.55,0,0,1,1.06.31,4.83,4.83,0,0,1,2,2.19c1,1.84,5.58.1,4.42-2.1-2.58-4.91-9.61-4.88-13.3-1.31-1.5,1.46-2.33,3.72-3.24,5.57l-8.87,18c-.29.58-.56,1.17-.86,1.74a3.41,3.41,0,0,1-1.37,1.54c-.14.07-1.24.32-.47.18l-.18,0c-2.3.28-4.59.67-6.89,1-6.08.89-12.16,1.73-18.24,2.65-3.92.6-7.86,3.25-7.9,7.63,0,2.92,1.64,4.67,3.55,6.54l14.46,14.09c1.55,1.51,3.76,3.12,4,5.42.19,1.84-.53,4-.84,5.82L98.47,349.6c-.1.57-.22,1.14-.29,1.72a7,7,0,0,0,3,6.54c3.11,2.14,6.78,1.46,9.89-.18l17.45-9.17,3.31-1.74a9.85,9.85,0,0,1,1.62-.82c1.67-.5,4.06,1.33,5.44,2.05l17.72,9.32,1.68.88a9,9,0,0,0,7.55.36,8.21,8.21,0,0,0,5.07-5.69,8.65,8.65,0,0,0-.08-3.4l-3.2-18.68c-.35-2-.77-4.08-1.06-6.13-.36-2.58,1.41-4,3-5.57l14.37-14c1.6-1.56,3.47-3,4.19-5.25,1.48-4.55-1.8-8.56-6.24-9.29-5.68-.92-11.4-1.65-17.09-2.48L157,286.92c-2.07-.3-3-1.55-3.86-3.21L144.42,266l-2.22-4.5a2.33,2.33,0,0,0-2.85-1C138.63,260.77,136.84,261.77,137.37,262.83Z"/><path class="cls-2" d="M262,283.61l9.63,19.52,5.31,10.76c.34.68.66,1.36,1,2a9.81,9.81,0,0,0,7.43,5c7.68,1.21,15.4,2.24,23.1,3.35l10.94,1.59a8,8,0,0,1,2.89.81,6.86,6.86,0,0,1,3.33,6.82c-.38,2.87-2.85,4.69-4.79,6.59L311,349.64l-9.72,9.47c-2.47,2.42-5.23,4.65-5.77,8.31-.39,2.7.56,5.85,1,8.5L298.91,390l2.17,12.67c.55,3.17,1.2,6.63-1.82,8.88a4.53,4.53,0,0,1-5,.2c-.89-.44-1.76-.92-2.63-1.38l-11.57-6.08-12.51-6.58c-2.61-1.37-5.42-3.25-8.38-3.62-4-.5-7.15,1.49-10.47,3.23l-12.09,6.36-12,6.31c-2.37,1.25-4.76,3.09-7.43,2.07a6.76,6.76,0,0,1-4.14-7.13c.09-.72.24-1.44.36-2.15l2-11.83c1.22-7.14,2.59-14.28,3.68-21.45a9.18,9.18,0,0,0-2.63-8l-2.15-2.1-9.4-9.15-10.1-9.85c-1.73-1.69-4.4-3.65-5.35-5.94a6.73,6.73,0,0,1,1.31-7.28,4.39,4.39,0,0,1,2.87-1.31l10.23-1.49c8-1.16,16-2.29,24-3.49a12.07,12.07,0,0,0,7.19-3.45,13,13,0,0,0,2.16-3.39l4.93-10c3.43-6.94,6.77-13.93,10.28-20.84a6.6,6.6,0,0,1,1.33-1.86,4.54,4.54,0,0,1,1.23-.82,3.89,3.89,0,0,1,1.22-.34,6.35,6.35,0,0,1,5.94,3.75c.52,1,2.48.64,3.26.28,1-.45,1.72-1.3,1.18-2.34-3.29-6.38-12.73-6.48-17.23-1.36-1.77,2-2.8,4.88-4,7.25l-12.16,24.64c-1.09,2.21-2.08,4.69-4.84,5.16-3.15.54-6.35.92-9.52,1.38-8.32,1.21-16.64,2.4-25,3.63a12.43,12.43,0,0,0-6,2.31,9.73,9.73,0,0,0-3.86,8.19c.21,3.64,2.63,5.79,5,8.13l19.78,19.27c2.35,2.29,5.5,4.61,5.44,8.23a51.18,51.18,0,0,1-1.23,7.68l-4.59,26.75c-.14.82-.32,1.66-.4,2.49a9.09,9.09,0,0,0,4.17,8.43,11,11,0,0,0,10.72.4c.64-.31,1.27-.66,1.89-1L249,400.86l4.32-2.27a10,10,0,0,1,2.71-1.21,6.1,6.1,0,0,1,4,1l3.95,2.08,24.3,12.77c.78.41,1.55.83,2.34,1.23a11.26,11.26,0,0,0,9.46.39,10.25,10.25,0,0,0,6.4-7.64,12.16,12.16,0,0,0-.23-4.08l-4.45-26c-.46-2.67-1-5.34-1.38-8a6.71,6.71,0,0,1,2-5.92c.78-.77,1.56-1.52,2.35-2.28l19.84-19.35c2.23-2.17,4.74-4.17,5.65-7.27a9.08,9.08,0,0,0-1.8-8.3,10.17,10.17,0,0,0-6.4-3.29c-8-1.24-16-2.33-24-3.49l-10.42-1.51a6.57,6.57,0,0,1-4.5-2.55,15.11,15.11,0,0,1-1.31-2.37l-12-24.22-3.06-6.21a2.31,2.31,0,0,0-2.83-.89C263.29,281.61,261.47,282.57,262,283.61Z"/></g></svg>