<svg xmlns="http://www.w3.org/2000/svg" viewBox="0 0 528.74 528.74"><defs><style>.cls-1{fill:#e94e1b;}.cls-2{fill:#fff;}</style></defs><g id="Layer_1" data-name="Layer 1"><circle class="cls-1" cx="264.33" cy="264.82" r="262.99"/><path class="cls-2" d="M116.85,226.76a10.21,10.21,0,0,0,5.12-1.38c1.11-.67,1.06-1.42-.38-1.42a10.2,10.2,0,0,0-5.12,1.37c-1.11.67-1,1.43.38,1.43Z"/><path class="cls-2" d="M375.35,212.89l18.81,12,2.67,1.71c1,.66,3.16,0,4.17-.33.78-.25,2.88-.8,2.87-1.85a97.32,97.32,0,0,0-7-36,109.77,109.77,0,0,0-19.39-31.2,130.68,130.68,0,0,0-29.69-25,153.63,153.63,0,0,0-37.62-16.65,170.43,170.43,0,0,0-43.74-6.74,180.38,180.38,0,0,0-45.78,4.79,166,166,0,0,0-40.38,15.2,138.52,138.52,0,0,0-32,23.36,115.13,115.13,0,0,0-22.15,30.11A99.17,99.17,0,0,0,116,217.16c-.29,3.05-.43,6.11-.44,9.17,0,1,7.24,0,7.24-1.94a96.61,96.61,0,0,1,6.76-35.24,108.86,108.86,0,0,1,18.79-30.77A126.92,126.92,0,0,1,176.89,134a140.61,140.61,0,0,1,17.05-9.18c3.16-1.43,5.86-2.55,9-3.7,1.61-.6,3.24-1.18,4.87-1.73,1.8-.6,2.89-1,4.4-1.39a156.16,156.16,0,0,1,41.08-6.42,167.64,167.64,0,0,1,43.1,4.54,153.53,153.53,0,0,1,38,14.61A135.46,135.46,0,0,1,365,153.55,112.14,112.14,0,0,1,386.37,183a98.36,98.36,0,0,1,9.84,34.29c.28,3,.41,6,.42,9l7-2.18-18.8-12-2.68-1.7c-1.17-.74-3.48.06-4.64.48-.37.13-3.21,1.29-2.2,1.94Z"/><path class="cls-2" d="M403.15,225.93l21.46-19.59,3.05-2.78c1.1-1,.8-2.21-.68-2.52a6.41,6.41,0,0,0-5.12,1.37L400.41,222l-3.06,2.78c-1.1,1-.8,2.21.68,2.52a6.36,6.36,0,0,0,5.12-1.37Z"/><path class="cls-2" d="M151.12,298.39l-18.75-12.72-2.73-1.85c-1-.69-3.19,0-4.17.32-.78.25-2.88.8-2.87,1.85a109.46,109.46,0,0,0,6.76,37.74,117.34,117.34,0,0,0,18.77,32.85A133.46,133.46,0,0,0,176.86,383a148.42,148.42,0,0,0,36.53,18,160.52,160.52,0,0,0,87.53,3.83,163.78,163.78,0,0,0,41-15.74,148.42,148.42,0,0,0,33.53-24.91,126.91,126.91,0,0,0,23.75-32.31,107.42,107.42,0,0,0,11.17-38c.32-3.28.47-6.57.48-9.87,0-1-7.24,0-7.24,1.94a103.63,103.63,0,0,1-7.48,38.26,119.91,119.91,0,0,1-20.37,33.25,138.06,138.06,0,0,1-30.21,26.12,147,147,0,0,1-17.66,9.7c-3.09,1.43-6.15,2.72-9.09,3.84q-2.44.93-4.9,1.77l-2.48.82-1.15.37-.29.09-.68.2a137.48,137.48,0,0,1-19.91,4.47,140.57,140.57,0,0,1-20.31,1.5,156.85,156.85,0,0,1-42-5.7,147.81,147.81,0,0,1-36.93-15.91,135.65,135.65,0,0,1-29.82-24.34,119.55,119.55,0,0,1-20.64-31.08,109.88,109.88,0,0,1-9.47-36c-.27-3.1-.39-6.21-.4-9.33l-7,2.18L141.55,299l2.73,1.85c1.13.77,3.51-.07,4.64-.48.39-.14,3.19-1.26,2.2-1.94Z"/><path class="cls-2" d="M123.32,284.45l-21.5,20.91-3,2.93c-1.06,1-.84,2.2.68,2.52a6.32,6.32,0,0,0,5.12-1.37l21.49-20.91,3-2.93c1-1,.83-2.2-.68-2.52a6.32,6.32,0,0,0-5.12,1.37Z"/><path class="cls-2" d="M218.58,355.24c.24-4.86.74-9.71,1.3-14.54a279.36,279.36,0,0,1,5.63-32.62c2.8-11.66,6.41-23.46,12.42-33.91,3.82-6.62,8.79-12.58,13.86-18.27a253.76,253.76,0,0,1,19.07-19,338,338,0,0,1,26.35-21.73c.62-.46.19-.14-.16.11.92-.66,2.2-2,.63-2.82-1.4-.71-3.89-.21-5.13.68-7.81,5.66-15.29,11.81-22.55,18.16-6.7,5.86-13.2,12-19.34,18.39a157,157,0,0,0-17.07,20.5c-6.77,10.08-10.87,21.93-14,33.58a258.22,258.22,0,0,0-6.5,34.12c-.77,6-1.48,12-1.75,18,0,.08,0,.17,0,.26-.08,1.59,1.95,1.69,3.13,1.55s4-.93,4.12-2.46Z"/><path class="cls-2" d="M235.91,277.49a47.28,47.28,0,0,0,1.85-16.93c-.58-8.39-4.83-16.17-10.46-22.3a31.54,31.54,0,0,0-4-3.76c-1.35-1-3.33-.69-4.8-.07-.67.29-3.27,1.9-1.93,2.91a38.47,38.47,0,0,1,9.47,11.12,31.68,31.68,0,0,1,4.3,12.3,42.32,42.32,0,0,1-.36,11.57,43.18,43.18,0,0,1-1.32,6.07c-.49,1.57,2.25,1.66,3.13,1.55,1.43-.17,3.63-.89,4.11-2.46Z"/><path class="cls-2" d="M252.71,252.79a41.52,41.52,0,0,0,10.66,8.26c7,3.86,15.34,4.4,23.13,2.94a36.34,36.34,0,0,0,7.09-1.95c.92-.38,3-1.7,1.93-2.91s-3.59-.57-4.79-.07l-.25.09-.32.12c-.42.17,1-.33.33-.12-1,.29-2,.58-3,.8l-.42.09c-.54.13.64-.09.07,0-.32,0-.64.11-1,.16-.82.13-1.66.23-2.49.31a33.84,33.84,0,0,1-5.14,0c-6-.44-11.41-3.63-15.91-7.48a37.34,37.34,0,0,1-3.23-3.06c-1.69-1.86-8.6.77-6.73,2.83Z"/><path class="cls-2" d="M347.59,167.37a165.73,165.73,0,0,0-20-1.75,220.79,220.79,0,0,0-47.48,3.08c-18.86,3.38-37.34,9.84-53.32,20.54C210,200.44,196.3,216.63,191,236.3a70.42,70.42,0,0,0,3.88,47.14c5.69,12.52,14.93,23.71,28.09,28.63a83.15,83.15,0,0,0,35.29,5.28,76.83,76.83,0,0,0,30.56-9,77.63,77.63,0,0,0,12.65-8.52,57.65,57.65,0,0,0,9-8.92c3.86-5,6.4-11,8.52-16.92,5.76-16,9-32.87,12.79-49.41,1-4.36,2-8.72,3.05-13.07.52-2.12,1-4.23,1.59-6.34s1-3.83,1.53-5.69a136.68,136.68,0,0,1,7.41-21c.66-1.4,1.36-2.78,2.12-4.13q.27-.48.54-.93c.09-.16.19-.31.27-.46.36-.61-.28.45,0,.06.38-.59.77-1.18,1.18-1.76a2.31,2.31,0,0,0-1-3.71,4.73,4.73,0,0,0-5.12,1.38,72.17,72.17,0,0,0-8.61,17.7c-2.73,7.7-4.83,15.61-6.79,23.53-2.1,8.5-4,17.06-5.92,25.61-1,4.23-1.93,8.47-2.95,12.69-.5,2-1,4.1-1.52,6.14l-.72,2.78c-.28,1-.55,2-.73,2.7A135.9,135.9,0,0,1,309,280.54c-.62,1.34-1.27,2.66-2,3.95-.34.6-.69,1.19-1,1.78s.32-.44.06-.09c-.1.13-.18.28-.27.42-.21.32-.43.64-.65.95a41.37,41.37,0,0,1-7,7.43q-2.59,2.28-5.4,4.31c-.94.68-1.9,1.34-2.87,2l-.74.48c-.56.36.71-.44-.25.15-.6.37-1.21.73-1.82,1.08a68.92,68.92,0,0,1-6.35,3.24c-1.1.5-2.21,1-3.33,1.4l-.68.26-.42.15-1.91.65a72,72,0,0,1-7.33,1.95c-.62.13-1.23.25-1.85.36l-.62.11-.63.1c-1.32.2-2.65.36-4,.48a66.65,66.65,0,0,1-15.79-.33,78.8,78.8,0,0,1-16.89-4.27,47.24,47.24,0,0,1-4.85-2.09c-.48-.24.1.06.17.09l-.54-.3-.9-.52c-.6-.37-1.19-.75-1.76-1.15a39.25,39.25,0,0,1-3.62-2.8c-.57-.49-1.13-1-1.67-1.51l-.33-.31c-.54-.51.29.29,0,0s-.59-.6-.88-.91a56.41,56.41,0,0,1-6.13-7.73,66.88,66.88,0,0,1-10.54-42c1.6-18.41,11.2-34.85,24.94-46.94A101.24,101.24,0,0,1,232.8,192c.48-.31,1-.63,1.46-.93-.13.08-.52.32.09-.06l.89-.53c1-.6,2-1.18,3-1.74q3.15-1.75,6.4-3.32c2.05-1,4.12-1.91,6.22-2.78q1.56-.66,3.15-1.26l.79-.31c.62-.23-.85.31.17-.06l1.9-.68c4.29-1.51,8.66-2.81,13.07-3.92,4.23-1.07,8.51-2,12.81-2.7l.78-.13c-.81.13-.1,0,.11,0l1.4-.22c1.13-.17,2.26-.34,3.39-.49q3.1-.42,6.22-.74a218.83,218.83,0,0,1,22.6-1.14c1.7,0,3.4,0,5.09.06l2.29.07h-.26l.66,0,1.08,0q4,.18,7.93.48c3.28.26,6.56.59,9.83,1l1.29.19a4.55,4.55,0,0,0,4.7-2.26C350.59,168.9,349.17,167.63,347.59,167.37Z"/></g></svg>